<?xml version="1.0" encoding="UTF-8" standalone="no"?>
<!-- Created with Inkscape (http://www.inkscape.org/) -->

<svg
   xmlns:dc="http://purl.org/dc/elements/1.1/"
   xmlns:cc="http://creativecommons.org/ns#"
   xmlns:rdf="http://www.w3.org/1999/02/22-rdf-syntax-ns#"
   xmlns:svg="http://www.w3.org/2000/svg"
   xmlns="http://www.w3.org/2000/svg"
   xmlns:xlink="http://www.w3.org/1999/xlink"
   xmlns:sodipodi="http://sodipodi.sourceforge.net/DTD/sodipodi-0.dtd"
   xmlns:inkscape="http://www.inkscape.org/namespaces/inkscape"
   width="210mm"
   height="297mm"
   viewBox="0 0 210 297"
   version="1.1"
   id="svg6093"
   inkscape:version="0.92.2 5c3e80d, 2017-08-06"
   sodipodi:docname="geometricArtTesselation.svg">
  <defs
     id="defs6087">
    <clipPath
       clipPathUnits="userSpaceOnUse"
       id="clipPath7092">
      <path
         style="opacity:1;vector-effect:none;fill:#002a2a;fill-opacity:0.55238097;stroke:none;stroke-width:1.39999986;stroke-linecap:butt;stroke-linejoin:round;stroke-miterlimit:4;stroke-dasharray:none;stroke-dashoffset:0;stroke-opacity:1"
         d="m -86.849479,129.38952 v 36.12389 h 62.572408 v -36.12389 z"
         id="path7094"
         inkscape:connector-curvature="0" />
    </clipPath>
  </defs>
  <sodipodi:namedview
     id="base"
     pagecolor="#ffffff"
     bordercolor="#666666"
     borderopacity="1.0"
     inkscape:pageopacity="0.0"
     inkscape:pageshadow="2"
     inkscape:zoom="0.5"
     inkscape:cx="-447.49785"
     inkscape:cy="721.04347"
     inkscape:document-units="mm"
     inkscape:current-layer="layer1"
     showgrid="false"
     showborder="false"
     inkscape:window-width="1680"
     inkscape:window-height="1005"
     inkscape:window-x="0"
     inkscape:window-y="1"
     inkscape:window-maximized="1" />
  <metadata
     id="metadata6090">
    <rdf:RDF>
      <cc:Work
         rdf:about="">
        <dc:format>image/svg+xml</dc:format>
        <dc:type
           rdf:resource="http://purl.org/dc/dcmitype/StillImage" />
        <dc:title></dc:title>
      </cc:Work>
    </rdf:RDF>
  </metadata>
  <g
     inkscape:label="Layer 1"
     inkscape:groupmode="layer"
     id="layer1">
    <g
       id="g6775"
       clip-path="url(#clipPath7092)"
       transform="translate(-156.7803,-65.481034)"
       inkscape:tile-cx="-212.34337"
       inkscape:tile-cy="78.959904"
       inkscape:tile-w="62.572407"
       inkscape:tile-h="36.123889"
       inkscape:tile-x0="-243.62977"
       inkscape:tile-y0="63.908485">
      <path
         inkscape:connector-curvature="0"
         id="path6638"
         transform="scale(0.26458333)"
         d="M -249.41211,466.27344 -288.82812,489.03125 -210,534.54102 -131.17188,489.03125 -170.58789,466.27344 -210,489.0293 Z"
         style="opacity:1;vector-effect:none;fill:none;fill-opacity:0.55238097;stroke:#000000;stroke-width:5.29133844;stroke-linecap:butt;stroke-linejoin:round;stroke-miterlimit:4;stroke-dasharray:none;stroke-dashoffset:0;stroke-opacity:1" />
      <path
         style="opacity:1;vector-effect:none;fill:none;fill-opacity:0.55238097;stroke:#000000;stroke-width:1.39999998;stroke-linecap:butt;stroke-linejoin:round;stroke-miterlimit:4;stroke-dasharray:none;stroke-dashoffset:0;stroke-opacity:1"
         d="m -65.991155,159.4926 10.429035,6.02096 -3.79e-4,-24.08292 -20.856228,-12.04178 -2.15e-4,12.04229 10.428077,6.02031 z"
         id="path6659"
         inkscape:connector-curvature="0" />
      <path
         inkscape:connector-curvature="0"
         id="path6661"
         d="m -45.133085,159.4926 -10.429035,6.02096 3.79e-4,-24.08292 20.856228,-12.04178 2.15e-4,12.04229 -10.428077,6.02031 z"
         style="opacity:1;vector-effect:none;fill:none;fill-opacity:0.55238097;stroke:#000000;stroke-width:1.39999998;stroke-linecap:butt;stroke-linejoin:round;stroke-miterlimit:4;stroke-dasharray:none;stroke-dashoffset:0;stroke-opacity:1" />
      <path
         style="opacity:1;vector-effect:none;fill:none;fill-opacity:0.55238097;stroke:#000000;stroke-width:1.39999998;stroke-linecap:butt;stroke-linejoin:round;stroke-miterlimit:4;stroke-dasharray:none;stroke-dashoffset:0;stroke-opacity:1"
         d="m -65.991914,87.243759 -10.428819,6.021337 20.856607,12.041124 20.856606,-12.041124 -10.428819,-6.021337 -10.427787,6.020821 z"
         id="path6663"
         inkscape:connector-curvature="0" />
      <path
         inkscape:connector-curvature="0"
         id="path6665"
         d="m -65.992782,123.36818 10.429035,6.02096 -3.79e-4,-24.08292 -20.856228,-12.041781 -2.15e-4,12.042291 10.428077,6.02031 z"
         style="opacity:1;vector-effect:none;fill:none;fill-opacity:0.55238097;stroke:#000000;stroke-width:1.39999998;stroke-linecap:butt;stroke-linejoin:round;stroke-miterlimit:4;stroke-dasharray:none;stroke-dashoffset:0;stroke-opacity:1" />
      <path
         style="opacity:1;vector-effect:none;fill:none;fill-opacity:0.55238097;stroke:#000000;stroke-width:1.39999998;stroke-linecap:butt;stroke-linejoin:round;stroke-miterlimit:4;stroke-dasharray:none;stroke-dashoffset:0;stroke-opacity:1"
         d="m -45.134712,123.36818 -10.429035,6.02096 3.79e-4,-24.08292 20.856228,-12.041781 2.15e-4,12.042291 -10.428077,6.02031 z"
         id="path6667"
         inkscape:connector-curvature="0" />
      <path
         inkscape:connector-curvature="0"
         id="path6669"
         d="m -34.704935,105.30558 -10.428819,6.02134 20.856607,12.04112 20.856606,-12.04112 -10.428819,-6.02134 -10.427787,6.02082 z"
         style="opacity:1;vector-effect:none;fill:none;fill-opacity:0.55238097;stroke:#000000;stroke-width:1.39999998;stroke-linecap:butt;stroke-linejoin:round;stroke-miterlimit:4;stroke-dasharray:none;stroke-dashoffset:0;stroke-opacity:1" />
      <path
         style="opacity:1;vector-effect:none;fill:none;fill-opacity:0.55238097;stroke:#000000;stroke-width:1.39999998;stroke-linecap:butt;stroke-linejoin:round;stroke-miterlimit:4;stroke-dasharray:none;stroke-dashoffset:0;stroke-opacity:1"
         d="m -34.705803,141.43 10.429035,6.02096 -3.79e-4,-24.08292 -20.856228,-12.04178 -2.15e-4,12.04229 10.428077,6.02031 z"
         id="path6671"
         inkscape:connector-curvature="0" />
      <path
         inkscape:connector-curvature="0"
         id="path6673"
         d="m -13.847733,141.43 -10.429035,6.02096 3.79e-4,-24.08292 20.856228,-12.04178 2.15e-4,12.04229 -10.428077,6.02031 z"
         style="opacity:1;vector-effect:none;fill:none;fill-opacity:0.55238097;stroke:#000000;stroke-width:1.39999998;stroke-linecap:butt;stroke-linejoin:round;stroke-miterlimit:4;stroke-dasharray:none;stroke-dashoffset:0;stroke-opacity:1" />
      <path
         style="opacity:1;vector-effect:none;fill:none;fill-opacity:0.55238097;stroke:#000000;stroke-width:1.39999998;stroke-linecap:butt;stroke-linejoin:round;stroke-miterlimit:4;stroke-dasharray:none;stroke-dashoffset:0;stroke-opacity:1"
         d="m -34.704556,141.43014 -10.428819,6.02134 20.856607,12.04112 20.856606,-12.04112 -10.428819,-6.02134 -10.427787,6.02082 z"
         id="path6675"
         inkscape:connector-curvature="0" />
      <path
         inkscape:connector-curvature="0"
         id="path6677"
         d="m -34.705424,177.55456 10.429035,6.02096 -3.79e-4,-24.08292 -20.856228,-12.04178 -2.15e-4,12.04229 10.428077,6.02031 z"
         style="opacity:1;vector-effect:none;fill:none;fill-opacity:0.55238097;stroke:#000000;stroke-width:1.39999998;stroke-linecap:butt;stroke-linejoin:round;stroke-miterlimit:4;stroke-dasharray:none;stroke-dashoffset:0;stroke-opacity:1" />
      <path
         style="opacity:1;vector-effect:none;fill:none;fill-opacity:0.55238097;stroke:#000000;stroke-width:1.39999998;stroke-linecap:butt;stroke-linejoin:round;stroke-miterlimit:4;stroke-dasharray:none;stroke-dashoffset:0;stroke-opacity:1"
         d="m -13.847354,177.55456 -10.429035,6.02096 3.79e-4,-24.08292 20.856228,-12.04178 2.15e-4,12.04229 -10.428077,6.02031 z"
         id="path6679"
         inkscape:connector-curvature="0" />
      <path
         inkscape:connector-curvature="0"
         id="path6681"
         d="m -65.989908,159.49274 -10.428819,6.02134 20.856607,12.04112 20.856606,-12.04112 -10.428819,-6.02134 -10.427787,6.02082 z"
         style="opacity:1;vector-effect:none;fill:none;fill-opacity:0.55238097;stroke:#000000;stroke-width:1.39999998;stroke-linecap:butt;stroke-linejoin:round;stroke-miterlimit:4;stroke-dasharray:none;stroke-dashoffset:0;stroke-opacity:1" />
      <path
         style="opacity:1;vector-effect:none;fill:none;fill-opacity:0.55238097;stroke:#000000;stroke-width:1.39999998;stroke-linecap:butt;stroke-linejoin:round;stroke-miterlimit:4;stroke-dasharray:none;stroke-dashoffset:0;stroke-opacity:1"
         d="m -65.990776,195.61716 10.429035,6.02096 -3.79e-4,-24.08292 -20.856228,-12.04178 -2.15e-4,12.04229 10.428077,6.02031 z"
         id="path6683"
         inkscape:connector-curvature="0" />
      <path
         inkscape:connector-curvature="0"
         id="path6685"
         d="m -45.132706,195.61716 -10.429035,6.02096 3.79e-4,-24.08292 20.856228,-12.04178 2.15e-4,12.04229 -10.428077,6.02031 z"
         style="opacity:1;vector-effect:none;fill:none;fill-opacity:0.55238097;stroke:#000000;stroke-width:1.39999998;stroke-linecap:butt;stroke-linejoin:round;stroke-miterlimit:4;stroke-dasharray:none;stroke-dashoffset:0;stroke-opacity:1" />
      <path
         style="opacity:1;vector-effect:none;fill:none;fill-opacity:0.55238097;stroke:#000000;stroke-width:1.39999998;stroke-linecap:butt;stroke-linejoin:round;stroke-miterlimit:4;stroke-dasharray:none;stroke-dashoffset:0;stroke-opacity:1"
         d="m -65.989908,159.49274 -10.428819,6.02134 20.856607,12.04112 20.856606,-12.04112 -10.428819,-6.02134 -10.427787,6.02082 z"
         id="path6687"
         inkscape:connector-curvature="0" />
      <path
         inkscape:connector-curvature="0"
         id="path6689"
         d="m -65.990776,195.61716 10.429035,6.02096 -3.79e-4,-24.08292 -20.856228,-12.04178 -2.15e-4,12.04229 10.428077,6.02031 z"
         style="opacity:1;vector-effect:none;fill:none;fill-opacity:0.55238097;stroke:#000000;stroke-width:1.39999998;stroke-linecap:butt;stroke-linejoin:round;stroke-miterlimit:4;stroke-dasharray:none;stroke-dashoffset:0;stroke-opacity:1" />
      <path
         style="opacity:1;vector-effect:none;fill:none;fill-opacity:0.55238097;stroke:#000000;stroke-width:1.39999998;stroke-linecap:butt;stroke-linejoin:round;stroke-miterlimit:4;stroke-dasharray:none;stroke-dashoffset:0;stroke-opacity:1"
         d="m -45.132706,195.61716 -10.429035,6.02096 3.79e-4,-24.08292 20.856228,-12.04178 2.15e-4,12.04229 -10.428077,6.02031 z"
         id="path6691"
         inkscape:connector-curvature="0" />
      <path
         inkscape:connector-curvature="0"
         id="path6699"
         d="m -97.27526,141.43014 -10.42882,6.02134 20.856608,12.04112 20.856606,-12.04112 -10.428819,-6.02134 -10.427787,6.02082 z"
         style="opacity:1;vector-effect:none;fill:none;fill-opacity:0.55238097;stroke:#000000;stroke-width:1.39999998;stroke-linecap:butt;stroke-linejoin:round;stroke-miterlimit:4;stroke-dasharray:none;stroke-dashoffset:0;stroke-opacity:1" />
      <path
         style="opacity:1;vector-effect:none;fill:none;fill-opacity:0.55238097;stroke:#000000;stroke-width:1.39999998;stroke-linecap:butt;stroke-linejoin:round;stroke-miterlimit:4;stroke-dasharray:none;stroke-dashoffset:0;stroke-opacity:1"
         d="m -97.276128,177.55456 10.429035,6.02096 -3.79e-4,-24.08292 -20.856228,-12.04178 -2.2e-4,12.04229 10.428082,6.02031 z"
         id="path6701"
         inkscape:connector-curvature="0" />
      <path
         inkscape:connector-curvature="0"
         id="path6703"
         d="m -76.418058,177.55456 -10.429035,6.02096 3.79e-4,-24.08292 20.856228,-12.04178 2.15e-4,12.04229 -10.428077,6.02031 z"
         style="opacity:1;vector-effect:none;fill:none;fill-opacity:0.55238097;stroke:#000000;stroke-width:1.39999998;stroke-linecap:butt;stroke-linejoin:round;stroke-miterlimit:4;stroke-dasharray:none;stroke-dashoffset:0;stroke-opacity:1" />
      <path
         style="opacity:1;vector-effect:none;fill:none;fill-opacity:0.55238097;stroke:#000000;stroke-width:1.39999998;stroke-linecap:butt;stroke-linejoin:round;stroke-miterlimit:4;stroke-dasharray:none;stroke-dashoffset:0;stroke-opacity:1"
         d="m -97.277771,105.30521 -10.428819,6.02134 20.856607,12.04112 20.856606,-12.04112 -10.428819,-6.02134 -10.427787,6.02082 z"
         id="path6705"
         inkscape:connector-curvature="0" />
      <path
         inkscape:connector-curvature="0"
         id="path6707"
         d="m -97.278639,141.42963 10.429035,6.02096 -3.79e-4,-24.08292 -20.856227,-12.04178 -2.2e-4,12.04229 10.428081,6.02031 z"
         style="opacity:1;vector-effect:none;fill:none;fill-opacity:0.55238097;stroke:#000000;stroke-width:1.39999998;stroke-linecap:butt;stroke-linejoin:round;stroke-miterlimit:4;stroke-dasharray:none;stroke-dashoffset:0;stroke-opacity:1" />
      <path
         style="opacity:1;vector-effect:none;fill:none;fill-opacity:0.55238097;stroke:#000000;stroke-width:1.39999998;stroke-linecap:butt;stroke-linejoin:round;stroke-miterlimit:4;stroke-dasharray:none;stroke-dashoffset:0;stroke-opacity:1"
         d="m -76.420569,141.42963 -10.429035,6.02096 3.79e-4,-24.08292 20.856228,-12.04178 2.15e-4,12.04229 -10.428077,6.02031 z"
         id="path6709"
         inkscape:connector-curvature="0" />
    </g>
    <use
       x="0"
       y="0"
       inkscape:tiled-clone-of="#g6775"
       xlink:href="#g6775"
       id="use10785"
       width="100%"
       height="100%" />
    <use
       x="0"
       y="0"
       inkscape:tiled-clone-of="#g6775"
       xlink:href="#g6775"
       transform="translate(0,36.123889)"
       id="use10787"
       width="100%"
       height="100%" />
    <use
       x="0"
       y="0"
       inkscape:tiled-clone-of="#g6775"
       xlink:href="#g6775"
       transform="translate(0,72.247778)"
       id="use10789"
       width="100%"
       height="100%" />
    <use
       x="0"
       y="0"
       inkscape:tiled-clone-of="#g6775"
       xlink:href="#g6775"
       transform="translate(0,108.37167)"
       id="use10791"
       width="100%"
       height="100%" />
    <use
       x="0"
       y="0"
       inkscape:tiled-clone-of="#g6775"
       xlink:href="#g6775"
       transform="translate(0,144.49556)"
       id="use10793"
       width="100%"
       height="100%" />
    <use
       x="0"
       y="0"
       inkscape:tiled-clone-of="#g6775"
       xlink:href="#g6775"
       transform="translate(62.572407)"
       id="use10795"
       width="100%"
       height="100%" />
    <use
       x="0"
       y="0"
       inkscape:tiled-clone-of="#g6775"
       xlink:href="#g6775"
       transform="translate(62.572407,36.123889)"
       id="use10797"
       width="100%"
       height="100%" />
    <use
       x="0"
       y="0"
       inkscape:tiled-clone-of="#g6775"
       xlink:href="#g6775"
       transform="translate(62.572407,72.247778)"
       id="use10799"
       width="100%"
       height="100%" />
    <use
       x="0"
       y="0"
       inkscape:tiled-clone-of="#g6775"
       xlink:href="#g6775"
       transform="translate(62.572407,108.37167)"
       id="use10801"
       width="100%"
       height="100%" />
    <use
       x="0"
       y="0"
       inkscape:tiled-clone-of="#g6775"
       xlink:href="#g6775"
       transform="translate(62.572407,144.49556)"
       id="use10803"
       width="100%"
       height="100%" />
    <use
       x="0"
       y="0"
       inkscape:tiled-clone-of="#g6775"
       xlink:href="#g6775"
       transform="translate(125.14481)"
       id="use10805"
       width="100%"
       height="100%" />
    <use
       x="0"
       y="0"
       inkscape:tiled-clone-of="#g6775"
       xlink:href="#g6775"
       transform="translate(125.14481,36.123889)"
       id="use10807"
       width="100%"
       height="100%" />
    <use
       x="0"
       y="0"
       inkscape:tiled-clone-of="#g6775"
       xlink:href="#g6775"
       transform="translate(125.14481,72.247778)"
       id="use10809"
       width="100%"
       height="100%" />
    <use
       x="0"
       y="0"
       inkscape:tiled-clone-of="#g6775"
       xlink:href="#g6775"
       transform="translate(125.14481,108.37167)"
       id="use10811"
       width="100%"
       height="100%" />
    <use
       x="0"
       y="0"
       inkscape:tiled-clone-of="#g6775"
       xlink:href="#g6775"
       transform="translate(125.14481,144.49556)"
       id="use10813"
       width="100%"
       height="100%" />
    <use
       x="0"
       y="0"
       inkscape:tiled-clone-of="#g6775"
       xlink:href="#g6775"
       transform="translate(187.71722)"
       id="use10815"
       width="100%"
       height="100%" />
    <use
       x="0"
       y="0"
       inkscape:tiled-clone-of="#g6775"
       xlink:href="#g6775"
       transform="translate(187.71722,36.123889)"
       id="use10817"
       width="100%"
       height="100%" />
    <use
       x="0"
       y="0"
       inkscape:tiled-clone-of="#g6775"
       xlink:href="#g6775"
       transform="translate(187.71722,72.247778)"
       id="use10819"
       width="100%"
       height="100%" />
    <use
       x="0"
       y="0"
       inkscape:tiled-clone-of="#g6775"
       xlink:href="#g6775"
       transform="translate(187.71722,108.37167)"
       id="use10821"
       width="100%"
       height="100%" />
    <use
       x="0"
       y="0"
       inkscape:tiled-clone-of="#g6775"
       xlink:href="#g6775"
       transform="translate(187.71722,144.49556)"
       id="use10823"
       width="100%"
       height="100%" />
    <use
       x="0"
       y="0"
       inkscape:tiled-clone-of="#g6775"
       xlink:href="#g6775"
       transform="translate(250.28963)"
       id="use10825"
       width="100%"
       height="100%" />
    <use
       x="0"
       y="0"
       inkscape:tiled-clone-of="#g6775"
       xlink:href="#g6775"
       transform="translate(250.28963,36.123889)"
       id="use10827"
       width="100%"
       height="100%" />
    <use
       x="0"
       y="0"
       inkscape:tiled-clone-of="#g6775"
       xlink:href="#g6775"
       transform="translate(250.28963,72.247778)"
       id="use10829"
       width="100%"
       height="100%" />
    <use
       x="0"
       y="0"
       inkscape:tiled-clone-of="#g6775"
       xlink:href="#g6775"
       transform="translate(250.28963,108.37167)"
       id="use10831"
       width="100%"
       height="100%" />
    <use
       x="0"
       y="0"
       inkscape:tiled-clone-of="#g6775"
       xlink:href="#g6775"
       transform="translate(250.28963,144.49556)"
       id="use10833"
       width="100%"
       height="100%" />
  </g>
</svg>
