  0
SECTION
  2
HEADER
  9
$ACADVER
  1
AC1009
  9
$INSBASE
 10
0.0
 20
0.0
 30
0.0
  9
$EXTMIN
 10
9.8485179418146345
 20
9.7011143628667469
 30
0.0
  9
$EXTMAX
 10
1423.1516656102051
 20
2158.5081785410171
 30
0.0
  9
$LIMMIN
 10
0.0
 20
0.0
  9
$LIMMAX
 10
420.0
 20
297.0
  9
$ORTHOMODE
 70
     0
  9
$REGENMODE
 70
     1
  9
$FILLMODE
 70
     1
  9
$QTEXTMODE
 70
     0
  9
$MIRRTEXT
 70
     0
  9
$DRAGMODE
 70
     2
  9
$LTSCALE
 40
1.0
  9
$OSMODE
 70
  1455
  9
$ATTMODE
 70
     1
  9
$TEXTSIZE
 40
2.5
  9
$TRACEWID
 40
1.0
  9
$TEXTSTYLE
  7
STANDARD
  9
$CLAYER
  8
0
  9
$CELTYPE
  6
BYLAYER
  9
$CECOLOR
 62
   256
  9
$DIMSCALE
 40
1.0
  9
$DIMASZ
 40
2.5
  9
$DIMEXO
 40
0.625
  9
$DIMDLI
 40
3.75
  9
$DIMRND
 40
0.0
  9
$DIMDLE
 40
0.0
  9
$DIMEXE
 40
1.25
  9
$DIMTP
 40
0.0
  9
$DIMTM
 40
0.0
  9
$DIMTXT
 40
2.5
  9
$DIMCEN
 40
2.5
  9
$DIMTSZ
 40
0.0
  9
$DIMTOL
 70
     0
  9
$DIMLIM
 70
     0
  9
$DIMTIH
 70
     0
  9
$DIMTOH
 70
     0
  9
$DIMSE1
 70
     0
  9
$DIMSE2
 70
     0
  9
$DIMTAD
 70
     1
  9
$DIMZIN
 70
     8
  9
$DIMBLK
  1

  9
$DIMASO
 70
     1
  9
$DIMSHO
 70
     1
  9
$DIMPOST
  1

  9
$DIMAPOST
  1

  9
$DIMALT
 70
     0
  9
$DIMALTD
 70
     3
  9
$DIMALTF
 40
0.03937007874016
  9
$DIMLFAC
 40
1.0
  9
$DIMTOFL
 70
     1
  9
$DIMTVP
 40
0.0
  9
$DIMTIX
 70
     0
  9
$DIMSOXD
 70
     0
  9
$DIMSAH
 70
     0
  9
$DIMBLK1
  1

  9
$DIMBLK2
  1

  9
$DIMSTYLE
  2
ISO-25
  9
$DIMCLRD
 70
     0
  9
$DIMCLRE
 70
     0
  9
$DIMCLRT
 70
     0
  9
$DIMTFAC
 40
1.0
  9
$DIMGAP
 40
0.625
  9
$LUNITS
 70
     2
  9
$LUPREC
 70
     4
  9
$SKETCHINC
 40
1.0
  9
$FILLETRAD
 40
0.0
  9
$AUNITS
 70
     0
  9
$AUPREC
 70
     0
  9
$MENU
  1
.
  9
$ELEVATION
 40
0.0
  9
$PELEVATION
 40
0.0
  9
$THICKNESS
 40
0.0
  9
$LIMCHECK
 70
     0
  9
$BLIPMODE
 70
     0
  9
$CHAMFERA
 40
0.0
  9
$CHAMFERB
 40
0.0
  9
$SKPOLY
 70
     0
  9
$TDCREATE
 40
2457427.8724701968
  9
$TDUPDATE
 40
2457482.6783418981
  9
$TDINDWG
 40
0.3919564236
  9
$TDUSRTIMER
 40
0.3919563657
  9
$USRTIMER
 70
     1
  9
$ANGBASE
 50
0.0
  9
$ANGDIR
 70
     0
  9
$PDMODE
 70
     0
  9
$PDSIZE
 40
0.0
  9
$PLINEWID
 40
0.0
  9
$COORDS
 70
     1
  9
$SPLFRAME
 70
     0
  9
$SPLINETYPE
 70
     6
  9
$SPLINESEGS
 70
     8
  9
$ATTDIA
 70
     1
  9
$ATTREQ
 70
     1
  9
$HANDLING
 70
     1
  9
$HANDSEED
  5
152C
  9
$SURFTAB1
 70
     6
  9
$SURFTAB2
 70
     6
  9
$SURFTYPE
 70
     6
  9
$SURFU
 70
     6
  9
$SURFV
 70
     6
  9
$UCSNAME
  2

  9
$UCSORG
 10
0.0
 20
0.0
 30
0.0
  9
$UCSXDIR
 10
1.0
 20
0.0
 30
0.0
  9
$UCSYDIR
 10
0.0
 20
1.0
 30
0.0
  9
$PUCSNAME
  2

  9
$PUCSORG
 10
0.0
 20
0.0
 30
0.0
  9
$PUCSXDIR
 10
1.0
 20
0.0
 30
0.0
  9
$PUCSYDIR
 10
0.0
 20
1.0
 30
0.0
  9
$USERI1
 70
     0
  9
$USERI2
 70
     0
  9
$USERI3
 70
     0
  9
$USERI4
 70
     0
  9
$USERI5
 70
     0
  9
$USERR1
 40
0.0
  9
$USERR2
 40
0.0
  9
$USERR3
 40
0.0
  9
$USERR4
 40
0.0
  9
$USERR5
 40
0.0
  9
$WORLDVIEW
 70
     1
  9
$SHADEDGE
 70
     3
  9
$SHADEDIF
 70
    70
  9
$TILEMODE
 70
     1
  9
$MAXACTVP
 70
    64
  9
$PLIMCHECK
 70
     0
  9
$PEXTMIN
 10
0.0
 20
0.0
 30
0.0
  9
$PEXTMAX
 10
0.0
 20
0.0
 30
0.0
  9
$PLIMMIN
 10
0.0
 20
0.0
  9
$PLIMMAX
 10
12.0
 20
9.0
  9
$UNITMODE
 70
     0
  9
$VISRETAIN
 70
     1
  9
$PLINEGEN
 70
     0
  9
$PSLTSCALE
 70
     1
  0
ENDSEC
  0
SECTION
  2
TABLES
  0
TABLE
  2
VPORT
 70
     1
  0
VPORT
  2
*ACTIVE
 70
     0
 10
0.0
 20
0.0
 11
1.0
 21
1.0
 12
-1138.1464649736131
 22
-1867.735209979912
 13
0.0
 23
0.0
 14
10.0
 24
10.0
 15
10.0
 25
10.0
 16
0.0
 26
0.0
 36
478.60034662056421
 17
1260.067932128906
 27
1969.111145019531
 37
0.0
 40
266.4210577295126
 41
1.8718703976435931
 42
50.0
 43
0.0
 44
0.0
 50
0.0
 51
0.0
 71
     0
 72
  1000
 73
     1
 74
     3
 75
     0
 76
     1
 77
     0
 78
     0
  0
ENDTAB
  0
TABLE
  2
LTYPE
 70
     2
  0
LTYPE
  2
CONTINUOUS
 70
     0
  3
Solid line
 72
    65
 73
     0
 40
0.0
  0
ENDTAB
  0
TABLE
  2
LAYER
 70
     2
  0
LAYER
  2
0
 70
     0
 62
     7
  6
CONTINUOUS
  0
LAYER
  2
DEFPOINTS
 70
     0
 62
     7
  6
CONTINUOUS
  0
ENDTAB
  0
TABLE
  2
STYLE
 70
     2
  0
STYLE
  2
STANDARD
 70
     0
 40
0.0
 41
1.0
 50
0.0
 71
     0
 42
2.5
  3
txt
  4

  0
STYLE
  2
BESCHRIFTUNG
 70
     0
 40
0.0
 41
1.0
 50
0.0
 71
     0
 42
2.5
  3
txt
  4

  0
ENDTAB
  0
TABLE
  2
VIEW
 70
     0
  0
ENDTAB
  0
TABLE
  2
UCS
 70
     0
  0
ENDTAB
  0
TABLE
  2
APPID
 70
     9
  0
APPID
  2
ACAD
 70
     0
  0
APPID
  2
ACAD_PSEXT
 70
     0
  0
APPID
  2
ACADANNOPO
 70
     0
  0
APPID
  2
ACADANNOTATIVE
 70
     0
  0
APPID
  2
ACAD_DSTYLE_DIMJAG
 70
     0
  0
APPID
  2
ACAD_DSTYLE_DIMTALN
 70
     0
  0
APPID
  2
ACAD_MLEADERVER
 70
     0
  0
APPID
  2
ACAD_NAV_VCDISPLAY
 70
     0
  0
APPID
  2
ACAD_EXEMPT_FROM_CAD_STANDARDS
 70
     0
  0
ENDTAB
  0
TABLE
  2
DIMSTYLE
 70
     4
  0
DIMSTYLE
  2
STANDARD
 70
     0
  3

  4

  5

  6

  7

 40
1.0
 41
0.18
 42
0.0625
 43
0.38
 44
0.18
 45
0.0
 46
0.0
 47
0.0
 48
0.0
140
0.18
141
0.09
142
0.0
143
25.399999999999999
144
1.0
145
0.0
146
1.0
147
0.09
 71
     0
 72
     0
 73
     1
 74
     1
 75
     0
 76
     0
 77
     0
 78
     0
170
     0
171
     2
172
     0
173
     0
174
     0
175
     0
176
     0
177
     0
178
     0
  0
DIMSTYLE
  2
BESCHRIFTUNG
 70
     0
  3

  4

  5

  6

  7

 40
0.0
 41
2.5
 42
0.625
 43
3.75
 44
1.25
 45
0.0
 46
0.0
 47
0.0
 48
0.0
140
2.5
141
2.5
142
0.0
143
0.03937007874016
144
1.0
145
0.0
146
1.0
147
0.625
 71
     0
 72
     0
 73
     0
 74
     0
 75
     0
 76
     0
 77
     1
 78
     8
170
     0
171
     3
172
     1
173
     0
174
     0
175
     0
176
     0
177
     0
178
     0
  0
DIMSTYLE
  2
ISO-25
 70
     0
  3

  4

  5

  6

  7

 40
1.0
 41
2.5
 42
0.625
 43
3.75
 44
1.25
 45
0.0
 46
0.0
 47
0.0
 48
0.0
140
2.5
141
2.5
142
0.0
143
0.03937007874016
144
1.0
145
0.0
146
1.0
147
0.625
 71
     0
 72
     0
 73
     0
 74
     0
 75
     0
 76
     0
 77
     1
 78
     8
170
     0
171
     3
172
     1
173
     0
174
     0
175
     0
176
     0
177
     0
178
     0
  0
ENDTAB
  0
ENDSEC
  0
SECTION
  2
BLOCKS
  0
BLOCK
  8
0
  2
$MODEL_SPACE
 70
     0
 10
0.0
 20
0.0
 30
0.0
  3
$MODEL_SPACE
  1

  0
ENDBLK
  5
21
  8
0
  0
BLOCK
 67
     1
  8
0
  2
$PAPER_SPACE
 70
     0
 10
0.0
 20
0.0
 30
0.0
  3
$PAPER_SPACE
  1

  0
ENDBLK
  5
D5
 67
     1
  8
0
  0
ENDSEC
  0
SECTION
  2
ENTITIES
  0
POLYLINE
  5
725
  8
0
 66
     1
 10
0.0
 20
0.0
 30
0.0
 70
     1
  0
VERTEX
  5
1122
  8
0
 10
86.881364326136918
 20
128.36517443342581
 30
0.0
  0
VERTEX
  5
1123
  8
0
 10
89.516399054053181
 20
125.4663560411866
 30
0.0
  0
VERTEX
  5
1124
  8
0
 10
85.858457465230003
 20
123.6142557738328
 30
0.0
  0
VERTEX
  5
1125
  8
0
 10
84.095983070493048
 20
124.6761581816056
 30
0.0
  0
VERTEX
  5
1126
  8
0
 10
83.313525741465114
 20
127.5953940673846
 30
0.0
  0
SEQEND
  5
1127
  8
0
  0
POLYLINE
  5
726
  8
0
 66
     1
 10
0.0
 20
0.0
 30
0.0
 70
     1
  0
VERTEX
  5
1128
  8
0
 10
82.402468658269981
 20
108.64077023705499
 30
0.0
  0
VERTEX
  5
1129
  8
0
 10
80.330998844232909
 20
110.13106686029749
 30
0.0
  0
VERTEX
  5
112A
  8
0
 10
80.860094320507187
 20
111.6202909359219
 30
0.0
  0
VERTEX
  5
112B
  8
0
 10
84.547653491178835
 20
112.6972191556108
 30
0.0
  0
VERTEX
  5
112C
  8
0
 10
85.737378704324996
 20
112.1054202445959
 30
0.0
  0
SEQEND
  5
112D
  8
0
  0
POLYLINE
  5
727
  8
0
 66
     1
 10
0.0
 20
0.0
 30
0.0
 70
     1
  0
VERTEX
  5
112E
  8
0
 10
63.173047244328011
 20
128.8243237792646
 30
0.0
  0
VERTEX
  5
112F
  8
0
 10
62.725999127971129
 20
132.0307543005799
 30
0.0
  0
VERTEX
  5
1130
  8
0
 10
68.402001068110167
 20
133.87499912678661
 30
0.0
  0
VERTEX
  5
1131
  8
0
 10
69.925024117601879
 20
131.01817405390079
 30
0.0
  0
VERTEX
  5
1132
  8
0
 10
66.596141814080966
 20
129.7762711461921
 30
0.0
  0
SEQEND
  5
1133
  8
0
  0
POLYLINE
  5
728
  8
0
 66
     1
 10
0.0
 20
0.0
 30
0.0
 70
     1
  0
VERTEX
  5
1134
  8
0
 10
77.306130046709995
 20
132.49640804828891
 30
0.0
  0
VERTEX
  5
1135
  8
0
 10
71.888779147767991
 20
131.58598223905551
 30
0.0
  0
VERTEX
  5
1136
  8
0
 10
70.035970996344076
 20
135.06140487563491
 30
0.0
  0
VERTEX
  5
1137
  8
0
 10
71.911349574593942
 20
138.25427361217109
 30
0.0
  0
VERTEX
  5
1138
  8
0
 10
78.999842480563075
 20
135.95108265041489
 30
0.0
  0
SEQEND
  5
1139
  8
0
  0
POLYLINE
  5
729
  8
0
 66
     1
 10
0.0
 20
0.0
 30
0.0
 70
     1
  0
VERTEX
  5
113A
  8
0
 10
68.152531572637145
 20
128.22226398635411
 30
0.0
  0
VERTEX
  5
113B
  8
0
 10
71.60486038926615
 20
129.51022096554991
 30
0.0
  0
VERTEX
  5
113C
  8
0
 10
76.222568137778126
 20
130.28626084041909
 30
0.0
  0
VERTEX
  5
113D
  8
0
 10
74.839375757697994
 20
127.4649557063228
 30
0.0
  0
VERTEX
  5
113E
  8
0
 10
69.013635692163007
 20
125.57205801389659
 30
0.0
  0
SEQEND
  5
113F
  8
0
  0
POLYLINE
  5
72A
  8
0
 66
     1
 10
0.0
 20
0.0
 30
0.0
 70
     1
  0
VERTEX
  5
1140
  8
0
 10
61.671824560599127
 20
133.79115666884971
 30
0.0
  0
VERTEX
  5
1141
  8
0
 10
58.516584163726073
 20
135.16778030457789
 30
0.0
  0
VERTEX
  5
1142
  8
0
 10
62.888951969038999
 20
141.1858283014605
 30
0.0
  0
VERTEX
  5
1143
  8
0
 10
69.963591689351915
 20
138.88713851257961
 30
0.0
  0
VERTEX
  5
1144
  8
0
 10
68.220107657981089
 20
135.91882282369869
 30
0.0
  0
SEQEND
  5
1145
  8
0
  0
POLYLINE
  5
72B
  8
0
 66
     1
 10
0.0
 20
0.0
 30
0.0
 70
     1
  0
VERTEX
  5
1146
  8
0
 10
85.006260208939025
 20
121.79274626488881
 30
0.0
  0
VERTEX
  5
1147
  8
0
 10
86.227875851863004
 20
118.61550668425041
 30
0.0
  0
VERTEX
  5
1148
  8
0
 10
81.422447159671037
 20
118.0183794031047
 30
0.0
  0
VERTEX
  5
1149
  8
0
 10
79.610903411655045
 20
121.32148743649191
 30
0.0
  0
VERTEX
  5
114A
  8
0
 10
83.164765020608925
 20
122.9022592202148
 30
0.0
  0
SEQEND
  5
114B
  8
0
  0
POLYLINE
  5
72C
  8
0
 66
     1
 10
0.0
 20
0.0
 30
0.0
 70
     1
  0
VERTEX
  5
114C
  8
0
 10
87.073950503533965
 20
121.98793590589391
 30
0.0
  0
VERTEX
  5
114D
  8
0
 10
91.333241495827906
 20
124.14451325794261
 30
0.0
  0
VERTEX
  5
114E
  8
0
 10
94.999143938051247
 20
123.7970924025587
 30
0.0
  0
VERTEX
  5
114F
  8
0
 10
93.613748090700938
 20
119.53328241069789
 30
0.0
  0
VERTEX
  5
1150
  8
0
 10
88.272908877476979
 20
118.86962449322461
 30
0.0
  0
SEQEND
  5
1151
  8
0
  0
POLYLINE
  5
72D
  8
0
 66
     1
 10
0.0
 20
0.0
 30
0.0
 70
     1
  0
VERTEX
  5
1152
  8
0
 10
88.437761150870074
 20
129.62634354286661
 30
0.0
  0
VERTEX
  5
1153
  8
0
 10
89.858519686049036
 20
132.4228845513168
 30
0.0
  0
VERTEX
  5
1154
  8
0
 10
97.043314710022983
 20
130.08840313463199
 30
0.0
  0
VERTEX
  5
1155
  8
0
 10
95.632395412143978
 20
125.7460400392667
 30
0.0
  0
VERTEX
  5
1156
  8
0
 10
91.619248099558035
 20
126.12636960179471
 30
0.0
  0
SEQEND
  5
1157
  8
0
  0
POLYLINE
  5
72E
  8
0
 66
     1
 10
0.0
 20
0.0
 30
0.0
 70
     1
  0
VERTEX
  5
1158
  8
0
 10
82.326187587965933
 20
129.4283914525729
 30
0.0
  0
VERTEX
  5
1159
  8
0
 10
86.557715841535114
 20
130.34136643466371
 30
0.0
  0
VERTEX
  5
115A
  8
0
 10
87.933054760082996
 20
133.04850603016999
 30
0.0
  0
VERTEX
  5
115B
  8
0
 10
80.921204952501057
 20
135.32679413967961
 30
0.0
  0
VERTEX
  5
115C
  8
0
 10
79.230840763643982
 20
131.87894897135789
 30
0.0
  0
SEQEND
  5
115D
  8
0
  0
POLYLINE
  5
72F
  8
0
 66
     1
 10
0.0
 20
0.0
 30
0.0
 70
     1
  0
VERTEX
  5
115E
  8
0
 10
76.677311286532131
 20
126.6705007991479
 30
0.0
  0
VERTEX
  5
115F
  8
0
 10
78.329906746660072
 20
130.0413088829639
 30
0.0
  0
VERTEX
  5
1160
  8
0
 10
81.195397789278104
 20
127.77272606558169
 30
0.0
  0
VERTEX
  5
1161
  8
0
 10
82.047364124638065
 20
124.5941620629317
 30
0.0
  0
VERTEX
  5
1162
  8
0
 10
78.645840464428829
 20
123.0811508049307
 30
0.0
  0
SEQEND
  5
1163
  8
0
  0
POLYLINE
  5
730
  8
0
 66
     1
 10
0.0
 20
0.0
 30
0.0
 70
     1
  0
VERTEX
  5
1164
  8
0
 10
81.605554195120021
 20
106.7502894341189
 30
0.0
  0
VERTEX
  5
1165
  8
0
 10
81.940030697759084
 20
104.8001417862617
 30
0.0
  0
VERTEX
  5
1166
  8
0
 10
76.352709587424897
 20
102.9847111083366
 30
0.0
  0
VERTEX
  5
1167
  8
0
 10
75.260653112042974
 20
106.34571534428341
 30
0.0
  0
VERTEX
  5
1168
  8
0
 10
79.07960096982606
 20
108.5675592473778
 30
0.0
  0
SEQEND
  5
1169
  8
0
  0
POLYLINE
  5
731
  8
0
 66
     1
 10
0.0
 20
0.0
 30
0.0
 70
     1
  0
VERTEX
  5
116A
  8
0
 10
78.317603726783091
 20
110.43809162064071
 30
0.0
  0
VERTEX
  5
116B
  8
0
 10
78.867047679899997
 20
111.9845897478787
 30
0.0
  0
VERTEX
  5
116C
  8
0
 10
76.65154484550294
 20
113.25437491985871
 30
0.0
  0
VERTEX
  5
116D
  8
0
 10
73.607184251527997
 20
111.4345692355257
 30
0.0
  0
VERTEX
  5
116E
  8
0
 10
74.628361241394032
 20
108.29170962527201
 30
0.0
  0
SEQEND
  5
116F
  8
0
  0
POLYLINE
  5
732
  8
0
 66
     1
 10
0.0
 20
0.0
 30
0.0
 70
     1
  0
VERTEX
  5
1170
  8
0
 10
78.620287086989265
 20
114.43121590549499
 30
0.0
  0
VERTEX
  5
1171
  8
0
 10
80.217066838114064
 20
113.516043413086
 30
0.0
  0
VERTEX
  5
1172
  8
0
 10
84.039847959111043
 20
114.63246234396981
 30
0.0
  0
VERTEX
  5
1173
  8
0
 10
85.425374473667034
 20
116.5004054335716
 30
0.0
  0
VERTEX
  5
1174
  8
0
 10
81.204400813630173
 20
115.9759031077958
 30
0.0
  0
SEQEND
  5
1175
  8
0
  0
POLYLINE
  5
733
  8
0
 66
     1
 10
0.0
 20
0.0
 30
0.0
 70
     1
  0
VERTEX
  5
1176
  8
0
 10
86.157449213641954
 20
114.1302361877767
 30
0.0
  0
VERTEX
  5
1177
  8
0
 10
87.621805265070179
 20
113.4018290673777
 30
0.0
  0
VERTEX
  5
1178
  8
0
 10
91.666216227133873
 20
113.5393956560731
 30
0.0
  0
VERTEX
  5
1179
  8
0
 10
92.931359572331075
 20
117.43310650175469
 30
0.0
  0
VERTEX
  5
117A
  8
0
 10
88.168310875420033
 20
116.8412454003789
 30
0.0
  0
SEQEND
  5
117B
  8
0
  0
POLYLINE
  5
734
  8
0
 66
     1
 10
0.0
 20
0.0
 30
0.0
 70
     1
  0
VERTEX
  5
117C
  8
0
 10
83.862119975342026
 20
105.4246664504669
 30
0.0
  0
VERTEX
  5
117D
  8
0
 10
83.593015828723992
 20
106.9936640165531
 30
0.0
  0
VERTEX
  5
117E
  8
0
 10
87.842212204405087
 20
111.4081693710406
 30
0.0
  0
VERTEX
  5
117F
  8
0
 10
91.008734660136952
 20
111.5158754613328
 30
0.0
  0
VERTEX
  5
1180
  8
0
 10
89.639516900760995
 20
107.301856504491
 30
0.0
  0
SEQEND
  5
1181
  8
0
  0
POLYLINE
  5
735
  8
0
 66
     1
 10
0.0
 20
0.0
 30
0.0
 70
     1
  0
VERTEX
  5
1182
  8
0
 10
51.01447390447219
 20
116.7113152927989
 30
0.0
  0
VERTEX
  5
1183
  8
0
 10
50.586568728853081
 20
112.81728739752469
 30
0.0
  0
VERTEX
  5
1184
  8
0
 10
54.634542861559112
 20
113.4689909256055
 30
0.0
  0
VERTEX
  5
1185
  8
0
 10
55.436244024388998
 20
115.3640444766331
 30
0.0
  0
VERTEX
  5
1186
  8
0
 10
54.35338149932295
 20
118.185672797367
 30
0.0
  0
SEQEND
  5
1187
  8
0
  0
POLYLINE
  5
736
  8
0
 66
     1
 10
0.0
 20
0.0
 30
0.0
 70
     1
  0
VERTEX
  5
1188
  8
0
 10
66.231690512693135
 20
103.386565914144
 30
0.0
  0
VERTEX
  5
1189
  8
0
 10
67.031570418899037
 20
105.80982061626651
 30
0.0
  0
VERTEX
  5
118A
  8
0
 10
65.728179237936956
 20
106.70363368387071
 30
0.0
  0
VERTEX
  5
118B
  8
0
 10
62.111878675789058
 20
105.40739401784479
 30
0.0
  0
VERTEX
  5
118C
  8
0
 10
61.497221431935031
 20
104.2293157070128
 30
0.0
  0
SEQEND
  5
118D
  8
0
  0
POLYLINE
  5
737
  8
0
 66
     1
 10
0.0
 20
0.0
 30
0.0
 70
     1
  0
VERTEX
  5
118E
  8
0
 10
56.33272296905897
 20
125.6817349916498
 30
0.0
  0
VERTEX
  5
118F
  8
0
 10
61.25058677476909
 20
128.12942400475481
 30
0.0
  0
VERTEX
  5
1190
  8
0
 10
60.706737885323953
 20
132.03015328711561
 30
0.0
  0
VERTEX
  5
1191
  8
0
 10
57.312803588790082
 20
133.5109184850219
 30
0.0
  0
VERTEX
  5
1192
  8
0
 10
52.931874043890048
 20
127.48108626456199
 30
0.0
  0
SEQEND
  5
1193
  8
0
  0
POLYLINE
  5
738
  8
0
 66
     1
 10
0.0
 20
0.0
 30
0.0
 70
     1
  0
VERTEX
  5
1194
  8
0
 10
66.250418540047121
 20
127.60422999760409
 30
0.0
  0
VERTEX
  5
1195
  8
0
 10
62.700383739266037
 20
126.6169811173188
 30
0.0
  0
VERTEX
  5
1196
  8
0
 10
58.508434902023971
 20
124.5305900504288
 30
0.0
  0
VERTEX
  5
1197
  8
0
 10
61.285782594037983
 20
123.0611263327216
 30
0.0
  0
VERTEX
  5
1198
  8
0
 10
67.111522659573211
 20
124.9540240251465
 30
0.0
  0
SEQEND
  5
1199
  8
0
  0
POLYLINE
  5
739
  8
0
 66
     1
 10
0.0
 20
0.0
 30
0.0
 70
     1
  0
VERTEX
  5
119A
  8
0
 10
56.39464135072604
 20
112.4962677567466
 30
0.0
  0
VERTEX
  5
119B
  8
0
 10
57.27386810350594
 20
109.2077792819298
 30
0.0
  0
VERTEX
  5
119C
  8
0
 10
61.512524190344948
 20
111.5492532798919
 30
0.0
  0
VERTEX
  5
119D
  8
0
 10
61.036575679790069
 20
115.2863225121225
 30
0.0
  0
VERTEX
  5
119E
  8
0
 10
57.232286900775989
 20
114.4762863069529
 30
0.0
  0
SEQEND
  5
119F
  8
0
  0
POLYLINE
  5
73A
  8
0
 66
     1
 10
0.0
 20
0.0
 30
0.0
 70
     1
  0
VERTEX
  5
11A0
  8
0
 10
54.607115170910902
 20
111.4388216319746
 30
0.0
  0
VERTEX
  5
11A1
  8
0
 10
49.893672011196031
 20
110.6799809289725
 30
0.0
  0
VERTEX
  5
11A2
  8
0
 10
47.132103490850113
 20
108.2441481608859
 30
0.0
  0
VERTEX
  5
11A3
  8
0
 10
50.759116907084938
 20
105.60896866434381
 30
0.0
  0
VERTEX
  5
11A4
  8
0
 10
55.470034931267037
 20
108.2113246550559
 30
0.0
  0
SEQEND
  5
11A5
  8
0
  0
POLYLINE
  5
73B
  8
0
 66
     1
 10
0.0
 20
0.0
 30
0.0
 70
     1
  0
VERTEX
  5
11A6
  8
0
 10
49.014025820096997
 20
116.8167954348248
 30
0.0
  0
VERTEX
  5
11A7
  8
0
 10
46.220842458035122
 20
118.24414372208069
 30
0.0
  0
VERTEX
  5
11A8
  8
0
 10
41.780394931018009
 20
112.13239202709489
 30
0.0
  0
VERTEX
  5
11A9
  8
0
 10
45.474229608247917
 20
109.4486640426646
 30
0.0
  0
VERTEX
  5
11AA
  8
0
 10
48.497381877197078
 20
112.115225927829
 30
0.0
  0
SEQEND
  5
11AB
  8
0
  0
POLYLINE
  5
73C
  8
0
 66
     1
 10
0.0
 20
0.0
 30
0.0
 70
     1
  0
VERTEX
  5
11AC
  8
0
 10
54.074746014194027
 20
120.2489416382807
 30
0.0
  0
VERTEX
  5
11AD
  8
0
 10
50.114734514694192
 20
118.50032401212481
 30
0.0
  0
VERTEX
  5
11AE
  8
0
 10
47.410845226429039
 20
119.88204201780781
 30
0.0
  0
VERTEX
  5
11AF
  8
0
 10
51.744406731522979
 20
125.846677724671
 30
0.0
  0
VERTEX
  5
11B0
  8
0
 10
55.138532629119027
 20
124.0508835307389
 30
0.0
  0
SEQEND
  5
11B1
  8
0
  0
POLYLINE
  5
73D
  8
0
 66
     1
 10
0.0
 20
0.0
 30
0.0
 70
     1
  0
VERTEX
  5
11B2
  8
0
 10
60.265830394694142
 20
121.3380874130396
 30
0.0
  0
VERTEX
  5
11B3
  8
0
 10
56.947541302646869
 20
123.09375719815461
 30
0.0
  0
VERTEX
  5
11B4
  8
0
 10
55.962749875601958
 20
119.5741417703186
 30
0.0
  0
VERTEX
  5
11B5
  8
0
 10
57.141807675885957
 20
116.50185622709181
 30
0.0
  0
VERTEX
  5
11B6
  8
0
 10
60.783023827769959
 20
117.2771698494837
 30
0.0
  0
SEQEND
  5
11B7
  8
0
  0
POLYLINE
  5
73E
  8
0
 66
     1
 10
0.0
 20
0.0
 30
0.0
 70
     1
  0
VERTEX
  5
11B8
  8
0
 10
67.987604592153048
 20
102.32554938580751
 30
0.0
  0
VERTEX
  5
11B9
  8
0
 10
68.863275444500005
 20
100.5512464416617
 30
0.0
  0
VERTEX
  5
11BA
  8
0
 10
74.450596554835101
 20
102.3666771195865
 30
0.0
  0
VERTEX
  5
11BB
  8
0
 10
73.358540079452951
 20
105.7276813555338
 30
0.0
  0
VERTEX
  5
11BC
  8
0
 10
68.962979282742026
 20
105.2804696019077
 30
0.0
  0
SEQEND
  5
11BD
  8
0
  0
POLYLINE
  5
73F
  8
0
 66
     1
 10
0.0
 20
0.0
 30
0.0
 70
     1
  0
VERTEX
  5
11BE
  8
0
 10
68.479976659089971
 20
107.24165282215399
 30
0.0
  0
VERTEX
  5
11BF
  8
0
 10
67.126458371674062
 20
108.16984103625479
 30
0.0
  0
VERTEX
  5
11C0
  8
0
 10
68.172476818116138
 20
110.4993587120627
 30
0.0
  0
VERTEX
  5
11C1
  8
0
 10
71.705071218936155
 20
110.8165352467756
 30
0.0
  0
VERTEX
  5
11C2
  8
0
 10
72.726248208803085
 20
107.67367563652191
 30
0.0
  0
SEQEND
  5
11C3
  8
0
  0
POLYLINE
  5
740
  8
0
 66
     1
 10
0.0
 20
0.0
 30
0.0
 70
     1
  0
VERTEX
  5
11C4
  8
0
 10
65.888001111560015
 20
110.2942454140077
 30
0.0
  0
VERTEX
  5
11C5
  8
0
 10
65.134104050968972
 20
108.615291725994
 30
0.0
  0
VERTEX
  5
11C6
  8
0
 10
61.385194575352898
 20
107.2715192482581
 30
0.0
  0
VERTEX
  5
11C7
  8
0
 10
59.166330678729992
 20
107.9683249003549
 30
0.0
  0
VERTEX
  5
11C8
  8
0
 10
62.889464834393031
 20
110.0250196728968
 30
0.0
  0
SEQEND
  5
11C9
  8
0
  0
POLYLINE
  5
741
  8
0
 66
     1
 10
0.0
 20
0.0
 30
0.0
 70
     1
  0
VERTEX
  5
11CA
  8
0
 10
59.967220301052969
 20
105.620514965228
 30
0.0
  0
VERTEX
  5
11CB
  8
0
 10
59.21067833266693
 20
104.1704943348679
 30
0.0
  0
VERTEX
  5
11CC
  8
0
 10
55.857821520078012
 20
101.904542925268
 30
0.0
  0
VERTEX
  5
11CD
  8
0
 10
52.545633241709993
 20
104.310988570264
 30
0.0
  0
VERTEX
  5
11CE
  8
0
 10
56.74690780934111
 20
106.63181266093601
 30
0.0
  0
SEQEND
  5
11CF
  8
0
  0
POLYLINE
  5
742
  8
0
 66
     1
 10
0.0
 20
0.0
 30
0.0
 70
     1
  0
VERTEX
  5
11D0
  8
0
 10
66.941186166917987
 20
99.926721777457033
 30
0.0
  0
VERTEX
  5
11D1
  8
0
 10
66.236662364560061
 20
101.35424292126589
 30
0.0
  0
VERTEX
  5
11D2
  8
0
 10
60.204209140664027
 20
102.4280378110859
 30
0.0
  0
VERTEX
  5
11D3
  8
0
 10
57.579130609449969
 20
100.6539386679967
 30
0.0
  0
VERTEX
  5
11D4
  8
0
 10
61.163789241498982
 20
98.049531723432892
 30
0.0
  0
SEQEND
  5
11D5
  8
0
  0
POLYLINE
  5
749
  8
0
 66
     1
 10
0.0
 20
0.0
 30
0.0
 70
     1
  0
VERTEX
  5
11D6
  8
0
 10
130.88853982763089
 20
90.758658056159902
 30
0.0
  0
VERTEX
  5
11D7
  8
0
 10
128.945870217829
 20
87.356806960703807
 30
0.0
  0
VERTEX
  5
11D8
  8
0
 10
126.054052074352
 20
90.263385687081836
 30
0.0
  0
VERTEX
  5
11D9
  8
0
 10
126.519346738811
 20
92.267744335369784
 30
0.0
  0
VERTEX
  5
11DA
  8
0
 10
129.05391243854001
 20
93.913998976159974
 30
0.0
  0
SEQEND
  5
11DB
  8
0
  0
POLYLINE
  5
74A
  8
0
 66
     1
 10
0.0
 20
0.0
 30
0.0
 70
     1
  0
VERTEX
  5
11DC
  8
0
 10
110.7454618092288
 20
88.923164866292836
 30
0.0
  0
VERTEX
  5
11DD
  8
0
 10
111.52269874810391
 20
91.353776714482805
 30
0.0
  0
VERTEX
  5
11DE
  8
0
 10
113.102534503266
 20
91.310772561829936
 30
0.0
  0
VERTEX
  5
11DF
  8
0
 10
115.26627255568521
 20
88.136484504944974
 30
0.0
  0
VERTEX
  5
11E0
  8
0
 10
115.07108365452611
 20
86.822112667626016
 30
0.0
  0
SEQEND
  5
11E1
  8
0
  0
POLYLINE
  5
74B
  8
0
 66
     1
 10
0.0
 20
0.0
 30
0.0
 70
     1
  0
VERTEX
  5
11E2
  8
0
 10
123.99894391863489
 20
113.4484924580276
 30
0.0
  0
VERTEX
  5
11E3
  8
0
 10
126.9102950947199
 20
114.86450200455489
 30
0.0
  0
VERTEX
  5
11E4
  8
0
 10
130.41825721393701
 20
110.03620636596879
 30
0.0
  0
VERTEX
  5
11E5
  8
0
 10
128.17189511757121
 20
107.7049178728027
 30
0.0
  0
VERTEX
  5
11E6
  8
0
 10
125.9620940605261
 20
110.48710397570009
 30
0.0
  0
SEQEND
  5
11E7
  8
0
  0
POLYLINE
  5
74C
  8
0
 66
     1
 10
0.0
 20
0.0
 30
0.0
 70
     1
  0
VERTEX
  5
11E8
  8
0
 10
131.85866635991891
 20
101.141868407389
 30
0.0
  0
VERTEX
  5
11E9
  8
0
 10
129.3187464691789
 20
106.0127382337139
 30
0.0
  0
VERTEX
  5
11EA
  8
0
 10
132.05152060847101
 20
108.8488281569086
 30
0.0
  0
VERTEX
  5
11EB
  8
0
 10
135.66764307759399
 20
108.0518878399418
 30
0.0
  0
VERTEX
  5
11EC
  8
0
 10
135.6676430775949
 20
100.59860532253489
 30
0.0
  0
SEQEND
  5
11ED
  8
0
  0
POLYLINE
  5
74D
  8
0
 66
     1
 10
0.0
 20
0.0
 30
0.0
 70
     1
  0
VERTEX
  5
11EE
  8
0
 10
124.965096310058
 20
108.52667473216
 30
0.0
  0
VERTEX
  5
11EF
  8
0
 10
127.25684446233799
 20
105.64131550930659
 30
0.0
  0
VERTEX
  5
11F0
  8
0
 10
129.42185241158609
 20
101.489423974386
 30
0.0
  0
VERTEX
  5
11F1
  8
0
 10
126.311201827411
 20
101.93308686799649
 30
0.0
  0
VERTEX
  5
11F2
  8
0
 10
122.7106964572879
 20
106.88875736399289
 30
0.0
  0
SEQEND
  5
11F3
  8
0
  0
POLYLINE
  5
74E
  8
0
 66
     1
 10
0.0
 20
0.0
 30
0.0
 70
     1
  0
VERTEX
  5
11F4
  8
0
 10
128.2587793820089
 20
116.4110758448998
 30
0.0
  0
VERTEX
  5
11F5
  8
0
 10
128.59300335728221
 20
119.8372878831217
 30
0.0
  0
VERTEX
  5
11F6
  8
0
 10
135.6676430775949
 20
117.5385980942408
 30
0.0
  0
VERTEX
  5
11F7
  8
0
 10
135.6676430775949
 20
110.0998816782369
 30
0.0
  0
VERTEX
  5
11F8
  8
0
 10
132.305840904148
 20
110.8407735347939
 30
0.0
  0
SEQEND
  5
11F9
  8
0
  0
POLYLINE
  5
74F
  8
0
 66
     1
 10
0.0
 20
0.0
 30
0.0
 70
     1
  0
VERTEX
  5
11FA
  8
0
 10
124.05835015162501
 20
90.510996047167964
 30
0.0
  0
VERTEX
  5
11FB
  8
0
 10
121.4141157388849
 20
88.367349503938613
 30
0.0
  0
VERTEX
  5
11FC
  8
0
 10
119.361254815951
 20
92.753061297560876
 30
0.0
  0
VERTEX
  5
11FD
  8
0
 10
121.94289943093889
 20
95.496658300238096
 30
0.0
  0
VERTEX
  5
11FE
  8
0
 10
124.544506369448
 20
92.605220404428792
 30
0.0
  0
SEQEND
  5
11FF
  8
0
  0
POLYLINE
  5
750
  8
0
 66
     1
 10
0.0
 20
0.0
 30
0.0
 70
     1
  0
VERTEX
  5
1200
  8
0
 10
124.8829379717499
 20
88.604822635008745
 30
0.0
  0
VERTEX
  5
1201
  8
0
 10
128.250158215917
 20
85.220415233456819
 30
0.0
  0
VERTEX
  5
1202
  8
0
 10
129.05256750187499
 20
81.626575879164875
 30
0.0
  0
VERTEX
  5
1203
  8
0
 10
124.5693323641039
 20
81.626575879164875
 30
0.0
  0
VERTEX
  5
1204
  8
0
 10
122.2877460959901
 20
86.500934240437118
 30
0.0
  0
SEQEND
  5
1205
  8
0
  0
POLYLINE
  5
751
  8
0
 66
     1
 10
0.0
 20
0.0
 30
0.0
 70
     1
  0
VERTEX
  5
1206
  8
0
 10
132.56893599614679
 20
89.668159401654734
 30
0.0
  0
VERTEX
  5
1207
  8
0
 10
135.6676430775949
 20
89.181116435767535
 30
0.0
  0
VERTEX
  5
1208
  8
0
 10
135.6676430775949
 20
81.626575879165784
 30
0.0
  0
VERTEX
  5
1209
  8
0
 10
131.10181231889189
 20
81.626575879164875
 30
0.0
  0
VERTEX
  5
120A
  8
0
 10
130.22339650715389
 20
85.560834079936527
 30
0.0
  0
SEQEND
  5
120B
  8
0
  0
POLYLINE
  5
752
  8
0
 66
     1
 10
0.0
 20
0.0
 30
0.0
 70
     1
  0
VERTEX
  5
120C
  8
0
 10
130.49209227744899
 20
95.419440703498594
 30
0.0
  0
VERTEX
  5
120D
  8
0
 10
132.6679972259119
 20
91.677142968960879
 30
0.0
  0
VERTEX
  5
120E
  8
0
 10
135.6676430775949
 20
91.205670069517737
 30
0.0
  0
VERTEX
  5
120F
  8
0
 10
135.6676430775949
 20
98.578365264222839
 30
0.0
  0
VERTEX
  5
1210
  8
0
 10
131.86619620204601
 20
99.120554389962535
 30
0.0
  0
SEQEND
  5
1211
  8
0
  0
POLYLINE
  5
753
  8
0
 66
     1
 10
0.0
 20
0.0
 30
0.0
 70
     1
  0
VERTEX
  5
1212
  8
0
 10
126.12358362401621
 20
99.939606239187697
 30
0.0
  0
VERTEX
  5
1213
  8
0
 10
129.84009269931599
 20
99.409531540707803
 30
0.0
  0
VERTEX
  5
1214
  8
0
 10
128.56802765748691
 20
95.983256968522937
 30
0.0
  0
VERTEX
  5
1215
  8
0
 10
125.8083057265671
 20
94.190758539087923
 30
0.0
  0
VERTEX
  5
1216
  8
0
 10
123.3182178926431
 20
96.958253590058803
 30
0.0
  0
SEQEND
  5
1217
  8
0
  0
POLYLINE
  5
754
  8
0
 66
     1
 10
0.0
 20
0.0
 30
0.0
 70
     1
  0
VERTEX
  5
1218
  8
0
 10
108.7012476104892
 20
89.096884863754667
 30
0.0
  0
VERTEX
  5
1219
  8
0
 10
106.94990590579179
 20
88.17615004164395
 30
0.0
  0
VERTEX
  5
121A
  8
0
 10
103.4967515535461
 20
92.929009260671805
 30
0.0
  0
VERTEX
  5
121B
  8
0
 10
106.35579252372889
 20
95.006224114820967
 30
0.0
  0
VERTEX
  5
121C
  8
0
 10
109.6490114346429
 20
92.060776394188679
 30
0.0
  0
SEQEND
  5
121D
  8
0
  0
POLYLINE
  5
755
  8
0
 66
     1
 10
0.0
 20
0.0
 30
0.0
 70
     1
  0
VERTEX
  5
121E
  8
0
 10
111.19252333940879
 20
93.363505129450687
 30
0.0
  0
VERTEX
  5
121F
  8
0
 10
112.83311797972689
 20
93.318847080585996
 30
0.0
  0
VERTEX
  5
1220
  8
0
 10
113.3561274149188
 20
95.818300685456734
 30
0.0
  0
VERTEX
  5
1221
  8
0
 10
110.6846301998989
 20
98.151308783388913
 30
0.0
  0
VERTEX
  5
1222
  8
0
 10
108.0111541318999
 20
96.208914722381678
 30
0.0
  0
SEQEND
  5
1223
  8
0
  0
POLYLINE
  5
756
  8
0
 66
     1
 10
0.0
 20
0.0
 30
0.0
 70
     1
  0
VERTEX
  5
1224
  8
0
 10
115.083744513114
 20
94.309579412022913
 30
0.0
  0
VERTEX
  5
1225
  8
0
 10
114.7067958300449
 20
92.508147771690105
 30
0.0
  0
VERTEX
  5
1226
  8
0
 10
116.9498776613418
 20
89.217459298679614
 30
0.0
  0
VERTEX
  5
1227
  8
0
 10
119.15454834793211
 20
88.476971437723705
 30
0.0
  0
VERTEX
  5
1228
  8
0
 10
117.3513643994299
 20
92.329275809958517
 30
0.0
  0
SEQEND
  5
1229
  8
0
  0
POLYLINE
  5
757
  8
0
 66
     1
 10
0.0
 20
0.0
 30
0.0
 70
     1
  0
VERTEX
  5
122A
  8
0
 10
117.1266069778009
 20
87.048304409360071
 30
0.0
  0
VERTEX
  5
122B
  8
0
 10
116.88636154513711
 20
85.430528865446604
 30
0.0
  0
VERTEX
  5
122C
  8
0
 10
118.266986865254
 20
81.626575879164875
 30
0.0
  0
VERTEX
  5
122D
  8
0
 10
122.36107673159491
 20
81.626575879164875
 30
0.0
  0
VERTEX
  5
122E
  8
0
 10
120.32632038200811
 20
85.973609241157874
 30
0.0
  0
SEQEND
  5
122F
  8
0
  0
POLYLINE
  5
758
  8
0
 66
     1
 10
0.0
 20
0.0
 30
0.0
 70
     1
  0
VERTEX
  5
1230
  8
0
 10
108.13782240875
 20
86.541123243943503
 30
0.0
  0
VERTEX
  5
1231
  8
0
 10
109.54687001346591
 20
87.281903408198787
 30
0.0
  0
VERTEX
  5
1232
  8
0
 10
115.058387989593
 20
84.604834682386581
 30
0.0
  0
VERTEX
  5
1233
  8
0
 10
116.1393318205012
 20
81.626575879164875
 30
0.0
  0
VERTEX
  5
1234
  8
0
 10
111.7084500751582
 20
81.626575879164875
 30
0.0
  0
SEQEND
  5
1235
  8
0
  0
POLYLINE
  5
759
  8
0
 66
     1
 10
0.0
 20
0.0
 30
0.0
 70
     1
  0
VERTEX
  5
1236
  8
0
 10
108.7215824762729
 20
121.2688573864227
 30
0.0
  0
VERTEX
  5
1237
  8
0
 10
104.88591190058899
 20
120.47249859584259
 30
0.0
  0
VERTEX
  5
1238
  8
0
 10
106.7566115874592
 20
116.8240338846101
 30
0.0
  0
VERTEX
  5
1239
  8
0
 10
108.80665389961609
 20
116.64717452209671
 30
0.0
  0
VERTEX
  5
123A
  8
0
 10
111.155558977797
 20
118.5489690857291
 30
0.0
  0
SEQEND
  5
123B
  8
0
  0
POLYLINE
  5
75A
  8
0
 66
     1
 10
0.0
 20
0.0
 30
0.0
 70
     1
  0
VERTEX
  5
123C
  8
0
 10
100.7513712907277
 20
102.67885036750999
 30
0.0
  0
VERTEX
  5
123D
  8
0
 10
103.3031999503021
 20
102.6669462551128
 30
0.0
  0
VERTEX
  5
123E
  8
0
 10
103.75049666736
 20
104.18274835873279
 30
0.0
  0
VERTEX
  5
123F
  8
0
 10
101.4002011558341
 20
107.22149448766071
 30
0.0
  0
VERTEX
  5
1240
  8
0
 10
100.0898425675461
 20
107.4420220459649
 30
0.0
  0
SEQEND
  5
1241
  8
0
  0
POLYLINE
  5
75B
  8
0
 66
     1
 10
0.0
 20
0.0
 30
0.0
 70
     1
  0
VERTEX
  5
1242
  8
0
 10
118.8963879260432
 20
118.9829140918889
 30
0.0
  0
VERTEX
  5
1243
  8
0
 10
122.7439820038059
 20
115.06212517520881
 30
0.0
  0
VERTEX
  5
1244
  8
0
 10
126.28573745688909
 20
116.7847478441028
 30
0.0
  0
VERTEX
  5
1245
  8
0
 10
126.64524547203931
 20
120.4701527835298
 30
0.0
  0
VERTEX
  5
1246
  8
0
 10
119.5567525660708
 20
122.7733437452859
 30
0.0
  0
SEQEND
  5
1247
  8
0
  0
POLYLINE
  5
75C
  8
0
 66
     1
 10
0.0
 20
0.0
 30
0.0
 70
     1
  0
VERTEX
  5
1248
  8
0
 10
123.7895258054739
 20
110.1447087209101
 30
0.0
  0
VERTEX
  5
1249
  8
0
 10
121.75357524060929
 20
113.21591576957979
 30
0.0
  0
VERTEX
  5
124A
  8
0
 10
118.47391599064601
 20
116.5579657306359
 30
0.0
  0
VERTEX
  5
124B
  8
0
 10
117.93462058258091
 20
113.4624618487389
 30
0.0
  0
VERTEX
  5
124C
  8
0
 10
121.53512595270401
 20
108.5067913527439
 30
0.0
  0
SEQEND
  5
124D
  8
0
  0
POLYLINE
  5
75D
  8
0
 66
     1
 10
0.0
 20
0.0
 30
0.0
 70
     1
  0
VERTEX
  5
124E
  8
0
 10
106.37539722409311
 20
114.8494927571671
 30
0.0
  0
VERTEX
  5
124F
  8
0
 10
103.519554839873
 20
112.99709960010949
 30
0.0
  0
VERTEX
  5
1250
  8
0
 10
107.056245707515
 20
109.68945336564479
 30
0.0
  0
VERTEX
  5
1251
  8
0
 10
110.46333357446581
 20
111.29692519994499
 30
0.0
  0
VERTEX
  5
1252
  8
0
 10
108.51735347887779
 20
114.6647038796366
 30
0.0
  0
SEQEND
  5
1253
  8
0
  0
POLYLINE
  5
75E
  8
0
 66
     1
 10
0.0
 20
0.0
 30
0.0
 70
     1
  0
VERTEX
  5
1254
  8
0
 10
104.81733022904289
 20
116.2227623553369
 30
0.0
  0
VERTEX
  5
1255
  8
0
 10
102.6390957952508
 20
120.471018513321
 30
0.0
  0
VERTEX
  5
1256
  8
0
 10
99.469109564638075
 20
122.34471252899699
 30
0.0
  0
VERTEX
  5
1257
  8
0
 10
98.083713717287992
 20
118.0809025371357
 30
0.0
  0
VERTEX
  5
1258
  8
0
 10
102.01445506855291
 20
114.40472547905
 30
0.0
  0
SEQEND
  5
1259
  8
0
  0
POLYLINE
  5
75F
  8
0
 66
     1
 10
0.0
 20
0.0
 30
0.0
 70
     1
  0
VERTEX
  5
125A
  8
0
 10
108.2037275982488
 20
123.2039917290337
 30
0.0
  0
VERTEX
  5
125B
  8
0
 10
108.69807536058509
 20
126.3015418443849
 30
0.0
  0
VERTEX
  5
125C
  8
0
 10
101.5132803366111
 20
128.63602326106979
 30
0.0
  0
VERTEX
  5
125D
  8
0
 10
100.1023610387319
 20
124.29366016570491
 30
0.0
  0
VERTEX
  5
125E
  8
0
 10
103.57261752340921
 20
122.2424844396366
 30
0.0
  0
SEQEND
  5
125F
  8
0
  0
POLYLINE
  5
760
  8
0
 66
     1
 10
0.0
 20
0.0
 30
0.0
 70
     1
  0
VERTEX
  5
1260
  8
0
 10
113.03174115367619
 20
119.4515523153397
 30
0.0
  0
VERTEX
  5
1261
  8
0
 10
110.1449961145458
 20
122.67739449339589
 30
0.0
  0
VERTEX
  5
1262
  8
0
 10
110.62354028655091
 20
125.6759203655317
 30
0.0
  0
VERTEX
  5
1263
  8
0
 10
117.6353900941331
 20
123.39763225602179
 30
0.0
  0
VERTEX
  5
1264
  8
0
 10
116.97633090747399
 20
119.6146957796625
 30
0.0
  0
SEQEND
  5
1265
  8
0
  0
POLYLINE
  5
761
  8
0
 66
     1
 10
0.0
 20
0.0
 30
0.0
 70
     1
  0
VERTEX
  5
1266
  8
0
 10
115.98073062714001
 20
113.90004572608331
 30
0.0
  0
VERTEX
  5
1267
  8
0
 10
116.625064095045
 20
117.59845799013711
 30
0.0
  0
VERTEX
  5
1268
  8
0
 10
112.97339362067601
 20
117.447429313155
 30
0.0
  0
VERTEX
  5
1269
  8
0
 10
110.41582533250789
 20
115.37669026467501
 30
0.0
  0
VERTEX
  5
126A
  8
0
 10
112.27839007638219
 20
112.1532730014771
 30
0.0
  0
SEQEND
  5
126B
  8
0
  0
POLYLINE
  5
762
  8
0
 66
     1
 10
0.0
 20
0.0
 30
0.0
 70
     1
  0
VERTEX
  5
126C
  8
0
 10
100.284891898772
 20
100.6810047016167
 30
0.0
  0
VERTEX
  5
126D
  8
0
 10
98.868026696715106
 20
99.299902468450682
 30
0.0
  0
VERTEX
  5
126E
  8
0
 10
102.3211810489608
 20
94.547043249421904
 30
0.0
  0
VERTEX
  5
126F
  8
0
 10
105.1802220191439
 20
96.624258103569673
 30
0.0
  0
VERTEX
  5
1270
  8
0
 10
103.396595380701
 20
100.6664888100988
 30
0.0
  0
SEQEND
  5
1271
  8
0
  0
POLYLINE
  5
763
  8
0
 66
     1
 10
0.0
 20
0.0
 30
0.0
 70
     1
  0
VERTEX
  5
1272
  8
0
 10
105.1125354429289
 20
101.7318905468498
 30
0.0
  0
VERTEX
  5
1273
  8
0
 10
105.5770347392899
 20
103.30598886615761
 30
0.0
  0
VERTEX
  5
1274
  8
0
 10
108.11577518107219
 20
103.03102675702461
 30
0.0
  0
VERTEX
  5
1275
  8
0
 10
109.50905969531409
 20
99.769342772139922
 30
0.0
  0
VERTEX
  5
1276
  8
0
 10
106.8355836273151
 20
97.826948711133582
 30
0.0
  0
SEQEND
  5
1277
  8
0
  0
POLYLINE
  5
764
  8
0
 66
     1
 10
0.0
 20
0.0
 30
0.0
 70
     1
  0
VERTEX
  5
1278
  8
0
 10
107.214759025815
 20
105.1403087691908
 30
0.0
  0
VERTEX
  5
1279
  8
0
 10
105.3850121765399
 20
105.33848225891749
 30
0.0
  0
VERTEX
  5
127A
  8
0
 10
102.9485318668319
 20
108.4886585125098
 30
0.0
  0
VERTEX
  5
127B
  8
0
 10
102.925566770589
 20
110.8142482684391
 30
0.0
  0
VERTEX
  5
127C
  8
0
 10
106.032111462483
 20
107.90889090561291
 30
0.0
  0
SEQEND
  5
127D
  8
0
  0
POLYLINE
  5
765
  8
0
 66
     1
 10
0.0
 20
0.0
 30
0.0
 70
     1
  0
VERTEX
  5
127E
  8
0
 10
100.94015533667989
 20
109.32704380477909
 30
0.0
  0
VERTEX
  5
127F
  8
0
 10
99.327319442224052
 20
109.5984769566878
 30
0.0
  0
VERTEX
  5
1280
  8
0
 10
96.136181853721155
 20
112.0870157825109
 30
0.0
  0
VERTEX
  5
1281
  8
0
 10
97.401325198919039
 20
115.980726628193
 30
0.0
  0
VERTEX
  5
1282
  8
0
 10
100.9068253129612
 20
112.70225115887359
 30
0.0
  0
SEQEND
  5
1283
  8
0
  0
POLYLINE
  5
766
  8
0
 66
     1
 10
0.0
 20
0.0
 30
0.0
 70
     1
  0
VERTEX
  5
1284
  8
0
 10
97.680110193756036
 20
100.9349292661507
 30
0.0
  0
VERTEX
  5
1285
  8
0
 10
98.820053651855005
 20
102.0460995125347
 30
0.0
  0
VERTEX
  5
1286
  8
0
 10
97.977162715026907
 20
108.1151243297947
 30
0.0
  0
VERTEX
  5
1287
  8
0
 10
95.478700286724916
 20
110.063495587771
 30
0.0
  0
VERTEX
  5
1288
  8
0
 10
94.109482527348064
 20
105.84947663092881
 30
0.0
  0
SEQEND
  5
1289
  8
0
  0
POLYLINE
  5
76D
  8
0
 66
     1
 10
0.0
 20
0.0
 30
0.0
 70
     1
  0
VERTEX
  5
128A
  8
0
 10
108.7215824762729
 20
37.284294371905837
 30
0.0
  0
VERTEX
  5
128B
  8
0
 10
104.88591190058899
 20
38.080653162486897
 30
0.0
  0
VERTEX
  5
128C
  8
0
 10
106.7566115874592
 20
41.729117873719808
 30
0.0
  0
VERTEX
  5
128D
  8
0
 10
108.80665389961609
 20
41.905977236232722
 30
0.0
  0
VERTEX
  5
128E
  8
0
 10
111.155558977797
 20
40.004182672600791
 30
0.0
  0
SEQEND
  5
128F
  8
0
  0
POLYLINE
  5
76E
  8
0
 66
     1
 10
0.0
 20
0.0
 30
0.0
 70
     1
  0
VERTEX
  5
1290
  8
0
 10
100.7513712907277
 20
55.874301390819937
 30
0.0
  0
VERTEX
  5
1291
  8
0
 10
103.3031999503021
 20
55.886205503215713
 30
0.0
  0
VERTEX
  5
1292
  8
0
 10
103.75049666736
 20
54.370403399595723
 30
0.0
  0
VERTEX
  5
1293
  8
0
 10
101.4002011558341
 20
51.331657270668757
 30
0.0
  0
VERTEX
  5
1294
  8
0
 10
100.0898425675461
 20
51.111129712364573
 30
0.0
  0
SEQEND
  5
1295
  8
0
  0
POLYLINE
  5
76F
  8
0
 66
     1
 10
0.0
 20
0.0
 30
0.0
 70
     1
  0
VERTEX
  5
1296
  8
0
 10
128.17189511757121
 20
50.848233885528089
 30
0.0
  0
VERTEX
  5
1297
  8
0
 10
130.41825721393701
 20
48.516945392360633
 30
0.0
  0
VERTEX
  5
1298
  8
0
 10
126.9102950947199
 20
43.688649753775962
 30
0.0
  0
VERTEX
  5
1299
  8
0
 10
123.998943918634
 20
45.104659300302728
 30
0.0
  0
VERTEX
  5
129A
  8
0
 10
125.9620940605261
 20
48.066047782629759
 30
0.0
  0
SEQEND
  5
129B
  8
0
  0
POLYLINE
  5
770
  8
0
 66
     1
 10
0.0
 20
0.0
 30
0.0
 70
     1
  0
VERTEX
  5
129C
  8
0
 10
118.8963879260432
 20
39.570237666441933
 30
0.0
  0
VERTEX
  5
129D
  8
0
 10
122.7439820038059
 20
43.491026583119719
 30
0.0
  0
VERTEX
  5
129E
  8
0
 10
126.28573745688909
 20
41.768403914227967
 30
0.0
  0
VERTEX
  5
129F
  8
0
 10
126.64524547203931
 20
38.082998974799693
 30
0.0
  0
VERTEX
  5
12A0
  8
0
 10
119.5567525660708
 20
35.779808013043748
 30
0.0
  0
SEQEND
  5
12A1
  8
0
  0
POLYLINE
  5
771
  8
0
 66
     1
 10
0.0
 20
0.0
 30
0.0
 70
     1
  0
VERTEX
  5
12A2
  8
0
 10
123.78952580547291
 20
48.408443037420732
 30
0.0
  0
VERTEX
  5
12A3
  8
0
 10
121.75357524060929
 20
45.337235988748709
 30
0.0
  0
VERTEX
  5
12A4
  8
0
 10
118.47391599064601
 20
41.995186027694892
 30
0.0
  0
VERTEX
  5
12A5
  8
0
 10
117.93462058258091
 20
45.090689909590992
 30
0.0
  0
VERTEX
  5
12A6
  8
0
 10
121.5351259527031
 20
50.046360405586931
 30
0.0
  0
SEQEND
  5
12A7
  8
0
  0
POLYLINE
  5
772
  8
0
 66
     1
 10
0.0
 20
0.0
 30
0.0
 70
     1
  0
VERTEX
  5
12A8
  8
0
 10
132.305840904148
 20
47.712378223536
 30
0.0
  0
VERTEX
  5
12A9
  8
0
 10
135.6676430775949
 20
48.45327008009258
 30
0.0
  0
VERTEX
  5
12AA
  8
0
 10
135.66764307759399
 20
41.014553664090037
 30
0.0
  0
VERTEX
  5
12AB
  8
0
 10
128.59300335728221
 20
38.715863875207788
 30
0.0
  0
VERTEX
  5
12AC
  8
0
 10
128.2587793820089
 20
42.142075913429608
 30
0.0
  0
SEQEND
  5
12AD
  8
0
  0
POLYLINE
  5
773
  8
0
 66
     1
 10
0.0
 20
0.0
 30
0.0
 70
     1
  0
VERTEX
  5
12AE
  8
0
 10
106.3753972240922
 20
43.703659001162798
 30
0.0
  0
VERTEX
  5
12AF
  8
0
 10
103.519554839873
 20
45.556052158219927
 30
0.0
  0
VERTEX
  5
12B0
  8
0
 10
107.056245707515
 20
48.863698392684682
 30
0.0
  0
VERTEX
  5
12B1
  8
0
 10
110.4633335744649
 20
47.256226558385833
 30
0.0
  0
VERTEX
  5
12B2
  8
0
 10
108.51735347887779
 20
43.88844787869288
 30
0.0
  0
SEQEND
  5
12B3
  8
0
  0
POLYLINE
  5
774
  8
0
 66
     1
 10
0.0
 20
0.0
 30
0.0
 70
     1
  0
VERTEX
  5
12B4
  8
0
 10
104.81733022904289
 20
42.330389402993887
 30
0.0
  0
VERTEX
  5
12B5
  8
0
 10
102.6390957952508
 20
38.08213324500867
 30
0.0
  0
VERTEX
  5
12B6
  8
0
 10
99.469109564638075
 20
36.208439229333642
 30
0.0
  0
VERTEX
  5
12B7
  8
0
 10
98.083713717289129
 20
40.472249221193799
 30
0.0
  0
VERTEX
  5
12B8
  8
0
 10
102.01445506855291
 20
44.148426279280777
 30
0.0
  0
SEQEND
  5
12B9
  8
0
  0
POLYLINE
  5
775
  8
0
 66
     1
 10
0.0
 20
0.0
 30
0.0
 70
     1
  0
VERTEX
  5
12BA
  8
0
 10
108.2037275982488
 20
35.349160029295952
 30
0.0
  0
VERTEX
  5
12BB
  8
0
 10
108.6980753605842
 20
32.25160991394592
 30
0.0
  0
VERTEX
  5
12BC
  8
0
 10
101.5132803366111
 20
29.91712849726105
 30
0.0
  0
VERTEX
  5
12BD
  8
0
 10
100.1023610387319
 20
34.259491592624727
 30
0.0
  0
VERTEX
  5
12BE
  8
0
 10
103.57261752340921
 20
36.310667318692822
 30
0.0
  0
SEQEND
  5
12BF
  8
0
  0
POLYLINE
  5
776
  8
0
 66
     1
 10
0.0
 20
0.0
 30
0.0
 70
     1
  0
VERTEX
  5
12C0
  8
0
 10
113.03174115367619
 20
39.10159944299108
 30
0.0
  0
VERTEX
  5
12C1
  8
0
 10
110.1449961145458
 20
35.875757264932872
 30
0.0
  0
VERTEX
  5
12C2
  8
0
 10
110.62354028655091
 20
32.877231392797739
 30
0.0
  0
VERTEX
  5
12C3
  8
0
 10
117.6353900941331
 20
35.155519502307932
 30
0.0
  0
VERTEX
  5
12C4
  8
0
 10
116.97633090747399
 20
38.938455978667889
 30
0.0
  0
SEQEND
  5
12C5
  8
0
  0
POLYLINE
  5
777
  8
0
 66
     1
 10
0.0
 20
0.0
 30
0.0
 70
     1
  0
VERTEX
  5
12C6
  8
0
 10
115.9807306271391
 20
44.653106032247017
 30
0.0
  0
VERTEX
  5
12C7
  8
0
 10
116.625064095045
 20
40.954693768193692
 30
0.0
  0
VERTEX
  5
12C8
  8
0
 10
112.97339362067601
 20
41.105722445175843
 30
0.0
  0
VERTEX
  5
12C9
  8
0
 10
110.41582533250789
 20
43.17646149365396
 30
0.0
  0
VERTEX
  5
12CA
  8
0
 10
112.27839007638219
 20
46.399878756853703
 30
0.0
  0
SEQEND
  5
12CB
  8
0
  0
POLYLINE
  5
778
  8
0
 66
     1
 10
0.0
 20
0.0
 30
0.0
 70
     1
  0
VERTEX
  5
12CC
  8
0
 10
100.284891898772
 20
57.872147056713629
 30
0.0
  0
VERTEX
  5
12CD
  8
0
 10
98.868026696715106
 20
59.253249289880159
 30
0.0
  0
VERTEX
  5
12CE
  8
0
 10
102.3211810489608
 20
64.006108508907573
 30
0.0
  0
VERTEX
  5
12CF
  8
0
 10
105.1802220191439
 20
61.928893654759811
 30
0.0
  0
VERTEX
  5
12D0
  8
0
 10
103.396595380701
 20
57.886662948230651
 30
0.0
  0
SEQEND
  5
12D1
  8
0
  0
POLYLINE
  5
779
  8
0
 66
     1
 10
0.0
 20
0.0
 30
0.0
 70
     1
  0
VERTEX
  5
12D2
  8
0
 10
105.1125354429289
 20
56.82126121148098
 30
0.0
  0
VERTEX
  5
12D3
  8
0
 10
105.5770347392899
 20
55.247162892172803
 30
0.0
  0
VERTEX
  5
12D4
  8
0
 10
108.11577518107219
 20
55.52212500130576
 30
0.0
  0
VERTEX
  5
12D5
  8
0
 10
109.50905969531409
 20
58.783808986189563
 30
0.0
  0
VERTEX
  5
12D6
  8
0
 10
106.83558362731419
 20
60.726203047196812
 30
0.0
  0
SEQEND
  5
12D7
  8
0
  0
POLYLINE
  5
77A
  8
0
 66
     1
 10
0.0
 20
0.0
 30
0.0
 70
     1
  0
VERTEX
  5
12D8
  8
0
 10
107.214759025815
 20
53.412842989137737
 30
0.0
  0
VERTEX
  5
12D9
  8
0
 10
105.3850121765399
 20
53.214669499412821
 30
0.0
  0
VERTEX
  5
12DA
  8
0
 10
102.948531866831
 20
50.064493245821041
 30
0.0
  0
VERTEX
  5
12DB
  8
0
 10
102.92556677058811
 20
47.738903489890838
 30
0.0
  0
VERTEX
  5
12DC
  8
0
 10
106.032111462483
 20
50.644260852717942
 30
0.0
  0
SEQEND
  5
12DD
  8
0
  0
POLYLINE
  5
77B
  8
0
 66
     1
 10
0.0
 20
0.0
 30
0.0
 70
     1
  0
VERTEX
  5
12DE
  8
0
 10
100.94015533667989
 20
49.226107953550809
 30
0.0
  0
VERTEX
  5
12DF
  8
0
 10
99.327319442222915
 20
48.954674801641659
 30
0.0
  0
VERTEX
  5
12E0
  8
0
 10
96.136181853721155
 20
46.466135975819952
 30
0.0
  0
VERTEX
  5
12E1
  8
0
 10
97.401325198919039
 20
42.572425130137837
 30
0.0
  0
VERTEX
  5
12E2
  8
0
 10
100.9068253129612
 20
45.850900599455819
 30
0.0
  0
SEQEND
  5
12E3
  8
0
  0
POLYLINE
  5
77C
  8
0
 66
     1
 10
0.0
 20
0.0
 30
0.0
 70
     1
  0
VERTEX
  5
12E4
  8
0
 10
97.680110193756036
 20
57.618222492178802
 30
0.0
  0
VERTEX
  5
12E5
  8
0
 10
98.820053651855005
 20
56.507052245794739
 30
0.0
  0
VERTEX
  5
12E6
  8
0
 10
97.977162715026907
 20
50.438027428536088
 30
0.0
  0
VERTEX
  5
12E7
  8
0
 10
95.478700286724916
 20
48.489656170558867
 30
0.0
  0
VERTEX
  5
12E8
  8
0
 10
94.109482527348064
 20
52.703675127400629
 30
0.0
  0
SEQEND
  5
12E9
  8
0
  0
POLYLINE
  5
77D
  8
0
 66
     1
 10
0.0
 20
0.0
 30
0.0
 70
     1
  0
VERTEX
  5
12EA
  8
0
 10
130.88853982763089
 20
67.794493702168666
 30
0.0
  0
VERTEX
  5
12EB
  8
0
 10
128.94587021782991
 20
71.196344797626125
 30
0.0
  0
VERTEX
  5
12EC
  8
0
 10
126.054052074352
 20
68.289766071247641
 30
0.0
  0
VERTEX
  5
12ED
  8
0
 10
126.519346738811
 20
66.285407422959665
 30
0.0
  0
VERTEX
  5
12EE
  8
0
 10
129.05391243854001
 20
64.639152782170854
 30
0.0
  0
SEQEND
  5
12EF
  8
0
  0
POLYLINE
  5
77E
  8
0
 66
     1
 10
0.0
 20
0.0
 30
0.0
 70
     1
  0
VERTEX
  5
12F0
  8
0
 10
110.7454618092288
 20
69.629986892037095
 30
0.0
  0
VERTEX
  5
12F1
  8
0
 10
111.5226987481048
 20
67.199375043847112
 30
0.0
  0
VERTEX
  5
12F2
  8
0
 10
113.102534503266
 20
67.242379196499087
 30
0.0
  0
VERTEX
  5
12F3
  8
0
 10
115.2662725556838
 20
70.416667253384958
 30
0.0
  0
VERTEX
  5
12F4
  8
0
 10
115.07108365452611
 20
71.731039090703916
 30
0.0
  0
SEQEND
  5
12F5
  8
0
  0
POLYLINE
  5
77F
  8
0
 66
     1
 10
0.0
 20
0.0
 30
0.0
 70
     1
  0
VERTEX
  5
12F6
  8
0
 10
131.85866635991891
 20
57.411283350940948
 30
0.0
  0
VERTEX
  5
12F7
  8
0
 10
129.3187464691789
 20
52.540413524615587
 30
0.0
  0
VERTEX
  5
12F8
  8
0
 10
132.0515206084699
 20
49.70432360142172
 30
0.0
  0
VERTEX
  5
12F9
  8
0
 10
135.66764307759399
 20
50.501263918388979
 30
0.0
  0
VERTEX
  5
12FA
  8
0
 10
135.66764307759399
 20
57.95454643579501
 30
0.0
  0
SEQEND
  5
12FB
  8
0
  0
POLYLINE
  5
780
  8
0
 66
     1
 10
0.0
 20
0.0
 30
0.0
 70
     1
  0
VERTEX
  5
12FC
  8
0
 10
124.965096310058
 20
50.026477026169907
 30
0.0
  0
VERTEX
  5
12FD
  8
0
 10
127.25684446233799
 20
52.911836249021917
 30
0.0
  0
VERTEX
  5
12FE
  8
0
 10
129.42185241158509
 20
57.063727783943477
 30
0.0
  0
VERTEX
  5
12FF
  8
0
 10
126.311201827411
 20
56.620064890332969
 30
0.0
  0
VERTEX
  5
1300
  8
0
 10
122.7106964572879
 20
51.664394394336568
 30
0.0
  0
SEQEND
  5
1301
  8
0
  0
POLYLINE
  5
781
  8
0
 66
     1
 10
0.0
 20
0.0
 30
0.0
 70
     1
  0
VERTEX
  5
1302
  8
0
 10
124.05835015162501
 20
68.042155711161513
 30
0.0
  0
VERTEX
  5
1303
  8
0
 10
121.4141157388849
 20
70.185802254390865
 30
0.0
  0
VERTEX
  5
1304
  8
0
 10
119.361254815951
 20
65.800090460769979
 30
0.0
  0
VERTEX
  5
1305
  8
0
 10
121.942899430938
 20
63.056493458092753
 30
0.0
  0
VERTEX
  5
1306
  8
0
 10
124.54450636944919
 20
65.94793135390114
 30
0.0
  0
SEQEND
  5
1307
  8
0
  0
POLYLINE
  5
782
  8
0
 66
     1
 10
0.0
 20
0.0
 30
0.0
 70
     1
  0
VERTEX
  5
1308
  8
0
 10
124.8829379717499
 20
69.948329123320704
 30
0.0
  0
VERTEX
  5
1309
  8
0
 10
128.250158215917
 20
73.332736524873098
 30
0.0
  0
VERTEX
  5
130A
  8
0
 10
129.05256750187499
 20
76.926575879165057
 30
0.0
  0
VERTEX
  5
130B
  8
0
 10
124.5693323641039
 20
76.926575879165057
 30
0.0
  0
VERTEX
  5
130C
  8
0
 10
122.28774609598921
 20
72.052217517893723
 30
0.0
  0
SEQEND
  5
130D
  8
0
  0
POLYLINE
  5
783
  8
0
 66
     1
 10
0.0
 20
0.0
 30
0.0
 70
     1
  0
VERTEX
  5
130E
  8
0
 10
132.56893599614679
 20
68.884992356674729
 30
0.0
  0
VERTEX
  5
130F
  8
0
 10
135.6676430775949
 20
69.372035322561032
 30
0.0
  0
VERTEX
  5
1310
  8
0
 10
135.6676430775949
 20
76.926575879165057
 30
0.0
  0
VERTEX
  5
1311
  8
0
 10
131.10181231889189
 20
76.926575879165057
 30
0.0
  0
VERTEX
  5
1312
  8
0
 10
130.22339650715389
 20
72.992317678392055
 30
0.0
  0
SEQEND
  5
1313
  8
0
  0
POLYLINE
  5
784
  8
0
 66
     1
 10
0.0
 20
0.0
 30
0.0
 70
     1
  0
VERTEX
  5
1314
  8
0
 10
130.49209227744899
 20
63.133711054829973
 30
0.0
  0
VERTEX
  5
1315
  8
0
 10
132.6679972259119
 20
66.876008789368584
 30
0.0
  0
VERTEX
  5
1316
  8
0
 10
135.6676430775949
 20
67.34748168881174
 30
0.0
  0
VERTEX
  5
1317
  8
0
 10
135.66764307759399
 20
59.974786494105729
 30
0.0
  0
VERTEX
  5
1318
  8
0
 10
131.86619620204601
 20
59.432597368366942
 30
0.0
  0
SEQEND
  5
1319
  8
0
  0
POLYLINE
  5
785
  8
0
 66
     1
 10
0.0
 20
0.0
 30
0.0
 70
     1
  0
VERTEX
  5
131A
  8
0
 10
126.1235836240148
 20
58.61354551914178
 30
0.0
  0
VERTEX
  5
131B
  8
0
 10
129.84009269931599
 20
59.143620217622129
 30
0.0
  0
VERTEX
  5
131C
  8
0
 10
128.56802765748691
 20
62.56989478980563
 30
0.0
  0
VERTEX
  5
131D
  8
0
 10
125.8083057265671
 20
64.362393219241994
 30
0.0
  0
VERTEX
  5
131E
  8
0
 10
123.318217892644
 20
61.594898168271577
 30
0.0
  0
SEQEND
  5
131F
  8
0
  0
POLYLINE
  5
786
  8
0
 66
     1
 10
0.0
 20
0.0
 30
0.0
 70
     1
  0
VERTEX
  5
1320
  8
0
 10
108.7012476104892
 20
69.45626689457481
 30
0.0
  0
VERTEX
  5
1321
  8
0
 10
106.9499059057909
 20
70.377001716685527
 30
0.0
  0
VERTEX
  5
1322
  8
0
 10
103.496751553545
 20
65.624142497657644
 30
0.0
  0
VERTEX
  5
1323
  8
0
 10
106.35579252372889
 20
63.546927643509889
 30
0.0
  0
VERTEX
  5
1324
  8
0
 10
109.6490114346429
 20
66.492375364139889
 30
0.0
  0
SEQEND
  5
1325
  8
0
  0
POLYLINE
  5
787
  8
0
 66
     1
 10
0.0
 20
0.0
 30
0.0
 70
     1
  0
VERTEX
  5
1326
  8
0
 10
111.19252333940879
 20
65.189646628878791
 30
0.0
  0
VERTEX
  5
1327
  8
0
 10
112.83311797972689
 20
65.234304677743921
 30
0.0
  0
VERTEX
  5
1328
  8
0
 10
113.3561274149188
 20
62.7348510728741
 30
0.0
  0
VERTEX
  5
1329
  8
0
 10
110.6846301998989
 20
60.401842974940557
 30
0.0
  0
VERTEX
  5
132A
  8
0
 10
108.011154131899
 20
62.34423703594689
 30
0.0
  0
SEQEND
  5
132B
  8
0
  0
POLYLINE
  5
788
  8
0
 66
     1
 10
0.0
 20
0.0
 30
0.0
 70
     1
  0
VERTEX
  5
132C
  8
0
 10
115.083744513114
 20
64.243572346307019
 30
0.0
  0
VERTEX
  5
132D
  8
0
 10
114.7067958300449
 20
66.045003986640722
 30
0.0
  0
VERTEX
  5
132E
  8
0
 10
116.9498776613418
 20
69.335692459649863
 30
0.0
  0
VERTEX
  5
132F
  8
0
 10
119.15454834793211
 20
70.076180320605772
 30
0.0
  0
VERTEX
  5
1330
  8
0
 10
117.3513643994299
 20
66.22387594837096
 30
0.0
  0
SEQEND
  5
1331
  8
0
  0
POLYLINE
  5
789
  8
0
 66
     1
 10
0.0
 20
0.0
 30
0.0
 70
     1
  0
VERTEX
  5
1332
  8
0
 10
117.12660697779999
 20
71.504847348969861
 30
0.0
  0
VERTEX
  5
1333
  8
0
 10
116.88636154513711
 20
73.122622892883783
 30
0.0
  0
VERTEX
  5
1334
  8
0
 10
118.2669868652531
 20
76.926575879165057
 30
0.0
  0
VERTEX
  5
1335
  8
0
 10
122.3610767315961
 20
76.926575879165057
 30
0.0
  0
VERTEX
  5
1336
  8
0
 10
120.32632038200811
 20
72.579542517172044
 30
0.0
  0
SEQEND
  5
1337
  8
0
  0
POLYLINE
  5
78A
  8
0
 66
     1
 10
0.0
 20
0.0
 30
0.0
 70
     1
  0
VERTEX
  5
1338
  8
0
 10
108.13782240875
 20
72.012028514386884
 30
0.0
  0
VERTEX
  5
1339
  8
0
 10
109.54687001346591
 20
71.271248350130691
 30
0.0
  0
VERTEX
  5
133A
  8
0
 10
115.058387989593
 20
73.948317075941532
 30
0.0
  0
VERTEX
  5
133B
  8
0
 10
116.13933182050209
 20
76.926575879165057
 30
0.0
  0
VERTEX
  5
133C
  8
0
 10
111.7084500751582
 20
76.926575879165057
 30
0.0
  0
SEQEND
  5
133D
  8
0
  0
POLYLINE
  5
791
  8
0
 66
     1
 10
0.0
 20
0.0
 30
0.0
 70
     1
  0
VERTEX
  5
133E
  8
0
 10
51.01447390447219
 20
41.841836465529688
 30
0.0
  0
VERTEX
  5
133F
  8
0
 10
50.586568728853081
 20
45.73586436080609
 30
0.0
  0
VERTEX
  5
1340
  8
0
 10
54.634542861559112
 20
45.08416083272391
 30
0.0
  0
VERTEX
  5
1341
  8
0
 10
55.436244024388998
 20
43.189107281697709
 30
0.0
  0
VERTEX
  5
1342
  8
0
 10
54.35338149932295
 20
40.367478960962892
 30
0.0
  0
SEQEND
  5
1343
  8
0
  0
POLYLINE
  5
792
  8
0
 66
     1
 10
0.0
 20
0.0
 30
0.0
 70
     1
  0
VERTEX
  5
1344
  8
0
 10
66.231690512693135
 20
55.166585844185867
 30
0.0
  0
VERTEX
  5
1345
  8
0
 10
67.031570418899037
 20
52.743331142062971
 30
0.0
  0
VERTEX
  5
1346
  8
0
 10
65.728179237936956
 20
51.849518074458729
 30
0.0
  0
VERTEX
  5
1347
  8
0
 10
62.111878675789058
 20
53.145757740484669
 30
0.0
  0
VERTEX
  5
1348
  8
0
 10
61.497221431935031
 20
54.323836051315759
 30
0.0
  0
SEQEND
  5
1349
  8
0
  0
POLYLINE
  5
793
  8
0
 66
     1
 10
0.0
 20
0.0
 30
0.0
 70
     1
  0
VERTEX
  5
134A
  8
0
 10
69.925024117601879
 20
27.534977704428911
 30
0.0
  0
VERTEX
  5
134B
  8
0
 10
68.402001068110167
 20
24.678152631541931
 30
0.0
  0
VERTEX
  5
134C
  8
0
 10
62.725999127971129
 20
26.522397457749779
 30
0.0
  0
VERTEX
  5
134D
  8
0
 10
63.173047244328011
 20
29.728827979063681
 30
0.0
  0
VERTEX
  5
134E
  8
0
 10
66.596141814080966
 20
28.776880612138029
 30
0.0
  0
SEQEND
  5
134F
  8
0
  0
POLYLINE
  5
794
  8
0
 66
     1
 10
0.0
 20
0.0
 30
0.0
 70
     1
  0
VERTEX
  5
1350
  8
0
 10
56.332722969060107
 20
32.871416766678749
 30
0.0
  0
VERTEX
  5
1351
  8
0
 10
61.25058677476909
 20
30.423727753574671
 30
0.0
  0
VERTEX
  5
1352
  8
0
 10
60.706737885323953
 20
26.522998471213899
 30
0.0
  0
VERTEX
  5
1353
  8
0
 10
57.312803588790977
 20
25.042233273307598
 30
0.0
  0
VERTEX
  5
1354
  8
0
 10
52.931874043890048
 20
31.07206549376793
 30
0.0
  0
SEQEND
  5
1355
  8
0
  0
POLYLINE
  5
795
  8
0
 66
     1
 10
0.0
 20
0.0
 30
0.0
 70
     1
  0
VERTEX
  5
1356
  8
0
 10
66.250418540047121
 20
30.948921760724719
 30
0.0
  0
VERTEX
  5
1357
  8
0
 10
62.700383739266947
 20
31.9361706410109
 30
0.0
  0
VERTEX
  5
1358
  8
0
 10
58.508434902023971
 20
34.02256170789974
 30
0.0
  0
VERTEX
  5
1359
  8
0
 10
61.285782594037983
 20
35.492025425607842
 30
0.0
  0
VERTEX
  5
135A
  8
0
 10
67.111522659573211
 20
33.599127733182058
 30
0.0
  0
SEQEND
  5
135B
  8
0
  0
POLYLINE
  5
796
  8
0
 66
     1
 10
0.0
 20
0.0
 30
0.0
 70
     1
  0
VERTEX
  5
135C
  8
0
 10
68.220107657981089
 20
22.634328934630961
 30
0.0
  0
VERTEX
  5
135D
  8
0
 10
69.963591689351006
 20
19.666013245749809
 30
0.0
  0
VERTEX
  5
135E
  8
0
 10
62.888951969040143
 20
17.36732345686891
 30
0.0
  0
VERTEX
  5
135F
  8
0
 10
58.516584163726073
 20
23.385371453751759
 30
0.0
  0
VERTEX
  5
1360
  8
0
 10
61.671824560599127
 20
24.7619950894798
 30
0.0
  0
SEQEND
  5
1361
  8
0
  0
POLYLINE
  5
797
  8
0
 66
     1
 10
0.0
 20
0.0
 30
0.0
 70
     1
  0
VERTEX
  5
1362
  8
0
 10
56.39464135072604
 20
46.056884001581921
 30
0.0
  0
VERTEX
  5
1363
  8
0
 10
57.27386810350594
 20
49.345372476399689
 30
0.0
  0
VERTEX
  5
1364
  8
0
 10
61.512524190344948
 20
47.003898478437577
 30
0.0
  0
VERTEX
  5
1365
  8
0
 10
61.036575679790069
 20
43.266829246206044
 30
0.0
  0
VERTEX
  5
1366
  8
0
 10
57.232286900775989
 20
44.076865451376989
 30
0.0
  0
SEQEND
  5
1367
  8
0
  0
POLYLINE
  5
798
  8
0
 66
     1
 10
0.0
 20
0.0
 30
0.0
 70
     1
  0
VERTEX
  5
1368
  8
0
 10
54.607115170912039
 20
47.114330126354837
 30
0.0
  0
VERTEX
  5
1369
  8
0
 10
49.893672011195122
 20
47.873170829356923
 30
0.0
  0
VERTEX
  5
136A
  8
0
 10
47.132103490848969
 20
50.309003597443962
 30
0.0
  0
VERTEX
  5
136B
  8
0
 10
50.759116907084938
 20
52.944183093984748
 30
0.0
  0
VERTEX
  5
136C
  8
0
 10
55.470034931267037
 20
50.341827103273992
 30
0.0
  0
SEQEND
  5
136D
  8
0
  0
POLYLINE
  5
799
  8
0
 66
     1
 10
0.0
 20
0.0
 30
0.0
 70
     1
  0
VERTEX
  5
136E
  8
0
 10
49.014025820096997
 20
41.736356323504651
 30
0.0
  0
VERTEX
  5
136F
  8
0
 10
46.220842458035122
 20
40.309008036248763
 30
0.0
  0
VERTEX
  5
1370
  8
0
 10
41.780394931018009
 20
46.420759731234959
 30
0.0
  0
VERTEX
  5
1371
  8
0
 10
45.474229608247917
 20
49.104487715663481
 30
0.0
  0
VERTEX
  5
1372
  8
0
 10
48.497381877197078
 20
46.43792583050049
 30
0.0
  0
SEQEND
  5
1373
  8
0
  0
POLYLINE
  5
79A
  8
0
 66
     1
 10
0.0
 20
0.0
 30
0.0
 70
     1
  0
VERTEX
  5
1374
  8
0
 10
54.074746014194027
 20
38.304210120048758
 30
0.0
  0
VERTEX
  5
1375
  8
0
 10
50.114734514694192
 20
40.052827746204677
 30
0.0
  0
VERTEX
  5
1376
  8
0
 10
47.410845226428137
 20
38.671109740520713
 30
0.0
  0
VERTEX
  5
1377
  8
0
 10
51.744406731522979
 20
32.706474033658878
 30
0.0
  0
VERTEX
  5
1378
  8
0
 10
55.138532629119027
 20
34.502268227590768
 30
0.0
  0
SEQEND
  5
1379
  8
0
  0
POLYLINE
  5
79B
  8
0
 66
     1
 10
0.0
 20
0.0
 30
0.0
 70
     1
  0
VERTEX
  5
137A
  8
0
 10
60.265830394694142
 20
37.215064345289882
 30
0.0
  0
VERTEX
  5
137B
  8
0
 10
56.947541302648013
 20
35.459394560174822
 30
0.0
  0
VERTEX
  5
137C
  8
0
 10
55.962749875601958
 20
38.97900998801083
 30
0.0
  0
VERTEX
  5
137D
  8
0
 10
57.141807675885957
 20
42.051295531237649
 30
0.0
  0
VERTEX
  5
137E
  8
0
 10
60.783023827769959
 20
41.275981908845779
 30
0.0
  0
SEQEND
  5
137F
  8
0
  0
POLYLINE
  5
79C
  8
0
 66
     1
 10
0.0
 20
0.0
 30
0.0
 70
     1
  0
VERTEX
  5
1380
  8
0
 10
67.987604592151911
 20
56.227602372521908
 30
0.0
  0
VERTEX
  5
1381
  8
0
 10
68.863275444500005
 20
58.00190531666771
 30
0.0
  0
VERTEX
  5
1382
  8
0
 10
74.450596554833965
 20
56.186474638743
 30
0.0
  0
VERTEX
  5
1383
  8
0
 10
73.358540079452951
 20
52.825470402797009
 30
0.0
  0
VERTEX
  5
1384
  8
0
 10
68.962979282742026
 20
53.272682156421752
 30
0.0
  0
SEQEND
  5
1385
  8
0
  0
POLYLINE
  5
79D
  8
0
 66
     1
 10
0.0
 20
0.0
 30
0.0
 70
     1
  0
VERTEX
  5
1386
  8
0
 10
68.479976659089971
 20
51.311498936175887
 30
0.0
  0
VERTEX
  5
1387
  8
0
 10
67.126458371674062
 20
50.383310722074611
 30
0.0
  0
VERTEX
  5
1388
  8
0
 10
68.172476818117033
 20
48.053793046266719
 30
0.0
  0
VERTEX
  5
1389
  8
0
 10
71.705071218936155
 20
47.736616511552931
 30
0.0
  0
VERTEX
  5
138A
  8
0
 10
72.726248208803085
 20
50.879476121807549
 30
0.0
  0
SEQEND
  5
138B
  8
0
  0
POLYLINE
  5
79E
  8
0
 66
     1
 10
0.0
 20
0.0
 30
0.0
 70
     1
  0
VERTEX
  5
138C
  8
0
 10
65.888001111560925
 20
48.258906344320842
 30
0.0
  0
VERTEX
  5
138D
  8
0
 10
65.134104050968972
 20
49.937860032335941
 30
0.0
  0
VERTEX
  5
138E
  8
0
 10
61.385194575352898
 20
51.281632510071859
 30
0.0
  0
VERTEX
  5
138F
  8
0
 10
59.166330678729992
 20
50.584826857974569
 30
0.0
  0
VERTEX
  5
1390
  8
0
 10
62.889464834393031
 20
48.528132085433072
 30
0.0
  0
SEQEND
  5
1391
  8
0
  0
POLYLINE
  5
79F
  8
0
 66
     1
 10
0.0
 20
0.0
 30
0.0
 70
     1
  0
VERTEX
  5
1392
  8
0
 10
59.967220301052969
 20
52.932636793101892
 30
0.0
  0
VERTEX
  5
1393
  8
0
 10
59.21067833266693
 20
54.382657423461978
 30
0.0
  0
VERTEX
  5
1394
  8
0
 10
55.857821520078012
 20
56.648608833060962
 30
0.0
  0
VERTEX
  5
1395
  8
0
 10
52.545633241709993
 20
54.242163188064978
 30
0.0
  0
VERTEX
  5
1396
  8
0
 10
56.74690780934111
 20
51.921339097393911
 30
0.0
  0
SEQEND
  5
1397
  8
0
  0
POLYLINE
  5
7A0
  8
0
 66
     1
 10
0.0
 20
0.0
 30
0.0
 70
     1
  0
VERTEX
  5
1398
  8
0
 10
66.941186166917987
 20
58.626429980872899
 30
0.0
  0
VERTEX
  5
1399
  8
0
 10
66.236662364560061
 20
57.198908837063982
 30
0.0
  0
VERTEX
  5
139A
  8
0
 10
60.204209140664027
 20
56.125113947243108
 30
0.0
  0
VERTEX
  5
139B
  8
0
 10
57.579130609449969
 20
57.899213090331841
 30
0.0
  0
VERTEX
  5
139C
  8
0
 10
61.163789241498982
 20
60.503620034896592
 30
0.0
  0
SEQEND
  5
139D
  8
0
  0
POLYLINE
  5
7A1
  8
0
 66
     1
 10
0.0
 20
0.0
 30
0.0
 70
     1
  0
VERTEX
  5
139E
  8
0
 10
86.881364326136918
 20
30.187977324904072
 30
0.0
  0
VERTEX
  5
139F
  8
0
 10
89.516399054053181
 20
33.086795717142877
 30
0.0
  0
VERTEX
  5
13A0
  8
0
 10
85.858457465230003
 20
34.938895984498011
 30
0.0
  0
VERTEX
  5
13A1
  8
0
 10
84.095983070493048
 20
33.876993576722953
 30
0.0
  0
VERTEX
  5
13A2
  8
0
 10
83.313525741465114
 20
30.957757690944849
 30
0.0
  0
SEQEND
  5
13A3
  8
0
  0
POLYLINE
  5
7A2
  8
0
 66
     1
 10
0.0
 20
0.0
 30
0.0
 70
     1
  0
VERTEX
  5
13A4
  8
0
 10
82.402468658268845
 20
49.912381521274028
 30
0.0
  0
VERTEX
  5
13A5
  8
0
 10
80.330998844234045
 20
48.422084898031017
 30
0.0
  0
VERTEX
  5
13A6
  8
0
 10
80.860094320507187
 20
46.93286082240661
 30
0.0
  0
VERTEX
  5
13A7
  8
0
 10
84.547653491177925
 20
45.85593260271866
 30
0.0
  0
VERTEX
  5
13A8
  8
0
 10
85.737378704324996
 20
46.447731513732599
 30
0.0
  0
SEQEND
  5
13A9
  8
0
  0
POLYLINE
  5
7A3
  8
0
 66
     1
 10
0.0
 20
0.0
 30
0.0
 70
     1
  0
VERTEX
  5
13AA
  8
0
 10
77.306130046709995
 20
26.056743710039878
 30
0.0
  0
VERTEX
  5
13AB
  8
0
 10
71.888779147767991
 20
26.967169519274879
 30
0.0
  0
VERTEX
  5
13AC
  8
0
 10
70.035970996344076
 20
23.491746882695001
 30
0.0
  0
VERTEX
  5
13AD
  8
0
 10
71.911349574593942
 20
20.29887814615768
 30
0.0
  0
VERTEX
  5
13AE
  8
0
 10
78.999842480561938
 20
22.602069107914989
 30
0.0
  0
SEQEND
  5
13AF
  8
0
  0
POLYLINE
  5
7A4
  8
0
 66
     1
 10
0.0
 20
0.0
 30
0.0
 70
     1
  0
VERTEX
  5
13B0
  8
0
 10
68.152531572638054
 20
30.330887771974631
 30
0.0
  0
VERTEX
  5
13B1
  8
0
 10
71.60486038926615
 20
29.042930792779771
 30
0.0
  0
VERTEX
  5
13B2
  8
0
 10
76.222568137778126
 20
28.266890917909681
 30
0.0
  0
VERTEX
  5
13B3
  8
0
 10
74.839375757697994
 20
31.088196052006651
 30
0.0
  0
VERTEX
  5
13B4
  8
0
 10
69.013635692163007
 20
32.981093744432883
 30
0.0
  0
SEQEND
  5
13B5
  8
0
  0
POLYLINE
  5
7A5
  8
0
 66
     1
 10
0.0
 20
0.0
 30
0.0
 70
     1
  0
VERTEX
  5
13B6
  8
0
 10
85.006260208939025
 20
36.760405493439748
 30
0.0
  0
VERTEX
  5
13B7
  8
0
 10
86.227875851862109
 20
39.937645074078091
 30
0.0
  0
VERTEX
  5
13B8
  8
0
 10
81.422447159671037
 20
40.534772355223822
 30
0.0
  0
VERTEX
  5
13B9
  8
0
 10
79.610903411655045
 20
37.23166432183757
 30
0.0
  0
VERTEX
  5
13BA
  8
0
 10
83.164765020608925
 20
35.650892538113567
 30
0.0
  0
SEQEND
  5
13BB
  8
0
  0
POLYLINE
  5
7A6
  8
0
 66
     1
 10
0.0
 20
0.0
 30
0.0
 70
     1
  0
VERTEX
  5
13BC
  8
0
 10
87.073950503533965
 20
36.56521585243491
 30
0.0
  0
VERTEX
  5
13BD
  8
0
 10
91.333241495827906
 20
34.408638500386807
 30
0.0
  0
VERTEX
  5
13BE
  8
0
 10
94.999143938051247
 20
34.756059355770731
 30
0.0
  0
VERTEX
  5
13BF
  8
0
 10
93.613748090700938
 20
39.019869347630681
 30
0.0
  0
VERTEX
  5
13C0
  8
0
 10
88.272908877476979
 20
39.683527265104878
 30
0.0
  0
SEQEND
  5
13C1
  8
0
  0
POLYLINE
  5
7A7
  8
0
 66
     1
 10
0.0
 20
0.0
 30
0.0
 70
     1
  0
VERTEX
  5
13C2
  8
0
 10
88.437761150870074
 20
28.92680821546378
 30
0.0
  0
VERTEX
  5
13C3
  8
0
 10
89.858519686049036
 20
26.130267207012821
 30
0.0
  0
VERTEX
  5
13C4
  8
0
 10
97.043314710022983
 20
28.464748623697691
 30
0.0
  0
VERTEX
  5
13C5
  8
0
 10
95.632395412143978
 20
32.807111719062732
 30
0.0
  0
VERTEX
  5
13C6
  8
0
 10
91.619248099558035
 20
32.426782156534962
 30
0.0
  0
SEQEND
  5
13C7
  8
0
  0
POLYLINE
  5
7A8
  8
0
 66
     1
 10
0.0
 20
0.0
 30
0.0
 70
     1
  0
VERTEX
  5
13C8
  8
0
 10
82.326187587965933
 20
29.124760305756809
 30
0.0
  0
VERTEX
  5
13C9
  8
0
 10
86.557715841535114
 20
28.211785323665708
 30
0.0
  0
VERTEX
  5
13CA
  8
0
 10
87.933054760082086
 20
25.50464572815963
 30
0.0
  0
VERTEX
  5
13CB
  8
0
 10
80.921204952500133
 20
23.226357618649899
 30
0.0
  0
VERTEX
  5
13CC
  8
0
 10
79.230840763643982
 20
26.674202786970682
 30
0.0
  0
SEQEND
  5
13CD
  8
0
  0
POLYLINE
  5
7A9
  8
0
 66
     1
 10
0.0
 20
0.0
 30
0.0
 70
     1
  0
VERTEX
  5
13CE
  8
0
 10
76.677311286532131
 20
31.882650959181781
 30
0.0
  0
VERTEX
  5
13CF
  8
0
 10
78.329906746661194
 20
28.511842875364891
 30
0.0
  0
VERTEX
  5
13D0
  8
0
 10
81.195397789278104
 20
30.78042569274681
 30
0.0
  0
VERTEX
  5
13D1
  8
0
 10
82.047364124638065
 20
33.958989695397811
 30
0.0
  0
VERTEX
  5
13D2
  8
0
 10
78.64584046442792
 20
35.472000953398947
 30
0.0
  0
SEQEND
  5
13D3
  8
0
  0
POLYLINE
  5
7AA
  8
0
 66
     1
 10
0.0
 20
0.0
 30
0.0
 70
     1
  0
VERTEX
  5
13D4
  8
0
 10
81.605554195120021
 20
51.80286232421053
 30
0.0
  0
VERTEX
  5
13D5
  8
0
 10
81.940030697758175
 20
53.75300997206682
 30
0.0
  0
VERTEX
  5
13D6
  8
0
 10
76.352709587424897
 20
55.568440649991999
 30
0.0
  0
VERTEX
  5
13D7
  8
0
 10
75.260653112042974
 20
52.207436414046022
 30
0.0
  0
VERTEX
  5
13D8
  8
0
 10
79.07960096982606
 20
49.985592510951619
 30
0.0
  0
SEQEND
  5
13D9
  8
0
  0
POLYLINE
  5
7AB
  8
0
 66
     1
 10
0.0
 20
0.0
 30
0.0
 70
     1
  0
VERTEX
  5
13DA
  8
0
 10
78.317603726783091
 20
48.115060137687813
 30
0.0
  0
VERTEX
  5
13DB
  8
0
 10
78.867047679899073
 20
46.568562010449803
 30
0.0
  0
VERTEX
  5
13DC
  8
0
 10
76.65154484550294
 20
45.298776838469848
 30
0.0
  0
VERTEX
  5
13DD
  8
0
 10
73.607184251527997
 20
47.118582522802853
 30
0.0
  0
VERTEX
  5
13DE
  8
0
 10
74.628361241394032
 20
50.261442133057919
 30
0.0
  0
SEQEND
  5
13DF
  8
0
  0
POLYLINE
  5
7AC
  8
0
 66
     1
 10
0.0
 20
0.0
 30
0.0
 70
     1
  0
VERTEX
  5
13E0
  8
0
 10
78.620287086990174
 20
44.121935852833978
 30
0.0
  0
VERTEX
  5
13E1
  8
0
 10
80.217066838114064
 20
45.037108345244853
 30
0.0
  0
VERTEX
  5
13E2
  8
0
 10
84.039847959109906
 20
43.920689414358769
 30
0.0
  0
VERTEX
  5
13E3
  8
0
 10
85.425374473667034
 20
42.052746324756519
 30
0.0
  0
VERTEX
  5
13E4
  8
0
 10
81.204400813630173
 20
42.57724865053364
 30
0.0
  0
SEQEND
  5
13E5
  8
0
  0
POLYLINE
  5
7AD
  8
0
 66
     1
 10
0.0
 20
0.0
 30
0.0
 70
     1
  0
VERTEX
  5
13E6
  8
0
 10
86.157449213641954
 20
44.422915570552732
 30
0.0
  0
VERTEX
  5
13E7
  8
0
 10
87.621805265071075
 20
45.151322690950792
 30
0.0
  0
VERTEX
  5
13E8
  8
0
 10
91.666216227133873
 20
45.013756102256806
 30
0.0
  0
VERTEX
  5
13E9
  8
0
 10
92.931359572331985
 20
41.120045256574713
 30
0.0
  0
VERTEX
  5
13EA
  8
0
 10
88.168310875420033
 20
41.711906357951868
 30
0.0
  0
SEQEND
  5
13EB
  8
0
  0
POLYLINE
  5
7AE
  8
0
 66
     1
 10
0.0
 20
0.0
 30
0.0
 70
     1
  0
VERTEX
  5
13EC
  8
0
 10
83.862119975342026
 20
53.128485307861638
 30
0.0
  0
VERTEX
  5
13ED
  8
0
 10
83.593015828723992
 20
51.55948774177682
 30
0.0
  0
VERTEX
  5
13EE
  8
0
 10
87.84221220440395
 20
47.144982387287882
 30
0.0
  0
VERTEX
  5
13EF
  8
0
 10
91.008734660138074
 20
47.037276296995742
 30
0.0
  0
VERTEX
  5
13F0
  8
0
 10
89.639516900760995
 20
51.251295253837952
 30
0.0
  0
SEQEND
  5
13F1
  8
0
  0
POLYLINE
  5
7B5
  8
0
 66
     1
 10
0.0
 20
0.0
 30
0.0
 70
     1
  0
VERTEX
  5
13F2
  8
0
 10
37.516476765975987
 20
98.132916068801705
 30
0.0
  0
VERTEX
  5
13F3
  8
0
 10
41.087687399165127
 20
99.743198870640981
 30
0.0
  0
VERTEX
  5
13F4
  8
0
 10
41.718773311888071
 20
95.691959228465976
 30
0.0
  0
VERTEX
  5
13F5
  8
0
 10
40.164209567180023
 20
94.343892360917167
 30
0.0
  0
VERTEX
  5
13F6
  8
0
 10
37.146058643365897
 20
94.501824718716975
 30
0.0
  0
SEQEND
  5
13F7
  8
0
  0
POLYLINE
  5
7B6
  8
0
 66
     1
 10
0.0
 20
0.0
 30
0.0
 70
     1
  0
VERTEX
  5
13F8
  8
0
 10
54.891445029571059
 20
87.778057057471642
 30
0.0
  0
VERTEX
  5
13F9
  8
0
 10
52.833969338950972
 20
86.268499175764873
 30
0.0
  0
VERTEX
  5
13FA
  8
0
 10
51.581132571420987
 20
87.231894424017128
 30
0.0
  0
VERTEX
  5
13FB
  8
0
 10
51.696431422004032
 20
91.071760724114711
 30
0.0
  0
VERTEX
  5
13FC
  8
0
 10
52.626910942160059
 20
92.020380719921604
 30
0.0
  0
SEQEND
  5
13FD
  8
0
  0
POLYLINE
  5
7B7
  8
0
 66
     1
 10
0.0
 20
0.0
 30
0.0
 70
     1
  0
VERTEX
  5
13FE
  8
0
 10
29.753526902355141
 20
75.726851568575725
 30
0.0
  0
VERTEX
  5
13FF
  8
0
 10
26.56588479575203
 20
76.292525066785629
 30
0.0
  0
VERTEX
  5
1400
  8
0
 10
26.56588479575316
 20
82.260626691544758
 30
0.0
  0
VERTEX
  5
1401
  8
0
 10
29.753526902355141
 20
82.826300189752814
 30
0.0
  0
VERTEX
  5
1402
  8
0
 10
29.905965551275131
 20
79.276575879164966
 30
0.0
  0
SEQEND
  5
1403
  8
0
  0
POLYLINE
  5
7B8
  8
0
 66
     1
 10
0.0
 20
0.0
 30
0.0
 70
     1
  0
VERTEX
  5
1404
  8
0
 10
30.62852999875804
 20
90.302948507024894
 30
0.0
  0
VERTEX
  5
1405
  8
0
 10
29.820342904966989
 20
84.869404586358755
 30
0.0
  0
VERTEX
  5
1406
  8
0
 10
25.942470353463019
 20
84.181243977840722
 30
0.0
  0
VERTEX
  5
1407
  8
0
 10
23.485395587470979
 20
86.951485695603637
 30
0.0
  0
VERTEX
  5
1408
  8
0
 10
27.866325132371909
 20
92.981317916063972
 30
0.0
  0
SEQEND
  5
1409
  8
0
  0
POLYLINE
  5
7B9
  8
0
 66
     1
 10
0.0
 20
0.0
 30
0.0
 70
     1
  0
VERTEX
  5
140A
  8
0
 10
31.864865072272998
 20
80.276575879164966
 30
0.0
  0
VERTEX
  5
140B
  8
0
 10
31.706773469010159
 20
83.957936291207929
 30
0.0
  0
VERTEX
  5
140C
  8
0
 10
32.39566585845705
 20
88.589446845423694
 30
0.0
  0
VERTEX
  5
140D
  8
0
 10
34.651456538762197
 20
86.402121486305759
 30
0.0
  0
VERTEX
  5
140E
  8
0
 10
34.651456538762197
 20
80.276575879164966
 30
0.0
  0
SEQEND
  5
140F
  8
0
  0
POLYLINE
  5
7BA
  8
0
 66
     1
 10
0.0
 20
0.0
 30
0.0
 70
     1
  0
VERTEX
  5
1410
  8
0
 10
24.56588479575203
 20
75.833939723906724
 30
0.0
  0
VERTEX
  5
1411
  8
0
 10
22.281615012534989
 20
73.258527882282806
 30
0.0
  0
VERTEX
  5
1412
  8
0
 10
17.909247207222052
 20
79.276575879164966
 30
0.0
  0
VERTEX
  5
1413
  8
0
 10
22.281615012534989
 20
85.294623876048036
 30
0.0
  0
VERTEX
  5
1414
  8
0
 10
24.56588479575316
 20
82.719212034421844
 30
0.0
  0
SEQEND
  5
1415
  8
0
  0
POLYLINE
  5
7BB
  8
0
 66
     1
 10
0.0
 20
0.0
 30
0.0
 70
     1
  0
VERTEX
  5
1416
  8
0
 10
43.187788365107963
 20
94.318594081021956
 30
0.0
  0
VERTEX
  5
1417
  8
0
 10
46.587022766363127
 20
94.498598573013851
 30
0.0
  0
VERTEX
  5
1418
  8
0
 10
45.66996542700894
 20
89.743841824035144
 30
0.0
  0
VERTEX
  5
1419
  8
0
 10
41.968725203640133
 20
89.04167785450386
 30
0.0
  0
VERTEX
  5
141A
  8
0
 10
41.563525530779081
 20
92.910086441110025
 30
0.0
  0
SEQEND
  5
141B
  8
0
  0
POLYLINE
  5
7BC
  8
0
 66
     1
 10
0.0
 20
0.0
 30
0.0
 70
     1
  0
VERTEX
  5
141C
  8
0
 10
43.641103425251004
 20
96.345401325572553
 30
0.0
  0
VERTEX
  5
141D
  8
0
 10
42.906269782298061
 20
101.06264683005951
 30
0.0
  0
VERTEX
  5
141E
  8
0
 10
44.369512805074919
 20
104.4417682873238
 30
0.0
  0
VERTEX
  5
141F
  8
0
 10
47.996526221309978
 20
101.8065887907826
 30
0.0
  0
VERTEX
  5
1420
  8
0
 10
46.97729232720507
 20
96.522067279609715
 30
0.0
  0
SEQEND
  5
1421
  8
0
  0
POLYLINE
  5
7BD
  8
0
 66
     1
 10
0.0
 20
0.0
 30
0.0
 70
     1
  0
VERTEX
  5
1422
  8
0
 10
36.797986735127097
 20
100.0028600985017
 30
0.0
  0
VERTEX
  5
1423
  8
0
 10
34.577356718227072
 20
102.2182604585448
 30
0.0
  0
VERTEX
  5
1424
  8
0
 10
39.017804245243042
 20
108.3300121535319
 30
0.0
  0
VERTEX
  5
1425
  8
0
 10
42.711638922474087
 20
105.6462841691025
 30
0.0
  0
VERTEX
  5
1426
  8
0
 10
41.109793293172054
 20
101.9470825648998
 30
0.0
  0
SEQEND
  5
1427
  8
0
  0
POLYLINE
  5
7BE
  8
0
 66
     1
 10
0.0
 20
0.0
 30
0.0
 70
     1
  0
VERTEX
  5
1428
  8
0
 10
35.097670267205103
 20
94.129237676713046
 30
0.0
  0
VERTEX
  5
1429
  8
0
 10
35.536993603803012
 20
98.435784981061957
 30
0.0
  0
VERTEX
  5
142A
  8
0
 10
33.387353949833141
 20
100.5803621628167
 30
0.0
  0
VERTEX
  5
142B
  8
0
 10
29.053792444738061
 20
94.615726455954928
 30
0.0
  0
VERTEX
  5
142C
  8
0
 10
31.810536798207071
 20
91.942651828245076
 30
0.0
  0
SEQEND
  5
142D
  8
0
  0
POLYLINE
  5
7BF
  8
0
 66
     1
 10
0.0
 20
0.0
 30
0.0
 70
     1
  0
VERTEX
  5
142E
  8
0
 10
35.974981368108963
 20
87.904601979952758
 30
0.0
  0
VERTEX
  5
142F
  8
0
 10
33.279832456820941
 20
90.517950643782797
 30
0.0
  0
VERTEX
  5
1430
  8
0
 10
36.322868357445941
 20
92.542163928531636
 30
0.0
  0
VERTEX
  5
1431
  8
0
 10
39.609134440890102
 20
92.370201768912679
 30
0.0
  0
VERTEX
  5
1432
  8
0
 10
39.996965039266122
 20
88.667614335135795
 30
0.0
  0
SEQEND
  5
1433
  8
0
  0
POLYLINE
  5
7C0
  8
0
 66
     1
 10
0.0
 20
0.0
 30
0.0
 70
     1
  0
VERTEX
  5
1434
  8
0
 10
56.443139003958088
 20
86.435955668714769
 30
0.0
  0
VERTEX
  5
1435
  8
0
 10
58.401198555724022
 20
86.151432961369906
 30
0.0
  0
VERTEX
  5
1436
  8
0
 10
58.401198555724022
 20
80.276575879165875
 30
0.0
  0
VERTEX
  5
1437
  8
0
 10
54.867229566121068
 20
80.276575879164966
 30
0.0
  0
VERTEX
  5
1438
  8
0
 10
53.934250232578961
 20
84.595198649604072
 30
0.0
  0
SEQEND
  5
1439
  8
0
  0
POLYLINE
  5
7C1
  8
0
 66
     1
 10
0.0
 20
0.0
 30
0.0
 70
     1
  0
VERTEX
  5
143A
  8
0
 10
51.919798132278849
 20
84.448522498075576
 30
0.0
  0
VERTEX
  5
143B
  8
0
 10
50.618778529900972
 20
85.448968953111716
 30
0.0
  0
VERTEX
  5
143C
  8
0
 10
48.726513040878899
 20
83.734285742935526
 30
0.0
  0
VERTEX
  5
143D
  8
0
 10
49.516491934811022
 20
80.276575879165875
 30
0.0
  0
VERTEX
  5
143E
  8
0
 10
52.821090091078077
 20
80.276575879164966
 30
0.0
  0
SEQEND
  5
143F
  8
0
  0
POLYLINE
  5
7C2
  8
0
 66
     1
 10
0.0
 20
0.0
 30
0.0
 70
     1
  0
VERTEX
  5
1440
  8
0
 10
48.215645563011087
 20
85.970334744846014
 30
0.0
  0
VERTEX
  5
1441
  8
0
 10
49.579458404821928
 20
87.20615867930087
 30
0.0
  0
VERTEX
  5
1442
  8
0
 10
49.69898523785286
 20
91.186831997281615
 30
0.0
  0
VERTEX
  5
1443
  8
0
 10
48.350617029573179
 20
93.081772176661843
 30
0.0
  0
VERTEX
  5
1444
  8
0
 10
47.545095790554107
 20
88.905307539919946
 30
0.0
  0
SEQEND
  5
1445
  8
0
  0
POLYLINE
  5
7C3
  8
0
 66
     1
 10
0.0
 20
0.0
 30
0.0
 70
     1
  0
VERTEX
  5
1446
  8
0
 10
50.831005471314029
 20
93.045594052034858
 30
0.0
  0
VERTEX
  5
1447
  8
0
 10
51.976272715392042
 20
94.213189237895904
 30
0.0
  0
VERTEX
  5
1448
  8
0
 10
53.095230834303031
 20
98.102163051705929
 30
0.0
  0
VERTEX
  5
1449
  8
0
 10
49.783042555935033
 20
100.5086086967019
 30
0.0
  0
VERTEX
  5
144A
  8
0
 10
48.87407292076
 20
95.795785057438707
 30
0.0
  0
SEQEND
  5
144B
  8
0
  0
POLYLINE
  5
7C4
  8
0
 66
     1
 10
0.0
 20
0.0
 30
0.0
 70
     1
  0
VERTEX
  5
144C
  8
0
 10
58.401198555724022
 20
88.172437228361787
 30
0.0
  0
VERTEX
  5
144D
  8
0
 10
56.825835441886063
 20
88.401350888212846
 30
0.0
  0
VERTEX
  5
144E
  8
0
 10
53.940465250801033
 20
93.806733966617912
 30
0.0
  0
VERTEX
  5
144F
  8
0
 10
54.816539923676153
 20
96.851558794435974
 30
0.0
  0
VERTEX
  5
1450
  8
0
 10
58.401198555724022
 20
94.247151849870775
 30
0.0
  0
SEQEND
  5
1451
  8
0
  0
POLYLINE
  5
7C5
  8
0
 66
     1
 10
0.0
 20
0.0
 30
0.0
 70
     1
  0
VERTEX
  5
1452
  8
0
 10
37.516476765977131
 20
60.420235689527772
 30
0.0
  0
VERTEX
  5
1453
  8
0
 10
41.087687399165127
 20
58.809952887688951
 30
0.0
  0
VERTEX
  5
1454
  8
0
 10
41.718773311888071
 20
62.861192529864873
 30
0.0
  0
VERTEX
  5
1455
  8
0
 10
40.164209567180933
 20
64.209259397412779
 30
0.0
  0
VERTEX
  5
1456
  8
0
 10
37.146058643365897
 20
64.051327039613852
 30
0.0
  0
SEQEND
  5
1457
  8
0
  0
POLYLINE
  5
7C6
  8
0
 66
     1
 10
0.0
 20
0.0
 30
0.0
 70
     1
  0
VERTEX
  5
1458
  8
0
 10
54.891445029571059
 20
70.775094700859199
 30
0.0
  0
VERTEX
  5
1459
  8
0
 10
52.833969338950972
 20
72.284652582565045
 30
0.0
  0
VERTEX
  5
145A
  8
0
 10
51.581132571420987
 20
71.321257334312804
 30
0.0
  0
VERTEX
  5
145B
  8
0
 10
51.696431422004032
 20
67.481391034214766
 30
0.0
  0
VERTEX
  5
145C
  8
0
 10
52.626910942158929
 20
66.532771038408782
 30
0.0
  0
SEQEND
  5
145D
  8
0
  0
POLYLINE
  5
7C7
  8
0
 66
     1
 10
0.0
 20
0.0
 30
0.0
 70
     1
  0
VERTEX
  5
145E
  8
0
 10
30.628529998757131
 20
68.250203251305038
 30
0.0
  0
VERTEX
  5
145F
  8
0
 10
29.820342904967902
 20
73.683747171972072
 30
0.0
  0
VERTEX
  5
1460
  8
0
 10
25.942470353463019
 20
74.371907780489664
 30
0.0
  0
VERTEX
  5
1461
  8
0
 10
23.485395587470979
 20
71.601666062725826
 30
0.0
  0
VERTEX
  5
1462
  8
0
 10
27.866325132371909
 20
65.571833842266869
 30
0.0
  0
SEQEND
  5
1463
  8
0
  0
POLYLINE
  5
7C8
  8
0
 66
     1
 10
0.0
 20
0.0
 30
0.0
 70
     1
  0
VERTEX
  5
1464
  8
0
 10
31.864865072272099
 20
78.276575879164966
 30
0.0
  0
VERTEX
  5
1465
  8
0
 10
31.706773469010159
 20
74.595215467121989
 30
0.0
  0
VERTEX
  5
1466
  8
0
 10
32.39566585845705
 20
69.963704912904859
 30
0.0
  0
VERTEX
  5
1467
  8
0
 10
34.651456538762197
 20
72.151030272022808
 30
0.0
  0
VERTEX
  5
1468
  8
0
 10
34.651456538762197
 20
78.276575879164966
 30
0.0
  0
SEQEND
  5
1469
  8
0
  0
POLYLINE
  5
7C9
  8
0
 66
     1
 10
0.0
 20
0.0
 30
0.0
 70
     1
  0
VERTEX
  5
146A
  8
0
 10
43.187788365107963
 20
64.234557677307976
 30
0.0
  0
VERTEX
  5
146B
  8
0
 10
46.587022766363127
 20
64.054553185315626
 30
0.0
  0
VERTEX
  5
146C
  8
0
 10
45.66996542700894
 20
68.809309934294788
 30
0.0
  0
VERTEX
  5
146D
  8
0
 10
41.968725203641043
 20
69.511473903826072
 30
0.0
  0
VERTEX
  5
146E
  8
0
 10
41.563525530778179
 20
65.643065317219907
 30
0.0
  0
SEQEND
  5
146F
  8
0
  0
POLYLINE
  5
7CA
  8
0
 66
     1
 10
0.0
 20
0.0
 30
0.0
 70
     1
  0
VERTEX
  5
1470
  8
0
 10
43.641103425251004
 20
62.207750432756029
 30
0.0
  0
VERTEX
  5
1471
  8
0
 10
42.906269782298061
 20
57.490504928270873
 30
0.0
  0
VERTEX
  5
1472
  8
0
 10
44.369512805074919
 20
54.111383471005638
 30
0.0
  0
VERTEX
  5
1473
  8
0
 10
47.996526221311107
 20
56.746562967547789
 30
0.0
  0
VERTEX
  5
1474
  8
0
 10
46.97729232720507
 20
62.031084478721141
 30
0.0
  0
SEQEND
  5
1475
  8
0
  0
POLYLINE
  5
7CB
  8
0
 66
     1
 10
0.0
 20
0.0
 30
0.0
 70
     1
  0
VERTEX
  5
1476
  8
0
 10
36.797986735127097
 20
58.550291659827742
 30
0.0
  0
VERTEX
  5
1477
  8
0
 10
34.577356718227072
 20
56.334891299786023
 30
0.0
  0
VERTEX
  5
1478
  8
0
 10
39.017804245243042
 20
50.223139604798909
 30
0.0
  0
VERTEX
  5
1479
  8
0
 10
42.711638922474087
 20
52.906867589226977
 30
0.0
  0
VERTEX
  5
147A
  8
0
 10
41.109793293172054
 20
56.606069193430592
 30
0.0
  0
SEQEND
  5
147B
  8
0
  0
POLYLINE
  5
7CC
  8
0
 66
     1
 10
0.0
 20
0.0
 30
0.0
 70
     1
  0
VERTEX
  5
147C
  8
0
 10
35.097670267203974
 20
64.423914081616886
 30
0.0
  0
VERTEX
  5
147D
  8
0
 10
35.536993603803012
 20
60.117366777267989
 30
0.0
  0
VERTEX
  5
147E
  8
0
 10
33.387353949833141
 20
57.972789595512722
 30
0.0
  0
VERTEX
  5
147F
  8
0
 10
29.053792444738061
 20
63.937425302374997
 30
0.0
  0
VERTEX
  5
1480
  8
0
 10
31.810536798207071
 20
66.61049993008487
 30
0.0
  0
SEQEND
  5
1481
  8
0
  0
POLYLINE
  5
7CD
  8
0
 66
     1
 10
0.0
 20
0.0
 30
0.0
 70
     1
  0
VERTEX
  5
1482
  8
0
 10
35.974981368108963
 20
70.648549778376719
 30
0.0
  0
VERTEX
  5
1483
  8
0
 10
33.279832456822078
 20
68.035201114545771
 30
0.0
  0
VERTEX
  5
1484
  8
0
 10
36.322868357445941
 20
66.010987829797841
 30
0.0
  0
VERTEX
  5
1485
  8
0
 10
39.609134440890102
 20
66.182949989416784
 30
0.0
  0
VERTEX
  5
1486
  8
0
 10
39.996965039266122
 20
69.885537423194592
 30
0.0
  0
SEQEND
  5
1487
  8
0
  0
POLYLINE
  5
7CE
  8
0
 66
     1
 10
0.0
 20
0.0
 30
0.0
 70
     1
  0
VERTEX
  5
1488
  8
0
 10
56.443139003958088
 20
72.117196089614708
 30
0.0
  0
VERTEX
  5
1489
  8
0
 10
58.401198555723113
 20
72.401718796959585
 30
0.0
  0
VERTEX
  5
148A
  8
0
 10
58.401198555724022
 20
78.276575879164966
 30
0.0
  0
VERTEX
  5
148B
  8
0
 10
54.867229566121068
 20
78.276575879164966
 30
0.0
  0
VERTEX
  5
148C
  8
0
 10
53.934250232580098
 20
73.95795310872586
 30
0.0
  0
SEQEND
  5
148D
  8
0
  0
POLYLINE
  5
7CF
  8
0
 66
     1
 10
0.0
 20
0.0
 30
0.0
 70
     1
  0
VERTEX
  5
148E
  8
0
 10
51.919798132278849
 20
74.104629260252977
 30
0.0
  0
VERTEX
  5
148F
  8
0
 10
50.618778529900972
 20
73.104182805216851
 30
0.0
  0
VERTEX
  5
1490
  8
0
 10
48.726513040878899
 20
74.818866015393951
 30
0.0
  0
VERTEX
  5
1491
  8
0
 10
49.516491934811022
 20
78.276575879163602
 30
0.0
  0
VERTEX
  5
1492
  8
0
 10
52.821090091078077
 20
78.276575879164966
 30
0.0
  0
SEQEND
  5
1493
  8
0
  0
POLYLINE
  5
7D0
  8
0
 66
     1
 10
0.0
 20
0.0
 30
0.0
 70
     1
  0
VERTEX
  5
1494
  8
0
 10
48.215645563011087
 20
72.582817013483918
 30
0.0
  0
VERTEX
  5
1495
  8
0
 10
49.579458404821928
 20
71.346993079027698
 30
0.0
  0
VERTEX
  5
1496
  8
0
 10
49.69898523785286
 20
67.366319761047862
 30
0.0
  0
VERTEX
  5
1497
  8
0
 10
48.350617029573179
 20
65.471379581667634
 30
0.0
  0
VERTEX
  5
1498
  8
0
 10
47.545095790554107
 20
69.64784421841
 30
0.0
  0
SEQEND
  5
1499
  8
0
  0
POLYLINE
  5
7D1
  8
0
 66
     1
 10
0.0
 20
0.0
 30
0.0
 70
     1
  0
VERTEX
  5
149A
  8
0
 10
50.831005471314029
 20
65.507557706294619
 30
0.0
  0
VERTEX
  5
149B
  8
0
 10
51.976272715392042
 20
64.339962520433573
 30
0.0
  0
VERTEX
  5
149C
  8
0
 10
53.095230834304168
 20
60.450988706624003
 30
0.0
  0
VERTEX
  5
149D
  8
0
 10
49.783042555935033
 20
58.044543061627571
 30
0.0
  0
VERTEX
  5
149E
  8
0
 10
48.87407292076
 20
62.757366700892128
 30
0.0
  0
SEQEND
  5
149F
  8
0
  0
POLYLINE
  5
7D2
  8
0
 66
     1
 10
0.0
 20
0.0
 30
0.0
 70
     1
  0
VERTEX
  5
14A0
  8
0
 10
58.401198555723113
 20
70.38071452996769
 30
0.0
  0
VERTEX
  5
14A1
  8
0
 10
56.82583544188514
 20
70.151800870116631
 30
0.0
  0
VERTEX
  5
14A2
  8
0
 10
53.940465250801033
 20
64.746417791712915
 30
0.0
  0
VERTEX
  5
14A3
  8
0
 10
54.816539923676153
 20
61.701592963894882
 30
0.0
  0
VERTEX
  5
14A4
  8
0
 10
58.401198555723113
 20
64.305999908459626
 30
0.0
  0
SEQEND
  5
14A5
  8
0
  0
POLYLINE
  5
7D3
  8
0
 66
     1
 10
0.0
 20
0.0
 30
0.0
 70
     1
  0
VERTEX
  5
14A6
  8
0
 10
36.651456538762211
 20
72.555887300735534
 30
0.0
  0
VERTEX
  5
14A7
  8
0
 10
36.651456538762211
 20
85.997264457594838
 30
0.0
  0
VERTEX
  5
14A8
  8
0
 10
45.763036387985039
 20
87.725826423187087
 30
0.0
  0
VERTEX
  5
14A9
  8
0
 10
47.693426693215088
 20
79.276575879164966
 30
0.0
  0
VERTEX
  5
14AA
  8
0
 10
45.763036387985039
 20
70.827325335143769
 30
0.0
  0
SEQEND
  5
14AB
  8
0
  0
POLYLINE
  5
7D4
  8
0
 66
     1
 10
0.0
 20
0.0
 30
0.0
 70
     1
  0
VERTEX
  5
14AC
  8
0
 10
62.288858498113093
 20
121.2841210022959
 30
0.0
  0
VERTEX
  5
14AD
  8
0
 10
75.072367831123984
 20
125.43773497156801
 30
0.0
  0
VERTEX
  5
14AE
  8
0
 10
79.531960971333092
 20
117.30626260542
 30
0.0
  0
VERTEX
  5
14AF
  8
0
 10
72.092769593725052
 20
112.8593903188041
 30
0.0
  0
VERTEX
  5
14B0
  8
0
 10
63.46053139593095
 20
112.0843385897508
 30
0.0
  0
SEQEND
  5
14B1
  8
0
  0
POLYLINE
  5
7D5
  8
0
 66
     1
 10
0.0
 20
0.0
 30
0.0
 70
     1
  0
VERTEX
  5
14B2
  8
0
 10
116.55455558459509
 20
111.9593551276336
 30
0.0
  0
VERTEX
  5
14B3
  8
0
 10
124.45519884789699
 20
101.0850525799308
 30
0.0
  0
VERTEX
  5
14B4
  8
0
 10
118.099799135319
 20
94.330964313479626
 30
0.0
  0
VERTEX
  5
14B5
  8
0
 10
111.5717357099131
 20
100.03189664074191
 30
0.0
  0
VERTEX
  5
14B6
  8
0
 10
108.167109409921
 20
108.0021388731686
 30
0.0
  0
SEQEND
  5
14B7
  8
0
  0
POLYLINE
  5
7D6
  8
0
 66
     1
 10
0.0
 20
0.0
 30
0.0
 70
     1
  0
VERTEX
  5
14B8
  8
0
 10
124.4551988478979
 20
57.468099178396869
 30
0.0
  0
VERTEX
  5
14B9
  8
0
 10
116.55455558459509
 20
46.593796630695799
 30
0.0
  0
VERTEX
  5
14BA
  8
0
 10
108.167109409921
 20
50.551012885159928
 30
0.0
  0
VERTEX
  5
14BB
  8
0
 10
111.5717357099131
 20
58.521255117587089
 30
0.0
  0
VERTEX
  5
14BC
  8
0
 10
118.0997991353201
 20
64.222187444849851
 30
0.0
  0
SEQEND
  5
14BD
  8
0
  0
POLYLINE
  5
7D7
  8
0
 66
     1
 10
0.0
 20
0.0
 30
0.0
 70
     1
  0
VERTEX
  5
14BE
  8
0
 10
75.072367831123074
 20
33.115416786760761
 30
0.0
  0
VERTEX
  5
14BF
  8
0
 10
62.28885849811217
 20
37.269030756034681
 30
0.0
  0
VERTEX
  5
14C0
  8
0
 10
63.460531395930047
 20
46.468813168578663
 30
0.0
  0
VERTEX
  5
14C1
  8
0
 10
72.092769593724142
 20
45.693761439525808
 30
0.0
  0
VERTEX
  5
14C2
  8
0
 10
79.531960971333092
 20
41.246889152910853
 30
0.0
  0
SEQEND
  5
14C3
  8
0
  0
CIRCLE
  5
FA8
  8
0
 10
63.251198555724159
 20
79.276575879169059
 30
0.0
 40
1.5
  0
POLYLINE
  5
103D
  8
0
 66
     1
 10
0.0
 20
0.0
 30
0.0
 70
     1
  0
VERTEX
  5
14C4
  8
0
 10
67.251198555720975
 20
67.831141534187054
 30
0.0
  0
VERTEX
  5
14C5
  8
0
 10
89.021708386967035
 20
60.757474092976963
 30
0.0
  0
VERTEX
  5
14C6
  8
0
 10
102.4766234150961
 20
79.276575879159964
 30
0.0
  0
VERTEX
  5
14C7
  8
0
 10
89.021708386977025
 20
97.795677665350695
 30
0.0
  0
VERTEX
  5
14C8
  8
0
 10
67.251198555726887
 20
90.722010224151987
 30
0.0
  0
SEQEND
  5
14C9
  8
0
  0
CIRCLE
  5
1044
  8
0
 10
76.900385493843942
 20
60.490081748400598
 30
0.0
 40
1.4999999999999989
  0
CIRCLE
  5
1045
  8
0
 10
98.985233878530835
 20
67.665883976898613
 30
0.0
 40
1.5
  0
CIRCLE
  5
1046
  8
0
 10
98.985233878536064
 20
90.887267781424953
 30
0.0
 40
1.4999999999999989
  0
CIRCLE
  5
1047
  8
0
 10
76.9003854938519
 20
98.063070009931153
 30
0.0
 40
1.4999999999999989
  0
POLYLINE
  5
10CC
  8
0
 66
     1
 10
0.0
 20
0.0
 30
0.0
  0
VERTEX
  5
14CA
  8
0
 10
60.398049638975181
 20
148.85203739541089
 30
0.0
  0
VERTEX
  5
14CB
  8
0
 10
75.334392227390708
 20
143.99892549875111
 30
0.0
  0
VERTEX
  5
14CC
  8
0
 10
74.561849741455944
 20
141.6212842080219
 30
0.0
  0
VERTEX
  5
14CD
  8
0
 10
77.405508725178152
 20
140.69732339484079
 30
0.0
  0
VERTEX
  5
14CE
  8
0
 10
78.178051211112688
 20
143.0749646855713
 30
0.0
  0
VERTEX
  5
14CF
  8
0
 10
91.692564307669954
 20
138.68383319550981
 30
0.0
  0
VERTEX
  5
14D0
  8
0
 10
90.920021821733144
 20
136.3061919047698
 30
0.0
  0
VERTEX
  5
14D1
  8
0
 10
93.763680805453745
 20
135.38223109158949
 30
0.0
  0
VERTEX
  5
14D2
  8
0
 10
94.536223291391025
 20
137.75987238232781
 30
0.0
  0
VERTEX
  5
14D3
  8
0
 10
108.050736387944
 20
133.36874089225401
 30
0.0
  0
VERTEX
  5
14D4
  8
0
 10
107.2781939020069
 20
130.99109960152029
 30
0.0
  0
VERTEX
  5
14D5
  8
0
 10
110.12185288572999
 20
130.06713878833779
 30
0.0
  0
VERTEX
  5
14D6
  8
0
 10
110.89439537166641
 20
132.44478007907281
 30
0.0
  0
VERTEX
  5
14D7
  8
0
 10
124.4089084682216
 20
128.0536485890045
 30
0.0
  0
VERTEX
  5
14D8
  8
0
 10
123.6363659822848
 20
125.67600729826771
 30
0.0
  0
VERTEX
  5
14D9
  8
0
 10
126.4800249660056
 20
124.7520464850865
 30
0.0
  0
VERTEX
  5
14DA
  8
0
 10
127.252567451944
 20
127.1296877758257
 30
0.0
  0
VERTEX
  5
14DB
  8
0
 10
142.18891004035891
 20
122.27657587916489
 30
0.0
  0
SEQEND
  5
14DC
  8
0
  0
POLYLINE
  5
10D5
  8
0
 66
     1
 10
0.0
 20
0.0
 30
0.0
  0
VERTEX
  5
14E0
  8
0
 10
60.398049638975181
 20
148.85203739541089
 30
0.0
  0
VERTEX
  5
14E1
  8
0
 10
51.166882251721063
 20
136.146425498752
 30
0.0
  0
VERTEX
  5
14E2
  8
0
 10
53.189424737651052
 20
134.6769623680263
 30
0.0
  0
VERTEX
  5
14E3
  8
0
 10
51.431946833296251
 20
132.25800155484529
 30
0.0
  0
VERTEX
  5
14E4
  8
0
 10
49.409404347365808
 20
133.72746468557281
 30
0.0
  0
VERTEX
  5
14E5
  8
0
 10
41.056975912282041
 20
122.231333195509
 30
0.0
  0
VERTEX
  5
14E6
  8
0
 10
43.079518398220209
 20
120.76187006477559
 30
0.0
  0
VERTEX
  5
14E7
  8
0
 10
41.32204049386678
 20
118.3429092515964
 30
0.0
  0
VERTEX
  5
14E8
  8
0
 10
39.29949800792906
 20
119.81237238232799
 30
0.0
  0
VERTEX
  5
14E9
  8
0
 10
30.947069572856211
 20
108.3162408922569
 30
0.0
  0
VERTEX
  5
14EA
  8
0
 10
32.969612058790752
 20
106.8467777615289
 30
0.0
  0
VERTEX
  5
14EB
  8
0
 10
31.212134154436399
 20
104.4278169483466
 30
0.0
  0
VERTEX
  5
14EC
  8
0
 10
29.189591668501858
 20
105.8972800790763
 30
0.0
  0
VERTEX
  5
14ED
  8
0
 10
20.837163233423549
 20
94.401148589008457
 30
0.0
  0
VERTEX
  5
14EE
  8
0
 10
22.85970571935945
 20
92.931685458277343
 30
0.0
  0
VERTEX
  5
14EF
  8
0
 10
21.102227815006469
 20
90.512724645097251
 30
0.0
  0
VERTEX
  5
14F0
  8
0
 10
19.079685329067839
 20
91.982187775829274
 30
0.0
  0
VERTEX
  5
14F1
  8
0
 10
9.8485179418146345
 20
79.276575879169954
 30
0.0
  0
SEQEND
  5
14F2
  8
0
  0
POLYLINE
  5
10D6
  8
0
 66
     1
 10
0.0
 20
0.0
 30
0.0
  0
VERTEX
  5
14F3
  8
0
 10
142.1889100403553
 20
36.276575879164511
 30
0.0
  0
VERTEX
  5
14F4
  8
0
 10
142.18891004035481
 20
51.981575879164893
 30
0.0
  0
VERTEX
  5
14F5
  8
0
 10
139.68891004036391
 20
51.981575879164893
 30
0.0
  0
VERTEX
  5
14F6
  8
0
 10
139.68891004036391
 20
54.97157587916422
 30
0.0
  0
VERTEX
  5
14F7
  8
0
 10
142.18891004035621
 20
54.97157587916422
 30
0.0
  0
VERTEX
  5
14F8
  8
0
 10
142.18891004036391
 20
69.181575879165166
 30
0.0
  0
VERTEX
  5
14F9
  8
0
 10
139.68891004036209
 20
69.181575879166076
 30
0.0
  0
VERTEX
  5
14FA
  8
0
 10
139.68891004036209
 20
72.171575879164024
 30
0.0
  0
VERTEX
  5
14FB
  8
0
 10
142.18891004036249
 20
72.171575879164024
 30
0.0
  0
VERTEX
  5
14FC
  8
0
 10
142.18891004035751
 20
86.381575879164515
 30
0.0
  0
VERTEX
  5
14FD
  8
0
 10
139.68891004036161
 20
86.38157587916362
 30
0.0
  0
VERTEX
  5
14FE
  8
0
 10
139.6889100403603
 20
89.371575879164766
 30
0.0
  0
VERTEX
  5
14FF
  8
0
 10
142.18891004035751
 20
89.371575879164766
 30
0.0
  0
VERTEX
  5
1500
  8
0
 10
142.188910040358
 20
103.5815758791657
 30
0.0
  0
VERTEX
  5
1501
  8
0
 10
139.6889100403593
 20
103.5815758791657
 30
0.0
  0
VERTEX
  5
1502
  8
0
 10
139.68891004035891
 20
106.5715758791646
 30
0.0
  0
VERTEX
  5
1503
  8
0
 10
142.18891004036021
 20
106.571575879165
 30
0.0
  0
VERTEX
  5
1504
  8
0
 10
142.18891004035891
 20
122.27657587916489
 30
0.0
  0
SEQEND
  5
1505
  8
0
  0
POLYLINE
  5
10D7
  8
0
 66
     1
 10
0.0
 20
0.0
 30
0.0
  0
VERTEX
  5
1506
  8
0
 10
142.1889100403553
 20
36.276575879164511
 30
0.0
  0
VERTEX
  5
1507
  8
0
 10
127.252567451939
 20
31.423463982506071
 30
0.0
  0
VERTEX
  5
1508
  8
0
 10
126.48002496600451
 20
33.80110527323518
 30
0.0
  0
VERTEX
  5
1509
  8
0
 10
123.6363659822821
 20
32.877144460053842
 30
0.0
  0
VERTEX
  5
150A
  8
0
 10
124.408908468218
 20
30.499503169323589
 30
0.0
  0
VERTEX
  5
150B
  8
0
 10
110.8943953716655
 20
26.108371679247512
 30
0.0
  0
VERTEX
  5
150C
  8
0
 10
110.1218528857259
 20
28.48601296998709
 30
0.0
  0
VERTEX
  5
150D
  8
0
 10
107.2781939020058
 20
27.562052156806431
 30
0.0
  0
VERTEX
  5
150E
  8
0
 10
108.0507363879435
 20
25.18441086606822
 30
0.0
  0
VERTEX
  5
150F
  8
0
 10
94.536223291386946
 20
20.793279376004651
 30
0.0
  0
VERTEX
  5
1510
  8
0
 10
93.763680805451941
 20
23.17092066673877
 30
0.0
  0
VERTEX
  5
1511
  8
0
 10
90.920021821728142
 20
22.246959853558341
 30
0.0
  0
VERTEX
  5
1512
  8
0
 10
91.692564307664952
 20
19.869318562823761
 30
0.0
  0
VERTEX
  5
1513
  8
0
 10
78.178051211110187
 20
15.47818707275405
 30
0.0
  0
VERTEX
  5
1514
  8
0
 10
77.405508725172453
 20
17.855828363490438
 30
0.0
  0
VERTEX
  5
1515
  8
0
 10
74.561849741451397
 20
16.931867550310699
 30
0.0
  0
VERTEX
  5
1516
  8
0
 10
75.334392227389117
 20
14.554226259571349
 30
0.0
  0
VERTEX
  5
1517
  8
0
 10
60.398049638972452
 20
9.7011143629135859
 30
0.0
  0
SEQEND
  5
1518
  8
0
  0
POLYLINE
  5
10D8
  8
0
 66
     1
 10
0.0
 20
0.0
 30
0.0
  0
VERTEX
  5
1519
  8
0
 10
60.398049638889013
 20
9.7011143628667469
 30
0.0
  0
VERTEX
  5
151A
  8
0
 10
51.166882251650577
 20
22.406726259536981
 30
0.0
  0
VERTEX
  5
151B
  8
0
 10
53.189424737582378
 20
23.876189390260379
 30
0.0
  0
VERTEX
  5
151C
  8
0
 10
51.431946833230541
 20
26.295150203443661
 30
0.0
  0
VERTEX
  5
151D
  8
0
 10
49.409404347298278
 20
24.825687072718441
 30
0.0
  0
VERTEX
  5
151E
  8
0
 10
41.056975912228843
 20
36.321818562792721
 30
0.0
  0
VERTEX
  5
151F
  8
0
 10
43.079518398168823
 20
37.791281693523388
 30
0.0
  0
VERTEX
  5
1520
  8
0
 10
41.322040493818349
 20
40.210242506704837
 30
0.0
  0
VERTEX
  5
1521
  8
0
 10
39.29949800787881
 20
38.74077937597599
 30
0.0
  0
VERTEX
  5
1522
  8
0
 10
30.947069572820279
 20
50.23691086605708
 30
0.0
  0
VERTEX
  5
1523
  8
0
 10
32.969612058756638
 20
51.706373996782759
 30
0.0
  0
VERTEX
  5
1524
  8
0
 10
31.212134154405248
 20
54.125334809967399
 30
0.0
  0
VERTEX
  5
1525
  8
0
 10
29.189591668468889
 20
52.655871679239908
 30
0.0
  0
VERTEX
  5
1526
  8
0
 10
20.837163233404912
 20
64.152003169318263
 30
0.0
  0
VERTEX
  5
1527
  8
0
 10
22.859705719342632
 20
65.621466300047132
 30
0.0
  0
VERTEX
  5
1528
  8
0
 10
21.102227814992599
 20
68.040427113229043
 30
0.0
  0
VERTEX
  5
1529
  8
0
 10
19.07968532905215
 20
66.570963982499734
 30
0.0
  0
VERTEX
  5
152A
  8
0
 10
9.8485179418146345
 20
79.276575879170423
 30
0.0
  0
SEQEND
  5
152B
  8
0
  0
ENDSEC
  0
EOF
