<?xml version="1.0" encoding="UTF-8" standalone="no"?>
<!-- Created with Inkscape (http://www.inkscape.org/) -->

<svg
   xmlns:dc="http://purl.org/dc/elements/1.1/"
   xmlns:cc="http://creativecommons.org/ns#"
   xmlns:rdf="http://www.w3.org/1999/02/22-rdf-syntax-ns#"
   xmlns:svg="http://www.w3.org/2000/svg"
   xmlns="http://www.w3.org/2000/svg"
   xmlns:sodipodi="http://sodipodi.sourceforge.net/DTD/sodipodi-0.dtd"
   xmlns:inkscape="http://www.inkscape.org/namespaces/inkscape"
   width="210mm"
   height="297mm"
   viewBox="0 0 210 297"
   version="1.1"
   id="svg2338"
   inkscape:version="0.92.2 5c3e80d, 2017-08-06"
   sodipodi:docname="stars2.svg">
  <defs
     id="defs2332" />
  <sodipodi:namedview
     id="base"
     pagecolor="#ffffff"
     bordercolor="#666666"
     borderopacity="1.0"
     inkscape:pageopacity="0.0"
     inkscape:pageshadow="2"
     inkscape:zoom="0.49497475"
     inkscape:cx="125.64482"
     inkscape:cy="580.39487"
     inkscape:document-units="mm"
     inkscape:current-layer="layer1"
     showgrid="false"
     inkscape:window-width="1680"
     inkscape:window-height="1005"
     inkscape:window-x="0"
     inkscape:window-y="1"
     inkscape:window-maximized="1" />
  <metadata
     id="metadata2335">
    <rdf:RDF>
      <cc:Work
         rdf:about="">
        <dc:format>image/svg+xml</dc:format>
        <dc:type
           rdf:resource="http://purl.org/dc/dcmitype/StillImage" />
        <dc:title></dc:title>
      </cc:Work>
    </rdf:RDF>
  </metadata>
  <g
     inkscape:label="Layer 1"
     inkscape:groupmode="layer"
     id="layer1">
    <path
       id="path6217"
       style="fill:none;fill-rule:evenodd;stroke:#000000;stroke-width:0.26458332"
       d="m 110.70857,147.65061 c 0,0 0,0 0,0 0,0 0,0 0,0 0,0 0,0 0,0 1e-5,1e-5 3e-5,0 3e-5,-1e-5 2.5e-4,-1.3e-4 -1e-5,-5.3e-4 -9e-5,-7.9e-4 -0.003,-0.004 -0.01,-3e-5 -0.0124,0.001 -0.043,0.0306 10e-4,0.10992 0.0225,0.13661 0.29224,0.36267 0.94029,-0.0129 1.17912,-0.22666 2.46545,-2.20606 -0.14496,-6.54273 -1.81335,-8.23667 -13.819679,-14.03128 -38.390035,1.2671 -48.360037,11.9967 -9.397981,10.11453 -15.767434,22.79822 -19.666399,35.96494 m 68.320966,-40.20627 c 0,0 0,0 0,0 0,0 0,0 0,0 0,0 0,0 0,0 -1e-5,-1e-5 10e-6,-2e-5 2e-5,-2e-5 2.3e-4,-1.5e-4 5.3e-4,2.6e-4 5.3e-4,5.3e-4 0.002,0.004 -0.005,0.009 -0.007,0.01 -0.048,0.022 -0.0946,-0.0558 -0.10704,-0.0878 -0.16796,-0.43442 0.48135,-0.80784 0.78585,-0.90782 3.14324,-1.0321 5.5937,3.39693 6.2265,5.68877 5.24161,18.98383 -20.292357,32.61319 -34.569458,35.88267 -13.458434,3.08162 -27.627556,2.25589 -40.979751,-0.95087"
       inkscape:connector-curvature="0" />
    <path
       id="path6225"
       style="fill:none;fill-rule:evenodd;stroke:#000000;stroke-width:0.26458332"
       d="m 110.25368,147.78005 c 0,0 0,0 0,0 0,0 0,0 0,0 0,0 0,0 0,0 0,1e-5 2e-5,2e-5 2e-5,2e-5 2.4e-4,1.5e-4 5.3e-4,-2.6e-4 5.3e-4,-5.3e-4 0.002,-0.004 -0.005,-0.009 -0.007,-0.01 -0.048,-0.022 -0.0947,0.0558 -0.10703,0.0878 -0.16797,0.43443 0.48135,0.80784 0.78584,0.90782 3.14325,1.0321 5.59371,-3.39693 6.22651,-5.68876 5.24174,-18.98376 -20.292223,-32.61312 -34.569325,-35.8826 -13.458433,-3.08162 -27.627555,-2.25589 -40.979751,0.95087 m 68.980186,39.06454 c 0,0 0,0 0,0 0,0 0,0 0,0 0,0 0,0 0,0 0,-1e-5 2e-5,0 3e-5,0 2.5e-4,1.3e-4 -1e-5,5.3e-4 -9e-5,8e-4 -0.003,0.004 -0.01,3e-5 -0.0124,-0.001 -0.043,-0.0306 10e-4,-0.10984 0.0225,-0.13661 0.29224,-0.36267 0.94029,0.0129 1.17912,0.22666 2.46544,2.20608 -0.14497,6.54275 -1.81337,8.23669 -13.819654,14.0312 -38.390008,-1.26719 -48.360011,-11.99678 -9.397982,-10.11453 -15.767435,-22.79822 -19.6664,-35.96494"
       inkscape:connector-curvature="0" />
    <path
       id="path8166"
       style="fill:none;fill-rule:evenodd;stroke:#000000;stroke-width:0.26458332"
       d="m 110.48435,146.86269 c 0,0 0,0 0,0 0,0 0,0 0,0 0,0 0,0 0,0 0,-10e-6 -2e-5,-2e-5 -2e-5,-2e-5 -2.4e-4,-1.5e-4 -5.3e-4,2.6e-4 -5.3e-4,5.3e-4 -0.002,0.004 0.005,0.009 0.007,0.01 0.048,0.022 0.0947,-0.0558 0.10704,-0.0878 0.16796,-0.43442 -0.48136,-0.80784 -0.78585,-0.90782 -3.14324,-1.03211 -5.59371,3.39693 -6.22651,5.68877 -5.241602,18.98383 20.29236,32.61319 34.56947,35.88267 13.45823,3.08195 27.62736,2.25622 40.97955,-0.95054 m -68.98013,-39.06497 c 0,0 0,0 0,0 0,0 0,0 0,0 0,0 0,0 0,0 0,10e-6 -2e-5,0 -3e-5,-1e-5 -2.4e-4,-1.3e-4 10e-6,-5.3e-4 9e-5,-7.9e-4 0.003,-0.004 0.01,-3e-5 0.0124,0.001 0.043,0.0306 -0.001,0.10983 -0.0225,0.1366 -0.29224,0.36267 -0.94028,-0.0129 -1.17912,-0.22665 -2.46544,-2.20608 0.14498,-6.54276 1.81337,-8.2367 13.81968,-14.03128 38.39003,1.26711 48.36003,11.9967 9.39818,10.11419 15.76763,22.7979 19.66659,35.96462 m -68.55184,-39.28855 c 0,0 0,0 0,0 0,0 0,0 0,0 0,0 0,0 0,0 0,1e-5 2e-5,2e-5 2e-5,2e-5 2.4e-4,1.5e-4 5.3e-4,-2.6e-4 5.3e-4,-5.3e-4 0.002,-0.004 -0.005,-0.009 -0.007,-0.01 -0.048,-0.022 -0.0947,0.0558 -0.10703,0.0878 -0.16797,0.43443 0.48135,0.80784 0.78584,0.90782 3.14325,1.0321 5.59371,-3.39693 6.22651,-5.68876 5.24174,-18.98376 -20.292223,-32.61312 -34.569325,-35.8826 -13.458433,-3.08162 -27.627555,-2.25589 -40.979751,0.95087 m 68.980186,39.06454 c 0,0 0,0 0,0 0,0 0,0 0,0 0,0 0,0 0,0 0,-1e-5 2e-5,0 3e-5,0 2.5e-4,1.3e-4 -1e-5,5.3e-4 -9e-5,8e-4 -0.003,0.004 -0.01,3e-5 -0.0124,-0.001 -0.043,-0.0306 10e-4,-0.10984 0.0225,-0.13661 0.29224,-0.36267 0.94029,0.0129 1.17912,0.22666 2.46544,2.20608 -0.14497,6.54275 -1.81337,8.23669 -13.819654,14.0312 -38.390008,-1.26719 -48.360011,-11.99678 -9.397982,-10.11453 -15.767435,-22.79822 -19.6664,-35.96494 m 68.775881,40.07688 c 0,0 0,0 0,0 0,0 0,0 0,0 0,0 0,0 0,0 10e-6,0 3e-5,-1e-5 3e-5,-1e-5 2.5e-4,-1.3e-4 0,-5.3e-4 -8e-5,-7.9e-4 -0.003,-0.004 -0.01,3e-5 -0.0122,0.001 -0.043,0.0306 0.001,0.10993 0.0225,0.13661 0.29224,0.36266 0.94028,-0.0129 1.17912,-0.22666 2.46544,-2.20608 -0.14497,-6.54276 -1.81337,-8.2367 -13.819686,-14.0313 -38.390038,1.26707 -48.360045,11.99667 -9.397981,10.11453 -15.767432,22.79822 -19.666395,35.96494 m 68.32097,-40.20633 c 0,0 0,0 0,0 0,0 0,0 0,0 0,0 0,0 0,0 -1e-5,0 2e-5,-2e-5 2e-5,-2e-5 2.4e-4,-1.5e-4 5.3e-4,2.7e-4 5.3e-4,5.3e-4 0.002,0.005 -0.005,0.009 -0.007,0.01 -0.048,0.0219 -0.0946,-0.0558 -0.10706,-0.0878 -0.16796,-0.43442 0.48136,-0.80783 0.78586,-0.90782 3.14324,-1.03209 5.5937,3.39693 6.2265,5.68877 5.24161,18.98383 -20.292361,32.61319 -34.569463,35.88267 -13.458431,3.08162 -27.627552,2.25588 -40.97975,-0.95087 m 68.185713,-39.26397 c 0,0 0,0 0,0 0,0 0,0 0,0 0,0 0,0 0,0 -1e-5,0 -1e-5,2e-5 -1e-5,3e-5 -10e-6,2.6e-4 5.3e-4,2.6e-4 8e-4,2.6e-4 0.005,-5.3e-4 0.005,-0.009 0.005,-0.0114 -0.005,-0.0526 -0.0956,-0.0541 -0.12956,-0.0488 -0.4602,0.0717 -0.45893,0.82079 -0.39327,1.13448 0.6778,3.23817 5.73868,3.14583 8.03988,2.54792 19.06124,-4.95246 18.09763,-33.8802 13.79053,-47.87927 -4.06013,-13.196123 -11.85981,-25.054072 -21.31304,-35.014041 m 0.65882,79.270871 c 0,0 0,0 0,0 0,0 0,0 0,0 0,0 0,0 0,0 1e-5,0 1e-5,2e-5 1e-5,3e-5 1e-5,2.7e-4 -5.3e-4,2.7e-4 -7.9e-4,2.7e-4 -0.005,-5.3e-4 -0.005,-0.009 -0.005,-0.0111 0.005,-0.0525 0.0956,-0.0541 0.12957,-0.0488 0.4602,0.0717 0.45893,0.82078 0.39327,1.13447 -0.6778,3.23818 -5.73868,3.14582 -8.03987,2.54793 C 83.989276,146.12084 84.952883,117.19311 89.259982,103.19403 93.320053,89.997882 101.11972,78.139932 110.57295,68.179964 m 0.25097,79.011946 c 0,0 0,0 0,0 0,0 0,0 0,0 0,0 0,0 0,0 1e-5,0 1e-5,-2e-5 1e-5,-2e-5 10e-6,-2.7e-4 -5.3e-4,-2.7e-4 -7.9e-4,-2.7e-4 -0.005,5.3e-4 -0.005,0.009 -0.005,0.0114 0.005,0.0525 0.0956,0.0541 0.12955,0.0488 0.4602,-0.0718 0.45893,-0.82079 0.39327,-1.13447 -0.6778,-3.23818 -5.73868,-3.14583 -8.03987,-2.54794 -19.061277,4.95256 -18.097664,33.8803 -13.790568,47.87938 4.060068,13.19615 11.859738,25.0541 21.312978,35.01406 m -0.65873,-79.27099 c 0,0 0,0 0,0 0,0 0,0 0,0 0,0 0,0 0,0 -1e-5,0 -1e-5,-2e-5 -1e-5,-3e-5 -1e-5,-2.6e-4 5.3e-4,-2.6e-4 8e-4,-2.6e-4 0.005,5.2e-4 0.005,0.009 0.005,0.0111 -0.005,0.0525 -0.0957,0.0541 -0.12958,0.0488 -0.4602,-0.0717 -0.45893,-0.82078 -0.39327,-1.13448 0.6778,-3.23817 5.73868,-3.14582 8.03987,-2.54792 19.06128,4.95254 18.09767,33.8803 13.79057,47.87937 -4.06007,13.19614 -11.85974,25.05409 -21.31297,35.01406 m 0.31908,-79.59978 c 0,0 0,0 0,0 0,0 0,0 0,0 0,0 0,0 0,0 0,-1e-5 -2e-5,-2e-5 -3e-5,-2e-5 -2.3e-4,-1.5e-4 -5.2e-4,2.6e-4 -5.2e-4,5.3e-4 -0.002,0.004 0.005,0.009 0.007,0.01 0.048,0.022 0.0947,-0.0558 0.10703,-0.0878 0.16797,-0.43442 -0.48135,-0.80784 -0.78585,-0.90782 -3.14323,-1.03211 -5.5937,3.39693 -6.2265,5.68877 -5.241604,18.98382 20.29236,32.61318 34.56946,35.88266 13.45824,3.08195 27.62737,2.25622 40.97957,-0.95054 m -68.98025,-39.06502 c 0,0 0,0 0,0 0,0 0,0 0,0 0,0 0,0 0,0 0,1e-5 -2e-5,0 -3e-5,-1e-5 -2.4e-4,-1.3e-4 1e-5,-5.3e-4 9e-5,-7.9e-4 0.003,-0.004 0.01,-3e-5 0.0124,0.001 0.043,0.0306 -0.001,0.10983 -0.0225,0.1366 -0.29224,0.36267 -0.94028,-0.0129 -1.17912,-0.22665 -2.46544,-2.20608 0.14498,-6.54276 1.81337,-8.2367 13.81968,-14.03128 38.39003,1.26711 48.36003,11.9967 9.39818,10.11419 15.76763,22.7979 19.66659,35.96462 M 110.02894,146.9918 c 0,0 0,0 0,0 0,0 0,0 0,0 0,0 0,0 0,0 0,-1e-5 -3e-5,10e-6 -3e-5,0 -2.5e-4,1.4e-4 1e-5,5.3e-4 9e-5,8e-4 0.003,0.004 0.01,-3e-5 0.0122,-0.001 0.043,-0.0306 -0.001,-0.10993 -0.0225,-0.13661 -0.29224,-0.36267 -0.94029,0.0129 -1.17912,0.22666 -2.46545,2.20606 0.14497,6.54275 1.81336,8.23669 13.81968,14.03128 38.39003,-1.26711 48.36003,-11.9967 9.39817,-10.1142 15.76763,-22.7979 19.66659,-35.96461 m -68.32116,40.206 c 0,0 0,0 0,0 0,0 0,0 0,0 0,0 0,0 0,0 1e-5,1e-5 -1e-5,2e-5 -2e-5,2e-5 -2.3e-4,1.5e-4 -5.3e-4,-2.6e-4 -5.3e-4,-5.2e-4 -0.002,-0.005 0.005,-0.009 0.007,-0.01 0.048,-0.0219 0.0946,0.0558 0.10705,0.0878 0.16797,0.43441 -0.48135,0.80783 -0.78584,0.90782 -3.14324,1.03209 -5.59371,-3.39694 -6.22651,-5.68878 -5.241607,-18.98383 20.29236,-32.61319 34.56946,-35.88266 13.45823,-3.08196 27.62737,-2.25622 40.97956,0.95054 m -69.09539,39.52362 c 0,0 0,0 0,0 0,0 0,0 0,0 0,0 0,0 0,0 -1e-5,0 -1e-5,3e-5 -1e-5,3e-5 -10e-6,2.6e-4 5.3e-4,2.6e-4 7.9e-4,2.6e-4 0.005,-5.3e-4 0.005,-0.009 0.005,-0.0114 -0.005,-0.0525 -0.0956,-0.0541 -0.12955,-0.0488 -0.4602,0.0718 -0.45893,0.82079 -0.39327,1.13448 0.6778,3.23817 5.73868,3.14583 8.03987,2.54792 19.06135,-4.95271 18.09774,-33.88045 13.79064,-47.87952 -4.06013,-13.196123 -11.85981,-25.054072 -21.31304,-35.014041 m 0.65882,79.270871 c 0,0 0,0 0,0 0,0 0,0 0,0 0,0 0,0 0,0 1e-5,0 1e-5,2e-5 1e-5,3e-5 1e-5,2.7e-4 -5.3e-4,2.7e-4 -7.9e-4,2.7e-4 -0.005,-5.3e-4 -0.005,-0.009 -0.005,-0.0111 0.005,-0.0525 0.0956,-0.0541 0.12957,-0.0488 0.4602,0.0717 0.45893,0.82078 0.39327,1.13447 -0.6778,3.23818 -5.73868,3.14582 -8.03987,2.54793 C 83.989276,146.12084 84.952883,117.19311 89.259982,103.19403 93.320053,89.997882 101.11972,78.139932 110.57295,68.179964 m 0.25097,79.011946 c 0,0 0,0 0,0 0,0 0,0 0,0 0,0 0,0 0,0 1e-5,0 1e-5,-2e-5 1e-5,-2e-5 10e-6,-2.7e-4 -5.3e-4,-2.7e-4 -7.9e-4,-2.7e-4 -0.005,5.3e-4 -0.005,0.009 -0.005,0.0114 0.005,0.0525 0.0956,0.0541 0.12955,0.0488 0.4602,-0.0718 0.45893,-0.82079 0.39327,-1.13447 -0.6778,-3.23818 -5.73868,-3.14583 -8.03987,-2.54794 -19.061277,4.95256 -18.097664,33.8803 -13.790568,47.87938 4.060068,13.19615 11.859738,25.0541 21.312978,35.01406 m -0.65873,-79.27099 c 0,0 0,0 0,0 0,0 0,0 0,0 0,0 0,0 0,0 -1e-5,0 -1e-5,-2e-5 -1e-5,-3e-5 -1e-5,-2.6e-4 5.3e-4,-2.6e-4 8e-4,-2.6e-4 0.005,5.2e-4 0.005,0.009 0.005,0.0111 -0.005,0.0525 -0.0957,0.0541 -0.12958,0.0488 -0.4602,-0.0717 -0.45893,-0.82078 -0.39327,-1.13448 0.6778,-3.23817 5.73868,-3.14582 8.03987,-2.54792 19.06128,4.95254 18.09767,33.8803 13.79057,47.87937 -4.06007,13.19614 -11.85974,25.05409 -21.31297,35.01406"
       inkscape:connector-curvature="0" />
    <path
       inkscape:connector-curvature="0"
       d="m 110.48435,146.86269 c 0,0 0,0 0,0 0,0 0,0 0,0 0,0 0,0 0,0 0,-10e-6 -2e-5,-2e-5 -2e-5,-2e-5 -2.4e-4,-1.5e-4 -5.3e-4,2.6e-4 -5.3e-4,5.3e-4 -0.002,0.004 0.005,0.009 0.007,0.01 0.048,0.022 0.0947,-0.0558 0.10704,-0.0878 0.16796,-0.43442 -0.48136,-0.80784 -0.78585,-0.90782 -3.14324,-1.03211 -5.59371,3.39693 -6.22651,5.68877 -5.241602,18.98383 20.29236,32.61319 34.56947,35.88267 13.45823,3.08195 27.62736,2.25622 40.97955,-0.95054 m -68.98013,-39.06497 c 0,0 0,0 0,0 0,0 0,0 0,0 0,0 0,0 0,0 0,10e-6 -2e-5,0 -3e-5,-1e-5 -2.4e-4,-1.3e-4 10e-6,-5.3e-4 9e-5,-7.9e-4 0.003,-0.004 0.01,-3e-5 0.0124,0.001 0.043,0.0306 -0.001,0.10983 -0.0225,0.1366 -0.29224,0.36267 -0.94028,-0.0129 -1.17912,-0.22665 -2.46544,-2.20608 0.14498,-6.54276 1.81337,-8.2367 13.81968,-14.03128 38.39003,1.26711 48.36003,11.9967 9.39818,10.11419 15.76763,22.7979 19.66659,35.96462 m -68.55184,-39.28855 c 0,0 0,0 0,0 0,0 0,0 0,0 0,0 0,0 0,0 0,1e-5 2e-5,2e-5 2e-5,2e-5 2.4e-4,1.5e-4 5.3e-4,-2.6e-4 5.3e-4,-5.3e-4 0.002,-0.004 -0.005,-0.009 -0.007,-0.01 -0.048,-0.022 -0.0947,0.0558 -0.10703,0.0878 -0.16797,0.43443 0.48135,0.80784 0.78584,0.90782 3.14325,1.0321 5.59371,-3.39693 6.22651,-5.68876 5.24174,-18.98376 -20.292223,-32.61312 -34.569325,-35.8826 -13.458433,-3.08162 -27.627555,-2.25589 -40.979751,0.95087 m 68.980186,39.06454 c 0,0 0,0 0,0 0,0 0,0 0,0 0,0 0,0 0,0 0,-1e-5 2e-5,0 3e-5,0 2.5e-4,1.3e-4 -1e-5,5.3e-4 -9e-5,8e-4 -0.003,0.004 -0.01,3e-5 -0.0124,-0.001 -0.043,-0.0306 10e-4,-0.10984 0.0225,-0.13661 0.29224,-0.36267 0.94029,0.0129 1.17912,0.22666 2.46544,2.20608 -0.14497,6.54275 -1.81337,8.23669 -13.819654,14.0312 -38.390008,-1.26719 -48.360011,-11.99678 -9.397982,-10.11453 -15.767435,-22.79822 -19.6664,-35.96494 m 68.775881,40.07688 c 0,0 0,0 0,0 0,0 0,0 0,0 0,0 0,0 0,0 10e-6,0 3e-5,-1e-5 3e-5,-1e-5 2.5e-4,-1.3e-4 0,-5.3e-4 -8e-5,-7.9e-4 -0.003,-0.004 -0.01,3e-5 -0.0122,0.001 -0.043,0.0306 0.001,0.10993 0.0225,0.13661 0.29224,0.36266 0.94028,-0.0129 1.17912,-0.22666 2.46544,-2.20608 -0.14497,-6.54276 -1.81337,-8.2367 -13.819686,-14.0313 -38.390038,1.26707 -48.360045,11.99667 -9.397981,10.11453 -15.767432,22.79822 -19.666395,35.96494 m 68.32097,-40.20633 c 0,0 0,0 0,0 0,0 0,0 0,0 0,0 0,0 0,0 -1e-5,0 2e-5,-2e-5 2e-5,-2e-5 2.4e-4,-1.5e-4 5.3e-4,2.7e-4 5.3e-4,5.3e-4 0.002,0.005 -0.005,0.009 -0.007,0.01 -0.048,0.0219 -0.0946,-0.0558 -0.10706,-0.0878 -0.16796,-0.43442 0.48136,-0.80783 0.78586,-0.90782 3.14324,-1.03209 5.5937,3.39693 6.2265,5.68877 5.24161,18.98383 -20.292361,32.61319 -34.569463,35.88267 -13.458431,3.08162 -27.627552,2.25588 -40.97975,-0.95087 m 68.185713,-39.26397 c 0,0 0,0 0,0 0,0 0,0 0,0 0,0 0,0 0,0 -1e-5,0 -1e-5,2e-5 -1e-5,3e-5 -10e-6,2.6e-4 5.3e-4,2.6e-4 8e-4,2.6e-4 0.005,-5.3e-4 0.005,-0.009 0.005,-0.0114 -0.005,-0.0526 -0.0956,-0.0541 -0.12956,-0.0488 -0.4602,0.0717 -0.45893,0.82079 -0.39327,1.13448 0.6778,3.23817 5.73868,3.14583 8.03988,2.54792 19.06124,-4.95246 18.09763,-33.8802 13.79053,-47.87927 -4.06013,-13.196123 -11.85981,-25.054072 -21.31304,-35.014041 m 0.65882,79.270871 c 0,0 0,0 0,0 0,0 0,0 0,0 0,0 0,0 0,0 1e-5,0 1e-5,2e-5 1e-5,3e-5 1e-5,2.7e-4 -5.3e-4,2.7e-4 -7.9e-4,2.7e-4 -0.005,-5.3e-4 -0.005,-0.009 -0.005,-0.0111 0.005,-0.0525 0.0956,-0.0541 0.12957,-0.0488 0.4602,0.0717 0.45893,0.82078 0.39327,1.13447 -0.6778,3.23818 -5.73868,3.14582 -8.03987,2.54793 C 83.989276,146.12084 84.952883,117.19311 89.259982,103.19403 93.320053,89.997882 101.11972,78.139932 110.57295,68.179964 m 0.25097,79.011946 c 0,0 0,0 0,0 0,0 0,0 0,0 0,0 0,0 0,0 1e-5,0 1e-5,-2e-5 1e-5,-2e-5 10e-6,-2.7e-4 -5.3e-4,-2.7e-4 -7.9e-4,-2.7e-4 -0.005,5.3e-4 -0.005,0.009 -0.005,0.0114 0.005,0.0525 0.0956,0.0541 0.12955,0.0488 0.4602,-0.0718 0.45893,-0.82079 0.39327,-1.13447 -0.6778,-3.23818 -5.73868,-3.14583 -8.03987,-2.54794 -19.061277,4.95256 -18.097664,33.8803 -13.790568,47.87938 4.060068,13.19615 11.859738,25.0541 21.312978,35.01406 m -0.65873,-79.27099 c 0,0 0,0 0,0 0,0 0,0 0,0 0,0 0,0 0,0 -1e-5,0 -1e-5,-2e-5 -1e-5,-3e-5 -1e-5,-2.6e-4 5.3e-4,-2.6e-4 8e-4,-2.6e-4 0.005,5.2e-4 0.005,0.009 0.005,0.0111 -0.005,0.0525 -0.0957,0.0541 -0.12958,0.0488 -0.4602,-0.0717 -0.45893,-0.82078 -0.39327,-1.13448 0.6778,-3.23817 5.73868,-3.14582 8.03987,-2.54792 19.06128,4.95254 18.09767,33.8803 13.79057,47.87937 -4.06007,13.19614 -11.85974,25.05409 -21.31297,35.01406 m 0.31908,-79.59978 c 0,0 0,0 0,0 0,0 0,0 0,0 0,0 0,0 0,0 0,-1e-5 -2e-5,-2e-5 -3e-5,-2e-5 -2.3e-4,-1.5e-4 -5.2e-4,2.6e-4 -5.2e-4,5.3e-4 -0.002,0.004 0.005,0.009 0.007,0.01 0.048,0.022 0.0947,-0.0558 0.10703,-0.0878 0.16797,-0.43442 -0.48135,-0.80784 -0.78585,-0.90782 -3.14323,-1.03211 -5.5937,3.39693 -6.2265,5.68877 -5.241604,18.98382 20.29236,32.61318 34.56946,35.88266 13.45824,3.08195 27.62737,2.25622 40.97957,-0.95054 m -68.98025,-39.06502 c 0,0 0,0 0,0 0,0 0,0 0,0 0,0 0,0 0,0 0,1e-5 -2e-5,0 -3e-5,-1e-5 -2.4e-4,-1.3e-4 1e-5,-5.3e-4 9e-5,-7.9e-4 0.003,-0.004 0.01,-3e-5 0.0124,0.001 0.043,0.0306 -0.001,0.10983 -0.0225,0.1366 -0.29224,0.36267 -0.94028,-0.0129 -1.17912,-0.22665 -2.46544,-2.20608 0.14498,-6.54276 1.81337,-8.2367 13.81968,-14.03128 38.39003,1.26711 48.36003,11.9967 9.39818,10.11419 15.76763,22.7979 19.66659,35.96462 M 110.02894,146.9918 c 0,0 0,0 0,0 0,0 0,0 0,0 0,0 0,0 0,0 0,-1e-5 -3e-5,10e-6 -3e-5,0 -2.5e-4,1.4e-4 1e-5,5.3e-4 9e-5,8e-4 0.003,0.004 0.01,-3e-5 0.0122,-0.001 0.043,-0.0306 -0.001,-0.10993 -0.0225,-0.13661 -0.29224,-0.36267 -0.94029,0.0129 -1.17912,0.22666 -2.46545,2.20606 0.14497,6.54275 1.81336,8.23669 13.81968,14.03128 38.39003,-1.26711 48.36003,-11.9967 9.39817,-10.1142 15.76763,-22.7979 19.66659,-35.96461 m -68.32116,40.206 c 0,0 0,0 0,0 0,0 0,0 0,0 0,0 0,0 0,0 1e-5,1e-5 -1e-5,2e-5 -2e-5,2e-5 -2.3e-4,1.5e-4 -5.3e-4,-2.6e-4 -5.3e-4,-5.2e-4 -0.002,-0.005 0.005,-0.009 0.007,-0.01 0.048,-0.0219 0.0946,0.0558 0.10705,0.0878 0.16797,0.43441 -0.48135,0.80783 -0.78584,0.90782 -3.14324,1.03209 -5.59371,-3.39694 -6.22651,-5.68878 -5.241607,-18.98383 20.29236,-32.61319 34.56946,-35.88266 13.45823,-3.08196 27.62737,-2.25622 40.97956,0.95054 m -69.09539,39.52362 c 0,0 0,0 0,0 0,0 0,0 0,0 0,0 0,0 0,0 -1e-5,0 -1e-5,3e-5 -1e-5,3e-5 -10e-6,2.6e-4 5.3e-4,2.6e-4 7.9e-4,2.6e-4 0.005,-5.3e-4 0.005,-0.009 0.005,-0.0114 -0.005,-0.0525 -0.0956,-0.0541 -0.12955,-0.0488 -0.4602,0.0718 -0.45893,0.82079 -0.39327,1.13448 0.6778,3.23817 5.73868,3.14583 8.03987,2.54792 19.06135,-4.95271 18.09774,-33.88045 13.79064,-47.87952 -4.06013,-13.196123 -11.85981,-25.054072 -21.31304,-35.014041 m 0.65882,79.270871 c 0,0 0,0 0,0 0,0 0,0 0,0 0,0 0,0 0,0 1e-5,0 1e-5,2e-5 1e-5,3e-5 1e-5,2.7e-4 -5.3e-4,2.7e-4 -7.9e-4,2.7e-4 -0.005,-5.3e-4 -0.005,-0.009 -0.005,-0.0111 0.005,-0.0525 0.0956,-0.0541 0.12957,-0.0488 0.4602,0.0717 0.45893,0.82078 0.39327,1.13447 -0.6778,3.23818 -5.73868,3.14582 -8.03987,2.54793 C 83.989276,146.12084 84.952883,117.19311 89.259982,103.19403 93.320053,89.997882 101.11972,78.139932 110.57295,68.179964 m 0.25097,79.011946 c 0,0 0,0 0,0 0,0 0,0 0,0 0,0 0,0 0,0 1e-5,0 1e-5,-2e-5 1e-5,-2e-5 10e-6,-2.7e-4 -5.3e-4,-2.7e-4 -7.9e-4,-2.7e-4 -0.005,5.3e-4 -0.005,0.009 -0.005,0.0114 0.005,0.0525 0.0956,0.0541 0.12955,0.0488 0.4602,-0.0718 0.45893,-0.82079 0.39327,-1.13447 -0.6778,-3.23818 -5.73868,-3.14583 -8.03987,-2.54794 -19.061277,4.95256 -18.097664,33.8803 -13.790568,47.87938 4.060068,13.19615 11.859738,25.0541 21.312978,35.01406 m -0.65873,-79.27099 c 0,0 0,0 0,0 0,0 0,0 0,0 0,0 0,0 0,0 -1e-5,0 -1e-5,-2e-5 -1e-5,-3e-5 -1e-5,-2.6e-4 5.3e-4,-2.6e-4 8e-4,-2.6e-4 0.005,5.2e-4 0.005,0.009 0.005,0.0111 -0.005,0.0525 -0.0957,0.0541 -0.12958,0.0488 -0.4602,-0.0717 -0.45893,-0.82078 -0.39327,-1.13448 0.6778,-3.23817 5.73868,-3.14582 8.03987,-2.54792 19.06128,4.95254 18.09767,33.8803 13.79057,47.87937 -4.06007,13.19614 -11.85974,25.05409 -21.31297,35.01406"
       style="fill:none;fill-rule:evenodd;stroke:#000000;stroke-width:0.26458332"
       id="path8169" />
    <path
       id="path2895"
       style="fill:none;fill-rule:evenodd;stroke:#000000;stroke-width:0.26458332"
       d="m 198.68329,60.534633 c 0,0 0,0 0,0 0,0 0,0 0,0 0,0 0,0 0,0 0,-10e-6 -2e-5,-2e-5 -2e-5,-2e-5 -2.4e-4,-1.5e-4 -5.3e-4,2.6e-4 -5.3e-4,5.3e-4 -0.002,0.004 0.005,0.009 0.007,0.01 0.048,0.022 0.0947,-0.0558 0.10704,-0.0878 0.16796,-0.43442 -0.48136,-0.80784 -0.78585,-0.90782 -3.14324,-1.03211 -5.59371,3.39693 -6.22651,5.68877 -5.2416,18.98383 20.29236,32.61319 34.56947,35.882667 13.45823,3.08195 27.62736,2.25622 40.97955,-0.95054 M 198.35331,61.105453 c 0,0 0,0 0,0 0,0 0,0 0,0 0,0 0,0 0,0 0,1e-5 -2e-5,0 -3e-5,-10e-6 -2.4e-4,-1.3e-4 10e-6,-5.3e-4 9e-5,-7.9e-4 0.003,-0.004 0.01,-3e-5 0.0124,10e-4 0.043,0.0306 -0.001,0.10983 -0.0225,0.1366 -0.29224,0.36267 -0.94028,-0.0129 -1.17912,-0.22665 -2.46544,-2.20608 0.14498,-6.54276 1.81337,-8.2367 13.81968,-14.03128 38.39003,1.26711 48.36003,11.9967 9.39818,10.11419 15.76763,22.7979 19.66659,35.964617 M 198.4523,61.451673 c 0,0 0,0 0,0 0,0 0,0 0,0 0,0 0,0 0,0 0,1e-5 2e-5,2e-5 2e-5,2e-5 2.4e-4,1.5e-4 5.3e-4,-2.6e-4 5.3e-4,-5.3e-4 0.002,-0.004 -0.005,-0.009 -0.007,-0.01 -0.048,-0.022 -0.0947,0.0558 -0.10703,0.0878 -0.16797,0.43443 0.48135,0.80784 0.78584,0.90782 3.14325,1.0321 5.59371,-3.39693 6.22651,-5.68876 5.24174,-18.98376 -20.29222,-32.61312 -34.56932,-35.8826 -13.45843,-3.08162 -27.62756,-2.25589 -40.97975,0.95087 m 68.98018,39.06454 c 0,0 0,0 0,0 0,0 0,0 0,0 0,0 0,0 0,0 0,-1e-5 2e-5,0 3e-5,0 2.5e-4,1.3e-4 -1e-5,5.3e-4 -9e-5,8e-4 -0.003,0.004 -0.01,3e-5 -0.0124,-10e-4 -0.043,-0.0306 10e-4,-0.10984 0.0225,-0.13661 0.29224,-0.36267 0.94029,0.0129 1.17912,0.22666 2.46544,2.20608 -0.14497,6.54275 -1.81337,8.23669 -13.81965,14.0312 -38.39,-1.26719 -48.36001,-11.99678 -9.39798,-10.11453 -15.76743,-22.79822 -19.6664,-35.96494 m 68.77588,40.07688 c 0,0 0,0 0,0 0,0 0,0 0,0 0,0 0,0 0,0 10e-6,0 3e-5,-1e-5 3e-5,-1e-5 2.5e-4,-1.3e-4 0,-5.3e-4 -8e-5,-7.9e-4 -0.003,-0.004 -0.01,3e-5 -0.0122,10e-4 -0.043,0.0306 0.001,0.10993 0.0225,0.13661 0.29224,0.36266 0.94028,-0.0129 1.17912,-0.22666 2.46544,-2.20608 -0.14497,-6.54276 -1.81337,-8.2367 -13.81968,-14.0313 -38.39003,1.26707 -48.36004,11.99667 -9.39798,10.11453 -15.76743,22.79822 -19.6664,35.964937 m 68.32097,-40.206327 c 0,0 0,0 0,0 0,0 0,0 0,0 0,0 0,0 0,0 -1e-5,0 2e-5,-2e-5 2e-5,-2e-5 2.4e-4,-1.5e-4 5.3e-4,2.7e-4 5.3e-4,5.3e-4 0.002,0.005 -0.005,0.009 -0.007,0.01 -0.048,0.0219 -0.0946,-0.0558 -0.10706,-0.0878 -0.16796,-0.43442 0.48136,-0.80783 0.78586,-0.90782 3.14324,-1.03209 5.5937,3.39693 6.2265,5.68877 5.24161,18.98383 -20.29236,32.61319 -34.56946,35.882667 -13.45843,3.08162 -27.62755,2.25588 -40.97975,-0.95087 m 68.18571,-39.263967 c 0,0 0,0 0,0 0,0 0,0 0,0 0,0 0,0 0,0 -1e-5,0 -1e-5,2e-5 -1e-5,3e-5 -10e-6,2.6e-4 5.3e-4,2.6e-4 8e-4,2.6e-4 0.005,-5.3e-4 0.005,-0.009 0.005,-0.0114 -0.005,-0.0526 -0.0956,-0.0541 -0.12956,-0.0488 -0.4602,0.0717 -0.45893,0.82079 -0.39327,1.13448 0.6778,3.23817 5.73868,3.14583 8.03988,2.54792 19.06124,-4.95246 18.09763,-33.8802 13.79053,-47.87927 -4.06013,-13.1961234 -11.85981,-25.0540724 -21.31304,-35.014041 m 0.65882,79.270871 c 0,0 0,0 0,0 0,0 0,0 0,0 0,0 0,0 0,0 1e-5,0 1e-5,2e-5 1e-5,3e-5 1e-5,2.7e-4 -5.3e-4,2.7e-4 -7.9e-4,2.7e-4 -0.005,-5.3e-4 -0.005,-0.009 -0.005,-0.0111 0.005,-0.0525 0.0956,-0.0541 0.12957,-0.0488 0.4602,0.0717 0.45893,0.82078 0.39327,1.13447 -0.6778,3.23818 -5.73868,3.14582 -8.03987,2.54793 -19.06154,-4.95282 -18.09793,-33.88055 -13.79083,-47.87963 4.06007,-13.1961484 11.85973,-25.0540984 21.31296,-35.014066 m 0.25097,79.011946 c 0,0 0,0 0,0 0,0 0,0 0,0 0,0 0,0 0,0 1e-5,0 1e-5,-2e-5 1e-5,-2e-5 10e-6,-2.7e-4 -5.3e-4,-2.7e-4 -7.9e-4,-2.7e-4 -0.005,5.3e-4 -0.005,0.009 -0.005,0.0114 0.005,0.0525 0.0956,0.0541 0.12955,0.0488 0.4602,-0.0718 0.45893,-0.82079 0.39327,-1.13447 -0.6778,-3.23818 -5.73868,-3.14583 -8.03987,-2.54794 -19.06127,4.95256 -18.09766,33.8803 -13.79056,47.879377 4.06006,13.19615 11.85973,25.0541 21.31297,35.01406 m -0.65873,-79.270987 c 0,0 0,0 0,0 0,0 0,0 0,0 0,0 0,0 0,0 -1e-5,0 -1e-5,-2e-5 -1e-5,-3e-5 -1e-5,-2.6e-4 5.3e-4,-2.6e-4 8e-4,-2.6e-4 0.005,5.2e-4 0.005,0.009 0.005,0.0111 -0.005,0.0525 -0.0957,0.0541 -0.12958,0.0488 -0.4602,-0.0717 -0.45893,-0.82078 -0.39327,-1.13448 0.6778,-3.23817 5.73868,-3.14582 8.03987,-2.54792 19.06128,4.95254 18.09767,33.8803 13.79057,47.879367 -4.06007,13.19614 -11.85974,25.05409 -21.31297,35.01406 m 0.31908,-79.599777 c 0,0 0,0 0,0 0,0 0,0 0,0 0,0 0,0 0,0 0,-1e-5 -2e-5,-2e-5 -3e-5,-2e-5 -2.3e-4,-1.5e-4 -5.2e-4,2.6e-4 -5.2e-4,5.3e-4 -0.002,0.004 0.005,0.009 0.007,0.01 0.048,0.022 0.0947,-0.0558 0.10703,-0.0878 0.16797,-0.43442 -0.48135,-0.80784 -0.78585,-0.90782 -3.14323,-1.03211 -5.5937,3.39693 -6.2265,5.68877 -5.2416,18.98382 20.29236,32.61318 34.56946,35.882657 13.45824,3.08195 27.62737,2.25622 40.97957,-0.95054 M 198.35311,61.105423 c 0,0 0,0 0,0 0,0 0,0 0,0 0,0 0,0 0,0 0,10e-6 -2e-5,0 -3e-5,-1e-5 -2.4e-4,-1.3e-4 1e-5,-5.3e-4 9e-5,-7.9e-4 0.003,-0.004 0.01,-3e-5 0.0124,0.001 0.043,0.0306 -0.001,0.10983 -0.0225,0.1366 -0.29224,0.36267 -0.94028,-0.0129 -1.17912,-0.22665 -2.46544,-2.20608 0.14498,-6.54276 1.81337,-8.2367 13.81968,-14.03128 38.39003,1.26711 48.36003,11.9967 9.39818,10.11419 15.76763,22.7979 19.66659,35.964617 M 198.22788,60.663743 c 0,0 0,0 0,0 0,0 0,0 0,0 0,0 0,0 0,0 0,-10e-6 -3e-5,1e-5 -3e-5,0 -2.5e-4,1.4e-4 1e-5,5.3e-4 9e-5,8e-4 0.003,0.004 0.01,-3e-5 0.0122,-0.001 0.043,-0.0306 -0.001,-0.10993 -0.0225,-0.13661 -0.29224,-0.36267 -0.94029,0.0129 -1.17912,0.22666 -2.46545,2.20606 0.14497,6.54275 1.81336,8.23669 13.81968,14.03128 38.39003,-1.26711 48.36003,-11.9967 9.39817,-10.1142 15.76763,-22.7979 19.66659,-35.96461 m -68.32116,40.206 c 0,0 0,0 0,0 0,0 0,0 0,0 0,0 0,0 0,0 1e-5,1e-5 -1e-5,2e-5 -2e-5,2e-5 -2.3e-4,1.5e-4 -5.3e-4,-2.6e-4 -5.3e-4,-5.2e-4 -0.002,-0.005 0.005,-0.009 0.007,-0.01 0.048,-0.0219 0.0946,0.0558 0.10705,0.0878 0.16797,0.43441 -0.48135,0.80783 -0.78584,0.90782 -3.14324,1.03209 -5.59371,-3.39694 -6.22651,-5.68878 -5.2416,-18.98383 20.29236,-32.61319 34.56946,-35.88266 13.45823,-3.08196 27.62737,-2.25622 40.97956,0.95054 m -69.09539,39.52362 c 0,0 0,0 0,0 0,0 0,0 0,0 0,0 0,0 0,0 -1e-5,0 -1e-5,3e-5 -1e-5,3e-5 -1e-5,2.6e-4 5.3e-4,2.6e-4 7.9e-4,2.6e-4 0.005,-5.3e-4 0.005,-0.009 0.005,-0.0114 -0.005,-0.0525 -0.0956,-0.0541 -0.12955,-0.0488 -0.4602,0.0718 -0.45893,0.82079 -0.39327,1.13448 0.6778,3.23817 5.73868,3.14583 8.03987,2.54792 19.06135,-4.95271 18.09774,-33.88045 13.79064,-47.87952 -4.06013,-13.1961234 -11.85981,-25.0540724 -21.31304,-35.014041 m 0.65882,79.270871 c 0,0 0,0 0,0 0,0 0,0 0,0 0,0 0,0 0,0 1e-5,0 1e-5,2e-5 1e-5,3e-5 1e-5,2.7e-4 -5.3e-4,2.7e-4 -7.9e-4,2.7e-4 -0.005,-5.3e-4 -0.005,-0.009 -0.005,-0.0111 0.005,-0.0525 0.0956,-0.0541 0.12957,-0.0488 0.4602,0.0717 0.45893,0.82078 0.39327,1.13447 -0.6778,3.23818 -5.73868,3.14582 -8.03987,2.54793 -19.06034,-4.95263 -18.09673,-33.88036 -13.78963,-47.87944 4.06007,-13.1961484 11.85973,-25.0540984 21.31296,-35.014066 m 0.25097,79.011946 c 0,0 0,0 0,0 0,0 0,0 0,0 0,0 0,0 0,0 1e-5,0 1e-5,-2e-5 1e-5,-2e-5 10e-6,-2.7e-4 -5.3e-4,-2.7e-4 -7.9e-4,-2.7e-4 -0.005,5.3e-4 -0.005,0.009 -0.005,0.0114 0.005,0.0525 0.0956,0.0541 0.12955,0.0488 0.4602,-0.0718 0.45893,-0.82079 0.39327,-1.13447 -0.6778,-3.23818 -5.73868,-3.14583 -8.03987,-2.54794 -19.06127,4.95256 -18.09766,33.8803 -13.79056,47.879377 4.06006,13.19615 11.85973,25.0541 21.31297,35.01406 m -0.65873,-79.270987 c 0,0 0,0 0,0 0,0 0,0 0,0 0,0 0,0 0,0 -1e-5,0 -1e-5,-2e-5 -1e-5,-3e-5 -1e-5,-2.6e-4 5.3e-4,-2.6e-4 8e-4,-2.6e-4 0.005,5.2e-4 0.005,0.009 0.005,0.0111 -0.005,0.0525 -0.0957,0.0541 -0.12958,0.0488 -0.4602,-0.0717 -0.45893,-0.82078 -0.39327,-1.13448 0.6778,-3.23817 5.73868,-3.14582 8.03987,-2.54792 19.06128,4.95254 18.09767,33.8803 13.79057,47.879367 -4.06007,13.19614 -11.85974,25.05409 -21.31297,35.01406"
       inkscape:connector-curvature="0" />
  </g>
</svg>
