<?xml version="1.0" encoding="utf-8"?>
<!-- Generator: Adobe Illustrator 21.0.2, SVG Export Plug-In . SVG Version: 6.00 Build 0)  -->
<svg version="1.1" id="_x30_" xmlns="http://www.w3.org/2000/svg" xmlns:xlink="http://www.w3.org/1999/xlink" x="0px" y="0px"
	 viewBox="0 0 1200 1200" style="enable-background:new 0 0 1200 1200;" xml:space="preserve">
<style type="text/css">
	.st0{font-family:'ArialMT';}
	.st1{font-size:25.4237px;}
</style>
<path d="M113.6,624v440.6h424.7V624H113.6z M492.8,637l30.3,17.5v11.7l-30.3-17.5V637z M492.8,660.3l30.3,17.5v11.7L492.8,672V660.3
	z M164.1,961l10.1,5.8l-30.3,17.5l-10.1-5.8L164.1,961z M128.7,969.7v-35l10.1-5.8v35L128.7,969.7z M447.3,785.8l-10.1-5.8
	l30.3-17.5l10.1,5.8L447.3,785.8z M482.6,777.1v35l-10.1,5.8v-35L482.6,777.1z M462.4,788.8v35l-10.1,5.8v-35L462.4,788.8z
	 M442.2,794.6v11.7l-30.3-17.5v-11.7L442.2,794.6z M442.2,818v11.7l-30.3-17.5v-11.7L442.2,818z M416.9,826.7l-30.3,17.5l-10.1-5.8
	l30.3-17.5L416.9,826.7z M371.4,829.6v-35l10.1-5.8v35L371.4,829.6z M401.8,812.1l-10.1,5.8v-35l10.1-5.8V812.1z M366.4,785.8
	l-10.1-5.8l30.3-17.5l10.1,5.8L366.4,785.8z M361.3,794.6v11.7L331,788.8v-11.7L361.3,794.6z M361.3,818v11.7L331,812.1v-11.7
	L361.3,818z M336,826.7l-30.3,17.5l-10.1-5.8l30.3-17.5L336,826.7z M290.5,829.6v-35l10.1-5.8v35L290.5,829.6z M320.9,812.1
	l-10.1,5.8v-35l10.1-5.8V812.1z M285.5,785.8l-10.1-5.8l30.3-17.5l10.1,5.8L285.5,785.8z M280.4,794.6v11.7l-30.3-17.5v-11.7
	L280.4,794.6z M280.4,818v11.7l-30.3-17.5v-11.7L280.4,818z M255.1,826.7l-30.3,17.5l-10.1-5.8l30.3-17.5L255.1,826.7z M209.6,829.6
	v-35l10.1-5.8v35L209.6,829.6z M240,812.1l-10.1,5.8v-35l10.1-5.8V812.1z M204.6,785.8l-10.1-5.8l30.3-17.5l10.1,5.8L204.6,785.8z
	 M199.5,794.6v11.7l-30.3-17.5v-11.7L199.5,794.6z M199.5,818v11.7l-30.3-17.5v-11.7L199.5,818z M194.5,838.4l-30.3,17.5l-10.1-5.8
	l30.3-17.5L194.5,838.4z M199.5,847.2v35l-10.1,5.8v-35L199.5,847.2z M169.2,864.7l10.1-5.8v35l-10.1,5.8V864.7z M204.6,890.9
	l10.1,5.8l-30.3,17.5l-10.1-5.8L204.6,890.9z M209.6,882.2v-11.7L240,888v11.7L209.6,882.2z M209.6,858.8v-11.7l30.3,17.5v11.7
	L209.6,858.8z M234.9,850.1l30.3-17.5l10.1,5.8L245,855.9L234.9,850.1z M280.4,847.2v35l-10.1,5.8v-35L280.4,847.2z M250.1,864.7
	l10.1-5.8v35l-10.1,5.8V864.7z M285.5,890.9l10.1,5.8l-30.3,17.5l-10.1-5.8L285.5,890.9z M290.5,882.2v-11.7l30.3,17.5v11.7
	L290.5,882.2z M290.5,858.8v-11.7l30.3,17.5v11.7L290.5,858.8z M315.8,850.1l30.3-17.5l10.1,5.8l-30.3,17.5L315.8,850.1z
	 M361.3,847.2v35l-10.1,5.8v-35L361.3,847.2z M331,864.7l10.1-5.8v35l-10.1,5.8V864.7z M366.4,890.9l10.1,5.8l-30.3,17.5l-10.1-5.8
	L366.4,890.9z M371.4,882.2v-11.7l30.3,17.5v11.7L371.4,882.2z M371.4,858.8v-11.7l30.3,17.5v11.7L371.4,858.8z M396.7,850.1
	l30.3-17.5l10.1,5.8l-30.3,17.5L396.7,850.1z M442.2,847.2v35l-10.1,5.8v-35L442.2,847.2z M411.9,864.7l10.1-5.8v35l-10.1,5.8V864.7
	z M447.3,890.9l10.1,5.8L427,914.3l-10.1-5.8L447.3,890.9z M452.3,882.2v-11.7l30.3,17.5v11.7L452.3,882.2z M452.3,858.8v-11.7
	l30.3,17.5v11.7L452.3,858.8z M457.4,838.4l30.3-17.5l10.1,5.8l-30.3,17.5L457.4,838.4z M482.6,736.2l-30.3-17.5V707l30.3,17.5
	V736.2z M482.6,747.9v11.7l-30.3-17.5v-11.7L482.6,747.9z M457.4,756.7L427,774.2l-10.1-5.8l30.3-17.5L457.4,756.7z M411.9,759.6
	v-35l10.1-5.8v35L411.9,759.6z M442.2,742.1l-10.1,5.8v-35l10.1-5.8V742.1z M406.8,715.8l-10.1-5.8l30.3-17.5l10.1,5.8L406.8,715.8z
	 M401.8,724.5v11.7l-30.3-17.5V707L401.8,724.5z M401.8,747.9v11.7l-30.3-17.5v-11.7L401.8,747.9z M376.5,756.7l-30.3,17.5
	l-10.1-5.8l30.3-17.5L376.5,756.7z M331,759.6v-35l10.1-5.8v35L331,759.6z M361.3,742.1l-10.1,5.8v-35l10.1-5.8V742.1z M325.9,715.8
	l-10.1-5.8l30.3-17.5l10.1,5.8L325.9,715.8z M320.9,724.5v11.7l-30.3-17.5V707L320.9,724.5z M320.9,747.9v11.7l-30.3-17.5v-11.7
	L320.9,747.9z M295.6,756.7l-30.3,17.5l-10.1-5.8l30.3-17.5L295.6,756.7z M250.1,759.6v-35l10.1-5.8v35L250.1,759.6z M280.4,742.1
	l-10.1,5.8v-35l10.1-5.8V742.1z M245,715.8l-10.1-5.8l30.3-17.5l10.1,5.8L245,715.8z M240,724.5v11.7l-30.3-17.5V707L240,724.5z
	 M240,747.9v11.7l-30.3-17.5v-11.7L240,747.9z M214.7,756.7l-30.3,17.5l-10.1-5.8l30.3-17.5L214.7,756.7z M169.2,759.6v-35l10.1-5.8
	v35L169.2,759.6z M199.5,742.1l-10.1,5.8v-35l10.1-5.8V742.1z M164.1,715.8L154,710l30.3-17.5l10.1,5.8L164.1,715.8z M159.1,724.5
	v11.7l-30.3-17.5V707L159.1,724.5z M159.1,747.9v11.7l-30.3-17.5v-11.7L159.1,747.9z M164.1,820.9l10.1,5.8l-30.3,17.5l-10.1-5.8
	L164.1,820.9z M149,818v-35l10.1-5.8v35L149,818z M138.8,823.8l-10.1,5.8v-35l10.1-5.8V823.8z M159.1,864.7v11.7l-30.3-17.5v-11.7
	L159.1,864.7z M159.1,888v11.7l-30.3-17.5v-11.7L159.1,888z M149,958.1v-35l10.1-5.8v35L149,958.1z M169.2,952.2v-11.7l30.3,17.5
	v11.7L169.2,952.2z M169.2,928.9v-11.7l30.3,17.5v11.7L169.2,928.9z M194.5,920.1l30.3-17.5l10.1,5.8L204.6,926L194.5,920.1z
	 M240,917.2v35l-10.1,5.8v-35L240,917.2z M209.6,934.7l10.1-5.8v35l-10.1,5.8V934.7z M245,961l10.1,5.8l-30.3,17.5l-10.1-5.8
	L245,961z M250.1,952.2v-11.7l30.3,17.5v11.7L250.1,952.2z M250.1,928.9v-11.7l30.3,17.5v11.7L250.1,928.9z M275.3,920.1l30.3-17.5
	l10.1,5.8L285.5,926L275.3,920.1z M320.9,917.2v35l-10.1,5.8v-35L320.9,917.2z M290.5,934.7l10.1-5.8v35l-10.1,5.8V934.7z
	 M325.9,961l10.1,5.8l-30.3,17.5l-10.1-5.8L325.9,961z M331,952.2v-11.7l30.3,17.5v11.7L331,952.2z M331,928.9v-11.7l30.3,17.5v11.7
	L331,928.9z M356.3,920.1l30.3-17.5l10.1,5.8L366.4,926L356.3,920.1z M401.8,917.2v35l-10.1,5.8v-35L401.8,917.2z M371.4,934.7
	l10.1-5.8v35l-10.1,5.8V934.7z M406.8,961l10.1,5.8l-30.3,17.5l-10.1-5.8L406.8,961z M411.9,952.2v-11.7l30.3,17.5v11.7L411.9,952.2
	z M411.9,928.9v-11.7l30.3,17.5v11.7L411.9,928.9z M437.1,920.1l30.3-17.5l10.1,5.8L447.3,926L437.1,920.1z M482.6,917.2v35
	l-10.1,5.8v-35L482.6,917.2z M452.3,934.7l10.1-5.8v35l-10.1,5.8V934.7z M487.7,961l10.1,5.8l-30.3,17.5l-10.1-5.8L487.7,961z
	 M492.8,952.2v-11.7l30.3,17.5v11.7L492.8,952.2z M492.8,928.9v-11.7l30.3,17.5v11.7L492.8,928.9z M487.7,855.9l-10.1-5.8l30.3-17.5
	l10.1,5.8L487.7,855.9z M502.9,858.8v35l-10.1,5.8v-35L502.9,858.8z M513,853l10.1-5.8v35L513,888V853z M492.8,812.1v-11.7
	l30.3,17.5v11.7L492.8,812.1z M492.8,788.8v-11.7l30.3,17.5v11.7L492.8,788.8z M487.7,715.8l-10.1-5.8l30.3-17.5l10.1,5.8
	L487.7,715.8z M502.9,718.7v35l-10.1,5.8v-35L502.9,718.7z M513,712.9l10.1-5.8v35l-10.1,5.8V712.9z M497.8,686.6l-30.3,17.5
	l-10.1-5.8l30.3-17.5L497.8,686.6z M452.3,689.5v-35l10.1-5.8v35L452.3,689.5z M472.5,642.8l10.1-5.8v35l-10.1,5.8V642.8z
	 M447.3,634.1h20.2l-20.2,11.7l-10.1-5.8L447.3,634.1z M411.9,637l30.3,17.5v11.7l-30.3-17.5V637z M411.9,660.3l30.3,17.5v11.7
	L411.9,672V660.3z M416.9,686.6l-30.3,17.5l-10.1-5.8l30.3-17.5L416.9,686.6z M371.4,689.5v-35l10.1-5.8v35L371.4,689.5z
	 M391.6,642.8l10.1-5.8v35l-10.1,5.8V642.8z M366.4,634.1h20.2l-20.2,11.7l-10.1-5.8L366.4,634.1z M331,637l30.3,17.5v11.7
	L331,648.7V637z M331,660.3l30.3,17.5v11.7L331,672V660.3z M336,686.6l-30.3,17.5l-10.1-5.8l30.3-17.5L336,686.6z M290.5,689.5v-35
	l10.1-5.8v35L290.5,689.5z M310.7,642.8l10.1-5.8v35l-10.1,5.8V642.8z M285.5,634.1h20.2l-20.2,11.7l-10.1-5.8L285.5,634.1z
	 M250.1,637l30.3,17.5v11.7l-30.3-17.5V637z M250.1,660.3l30.3,17.5v11.7L250.1,672V660.3z M255.1,686.6l-30.3,17.5l-10.1-5.8
	l30.3-17.5L255.1,686.6z M209.6,689.5v-35l10.1-5.8v35L209.6,689.5z M229.8,642.8L240,637v35l-10.1,5.8V642.8z M204.6,634.1h20.2
	l-20.2,11.7l-10.1-5.8L204.6,634.1z M169.2,637l30.3,17.5v11.7l-30.3-17.5V637z M169.2,660.3l30.3,17.5v11.7L169.2,672V660.3z
	 M174.2,686.6l-30.3,17.5l-10.1-5.8l30.3-17.5L174.2,686.6z M128.7,689.5v-35l10.1-5.8v35L128.7,689.5z M149,642.8l10.1-5.8v35
	l-10.1,5.8V642.8z M123.7,634.1h20.2l-20.2,11.7V634.1z M123.7,750.8l10.1,5.8l-10.1,5.8V750.8z M123.7,774.2l20.2-11.7l10.1,5.8
	l-30.3,17.5V774.2z M123.7,890.9l10.1,5.8l-10.1,5.8V890.9z M123.7,914.3l20.2-11.7l10.1,5.8L123.7,926V914.3z M123.7,1031l10.1,5.8
	l-10.1,5.8V1031z M143.9,1054.4h-20.2l20.2-11.7l10.1,5.8L143.9,1054.4z M159.1,1039.8l-30.3-17.5v-11.7l30.3,17.5V1039.8z
	 M159.1,1016.5l-30.3-17.5v-11.7l30.3,17.5V1016.5z M154,990.2l30.3-17.5l10.1,5.8L164.1,996L154,990.2z M199.5,987.3v35l-10.1,5.8
	v-35L199.5,987.3z M169.2,1004.8l10.1-5.8v35l-10.1,5.8V1004.8z M174.2,1048.6l30.3-17.5l10.1,5.8l-30.3,17.5L174.2,1048.6z
	 M224.8,1054.4h-20.2l20.2-11.7l10.1,5.8L224.8,1054.4z M240,1039.8l-30.3-17.5v-11.7l30.3,17.5V1039.8z M240,1016.5l-30.3-17.5
	v-11.7l30.3,17.5V1016.5z M234.9,990.2l30.3-17.5l10.1,5.8L245,996L234.9,990.2z M280.4,987.3v35l-10.1,5.8v-35L280.4,987.3z
	 M250.1,1004.8l10.1-5.8v35l-10.1,5.8V1004.8z M255.1,1048.6l30.3-17.5l10.1,5.8l-30.3,17.5L255.1,1048.6z M305.7,1054.4h-20.2
	l20.2-11.7l10.1,5.8L305.7,1054.4z M320.9,1039.8l-30.3-17.5v-11.7l30.3,17.5V1039.8z M320.9,1016.5l-30.3-17.5v-11.7l30.3,17.5
	V1016.5z M315.8,990.2l30.3-17.5l10.1,5.8L325.9,996L315.8,990.2z M361.3,987.3v35l-10.1,5.8v-35L361.3,987.3z M331,1004.8l10.1-5.8
	v35l-10.1,5.8V1004.8z M336,1048.6l30.3-17.5l10.1,5.8l-30.3,17.5L336,1048.6z M386.6,1054.4h-20.2l20.2-11.7l10.1,5.8L386.6,1054.4
	z M401.8,1039.8l-30.3-17.5v-11.7l30.3,17.5V1039.8z M401.8,1016.5l-30.3-17.5v-11.7l30.3,17.5V1016.5z M396.7,990.2l30.3-17.5
	l10.1,5.8L406.8,996L396.7,990.2z M442.2,987.3v35l-10.1,5.8v-35L442.2,987.3z M411.9,1004.8l10.1-5.8v35l-10.1,5.8V1004.8z
	 M416.9,1048.6l30.3-17.5l10.1,5.8l-30.3,17.5L416.9,1048.6z M467.5,1054.4h-20.2l20.2-11.7l10.1,5.8L467.5,1054.4z M482.6,1039.8
	l-30.3-17.5v-11.7l30.3,17.5V1039.8z M482.6,1016.5l-30.3-17.5v-11.7l30.3,17.5V1016.5z M477.6,990.2l30.3-17.5l10.1,5.8L487.7,996
	L477.6,990.2z M523.1,987.3v35l-10.1,5.8v-35L523.1,987.3z M492.8,1004.8l10.1-5.8v35l-10.1,5.8V1004.8z M528.2,1042.7l-20.2,11.7
	l-10.1-5.8l30.3-17.5V1042.7z M528.2,926l-10.1-5.8l10.1-5.8V926z M528.2,902.6l-20.2,11.7l-10.1-5.8l30.3-17.5V902.6z M528.2,785.8
	L518,780l10.1-5.8V785.8z M528.2,762.5l-20.2,11.7l-10.1-5.8l30.3-17.5V762.5z M528.2,645.7l-10.1-5.8l10.1-5.8V645.7z"/>
<path d="M109.4,134.1v440.6H550V134.1H109.4z M533.8,144.8l-20.6,20.6l-7.5-7.5l13.1-13.1H533.8z M507.6,197.2l13.1,13.1l-7.5,7.5
	l-20.6-20.6l20.6-20.6l7.5,7.5L507.6,197.2z M526.3,189.7l7.5,7.5l-7.5,7.5l-7.5-7.5L526.3,189.7z M507.6,302l13.1,13.1l-7.5,7.5
	L492.6,302l20.6-20.6l7.5,7.5L507.6,302z M526.3,294.5l7.5,7.5l-7.5,7.5l-7.5-7.5L526.3,294.5z M507.6,406.8l13.1,13.1l-7.5,7.5
	l-20.6-20.6l20.6-20.6l7.5,7.5L507.6,406.8z M526.3,399.3l7.5,7.5l-7.5,7.5l-7.5-7.5L526.3,399.3z M507.6,511.7l13.1,13.1l-7.5,7.5
	l-20.6-20.6l20.6-20.6l7.5,7.5L507.6,511.7z M526.3,504.2l7.5,7.5l-7.5,7.5l-7.5-7.5L526.3,504.2z M151.9,511.7l-13.1-13.1l7.5-7.5
	l20.6,20.6l-20.6,20.6l-7.5-7.5L151.9,511.7z M133.2,519.2l-7.5-7.5l7.5-7.5l7.5,7.5L133.2,519.2z M151.9,406.8l-13.1-13.1l7.5-7.5
	l20.6,20.6l-20.6,20.6l-7.5-7.5L151.9,406.8z M133.2,414.3l-7.5-7.5l7.5-7.5l7.5,7.5L133.2,414.3z M151.9,302l-13.1-13.1l7.5-7.5
	l20.6,20.6l-20.6,20.6l-7.5-7.5L151.9,302z M133.2,309.5l-7.5-7.5l7.5-7.5l7.5,7.5L133.2,309.5z M151.9,197.2l-13.1-13.1l7.5-7.5
	l20.6,20.6l-20.6,20.6l-7.5-7.5L151.9,197.2z M133.2,204.7l-7.5-7.5l7.5-7.5l7.5,7.5L133.2,204.7z M434.6,479.9L421.5,493l-7.5-7.5
	l20.6-20.6l20.6,20.6l-7.5,7.5L434.6,479.9z M442.1,498.6l-7.5,7.5l-7.5-7.5l7.5-7.5L442.1,498.6z M329.7,479.9L316.6,493l-7.5-7.5
	l20.6-20.6l20.6,20.6l-7.5,7.5L329.7,479.9z M337.2,498.6l-7.5,7.5l-7.5-7.5l7.5-7.5L337.2,498.6z M224.9,479.9L211.8,493l-7.5-7.5
	l20.6-20.6l20.6,20.6L238,493L224.9,479.9z M232.4,498.6l-7.5,7.5l-7.5-7.5l7.5-7.5L232.4,498.6z M224.9,229l13.1-13.1l7.5,7.5
	L224.9,244l-20.6-20.6l7.5-7.5L224.9,229z M217.4,210.3l7.5-7.5l7.5,7.5l-7.5,7.5L217.4,210.3z M329.7,229l13.1-13.1l7.5,7.5
	L329.7,244l-20.6-20.6l7.5-7.5L329.7,229z M322.2,210.3l7.5-7.5l7.5,7.5l-7.5,7.5L322.2,210.3z M434.6,229l13.1-13.1l7.5,7.5
	L434.6,244L414,223.4l7.5-7.5L434.6,229z M427.1,210.3l7.5-7.5l7.5,7.5l-7.5,7.5L427.1,210.3z M479.5,236.5l7.5-7.5l7.5,7.5L487,244
	L479.5,236.5z M494.5,262.7l-7.5,7.5l-7.5-7.5l7.5-7.5L494.5,262.7z M481.4,249.6l-7.5,7.5l-7.5-7.5l7.5-7.5L481.4,249.6z
	 M455.2,249.6l13.1,13.1l-7.5,7.5l-20.6-20.6l20.6-20.6l7.5,7.5L455.2,249.6z M479.5,341.3l7.5-7.5l7.5,7.5l-7.5,7.5L479.5,341.3z
	 M494.5,367.5L487,375l-7.5-7.5l7.5-7.5L494.5,367.5z M481.4,354.4l-7.5,7.5l-7.5-7.5l7.5-7.5L481.4,354.4z M455.2,354.4l13.1,13.1
	l-7.5,7.5l-20.6-20.6l20.6-20.6l7.5,7.5L455.2,354.4z M376.5,459.3l-7.5,7.5l-7.5-7.5l7.5-7.5L376.5,459.3z M374.6,446.2l7.5-7.5
	l7.5,7.5l-7.5,7.5L374.6,446.2z M382.1,464.9l7.5,7.5l-7.5,7.5l-7.5-7.5L382.1,464.9z M387.8,459.3l7.5-7.5l7.5,7.5l-7.5,7.5
	L387.8,459.3z M382.1,427.4L369,440.5l-7.5-7.5l20.6-20.6l20.6,20.6l-7.5,7.5L382.1,427.4z M271.7,459.3l-7.5,7.5l-7.5-7.5l7.5-7.5
	L271.7,459.3z M269.8,446.2l7.5-7.5l7.5,7.5l-7.5,7.5L269.8,446.2z M277.3,464.9l7.5,7.5l-7.5,7.5l-7.5-7.5L277.3,464.9z
	 M282.9,459.3l7.5-7.5l7.5,7.5l-7.5,7.5L282.9,459.3z M277.3,427.4l-13.1,13.1l-7.5-7.5l20.6-20.6l20.6,20.6l-7.5,7.5L277.3,427.4z
	 M180,367.5l-7.5,7.5l-7.5-7.5l7.5-7.5L180,367.5z M165,341.3l7.5-7.5l7.5,7.5l-7.5,7.5L165,341.3z M178.1,354.4l7.5-7.5l7.5,7.5
	l-7.5,7.5L178.1,354.4z M204.3,354.4l-13.1-13.1l7.5-7.5l20.6,20.6L198.7,375l-7.5-7.5L204.3,354.4z M282.9,249.6l7.5-7.5l7.5,7.5
	l-7.5,7.5L282.9,249.6z M284.8,262.7l-7.5,7.5l-7.5-7.5l7.5-7.5L284.8,262.7z M277.3,244l-7.5-7.5l7.5-7.5l7.5,7.5L277.3,244z
	 M271.7,249.6l-7.5,7.5l-7.5-7.5l7.5-7.5L271.7,249.6z M277.3,281.4l13.1-13.1l7.5,7.5l-20.6,20.6l-20.6-20.6l7.5-7.5L277.3,281.4z
	 M387.8,249.6l7.5-7.5l7.5,7.5l-7.5,7.5L387.8,249.6z M389.7,262.7l-7.5,7.5l-7.5-7.5l7.5-7.5L389.7,262.7z M382.1,244l-7.5-7.5
	l7.5-7.5l7.5,7.5L382.1,244z M376.5,249.6l-7.5,7.5l-7.5-7.5l7.5-7.5L376.5,249.6z M382.1,281.4l13.1-13.1l7.5,7.5l-20.6,20.6
	l-20.6-20.6l7.5-7.5L382.1,281.4z M429,406.8l-7.5,7.5l-7.5-7.5l7.5-7.5L429,406.8z M427.1,393.7l7.5-7.5l7.5,7.5l-7.5,7.5
	L427.1,393.7z M434.6,412.4l7.5,7.5l-7.5,7.5l-7.5-7.5L434.6,412.4z M440.2,406.8l7.5-7.5l7.5,7.5l-7.5,7.5L440.2,406.8z M434.6,375
	l-13.1,13.1l-7.5-7.5l20.6-20.6l20.6,20.6l-7.5,7.5L434.6,375z M324.1,406.8l-7.5,7.5l-7.5-7.5l7.5-7.5L324.1,406.8z M322.2,393.7
	l7.5-7.5l7.5,7.5l-7.5,7.5L322.2,393.7z M329.7,412.4l7.5,7.5l-7.5,7.5l-7.5-7.5L329.7,412.4z M335.3,406.8l7.5-7.5l7.5,7.5
	l-7.5,7.5L335.3,406.8z M329.7,375l-13.1,13.1l-7.5-7.5l20.6-20.6l20.6,20.6l-7.5,7.5L329.7,375z M219.3,406.8l-7.5,7.5l-7.5-7.5
	l7.5-7.5L219.3,406.8z M217.4,393.7l7.5-7.5l7.5,7.5l-7.5,7.5L217.4,393.7z M224.9,412.4l7.5,7.5l-7.5,7.5l-7.5-7.5L224.9,412.4z
	 M230.5,406.8l7.5-7.5l7.5,7.5l-7.5,7.5L230.5,406.8z M224.9,375l-13.1,13.1l-7.5-7.5l20.6-20.6l20.6,20.6l-7.5,7.5L224.9,375z
	 M230.5,302l7.5-7.5l7.5,7.5l-7.5,7.5L230.5,302z M232.4,315.1l-7.5,7.5l-7.5-7.5l7.5-7.5L232.4,315.1z M224.9,296.4l-7.5-7.5
	l7.5-7.5l7.5,7.5L224.9,296.4z M219.3,302l-7.5,7.5l-7.5-7.5l7.5-7.5L219.3,302z M224.9,333.8l13.1-13.1l7.5,7.5l-20.6,20.6
	l-20.6-20.6l7.5-7.5L224.9,333.8z M230.5,354.4l20.6-20.6l7.5,7.5l-13.1,13.1l13.1,13.1l-7.5,7.5L230.5,354.4z M271.7,354.4
	l-7.5,7.5l-7.5-7.5l7.5-7.5L271.7,354.4z M269.8,341.3l7.5-7.5l7.5,7.5l-7.5,7.5L269.8,341.3z M277.3,360l7.5,7.5l-7.5,7.5l-7.5-7.5
	L277.3,360z M282.9,354.4l7.5-7.5l7.5,7.5l-7.5,7.5L282.9,354.4z M277.3,322.6l-13.1,13.1l-7.5-7.5l20.6-20.6l20.6,20.6l-7.5,7.5
	L277.3,322.6z M264.2,373.1l13.1,13.1l13.1-13.1l7.5,7.5l-20.6,20.6l-20.6-20.6L264.2,373.1z M296,367.5l13.1-13.1L296,341.3
	l7.5-7.5l20.6,20.6L303.5,375L296,367.5z M335.3,302l7.5-7.5l7.5,7.5l-7.5,7.5L335.3,302z M337.2,315.1l-7.5,7.5l-7.5-7.5l7.5-7.5
	L337.2,315.1z M329.7,296.4l-7.5-7.5l7.5-7.5l7.5,7.5L329.7,296.4z M324.1,302l-7.5,7.5l-7.5-7.5l7.5-7.5L324.1,302z M329.7,333.8
	l13.1-13.1l7.5,7.5l-20.6,20.6l-20.6-20.6l7.5-7.5L329.7,333.8z M335.3,354.4l20.6-20.6l7.5,7.5l-13.1,13.1l13.1,13.1l-7.5,7.5
	L335.3,354.4z M376.5,354.4l-7.5,7.5l-7.5-7.5l7.5-7.5L376.5,354.4z M374.6,341.3l7.5-7.5l7.5,7.5l-7.5,7.5L374.6,341.3z M382.1,360
	l7.5,7.5l-7.5,7.5l-7.5-7.5L382.1,360z M387.8,354.4l7.5-7.5l7.5,7.5l-7.5,7.5L387.8,354.4z M382.1,322.6L369,335.7l-7.5-7.5
	l20.6-20.6l20.6,20.6l-7.5,7.5L382.1,322.6z M369,373.1l13.1,13.1l13.1-13.1l7.5,7.5l-20.6,20.6l-20.6-20.6L369,373.1z M400.8,367.5
	l13.1-13.1l-13.1-13.1l7.5-7.5l20.6,20.6L408.3,375L400.8,367.5z M414,328.2l7.5-7.5l13.1,13.1l13.1-13.1l7.5,7.5l-20.6,20.6
	L414,328.2z M427.1,288.9l7.5-7.5l7.5,7.5l-7.5,7.5L427.1,288.9z M442.1,315.1l-7.5,7.5l-7.5-7.5l7.5-7.5L442.1,315.1z M429,302
	l-7.5,7.5L414,302l7.5-7.5L429,302z M440.2,302l7.5-7.5l7.5,7.5l-7.5,7.5L440.2,302z M434.6,270.2l-13.1,13.1l-7.5-7.5l20.6-20.6
	l20.6,20.6l-7.5,7.5L434.6,270.2z M415.8,288.9L402.8,302l13.1,13.1l-7.5,7.5L387.8,302l20.6-20.6L415.8,288.9z M376.5,302
	l-20.6,20.6l-7.5-7.5l13.1-13.1l-13.1-13.1l7.5-7.5L376.5,302z M342.8,283.3l-13.1-13.1l-13.1,13.1l-7.5-7.5l20.6-20.6l20.6,20.6
	L342.8,283.3z M311,288.9L297.9,302l13.1,13.1l-7.5,7.5L282.9,302l20.6-20.6L311,288.9z M271.7,302l-20.6,20.6l-7.5-7.5l13.1-13.1
	l-13.1-13.1l7.5-7.5L271.7,302z M238,283.3l-13.1-13.1l-13.1,13.1l-7.5-7.5l20.6-20.6l20.6,20.6L238,283.3z M206.2,288.9L193.1,302
	l13.1,13.1l-7.5,7.5L178.1,302l20.6-20.6L206.2,288.9z M206.2,393.7l-13.1,13.1l13.1,13.1l-7.5,7.5l-20.6-20.6l20.6-20.6
	L206.2,393.7z M211.8,425.5l13.1,13.1l13.1-13.1l7.5,7.5l-20.6,20.6L204.3,433L211.8,425.5z M243.6,419.9l13.1-13.1l-13.1-13.1
	l7.5-7.5l20.6,20.6l-20.6,20.6L243.6,419.9z M282.9,406.8l20.6-20.6l7.5,7.5l-13.1,13.1l13.1,13.1l-7.5,7.5L282.9,406.8z
	 M316.6,425.5l13.1,13.1l13.1-13.1l7.5,7.5l-20.6,20.6L309.1,433L316.6,425.5z M348.4,419.9l13.1-13.1l-13.1-13.1l7.5-7.5l20.6,20.6
	l-20.6,20.6L348.4,419.9z M387.8,406.8l20.6-20.6l7.5,7.5l-13.1,13.1l13.1,13.1l-7.5,7.5L387.8,406.8z M421.5,425.5l13.1,13.1
	l13.1-13.1l7.5,7.5l-20.6,20.6L414,433L421.5,425.5z M453.3,419.9l13.1-13.1l-13.1-13.1l7.5-7.5l20.6,20.6l-20.6,20.6L453.3,419.9z
	 M453.3,315.1l13.1-13.1l-13.1-13.1l7.5-7.5l20.6,20.6l-20.6,20.6L453.3,315.1z M429,249.6l-20.6,20.6l-7.5-7.5l13.1-13.1
	l-13.1-13.1l7.5-7.5L429,249.6z M395.3,230.9l-13.1-13.1L369,230.9l-7.5-7.5l20.6-20.6l20.6,20.6L395.3,230.9z M363.4,236.5
	l-13.1,13.1l13.1,13.1l-7.5,7.5l-20.6-20.6l20.6-20.6L363.4,236.5z M324.1,249.6l-20.6,20.6l-7.5-7.5l13.1-13.1L296,236.5l7.5-7.5
	L324.1,249.6z M290.4,230.9l-13.1-13.1l-13.1,13.1l-7.5-7.5l20.6-20.6l20.6,20.6L290.4,230.9z M258.6,236.5l-13.1,13.1l13.1,13.1
	l-7.5,7.5l-20.6-20.6l20.6-20.6L258.6,236.5z M219.3,249.6l-20.6,20.6l-7.5-7.5l13.1-13.1l-13.1-13.1l7.5-7.5L219.3,249.6z
	 M180,262.7l-7.5,7.5l-7.5-7.5l7.5-7.5L180,262.7z M165,236.5l7.5-7.5l7.5,7.5l-7.5,7.5L165,236.5z M178.1,249.6l7.5-7.5l7.5,7.5
	l-7.5,7.5L178.1,249.6z M185.6,230.9l-13.1-13.1l-13.1,13.1l-7.5-7.5l20.6-20.6l20.6,20.6L185.6,230.9z M166.9,249.6l-7.5,7.5
	l-7.5-7.5l7.5-7.5L166.9,249.6z M172.5,281.4l13.1-13.1l7.5,7.5l-20.6,20.6l-20.6-20.6l7.5-7.5L172.5,281.4z M193.1,328.2l-7.5,7.5
	l-13.1-13.1l-13.1,13.1l-7.5-7.5l20.6-20.6L193.1,328.2z M166.9,354.4l-7.5,7.5l-7.5-7.5l7.5-7.5L166.9,354.4z M172.5,386.2
	l13.1-13.1l7.5,7.5l-20.6,20.6l-20.6-20.6l7.5-7.5L172.5,386.2z M193.1,433l-7.5,7.5l-13.1-13.1l-13.1,13.1l-7.5-7.5l20.6-20.6
	L193.1,433z M180,472.4l-7.5,7.5l-7.5-7.5l7.5-7.5L180,472.4z M165,446.2l7.5-7.5l7.5,7.5l-7.5,7.5L165,446.2z M178.1,459.3l7.5-7.5
	l7.5,7.5l-7.5,7.5L178.1,459.3z M166.9,459.3l-7.5,7.5l-7.5-7.5l7.5-7.5L166.9,459.3z M172.5,491.1l13.1-13.1l7.5,7.5l-20.6,20.6
	l-20.6-20.6l7.5-7.5L172.5,491.1z M191.2,472.4l13.1-13.1l-13.1-13.1l7.5-7.5l20.6,20.6l-20.6,20.6L191.2,472.4z M230.5,459.3
	l20.6-20.6l7.5,7.5l-13.1,13.1l13.1,13.1l-7.5,7.5L230.5,459.3z M264.2,478l13.1,13.1l13.1-13.1l7.5,7.5l-20.6,20.6l-20.6-20.6
	L264.2,478z M296,472.4l13.1-13.1L296,446.2l7.5-7.5l20.6,20.6l-20.6,20.6L296,472.4z M335.3,459.3l20.6-20.6l7.5,7.5l-13.1,13.1
	l13.1,13.1l-7.5,7.5L335.3,459.3z M369,478l13.1,13.1l13.1-13.1l7.5,7.5l-20.6,20.6l-20.6-20.6L369,478z M400.8,472.4l13.1-13.1
	l-13.1-13.1l7.5-7.5l20.6,20.6l-20.6,20.6L400.8,472.4z M440.2,459.3l20.6-20.6l7.5,7.5l-13.1,13.1l13.1,13.1l-7.5,7.5L440.2,459.3z
	 M479.5,446.2l7.5-7.5l7.5,7.5l-7.5,7.5L479.5,446.2z M494.5,472.4l-7.5,7.5l-7.5-7.5l7.5-7.5L494.5,472.4z M481.4,459.3l-7.5,7.5
	l-7.5-7.5l7.5-7.5L481.4,459.3z M473.9,478l13.1,13.1l13.1-13.1l7.5,7.5L487,506.1l-20.6-20.6L473.9,478z M492.6,459.3l7.5-7.5
	l7.5,7.5l-7.5,7.5L492.6,459.3z M487,427.4l-13.1,13.1l-7.5-7.5l20.6-20.6l20.6,20.6l-7.5,7.5L487,427.4z M466.4,380.6l7.5-7.5
	l13.1,13.1l13.1-13.1l7.5,7.5L487,401.2L466.4,380.6z M492.6,354.4l7.5-7.5l7.5,7.5l-7.5,7.5L492.6,354.4z M487,322.6l-13.1,13.1
	l-7.5-7.5l20.6-20.6l20.6,20.6l-7.5,7.5L487,322.6z M466.4,275.8l7.5-7.5l13.1,13.1l13.1-13.1l7.5,7.5L487,296.4L466.4,275.8z
	 M492.6,249.6l7.5-7.5l7.5,7.5l-7.5,7.5L492.6,249.6z M487,217.8l-13.1,13.1l-7.5-7.5l20.6-20.6l20.6,20.6l-7.5,7.5L487,217.8z
	 M466.4,171l7.5-7.5l13.1,13.1l13.1-13.1l7.5,7.5L487,191.6L466.4,171z M481.4,197.2l-20.6,20.6l-7.5-7.5l13.1-13.1l-13.1-13.1
	l7.5-7.5L481.4,197.2z M455.2,197.2l-7.5,7.5l-7.5-7.5l7.5-7.5L455.2,197.2z M434.6,191.6l-7.5-7.5l7.5-7.5l7.5,7.5L434.6,191.6z
	 M429,197.2l-7.5,7.5l-7.5-7.5l7.5-7.5L429,197.2z M402.8,197.2l13.1,13.1l-7.5,7.5l-20.6-20.6l20.6-20.6l7.5,7.5L402.8,197.2z
	 M382.1,191.6L361.5,171l7.5-7.5l13.1,13.1l13.1-13.1l7.5,7.5L382.1,191.6z M376.5,197.2l-20.6,20.6l-7.5-7.5l13.1-13.1l-13.1-13.1
	l7.5-7.5L376.5,197.2z M350.3,197.2l-7.5,7.5l-7.5-7.5l7.5-7.5L350.3,197.2z M329.7,191.6l-7.5-7.5l7.5-7.5l7.5,7.5L329.7,191.6z
	 M324.1,197.2l-7.5,7.5l-7.5-7.5l7.5-7.5L324.1,197.2z M297.9,197.2l13.1,13.1l-7.5,7.5l-20.6-20.6l20.6-20.6l7.5,7.5L297.9,197.2z
	 M277.3,191.6L256.7,171l7.5-7.5l13.1,13.1l13.1-13.1l7.5,7.5L277.3,191.6z M271.7,197.2l-20.6,20.6l-7.5-7.5l13.1-13.1l-13.1-13.1
	l7.5-7.5L271.7,197.2z M245.5,197.2l-7.5,7.5l-7.5-7.5l7.5-7.5L245.5,197.2z M224.9,191.6l-7.5-7.5l7.5-7.5l7.5,7.5L224.9,191.6z
	 M219.3,197.2l-7.5,7.5l-7.5-7.5l7.5-7.5L219.3,197.2z M193.1,197.2l13.1,13.1l-7.5,7.5l-20.6-20.6l20.6-20.6l7.5,7.5L193.1,197.2z
	 M172.5,191.6L151.9,171l7.5-7.5l13.1,13.1l13.1-13.1l7.5,7.5L172.5,191.6z M153.8,236.5l-13.1,13.1l13.1,13.1l-7.5,7.5l-20.6-20.6
	l20.6-20.6L153.8,236.5z M153.8,341.3l-13.1,13.1l13.1,13.1l-7.5,7.5l-20.6-20.6l20.6-20.6L153.8,341.3z M153.8,446.2l-13.1,13.1
	l13.1,13.1l-7.5,7.5l-20.6-20.6l20.6-20.6L153.8,446.2z M172.5,517.3l20.6,20.6l-7.5,7.5l-13.1-13.1l-13.1,13.1l-7.5-7.5
	L172.5,517.3z M178.1,511.7l20.6-20.6l7.5,7.5l-13.1,13.1l13.1,13.1l-7.5,7.5L178.1,511.7z M204.3,511.7l7.5-7.5l7.5,7.5l-7.5,7.5
	L204.3,511.7z M224.9,517.3l7.5,7.5l-7.5,7.5l-7.5-7.5L224.9,517.3z M230.5,511.7l7.5-7.5l7.5,7.5l-7.5,7.5L230.5,511.7z
	 M256.7,511.7l-13.1-13.1l7.5-7.5l20.6,20.6l-20.6,20.6l-7.5-7.5L256.7,511.7z M277.3,517.3l20.6,20.6l-7.5,7.5l-13.1-13.1
	l-13.1,13.1l-7.5-7.5L277.3,517.3z M282.9,511.7l20.6-20.6l7.5,7.5l-13.1,13.1l13.1,13.1l-7.5,7.5L282.9,511.7z M309.1,511.7
	l7.5-7.5l7.5,7.5l-7.5,7.5L309.1,511.7z M329.7,517.3l7.5,7.5l-7.5,7.5l-7.5-7.5L329.7,517.3z M335.3,511.7l7.5-7.5l7.5,7.5
	l-7.5,7.5L335.3,511.7z M361.5,511.7l-13.1-13.1l7.5-7.5l20.6,20.6l-20.6,20.6l-7.5-7.5L361.5,511.7z M382.1,517.3l20.6,20.6
	l-7.5,7.5l-13.1-13.1L369,545.4l-7.5-7.5L382.1,517.3z M387.8,511.7l20.6-20.6l7.5,7.5l-13.1,13.1l13.1,13.1l-7.5,7.5L387.8,511.7z
	 M414,511.7l7.5-7.5l7.5,7.5l-7.5,7.5L414,511.7z M434.6,517.3l7.5,7.5l-7.5,7.5l-7.5-7.5L434.6,517.3z M440.2,511.7l7.5-7.5
	l7.5,7.5l-7.5,7.5L440.2,511.7z M466.4,511.7l-13.1-13.1l7.5-7.5l20.6,20.6l-20.6,20.6l-7.5-7.5L466.4,511.7z M487,517.3l20.6,20.6
	l-7.5,7.5L487,532.3l-13.1,13.1l-7.5-7.5L487,517.3z M505.7,472.4l13.1-13.1l-13.1-13.1l7.5-7.5l20.6,20.6l-20.6,20.6L505.7,472.4z
	 M505.7,367.5l13.1-13.1l-13.1-13.1l7.5-7.5l20.6,20.6L513.2,375L505.7,367.5z M505.7,262.7l13.1-13.1l-13.1-13.1l7.5-7.5l20.6,20.6
	l-20.6,20.6L505.7,262.7z M507.6,144.8l-7.5,7.5l-7.5-7.5H507.6z M494.5,157.8l-7.5,7.5l-7.5-7.5l7.5-7.5L494.5,157.8z M481.4,144.8
	l-7.5,7.5l-7.5-7.5H481.4z M455.2,144.8l13.1,13.1l-7.5,7.5l-20.6-20.6H455.2z M455.2,171l-7.5,7.5l-13.1-13.1l-13.1,13.1L414,171
	l20.6-20.6L455.2,171z M429,144.8l-20.6,20.6l-7.5-7.5l13.1-13.1H429z M402.8,144.8l-7.5,7.5l-7.5-7.5H402.8z M389.7,157.8l-7.5,7.5
	l-7.5-7.5l7.5-7.5L389.7,157.8z M376.5,144.8l-7.5,7.5l-7.5-7.5H376.5z M350.3,144.8l13.1,13.1l-7.5,7.5l-20.6-20.6H350.3z
	 M350.3,171l-7.5,7.5l-13.1-13.1l-13.1,13.1l-7.5-7.5l20.6-20.6L350.3,171z M324.1,144.8l-20.6,20.6l-7.5-7.5l13.1-13.1H324.1z
	 M297.9,144.8l-7.5,7.5l-7.5-7.5H297.9z M284.8,157.8l-7.5,7.5l-7.5-7.5l7.5-7.5L284.8,157.8z M271.7,144.8l-7.5,7.5l-7.5-7.5H271.7
	z M245.5,144.8l13.1,13.1l-7.5,7.5l-20.6-20.6H245.5z M245.5,171l-7.5,7.5l-13.1-13.1l-13.1,13.1l-7.5-7.5l20.6-20.6L245.5,171z
	 M219.3,144.8l-20.6,20.6l-7.5-7.5l13.1-13.1H219.3z M193.1,144.8l-7.5,7.5l-7.5-7.5H193.1z M180,157.8l-7.5,7.5l-7.5-7.5l7.5-7.5
	L180,157.8z M166.9,144.8l-7.5,7.5l-7.5-7.5H166.9z M140.7,144.8l13.1,13.1l-7.5,7.5l-20.6-20.6H140.7z M120,150.3l20.6,20.6
	l-7.5,7.5L120,165.4V150.3z M120,176.6l7.5,7.5l-7.5,7.5V176.6z M120,202.8l7.5,7.5l-7.5,7.5V202.8z M120,229l13.1-13.1l7.5,7.5
	L120,244V229z M120,255.2l20.6,20.6l-7.5,7.5L120,270.2V255.2z M120,281.4l7.5,7.5l-7.5,7.5V281.4z M120,307.6l7.5,7.5l-7.5,7.5
	V307.6z M120,333.8l13.1-13.1l7.5,7.5L120,348.8V333.8z M120,360l20.6,20.6l-7.5,7.5L120,375V360z M120,386.2l7.5,7.5l-7.5,7.5
	V386.2z M120,412.4l7.5,7.5l-7.5,7.5V412.4z M120,438.7l13.1-13.1l7.5,7.5L120,453.7V438.7z M120,464.9l20.6,20.6l-7.5,7.5
	L120,479.9V464.9z M120,491.1l7.5,7.5l-7.5,7.5V491.1z M120,517.3l7.5,7.5l-7.5,7.5V517.3z M120,543.5l13.1-13.1l7.5,7.5L120,558.5
	V543.5z M125.7,564.1l20.6-20.6l7.5,7.5l-13.1,13.1H125.7z M151.9,564.1l7.5-7.5l7.5,7.5H151.9z M165,551l7.5-7.5l7.5,7.5l-7.5,7.5
	L165,551z M178.1,564.1l7.5-7.5l7.5,7.5H178.1z M204.3,564.1L191.2,551l7.5-7.5l20.6,20.6H204.3z M204.3,537.9l7.5-7.5l13.1,13.1
	l13.1-13.1l7.5,7.5l-20.6,20.6L204.3,537.9z M230.5,564.1l20.6-20.6l7.5,7.5l-13.1,13.1H230.5z M256.7,564.1l7.5-7.5l7.5,7.5H256.7z
	 M269.8,551l7.5-7.5l7.5,7.5l-7.5,7.5L269.8,551z M282.9,564.1l7.5-7.5l7.5,7.5H282.9z M309.1,564.1L296,551l7.5-7.5l20.6,20.6
	H309.1z M309.1,537.9l7.5-7.5l13.1,13.1l13.1-13.1l7.5,7.5l-20.6,20.6L309.1,537.9z M335.3,564.1l20.6-20.6l7.5,7.5l-13.1,13.1
	H335.3z M361.5,564.1l7.5-7.5l7.5,7.5H361.5z M374.6,551l7.5-7.5l7.5,7.5l-7.5,7.5L374.6,551z M387.8,564.1l7.5-7.5l7.5,7.5H387.8z
	 M414,564.1L400.8,551l7.5-7.5l20.6,20.6H414z M414,537.9l7.5-7.5l13.1,13.1l13.1-13.1l7.5,7.5l-20.6,20.6L414,537.9z M440.2,564.1
	l20.6-20.6l7.5,7.5l-13.1,13.1H440.2z M466.4,564.1l7.5-7.5l7.5,7.5H466.4z M479.5,551l7.5-7.5l7.5,7.5l-7.5,7.5L479.5,551z
	 M492.6,564.1l7.5-7.5l7.5,7.5H492.6z M518.8,564.1L505.7,551l7.5-7.5l20.6,20.6H518.8z M539.4,558.5l-20.6-20.6l7.5-7.5l13.1,13.1
	V558.5z M539.4,532.3l-7.5-7.5l7.5-7.5V532.3z M539.4,506.1l-7.5-7.5l7.5-7.5V506.1z M539.4,479.9L526.3,493l-7.5-7.5l20.6-20.6
	V479.9z M539.4,453.7L518.8,433l7.5-7.5l13.1,13.1V453.7z M539.4,427.4l-7.5-7.5l7.5-7.5V427.4z M539.4,401.2l-7.5-7.5l7.5-7.5
	V401.2z M539.4,375l-13.1,13.1l-7.5-7.5l20.6-20.6V375z M539.4,348.8l-20.6-20.6l7.5-7.5l13.1,13.1V348.8z M539.4,322.6l-7.5-7.5
	l7.5-7.5V322.6z M539.4,296.4l-7.5-7.5l7.5-7.5V296.4z M539.4,270.2l-13.1,13.1l-7.5-7.5l20.6-20.6V270.2z M539.4,244l-20.6-20.6
	l7.5-7.5l13.1,13.1V244z M539.4,217.8l-7.5-7.5l7.5-7.5V217.8z M539.4,191.6l-7.5-7.5l7.5-7.5V191.6z M539.4,165.4l-13.1,13.1
	l-7.5-7.5l20.6-20.6V165.4z"/>
<g id="MTEXT">
	<text transform="matrix(1 0 0 1 479.175 604.9883)" class="st0 st1">freepatternsarea.com</text>
</g>
<path d="M576.3,624.8v440h499.2v-440H576.3z M1013.4,643.3l15.1,26.1l-17.2,29.8l12.9,22.4l12.9-22.4l4.3,7.5l-10.8,18.7h25.9
	l-4.3,7.5H1022l-17.2-29.9h-25.9l12.9,22.4h-8.6l-10.8-18.7l-12.9,22.4l-4.3-7.5l15.1-26.1h34.5l12.9-22.4h-25.8l4.3-7.5h21.5
	l-12.9-22.4H1013.4z M1043.6,792.6l-4.3,7.5h-30.2l-17.2-29.8H966l12.9,22.4h-8.6l-10.8-18.7l-12.9,22.4l-4.3-7.5l15.1-26.1h34.5
	l12.9-22.4h-25.9l4.3-7.5h21.6l-12.9-22.4h8.6l15.1,26.1l-17.2,29.9l12.9,22.4l12.9-22.4l4.3,7.5l-10.8,18.7H1043.6z M1030.6,859.8
	l-4.3,7.5h-30.2l-17.2-29.8h-25.8l12.9,22.4h-8.6l-10.8-18.7l-12.9,22.4l-4.3-7.5l15.1-26.1h34.5l12.9-22.4H966l4.3-7.5h21.6
	l-12.9-22.4h8.6l15.1,26.1l-17.2,29.9l12.9,22.4l12.9-22.4l4.3,7.5l-10.8,18.7H1030.6z M1017.7,926.9l-4.3,7.5h-30.2L966,904.5
	h-25.9l12.9,22.4h-8.6l-10.8-18.7l-12.9,22.4l-4.3-7.5l15.1-26.1H966l12.9-22.4h-25.8l4.3-7.5h21.5L966,844.8h8.6l15.1,26.1
	l-17.2,29.9l12.9,22.4l12.9-22.4l4.3,7.5l-10.8,18.7H1017.7z M1004.8,994.1l-4.3,7.5h-30.2l-17.2-29.9h-25.9l12.9,22.4h-8.6
	l-10.8-18.6l-12.9,22.4l-4.3-7.5l15.1-26.1h34.5l12.9-22.4h-25.9l4.3-7.5H966L953.1,912h8.6l15.1,26.1L959.5,968l12.9,22.4
	l12.9-22.4l4.3,7.5l-10.8,18.6H1004.8z M940.1,1016.5l-4.3,7.5h-30.2l-17.2-29.9h-25.8l12.9,22.4h-8.6l-10.8-18.7l-12.9,22.4
	l-4.3-7.5l15.1-26.1h34.5l12.9-22.4h-25.9l4.3-7.5h21.5l-12.9-22.4h8.6l15.1,26.1l-17.2,29.8l12.9,22.4l12.9-22.4l4.3,7.5
	l-10.8,18.7H940.1z M823.8,971.7h-8.6l-10.8-18.7l-12.9,22.4l-4.3-7.5l15.1-26.1h34.5l12.9-22.4h-25.9l4.3-7.5h21.5l-12.9-22.4h8.6
	l15.1,26.1l-17.2,29.8l12.9,22.4l12.9-22.4l4.3,7.5l-10.8,18.7h25.8l-4.3,7.5H854l-17.2-29.9h-25.9L823.8,971.7z M823.8,994.1
	l-4.3,7.5h-30.2l-17.2-29.9h-25.9l12.9,22.4h-8.6l-10.8-18.6l-12.9,22.4l-4.3-7.5l15.1-26.1h34.5l12.9-22.4h-25.8l4.3-7.5H785
	L772.1,912h8.6l15.1,26.1L778.5,968l12.9,22.4l12.9-22.4l4.3,7.5l-10.8,18.6H823.8z M759.2,1016.5l-4.3,7.5h-30.2l-17.2-29.9h-25.8
	l12.9,22.4h-8.6l-10.8-18.7l-12.9,22.4l-4.3-7.5l15.1-26.1h34.5l12.9-22.4h-25.9l4.3-7.5h21.5l-12.9-22.4h8.6l15.1,26.1l-17.2,29.8
	l12.9,22.4l12.9-22.4l4.3,7.5l-10.8,18.7H759.2z M642.8,971.7h-8.6l-10.8-18.7l-12.9,22.4l-4.3-7.5l15.1-26.1h34.5l12.9-22.4h-25.9
	l4.3-7.5h21.5l-12.9-22.4h8.6l15.1,26.1l-17.2,29.8l12.9,22.4l12.9-22.4l4.3,7.5l-10.8,18.7h25.8l-4.3,7.5H673l-17.2-29.9h-25.8
	L642.8,971.7z M694.5,688.1h8.6l15.1,26.1L701,744.1l12.9,22.4l12.9-22.4l4.3,7.5l-10.8,18.7h25.8l-4.3,7.5h-30.2l-17.2-29.8h-25.9
	l12.9,22.4H673l-10.8-18.7l-12.9,22.4l-4.3-7.5l15.1-26.1h34.5l12.9-22.4h-25.8l4.3-7.5h21.5L694.5,688.1z M759.2,665.7h8.6
	l15.1,26.1l-17.2,29.8l12.9,22.4l12.9-22.4l4.3,7.5L785,747.8h25.9l-4.3,7.5h-30.2l-17.2-29.9h-25.9l12.9,22.4h-8.6l-10.8-18.7
	l-12.9,22.4l-4.3-7.5l15.1-26.1h34.5l12.9-22.4h-25.9l4.3-7.5h21.5L759.2,665.7z M810.9,710.5h8.6l15.1,26.1l-17.2,29.9l12.9,22.4
	l12.9-22.4l4.3,7.5l-10.8,18.7h25.9l-4.3,7.5h-30.2l-17.2-29.8H785l12.9,22.4h-8.6l-10.8-18.7l-12.9,22.4l-4.3-7.5l15.1-26.1h34.5
	l12.9-22.4h-25.9l4.3-7.5h21.5L810.9,710.5z M875.5,688.1h8.6l15.1,26.1L882,744.1l12.9,22.4l12.9-22.4l4.3,7.5l-10.8,18.7h25.9
	l-4.3,7.5h-30.2l-17.2-29.8h-25.8l12.9,22.4H854l-10.8-18.7l-12.9,22.4l-4.3-7.5l15.1-26.1h34.5l12.9-22.4h-25.8l4.3-7.5h21.5
	L875.5,688.1z M940.1,665.7h8.6l15.1,26.1l-17.2,29.8l12.9,22.4l12.9-22.4l4.3,7.5L966,747.8h25.9l-4.3,7.5h-30.2l-17.2-29.9h-25.8
	l12.9,22.4h-8.6l-10.8-18.7l-12.9,22.4l-4.3-7.5l15.1-26.1h34.5l12.9-22.4h-25.9l4.3-7.5h21.5L940.1,665.7z M978.9,815l-4.3,7.5
	h-30.2l-17.2-29.9h-25.9l12.9,22.4h-8.6l-10.8-18.7L882,818.7l-4.3-7.5l15.1-26.1h34.5l12.9-22.4h-25.8l4.3-7.5h21.5l-12.9-22.4h8.6
	l15.1,26.1l-17.2,29.9l12.9,22.4l12.9-22.4l4.3,7.5L953.1,815H978.9z M966,882.2l-4.3,7.5h-30.2l-17.2-29.8h-25.9l12.9,22.4h-8.6
	L882,863.5L869,885.9l-4.3-7.5l15.1-26.1h34.5l12.9-22.4h-25.9l4.3-7.5h21.5l-12.9-22.4h8.6l15.1,26.1L920.7,856l12.9,22.4
	l12.9-22.4l4.3,7.5l-10.8,18.7H966z M953.1,949.3l-4.3,7.5h-30.2l-17.2-29.9h-25.9l12.9,22.4h-8.6L869,930.7l-12.9,22.4l-4.3-7.5
	l15.1-26.1h34.5l12.9-22.4h-25.9l4.3-7.5h21.6l-12.9-22.4h8.6l15.1,26.1l-17.2,29.9l12.9,22.4l12.9-22.4l4.3,7.5l-10.8,18.7H953.1z
	 M836.7,904.5h-8.6l-10.8-18.7l-12.9,22.4l-4.3-7.5l15.1-26.1h34.5l12.9-22.4h-25.9l4.3-7.5h21.5l-12.9-22.4h8.6l15.1,26.1
	l-17.2,29.9l12.9,22.4l12.9-22.4l4.3,7.5l-10.8,18.7h25.9L897,912h-30.2l-17.2-29.9h-25.9L836.7,904.5z M836.7,926.9l-4.3,7.5h-30.2
	L785,904.5h-25.8l12.9,22.4h-8.6l-10.8-18.7l-12.9,22.4l-4.3-7.5l15.1-26.1H785l12.9-22.4h-25.8l4.3-7.5h21.5L785,844.8h8.6
	l15.1,26.1l-17.2,29.9l12.9,22.4l12.9-22.4l4.3,7.5l-10.8,18.7H836.7z M772.1,949.3l-4.3,7.5h-30.2l-17.2-29.9h-25.9l12.9,22.4h-8.6
	L688,930.7l-12.9,22.4l-4.3-7.5l15.1-26.1h34.5l12.9-22.4h-25.8l4.3-7.5h21.5l-12.9-22.4h8.6l15.1,26.1l-17.2,29.9l12.9,22.4
	l12.9-22.4l4.3,7.5l-10.8,18.7H772.1z M746.2,732.9h8.6l15.1,26.1l-17.2,29.9l12.9,22.4l12.9-22.4l4.3,7.5L772.1,815h25.8l-4.3,7.5
	h-30.2l-17.2-29.9h-25.8l12.9,22.4h-8.6l-10.8-18.7L701,818.7l-4.3-7.5l15.1-26.1h34.5l12.9-22.4h-25.9l4.3-7.5h21.6L746.2,732.9z
	 M797.9,777.7h8.6l15.1,26.1l-17.2,29.9l12.9,22.4l12.9-22.4l4.3,7.5l-10.8,18.7h25.9l-4.3,7.5h-30.2l-17.2-29.8h-25.8l12.9,22.4
	h-8.6l-10.8-18.7l-12.9,22.4l-4.3-7.5l15.1-26.1h34.5l12.9-22.4H785l4.3-7.5h21.5L797.9,777.7z M862.6,755.3h8.6l15.1,26.1
	L869,811.3l12.9,22.4l12.9-22.4l4.3,7.5l-10.8,18.7h25.9l-4.3,7.5h-30.2L862.6,815h-25.9l12.9,22.4H841l-10.8-18.7l-12.9,22.4
	l-4.3-7.5l15.1-26.1h34.5l12.9-22.4h-25.8l4.3-7.5h21.5L862.6,755.3z M724.7,822.5h21.5l-12.9-22.4h8.6l15.1,26.1L739.8,856
	l12.9,22.4l12.9-22.4l4.3,7.5l-10.8,18.7H785l-4.3,7.5h-30.2l-17.2-29.8h-25.8l12.9,22.4h-8.6L701,863.5L688,885.9l-4.3-7.5
	l15.1-26.1h34.5l12.9-22.4h-25.8L724.7,822.5z M673,777.7h21.5l-12.9-22.4h8.6l15.1,26.1L688,811.3l12.9,22.4l12.9-22.4l4.3,7.5
	l-10.8,18.7h25.8l-4.3,7.5h-30.2L681.6,815h-25.9l12.9,22.4H660l-10.8-18.7l-12.9,22.4l-4.3-7.5l15.1-26.1h34.5l12.9-22.4h-25.9
	L673,777.7z M660,844.8h21.6l-12.9-22.4h8.6l15.1,26.1l-17.2,29.9l12.9,22.4l12.9-22.4l4.3,7.5l-10.8,18.7h25.9l-4.3,7.5h-30.2
	l-17.2-29.9h-25.9l12.9,22.4h-8.6l-10.8-18.7l-12.9,22.4l-4.3-7.5l15.1-26.1h34.5l12.9-22.4h-25.9L660,844.8z M985.4,639.6h8.6
	l10.8,18.7h-8.6L985.4,639.6L972.5,662l-4.3-7.5l8.6-14.9H985.4z M959.5,639.6h8.6l-8.6,14.9l12.9,22.4l12.9-22.4l4.3,7.5
	l-10.8,18.7h25.9l-4.3,7.5h-30.2l-17.2-29.9h-25.9l12.9,22.4h-8.6L920.7,662l-12.9,22.4l-4.3-7.5l15.1-26.1h34.5L959.5,639.6z
	 M950.9,639.6l-2.2,3.7h-30.2l-2.2-3.7H950.9z M879.8,643.3h21.5l-2.2-3.7h8.6l4.3,7.5l-17.2,29.8l12.9,22.4l12.9-22.4l4.3,7.5
	L914.3,703h25.8l-4.3,7.5h-30.2l-17.2-29.9h-25.8l12.9,22.4h-8.6l-10.8-18.7l-12.9,22.4l-4.3-7.5l15.1-26.1h34.5l12.9-22.4h-25.9
	L879.8,643.3z M847.5,639.6l8.6,14.9l8.6-14.9h8.6l-10.8,18.7h25.8l-4.3,7.5H854l-15.1-26.1H847.5z M832.4,643.3l15.1,26.1
	l-17.2,29.8l12.9,22.4l12.9-22.4l4.3,7.5l-10.8,18.7h25.8l-4.3,7.5H841L823.8,703h-25.9l12.9,22.4h-8.6l-10.8-18.7l-12.9,22.4
	l-4.3-7.5l15.1-26.1h34.5l12.9-22.4h-25.9l4.3-7.5h21.5l-12.9-22.4H832.4z M804.4,639.6h8.6l10.8,18.7h-8.6L804.4,639.6L791.5,662
	l-4.3-7.5l8.6-14.9H804.4z M778.5,639.6h8.6l-8.6,14.9l12.9,22.4l12.9-22.4l4.3,7.5l-10.8,18.7h25.9l-4.3,7.5h-30.2l-17.2-29.9
	h-25.9l12.9,22.4h-8.6L739.8,662l-12.9,22.4l-4.3-7.5l15.1-26.1h34.5L778.5,639.6z M769.9,639.6l-2.1,3.7h-30.2l-2.1-3.7H769.9z
	 M698.8,643.3h21.5l-2.2-3.7h8.6l4.3,7.5l-17.2,29.8l12.9,22.4l12.9-22.4l4.3,7.5L733.3,703h25.9l-4.3,7.5h-30.2l-17.2-29.9h-25.8
	l12.9,22.4h-8.6l-10.8-18.7l-12.9,22.4l-4.3-7.5l15.1-26.1h34.5l12.9-22.4h-25.9L698.8,643.3z M666.5,639.6l8.6,14.9l8.6-14.9h8.6
	l-10.8,18.7h25.8l-4.3,7.5H673l-15.1-26.1H666.5z M651.4,643.3l15.1,26.1l-17.2,29.8l12.9,22.4l12.9-22.4l4.3,7.5l-10.8,18.7h25.9
	l-4.3,7.5H660L642.8,703H617l12.9,22.4h-8.6l-10.8-18.7l-12.9,22.4l-4.3-7.5l15.1-26.1h34.5l12.9-22.4h-25.8l4.3-7.5h21.5
	l-12.9-22.4H651.4z M623.4,639.6h8.6l10.8,18.7h-8.6L623.4,639.6L610.5,662l-4.3-7.5l8.6-14.9H623.4z M591.1,650.8l6.5-11.2h8.6
	l-8.6,14.9l12.9,22.4l12.9-22.4l4.3,7.5L617,680.6h25.8l-4.3,7.5h-30.2l-17.2-29.9V650.8z M591.1,673.2l10.8,18.7l-10.8,18.7V673.2z
	 M591.1,732.9l6.5,11.2l12.9-22.4l4.3,7.5L604,747.8h25.9l-4.3,7.5h-30.2l-4.3-7.5V732.9z M591.1,770.2l4.3-7.5h34.5l12.9-22.4H617
	l4.3-7.5h21.5l-12.9-22.4h8.6l15.1,26.1l-17.2,29.9l12.9,22.4l12.9-22.4l4.3,7.5l-10.8,18.7h25.9l-4.3,7.5h-30.2l-17.2-29.8H604
	l12.9,22.4h-8.6l-10.8-18.7l-6.5,11.2V770.2z M591.1,815v-14.9l6.5-11.2l4.3,7.5L591.1,815H617l-4.3,7.5h-21.5V815z M591.1,837.4
	v-7.5H617l12.9-22.4H604l4.3-7.5h21.5L617,777.7h8.6l15.1,26.1l-17.2,29.9l12.9,22.4l12.9-22.4l4.3,7.5l-10.8,18.7h25.9l-4.3,7.5
	h-30.2L617,837.4H591.1l12.9,22.4h-8.6l-4.3-7.5V837.4z M591.1,882.2H604l-4.3,7.5h-8.6V882.2z M591.1,897.1H604l12.9-22.4h-25.9
	l4.3-7.5H617L604,844.8h8.6l15.1,26.1l-17.2,29.9l12.9,22.4l12.9-22.4l4.3,7.5l-10.8,18.7h25.8l-4.3,7.5h-30.2L604,904.5h-12.9
	V897.1z M591.1,964.3l12.9-22.4h-12.9v-7.5H604L591.1,912h8.6l15.1,26.1L597.6,968l12.9,22.4l12.9-22.4l4.3,7.5L617,994.1h25.8
	l-4.3,7.5h-30.2l-17.2-29.9V964.3z M591.1,986.7l10.8,18.7l-10.8,18.7V986.7z M591.1,1050.1v-3.7l2.2,3.7H591.1z M610.5,1050.1h-8.6
	l8.6-14.9l4.3,7.5L610.5,1050.1z M619.1,1050.1l2.2-3.7h21.5l-12.9-22.4h8.6l15.1,26.1H619.1z M690.2,1046.4H660l-17.2-29.9H617
	l12.9,22.4h-8.6l-10.8-18.7l-12.9,22.4l-4.3-7.5l15.1-26.1h34.5l12.9-22.4h-25.8l4.3-7.5h21.5l-12.9-22.4h8.6l15.1,26.1l-17.2,29.9
	l12.9,22.4l12.9-22.4l4.3,7.5l-10.8,18.7h25.9L690.2,1046.4z M696.7,1050.1l10.8-18.7h-25.8l4.3-7.5h21.5l-12.9-22.4h8.6l15.1,26.1
	l-12.9,22.4H696.7z M748.4,1050.1l-2.2-3.7h8.6l2.1,3.7H748.4z M765.6,1050.1l-6.5-11.2h-25.9l6.5,11.2h-8.6l-4.3-7.5l-4.3,7.5h-8.6
	l10.8-18.7h34.5l12.9-22.4h-25.9l4.3-7.5h21.5l-12.9-22.4h8.6l15.1,26.1l-17.2,29.8l8.6,14.9H765.6z M791.5,1050.1h-8.6l8.6-14.9
	l4.3,7.5L791.5,1050.1z M800.1,1050.1l2.1-3.7h21.5l-12.9-22.4h8.6l15.1,26.1H800.1z M871.2,1046.4H841l-17.2-29.9h-25.9l12.9,22.4
	h-8.6l-10.8-18.7l-12.9,22.4l-4.3-7.5l15.1-26.1h34.5l12.9-22.4h-25.9l4.3-7.5h21.5l-12.9-22.4h8.6l15.1,26.1l-17.2,29.9l12.9,22.4
	l12.9-22.4l4.3,7.5l-10.8,18.7h25.8L871.2,1046.4z M877.7,1050.1l10.8-18.7h-25.8l4.3-7.5h21.5l-12.9-22.4h8.6l15.1,26.1l-12.9,22.4
	H877.7z M929.4,1050.1l-2.2-3.7h8.6l2.2,3.7H929.4z M946.6,1050.1l-6.5-11.2h-25.8l6.5,11.2h-8.6l-4.3-7.5l-4.3,7.5h-8.6l10.8-18.7
	h34.5l12.9-22.4h-25.9l4.3-7.5h21.5l-12.9-22.4h8.6l15.1,26.1l-17.2,29.8l8.6,14.9H946.6z M972.5,1050.1h-8.6l8.6-14.9l4.3,7.5
	L972.5,1050.1z M981.1,1050.1l2.1-3.7h21.6l-12.9-22.4h8.6l15.1,26.1H981.1z M1052.2,1046.4H1022l-17.2-29.9h-25.9l12.9,22.4h-8.6
	l-10.8-18.7l-12.9,22.4l-4.3-7.5l15.1-26.1h34.5l12.9-22.4h-25.8l4.3-7.5h21.5l-12.9-22.4h8.6l15.1,26.1l-17.2,29.9l12.9,22.4
	l12.9-22.4l4.3,7.5l-10.8,18.7h25.9L1052.2,1046.4z M1060.8,1050.1h-2.2l2.2-3.7V1050.1z M1060.8,1031.4h-17.2l4.3-7.5h12.9V1031.4z
	 M1060.8,1009l-4.3-7.5h4.3V1009z M1060.8,994.1h-17.2l12.9,22.4h-8.6l-10.8-18.7l-12.9,22.4l-4.3-7.5l15.1-26.1h25.9V994.1z
	 M1060.8,979.2h-25.9l-17.2-29.9h-25.8l12.9,22.4h-8.6l-10.8-18.7l-12.9,22.4l-4.3-7.5l15.1-26.1h34.5l12.9-22.4h-25.8l4.3-7.5h21.5
	l-12.9-22.4h8.6l15.1,26.1l-17.2,29.8l12.9,22.4l12.9-22.4l4.3,7.5l-10.8,18.7h17.2V979.2z M1060.8,964.3h-4.3l4.3-7.5V964.3z
	 M1060.8,926.9h-4.3l4.3,7.5v14.9l-10.8-18.7l-12.9,22.4l-4.3-7.5l15.1-26.1h12.9V926.9z M1060.8,897.1l-4.3,7.5h4.3v7.5h-12.9
	l-17.2-29.9h-25.8l12.9,22.4h-8.6l-10.8-18.7l-12.9,22.4l-4.3-7.5l15.1-26.1h34.5l12.9-22.4h-25.9l4.3-7.5h21.6l-12.9-22.4h8.6
	l15.1,26.1l-17.2,29.9l12.9,22.4l10.8-18.7V897.1z M1060.8,867.2l-10.8,18.7l-4.3-7.5l15.1-26.1V867.2z M1060.8,815l-2.2-3.7
	l2.2-3.7V815z M1060.8,792.6l-10.8,18.7l10.8,18.7v14.9l-17.2-29.9h-25.9l12.9,22.4h-8.6l-10.8-18.7l-12.9,22.4l-4.3-7.5l15.1-26.1
	h34.5l12.9-22.4h-25.9l4.3-7.5h21.6l-12.9-22.4h8.6l8.6,14.9V792.6z M1060.8,755.3l-4.3-7.5h-25.9l12.9,22.4h-8.6l-10.8-18.7
	l-12.9,22.4l-4.3-7.5l15.1-26.1h34.5l4.3-7.5V755.3z M1060.8,718h-17.2l4.3-7.5h12.9V718z M1060.8,695.6l-4.3-7.5h4.3V695.6z
	 M1060.8,680.6h-17.2l12.9,22.4h-8.6l-10.8-18.7l-12.9,22.4l-4.3-7.5l15.1-26.1h25.9V680.6z M1060.8,665.7h-25.9l-15.1-26.1h8.6
	l8.6,14.9l8.6-14.9h8.6l-10.8,18.7h17.2V665.7z M1060.8,650.8h-4.3l4.3-7.5V650.8z"/>
<path d="M634.7,134.8v440.6h438.2V134.8H634.7z M1034.1,145.1c0.4,0.5,0.8,1,1.2,1.5c-2.1,0.8-4.1,1.8-6.1,2.8
	c-1.2-1.5-2.5-2.9-3.9-4.3H1034.1z M994.7,145.1h20.2c3.2,2.1,6.1,4.6,8.6,7.6c-1.8,1.2-3.6,2.4-5.3,3.8
	C1012.2,149.6,1003.7,145.5,994.7,145.1C994.7,145.1,994.7,145.1,994.7,145.1C994.7,145.1,994.7,145.1,994.7,145.1z M1013.3,160.6
	c-1.6,1.5-3.1,3-4.6,4.6c-7.5-8.6-20.5-9.6-29.1-2.2c-0.8,0.7-1.5,1.4-2.2,2.2c-1.5-1.6-3-3.2-4.6-4.6c0.7-0.7,1.4-1.4,2.1-2.1
	C986.1,148.5,1003.2,149.4,1013.3,160.6z M979.5,513c-0.8,0.7-1.5,1.4-2.2,2.2c-1.5-1.6-3-3.2-4.6-4.6c0.7-0.7,1.4-1.4,2.1-2.1
	c11.2-10,28.3-9.1,38.3,2.1c-1.6,1.5-3.1,3-4.6,4.6C1001.2,506.5,988.2,505.5,979.5,513z M1004.5,520.3c-1.5,2-2.9,4.1-4.1,6.2
	c-4.9-0.5-9.8-0.5-14.6,0c-1.3-2.1-2.7-4.2-4.1-6.2c0.9-1.2,1.9-2.2,3.1-3.1C991,512.6,999.9,514,1004.5,520.3z M894.1,527.5
	c-2.5,2-4.8,4.3-6.8,6.8c-2-1-4-2-6-2.8c2.9-3.8,6.3-7.2,10.1-10.1c23.3-17.8,56.6-13.3,74.4,10.1c-2.1,0.8-4.1,1.8-6.1,2.8
	C943.4,514.3,914,511.3,894.1,527.5z M953.9,537.6c-1.8,1.2-3.6,2.4-5.3,3.8c-12.3-13.9-33.6-15.2-47.5-2.8c-1,0.9-2,1.8-2.8,2.8
	c-1.7-1.3-3.5-2.6-5.3-3.8c1.3-1.6,2.8-3,4.4-4.4C914.2,518.8,939.5,520.7,953.9,537.6z M889,515c-5.5,3.9-10.3,8.7-14.2,14.2
	c-2.2-0.7-4.4-1.2-6.7-1.7c5-7.7,11.5-14.2,19.2-19.2c30.5-19.9,71.5-11.3,91.4,19.2c-2.3,0.5-4.5,1-6.7,1.7
	C953,502.4,915.8,496,889,515z M840.3,513c-0.8,0.7-1.5,1.4-2.2,2.2c-1.5-1.6-3-3.2-4.6-4.6c0.7-0.7,1.4-1.4,2.1-2.1
	c11.2-10,28.3-9.1,38.3,2.1c-1.6,1.5-3.1,3-4.5,4.6C862,506.5,849,505.5,840.3,513z M865.3,520.3c-1.5,2-2.9,4.1-4.1,6.2
	c-4.9-0.5-9.8-0.5-14.6,0c-1.3-2.1-2.7-4.2-4.1-6.2c0.9-1.2,1.9-2.2,3.1-3.1C851.8,512.6,860.7,514,865.3,520.3z M754.9,527.5
	c-2.5,2-4.8,4.3-6.8,6.8c-2-1-4-2-6-2.8c2.9-3.8,6.3-7.2,10.1-10.1c23.3-17.8,56.6-13.3,74.4,10.1c-2.1,0.8-4.1,1.8-6,2.8
	C804.2,514.3,774.8,511.3,754.9,527.5z M814.7,537.6c-1.8,1.2-3.6,2.4-5.3,3.8c-12.3-13.9-33.6-15.2-47.5-2.8
	c-1,0.9-1.9,1.8-2.8,2.8c-1.7-1.3-3.5-2.6-5.3-3.8c1.4-1.6,2.8-3,4.4-4.4C775,518.8,800.3,520.7,814.7,537.6z M749.8,515
	c-5.5,3.9-10.3,8.7-14.2,14.2c-2.2-0.7-4.4-1.2-6.7-1.7c5-7.7,11.5-14.2,19.2-19.2c30.5-19.9,71.5-11.3,91.4,19.2
	c-2.3,0.5-4.5,1-6.7,1.7C813.8,502.4,776.7,496,749.8,515z M701.1,513c-0.8,0.7-1.5,1.4-2.2,2.2c-1.5-1.6-3-3.2-4.6-4.6
	c0.7-0.7,1.4-1.4,2.1-2.1c11.2-10,28.3-9.1,38.3,2.1c-1.6,1.5-3.1,3-4.6,4.6C722.8,506.5,709.8,505.5,701.1,513z M726.1,520.3
	c-1.5,2-2.9,4.1-4.1,6.2c-4.9-0.5-9.8-0.5-14.6,0c-1.3-2.1-2.6-4.2-4.1-6.2c0.9-1.2,1.9-2.2,3.1-3.1
	C712.6,512.6,721.5,514,726.1,520.3z M769.9,212.6c-2.3,0.5-4.5,1-6.7,1.7c-19-26.8-56.2-33.2-83-14.2c-5.5,3.9-10.3,8.7-14.2,14.2
	c-2.2-0.7-4.4-1.2-6.7-1.7c5-7.7,11.5-14.2,19.2-19.2C709.1,173.4,750,182,769.9,212.6z M703.2,170.3c0.9-1.2,1.9-2.2,3.1-3.1
	c6.3-4.6,15.2-3.2,19.8,3.1c-1.5,2-2.9,4.1-4.1,6.2c-4.9-0.5-9.8-0.5-14.6,0C706,174.4,704.7,172.3,703.2,170.3z M909.1,212.6
	c-2.3,0.5-4.5,1-6.7,1.7c-19-26.8-56.2-33.2-83-14.2c-5.5,3.9-10.3,8.7-14.2,14.2c-2.2-0.7-4.4-1.2-6.7-1.7
	c5-7.7,11.5-14.2,19.2-19.2C848.3,173.4,889.2,182,909.1,212.6z M842.4,170.3c0.9-1.2,1.9-2.2,3.1-3.1c6.3-4.6,15.2-3.2,19.8,3.1
	c-1.5,2-2.9,4.1-4.1,6.2c-4.9-0.5-9.8-0.5-14.6,0C845.2,174.4,843.8,172.3,842.4,170.3z M910,478c-0.8,0.7-1.5,1.4-2.2,2.2
	c-1.5-1.6-3-3.2-4.6-4.6c0.7-0.7,1.4-1.4,2.1-2.1c11.2-10,28.3-9.1,38.3,2.1c-1.6,1.5-3.1,3-4.5,4.6
	C931.6,471.5,918.6,470.5,910,478z M934.9,485.3c-1.5,2-2.9,4.1-4.1,6.2c-4.9-0.5-9.8-0.5-14.6,0c-1.3-2.1-2.7-4.2-4.1-6.2
	c0.9-1.2,1.9-2.2,3.1-3.1C921.4,477.6,930.3,479,934.9,485.3z M824.5,492.5c-2.5,2-4.8,4.3-6.8,6.8c-2-1-4-2-6.1-2.8
	c2.9-3.8,6.3-7.2,10.1-10.1c23.3-17.8,56.6-13.3,74.4,10.1c-2.1,0.8-4.1,1.8-6,2.8C873.8,479.3,844.4,476.3,824.5,492.5z
	 M884.3,502.6c-1.8,1.2-3.6,2.4-5.3,3.8c-12.3-13.9-33.6-15.2-47.5-2.9c-1,0.9-2,1.8-2.8,2.9c-1.7-1.3-3.5-2.6-5.3-3.8
	c1.4-1.6,2.8-3.1,4.4-4.4C844.6,483.8,869.9,485.7,884.3,502.6z M819.4,480c-5.5,3.9-10.3,8.7-14.2,14.2c-2.2-0.7-4.4-1.2-6.7-1.7
	c5-7.7,11.5-14.2,19.2-19.2c30.5-19.9,71.5-11.3,91.4,19.2c-2.3,0.5-4.5,1-6.7,1.7C883.4,467.4,846.3,461,819.4,480z M770.7,478
	c-0.8,0.7-1.5,1.4-2.2,2.2c-1.4-1.6-3-3.2-4.5-4.6c0.7-0.7,1.4-1.4,2.1-2.1c11.2-10,28.3-9.1,38.3,2.1c-1.6,1.5-3.1,3-4.5,4.6
	C792.4,471.5,779.4,470.5,770.7,478z M795.7,485.3c-1.5,2-2.9,4.1-4.1,6.2c-4.9-0.5-9.8-0.5-14.6,0c-1.3-2.1-2.7-4.2-4.1-6.2
	c0.9-1.2,1.9-2.2,3.1-3.1C782.2,477.6,791.1,479,795.7,485.3z M766.1,193.5c11.2-10,28.3-9.1,38.3,2.1c-1.6,1.5-3.1,3-4.5,4.6
	c-7.5-8.7-20.5-9.6-29.2-2.2c-0.8,0.7-1.5,1.4-2.2,2.2c-1.4-1.6-3-3.2-4.5-4.6C764.7,194.8,765.4,194.1,766.1,193.5z M761.9,188.5
	c-1,0.9-1.9,1.8-2.8,2.8c-1.7-1.3-3.5-2.6-5.3-3.8c1.4-1.6,2.8-3,4.4-4.4c16.8-14.4,42.2-12.4,56.6,4.4c-1.8,1.2-3.6,2.4-5.3,3.8
	C797.1,177.5,775.8,176.2,761.9,188.5z M795.7,205.3c-1.5,2-2.9,4.1-4.1,6.2c-4.9-0.5-9.8-0.5-14.6,0c-1.3-2.1-2.7-4.2-4.1-6.2
	c0.9-1.2,1.9-2.2,3.1-3.1C782.2,197.6,791.1,199,795.7,205.3z M839.5,247.6c-2.3,0.5-4.5,1-6.7,1.7c-19-26.9-56.2-33.2-83-14.2
	c-5.5,3.9-10.3,8.7-14.2,14.2c-2.2-0.7-4.4-1.2-6.7-1.7c5-7.7,11.5-14.2,19.2-19.2C778.7,208.4,819.6,217,839.5,247.6z M840.3,443
	c-0.8,0.7-1.5,1.4-2.2,2.2c-1.5-1.6-3-3.2-4.6-4.6c0.7-0.7,1.4-1.4,2.1-2.1c11.2-10,28.3-9.1,38.3,2.1c-1.6,1.5-3.1,3-4.5,4.6
	C862,436.5,849,435.5,840.3,443z M865.3,450.3c-1.5,2-2.9,4.1-4.1,6.2c-4.9-0.5-9.8-0.5-14.6,0c-1.3-2.1-2.7-4.2-4.1-6.2
	c0.9-1.2,1.9-2.2,3.1-3.1C851.8,442.6,860.7,444,865.3,450.3z M831.5,433.5c-1,0.9-2,1.8-2.8,2.8c-1.7-1.3-3.5-2.6-5.3-3.8
	c1.4-1.6,2.8-3.1,4.4-4.4c16.8-14.4,42.2-12.4,56.6,4.4c-1.8,1.2-3.6,2.4-5.3,3.8C866.7,422.5,845.4,421.2,831.5,433.5z
	 M824.5,422.5c-2.5,2-4.8,4.3-6.8,6.8c-2-1-4-1.9-6.1-2.8c2.9-3.8,6.3-7.2,10.1-10.1c23.3-17.8,56.6-13.3,74.4,10.1
	c-2.1,0.8-4.1,1.8-6,2.8C873.8,409.3,844.4,406.3,824.5,422.5z M819.4,410c-5.5,3.9-10.3,8.7-14.2,14.2c-2.2-0.7-4.4-1.2-6.7-1.7
	c5-7.7,11.5-14.2,19.2-19.2c30.5-19.9,71.5-11.3,91.4,19.2c-2.3,0.5-4.5,1-6.7,1.7C883.4,397.4,846.3,391,819.4,410z M842.4,380.3
	c0.9-1.2,1.9-2.2,3.1-3.1c6.3-4.6,15.2-3.2,19.8,3.1c-1.5,2-2.9,4.1-4.1,6.2c-4.9-0.5-9.8-0.5-14.6,0
	C845.2,384.4,843.8,382.3,842.4,380.3z M840.3,373c-0.8,0.7-1.5,1.4-2.2,2.2c-1.5-1.6-3-3.2-4.6-4.6c0.7-0.7,1.4-1.4,2.1-2.1
	c11.2-10,28.3-9.1,38.3,2.1c-1.6,1.5-3.1,3-4.5,4.6C862,366.5,849,365.6,840.3,373z M831.5,363.5c-1,0.9-2,1.8-2.8,2.8
	c-1.7-1.3-3.5-2.6-5.3-3.8c1.4-1.6,2.8-3.1,4.4-4.4c16.8-14.4,42.2-12.4,56.6,4.4c-1.8,1.2-3.6,2.4-5.3,3.8
	C866.7,352.5,845.4,351.2,831.5,363.5z M824.5,352.5c-2.5,2-4.8,4.3-6.8,6.8c-2-1-4-2-6.1-2.8c2.9-3.8,6.3-7.2,10.1-10.1
	c23.3-17.8,56.6-13.3,74.4,10.1c-2.1,0.8-4.1,1.8-6,2.8C873.8,339.3,844.4,336.3,824.5,352.5z M819.4,340.1
	c-5.5,3.9-10.3,8.7-14.2,14.2c-2.2-0.7-4.4-1.2-6.7-1.7c5-7.7,11.5-14.2,19.2-19.2c30.5-19.9,71.5-11.3,91.4,19.2
	c-2.3,0.5-4.5,1-6.7,1.7C883.4,327.4,846.3,321,819.4,340.1z M842.4,310.3c0.9-1.2,1.9-2.2,3.1-3.1c6.3-4.6,15.2-3.2,19.8,3.1
	c-1.5,2-2.9,4.1-4.1,6.2c-4.9-0.5-9.8-0.5-14.6,0C845.2,314.4,843.8,312.3,842.4,310.3z M840.3,303c-0.8,0.7-1.5,1.4-2.2,2.2
	c-1.5-1.6-3-3.2-4.6-4.6c0.7-0.7,1.4-1.4,2.1-2.1c11.2-10,28.3-9.1,38.3,2.1c-1.6,1.5-3.1,3-4.5,4.6C862,296.5,849,295.6,840.3,303z
	 M831.5,293.5c-1,0.9-2,1.8-2.8,2.8c-1.7-1.3-3.5-2.6-5.3-3.8c1.4-1.6,2.8-3,4.4-4.4c16.8-14.4,42.2-12.4,56.6,4.4
	c-1.8,1.2-3.6,2.4-5.3,3.8C866.7,282.5,845.4,281.2,831.5,293.5z M824.5,282.5c-2.5,2-4.8,4.3-6.8,6.8c-2-1-4-2-6.1-2.8
	c2.9-3.8,6.3-7.2,10.1-10.1c23.3-17.8,56.6-13.3,74.4,10.1c-2.1,0.8-4.1,1.8-6,2.8C873.8,269.3,844.4,266.3,824.5,282.5z
	 M819.4,270.1c-5.5,3.9-10.3,8.7-14.2,14.2c-2.2-0.7-4.4-1.2-6.7-1.7c5-7.7,11.5-14.2,19.2-19.2c30.5-19.9,71.5-11.3,91.4,19.2
	c-2.3,0.5-4.5,1-6.7,1.7C883.4,257.4,846.3,251.1,819.4,270.1z M842.4,240.3c0.9-1.2,1.9-2.2,3.1-3.1c6.3-4.6,15.2-3.2,19.8,3.1
	c-1.5,2-2.9,4.1-4.1,6.2c-4.9-0.5-9.8-0.5-14.6,0C845.2,244.4,843.8,242.3,842.4,240.3z M840.3,233c-0.8,0.7-1.5,1.4-2.2,2.2
	c-1.5-1.6-3-3.2-4.6-4.6c0.7-0.7,1.4-1.4,2.1-2.1c11.2-10,28.3-9.1,38.3,2.1c-1.6,1.5-3.1,3-4.5,4.6C862,226.5,849,225.6,840.3,233z
	 M831.5,223.5c-1,0.9-2,1.8-2.8,2.8c-1.7-1.3-3.5-2.6-5.3-3.8c1.4-1.6,2.8-3.1,4.4-4.4c16.8-14.4,42.2-12.4,56.6,4.4
	c-1.8,1.2-3.6,2.4-5.3,3.8C866.7,212.5,845.4,211.2,831.5,223.5z M824.5,212.5c-2.5,2-4.8,4.3-6.8,6.8c-2-1-4-2-6.1-2.8
	c2.9-3.8,6.3-7.2,10.1-10.1c23.3-17.8,56.6-13.3,74.4,10.1c-2.1,0.8-4.1,1.8-6,2.8C873.8,199.3,844.4,196.3,824.5,212.5z
	 M752.1,241.5c23.3-17.8,56.6-13.3,74.4,10.1c-2.1,0.8-4.1,1.8-6,2.8c-16.2-20-45.6-23-65.5-6.8c-2.5,2-4.8,4.3-6.8,6.8
	c-2-1-4-2-6-2.8C744.9,247.7,748.3,244.3,752.1,241.5z M758.2,253.2c16.8-14.4,42.2-12.4,56.6,4.4c-1.8,1.2-3.6,2.4-5.3,3.8
	c-12.3-13.9-33.6-15.2-47.5-2.8c-1,0.9-1.9,1.8-2.8,2.8c-1.7-1.3-3.5-2.6-5.3-3.8C755.1,256,756.6,254.5,758.2,253.2z M766.1,263.5
	c11.2-10,28.3-9.1,38.3,2.1c-1.6,1.5-3.1,3-4.5,4.6c-7.5-8.7-20.5-9.6-29.2-2.2c-0.8,0.7-1.5,1.4-2.2,2.2c-1.4-1.6-3-3.2-4.5-4.6
	C764.7,264.8,765.4,264.1,766.1,263.5z M795.7,275.3c-1.5,2-2.9,4-4.1,6.2c-4.9-0.5-9.8-0.5-14.6,0c-1.3-2.1-2.7-4.2-4.1-6.2
	c0.9-1.2,1.9-2.2,3.1-3.1C782.2,267.6,791.1,269,795.7,275.3z M839.5,317.6c-2.3,0.5-4.5,1-6.7,1.7c-19-26.8-56.2-33.2-83-14.2
	c-5.5,3.9-10.3,8.7-14.2,14.2c-2.2-0.7-4.4-1.2-6.7-1.7c5-7.7,11.5-14.2,19.2-19.2C778.7,278.4,819.6,287,839.5,317.6z M752.1,311.5
	c23.3-17.8,56.6-13.3,74.4,10.1c-2.1,0.8-4.1,1.8-6,2.8c-16.2-20-45.6-23-65.5-6.8c-2.5,2-4.8,4.3-6.8,6.8c-2-1-4-2-6-2.8
	C744.9,317.7,748.3,314.3,752.1,311.5z M758.2,323.2c16.8-14.4,42.2-12.4,56.6,4.4c-1.8,1.2-3.6,2.4-5.3,3.8
	c-12.3-13.9-33.6-15.2-47.5-2.8c-1,0.9-1.9,1.8-2.8,2.8c-1.7-1.3-3.5-2.6-5.3-3.8C755.1,326,756.6,324.5,758.2,323.2z M766.1,333.5
	c11.2-10,28.3-9.1,38.3,2.1c-1.6,1.5-3.1,3-4.5,4.6c-7.5-8.7-20.5-9.6-29.2-2.2c-0.8,0.7-1.5,1.4-2.2,2.2c-1.4-1.6-3-3.2-4.5-4.6
	C764.7,334.8,765.4,334.1,766.1,333.5z M795.7,345.3c-1.5,2-2.9,4.1-4.1,6.2c-4.9-0.5-9.8-0.5-14.6,0c-1.3-2.1-2.7-4.2-4.1-6.2
	c0.9-1.2,1.9-2.2,3.1-3.1C782.2,337.6,791.1,339,795.7,345.3z M839.5,387.6c-2.3,0.5-4.5,1-6.7,1.7c-19-26.8-56.2-33.2-83-14.2
	c-5.5,3.9-10.3,8.7-14.2,14.2c-2.2-0.7-4.4-1.2-6.7-1.7c5-7.7,11.5-14.2,19.2-19.2C778.7,348.4,819.6,357,839.5,387.6z M752.1,381.4
	c23.3-17.8,56.6-13.3,74.4,10.1c-2.1,0.8-4.1,1.8-6,2.8c-16.2-20-45.6-23-65.5-6.8c-2.5,2-4.8,4.3-6.8,6.8c-2-1-4-2-6-2.8
	C744.9,387.7,748.3,384.3,752.1,381.4z M758.2,393.2c16.8-14.4,42.2-12.4,56.6,4.4c-1.8,1.2-3.6,2.4-5.3,3.8
	c-12.3-13.9-33.6-15.2-47.5-2.8c-1,0.9-1.9,1.8-2.8,2.8c-1.7-1.3-3.5-2.6-5.3-3.8C755.1,396,756.6,394.5,758.2,393.2z M766.1,403.5
	c11.2-10,28.3-9.1,38.3,2.1c-1.6,1.5-3.1,3-4.5,4.6c-7.5-8.6-20.5-9.6-29.2-2.2c-0.8,0.7-1.5,1.4-2.2,2.2c-1.4-1.6-3-3.2-4.5-4.6
	C764.7,404.8,765.4,404.1,766.1,403.5z M795.7,415.3c-1.5,2-2.9,4.1-4.1,6.2c-4.9-0.5-9.8-0.5-14.6,0c-1.3-2.1-2.7-4.2-4.1-6.2
	c0.9-1.2,1.9-2.2,3.1-3.1C782.2,407.6,791.1,409,795.7,415.3z M839.5,457.5c-2.3,0.5-4.5,1-6.7,1.7c-19-26.8-56.2-33.2-83-14.2
	c-5.5,3.9-10.3,8.7-14.2,14.2c-2.2-0.7-4.4-1.2-6.7-1.7c5-7.7,11.5-14.2,19.2-19.2C778.7,418.4,819.6,427,839.5,457.5z M752.1,451.4
	c23.3-17.8,56.6-13.3,74.4,10.1c-2.1,0.8-4.1,1.8-6,2.8c-16.2-20-45.6-23-65.5-6.8c-2.5,2-4.8,4.3-6.8,6.8c-2-1-4-2-6-2.8
	C744.9,457.7,748.3,454.3,752.1,451.4z M758.2,463.2c16.8-14.4,42.2-12.4,56.6,4.4c-1.8,1.2-3.6,2.4-5.3,3.8
	c-12.3-13.9-33.6-15.2-47.5-2.8c-1,0.9-1.9,1.8-2.8,2.8c-1.7-1.3-3.5-2.6-5.3-3.8C755.1,466,756.6,464.5,758.2,463.2z M901.1,468.5
	c-1,0.9-2,1.8-2.8,2.8c-1.7-1.3-3.5-2.6-5.3-3.8c1.3-1.6,2.8-3,4.4-4.4c16.8-14.4,42.2-12.4,56.5,4.4c-1.8,1.2-3.6,2.4-5.3,3.8
	C936.3,457.5,915,456.2,901.1,468.5z M894.1,457.5c-2.5,2-4.8,4.3-6.8,6.8c-2-1-4-2-6-2.8c2.9-3.8,6.3-7.2,10.1-10.1
	c23.3-17.8,56.6-13.3,74.4,10.1c-2.1,0.8-4.1,1.8-6.1,2.8C943.4,444.3,914,441.3,894.1,457.5z M889,445c-5.5,3.9-10.3,8.7-14.2,14.2
	c-2.2-0.7-4.4-1.2-6.7-1.7c5-7.7,11.5-14.2,19.2-19.2c30.5-19.9,71.5-11.3,91.4,19.2c-2.3,0.5-4.5,1-6.7,1.7
	C953,432.4,915.8,426,889,445z M912,415.3c0.9-1.2,1.9-2.2,3.1-3.1c6.3-4.6,15.2-3.2,19.8,3.1c-1.5,2-2.9,4.1-4.1,6.2
	c-4.9-0.5-9.8-0.5-14.6,0C914.8,419.4,913.5,417.3,912,415.3z M910,408c-0.8,0.7-1.5,1.4-2.2,2.2c-1.5-1.6-3-3.2-4.6-4.6
	c0.7-0.7,1.4-1.4,2.1-2.1c11.2-10,28.3-9.1,38.3,2.1c-1.6,1.5-3.1,3-4.5,4.6C931.6,401.5,918.6,400.6,910,408z M901.1,398.5
	c-1,0.9-2,1.8-2.8,2.8c-1.7-1.3-3.5-2.6-5.3-3.8c1.3-1.6,2.8-3.1,4.4-4.4c16.8-14.4,42.2-12.4,56.5,4.4c-1.8,1.2-3.6,2.4-5.3,3.8
	C936.3,387.5,915,386.2,901.1,398.5z M894.1,387.5c-2.5,2-4.8,4.3-6.8,6.8c-2-1-4-2-6-2.8c2.9-3.8,6.3-7.2,10.1-10.1
	c23.3-17.8,56.6-13.3,74.4,10.1c-2.1,0.8-4.1,1.8-6.1,2.8C943.4,374.3,914,371.3,894.1,387.5z M889,375.1
	c-5.5,3.9-10.3,8.7-14.2,14.2c-2.2-0.7-4.4-1.2-6.7-1.7c5-7.7,11.5-14.2,19.2-19.2c30.5-19.9,71.5-11.3,91.4,19.2
	c-2.3,0.5-4.5,1-6.7,1.7C953,362.4,915.8,356,889,375.1z M912,345.3c0.9-1.2,1.9-2.2,3.1-3.1c6.3-4.6,15.2-3.2,19.8,3.1
	c-1.5,2-2.9,4.1-4.1,6.2c-4.9-0.5-9.8-0.5-14.6,0C914.8,349.4,913.5,347.3,912,345.3z M910,338c-0.8,0.7-1.5,1.4-2.2,2.2
	c-1.5-1.6-3-3.2-4.6-4.6c0.7-0.7,1.4-1.4,2.1-2.1c11.2-10,28.3-9.1,38.3,2.1c-1.6,1.5-3.1,3-4.5,4.6
	C931.6,331.5,918.6,330.6,910,338z M901.1,328.5c-1,0.9-2,1.8-2.8,2.8c-1.7-1.3-3.5-2.6-5.3-3.8c1.3-1.6,2.8-3.1,4.4-4.4
	c16.8-14.4,42.2-12.4,56.5,4.4c-1.8,1.2-3.6,2.4-5.3,3.8C936.3,317.5,915,316.2,901.1,328.5z M894.1,317.5c-2.5,2-4.8,4.3-6.8,6.8
	c-2-1-4-2-6-2.8c2.9-3.8,6.3-7.2,10.1-10.1c23.3-17.8,56.6-13.3,74.4,10.1c-2.1,0.8-4.1,1.8-6.1,2.8
	C943.4,304.3,914,301.3,894.1,317.5z M889,305.1c-5.5,3.9-10.3,8.7-14.2,14.2c-2.2-0.7-4.4-1.2-6.7-1.7c5-7.7,11.5-14.2,19.2-19.2
	c30.5-19.9,71.5-11.3,91.4,19.2c-2.3,0.5-4.5,1-6.7,1.7C953,292.4,915.8,286.1,889,305.1z M912,275.3c0.9-1.2,1.9-2.2,3.1-3.1
	c6.3-4.6,15.2-3.2,19.8,3.1c-1.5,2-2.9,4-4.1,6.2c-4.9-0.5-9.8-0.5-14.6,0C914.8,279.4,913.5,277.3,912,275.3z M910,268
	c-0.8,0.7-1.5,1.4-2.2,2.2c-1.5-1.6-3-3.2-4.6-4.6c0.7-0.7,1.4-1.4,2.1-2.1c11.2-10,28.3-9.1,38.3,2.1c-1.6,1.5-3.1,3-4.5,4.6
	C931.6,261.5,918.6,260.6,910,268z M901.1,258.5c-1,0.9-2,1.8-2.8,2.8c-1.7-1.3-3.5-2.6-5.3-3.8c1.3-1.6,2.8-3.1,4.4-4.4
	c16.8-14.4,42.2-12.4,56.5,4.4c-1.8,1.2-3.6,2.4-5.3,3.8C936.3,247.5,915,246.2,901.1,258.5z M894.1,247.5c-2.5,2-4.8,4.3-6.8,6.8
	c-2-1-4-2-6-2.8c2.9-3.8,6.3-7.2,10.1-10.1c23.3-17.8,56.6-13.3,74.4,10.1c-2.1,0.8-4.1,1.8-6.1,2.8
	C943.4,234.3,914,231.3,894.1,247.5z M889,235.1c-5.5,3.9-10.3,8.7-14.2,14.2c-2.2-0.7-4.4-1.2-6.7-1.7c5-7.7,11.5-14.2,19.2-19.2
	c30.5-19.9,71.5-11.3,91.4,19.2c-2.3,0.5-4.5,1-6.7,1.7C953,222.4,915.8,216.1,889,235.1z M912,205.3c0.9-1.2,1.9-2.2,3.1-3.1
	c6.3-4.6,15.2-3.2,19.8,3.1c-1.5,2-2.9,4.1-4.1,6.2c-4.9-0.5-9.8-0.5-14.6,0C914.8,209.4,913.5,207.3,912,205.3z M910,198
	c-0.8,0.7-1.5,1.4-2.2,2.2c-1.5-1.6-3-3.2-4.6-4.6c0.7-0.7,1.4-1.4,2.1-2.1c11.2-10,28.3-9.1,38.3,2.1c-1.6,1.5-3.1,3-4.5,4.6
	C931.6,191.6,918.6,190.6,910,198z M901.1,188.5c-1,0.9-2,1.8-2.8,2.8c-1.7-1.3-3.5-2.6-5.3-3.8c1.3-1.6,2.8-3,4.4-4.4
	c16.8-14.4,42.2-12.4,56.5,4.4c-1.8,1.2-3.6,2.4-5.3,3.8C936.3,177.5,915,176.2,901.1,188.5z M894.1,177.5c-2.5,2-4.8,4.3-6.8,6.8
	c-2-1-4-2-6-2.8c2.9-3.8,6.3-7.2,10.1-10.1c23.3-17.8,56.6-13.3,74.4,10.1c-2.1,0.8-4.1,1.8-6.1,2.8
	C943.4,164.3,914,161.3,894.1,177.5z M820.4,184.3c-16.2-20-45.6-23-65.5-6.8c-2.5,2-4.8,4.3-6.8,6.8c-2-1-4-2-6-2.8
	c2.9-3.8,6.3-7.2,10.1-10.1c23.3-17.8,56.6-13.3,74.4,10.1C824.4,182.4,822.4,183.3,820.4,184.3z M682.5,206.5
	c23.3-17.8,56.6-13.3,74.4,10.1c-2.1,0.8-4.1,1.8-6,2.8c-16.2-20-45.6-23-65.5-6.8c-2.5,2-4.8,4.3-6.8,6.8c-2-1-4-2-6-2.8
	C675.3,212.7,678.7,209.3,682.5,206.5z M688.5,218.2c16.8-14.4,42.2-12.4,56.6,4.4c-1.8,1.2-3.6,2.4-5.3,3.8
	c-12.3-13.9-33.6-15.2-47.5-2.8c-1,0.9-2,1.8-2.8,2.8c-1.7-1.3-3.5-2.6-5.3-3.8C685.5,221,687,219.5,688.5,218.2z M696.5,228.5
	c11.2-10,28.3-9.1,38.3,2.1c-1.6,1.5-3.1,3-4.6,4.6c-7.4-8.7-20.5-9.6-29.1-2.2c-0.8,0.7-1.5,1.4-2.2,2.2c-1.5-1.6-3-3.2-4.6-4.6
	C695.1,229.8,695.8,229.1,696.5,228.5z M726.1,240.3c-1.5,2-2.9,4.1-4.1,6.2c-4.9-0.5-9.8-0.5-14.6,0c-1.3-2.1-2.6-4.2-4.1-6.2
	c0.9-1.2,1.9-2.2,3.1-3.1C712.6,232.6,721.5,234,726.1,240.3z M769.9,282.6c-2.3,0.5-4.5,1-6.7,1.7c-19-26.8-56.2-33.2-83-14.2
	c-5.5,3.9-10.3,8.7-14.2,14.2c-2.2-0.7-4.4-1.2-6.7-1.7c5-7.7,11.5-14.2,19.2-19.2C709.1,243.4,750,252,769.9,282.6z M682.5,276.5
	c23.3-17.8,56.6-13.3,74.4,10.1c-2.1,0.8-4.1,1.8-6,2.8c-16.2-20-45.6-23-65.5-6.8c-2.5,2-4.8,4.3-6.8,6.8c-2-1-4-2-6-2.8
	C675.3,282.7,678.7,279.3,682.5,276.5z M688.5,288.2c16.8-14.4,42.2-12.4,56.6,4.4c-1.8,1.2-3.6,2.4-5.3,3.8
	c-12.3-13.9-33.6-15.2-47.5-2.8c-1,0.9-2,1.8-2.8,2.8c-1.7-1.3-3.5-2.6-5.3-3.8C685.5,291,687,289.5,688.5,288.2z M696.5,298.5
	c11.2-10,28.3-9.1,38.3,2.1c-1.6,1.5-3.1,3-4.6,4.6c-7.4-8.7-20.5-9.6-29.1-2.2c-0.8,0.7-1.5,1.4-2.2,2.2c-1.5-1.6-3-3.2-4.6-4.6
	C695.1,299.8,695.8,299.1,696.5,298.5z M726.1,310.3c-1.5,2-2.9,4.1-4.1,6.2c-4.9-0.5-9.8-0.5-14.6,0c-1.3-2.1-2.6-4.2-4.1-6.2
	c0.9-1.2,1.9-2.2,3.1-3.1C712.6,302.6,721.5,304,726.1,310.3z M769.9,352.6c-2.3,0.5-4.5,1-6.7,1.7c-19-26.8-56.2-33.2-83-14.2
	c-5.5,3.9-10.3,8.7-14.2,14.2c-2.2-0.7-4.4-1.2-6.7-1.7c5-7.7,11.5-14.2,19.2-19.2C709.1,313.4,750,322,769.9,352.6z M682.5,346.4
	c23.3-17.8,56.6-13.3,74.4,10.1c-2.1,0.8-4.1,1.8-6,2.8c-16.2-20-45.6-23-65.5-6.8c-2.5,2-4.8,4.3-6.8,6.8c-2-1-4-2-6-2.8
	C675.3,352.7,678.7,349.3,682.5,346.4z M688.5,358.2c16.8-14.4,42.2-12.4,56.6,4.4c-1.8,1.2-3.6,2.4-5.3,3.8
	c-12.3-13.9-33.6-15.2-47.5-2.8c-1,0.9-2,1.8-2.8,2.8c-1.7-1.3-3.5-2.6-5.3-3.8C685.5,361,687,359.5,688.5,358.2z M696.5,368.5
	c11.2-10,28.3-9.1,38.3,2.1c-1.6,1.5-3.1,3-4.6,4.6c-7.4-8.7-20.5-9.6-29.1-2.2c-0.8,0.7-1.5,1.4-2.2,2.2c-1.5-1.6-3-3.2-4.6-4.6
	C695.1,369.8,695.8,369.1,696.5,368.5z M726.1,380.3c-1.5,2-2.9,4.1-4.1,6.2c-4.9-0.5-9.8-0.5-14.6,0c-1.3-2.1-2.6-4.2-4.1-6.2
	c0.9-1.2,1.9-2.2,3.1-3.1C712.6,372.6,721.5,374,726.1,380.3z M769.9,422.6c-2.3,0.5-4.5,1-6.7,1.7c-19-26.8-56.2-33.2-83-14.2
	c-5.5,3.9-10.3,8.7-14.2,14.2c-2.2-0.7-4.4-1.2-6.7-1.7c5-7.7,11.5-14.2,19.2-19.2C709.1,383.4,750,392,769.9,422.6z M682.5,416.4
	c23.3-17.8,56.6-13.3,74.4,10.1c-2.1,0.8-4.1,1.8-6,2.8c-16.2-20-45.6-23-65.5-6.8c-2.5,2-4.8,4.3-6.8,6.8c-2-1-4-1.9-6-2.8
	C675.3,422.7,678.7,419.3,682.5,416.4z M688.5,428.2c16.8-14.4,42.2-12.4,56.6,4.4c-1.8,1.2-3.6,2.4-5.3,3.8
	c-12.3-13.9-33.6-15.2-47.5-2.8c-1,0.9-2,1.8-2.8,2.8c-1.7-1.3-3.5-2.6-5.3-3.8C685.5,431,687,429.5,688.5,428.2z M696.5,438.4
	c11.2-10,28.3-9.1,38.3,2.1c-1.6,1.5-3.1,3-4.6,4.6c-7.4-8.6-20.5-9.6-29.1-2.2c-0.8,0.7-1.5,1.4-2.2,2.2c-1.5-1.6-3-3.2-4.6-4.6
	C695.1,439.8,695.8,439.1,696.5,438.4z M726.1,450.3c-1.5,2-2.9,4.1-4.1,6.2c-4.9-0.5-9.8-0.5-14.6,0c-1.3-2.1-2.6-4.2-4.1-6.2
	c0.9-1.2,1.9-2.2,3.1-3.1C712.6,442.6,721.5,444,726.1,450.3z M769.9,492.5c-2.3,0.5-4.5,1-6.7,1.7c-19-26.8-56.2-33.2-83-14.2
	c-5.5,3.9-10.3,8.7-14.2,14.2c-2.2-0.7-4.4-1.2-6.7-1.7c5-7.7,11.5-14.2,19.2-19.2C709.1,453.4,750,462,769.9,492.5z M682.5,486.4
	c23.3-17.8,56.6-13.3,74.4,10.1c-2.1,0.8-4.1,1.8-6,2.8c-16.2-20-45.6-23-65.5-6.8c-2.5,2-4.8,4.3-6.8,6.8c-2-1-4-2-6-2.8
	C675.3,492.7,678.7,489.3,682.5,486.4z M688.5,498.2c16.8-14.4,42.2-12.4,56.6,4.4c-1.8,1.2-3.6,2.4-5.3,3.8
	c-12.3-13.9-33.6-15.2-47.5-2.9c-1,0.9-2,1.8-2.8,2.9c-1.7-1.3-3.5-2.6-5.3-3.8C685.5,501,687,499.5,688.5,498.2z M970.7,503.5
	c-1,0.9-2,1.8-2.8,2.9c-1.7-1.3-3.5-2.6-5.3-3.8c1.4-1.6,2.8-3.1,4.4-4.4c16.8-14.4,42.1-12.4,56.5,4.4c-1.8,1.2-3.6,2.4-5.3,3.8
	C1005.9,492.4,984.6,491.2,970.7,503.5z M963.7,492.5c-2.5,2-4.8,4.3-6.8,6.8c-2-1-4-2-6-2.8c2.9-3.8,6.3-7.2,10.1-10.1
	c23.3-17.8,56.6-13.3,74.4,10.1c-2.1,0.8-4.1,1.8-6.1,2.8C1013,479.3,983.6,476.3,963.7,492.5z M958.6,480
	c-5.5,3.9-10.3,8.7-14.2,14.2c-2.2-0.7-4.4-1.2-6.7-1.7c5-7.7,11.5-14.2,19.2-19.2c30.5-19.9,71.5-11.3,91.4,19.2
	c-2.3,0.5-4.5,1-6.7,1.7C1022.6,467.4,985.5,461,958.6,480z M981.6,450.3c0.9-1.2,1.9-2.2,3.1-3.1c6.3-4.6,15.2-3.2,19.8,3.1
	c-1.5,2-2.9,4.1-4.1,6.2c-4.9-0.5-9.8-0.5-14.6,0C984.4,454.4,983,452.3,981.6,450.3z M979.5,443c-0.8,0.7-1.5,1.4-2.2,2.2
	c-1.5-1.6-3-3.2-4.6-4.6c0.7-0.7,1.4-1.4,2.1-2.1c11.2-10,28.3-9.1,38.3,2.1c-1.6,1.5-3.1,3-4.6,4.6
	C1001.2,436.5,988.2,435.5,979.5,443z M970.7,433.5c-1,0.9-2,1.8-2.8,2.8c-1.7-1.3-3.5-2.6-5.3-3.8c1.4-1.6,2.8-3.1,4.4-4.4
	c16.8-14.4,42.1-12.4,56.5,4.4c-1.8,1.2-3.6,2.4-5.3,3.8C1005.9,422.5,984.6,421.2,970.7,433.5z M963.7,422.5
	c-2.5,2-4.8,4.3-6.8,6.8c-2-1-4-1.9-6-2.8c2.9-3.8,6.3-7.2,10.1-10.1c23.3-17.8,56.6-13.3,74.4,10.1c-2.1,0.8-4.1,1.8-6.1,2.8
	C1013,409.3,983.6,406.3,963.7,422.5z M958.6,410c-5.5,3.9-10.3,8.7-14.2,14.2c-2.2-0.7-4.4-1.2-6.7-1.7c5-7.7,11.5-14.2,19.2-19.2
	c30.5-19.9,71.5-11.3,91.4,19.2c-2.3,0.5-4.5,1-6.7,1.7C1022.6,397.4,985.5,391,958.6,410z M981.6,380.3c0.9-1.2,1.9-2.2,3.1-3.1
	c6.3-4.6,15.2-3.2,19.8,3.1c-1.5,2-2.9,4.1-4.1,6.2c-4.9-0.5-9.8-0.5-14.6,0C984.4,384.4,983,382.3,981.6,380.3z M979.5,373
	c-0.8,0.7-1.5,1.4-2.2,2.2c-1.5-1.6-3-3.2-4.6-4.6c0.7-0.7,1.4-1.4,2.1-2.1c11.2-10,28.3-9.1,38.3,2.1c-1.6,1.5-3.1,3-4.6,4.6
	C1001.2,366.5,988.2,365.6,979.5,373z M970.7,363.5c-1,0.9-2,1.8-2.8,2.8c-1.7-1.3-3.5-2.6-5.3-3.8c1.4-1.6,2.8-3.1,4.4-4.4
	c16.8-14.4,42.1-12.4,56.5,4.4c-1.8,1.2-3.6,2.4-5.3,3.8C1005.9,352.5,984.6,351.2,970.7,363.5z M963.7,352.5
	c-2.5,2-4.8,4.3-6.8,6.8c-2-1-4-2-6-2.8c2.9-3.8,6.3-7.2,10.1-10.1c23.3-17.8,56.6-13.3,74.4,10.1c-2.1,0.8-4.1,1.8-6.1,2.8
	C1013,339.3,983.6,336.3,963.7,352.5z M958.6,340.1c-5.5,3.9-10.3,8.7-14.2,14.2c-2.2-0.7-4.4-1.2-6.7-1.7
	c5-7.7,11.5-14.2,19.2-19.2c30.5-19.9,71.5-11.3,91.4,19.2c-2.3,0.5-4.5,1-6.7,1.7C1022.6,327.4,985.5,321,958.6,340.1z
	 M981.6,310.3c0.9-1.2,1.9-2.2,3.1-3.1c6.3-4.6,15.2-3.2,19.8,3.1c-1.5,2-2.9,4.1-4.1,6.2c-4.9-0.5-9.8-0.5-14.6,0
	C984.4,314.4,983,312.3,981.6,310.3z M979.5,303c-0.8,0.7-1.5,1.4-2.2,2.2c-1.5-1.6-3-3.2-4.6-4.6c0.7-0.7,1.4-1.4,2.1-2.1
	c11.2-10,28.3-9.1,38.3,2.1c-1.6,1.5-3.1,3-4.6,4.6C1001.2,296.5,988.2,295.6,979.5,303z M970.7,293.5c-1,0.9-2,1.8-2.8,2.8
	c-1.7-1.3-3.5-2.6-5.3-3.8c1.4-1.6,2.8-3,4.4-4.4c16.8-14.4,42.1-12.4,56.5,4.4c-1.8,1.2-3.6,2.4-5.3,3.8
	C1005.9,282.5,984.6,281.2,970.7,293.5z M963.7,282.5c-2.5,2-4.8,4.3-6.8,6.8c-2-1-4-2-6-2.8c2.9-3.8,6.3-7.2,10.1-10.1
	c23.3-17.8,56.6-13.3,74.4,10.1c-2.1,0.8-4.1,1.8-6.1,2.8C1013,269.3,983.6,266.3,963.7,282.5z M958.6,270.1
	c-5.5,3.9-10.3,8.7-14.2,14.2c-2.2-0.7-4.4-1.2-6.7-1.7c5-7.7,11.5-14.2,19.2-19.2c30.5-19.9,71.5-11.3,91.4,19.2
	c-2.3,0.5-4.5,1-6.7,1.7C1022.6,257.4,985.5,251.1,958.6,270.1z M981.6,240.3c0.9-1.2,1.9-2.2,3.1-3.1c6.3-4.6,15.2-3.2,19.8,3.1
	c-1.5,2-2.9,4.1-4.1,6.2c-4.9-0.5-9.8-0.5-14.6,0C984.4,244.4,983,242.3,981.6,240.3z M979.5,233c-0.8,0.7-1.5,1.4-2.2,2.2
	c-1.5-1.6-3-3.2-4.6-4.6c0.7-0.7,1.4-1.4,2.1-2.1c11.2-10,28.3-9.1,38.3,2.1c-1.6,1.5-3.1,3-4.6,4.6
	C1001.2,226.5,988.2,225.6,979.5,233z M970.7,223.5c-1,0.9-2,1.8-2.8,2.8c-1.7-1.3-3.5-2.6-5.3-3.8c1.4-1.6,2.8-3.1,4.4-4.4
	c16.8-14.4,42.1-12.4,56.5,4.4c-1.8,1.2-3.6,2.4-5.3,3.8C1005.9,212.5,984.6,211.2,970.7,223.5z M963.7,212.5
	c-2.5,2-4.8,4.3-6.8,6.8c-2-1-4-2-6-2.8c2.9-3.8,6.3-7.2,10.1-10.1c23.3-17.8,56.6-13.3,74.4,10.1c-2.1,0.8-4.1,1.8-6.1,2.8
	C1013,199.3,983.6,196.3,963.7,212.5z M958.6,200.1c-5.5,3.9-10.3,8.7-14.2,14.2c-2.2-0.7-4.4-1.2-6.7-1.7
	c5-7.7,11.5-14.2,19.2-19.2c30.5-19.9,71.5-11.3,91.4,19.2c-2.3,0.5-4.5,1-6.7,1.7C1022.6,187.4,985.5,181.1,958.6,200.1z
	 M981.6,170.3c0.9-1.2,1.9-2.2,3.1-3.1c6.3-4.6,15.2-3.2,19.8,3.1c-1.5,2-2.9,4.1-4.1,6.2c-4.9-0.5-9.8-0.5-14.6,0
	C984.4,174.4,983,172.3,981.6,170.3z M971.2,145.1h20.2c0,0,0,0,0,0s0,0,0,0c-9,0.4-17.5,4.5-23.5,11.3c-1.7-1.3-3.5-2.6-5.3-3.8
	C965,149.7,968,147.2,971.2,145.1z M952,145.1h8.8c-1.4,1.3-2.7,2.8-3.9,4.3c-2-1-4-2-6-2.8C951.2,146,951.6,145.5,952,145.1z
	 M978.7,177.6c-2.3,0.5-4.5,1-6.7,1.7c-19-26.9-56.2-33.2-83-14.2c-5.5,3.9-10.3,8.7-14.2,14.2c-2.2-0.7-4.4-1.2-6.7-1.7
	c5-7.7,11.5-14.2,19.2-19.2C917.9,138.4,958.8,147,978.7,177.6z M894.9,145.1c0.4,0.5,0.8,1,1.2,1.5c-2.1,0.8-4.1,1.8-6,2.8
	c-1.2-1.5-2.5-2.9-3.9-4.3H894.9z M855.5,145.1h20.2c3.2,2.1,6.1,4.6,8.6,7.6c-1.8,1.2-3.6,2.4-5.3,3.8
	C873,149.6,864.5,145.5,855.5,145.1C855.5,145.1,855.5,145.1,855.5,145.1C855.5,145.1,855.5,145.1,855.5,145.1z M874,160.6
	c-1.6,1.5-3.1,3-4.5,4.6c-7.5-8.6-20.5-9.6-29.1-2.2c-0.8,0.7-1.5,1.4-2.2,2.2c-1.5-1.6-3-3.2-4.6-4.6c0.7-0.7,1.4-1.4,2.1-2.1
	C846.9,148.5,864,149.4,874,160.6z M832,145.1h20.2c0,0,0,0,0,0s0,0,0,0c-9,0.4-17.5,4.5-23.5,11.3c-1.7-1.3-3.5-2.6-5.3-3.8
	C825.8,149.7,828.7,147.2,832,145.1z M812.8,145.1h8.8c-1.4,1.3-2.7,2.8-3.9,4.3c-2-1-4-2-6.1-2.8C812,146,812.4,145.5,812.8,145.1z
	 M839.5,177.6c-2.3,0.5-4.5,1-6.7,1.7c-19-26.9-56.2-33.2-83-14.2c-5.5,3.9-10.3,8.7-14.2,14.2c-2.2-0.7-4.4-1.2-6.7-1.7
	c5-7.7,11.5-14.2,19.2-19.2C778.7,138.4,819.6,147,839.5,177.6z M755.7,145.1c0.4,0.5,0.8,1,1.2,1.5c-2.1,0.8-4.1,1.8-6,2.8
	c-1.2-1.5-2.5-2.9-3.9-4.3H755.7z M716.3,145.1h20.2c3.2,2.1,6.1,4.6,8.6,7.6c-1.8,1.2-3.6,2.4-5.3,3.8
	C733.8,149.6,725.3,145.5,716.3,145.1C716.3,145.1,716.2,145.1,716.3,145.1C716.2,145.1,716.3,145.1,716.3,145.1z M734.8,160.6
	c-1.6,1.5-3.1,3-4.6,4.6c-7.4-8.6-20.5-9.6-29.1-2.2c-0.8,0.7-1.5,1.4-2.2,2.2c-1.5-1.6-3-3.2-4.6-4.6c0.7-0.7,1.4-1.4,2.1-2.1
	C707.7,148.5,724.8,149.4,734.8,160.6z M692.8,145.1H713c0,0,0,0,0,0s0,0,0,0c-9,0.4-17.5,4.5-23.5,11.3c-1.7-1.3-3.5-2.6-5.3-3.8
	C686.6,149.7,689.5,147.2,692.8,145.1z M673.6,145.1h8.8c-1.4,1.3-2.7,2.8-3.9,4.3c-2-1-4-2-6-2.8
	C672.8,146,673.2,145.5,673.6,145.1z M645,147.7c22.3,0,43.1,11.3,55.3,29.9c-2.3,0.5-4.5,1-6.7,1.7c-11.2-15.8-29.3-25.1-48.6-25.1
	V147.7z M645,160.6c16.6,0,32.2,7.7,42.2,20.9c-2,0.8-4.1,1.8-6,2.8c-8.9-10.9-22.1-17.2-36.2-17.2V160.6z M645,173.6
	c11.7,0,22.9,5.1,30.5,14c-1.8,1.2-3.6,2.4-5.3,3.8c-6.4-7.2-15.5-11.3-25.2-11.3V173.6z M645,186.5c7.7,0,15.1,3.3,20.2,9
	c-1.6,1.5-3.1,3-4.6,4.6c-3.9-4.6-9.6-7.2-15.7-7.2V186.5z M645,199.5c4.5,0,8.8,2.2,11.5,5.8c-1.5,2-2.9,4.1-4.1,6.2
	c-2.4-0.3-4.9-0.4-7.3-0.4V199.5z M645,217.6c22.3,0,43.1,11.3,55.3,29.9c-2.3,0.5-4.5,1-6.7,1.7c-11.2-15.8-29.3-25.1-48.6-25.1
	V217.6z M645,230.6c16.6,0,32.2,7.7,42.2,20.9c-2,0.8-4.1,1.8-6,2.8c-8.9-10.9-22.1-17.2-36.2-17.2V230.6z M645,243.6
	c11.7,0,22.9,5.1,30.5,14c-1.8,1.2-3.6,2.4-5.3,3.8c-6.4-7.2-15.5-11.3-25.2-11.3V243.6z M645,256.5c7.7,0,15.1,3.3,20.2,9
	c-1.6,1.5-3.1,3-4.6,4.6c-3.9-4.6-9.6-7.2-15.7-7.2V256.5z M645,269.5c4.5,0,8.8,2.2,11.5,5.8c-1.5,2-2.9,4-4.1,6.2
	c-2.4-0.3-4.9-0.4-7.3-0.4V269.5z M645,287.6c22.3,0,43.1,11.3,55.3,29.9c-2.3,0.5-4.5,1-6.7,1.7c-11.2-15.8-29.3-25.1-48.6-25.1
	V287.6z M645,300.6c16.6,0,32.2,7.7,42.2,20.9c-2,0.8-4.1,1.8-6,2.8c-8.9-10.9-22.1-17.2-36.2-17.2V300.6z M645,313.6
	c11.7,0,22.9,5.1,30.5,14c-1.8,1.2-3.6,2.4-5.3,3.8c-6.4-7.2-15.5-11.3-25.2-11.3V313.6z M645,326.5c7.7,0,15.1,3.3,20.2,9
	c-1.6,1.5-3.1,3-4.6,4.6c-3.9-4.6-9.6-7.2-15.7-7.2V326.5z M645,339.5c4.5,0,8.8,2.2,11.5,5.8c-1.5,2-2.9,4.1-4.1,6.2
	c-2.4-0.3-4.9-0.4-7.3-0.4V339.5z M645,357.6c22.3,0,43.1,11.3,55.3,29.9c-2.3,0.5-4.5,1-6.7,1.7c-11.2-15.8-29.3-25.1-48.6-25.1
	V357.6z M645,370.6c16.6,0,32.2,7.7,42.2,20.9c-2,0.8-4.1,1.8-6,2.8c-8.9-10.9-22.1-17.2-36.2-17.2V370.6z M645,383.5
	c11.7,0,22.9,5.1,30.5,14c-1.8,1.2-3.6,2.4-5.3,3.8c-6.4-7.2-15.5-11.3-25.2-11.3V383.5z M645,396.5c7.7,0,15.1,3.3,20.2,9
	c-1.6,1.5-3.1,3-4.6,4.6c-3.9-4.6-9.6-7.2-15.7-7.2V396.5z M645,409.5c4.5,0,8.8,2.2,11.5,5.8c-1.5,2-2.9,4.1-4.1,6.2
	c-2.4-0.3-4.9-0.4-7.3-0.4V409.5z M645,427.6c22.3,0,43.1,11.3,55.3,29.9c-2.3,0.5-4.5,1-6.7,1.7c-11.2-15.8-29.3-25.1-48.6-25.1
	V427.6z M645,440.6c16.6,0,32.2,7.7,42.2,20.9c-2,0.8-4.1,1.8-6,2.8c-8.9-10.9-22.1-17.2-36.2-17.2V440.6z M645,453.5
	c11.7,0,22.9,5.1,30.5,14c-1.8,1.2-3.6,2.4-5.3,3.8c-6.4-7.2-15.5-11.3-25.2-11.3V453.5z M645,466.5c7.7,0,15.1,3.3,20.2,9
	c-1.6,1.5-3.1,3-4.6,4.6c-3.9-4.6-9.6-7.2-15.7-7.2V466.5z M645,479.5c4.5,0,8.8,2.2,11.5,5.8c-1.5,2-2.9,4.1-4.1,6.2
	c-2.4-0.2-4.9-0.4-7.3-0.4V479.5z M645,497.6c22.3,0,43.1,11.3,55.3,29.9c-2.3,0.5-4.5,1-6.7,1.7c-11.2-15.8-29.3-25.1-48.6-25.1
	V497.6z M645,510.6c16.6,0,32.2,7.7,42.2,20.9c-2,0.8-4.1,1.8-6,2.8c-8.9-10.9-22.1-17.2-36.2-17.2V510.6z M645,523.5
	c11.7,0,22.9,5.1,30.5,14c-1.8,1.2-3.6,2.4-5.3,3.8c-6.4-7.2-15.5-11.3-25.2-11.3V523.5z M645,536.5c7.7,0,15.1,3.3,20.2,9
	c-1.6,1.5-3.1,3-4.6,4.6c-3.9-4.6-9.6-7.2-15.7-7.2V536.5z M652.3,561.5c-2.4-0.2-4.9-0.4-7.3-0.4v-11.6c4.5,0,8.8,2.2,11.5,5.8
	C655,557.3,653.6,559.3,652.3,561.5z M692.8,565c13.3-8.6,30.4-8.6,43.7,0H692.8z M746.9,565c-18-17.3-46.5-17.3-64.5,0h-8.8
	c2.2-2.7,4.7-5.2,7.4-7.4c22.7-18.6,56.1-15.3,74.7,7.4H746.9z M763.2,564.2c-19-26.8-56.2-33.2-83-14.2
	c-5.5,3.9-10.3,8.7-14.2,14.2c-2.2-0.7-4.4-1.2-6.7-1.7c5-7.7,11.5-14.2,19.2-19.2c30.5-19.9,71.5-11.3,91.4,19.2
	C767.7,563,765.4,563.5,763.2,564.2z M791.5,561.5c-4.9-0.5-9.8-0.5-14.6,0c-1.3-2.1-2.7-4.2-4.1-6.2c0.9-1.2,1.9-2.2,3.1-3.1
	c6.3-4.6,15.2-3.2,19.8,3.1C794.2,557.3,792.8,559.3,791.5,561.5z M770.7,548c-0.8,0.7-1.5,1.4-2.2,2.2c-1.4-1.6-3-3.1-4.5-4.6
	c0.7-0.7,1.4-1.4,2.1-2.1c11.2-10,28.3-9.1,38.3,2.1c-1.6,1.5-3.1,3-4.5,4.6C792.4,541.5,779.4,540.5,770.7,548z M832,565
	c13.3-8.6,30.4-8.6,43.7,0H832z M886.1,565c-18-17.3-46.5-17.3-64.5,0h-8.8c2.2-2.7,4.7-5.2,7.4-7.4c22.7-18.6,56.1-15.3,74.7,7.4
	H886.1z M902.4,564.2c-19-26.8-56.2-33.2-83-14.2c-5.5,3.9-10.3,8.7-14.2,14.2c-2.2-0.7-4.4-1.2-6.7-1.7c5-7.7,11.5-14.2,19.2-19.2
	c30.5-19.9,71.5-11.3,91.4,19.2C906.9,563,904.6,563.5,902.4,564.2z M930.8,561.5c-4.9-0.5-9.8-0.5-14.6,0c-1.3-2.1-2.7-4.2-4.1-6.2
	c0.9-1.2,1.9-2.2,3.1-3.1c6.3-4.6,15.2-3.2,19.8,3.1C933.4,557.3,932,559.3,930.8,561.5z M910,548c-0.8,0.7-1.5,1.4-2.2,2.2
	c-1.5-1.6-3-3.1-4.6-4.6c0.7-0.7,1.4-1.4,2.1-2.1c11.2-10,28.3-9.1,38.3,2.1c-1.6,1.5-3.1,3-4.5,4.6
	C931.6,541.5,918.6,540.5,910,548z M971.2,565c13.3-8.6,30.4-8.6,43.7,0H971.2z M1025.3,565c-18-17.3-46.5-17.3-64.5,0H952
	c2.2-2.7,4.7-5.2,7.4-7.4c22.7-18.6,56.1-15.3,74.7,7.4H1025.3z M1041.6,564.2c-19-26.8-56.2-33.2-83-14.2
	c-5.5,3.9-10.3,8.7-14.2,14.2c-2.2-0.7-4.4-1.2-6.7-1.7c5-7.7,11.5-14.2,19.2-19.2c30.5-19.9,71.5-11.3,91.4,19.2
	C1046.1,563,1043.8,563.5,1041.6,564.2z M1062.6,561.1c-2.4,0-4.9,0.1-7.3,0.4c-1.3-2.1-2.7-4.2-4.1-6.2c2.7-3.7,6.9-5.8,11.5-5.8
	V561.1z M1062.6,543c-6,0-11.7,2.6-15.7,7.2c-1.4-1.6-3-3.1-4.6-4.6c5.2-5.8,12.5-9,20.2-9V543z M1062.6,530
	c-9.6,0-18.8,4.1-25.2,11.3c-1.7-1.3-3.5-2.6-5.3-3.8c7.6-8.9,18.8-14,30.5-14V530z M1062.6,517c-14,0-27.3,6.3-36.2,17.2
	c-2-1-4-2-6-2.8c10-13.2,25.7-20.9,42.2-20.9V517z M1062.6,504.1c-19.3,0-37.4,9.4-48.6,25.1c-2.2-0.7-4.4-1.2-6.7-1.7
	c12.2-18.7,33-29.9,55.3-29.9V504.1z M1062.6,491.1c-2.4,0-4.9,0.1-7.3,0.4c-1.3-2.1-2.7-4.2-4.1-6.2c2.7-3.7,6.9-5.8,11.5-5.8
	V491.1z M1062.6,473c-6,0-11.7,2.6-15.7,7.2c-1.4-1.6-3-3.2-4.6-4.6c5.2-5.8,12.5-9,20.2-9V473z M1062.6,460
	c-9.6,0-18.8,4.1-25.2,11.3c-1.7-1.3-3.5-2.6-5.3-3.8c7.6-8.9,18.8-14,30.5-14V460z M1062.6,447.1c-14,0-27.3,6.3-36.2,17.2
	c-2-1-4-2-6-2.8c10-13.2,25.7-20.9,42.2-20.9V447.1z M1062.6,434.1c-19.3,0-37.4,9.4-48.6,25.1c-2.2-0.7-4.4-1.2-6.7-1.7
	c12.2-18.7,33-29.9,55.3-29.9V434.1z M1062.6,421.1c-2.4,0-4.9,0.1-7.3,0.4c-1.3-2.1-2.7-4.2-4.1-6.2c2.7-3.7,6.9-5.8,11.5-5.8
	V421.1z M1062.6,403c-6,0-11.7,2.6-15.7,7.2c-1.4-1.6-3-3.2-4.6-4.6c5.2-5.8,12.5-9,20.2-9V403z M1062.6,390
	c-9.6,0-18.8,4.1-25.2,11.3c-1.7-1.3-3.5-2.6-5.3-3.8c7.6-8.9,18.8-14,30.5-14V390z M1062.6,377.1c-14,0-27.3,6.3-36.2,17.2
	c-2-1-4-2-6-2.8c10-13.2,25.7-20.9,42.2-20.9V377.1z M1062.6,364.1c-19.3,0-37.4,9.4-48.6,25.1c-2.2-0.7-4.4-1.2-6.7-1.7
	c12.2-18.7,33-29.9,55.3-29.9V364.1z M1062.6,351.1c-2.4,0-4.9,0.1-7.3,0.4c-1.3-2.1-2.7-4.2-4.1-6.2c2.7-3.7,6.9-5.8,11.5-5.8
	V351.1z M1062.6,333c-6,0-11.7,2.6-15.7,7.2c-1.4-1.6-3-3.2-4.6-4.6c5.2-5.7,12.5-9,20.2-9V333z M1062.6,320
	c-9.6,0-18.8,4.1-25.2,11.3c-1.7-1.3-3.5-2.6-5.3-3.8c7.6-8.9,18.8-14,30.5-14V320z M1062.6,307.1c-14,0-27.3,6.3-36.2,17.2
	c-2-1-4-2-6-2.8c10-13.2,25.7-20.9,42.2-20.9V307.1z M1062.6,294.1c-19.3,0-37.4,9.4-48.6,25.1c-2.2-0.7-4.4-1.2-6.7-1.7
	c12.2-18.7,33-29.9,55.3-29.9V294.1z M1062.6,281.2c-2.4,0-4.9,0.1-7.3,0.4c-1.3-2.1-2.7-4.2-4.1-6.2c2.7-3.7,6.9-5.8,11.5-5.8
	V281.2z M1062.6,263c-6,0-11.7,2.6-15.7,7.2c-1.4-1.6-3-3.2-4.6-4.6c5.2-5.7,12.5-9,20.2-9V263z M1062.6,250
	c-9.6,0-18.8,4.1-25.2,11.3c-1.7-1.3-3.5-2.6-5.3-3.8c7.6-8.9,18.8-14,30.5-14V250z M1062.6,237.1c-14,0-27.3,6.3-36.2,17.2
	c-2-1-4-2-6-2.8c10-13.2,25.7-20.9,42.2-20.9V237.1z M1062.6,224.1c-19.3,0-37.4,9.4-48.6,25.1c-2.2-0.7-4.4-1.2-6.7-1.7
	c12.2-18.7,33-29.9,55.3-29.9V224.1z M1062.6,211.2c-2.4,0-4.9,0.1-7.3,0.4c-1.3-2.1-2.7-4.2-4.1-6.2c2.7-3.7,6.9-5.8,11.5-5.8
	V211.2z M1062.6,193c-6,0-11.7,2.6-15.7,7.2c-1.4-1.6-3-3.2-4.6-4.6c5.2-5.8,12.5-9,20.2-9V193z M1062.6,180.1
	c-9.6,0-18.8,4.1-25.2,11.3c-1.7-1.3-3.5-2.6-5.3-3.8c7.6-8.9,18.8-14,30.5-14V180.1z M1062.6,167.1c-14,0-27.3,6.3-36.2,17.2
	c-2-1-4-2-6-2.8c10-13.2,25.7-20.9,42.2-20.9V167.1z M1062.6,154.1c-19.3,0-37.4,9.4-48.6,25.1c-2.2-0.7-4.4-1.2-6.7-1.7
	c12.2-18.7,33-29.9,55.3-29.9V154.1z"/>
</svg>
