<?xml version="1.0" encoding="UTF-8" standalone="no"?>
<!-- Generator: Gravit.io -->

<svg
   xmlns:dc="http://purl.org/dc/elements/1.1/"
   xmlns:cc="http://creativecommons.org/ns#"
   xmlns:rdf="http://www.w3.org/1999/02/22-rdf-syntax-ns#"
   xmlns:svg="http://www.w3.org/2000/svg"
   xmlns="http://www.w3.org/2000/svg"
   xmlns:sodipodi="http://sodipodi.sourceforge.net/DTD/sodipodi-0.dtd"
   xmlns:inkscape="http://www.inkscape.org/namespaces/inkscape"
   style="isolation:isolate"
   viewBox="0 0 1920 1200"
   width="1920pt"
   height="1200pt"
   version="1.1"
   id="svg50040"
   sodipodi:docname="cubepattern.svg"
   inkscape:version="0.92.1 r15371">
  <metadata
     id="metadata50044">
    <rdf:RDF>
      <cc:Work
         rdf:about="">
        <dc:format>image/svg+xml</dc:format>
        <dc:type
           rdf:resource="http://purl.org/dc/dcmitype/StillImage" />
      </cc:Work>
    </rdf:RDF>
  </metadata>
  <sodipodi:namedview
     pagecolor="#ffffff"
     bordercolor="#666666"
     borderopacity="1"
     objecttolerance="10"
     gridtolerance="10"
     guidetolerance="10"
     inkscape:pageopacity="0"
     inkscape:pageshadow="2"
     inkscape:window-width="1920"
     inkscape:window-height="1136"
     id="namedview50042"
     showgrid="false"
     inkscape:zoom="1.18"
     inkscape:cx="1199.6167"
     inkscape:cy="440.02964"
     inkscape:window-x="0"
     inkscape:window-y="27"
     inkscape:window-maximized="1"
     inkscape:current-layer="g50038" />
  <defs
     id="defs49880">
    <clipPath
       id="_clipPath_WRSv8EFnG99zijGoSxTECX4vpKNUuxk7">
      <rect
         width="1920"
         height="1200"
         id="rect49877" />
    </clipPath>
  </defs>
  <g
     clip-path="url(#_clipPath_WRSv8EFnG99zijGoSxTECX4vpKNUuxk7)"
     id="g50038"
     transform="translate(43.145499,31.010827)">
    <path
       d="m 727.17378,867.27134 -12,6.92897 q 1.024,36.575 0,36.95 -1.025,0.375 12,-6.928 c 0,-12.317 0,-24.634 0,-36.95097 z"
       style="vector-effect:non-scaling-stroke;fill:#0dffff;fill-opacity:1;stroke:#000000;stroke-width:1;stroke-linecap:square;stroke-linejoin:miter;stroke-miterlimit:3"
       stroke-miterlimit="3"
       id="path50008"
       inkscape:connector-curvature="0" />
    <path
       d="m 787.17378,837.25734 -12,6.929 q 1.024,36.57497 0,36.94997 -1.025,0.375 12,-6.928 c 0,-12.31697 0,-24.63397 0,-36.95097 z"
       style="vector-effect:non-scaling-stroke;fill:#0dffff;fill-opacity:1;stroke:#000000;stroke-width:1;stroke-linecap:square;stroke-linejoin:miter;stroke-miterlimit:3"
       stroke-miterlimit="3"
       id="path50014"
       inkscape:connector-curvature="0" />
    <path
       d="m 737.10678,824.56334 v 13.856 q 32.187,17.401 32,18.476 -0.188,1.075 0,-13.857 c -10.667,-6.158 -21.334,-12.317 -32,-18.475 z"
       style="vector-effect:non-scaling-stroke;fill:#0dffff;fill-opacity:1;stroke:#000000;stroke-width:1;stroke-linecap:square;stroke-linejoin:miter;stroke-miterlimit:3"
       stroke-miterlimit="3"
       id="path50016"
       inkscape:connector-curvature="0" />
    <path
       d="m 765.10878,923.87531 v -13.856 q -32.188,-17.4 -32,-18.475 0.187,-1.075 0,13.856 c 10.666,6.159 21.333,12.317 32,18.475 z"
       style="vector-effect:non-scaling-stroke;fill:#0dffff;fill-opacity:1;stroke:#000000;stroke-width:1;stroke-linecap:square;stroke-linejoin:miter;stroke-miterlimit:3"
       stroke-miterlimit="3"
       id="path50022"
       inkscape:connector-curvature="0" />
    <path
       d="m 801.10778,886.88931 -12,-6.928 q -31.163,19.175 -32,18.475 -0.837,-0.7 12,6.928 c 10.666,-6.158 21.333,-12.316 32,-18.475 z"
       style="vector-effect:non-scaling-stroke;fill:#0dffff;fill-opacity:1;stroke:#000000;stroke-width:1;stroke-linecap:square;stroke-linejoin:miter;stroke-miterlimit:3"
       stroke-miterlimit="3"
       id="path50024"
       inkscape:connector-curvature="0" />
    <path
       d="m 745.15878,849.99534 -12,-6.928 q -31.163,19.175 -32,18.475 -0.837,-0.7 12,6.928 c 10.667,-6.158 21.333,-12.317 32,-18.475 z"
       style="vector-effect:non-scaling-stroke;fill:#0dffff;fill-opacity:1;stroke:#000000;stroke-width:1;stroke-linecap:square;stroke-linejoin:miter;stroke-miterlimit:3"
       stroke-miterlimit="3"
       id="path50028"
       inkscape:connector-curvature="0" />
    <path
       d="m 817.58463,870.72149 11.95742,7.00221 q 31.28134,-18.98043 32.11374,-18.27594 0.8329,0.70536 -11.95657,-7.00269 c -10.70487,6.09215 -21.40974,12.18429 -32.11459,18.27642 z"
       style="isolation:isolate;vector-effect:non-scaling-stroke;fill:#0dffff;fill-opacity:1;stroke:#000000;stroke-width:0.99999994;stroke-linecap:square;stroke-linejoin:miter;stroke-miterlimit:3"
       stroke-miterlimit="3"
       id="path50008-6"
       inkscape:connector-curvature="0" />
    <path
       d="m 848.01678,809.75463 -12.04244,6.85335 q 0.79802,36.58129 -0.22927,36.9496 -1.02679,0.36919 12.04244,-6.85335 c 0.0773,-12.31628 0.1533,-24.63294 0.22927,-36.9496 z"
       style="isolation:isolate;vector-effect:non-scaling-stroke;fill:#0dffff;fill-opacity:1;stroke:#000000;stroke-width:0.99999994;stroke-linecap:square;stroke-linejoin:miter;stroke-miterlimit:3"
       stroke-miterlimit="3"
       id="path50022-5"
       inkscape:connector-curvature="0" />
    <path
       d="m 798.06618,796.76115 -0.0859,13.85604 q 32.07886,17.59999 31.88447,18.67367 -0.19438,1.07367 0.0859,-13.85604 c -10.62754,-6.22414 -21.25557,-12.44915 -31.88448,-18.67367 z"
       style="isolation:isolate;vector-effect:non-scaling-stroke;fill:#0dffff;fill-opacity:1;stroke:#000000;stroke-width:0.99999994;stroke-linecap:square;stroke-linejoin:miter;stroke-miterlimit:3"
       stroke-miterlimit="3"
       id="path50024-3"
       inkscape:connector-curvature="0" />
    <path
       d="m 793.67422,863.63541 -0.0859,13.85604 q 32.07887,17.59999 31.88448,18.67366 -0.19439,1.07368 0.0859,-13.85604 c -10.62804,-6.22501 -21.25645,-12.44865 -31.88448,-18.67366 z"
       style="isolation:isolate;vector-effect:non-scaling-stroke;fill:#0dffff;fill-opacity:1;stroke:#000000;stroke-width:0.99999994;stroke-linecap:square;stroke-linejoin:miter;stroke-miterlimit:3"
       stroke-miterlimit="3"
       id="path50028-5"
       inkscape:connector-curvature="0" />
    <path
       d="m 774.12343,791.38047 0.1754,-13.85568 q -31.96319,-17.80824 -31.76232,-18.88009 0.20139,-1.0727 -0.17623,13.85519 c 10.58773,6.29353 21.17545,12.58706 31.76315,18.88058 z"
       style="isolation:isolate;vector-effect:non-scaling-stroke;fill:#0dffff;fill-opacity:1;stroke:#000000;stroke-width:0.99999994;stroke-linecap:square;stroke-linejoin:miter;stroke-miterlimit:3"
       stroke-miterlimit="3"
       id="path50008-60"
       inkscape:connector-curvature="0" />
    <path
       d="m 771.66429,799.57574 -15.51683,-9.22347 -15.74619,8.82623 -0.22937,18.04974 15.51683,9.22348 15.74619,-8.82624 z"
       style="isolation:isolate;vector-effect:non-scaling-stroke;fill:#ff0000;stroke:#000000;stroke-width:0.7816394;stroke-linecap:square;stroke-linejoin:miter;stroke-miterlimit:3"
       stroke-miterlimit="3"
       id="path50010-6"
       inkscape:connector-curvature="0" />
    <path
       d="m 805.75994,821.74112 -11.91065,-7.07991 q -31.40432,18.77676 -32.23284,18.06673 -0.82801,-0.71089 11.91151,7.08042 c 10.74388,-6.02287 21.48862,-12.04523 32.23198,-18.06724 z"
       style="isolation:isolate;vector-effect:non-scaling-stroke;fill:#0dffff;fill-opacity:1;stroke:#000000;stroke-width:0.99999994;stroke-linecap:square;stroke-linejoin:miter;stroke-miterlimit:3"
       stroke-miterlimit="3"
       id="path50016-2"
       inkscape:connector-curvature="0" />
    <path
       d="m 706.08312,795.06695 11.91066,7.07991 q 31.40397,-18.77813 32.23198,-18.06724 0.82852,0.71003 -11.91066,-7.07991 c -10.74422,6.0215 -21.4881,12.04437 -32.23198,18.06724 z"
       style="isolation:isolate;vector-effect:non-scaling-stroke;fill:#0dffff;fill-opacity:1;stroke:#000000;stroke-width:0.99999994;stroke-linecap:square;stroke-linejoin:miter;stroke-miterlimit:3"
       stroke-miterlimit="3"
       id="path50022-6"
       inkscape:connector-curvature="0" />
    <path
       d="m 779.78425,815.66782 12.08689,-6.77527 q -0.55974,-36.58552 0.46966,-36.94733 1.0294,-0.36181 -12.08688,6.77528 c -0.15701,12.31589 -0.31266,24.63143 -0.46967,36.94732 z"
       style="isolation:isolate;vector-effect:non-scaling-stroke;fill:#0dffff;fill-opacity:1;stroke:#000000;stroke-width:0.99999994;stroke-linecap:square;stroke-linejoin:miter;stroke-miterlimit:3"
       stroke-miterlimit="3"
       id="path50028-1"
       inkscape:connector-curvature="0" />
    <path
       d="m 730.74589,800.03707 -12,6.929 q 1.024,36.57496 0,36.94996 -1.025,0.375 12,-6.928 c 0,-12.31697 0,-24.63396 0,-36.95096 z"
       style="isolation:isolate;vector-effect:non-scaling-stroke;fill:#0dffff;fill-opacity:1;stroke:#000000;stroke-width:0.99999994;stroke-linecap:square;stroke-linejoin:miter;stroke-miterlimit:3"
       stroke-miterlimit="3"
       id="path50014-8"
       inkscape:connector-curvature="0" />
    <path
       d="m 766.97224,866.00949 -15.51683,-9.22347 -15.74619,8.82623 -0.22937,18.04974 15.51683,9.22348 15.74619,-8.82624 z"
       style="isolation:isolate;vector-effect:non-scaling-stroke;fill:#ff0000;stroke:#000000;stroke-width:0.78163934;stroke-linecap:square;stroke-linejoin:miter;stroke-miterlimit:3"
       stroke-miterlimit="3"
       id="path50010-6-7"
       inkscape:connector-curvature="0" />
    <path
       d="m 827.87032,838.3694 -15.51683,-9.22347 -15.74619,8.82623 -0.22937,18.04974 15.51683,9.22348 15.74619,-8.82624 z"
       style="isolation:isolate;vector-effect:non-scaling-stroke;fill:#ff0000;stroke:#000000;stroke-width:0.78163934;stroke-linecap:square;stroke-linejoin:miter;stroke-miterlimit:3"
       stroke-miterlimit="3"
       id="path50010-6-9"
       inkscape:connector-curvature="0" />
  </g>
</svg>
