<?xml version="1.0" encoding="utf-8"?>
<!-- Generator: Adobe Illustrator 24.0.3, SVG Export Plug-In . SVG Version: 6.00 Build 0)  -->
<svg version="1.1" id="Layer_1" xmlns="http://www.w3.org/2000/svg" xmlns:xlink="http://www.w3.org/1999/xlink" x="0px" y="0px"
	 viewBox="0 0 1920 1080" style="enable-background:new 0 0 1920 1080;" xml:space="preserve">
<style type="text/css">
	.st0{fill:none;stroke:#020202;stroke-width:3;stroke-linecap:square;stroke-linejoin:bevel;stroke-miterlimit:10;}
</style>
<path id="path6642_1_" class="st0" d="M959.87,473.5l-6.4-3.69v-7.39l6.4-3.69l6.4,3.69v7.39L959.87,473.5z"/>
<path id="path6648_1_" class="st0" d="M953.47,462.42l-6.4-3.69v-7.39l6.4-3.69l6.4,3.69v7.39L953.47,462.42z"/>
<path id="path6650_1_" class="st0" d="M947.07,473.5l-6.4-3.69v-7.39l6.4-3.69l6.4,3.69v7.39L947.07,473.5z"/>
<path id="path6652_1_" class="st0" d="M953.47,484.59l-6.4-3.69v-7.39l6.4-3.69l6.4,3.69v7.39L953.47,484.59z"/>
<path id="path6654_1_" class="st0" d="M966.26,484.59l-6.4-3.69v-7.39l6.4-3.69l6.4,3.69v7.39L966.26,484.59z"/>
<path id="path6656_1_" class="st0" d="M966.26,462.42l-6.4-3.69v-7.39l6.4-3.69l6.4,3.69v7.39L966.26,462.42z"/>
<path id="path6658_1_" class="st0" d="M972.66,473.5l-6.4-3.69v-7.39l6.4-3.69l6.4,3.69v7.39L972.66,473.5z"/>
<path id="path6680_1_" class="st0" d="M972.65,480.87l6.4-3.69v-7.39 M979.05,469.81l-6.4,3.69v7.39"/>
<path id="path6740_1_" class="st0" d="M953.48,484.57l6.4,3.69l6.4-3.69 M966.26,484.59l-6.4-3.69l-6.4,3.69"/>
<path id="path6742_1_" class="st0" d="M940.7,469.81v7.39l6.4,3.69 M947.07,480.89v-7.39l-6.4-3.69"/>
<path id="path6745_1_" class="st0" d="M959.87,510.43l-6.4-3.69v-7.39l6.4-3.69l6.4,3.69v7.39L959.87,510.43z"/>
<path id="path6748_1_" class="st0" d="M953.48,499.35l-6.4-3.69v-7.39l6.4-3.69l6.4,3.69v7.39L953.48,499.35z"/>
<path id="path6750_1_" class="st0" d="M947.08,510.43l-6.4-3.69v-7.39l6.4-3.69l6.4,3.69v7.39L947.08,510.43z"/>
<path id="path6752_1_" class="st0" d="M953.48,521.51l-6.4-3.69v-7.39l6.4-3.69l6.4,3.69v7.39L953.48,521.51z"/>
<path id="path6754_1_" class="st0" d="M966.27,521.51l-6.4-3.69v-7.39l6.4-3.69l6.4,3.69v7.39L966.27,521.51z"/>
<path id="path6756_1_" class="st0" d="M966.27,499.35l-6.4-3.69v-7.39l6.4-3.69l6.4,3.69v7.39L966.27,499.35z"/>
<path id="path6758_1_" class="st0" d="M972.67,510.43l-6.4-3.69v-7.39l6.4-3.69l6.4,3.69v7.39L972.67,510.43z"/>
<path id="path6760_1_" class="st0" d="M972.66,517.8l6.4-3.69v-7.39 M979.06,506.74l-6.4,3.69v7.39"/>
<path id="path6762_1_" class="st0" d="M953.49,521.5l6.4,3.69l6.4-3.69 M966.27,521.51l-6.4-3.69l-6.4,3.69"/>
<path id="path6764_1_" class="st0" d="M940.71,506.74v7.39l6.4,3.69 M947.08,517.82v-7.39l-6.4-3.69"/>
<path id="path6766_1_" class="st0" d="M959.89,547.36l-6.4-3.69v-7.39l6.4-3.69l6.4,3.69v7.39L959.89,547.36z"/>
<path id="path6768_1_" class="st0" d="M953.49,536.28l-6.4-3.69v-7.39l6.4-3.69l6.4,3.69v7.39L953.49,536.28z"/>
<path id="path6770_1_" class="st0" d="M947.09,547.36l-6.4-3.69v-7.39l6.4-3.69l6.4,3.69v7.39L947.09,547.36z"/>
<path id="path6772_1_" class="st0" d="M953.49,558.44l-6.4-3.69v-7.39l6.4-3.69l6.4,3.69v7.39L953.49,558.44z"/>
<path id="path6774_1_" class="st0" d="M966.28,558.44l-6.4-3.69v-7.39l6.4-3.69l6.4,3.69v7.39L966.28,558.44z"/>
<path id="path6776_1_" class="st0" d="M966.28,536.28l-6.4-3.69v-7.39l6.4-3.69l6.4,3.69v7.39L966.28,536.28z"/>
<path id="path6778_1_" class="st0" d="M972.68,547.36l-6.4-3.69v-7.39l6.4-3.69l6.4,3.69v7.39L972.68,547.36z"/>
<path id="path6780_1_" class="st0" d="M972.67,554.73l6.4-3.69v-7.39 M979.07,543.66l-6.4,3.69v7.39"/>
<path id="path6782_1_" class="st0" d="M953.5,558.43l6.4,3.69l6.4-3.69 M966.28,558.44l-6.4-3.69l-6.4,3.69"/>
<path id="path6784_1_" class="st0" d="M940.72,543.66v7.39l6.4,3.69 M947.09,554.75v-7.39l-6.4-3.69"/>
<path id="path6786_1_" class="st0" d="M959.89,584.29l-6.4-3.69v-7.39l6.4-3.69l6.4,3.69v7.39L959.89,584.29z"/>
<path id="path6788_1_" class="st0" d="M953.5,573.2l-6.4-3.69v-7.39l6.4-3.69l6.4,3.69v7.39L953.5,573.2z"/>
<path id="path6790_1_" class="st0" d="M947.1,584.29l-6.4-3.69v-7.39l6.4-3.69l6.4,3.69v7.39L947.1,584.29z"/>
<path id="path6792_1_" class="st0" d="M953.5,595.37l-6.4-3.69v-7.39l6.4-3.69l6.4,3.69v7.39L953.5,595.37z"/>
<path id="path6794_1_" class="st0" d="M966.29,595.37l-6.4-3.69v-7.39l6.4-3.69l6.4,3.69v7.39L966.29,595.37z"/>
<path id="path6796_1_" class="st0" d="M966.29,573.2l-6.4-3.69v-7.39l6.4-3.69l6.4,3.69v7.39L966.29,573.2z"/>
<path id="path6798_1_" class="st0" d="M972.69,584.29l-6.4-3.69v-7.39l6.4-3.69l6.4,3.69v7.39L972.69,584.29z"/>
<path id="path6800_1_" class="st0" d="M972.68,591.66l6.4-3.69v-7.39 M979.08,580.59l-6.4,3.69v7.39"/>
<path id="path6802_1_" class="st0" d="M953.51,595.35l6.4,3.69l6.4-3.69 M966.29,595.37l-6.4-3.69l-6.4,3.69"/>
<path id="path6804_1_" class="st0" d="M940.73,580.59v7.39l6.4,3.69 M947.1,591.68v-7.39l-6.4-3.69"/>
<path id="path6806_1_" class="st0" d="M959.9,621.22l-6.4-3.69v-7.39l6.4-3.69l6.4,3.69v7.39L959.9,621.22z"/>
<path id="path6808_1_" class="st0" d="M953.51,610.13l-6.4-3.69v-7.39l6.4-3.69l6.4,3.69v7.39L953.51,610.13z"/>
<path id="path6810_1_" class="st0" d="M947.11,621.22l-6.4-3.69v-7.39l6.4-3.69l6.4,3.69v7.39L947.11,621.22z"/>
<path id="path6812_1_" class="st0" d="M953.51,632.3l-6.4-3.69v-7.39l6.4-3.69l6.4,3.69v7.39L953.51,632.3z"/>
<path id="path6814_1_" class="st0" d="M966.3,632.3l-6.4-3.69v-7.39l6.4-3.69l6.4,3.69v7.39L966.3,632.3z"/>
<path id="path6816_1_" class="st0" d="M966.3,610.13l-6.4-3.69v-7.39l6.4-3.69l6.4,3.69v7.39L966.3,610.13z"/>
<path id="path6818_1_" class="st0" d="M972.7,621.22l-6.4-3.69v-7.39l6.4-3.69l6.4,3.69v7.39L972.7,621.22z"/>
<path id="path6826_1_" class="st0" d="M927.9,491.97l-6.4-3.69v-7.39l6.4-3.69l6.4,3.69v7.39L927.9,491.97z"/>
<path id="path6828_1_" class="st0" d="M921.51,480.89l-6.4-3.69v-7.39l6.4-3.69l6.4,3.69v7.39L921.51,480.89z"/>
<path id="path6830_1_" class="st0" d="M915.11,491.97l-6.4-3.69v-7.39l6.4-3.69l6.4,3.69v7.39L915.11,491.97z"/>
<path id="path6832_1_" class="st0" d="M921.51,503.06l-6.4-3.69v-7.39l6.4-3.69l6.4,3.69v7.39L921.51,503.06z"/>
<path id="path6834_1_" class="st0" d="M934.3,503.06l-6.4-3.69v-7.39l6.4-3.69l6.4,3.69v7.39L934.3,503.06z"/>
<path id="path6836_1_" class="st0" d="M934.3,480.89l-6.4-3.69v-7.39l6.4-3.69l6.4,3.69v7.39L934.3,480.89z"/>
<path id="path6838_1_" class="st0" d="M940.7,491.97l-6.4-3.69v-7.39l6.4-3.69l6.4,3.69v7.39L940.7,491.97z"/>
<path id="path6840_1_" class="st0" d="M940.69,499.35l6.4-3.69v-7.39 M947.09,488.28l-6.4,3.69v7.39"/>
<path id="path6842_1_" class="st0" d="M921.52,503.04l6.4,3.69l6.4-3.69 M934.3,503.06l-6.4-3.69l-6.4,3.69"/>
<path id="path6844_1_" class="st0" d="M908.74,488.28v7.39l6.4,3.69 M915.11,499.36v-7.39l-6.4-3.69"/>
<path id="path6846_1_" class="st0" d="M927.9,528.89l-6.4-3.69v-7.39l6.4-3.69l6.4,3.69v7.39L927.9,528.89z"/>
<path id="path6848_1_" class="st0" d="M921.51,517.8l-6.4-3.69v-7.39l6.4-3.69l6.4,3.69v7.39L921.51,517.8z"/>
<path id="path6850_1_" class="st0" d="M915.11,528.89l-6.4-3.69v-7.39l6.4-3.69l6.4,3.69v7.39L915.11,528.89z"/>
<path id="path6852_1_" class="st0" d="M921.51,539.97l-6.4-3.69v-7.39l6.4-3.69l6.4,3.69v7.39L921.51,539.97z"/>
<path id="path6854_1_" class="st0" d="M934.3,539.97l-6.4-3.69v-7.39l6.4-3.69l6.4,3.69v7.39L934.3,539.97z"/>
<path id="path6856_1_" class="st0" d="M934.3,517.8l-6.4-3.69v-7.39l6.4-3.69l6.4,3.69v7.39L934.3,517.8z"/>
<path id="path6858_1_" class="st0" d="M940.7,528.89l-6.4-3.69v-7.39l6.4-3.69l6.4,3.69v7.39L940.7,528.89z"/>
<path id="path6860_1_" class="st0" d="M940.69,536.26l6.4-3.69v-7.39 M947.09,525.19l-6.4,3.69v7.39"/>
<path id="path6862_1_" class="st0" d="M921.52,539.95l6.4,3.69l6.4-3.69 M934.3,539.97l-6.4-3.69l-6.4,3.69"/>
<path id="path6864_1_" class="st0" d="M908.73,525.19v7.39l6.4,3.69 M915.11,536.28v-7.39l-6.4-3.69"/>
<path id="path6866_1_" class="st0" d="M927.91,565.81l-6.4-3.69v-7.39l6.4-3.69l6.4,3.69v7.39L927.91,565.81z"/>
<path id="path6868_1_" class="st0" d="M921.52,554.73l-6.4-3.69v-7.39l6.4-3.69l6.4,3.69v7.39L921.52,554.73z"/>
<path id="path6870_1_" class="st0" d="M915.12,565.81l-6.4-3.69v-7.39l6.4-3.69l6.4,3.69v7.39L915.12,565.81z"/>
<path id="path6872_1_" class="st0" d="M921.52,576.9l-6.4-3.69v-7.39l6.4-3.69l6.4,3.69v7.39L921.52,576.9z"/>
<path id="path6874_1_" class="st0" d="M934.31,576.9l-6.4-3.69v-7.39l6.4-3.69l6.4,3.69v7.39L934.31,576.9z"/>
<path id="path6876_1_" class="st0" d="M934.31,554.73l-6.4-3.69v-7.39l6.4-3.69l6.4,3.69v7.39L934.31,554.73z"/>
<path id="path6878_1_" class="st0" d="M940.71,565.81l-6.4-3.69v-7.39l6.4-3.69l6.4,3.69v7.39L940.71,565.81z"/>
<path id="path6880_1_" class="st0" d="M940.7,573.19l6.4-3.69v-7.39 M947.1,562.12l-6.4,3.69v7.39"/>
<path id="path6882_1_" class="st0" d="M921.53,576.88l6.4,3.69l6.4-3.69 M934.31,576.9l-6.4-3.69l-6.4,3.69"/>
<path id="path6884_1_" class="st0" d="M908.74,562.12v7.39l6.4,3.69 M915.12,573.2v-7.39l-6.4-3.69"/>
<path id="path6887_1_" class="st0" d="M927.91,602.76l-6.4-3.69v-7.39l6.4-3.69l6.4,3.69v7.39L927.91,602.76z"/>
<path id="path6889_1_" class="st0" d="M921.52,591.68l-6.4-3.69v-7.39l6.4-3.69l6.4,3.69v7.39L921.52,591.68z"/>
<path id="path6891_1_" class="st0" d="M915.12,602.76l-6.4-3.69v-7.39l6.4-3.69l6.4,3.69v7.39L915.12,602.76z"/>
<path id="path6893_1_" class="st0" d="M921.52,613.84l-6.4-3.69v-7.39l6.4-3.69l6.4,3.69v7.39L921.52,613.84z"/>
<path id="path6895_1_" class="st0" d="M934.31,613.84l-6.4-3.69v-7.39l6.4-3.69l6.4,3.69v7.39L934.31,613.84z"/>
<path id="path6897_1_" class="st0" d="M934.31,591.68l-6.4-3.69v-7.39l6.4-3.69l6.4,3.69v7.39L934.31,591.68z"/>
<path id="path6899_1_" class="st0" d="M940.71,602.76l-6.4-3.69v-7.39l6.4-3.69l6.4,3.69v7.39L940.71,602.76z"/>
<path id="path6901_1_" class="st0" d="M940.7,610.13l6.4-3.69v-7.39 M947.1,599.07l-6.4,3.69v7.39"/>
<path id="path6909_1_" class="st0" d="M1004.67,506.74v7.39l6.4,3.69 M1011.04,517.82v-7.39l-6.4-3.69"/>
<path id="path6911_1_" class="st0" d="M1004.68,543.66v7.39l6.4,3.69 M1011.05,554.75v-7.39l-6.4-3.69"/>
<path id="path6913_1_" class="st0" d="M1004.69,580.59v7.39l6.4,3.69 M1011.06,591.68v-7.39l-6.4-3.69"/>
<path id="path6915_1_" class="st0" d="M991.87,491.97l-6.4-3.69v-7.39l6.4-3.69l6.4,3.69v7.39L991.87,491.97z"/>
<path id="path6917_1_" class="st0" d="M985.47,480.89l-6.4-3.69v-7.39l6.4-3.69l6.4,3.69v7.39L985.47,480.89z"/>
<path id="path6919_1_" class="st0" d="M979.07,491.97l-6.4-3.69v-7.39l6.4-3.69l6.4,3.69v7.39L979.07,491.97z"/>
<path id="path6921_1_" class="st0" d="M985.47,503.06l-6.4-3.69v-7.39l6.4-3.69l6.4,3.69v7.39L985.47,503.06z"/>
<path id="path6923_1_" class="st0" d="M998.26,503.06l-6.4-3.69v-7.39l6.4-3.69l6.4,3.69v7.39L998.26,503.06z"/>
<path id="path6925_1_" class="st0" d="M998.26,480.89l-6.4-3.69v-7.39l6.4-3.69l6.4,3.69v7.39L998.26,480.89z"/>
<path id="path6927_1_" class="st0" d="M1004.66,491.97l-6.4-3.69v-7.39l6.4-3.69l6.4,3.69v7.39L1004.66,491.97z"/>
<path id="path6929_1_" class="st0" d="M1004.65,499.35l6.4-3.69v-7.39 M1011.05,488.28l-6.4,3.69v7.39"/>
<path id="path6931_1_" class="st0" d="M985.48,503.04l6.4,3.69l6.4-3.69 M998.26,503.06l-6.4-3.69l-6.4,3.69"/>
<path id="path6933_1_" class="st0" d="M972.7,488.28v7.39l6.4,3.69 M979.07,499.36v-7.39l-6.4-3.69"/>
<path id="path6935_1_" class="st0" d="M991.87,528.89l-6.4-3.69v-7.39l6.4-3.69l6.4,3.69v7.39L991.87,528.89z"/>
<path id="path6937_1_" class="st0" d="M985.47,517.8l-6.4-3.69v-7.39l6.4-3.69l6.4,3.69v7.39L985.47,517.8z"/>
<path id="path6939_1_" class="st0" d="M979.07,528.89l-6.4-3.69v-7.39l6.4-3.69l6.4,3.69v7.39L979.07,528.89z"/>
<path id="path6941_1_" class="st0" d="M985.47,539.97l-6.4-3.69v-7.39l6.4-3.69l6.4,3.69v7.39L985.47,539.97z"/>
<path id="path6943_1_" class="st0" d="M998.26,539.97l-6.4-3.69v-7.39l6.4-3.69l6.4,3.69v7.39L998.26,539.97z"/>
<path id="path6945_1_" class="st0" d="M998.26,517.8l-6.4-3.69v-7.39l6.4-3.69l6.4,3.69v7.39L998.26,517.8z"/>
<path id="path6947_1_" class="st0" d="M1004.66,528.89l-6.4-3.69v-7.39l6.4-3.69l6.4,3.69v7.39L1004.66,528.89z"/>
<path id="path6949_1_" class="st0" d="M1004.65,536.26l6.4-3.69v-7.39 M1011.05,525.19l-6.4,3.69v7.39"/>
<path id="path6951_1_" class="st0" d="M985.48,539.95l6.4,3.69l6.4-3.69 M998.26,539.97l-6.4-3.69l-6.4,3.69"/>
<path id="path6953_1_" class="st0" d="M972.7,525.19v7.39l6.4,3.69 M979.07,536.28v-7.39l-6.4-3.69"/>
<path id="path6955_1_" class="st0" d="M991.88,565.81l-6.4-3.69v-7.39l6.4-3.69l6.4,3.69v7.39L991.88,565.81z"/>
<path id="path6957_1_" class="st0" d="M985.48,554.73l-6.4-3.69v-7.39l6.4-3.69l6.4,3.69v7.39L985.48,554.73z"/>
<path id="path6959_1_" class="st0" d="M979.08,565.81l-6.4-3.69v-7.39l6.4-3.69l6.4,3.69v7.39L979.08,565.81z"/>
<path id="path6961_1_" class="st0" d="M985.48,576.9l-6.4-3.69v-7.39l6.4-3.69l6.4,3.69v7.39L985.48,576.9z"/>
<path id="path6963_1_" class="st0" d="M998.27,576.9l-6.4-3.69v-7.39l6.4-3.69l6.4,3.69v7.39L998.27,576.9z"/>
<path id="path6965_1_" class="st0" d="M998.27,554.73l-6.4-3.69v-7.39l6.4-3.69l6.4,3.69v7.39L998.27,554.73z"/>
<path id="path6967_1_" class="st0" d="M1004.67,565.81l-6.4-3.69v-7.39l6.4-3.69l6.4,3.69v7.39L1004.67,565.81z"/>
<path id="path6969_1_" class="st0" d="M1004.66,573.19l6.4-3.69v-7.39 M1011.06,562.12l-6.4,3.69v7.39"/>
<path id="path6971_1_" class="st0" d="M985.49,576.88l6.4,3.69l6.4-3.69 M998.27,576.9l-6.4-3.69l-6.4,3.69"/>
<path id="path6973_1_" class="st0" d="M972.71,562.12v7.39l6.4,3.69 M979.08,573.2v-7.39l-6.4-3.69"/>
<path id="path6975_1_" class="st0" d="M991.88,602.76l-6.4-3.69v-7.39l6.4-3.69l6.4,3.69v7.39L991.88,602.76z"/>
<path id="path6977_1_" class="st0" d="M985.48,591.68l-6.4-3.69v-7.39l6.4-3.69l6.4,3.69v7.39L985.48,591.68z"/>
<path id="path6979_1_" class="st0" d="M979.08,602.76l-6.4-3.69v-7.39l6.4-3.69l6.4,3.69v7.39L979.08,602.76z"/>
<path id="path6981_1_" class="st0" d="M985.48,613.84l-6.4-3.69v-7.39l6.4-3.69l6.4,3.69v7.39L985.48,613.84z"/>
<path id="path6983_1_" class="st0" d="M998.27,613.84l-6.4-3.69v-7.39l6.4-3.69l6.4,3.69v7.39L998.27,613.84z"/>
<path id="path6985_1_" class="st0" d="M998.27,591.68l-6.4-3.69v-7.39l6.4-3.69l6.4,3.69v7.39L998.27,591.68z"/>
<path id="path6987_1_" class="st0" d="M1004.67,602.76l-6.4-3.69v-7.39l6.4-3.69l6.4,3.69v7.39L1004.67,602.76z"/>
<path id="path6993_1_" class="st0" d="M972.71,599.07v7.39l6.4,3.69 M979.08,610.15v-7.39l-6.4-3.69"/>
<path id="path7003_1_" class="st0" d="M1023.84,510.43l-6.4-3.69v-7.39l6.4-3.69l6.4,3.69v7.39L1023.84,510.43z"/>
<path id="path7005_1_" class="st0" d="M1017.44,499.35l-6.4-3.69v-7.39l6.4-3.69l6.4,3.69v7.39L1017.44,499.35z"/>
<path id="path7007_1_" class="st0" d="M1011.04,510.43l-6.4-3.69v-7.39l6.4-3.69l6.4,3.69v7.39L1011.04,510.43z"/>
<path id="path7009_1_" class="st0" d="M1017.44,521.51l-6.4-3.69v-7.39l6.4-3.69l6.4,3.69v7.39L1017.44,521.51z"/>
<path id="path7011_1_" class="st0" d="M1030.23,521.51l-6.4-3.69v-7.39l6.4-3.69l6.4,3.69v7.39L1030.23,521.51z"/>
<path id="path7013_1_" class="st0" d="M1030.23,499.35l-6.4-3.69v-7.39l6.4-3.69l6.4,3.69v7.39L1030.23,499.35z"/>
<path id="path7015_1_" class="st0" d="M1036.63,510.43l-6.4-3.69v-7.39l6.4-3.69l6.4,3.69v7.39L1036.63,510.43z"/>
<path id="path7019_1_" class="st0" d="M1017.45,521.5l6.4,3.69l6.4-3.69 M1030.23,521.51l-6.4-3.69l-6.4,3.69"/>
<path id="path7023_1_" class="st0" d="M1023.84,547.34l-6.4-3.69v-7.39l6.4-3.69l6.4,3.69v7.39L1023.84,547.34z"/>
<path id="path7025_1_" class="st0" d="M1017.44,536.26l-6.4-3.69v-7.39l6.4-3.69l6.4,3.69v7.39L1017.44,536.26z"/>
<path id="path7027_1_" class="st0" d="M1011.04,547.34l-6.4-3.69v-7.39l6.4-3.69l6.4,3.69v7.39L1011.04,547.34z"/>
<path id="path7029_1_" class="st0" d="M1017.45,558.44l-6.4-3.69v-7.39l6.4-3.69l6.4,3.69v7.39L1017.45,558.44z"/>
<path id="path7031_1_" class="st0" d="M1030.23,558.43l-6.4-3.69v-7.39l6.4-3.69l6.4,3.69v7.39L1030.23,558.43z"/>
<path id="path7033_1_" class="st0" d="M1030.23,536.26l-6.4-3.69v-7.39l6.4-3.69l6.4,3.69v7.39L1030.23,536.26z"/>
<path id="path7035_1_" class="st0" d="M1036.63,547.34l-6.4-3.69v-7.39l6.4-3.69l6.4,3.69v7.39L1036.63,547.34z"/>
<path id="path7039_1_" class="st0" d="M1017.45,558.41l6.4,3.69l6.4-3.69 M1030.23,558.43l-6.4-3.69l-6.4,3.69"/>
<path id="path7043_1_" class="st0" d="M1023.85,584.27l-6.4-3.69v-7.39l6.4-3.69l6.4,3.69v7.39L1023.85,584.27z"/>
<path id="path7045_1_" class="st0" d="M1017.45,573.19l-6.4-3.69v-7.39l6.4-3.69l6.4,3.69v7.39L1017.45,573.19z"/>
<path id="path7047_1_" class="st0" d="M1011.05,584.27l-6.4-3.69v-7.39l6.4-3.69l6.4,3.69v7.39L1011.05,584.27z"/>
<path id="path7049_1_" class="st0" d="M1017.45,595.35l-6.4-3.69v-7.39l6.4-3.69l6.4,3.69v7.39L1017.45,595.35z"/>
<path id="path7051_1_" class="st0" d="M1030.24,595.35l-6.4-3.69v-7.39l6.4-3.69l6.4,3.69v7.39L1030.24,595.35z"/>
<path id="path7053_1_" class="st0" d="M1030.24,573.19l-6.4-3.69v-7.39l6.4-3.69l6.4,3.69v7.39L1030.24,573.19z"/>
<path id="path7055_1_" class="st0" d="M1036.64,584.27l-6.4-3.69v-7.39l6.4-3.69l6.4,3.69v7.39L1036.64,584.27z"/>
<path id="path7213_1_" class="st0" d="M889.56,573.2l-6.4-3.69v-7.39l6.4-3.69l6.4,3.69v7.39L889.56,573.2z"/>
<path id="path7207_1_" class="st0" d="M908.74,591.66l6.4-3.69v-7.39"/>
<path id="path7205_1_" class="st0" d="M915.14,580.59l-6.4,3.69v7.39"/>
<path id="path7203_1_" class="st0" d="M908.75,584.29l-6.4-3.69v-7.39l6.4-3.69l6.4,3.69v7.39L908.75,584.29z"/>
<path id="path7201_1_" class="st0" d="M902.35,573.2l-6.4-3.69v-7.39l6.4-3.69l6.4,3.69v7.39L902.35,573.2z"/>
<path id="path7199_1_" class="st0" d="M902.35,595.37l-6.4-3.69v-7.39l6.4-3.69l6.4,3.69v7.39L902.35,595.37z"/>
<path id="path7197_1_" class="st0" d="M889.56,595.37l-6.4-3.69v-7.39l6.4-3.69l6.4,3.69v7.39L889.56,595.37z"/>
<path id="path7195_1_" class="st0" d="M883.16,584.29l-6.4-3.69v-7.39l6.4-3.69l6.4,3.69v7.39L883.16,584.29z"/>
<path id="path7193_1_" class="st0" d="M895.96,584.29l-6.4-3.69v-7.39l6.4-3.69l6.4,3.69v7.39L895.96,584.29z"/>
<path id="path7187_1_" class="st0" d="M889.56,536.26l-6.4-3.69v-7.39l6.4-3.69l6.4,3.69v7.39L889.56,536.26z"/>
<path id="path7185_1_" class="st0" d="M889.57,558.41l6.4,3.69l6.4-3.69"/>
<path id="path7183_1_" class="st0" d="M902.35,558.43l-6.4-3.69l-6.4,3.69"/>
<path id="path7181_1_" class="st0" d="M908.74,554.71l6.4-3.69v-7.39"/>
<path id="path7179_1_" class="st0" d="M915.14,543.65l-6.4,3.69v7.39"/>
<path id="path7177_1_" class="st0" d="M908.75,547.34l-6.4-3.69v-7.39l6.4-3.69l6.4,3.69v7.39L908.75,547.34z"/>
<path id="path7175_1_" class="st0" d="M902.35,536.26l-6.4-3.69v-7.39l6.4-3.69l6.4,3.69v7.39L902.35,536.26z"/>
<path id="path7173_1_" class="st0" d="M902.35,558.43l-6.4-3.69v-7.39l6.4-3.69l6.4,3.69v7.39L902.35,558.43z"/>
<path id="path7171_1_" class="st0" d="M889.56,558.43l-6.4-3.69v-7.39l6.4-3.69l6.4,3.69v7.39L889.56,558.43z"/>
<path id="path7169_1_" class="st0" d="M883.16,547.34l-6.4-3.69v-7.39l6.4-3.69l6.4,3.69v7.39L883.16,547.34z"/>
<path id="path7167_1_" class="st0" d="M895.95,547.34l-6.4-3.69v-7.39l6.4-3.69l6.4,3.69v7.39L895.95,547.34z"/>
<path id="path7161_1_" class="st0" d="M889.55,499.36l-6.4-3.69v-7.39l6.4-3.69l6.4,3.69v7.39L889.55,499.36z"/>
<path id="path7159_1_" class="st0" d="M889.56,521.51l6.4,3.69l6.4-3.69"/>
<path id="path7157_1_" class="st0" d="M902.34,521.53l-6.4-3.69l-6.4,3.69"/>
<path id="path7155_1_" class="st0" d="M908.73,517.82l6.4-3.69v-7.39"/>
<path id="path7153_1_" class="st0" d="M915.13,506.75l-6.4,3.69v7.39"/>
<path id="path7151_1_" class="st0" d="M908.74,510.45l-6.4-3.69v-7.39l6.4-3.69l6.4,3.69v7.39L908.74,510.45z"/>
<path id="path7149_1_" class="st0" d="M902.34,499.36l-6.4-3.69v-7.39l6.4-3.69l6.4,3.69v7.39L902.34,499.36z"/>
<path id="path7147_1_" class="st0" d="M902.34,521.53l-6.4-3.69v-7.39l6.4-3.69l6.4,3.69v7.39L902.34,521.53z"/>
<path id="path7145_1_" class="st0" d="M889.55,521.53l-6.4-3.69v-7.39l6.4-3.69l6.4,3.69v7.39L889.55,521.53z"/>
<path id="path7143_1_" class="st0" d="M883.15,510.45l-6.4-3.69v-7.39l6.4-3.69l6.4,3.69v7.39L883.15,510.45z"/>
<path id="path7141_1_" class="st0" d="M895.94,510.45l-6.4-3.69v-7.39l6.4-3.69l6.4,3.69v7.39L895.94,510.45z"/>
</svg>
