<?xml version="1.0" encoding="UTF-8" standalone="no"?>
<!-- Created with Inkscape (http://www.inkscape.org/) -->

<svg
   xmlns:dc="http://purl.org/dc/elements/1.1/"
   xmlns:cc="http://creativecommons.org/ns#"
   xmlns:rdf="http://www.w3.org/1999/02/22-rdf-syntax-ns#"
   xmlns:svg="http://www.w3.org/2000/svg"
   xmlns="http://www.w3.org/2000/svg"
   xmlns:sodipodi="http://sodipodi.sourceforge.net/DTD/sodipodi-0.dtd"
   xmlns:inkscape="http://www.inkscape.org/namespaces/inkscape"
   width="210mm"
   height="297mm"
   viewBox="0 0 210 297"
   version="1.1"
   id="svg955"
   inkscape:version="0.92.2 5c3e80d, 2017-08-06"
   sodipodi:docname="patterns.svg">
  <defs
     id="defs949" />
  <sodipodi:namedview
     id="base"
     pagecolor="#ffffff"
     bordercolor="#666666"
     borderopacity="1.0"
     inkscape:pageopacity="0.0"
     inkscape:pageshadow="2"
     inkscape:zoom="0.1767767"
     inkscape:cx="561.61657"
     inkscape:cy="1054.1947"
     inkscape:document-units="mm"
     inkscape:current-layer="layer1"
     showgrid="false"
     inkscape:window-width="1680"
     inkscape:window-height="1005"
     inkscape:window-x="0"
     inkscape:window-y="1"
     inkscape:window-maximized="1">
    <inkscape:grid
       type="xygrid"
       id="grid1519"
       units="mm"
       spacingx="1"
       spacingy="1" />
  </sodipodi:namedview>
  <metadata
     id="metadata952">
    <rdf:RDF>
      <cc:Work
         rdf:about="">
        <dc:format>image/svg+xml</dc:format>
        <dc:type
           rdf:resource="http://purl.org/dc/dcmitype/StillImage" />
        <dc:title></dc:title>
      </cc:Work>
    </rdf:RDF>
  </metadata>
  <g
     inkscape:label="Layer 1"
     inkscape:groupmode="layer"
     id="layer1">
    <path
       inkscape:transform-center-y="-0.80093243"
       inkscape:transform-center-x="-2.959111"
       d="m 174.68912,101.82051 -40.31089,-0.17949 -20,-35.000001 20.31089,-34.82051 40.31089,0.179492 20,35.000001 z"
       inkscape:randomized="0"
       inkscape:rounded="0"
       inkscape:flatsided="true"
       sodipodi:arg2="1.575249"
       sodipodi:arg1="1.0516502"
       sodipodi:r2="25.032515"
       sodipodi:r1="40.311291"
       sodipodi:cy="66.820511"
       sodipodi:cx="154.68912"
       sodipodi:sides="6"
       id="path1523"
       style="opacity:1;vector-effect:none;fill:none;fill-opacity:1;stroke:#000000;stroke-width:1.5;stroke-linecap:butt;stroke-linejoin:round;stroke-miterlimit:4;stroke-dasharray:none;stroke-dashoffset:0;stroke-opacity:0.60000598"
       sodipodi:type="star"
       transform="rotate(90,538.34801,-186.60755)" />
    <path
       id="path1547"
       style="fill:none;stroke:#000000;stroke-width:1.66499996;stroke-linecap:butt;stroke-linejoin:round;stroke-miterlimit:4;stroke-dasharray:none;stroke-opacity:1"
       d="m -198.8674,-52.502902 -20.31088,-34.82051 40.31088,0.17949 -20,34.64102 -0.3923,-23.32051 -19.91858,-11.5 m 40.31088,0.17949 -20.3923,11.32051"
       inkscape:connector-curvature="0"
       sodipodi:nodetypes="cccccccc" />
    <path
       sodipodi:nodetypes="cccccccc"
       inkscape:connector-curvature="0"
       d="m -198.8674,-52.502902 -20.31088,34.820511 40.31088,-0.17949 -20,-34.641021 -0.3923,23.320511 -19.91858,11.5 m 40.31088,-0.17949 -20.3923,-11.32051"
       style="fill:none;stroke:#000000;stroke-width:1.66499996;stroke-linecap:butt;stroke-linejoin:round;stroke-miterlimit:4;stroke-dasharray:none;stroke-opacity:1"
       id="path1555" />
    <path
       sodipodi:nodetypes="cccccccc"
       inkscape:connector-curvature="0"
       d="m -198.94512,-52.368288 20.00001,-34.999993 19.99999,34.999991 -40,2e-6 20,-11.999996 1e-5,-22.999997 m 19.99999,34.999991 -20,-11.999994"
       style="fill:none;stroke:#000000;stroke-width:1.66499996;stroke-linecap:butt;stroke-linejoin:round;stroke-miterlimit:4;stroke-dasharray:none;stroke-opacity:1"
       id="path1557" />
    <path
       id="path1559"
       style="fill:none;stroke:#000000;stroke-width:1.66499996;stroke-linecap:butt;stroke-linejoin:round;stroke-miterlimit:4;stroke-dasharray:none;stroke-opacity:1"
       d="m -198.94512,-52.368288 -40.31089,-0.179483 20.31089,34.820502 20,-34.641019 -20.3923,11.320514 -19.91859,-11.499997 m 20.31089,34.820502 -0.3923,-23.320505"
       inkscape:connector-curvature="0"
       sodipodi:nodetypes="cccccccc" />
    <path
       id="path1561"
       style="fill:none;stroke:#000000;stroke-width:1.66499996;stroke-linecap:butt;stroke-linejoin:round;stroke-miterlimit:4;stroke-dasharray:none;stroke-opacity:1"
       d="m -199.17828,-52.323416 40.31088,-0.179483 -20.31088,34.820502 -20,-34.641019 20.3923,11.320513 19.91858,-11.499996 m -20.31088,34.820502 0.3923,-23.320506"
       inkscape:connector-curvature="0"
       sodipodi:nodetypes="cccccccc" />
    <path
       sodipodi:nodetypes="cccccccc"
       inkscape:connector-curvature="0"
       d="m -199.17828,-52.323416 -20.00001,-34.999993 -19.99999,34.999991 40,2e-6 -20.00001,-11.999997 v -22.999996 m -19.99999,34.999991 19.99999,-11.999995"
       style="fill:none;stroke:#000000;stroke-width:1.66499996;stroke-linecap:butt;stroke-linejoin:round;stroke-miterlimit:4;stroke-dasharray:none;stroke-opacity:1"
       id="path1563" />
    <path
       sodipodi:nodetypes="cccccccc"
       inkscape:connector-curvature="0"
       d="m -198.8674,-52.502902 -20.31088,-34.82051 40.31088,0.17949 -20,34.64102 -0.3923,-23.32051 -19.91858,-11.5 m 40.31088,0.17949 -20.3923,11.32051"
       style="fill:none;stroke:#000000;stroke-width:1.66499996;stroke-linecap:butt;stroke-linejoin:round;stroke-miterlimit:4;stroke-dasharray:none;stroke-opacity:1"
       id="path1565" />
    <path
       id="path1567"
       style="fill:none;stroke:#000000;stroke-width:1.66499996;stroke-linecap:butt;stroke-linejoin:round;stroke-miterlimit:4;stroke-dasharray:none;stroke-opacity:1"
       d="m -198.8674,-52.502902 -20.31088,34.820511 40.31088,-0.17949 -20,-34.641021 -0.3923,23.320511 -19.91858,11.5 m 40.31088,-0.17949 -20.3923,-11.32051"
       inkscape:connector-curvature="0"
       sodipodi:nodetypes="cccccccc" />
    <path
       id="path1569"
       style="fill:none;stroke:#000000;stroke-width:1.66499996;stroke-linecap:butt;stroke-linejoin:round;stroke-miterlimit:4;stroke-dasharray:none;stroke-opacity:1"
       d="m -198.94512,-52.368288 20.00001,-34.999993 19.99999,34.999991 -40,2e-6 20,-11.999996 1e-5,-22.999997 m 19.99999,34.999991 -20,-11.999994"
       inkscape:connector-curvature="0"
       sodipodi:nodetypes="cccccccc" />
    <path
       sodipodi:nodetypes="cccccccc"
       inkscape:connector-curvature="0"
       d="m -198.94512,-52.368288 -40.31089,-0.179483 20.31089,34.820502 20,-34.641019 -20.3923,11.320514 -19.91859,-11.499997 m 20.31089,34.820502 -0.3923,-23.320505"
       style="fill:none;stroke:#000000;stroke-width:1.66499996;stroke-linecap:butt;stroke-linejoin:round;stroke-miterlimit:4;stroke-dasharray:none;stroke-opacity:1"
       id="path1571" />
    <path
       sodipodi:nodetypes="cccccccc"
       inkscape:connector-curvature="0"
       d="m -199.17828,-52.323416 40.31088,-0.179483 -20.31088,34.820502 -20,-34.641019 20.3923,11.320513 19.91858,-11.499996 m -20.31088,34.820502 0.3923,-23.320506"
       style="fill:none;stroke:#000000;stroke-width:1.66499996;stroke-linecap:butt;stroke-linejoin:round;stroke-miterlimit:4;stroke-dasharray:none;stroke-opacity:1"
       id="path1573" />
    <path
       id="path1575"
       style="fill:none;stroke:#000000;stroke-width:1.66499996;stroke-linecap:butt;stroke-linejoin:round;stroke-miterlimit:4;stroke-dasharray:none;stroke-opacity:1"
       d="m -199.17828,-52.323416 -20.00001,-34.999993 -19.99999,34.999991 40,2e-6 -20.00001,-11.999997 v -22.999996 m -19.99999,34.999991 19.99999,-11.999995"
       inkscape:connector-curvature="0"
       sodipodi:nodetypes="cccccccc" />
    <path
       id="path1611"
       style="fill:none;stroke:#000000;stroke-width:1.66499996;stroke-linecap:butt;stroke-linejoin:round;stroke-miterlimit:4;stroke-dasharray:none;stroke-opacity:1"
       d="m -172.20743,168.35984 -20.00001,-34.99999 -19.99999,34.99999 h 40 l -20.00001,-11.99999 v -23 m -19.99999,34.99999 19.99999,-11.99999 m 20.00001,11.99999 40.31089,-0.17948 -20.31089,34.8205 -20,-34.64102 20.3923,11.32052 19.91859,-11.5 m -20.31089,34.8205 0.3923,-23.3205 m -20.15914,-11.36539 -40.31089,-0.17948 20.31089,34.8205 20,-34.64102 -20.3923,11.32052 -19.91859,-11.5 m 20.31089,34.8205 -0.3923,-23.3205 m 20.3923,-11.32052 20.00001,-34.99999 20,34.99999 h -40.00001 l 20,-11.99999 1e-5,-23 m 20,34.99999 -20.00001,-11.99999 m -19.92228,11.86538 -20.31088,34.82051 40.31088,-0.17949 -20,-34.64102 -0.3923,23.32051 -19.91858,11.5 m 40.31088,-0.17949 -20.3923,-11.32051 m 0.3923,-23.32051 -20.31088,-34.82051 40.31088,0.17949 -20,34.64102 -0.3923,-23.32051 -19.91858,-11.5 m 40.31088,0.17949 -20.3923,11.32051 m 0.0814,23.49999 -20.00001,-34.99999 -19.99999,34.99999 h 40 l -20.00001,-11.99999 v -23 m -19.99999,34.99999 19.99999,-11.99999 m 20.00001,11.99999 40.31089,-0.17948 -20.31089,34.8205 -20,-34.64102 20.3923,11.32052 19.91859,-11.5 m -20.31089,34.8205 0.3923,-23.3205 m -20.15914,-11.36539 -40.31089,-0.17948 20.31089,34.8205 20,-34.64102 -20.3923,11.32052 -19.91859,-11.5 m 20.31089,34.8205 -0.3923,-23.3205 m 20.3923,-11.32052 20.00001,-34.99999 20,34.99999 h -40.00001 l 20,-11.99999 1e-5,-23 m 20,34.99999 -20.00001,-11.99999 m -19.92228,11.86538 -20.31088,34.82051 40.31088,-0.17949 -20,-34.64102 -0.3923,23.32051 -19.91858,11.5 m 40.31088,-0.17949 -20.3923,-11.32051 m 0.3923,-23.32051 -20.31088,-34.82051 40.31088,0.17949 -20,34.64102 -0.3923,-23.32051 -19.91858,-11.5 m 40.31088,0.17949 -20.3923,11.32051"
       inkscape:connector-curvature="0" />
    <path
       inkscape:connector-curvature="0"
       d="m -112.12971,203.22521 -20,-34.99999 -19.99999,34.99999 h 39.99999 l -20,-11.99999 v -23 m -19.99999,34.99999 19.99999,-11.99999 m 20,11.99999 40.310895,-0.17948 -20.31088,34.8205 -20.000015,-34.64102 20.392315,11.32052 19.91858,-11.5 m -20.31088,34.8205 0.3923,-23.3205 m -20.159155,-11.36539 -40.31088,-0.17948 20.31089,34.8205 19.99999,-34.64102 -20.39229,11.32052 -19.91859,-11.5 m 20.31089,34.8205 -0.3923,-23.3205 m 20.39229,-11.32052 20.000015,-34.99999 20,34.99999 h -40.000015 l 20.000015,-11.99999 v -23 m 20,34.99999 -20,-11.99999 m -19.922295,11.86538 -20.31087,34.82051 40.310875,-0.17949 -20.000005,-34.64102 -0.3923,23.32051 -19.91857,11.5 m 40.310875,-0.17949 -20.392305,-11.32051 m 0.3923,-23.32051 -20.31087,-34.82051 40.310875,0.17949 -20.000005,34.64102 -0.3923,-23.32051 -19.91857,-11.5 m 40.310875,0.17949 -20.392305,11.32051 m 0.0814,23.49999 -20,-34.99999 -19.99999,34.99999 h 39.99999 l -20,-11.99999 v -23 m -19.99997,34.99999 19.99999,-11.99999 m 20,11.99999 40.310895,-0.17948 -20.31088,34.8205 -20.000015,-34.64102 20.392315,11.32052 19.91858,-11.5 m -20.31088,34.8205 0.3923,-23.3205 m -20.159155,-11.36539 -40.31088,-0.17948 20.31089,34.8205 19.99999,-34.64102 -20.39229,11.32052 -19.91859,-11.5 m 20.31089,34.8205 -0.3923,-23.3205 m 20.39229,-11.32052 20.000015,-34.99999 20,34.99999 h -40.000015 l 20.000015,-11.99999 v -23 m 20,34.99999 -20,-11.99999 m -19.922295,11.86538 -20.31087,34.82051 40.310875,-0.17949 -20.000005,-34.64102 -0.3923,23.32051 -19.91857,11.5 m 40.310875,-0.17949 -20.392305,-11.32051 m 0.3923,-23.32051 -20.31087,-34.82051 40.310875,0.17949 -20.000005,34.64102 -0.3923,-23.32051 -19.91857,-11.5 m 40.310875,0.17949 -20.392305,11.32051"
       style="fill:none;stroke:#000000;stroke-width:1.66499996;stroke-linecap:butt;stroke-linejoin:round;stroke-miterlimit:4;stroke-dasharray:none;stroke-opacity:1"
       id="path1618" />
    <path
       id="path1620"
       style="fill:none;stroke:#000000;stroke-width:1.66499996;stroke-linecap:butt;stroke-linejoin:round;stroke-miterlimit:4;stroke-dasharray:none;stroke-opacity:1"
       d="m -111.81884,133.76369 -20,-34.999993 -19.99999,34.999993 h 39.99999 l -20,-11.99999 V 98.763697 m -19.99999,34.999993 19.99999,-11.99999 m 20,11.99999 40.310895,-0.17948 -20.31088,34.8205 -20.000015,-34.64102 20.392315,11.32052 19.91858,-11.5 m -20.31088,34.8205 0.3923,-23.3205 m -20.159155,-11.36539 -40.31088,-0.17948 20.31089,34.8205 19.99999,-34.64102 -20.39229,11.32052 -19.91859,-11.5 m 20.31089,34.8205 -0.3923,-23.3205 m 20.39229,-11.32052 20.000015,-34.999993 20,34.999993 h -40.000015 l 20.000015,-11.99999 V 98.718827 m 20,34.999993 -20,-11.99999 m -19.922295,11.86538 -20.31087,34.82051 40.310875,-0.17949 -20.000005,-34.64102 -0.3923,23.32051 -19.91857,11.5 m 40.310875,-0.17949 -20.392305,-11.32051 m 0.3923,-23.32051 -20.31087,-34.820513 40.310875,0.17949 -20.000005,34.641023 -0.3923,-23.32051 -19.91857,-11.500003 m 40.310875,0.17949 -20.392305,11.320513 m 0.0814,23.49999 -20,-34.999993 -19.99999,34.999993 h 39.99999 l -20,-11.99999 V 98.763697 m -19.99997,34.999993 19.99999,-11.99999 m 20,11.99999 40.310895,-0.17948 -20.31088,34.8205 -20.000015,-34.64102 20.392315,11.32052 19.91858,-11.5 m -20.31088,34.8205 0.3923,-23.3205 m -20.159155,-11.36539 -40.31088,-0.17948 20.31089,34.8205 19.99999,-34.64102 -20.39229,11.32052 -19.91859,-11.5 m 20.31089,34.8205 -0.3923,-23.3205 m 20.39229,-11.32052 20.000015,-34.999993 20,34.999993 h -40.000015 l 20.000015,-11.99999 V 98.718827 m 20,34.999993 -20,-11.99999 m -19.922295,11.86538 -20.31087,34.82051 40.310875,-0.17949 -20.000005,-34.64102 -0.3923,23.32051 -19.91857,11.5 m 40.310875,-0.17949 -20.392305,-11.32051 m 0.3923,-23.32051 -20.31087,-34.820513 40.310875,0.17949 -20.000005,34.641023 -0.3923,-23.32051 -19.91857,-11.500003 m 40.310875,0.17949 -20.392305,11.320513"
       inkscape:connector-curvature="0" />
    <path
       inkscape:connector-curvature="0"
       d="m -172.51831,237.82136 -20,-34.99999 -19.99999,34.99999 h 39.99999 l -20,-11.99999 v -23 m -19.99999,34.99999 19.99999,-11.99999 m 20,11.99999 40.31089,-0.17948 -20.31088,34.8205 -20.00001,-34.64102 20.39231,11.32052 19.91858,-11.5 m -20.31088,34.8205 0.3923,-23.3205 m -20.15915,-11.36539 -40.31088,-0.17948 20.31089,34.8205 19.99999,-34.64102 -20.3923,11.32052 -19.91858,-11.5 m 20.31089,34.8205 -0.39231,-23.3205 m 20.3923,-11.32052 20.00001,-34.99999 20,34.99999 h -40.00001 l 20.00001,-11.99999 v -23 m 20,34.99999 -20,-11.99999 m -19.92229,11.86538 -20.31087,34.82051 40.31087,-0.17949 -20,-34.64102 -0.3923,23.32051 -19.91857,11.5 m 40.31087,-0.17949 -20.3923,-11.32051 m 0.3923,-23.32051 -20.31087,-34.82051 40.31087,0.17949 -20,34.64102 -0.3923,-23.32051 -19.91857,-11.5 m 40.31087,0.17949 -20.3923,11.32051 m 0.0814,23.49999 -20,-34.99999 -19.99999,34.99999 h 39.99999 l -20,-11.99999 v -23 m -19.99997,34.99999 19.99999,-11.99999 m 20,11.99999 40.31089,-0.17948 -20.31088,34.8205 -20.00001,-34.64102 20.39231,11.32052 19.91858,-11.5 m -20.31088,34.8205 0.3923,-23.3205 m -20.15915,-11.36539 -40.31088,-0.17948 20.31089,34.8205 19.99999,-34.64102 -20.3923,11.32052 -19.91858,-11.5 m 20.31089,34.8205 -0.39231,-23.3205 m 20.3923,-11.32052 20.00001,-34.99999 20,34.99999 h -40.00001 l 20.00001,-11.99999 v -23 m 20,34.99999 -20,-11.99999 m -19.92229,11.86538 -20.31087,34.82051 40.31087,-0.17949 -20,-34.64102 -0.3923,23.32051 -19.91857,11.5 m 40.31087,-0.17949 -20.3923,-11.32051 m 0.3923,-23.32051 -20.31087,-34.82051 40.31087,0.17949 -20,34.64102 -0.3923,-23.32051 -19.91857,-11.5 m 40.31087,0.17949 -20.3923,11.32051"
       style="fill:none;stroke:#000000;stroke-width:1.66499996;stroke-linecap:butt;stroke-linejoin:round;stroke-miterlimit:4;stroke-dasharray:none;stroke-opacity:1"
       id="path1622" />
    <path
       id="path1624"
       style="fill:none;stroke:#000000;stroke-width:1.66499996;stroke-linecap:butt;stroke-linejoin:round;stroke-miterlimit:4;stroke-dasharray:none;stroke-opacity:1"
       d="m -232.4406,203.4047 -20,-34.99999 -20,34.99999 h 40 l -20,-11.99999 v -23 m -20,34.99999 20,-11.99999 m 20,11.99999 40.31089,-0.17948 -20.31088,34.8205 -20.00001,-34.64102 20.39231,11.32052 19.91858,-11.5 m -20.31088,34.8205 0.3923,-23.3205 m -20.15915,-11.36539 -40.31088,-0.17948 20.31088,34.8205 20,-34.64102 -20.3923,11.32052 -19.91858,-11.5 m 20.31088,34.8205 -0.3923,-23.3205 m 20.3923,-11.32052 20.00001,-34.99999 20,34.99999 h -40.00001 l 20.00001,-11.99999 v -23 m 20,34.99999 -20,-11.99999 m -19.92229,11.86538 -20.31088,34.82051 40.31088,-0.17949 -20,-34.64102 -0.3923,23.32051 -19.91858,11.5 m 40.31088,-0.17949 -20.3923,-11.32051 m 0.3923,-23.32051 -20.31088,-34.82051 40.31088,0.17949 -20,34.64102 -0.3923,-23.32051 -19.91858,-11.5 m 40.31088,0.17949 -20.3923,11.32051 m 0.0814,23.49999 -20,-34.99999 -20,34.99999 h 40 l -20,-11.99999 v -23 m -19.99998,34.99999 20,-11.99999 m 20,11.99999 40.31089,-0.17948 -20.31088,34.8205 -20.00001,-34.64102 20.39231,11.32052 19.91858,-11.5 m -20.31088,34.8205 0.3923,-23.3205 m -20.15915,-11.36539 -40.31088,-0.17948 20.31088,34.8205 20,-34.64102 -20.3923,11.32052 -19.91858,-11.5 m 20.31088,34.8205 -0.3923,-23.3205 m 20.3923,-11.32052 20.00001,-34.99999 20,34.99999 h -40.00001 l 20.00001,-11.99999 v -23 m 20,34.99999 -20,-11.99999 m -19.92229,11.86538 -20.31088,34.82051 40.31088,-0.17949 -20,-34.64102 -0.3923,23.32051 -19.91858,11.5 m 40.31088,-0.17949 -20.3923,-11.32051 m 0.3923,-23.32051 -20.31088,-34.82051 40.31088,0.17949 -20,34.64102 -0.3923,-23.32051 -19.91858,-11.5 m 40.31088,0.17949 -20.3923,11.32051"
       inkscape:connector-curvature="0" />
    <path
       inkscape:connector-curvature="0"
       d="m -232.51833,133.53933 -20,-34.999993 -19.99999,34.999993 h 39.99999 l -20,-11.99999 V 98.539337 m -19.99999,34.999993 19.99999,-11.99999 m 20,11.99999 40.31089,-0.17948 -20.31088,34.8205 -20.00001,-34.64102 20.39231,11.32052 19.91858,-11.5 m -20.31088,34.8205 0.3923,-23.3205 m -20.15915,-11.36539 -40.31088,-0.17948 20.31089,34.8205 19.99999,-34.64102 -20.3923,11.32052 -19.91858,-11.5 m 20.31089,34.8205 -0.39231,-23.3205 m 20.3923,-11.32052 20.00001,-34.999993 20,34.999993 h -40.00001 l 20.00001,-11.99999 V 98.494467 m 20,34.999993 -20,-11.99999 m -19.92229,11.86538 -20.31087,34.82051 40.31087,-0.17949 -20,-34.64102 -0.3923,23.32051 -19.91857,11.5 m 40.31087,-0.17949 -20.3923,-11.32051 m 0.3923,-23.32051 -20.31087,-34.820513 40.31087,0.17949 -20,34.641023 -0.3923,-23.32051 -19.91857,-11.500003 m 40.31087,0.17949 -20.3923,11.320513 m 0.0814,23.49999 -20,-34.999993 -19.99999,34.999993 h 39.99999 l -20,-11.99999 V 98.539337 m -19.99997,34.999993 19.99999,-11.99999 m 20,11.99999 40.31089,-0.17948 -20.31088,34.8205 -20.00001,-34.64102 20.39231,11.32052 19.91858,-11.5 m -20.31088,34.8205 0.3923,-23.3205 m -20.15915,-11.36539 -40.31088,-0.17948 20.31089,34.8205 19.99999,-34.64102 -20.3923,11.32052 -19.91858,-11.5 m 20.31089,34.8205 -0.39231,-23.3205 m 20.3923,-11.32052 20.00001,-34.999993 20,34.999993 h -40.00001 l 20.00001,-11.99999 V 98.494467 m 20,34.999993 -20,-11.99999 m -19.92229,11.86538 -20.31087,34.82051 40.31087,-0.17949 -20,-34.64102 -0.3923,23.32051 -19.91857,11.5 m 40.31087,-0.17949 -20.3923,-11.32051 m 0.3923,-23.32051 -20.31087,-34.820513 40.31087,0.17949 -20,34.641023 -0.3923,-23.32051 -19.91857,-11.500003 m 40.31087,0.17949 -20.3923,11.320513"
       style="fill:none;stroke:#000000;stroke-width:1.66499996;stroke-linecap:butt;stroke-linejoin:round;stroke-miterlimit:4;stroke-dasharray:none;stroke-opacity:1"
       id="path1626" />
    <path
       id="path1628"
       style="fill:none;stroke:#000000;stroke-width:1.66499996;stroke-linecap:butt;stroke-linejoin:round;stroke-miterlimit:4;stroke-dasharray:none;stroke-opacity:1"
       d="m -232.51833,133.53933 -20,-34.999993 -19.99999,34.999993 h 39.99999 l -20,-11.99999 V 98.539337 m -19.99999,34.999993 19.99999,-11.99999 m 20,11.99999 40.31089,-0.17948 -20.31088,34.8205 -20.00001,-34.64102 20.39231,11.32052 19.91858,-11.5 m -20.31088,34.8205 0.3923,-23.3205 m -20.15915,-11.36539 -40.31088,-0.17948 20.31089,34.8205 19.99999,-34.64102 -20.3923,11.32052 -19.91858,-11.5 m 20.31089,34.8205 -0.39231,-23.3205 m 20.3923,-11.32052 20.00001,-34.999993 20,34.999993 h -40.00001 l 20.00001,-11.99999 V 98.494467 m 20,34.999993 -20,-11.99999 m -19.92229,11.86538 -20.31087,34.82051 40.31087,-0.17949 -20,-34.64102 -0.3923,23.32051 -19.91857,11.5 m 40.31087,-0.17949 -20.3923,-11.32051 m 0.3923,-23.32051 -20.31087,-34.820513 40.31087,0.17949 -20,34.641023 -0.3923,-23.32051 -19.91857,-11.500003 m 40.31087,0.17949 -20.3923,11.320513 m 0.0814,23.49999 -20,-34.999993 -19.99999,34.999993 h 39.99999 l -20,-11.99999 V 98.539337 m -19.99997,34.999993 19.99999,-11.99999 m 20,11.99999 40.31089,-0.17948 -20.31088,34.8205 -20.00001,-34.64102 20.39231,11.32052 19.91858,-11.5 m -20.31088,34.8205 0.3923,-23.3205 m -20.15915,-11.36539 -40.31088,-0.17948 20.31089,34.8205 19.99999,-34.64102 -20.3923,11.32052 -19.91858,-11.5 m 20.31089,34.8205 -0.39231,-23.3205 m 20.3923,-11.32052 20.00001,-34.999993 20,34.999993 h -40.00001 l 20.00001,-11.99999 V 98.494467 m 20,34.999993 -20,-11.99999 m -19.92229,11.86538 -20.31087,34.82051 40.31087,-0.17949 -20,-34.64102 -0.3923,23.32051 -19.91857,11.5 m 40.31087,-0.17949 -20.3923,-11.32051 m 0.3923,-23.32051 -20.31087,-34.820513 40.31087,0.17949 -20,34.641023 -0.3923,-23.32051 -19.91857,-11.500003 m 40.31087,0.17949 -20.3923,11.320513"
       inkscape:connector-curvature="0" />
    <path
       inkscape:connector-curvature="0"
       d="m -172.12975,98.943177 -20,-34.999993 -19.99999,34.999993 h 39.99999 l -20,-11.99999 V 63.943184 m -19.99999,34.999993 19.99999,-11.99999 m 20,11.99999 40.31089,-0.17948 -20.31088,34.820503 -20.00001,-34.641023 20.39231,11.320523 19.91858,-11.500003 m -20.31088,34.820503 0.3923,-23.3205 m -20.15915,-11.365393 -40.31088,-0.17948 20.31089,34.820503 19.99999,-34.641023 -20.3923,11.320523 -19.91858,-11.500003 m 20.31089,34.820503 -0.39231,-23.3205 m 20.3923,-11.320523 20.00001,-34.999993 20,34.999993 h -40.00001 l 20.00001,-11.99999 V 63.898314 m 20,34.999993 -20,-11.99999 m -19.92229,11.86538 -20.31087,34.820513 40.31087,-0.17949 -20,-34.641023 -0.3923,23.320513 -19.91857,11.5 m 40.31087,-0.17949 -20.3923,-11.32051 m 0.3923,-23.320513 -20.31087,-34.820513 40.31087,0.17949 -20,34.641023 -0.3923,-23.32051 -19.91857,-11.500003 m 40.31087,0.17949 -20.3923,11.320513 m 0.0814,23.49999 -20,-34.999993 -19.99999,34.999993 h 39.99999 l -20,-11.99999 V 63.943184 m -19.99997,34.999993 19.99999,-11.99999 m 20,11.99999 40.31089,-0.17948 -20.31088,34.820503 -20.00001,-34.641023 20.39231,11.320523 19.91858,-11.500003 m -20.31088,34.820503 0.3923,-23.3205 m -20.15915,-11.365393 -40.31088,-0.17948 20.31089,34.820503 19.99999,-34.641023 -20.3923,11.320523 -19.91858,-11.500003 m 20.31089,34.820503 -0.39231,-23.3205 m 20.3923,-11.320523 20.00001,-34.999993 20,34.999993 h -40.00001 l 20.00001,-11.99999 V 63.898314 m 20,34.999993 -20,-11.99999 m -19.92229,11.86538 -20.31087,34.820513 40.31087,-0.17949 -20,-34.641023 -0.3923,23.320513 -19.91857,11.5 m 40.31087,-0.17949 -20.3923,-11.32051 m 0.3923,-23.320513 -20.31087,-34.820513 40.31087,0.17949 -20,34.641023 -0.3923,-23.32051 -19.91857,-11.500003 m 40.31087,0.17949 -20.3923,11.320513"
       style="fill:none;stroke:#000000;stroke-width:1.66499996;stroke-linecap:butt;stroke-linejoin:round;stroke-miterlimit:4;stroke-dasharray:none;stroke-opacity:1"
       id="path1630" />
    <path
       sodipodi:nodetypes="cccccccc"
       inkscape:connector-curvature="0"
       d="m -111.58566,64.077807 -20.31088,34.82051 40.310875,-0.17949 -19.999995,-34.64102 -0.3923,23.32051 -19.91858,11.5 m 40.310875,-0.17949 -20.392295,-11.32051"
       style="fill:none;stroke:#000000;stroke-width:1.66499996;stroke-linecap:butt;stroke-linejoin:round;stroke-miterlimit:4;stroke-dasharray:none;stroke-opacity:1"
       id="path1632" />
    <path
       id="path1634"
       style="fill:none;stroke:#000000;stroke-width:1.66499996;stroke-linecap:butt;stroke-linejoin:round;stroke-miterlimit:4;stroke-dasharray:none;stroke-opacity:1"
       d="m -111.66338,64.212421 -40.31089,-0.179483 20.31088,34.820501 20.00001,-34.641018 -20.39231,11.320514 -19.91858,-11.499997 m 20.31088,34.820501 -0.3923,-23.320504"
       inkscape:connector-curvature="0"
       sodipodi:nodetypes="cccccccc" />
    <path
       sodipodi:nodetypes="cccccccc"
       inkscape:connector-curvature="0"
       d="m -232.28516,63.853447 -20.31088,34.82051 40.31088,-0.17949 -20,-34.64102 -0.3923,23.32051 -19.91858,11.5 m 40.31088,-0.17949 -20.3923,-11.32051"
       style="fill:none;stroke:#000000;stroke-width:1.66499996;stroke-linecap:butt;stroke-linejoin:round;stroke-miterlimit:4;stroke-dasharray:none;stroke-opacity:1"
       id="path1636" />
    <path
       id="path1638"
       style="fill:none;stroke:#000000;stroke-width:1.66499996;stroke-linecap:butt;stroke-linejoin:round;stroke-miterlimit:4;stroke-dasharray:none;stroke-opacity:1"
       d="m -232.59604,64.032933 40.31088,-0.179483 -20.31088,34.820501 -20,-34.641018 20.3923,11.320513 19.91858,-11.499996 m -20.31088,34.820501 0.3923,-23.320505"
       inkscape:connector-curvature="0"
       sodipodi:nodetypes="cccccccc" />
    <path
       sodipodi:nodetypes="cccccccc"
       inkscape:connector-curvature="0"
       d="m -292.4406,168.40471 20,-34.99999 20,34.99999 h -40 l 20,-11.99999 v -23 m 20,34.99999 -20,-11.99999"
       style="fill:none;stroke:#000000;stroke-width:1.66499996;stroke-linecap:butt;stroke-linejoin:round;stroke-miterlimit:4;stroke-dasharray:none;stroke-opacity:1"
       id="path1640" />
    <path
       id="path1642"
       style="fill:none;stroke:#000000;stroke-width:1.66499996;stroke-linecap:butt;stroke-linejoin:round;stroke-miterlimit:4;stroke-dasharray:none;stroke-opacity:1"
       d="m -292.67376,168.44958 40.31088,-0.17948 -20.31088,34.8205 -20,-34.64102 20.3923,11.32052 19.91858,-11.5 m -20.31088,34.8205 0.3923,-23.3205"
       inkscape:connector-curvature="0"
       sodipodi:nodetypes="cccccccc" />
    <path
       id="path1644"
       style="fill:none;stroke:#000000;stroke-width:1.66499996;stroke-linecap:butt;stroke-linejoin:round;stroke-miterlimit:4;stroke-dasharray:none;stroke-opacity:1"
       d="m -232.36288,272.9111 -20.31088,-34.82051 40.31088,0.17949 -20,34.64102 -0.3923,-23.32051 -19.91858,-11.5 m 40.31088,0.17949 -20.3923,11.32051"
       inkscape:connector-curvature="0"
       sodipodi:nodetypes="cccccccc" />
    <path
       sodipodi:nodetypes="cccccccc"
       inkscape:connector-curvature="0"
       d="m -232.4406,273.04571 20.00001,-34.99999 20,34.99999 h -40.00001 l 20.00001,-11.99999 v -23 m 20,34.99999 -20,-11.99999"
       style="fill:none;stroke:#000000;stroke-width:1.66499996;stroke-linecap:butt;stroke-linejoin:round;stroke-miterlimit:4;stroke-dasharray:none;stroke-opacity:1"
       id="path1646" />
    <path
       id="path1648"
       style="fill:none;stroke:#000000;stroke-width:1.66499996;stroke-linecap:butt;stroke-linejoin:round;stroke-miterlimit:4;stroke-dasharray:none;stroke-opacity:1"
       d="m -111.58565,272.64187 -20.31088,-34.82051 40.310876,0.17949 -19.999996,34.64102 -0.3923,-23.32051 -19.91858,-11.5 m 40.310876,0.17949 -20.392296,11.32051"
       inkscape:connector-curvature="0"
       sodipodi:nodetypes="cccccccc" />
    <path
       sodipodi:nodetypes="cccccccc"
       inkscape:connector-curvature="0"
       d="m -111.89653,272.82135 -20.00001,-34.99999 -20,34.99999 h 40.00001 l -20.00001,-11.99999 v -23 m -20,34.99999 20,-11.99999"
       style="fill:none;stroke:#000000;stroke-width:1.66499996;stroke-linecap:butt;stroke-linejoin:round;stroke-miterlimit:4;stroke-dasharray:none;stroke-opacity:1"
       id="path1650" />
    <path
       id="path1652"
       style="fill:none;stroke:#000000;stroke-width:1.66499996;stroke-linecap:butt;stroke-linejoin:round;stroke-miterlimit:4;stroke-dasharray:none;stroke-opacity:1"
       d="m -51.197069,168.40471 -40.310886,-0.17948 20.310883,34.8205 20.000003,-34.64102 -20.392304,11.32052 -19.918582,-11.5 m 20.310883,34.8205 -0.392301,-23.3205"
       inkscape:connector-curvature="0"
       sodipodi:nodetypes="cccccccc" />
    <path
       sodipodi:nodetypes="cccccccc"
       inkscape:connector-curvature="0"
       d="m -51.430229,168.44958 -20.000006,-34.99999 -19.999997,34.99999 h 40.000003 l -20.000005,-11.99999 -10e-7,-23 m -19.999997,34.99999 19.999998,-11.99999"
       style="fill:none;stroke:#000000;stroke-width:1.66499996;stroke-linecap:butt;stroke-linejoin:round;stroke-miterlimit:4;stroke-dasharray:none;stroke-opacity:1"
       id="path1654" />
    <path
       id="path1678"
       style="fill:none;stroke:#000000;stroke-width:1.66499996;stroke-linecap:butt;stroke-linejoin:round;stroke-miterlimit:4;stroke-dasharray:none;stroke-opacity:1"
       d="m -106.70302,-52.323416 -20.00001,-34.999993 -19.99999,34.999991 40,2e-6 -20.00001,-11.999997 v -22.999996 m -19.99999,34.999991 19.99999,-11.999995 m 20.00001,11.999997 40.310877,-0.179483 -20.31088,34.820502 -19.999997,-34.641019 20.392297,11.320513 19.91858,-11.499996 m -20.31088,34.820502 0.3923,-23.320506 m -20.159137,-11.365385 -40.31089,-0.179483 20.31089,34.820502 20,-34.641019 -20.3923,11.320514 -19.91859,-11.499997 m 20.31089,34.820502 -0.3923,-23.320505 m 20.3923,-11.320514 20.000007,-34.999993 19.99999,34.999991 -39.999997,2e-6 19.999997,-11.999996 1e-5,-22.999997 m 19.99999,34.999991 -20,-11.999994 m -19.922277,11.865382 -20.31088,34.820511 40.310877,-0.17949 -19.999997,-34.641021 -0.3923,23.320511 -19.91858,11.5 m 40.310877,-0.17949 -20.392297,-11.32051 m 0.3923,-23.320511 -20.31088,-34.82051 40.310877,0.17949 -19.999997,34.64102 -0.3923,-23.32051 -19.91858,-11.5 m 40.310877,0.17949 -20.392297,11.32051 m 0.0814,23.499996 -20.00001,-34.999993 -19.99999,34.999991 40,2e-6 -20.00001,-11.999997 v -22.999996 m -19.99999,34.999991 19.99999,-11.999995 m 20.00001,11.999997 40.310877,-0.179483 -20.31088,34.820502 -19.999997,-34.641019 20.392297,11.320513 19.91858,-11.499996 m -20.31088,34.820502 0.3923,-23.320506 m -20.159137,-11.365385 -40.31089,-0.179483 20.31089,34.820502 20,-34.641019 -20.3923,11.320514 -19.91859,-11.499997 m 20.31089,34.820502 -0.3923,-23.320505 m 20.3923,-11.320514 20.000007,-34.999993 19.99999,34.999991 -39.999997,2e-6 19.999997,-11.999996 10e-6,-22.999997 m 19.99999,34.999991 -20,-11.999994 m -19.922277,11.865382 -20.31088,34.820511 40.310877,-0.17949 -19.999997,-34.641021 -0.3923,23.320511 -19.91858,11.5 m 40.310877,-0.17949 -20.392297,-11.32051 m 0.3923,-23.320511 -20.31088,-34.82051 40.310877,0.17949 -19.999997,34.64102 -0.3923,-23.32051 -19.91858,-11.5 m 40.310877,0.17949 -20.392297,11.32051"
       inkscape:connector-curvature="0" />
    <path
       style="color:#000000;font-style:normal;font-variant:normal;font-weight:normal;font-stretch:normal;font-size:medium;line-height:normal;font-family:sans-serif;font-variant-ligatures:normal;font-variant-position:normal;font-variant-caps:normal;font-variant-numeric:normal;font-variant-alternates:normal;font-feature-settings:normal;text-indent:0;text-align:start;text-decoration:none;text-decoration-line:none;text-decoration-style:solid;text-decoration-color:#000000;letter-spacing:normal;word-spacing:normal;text-transform:none;writing-mode:lr-tb;direction:ltr;text-orientation:mixed;dominant-baseline:auto;baseline-shift:baseline;text-anchor:start;white-space:normal;shape-padding:0;clip-rule:nonzero;display:inline;overflow:visible;visibility:visible;opacity:1;isolation:auto;mix-blend-mode:normal;color-interpolation:sRGB;color-interpolation-filters:linearRGB;solid-color:#000000;solid-opacity:1;vector-effect:none;fill:#000000;fill-opacity:1;fill-rule:nonzero;stroke:none;stroke-width:3;stroke-linecap:butt;stroke-linejoin:round;stroke-miterlimit:4;stroke-dasharray:none;stroke-dashoffset:0;stroke-opacity:1;color-rendering:auto;image-rendering:auto;shape-rendering:auto;text-rendering:auto;enable-background:accumulate"
       d="m -194.42969,320.53516 -39.29687,0.17578 a 1.50015,1.50015 0 0 0 -1.5918,0.12304 1.50015,1.50015 0 0 0 -0.91211,1.32227 l -19.68555,33.75 a 1.50015,1.50015 0 0 0 -0.0254,0.0449 l -0.01,0.0137 a 1.50015,1.50015 0 0 0 -0.006,0.01 1.50015,1.50015 0 0 0 -0.002,0.002 l -0.0703,0.12305 -19.50195,34.12891 a 1.50015,1.50015 0 0 0 -0.0449,0.0273 1.50015,1.50015 0 0 0 -0.11914,0.0898 1.50015,1.50015 0 0 0 -0.10938,0.10157 1.50015,1.50015 0 0 0 -0.0996,0.11328 1.50015,1.50015 0 0 0 -0.0879,0.12109 1.50015,1.50015 0 0 0 -0.13672,0.26563 1.50015,1.50015 0 0 0 -0.0488,0.14257 1.50015,1.50015 0 0 0 -0.0332,0.14649 1.50015,1.50015 0 0 0 -0.0215,0.22265 l -19.37305,33.90235 a 1.50015,1.50015 0 0 0 -0.50586,2.02148 l 20,34.64063 a 1.50015,1.50015 0 0 0 0.22266,0.29101 1.50015,1.50015 0 0 0 0.0566,0.0957 1.50015,1.50015 0 0 0 0.17773,0.22265 l 19.39453,33.2461 a 1.50015,1.50015 0 0 0 0.15235,1.15039 l 20.03906,34.35547 a 1.50015,1.50015 0 0 0 1.49024,1.34375 h 40 a 1.50015,1.50015 0 0 0 1.18945,-0.58985 l 38.03125,-0.16992 a 1.50015,1.50015 0 0 0 0.0527,0.0293 1.50015,1.50015 0 0 0 0.23047,0.0859 1.50015,1.50015 0 0 0 1.03906,0.41993 h 40 a 1.50015,1.50015 0 0 0 0.90039,-0.30274 1.50015,1.50015 0 0 0 0.71094,-0.62695 l 20.000002,-34.64063 a 1.50015,1.50015 0 0 0 0.109375,-1.25781 l 19.232422,-32.9707 a 1.50015,1.50015 0 0 0 1.044922,-0.72656 l 20,-34.64063 a 1.50015,1.50015 0 0 0 -0.582032,-2.06641 l -19.646484,-34.38281 a 1.50015,1.50015 0 0 0 -0.658203,-0.60937 l -19.488281,-34.10742 -0.0098,-0.0156 a 1.50015,1.50015 0 0 0 -0.002,-0.006 l -20.000001,-34.64062 a 1.50015,1.50015 0 0 0 -1.91015,-0.61719 l -39.07618,-0.17383 a 1.50015,1.50015 0 0 0 -0.8457,-0.12109 1.50015,1.50015 0 0 0 -0.14844,0.0293 1.50015,1.50015 0 0 0 -0.41211,0.17383 l -39.09961,-0.17383 a 1.50015,1.50015 0 0 0 -0.51367,-0.0918 z m -5.63476,3.02539 -14.29102,8.25195 -14.63281,-8.12305 z m 11.4375,0.0898 28.92383,0.12891 -14.63086,8.12304 z m 40.15429,0.0898 28.92578,0.12891 -14.63281,8.12305 z m -50.09179,2.41797 -14.57422,24.98438 0.2832,-16.73242 z m 8.4375,0.0898 14.29297,8.25195 0.28125,16.73242 z m 72.27539,0.11133 -14.54688,24.93945 -0.27929,-16.70899 z m -40.375,0.0332 -14.32227,25.0625 -0.28515,-16.95508 z m 8.40039,0.0293 14.14648,8.16796 0.28321,16.73243 -9.83594,-16.86133 z m -80.29102,0.0723 14.25977,7.91602 -0.27344,16.31054 z m 117.80078,1.20508 14.585941,25.26172 -14.871091,-8.25391 z m -123.70312,0.0508 -0.28125,16.73242 -14.29297,8.25196 z m 40.25195,0.0234 v 16.5039 l -14.34961,8.60938 z m 3,0 14.34961,25.11328 -14.34961,-8.61133 z m 40.23242,0.12304 4.69727,8.05274 9.65234,16.89258 -14.34961,-8.60938 z m 37.21485,0.12891 -0.28125,16.68164 -14.02344,8.0957 z m -40.21485,0.0117 v 16.19336 l -14.30468,8.58398 z m -77.49218,0.13477 13.98828,24.22656 -14.26172,-7.91602 z m 78.99218,18.6582 14.40039,8.64062 -24.5625,0.10938 h -4.42187 z m -40.23242,0.0449 14.46485,8.67969 -28.7168,-0.12891 z m -40.5332,0.20508 14.63281,8.12304 -19.4668,0.0859 -9.3125,-0.041 z m 120.69922,0.22461 14.630857,8.12109 -19.408207,0.0859 -9.36914,-0.041 z m -125.53321,10.98437 19.54297,0.0859 -14.63086,8.12305 -14.14648,-8.16797 z m 120.75586,0.22266 19.488285,0.0879 -14.632815,8.12305 -14.14844,-8.16797 z m -45.30468,0.0684 h 24.39648 l -14.10351,8.14258 -14.63282,-8.12305 z m -44.17579,0.0449 h 28.45313 l -14.50586,8.05273 z m -42.15624,2.21875 14.29296,8.25195 0.28125,16.73438 z m 31.90039,0.14258 -14.32227,25.06445 -0.28516,-16.95508 z m 8.41211,0.0391 14.28906,8.25195 0.2832,16.72852 z m 32.11914,0.0195 -14.54688,24.9375 -0.28125,-16.70703 z m 39.98632,0.0234 -14.57422,24.98242 0.28321,-16.73047 z m 8.28125,0 14.29297,8.25195 0.28125,16.73242 z m 31.902348,0.14258 -14.324218,25.06836 -0.28516,-16.95899 z m -71.736328,0.19336 14.25977,7.91601 -0.27344,16.31055 z m -43.27344,0.92187 14.34961,25.11133 -14.34961,-8.60938 z m -43.23242,0.0449 v 16.50196 l -14.34961,8.60937 z m 3,0 14.34961,25.11133 -14.34961,-8.60937 z m 160.931641,0.17579 14.351562,25.11523 -14.351562,-8.61133 z m -43.232421,0.0469 v 16.50391 l -14.34961,8.60937 z m 3,0 14.34961,25.11328 -14.34961,-8.60937 z m -83.4668,0.0391 v 16.19531 l -14.30469,8.58204 z m 40.36914,0.0781 -0.27929,16.68164 -14.0254,8.0957 z m 80.330081,0.14648 v 16.19531 l -14.306641,8.58399 z m -77.335941,0.22461 13.98828,24.22656 -14.26171,-7.91601 z m -41.86328,18.34375 14.4043,8.64258 -24.56641,0.10937 h -4.42383 z m -40.23242,0.0449 14.46875,8.68164 -28.72461,-0.1289 z m 160.933594,0.17969 14.398437,8.64063 -24.560551,0.10937 h -4.42187 z m -40.234374,0.0449 14.4668,8.67969 -28.72266,-0.12695 z m -40.37695,0.29492 14.63086,8.12305 -9.49219,0.041 -19.13281,-0.084 z m 5.13867,11.16407 9.41211,0.043 -14.63086,8.12109 -13.99219,-8.07813 z m -55.70899,0.0234 h 24.72657 l -14.10157,8.14063 -14.63086,-8.12305 z m -43.84179,0.0449 h 28.44726 l -14.50195,8.05078 z m 164.87304,0.17773 h 24.396488 l -14.103516,8.14258 -14.632812,-8.12305 z m -44.17578,0.0449 h 28.45313 l -14.50586,8.05274 z m -90.42187,2.19336 -14.54883,24.94141 -0.28125,-16.70899 z m -32.05469,0.0215 14.22266,8.21289 0.2832,16.72851 -12.32813,-21.13086 z m 80.32031,0.004 14.29297,8.25196 0.28125,16.73242 z m -8.28125,0.002 -14.57422,24.98046 0.28321,-16.72851 z m 40.18555,0.13867 -14.32617,25.07226 -0.28516,-16.96093 z m 8.4082,0.041 14.29102,8.25196 0.28125,16.73046 z m 32.1211,0.0176 -14.54883,24.94336 -0.28125,-16.71094 z m 39.984371,0.0273 -14.574219,24.98438 0.283203,-16.73242 z M -230.04102,396 l 14.26172,7.91602 -0.27343,16.31054 z m 120.70118,0.22461 14.259762,7.91601 -0.273438,16.31055 z m -43.27344,0.91992 14.35156,25.11328 -14.35156,-8.61133 z m -43.23242,0.0469 v 16.50195 l -14.34961,8.60937 z m 3,0 14.34961,25.11132 -14.34961,-8.60937 z m -83.23242,0.043 v 16.5039 l -14.35157,8.61133 z m 201.009761,0.0469 v 16.50195 l -14.34961,8.60938 z m 3,0 14.349609,25.11133 -14.349609,-8.60938 z m -163.875001,0.0273 -0.2793,16.67969 -14.02539,8.09766 z m -37.13476,0.004 2.15039,3.6875 12.19921,21.34766 -14.3496,-8.60938 z m 117.46484,0.14258 v 16.19336 l -14.30469,8.58203 z m 40.36914,0.0762 -0.2793,16.68164 -14.02539,8.0957 z m -117.70508,0.14844 13.98633,24.22461 -14.25977,-7.91602 z m 120.69922,0.22265 13.986328,24.22657 -14.259768,-7.91602 z m -41.86328,18.34375 14.4043,8.64258 -24.56446,0.10938 h -4.42383 z m -40.23242,0.0449 14.46875,8.68164 -28.72461,-0.12891 z m -80.23242,0.0449 14.40429,8.64258 -24.5664,0.10937 h -4.42383 z m 201.009761,0.0449 14.46875,8.68164 -28.72461,-0.12891 z m -161.154301,0.20508 14.63086,8.12304 -28.92382,0.12891 z m 120.69922,0.22461 14.632815,8.12304 -14.566405,0.0645 -14.13867,-0.0625 z m -50.23828,11.1875 h 24.39453 l -14.10156,8.14062 -14.62891,-8.12109 z m 50.30469,0 14.251952,0.0645 -14.630862,8.12109 -14.0664,-8.12109 z m -94.47852,0.0449 h 28.44922 l -14.5039,8.05078 z m -76.29101,0.0449 h 24.39258 l -14.09961,8.14063 -14.63086,-8.1211 z m 35.79297,0.0254 28.91992,0.12695 -14.63086,8.12305 z m 161.275387,0.0195 h 28.449219 l -14.503907,8.05078 z m -122.623047,2.3086 14.29102,8.25195 0.2832,16.73242 z m 32.12109,0.0176 -14.54882,24.94336 -0.28125,-16.71093 z m 120.818363,0.0684 -14.585937,25.26172 -0.285157,-17.00781 z m -72.785153,0.002 14.29297,8.25195 0.28125,16.73437 z m 40.623044,0.002 14.291015,8.25195 0.28125,16.73047 z m -201.302734,0.0391 14.87109,8.25586 -0.28515,17.00781 z m 32.16406,0.006 -14.57422,24.98438 0.28321,-16.73243 z m 120.24414,0.0391 -7.14844,12.50782 -7.20312,12.34765 0.2832,-16.73242 z m 40.173831,0.0566 -14.324221,25.0664 -0.28515,-16.95703 z m -152.212891,0.0391 14.29102,8.25 0.28125,16.73437 z m 80.70703,0.10937 14.26172,7.91602 -0.27344,16.31055 z m -48.80469,0.0312 -14.32422,25.06641 -0.28515,-16.95703 z m 126.000004,1.16016 14.349609,25.11133 -14.349609,-8.60938 z m -40.232424,0.0449 14.34961,25.11133 -14.34961,-8.60938 z m -42.86523,0.0762 -0.2793,16.67578 -14.02344,8.09571 z m -37.21289,0.0586 14.34961,25.11132 -14.34961,-8.60937 z m -43.23242,0.043 v 16.5039 l -14.35157,8.61133 z m 3,0.002 14.3496,25.11133 -14.3496,-8.60938 z m 117.31054,0.0762 v 16.24609 l -14.34961,8.60938 7.22266,-12.63867 z m 40.232424,0.008 v 16.19336 l -14.304684,8.58203 z m -120.310544,0.17774 v 16.19531 l -14.30469,8.58203 z m 43.20703,0.002 13.98633,24.22461 -14.25977,-7.91602 z m 78.603514,18.61133 14.404297,8.64258 -24.566411,0.10937 h -4.42382 z m -40.232424,0.0449 14.46875,8.68164 -28.72461,-0.12891 z m -80.07812,0.13477 14.40429,8.64257 -24.5664,0.10938 h -4.42383 z m -40.23242,0.0449 14.46874,8.68164 -28.7246,-0.12891 z m 80.16601,0.0703 14.63281,8.12305 -14.5664,0.0645 -14.13868,-0.0625 z m 0.0664,11.1875 14.25195,0.0645 -14.63086,8.1211 -14.06641,-8.1211 z m 70.16211,0.26953 h 24.394528 l -14.101563,8.14063 -14.628905,-8.1211 z m -44.17383,0.0449 h 28.44726 l -14.50195,8.05078 z m -76.13672,0.13477 h 24.39453 l -14.10156,8.14062 -14.63086,-8.12109 z m -44.17383,0.0449 h 28.44727 l -14.50196,8.05078 z m 78.15235,2.03906 14.29296,8.25196 0.28125,16.73242 z m 31.90234,0.14063 -14.32422,25.0664 -0.28516,-16.95703 z m 8.4082,0.0391 14.29102,8.25195 0.2832,16.72852 z m 32.12305,0.0176 -14.54883,24.9414 -0.28125,-16.70898 z m 39.984374,0.0273 -14.574219,24.98047 0.283203,-16.72851 z m -192.417964,0.13477 14.29101,8.25195 0.2832,16.73242 z m 32.11914,0.0195 -14.54493,24.9375 -0.28125,-16.70703 z m 128.74414,0.17969 14.261715,7.91601 -0.273437,16.31055 z m -120.31055,0.17968 14.26172,7.91602 -0.27344,16.31055 z m 30.71484,0.15039 -13.72656,24.01954 0.27344,-16.25196 z m 46.32422,0.5918 14.34961,25.11133 -14.34961,-8.60937 z m -40.23242,0.0449 14.34961,25.11133 -14.34961,-8.60937 z m 37.23242,0.26368 v 16.19336 l -14.30469,8.58203 z m 40.36914,0.0781 -0.27929,16.67969 -14.0254,8.09765 z m -120.31054,0.17969 -0.28125,16.67969 -14.02344,8.09765 z m 123.30468,0.1914 13.988284,24.22657 -14.261714,-7.91797 z m -120.31054,0.17969 13.98632,24.22461 -14.25976,-7.91601 z m 36.71484,0.0762 v 15.53321 l -13.9375,8.36132 z m 41.73242,18.08594 14.4043,8.64258 -24.56641,0.10937 h -4.42383 z m -40.23242,0.0449 14.46875,8.68164 -28.72461,-0.1289 z m 80.32227,0.51953 14.630855,8.12305 -28.923825,0.12891 z m -120.31055,0.17969 14.63086,8.12305 -28.92383,0.1289 z m 70.07226,11.00781 h 24.39454 l -14.10157,8.14063 -14.6289,-8.12109 z m -44.17578,0.0449 h 28.44922 l -14.50195,8.05273 z m 80.35547,0.0254 28.921877,0.1289 -14.630857,8.1211 z m -120.77734,0.26953 28.92187,0.1289 -14.63086,8.1211 z m 38.57617,2.10351 14.29297,8.25196 0.28125,16.73047 z m 32.12109,0.0195 -14.54687,24.93945 -0.28125,-16.70703 z m 39.98633,0.0254 -14.57422,24.98046 0.28321,-16.72851 z m 40.755861,0.17578 -14.585941,25.26172 -0.28515,-17.00782 z m -32.162111,0.006 14.29102,8.25 0.28125,16.73242 z m -40.14844,0.15234 14.26172,7.91602 -0.27343,16.31054 z m -80.6289,0.11523 14.29101,8.25 0.28125,16.73438 z m 31.90234,0.13868 -14.32617,25.07031 -0.2832,-16.95899 z m 42.82422,1.05468 -0.2793,16.67969 -14.02539,8.09766 z m 40.4082,0.0625 v 16.50196 l -14.34961,8.60937 z m 3,0 14.34961,25.11133 -14.34961,-8.60937 z m -80.54296,0.22461 14.3496,25.11133 -14.3496,-8.60937 z m 40.1289,0.084 13.98828,24.22656 -14.26172,-7.91602 z m -43.1289,0.22461 v 16.19336 l -14.30469,8.58203 z m 82.04296,18.5664 14.58594,8.75196 h -29.17187 z m -40.68945,0.11719 14.63086,8.12109 -28.92187,0.12891 z m -39.85351,0.10742 14.58593,8.75196 h -29.17187 z"
       id="path1719"
       inkscape:connector-curvature="0" />
    <path
       style="fill:none;stroke:#000000;stroke-width:0.26458332px;stroke-linecap:butt;stroke-linejoin:miter;stroke-opacity:1"
       d="m 250.09944,-590.57732 69.64102,40.62178"
       id="path1724"
       inkscape:connector-curvature="0" />
    <path
       style="fill:none;stroke:#000000;stroke-width:0.26458332px;stroke-linecap:butt;stroke-linejoin:miter;stroke-opacity:1"
       d="m 319.91995,-590.26643 -70,40"
       id="path1726"
       inkscape:connector-curvature="0" />
    <path
       style="fill:none;stroke:#000000;stroke-width:0.26458332px;stroke-linecap:butt;stroke-linejoin:miter;stroke-opacity:1"
       d="m 285.09945,-610.57732 -0.35899,80.62178"
       id="path1728"
       inkscape:connector-curvature="0" />
    <path
       style="fill:none;stroke:#000000;stroke-width:1;stroke-linecap:butt;stroke-linejoin:miter;stroke-miterlimit:4;stroke-dasharray:none;stroke-opacity:1"
       d="m 285.09945,-610.57732 -35.00001,20 -0.17949,40.31089 34.82051,20.31089 35,-20 0.17949,-40.31089 -34.8205,-20.31089 -0.17341,40.30922 -35.00609,20.00167"
       id="path1734"
       inkscape:connector-curvature="0" />
    <path
       style="fill:none;stroke:#000000;stroke-width:1;stroke-linecap:butt;stroke-linejoin:miter;stroke-miterlimit:4;stroke-dasharray:none;stroke-opacity:1"
       d="m 284.92604,-570.2681 34.81442,20.31256"
       id="path1736"
       inkscape:connector-curvature="0" />
    <path
       id="path1740"
       style="fill:none;stroke:#000000;stroke-width:1;stroke-linecap:butt;stroke-linejoin:miter;stroke-miterlimit:4;stroke-dasharray:none;stroke-opacity:1"
       d="m 361.8132,-496.81312 -34.81442,-20.31255 m 34.64101,60.62177 35.00001,-20 0.17949,-40.31089 -34.82051,-20.31088 -35,20 -0.17949,40.31088 34.8205,20.31089 0.17341,-40.30922 35.00609,-20.00167"
       inkscape:connector-curvature="0" />
    <path
       inkscape:connector-curvature="0"
       d="m 290.3757,-278.26729 -34.81442,-20.31254 m 34.64101,60.62176 35.00001,-20 0.17949,-40.31088 -34.82051,-20.31088 -35,20 -0.17949,40.31087 34.8205,20.31089 0.17341,-40.30922 35.00609,-20.00166"
       style="fill:none;stroke:#000000;stroke-width:1;stroke-linecap:butt;stroke-linejoin:miter;stroke-miterlimit:4;stroke-dasharray:none;stroke-opacity:1"
       id="path1743" />
    <path
       id="path1745"
       style="fill:none;stroke:#000000;stroke-width:1;stroke-linecap:butt;stroke-linejoin:miter;stroke-miterlimit:4;stroke-dasharray:none;stroke-opacity:1"
       d="m 325.01672,-217.64552 -34.81442,-20.31255 m 34.64101,60.62177 35.00001,-20 0.17949,-40.31089 -34.82051,-20.31088 -35,20 -0.17949,40.31088 34.8205,20.31089 0.17341,-40.30922 35.00609,-20.00167"
       inkscape:connector-curvature="0" />
    <path
       inkscape:connector-curvature="0"
       d="m 255.19621,-217.9564 -34.81442,-20.31255 m 34.64101,60.62177 35.00001,-20 0.17949,-40.31089 -34.82051,-20.31088 -35,20 -0.17949,40.31088 34.8205,20.31089 0.17341,-40.30922 35.00609,-20.00167"
       style="fill:none;stroke:#000000;stroke-width:1;stroke-linecap:butt;stroke-linejoin:miter;stroke-miterlimit:4;stroke-dasharray:none;stroke-opacity:1"
       id="path1747" />
    <path
       id="path1749"
       style="fill:none;stroke:#000000;stroke-width:1;stroke-linecap:butt;stroke-linejoin:miter;stroke-miterlimit:4;stroke-dasharray:none;stroke-opacity:1"
       d="m 220.55519,-278.57817 -34.81442,-20.31254 m 34.64101,60.62176 35.00001,-20 0.17949,-40.31088 -34.82051,-20.31088 -35,20 -0.17949,40.31087 34.8205,20.31089 0.17341,-40.30922 35.00609,-20.00166"
       inkscape:connector-curvature="0" />
    <path
       inkscape:connector-curvature="0"
       d="m 289.83722,-157.33463 -34.81442,-20.31255 m 34.64101,60.62177 35.00001,-20 0.17949,-40.31089 -34.82051,-20.31088 -35,20 -0.17949,40.31088 34.8205,20.31089 0.17341,-40.30922 35.00609,-20.00167"
       style="fill:none;stroke:#000000;stroke-width:1;stroke-linecap:butt;stroke-linejoin:miter;stroke-miterlimit:4;stroke-dasharray:none;stroke-opacity:1"
       id="path1751" />
    <path
       id="path1753"
       style="fill:none;stroke:#000000;stroke-width:1;stroke-linecap:butt;stroke-linejoin:miter;stroke-miterlimit:4;stroke-dasharray:none;stroke-opacity:1"
       d="m 360.19622,-277.95641 -34.81442,-20.31254 m 34.64101,60.62176 35.00001,-20 0.17949,-40.31088 -34.82051,-20.31088 -35,20 -0.17949,40.31087 34.8205,20.31089 0.17341,-40.30922 35.00609,-20.00166"
       inkscape:connector-curvature="0" />
    <path
       inkscape:connector-curvature="0"
       d="m 359.65773,-157.02374 -34.81442,-20.31255 m 34.64101,60.62177 35.00001,-20 0.17949,-40.31089 -34.82051,-20.31088 -35,20 -0.17949,40.31088 34.8205,20.31089 0.17341,-40.30922 35.00609,-20.00167"
       style="fill:none;stroke:#000000;stroke-width:1;stroke-linecap:butt;stroke-linejoin:miter;stroke-miterlimit:4;stroke-dasharray:none;stroke-opacity:1"
       id="path1755" />
    <path
       id="path1757"
       style="fill:none;stroke:#000000;stroke-width:1;stroke-linecap:butt;stroke-linejoin:miter;stroke-miterlimit:4;stroke-dasharray:none;stroke-opacity:1"
       d="m 220.01671,-157.64551 -34.81442,-20.31255 m 34.64101,60.62177 35.00001,-20 0.17949,-40.31089 -34.82051,-20.31088 -35,20 -0.17949,40.31088 34.8205,20.31089 0.17341,-40.30922 35.00609,-20.00167"
       inkscape:connector-curvature="0" />
    <path
       inkscape:connector-curvature="0"
       d="m 185.3757,-218.26728 -34.81442,-20.31255 m 34.64101,60.62177 35.00001,-20 0.17949,-40.31089 -34.82051,-20.31088 -35,20 -0.17949,40.31088 34.8205,20.31089 0.17341,-40.30922 35.00609,-20.00167"
       style="fill:none;stroke:#000000;stroke-width:1;stroke-linecap:butt;stroke-linejoin:miter;stroke-miterlimit:4;stroke-dasharray:none;stroke-opacity:1"
       id="path1759" />
    <path
       id="path1761"
       style="fill:none;stroke:#000000;stroke-width:1;stroke-linecap:butt;stroke-linejoin:miter;stroke-miterlimit:4;stroke-dasharray:none;stroke-opacity:1"
       d="m 394.83724,-217.33464 -34.81442,-20.31255 m 34.64101,60.62177 35.00001,-20 0.17949,-40.31089 -34.82051,-20.31088 -35,20 -0.17949,40.31088 34.8205,20.31089 0.17341,-40.30922 35.00609,-20.00167"
       inkscape:connector-curvature="0" />
    <path
       inkscape:connector-curvature="0"
       d="m 255.73468,-338.88905 -34.81442,-20.31255 m 34.64101,60.62177 35.00001,-20 0.17949,-40.31089 -34.82051,-20.31088 -35,20 -0.17949,40.31088 34.8205,20.31089 0.17341,-40.30922 35.00609,-20.00167"
       style="fill:none;stroke:#000000;stroke-width:1;stroke-linecap:butt;stroke-linejoin:miter;stroke-miterlimit:4;stroke-dasharray:none;stroke-opacity:1"
       id="path1763" />
    <path
       id="path1765"
       style="fill:none;stroke:#000000;stroke-width:1;stroke-linecap:butt;stroke-linejoin:miter;stroke-miterlimit:4;stroke-dasharray:none;stroke-opacity:1"
       d="m 325.5552,-338.57817 -34.81442,-20.31255 m 34.64101,60.62177 35.00001,-20 0.17949,-40.31089 -34.82051,-20.31088 -35,20 -0.17949,40.31088 34.8205,20.31089 0.17341,-40.30922 35.00609,-20.00167"
       inkscape:connector-curvature="0" />
    <path
       id="path1769"
       style="fill:none;stroke:#000000;stroke-width:1;stroke-linecap:butt;stroke-linejoin:miter;stroke-miterlimit:4;stroke-dasharray:none;stroke-opacity:1"
       d="M 254.65772,-97.023742 219.8433,-117.33629 m 34.64101,60.621768 35.00001,-20 0.17949,-40.310888 -34.82051,-20.31088 -35,20 -0.17949,40.310878 34.8205,20.31089 0.17341,-40.30922 35.00609,-20.001668"
       inkscape:connector-curvature="0" />
    <path
       inkscape:connector-curvature="0"
       d="m 324.47824,-96.712862 -34.81442,-20.312548 m 34.64101,60.621768 35.00001,-20 0.17949,-40.310888 -34.82051,-20.31088 -35,20 -0.17949,40.310878 34.8205,20.31089 0.17341,-40.30922 35.00609,-20.001668"
       style="fill:none;stroke:#000000;stroke-width:1;stroke-linecap:butt;stroke-linejoin:miter;stroke-miterlimit:4;stroke-dasharray:none;stroke-opacity:1"
       id="path1771" />
    <path
       inkscape:connector-curvature="0"
       d="m 394.29875,-96.401972 -34.81442,-20.312548 m 34.64101,60.621768 35.00001,-20 0.17949,-40.310888 -34.82051,-20.31088 -35,20 -0.17949,40.310878 34.8205,20.31089 0.17341,-40.30922 35.00609,-20.001668"
       style="fill:none;stroke:#000000;stroke-width:1;stroke-linecap:butt;stroke-linejoin:miter;stroke-miterlimit:4;stroke-dasharray:none;stroke-opacity:1"
       id="path1773" />
    <path
       id="path1775"
       style="fill:none;stroke:#000000;stroke-width:1;stroke-linecap:butt;stroke-linejoin:miter;stroke-miterlimit:4;stroke-dasharray:none;stroke-opacity:1"
       d="m 394.29875,-96.401972 -34.81442,-20.312548 m 34.64101,60.621768 35.00001,-20 0.17949,-40.310888 -34.82051,-20.31088 -35,20 -0.17949,40.310878 34.8205,20.31089 0.17341,-40.30922 35.00609,-20.001668"
       inkscape:connector-curvature="0" />
    <path
       id="path1777"
       style="fill:none;stroke:#000000;stroke-width:1;stroke-linecap:butt;stroke-linejoin:miter;stroke-miterlimit:4;stroke-dasharray:none;stroke-opacity:1"
       d="m 429.47826,-156.71287 -34.81442,-20.31255 m 34.64101,60.62177 35.00001,-20 0.17949,-40.31089 -34.82051,-20.31088 -35,20 -0.17949,40.31088 34.8205,20.31089 0.17341,-40.30922 35.00609,-20.00167"
       inkscape:connector-curvature="0" />
    <path
       inkscape:connector-curvature="0"
       d="m 430.01673,-277.64552 -34.81442,-20.31255 m 34.64101,60.62177 35.00001,-20 0.17949,-40.31089 -34.82051,-20.31088 -35,20 -0.17949,40.31088 34.8205,20.31089 0.17341,-40.30922 35.00609,-20.00167"
       style="fill:none;stroke:#000000;stroke-width:1;stroke-linecap:butt;stroke-linejoin:miter;stroke-miterlimit:4;stroke-dasharray:none;stroke-opacity:1"
       id="path1779" />
    <path
       id="path1781"
       style="fill:none;stroke:#000000;stroke-width:1;stroke-linecap:butt;stroke-linejoin:miter;stroke-miterlimit:4;stroke-dasharray:none;stroke-opacity:1"
       d="m 395.37571,-338.26729 -34.81442,-20.31255 m 34.64101,60.62177 35.00001,-20 0.17949,-40.31089 -34.82051,-20.31088 -35,20 -0.17949,40.31088 34.8205,20.31089 0.17341,-40.30922 35.00609,-20.00167"
       inkscape:connector-curvature="0" />
    <path
       id="path1783"
       style="fill:none;stroke:#000000;stroke-width:1;stroke-linecap:butt;stroke-linejoin:miter;stroke-miterlimit:4;stroke-dasharray:none;stroke-opacity:1"
       d="m 464.65776,-217.02376 -34.81442,-20.31255 m 34.64101,60.62177 35.00001,-20 0.17949,-40.31089 -34.82051,-20.31088 -35,20 -0.17949,40.31088 34.8205,20.31089 0.17341,-40.30922 35.00609,-20.00167"
       inkscape:connector-curvature="0" />
    <path
       style="color:#000000;font-style:normal;font-variant:normal;font-weight:normal;font-stretch:normal;font-size:medium;line-height:normal;font-family:sans-serif;font-variant-ligatures:normal;font-variant-position:normal;font-variant-caps:normal;font-variant-numeric:normal;font-variant-alternates:normal;font-feature-settings:normal;text-indent:0;text-align:start;text-decoration:none;text-decoration-line:none;text-decoration-style:solid;text-decoration-color:#000000;letter-spacing:normal;word-spacing:normal;text-transform:none;writing-mode:lr-tb;direction:ltr;text-orientation:mixed;dominant-baseline:auto;baseline-shift:baseline;text-anchor:start;white-space:normal;shape-padding:0;clip-rule:nonzero;display:inline;overflow:visible;visibility:visible;opacity:1;isolation:auto;mix-blend-mode:normal;color-interpolation:sRGB;color-interpolation-filters:linearRGB;solid-color:#000000;solid-opacity:1;vector-effect:none;fill:#000000;fill-opacity:1;fill-rule:nonzero;stroke:none;stroke-width:5;stroke-linecap:butt;stroke-linejoin:bevel;stroke-miterlimit:4;stroke-dasharray:none;stroke-dashoffset:0;stroke-opacity:1;color-rendering:auto;image-rendering:auto;shape-rendering:auto;text-rendering:auto;enable-background:accumulate"
       d="m 255.17383,310.85547 -22.16602,12.66406 -1.25976,2.16016 -0.10743,24.08203 -20.9121,11.94726 -1.25977,2.16016 -0.10742,24.08203 -20.91211,11.94727 -1.25977,2.1582 -0.11328,25.52539 1.24024,2.17188 20.80664,12.13281 -0.10938,24.08203 1.24219,2.16992 20.80469,12.13477 -0.10743,24.08008 1.24024,2.17187 22.05078,12.85938 1.87891,-1.07422 0.62109,1.08593 20.91406,-11.94921 20.80469,12.13476 1.87891,-1.07422 0.62109,1.08594 20.91211,-11.94922 20.80469,12.13477 1.8789,-1.07422 0.6211,1.08594 22.16601,-12.66407 1.25977,-2.16015 0.10742,-24.08203 20.91211,-11.94727 1.25977,-2.16016 0.10742,-24.08203 20.91015,-11.94726 1.25977,-2.15821 0.11523,-25.52539 -1.24023,-2.17187 -20.80664,-12.13281 0.10742,-24.08204 -1.24023,-2.16992 -20.80469,-12.13476 0.10742,-24.08008 -1.24023,-2.17188 -22.05274,-12.85937 -2.5,-0.0117 -20.91211,11.94922 -20.80469,-12.13477 -2.5,-0.0117 -20.91406,11.94922 -20.80273,-12.13476 z m 1.22656,5.05859 17.06445,9.95117 -17.15429,9.80079 -17.06055,-9.95313 z m 44.21875,0.19727 17.0625,9.95117 -17.1543,9.80078 -17.0625,-9.95312 z m 44.2168,0.19531 17.06445,9.95117 -17.15625,9.80274 -17.0625,-9.95313 z m -108.10742,13.72461 17.0625,9.95508 -0.0859,19.75 -17.06446,-9.95313 z m 39.21679,0.17578 -0.0879,19.75195 -17.15234,9.79883 0.0859,-19.75 z m 5,0.0215 17.0625,9.95312 -0.084,19.75 -17.06445,-9.95117 z m 39.2168,0.17578 -0.0859,19.75 -17.15234,9.80078 0.084,-19.75 z m 5.00195,0.0215 17.06055,9.95313 -0.084,19.75 -17.06445,-9.95118 z m 39.2168,0.17383 -0.0879,19.75195 -17.15235,9.79883 0.084,-19.75 z m -130.25977,23.50195 17.06446,9.95313 -17.1543,9.80078 -17.0625,-9.95313 z m 44.21875,0.19727 17.06446,9.95312 -17.15625,9.80078 -17.0625,-9.95312 z m 44.21485,0.19726 h 0.002 l 17.0625,9.95118 -17.1543,9.80078 -17.06054,-9.95313 z m 44.21875,0.19727 17.06445,9.95117 -17.1543,9.80078 -17.06054,-9.95312 z m -152.32422,13.52734 17.0625,9.95313 -0.0859,19.75 -17.06445,-9.95313 z m 39.2168,0.17578 -0.0879,19.75 v 0.002 l -17.15039,9.79883 0.084,-19.75196 z m 5,0.0215 17.0625,9.95312 -0.084,19.75 -17.06445,-9.95117 z m 39.21679,0.17383 -0.0859,19.75195 -17.15235,9.79883 0.084,-19.75 z m 5.00196,0.0234 17.06054,9.95313 -0.084,19.75 -17.06445,-9.95313 z m 39.21679,0.17383 -0.0879,19.75196 -17.15234,9.79882 0.084,-19.75 z m 5,0.0215 17.0625,9.95507 -0.0859,19.75 -17.06445,-9.95312 0.0508,-11.31836 z m 39.2168,0.17578 -0.0879,19.75195 -17.15235,9.79883 0.084,-19.75 z m -174.47656,23.30469 17.0664,9.95312 -17.15625,9.80078 -17.0625,-9.95312 z m 44.21679,0.19726 h 0.002 l 17.06445,9.95117 -17.15625,9.80078 -17.06055,-9.95312 z m 44.21875,0.19727 17.06446,9.95117 -17.15625,9.80078 -17.06055,-9.95312 7.32422,-4.1836 z m 44.21875,0.19531 17.0625,9.95312 -17.15625,9.80079 -17.06054,-9.95313 z m 44.2168,0.19726 17.06445,9.95313 -17.15625,9.80078 -17.0625,-9.95312 z m -196.54297,13.33204 17.0625,9.95312 -0.0859,19.75195 -17.06445,-9.95312 z m 39.2168,0.17382 -0.0352,8.43164 -0.0527,11.32032 -17.15039,9.79883 0.084,-19.75 z m 5.00195,0.0234 17.06055,9.95313 -0.084,19.75 -17.06445,-9.95313 0.0508,-11.31836 z m 39.2168,0.17383 -0.0879,19.75195 -17.15235,9.79883 0.084,-19.75 z m 5,0.0234 17.06055,9.95312 -0.084,19.75 -17.06445,-9.95312 0.0508,-11.32031 z m 39.2168,0.17383 -0.0371,8.34179 -0.0508,11.40821 -17.15235,9.80078 0.084,-19.75 z m 5,0.0215 17.0625,9.95312 -0.0859,19.75 -17.06445,-9.95117 0.0508,-11.31836 z m 39.21679,0.17578 -0.0879,19.75 v 0.002 l -17.15234,9.79883 0.084,-19.75 z m 5,0.0215 17.0625,9.95312 -0.084,19.75 -17.06641,-9.95312 0.0508,-11.31836 z m 39.2168,0.17578 -0.0859,19.75 -17.15234,9.80078 0.084,-19.75195 z m -174.47461,23.30468 17.06445,9.95118 -17.15625,9.80078 -17.06054,-9.95313 7.32226,-4.18359 z M 278,430.87305 l 17.0625,9.95312 -17.15625,9.80078 -17.06055,-9.95312 z m 44.2168,0.19726 17.06445,9.95313 -17.15625,9.80078 -17.0625,-9.95313 z m 44.21484,0.19727 h 0.002 l 17.0625,9.95117 -17.15429,9.80273 -17.06055,-9.95312 z m -152.32422,13.52734 17.0625,9.95508 -0.084,19.74805 -17.06446,-9.95117 z m 39.21875,0.17578 -0.0371,8.43164 -0.0508,11.31836 -17.15234,9.80078 0.084,-19.75 z m 5,0.0215 17.06055,9.95312 -0.084,19.75 -17.06445,-9.95312 0.0508,-11.31641 z m 39.2168,0.17383 -0.0371,8.43359 -0.0508,11.31836 -17.15235,9.80078 0.084,-19.75195 z m 5,0.0234 17.0625,9.95313 -0.0859,19.75 -17.06445,-9.95313 0.0508,-11.31836 z m 39.2168,0.17383 -0.0879,19.75195 -17.15235,9.80079 0.0859,-19.75196 z m 5,0.0234 17.0625,9.95312 -0.084,19.75 -17.06445,-9.95312 z m 39.21679,0.17383 -0.0859,19.75195 -17.15234,9.80078 0.084,-19.75195 z m -130.25586,23.50195 17.06055,9.95117 -17.1543,9.80274 -17.06054,-9.95313 z m 44.21485,0.19727 17.06445,9.95117 -17.1543,9.80273 -17.06054,-9.95312 z m 44.21875,0.19726 17.06445,9.95117 -17.15625,9.80078 L 327,479.2558 l 1.63086,-0.93164 z m -108.10742,13.72461 17.0625,9.95313 -0.0859,19.75 -17.06446,-9.95313 z m 39.21679,0.17383 -0.0371,8.43359 -0.0508,11.31836 -17.15234,9.80078 0.084,-19.75195 z m 5,0.0234 17.0625,9.95312 -0.0859,19.75 -17.06445,-9.95312 0.0508,-11.31836 z m 39.2168,0.17382 -0.0352,8.43165 -0.0527,11.32031 -17.15039,9.80078 0.084,-19.75195 z m 5,0.0215 17.0625,9.95508 -0.084,19.75 -17.06445,-9.95313 z m 39.21875,0.17578 -0.0879,19.75 -17.15235,9.80078 0.084,-19.75 z"
       id="path1823"
       inkscape:connector-curvature="0" />
    <path
       inkscape:connector-curvature="0"
       d="m 296.52541,84.163184 -22.04799,-12.86191 m 21.93817,38.385716 22.16553,-12.663996 0.11367,-25.52486 -22.05185,-12.86086 -22.16552,12.664 -0.11368,25.52486 22.05185,12.860856 0.10982,-25.523806 22.16938,-12.66505"
       style="fill:none;stroke:#000000;stroke-width:4;stroke-linecap:butt;stroke-linejoin:miter;stroke-miterlimit:4;stroke-dasharray:none;stroke-opacity:1"
       id="path1827" />
    <path
       id="path1829"
       style="fill:none;stroke:#000000;stroke-width:4;stroke-linecap:butt;stroke-linejoin:miter;stroke-miterlimit:4;stroke-dasharray:none;stroke-opacity:1"
       d="M 318.46359,122.54891 296.4156,109.68699 m 21.93817,38.38573 22.16552,-12.66401 0.11368,-25.52487 -22.05185,-12.860846 -22.16552,12.663996 -0.11367,25.52486 22.05184,12.86087 0.10982,-25.52381 22.16938,-12.66507"
       inkscape:connector-curvature="0" />
    <path
       inkscape:connector-curvature="0"
       d="m 274.24621,122.35206 -22.04798,-12.86192 m 21.93816,38.38572 22.16554,-12.664 0.11367,-25.52487 -22.05186,-12.860856 -22.16551,12.664006 -0.11368,25.52487 22.05184,12.86085 0.10982,-25.5238 22.16939,-12.66507"
       style="fill:none;stroke:#000000;stroke-width:4;stroke-linecap:butt;stroke-linejoin:miter;stroke-miterlimit:4;stroke-dasharray:none;stroke-opacity:1"
       id="path1831" />
    <path
       id="path1833"
       style="fill:none;stroke:#000000;stroke-width:4;stroke-linecap:butt;stroke-linejoin:miter;stroke-miterlimit:4;stroke-dasharray:none;stroke-opacity:1"
       d="m 252.30804,83.966334 -22.04799,-12.86191 m 21.93817,38.385716 22.16552,-12.664006 0.11368,-25.52486 -22.05185,-12.86085 -22.16552,12.664 -0.11367,25.52486 22.05184,12.860856 0.10982,-25.523806 22.16938,-12.66506"
       inkscape:connector-curvature="0" />
    <path
       inkscape:connector-curvature="0"
       d="m 296.18439,160.73778 -22.048,-12.86192 m 21.93818,38.38573 22.16553,-12.664 0.11367,-25.52487 -22.05185,-12.86086 -22.16553,12.664 -0.11367,25.52486 22.05185,12.86087 0.10982,-25.52381 22.16938,-12.66506"
       style="fill:none;stroke:#000000;stroke-width:4;stroke-linecap:butt;stroke-linejoin:miter;stroke-miterlimit:4;stroke-dasharray:none;stroke-opacity:1"
       id="path1835" />
    <path
       id="path1837"
       style="fill:none;stroke:#000000;stroke-width:4;stroke-linecap:butt;stroke-linejoin:miter;stroke-miterlimit:4;stroke-dasharray:none;stroke-opacity:1"
       d="m 340.74279,84.360034 -22.04799,-12.8619 m 21.93817,38.385706 22.16553,-12.663996 0.11367,-25.52486 -22.05185,-12.86086 -22.16552,12.66401 -0.11367,25.52485 22.05184,12.860856 0.10982,-25.523806 22.16938,-12.66505"
       inkscape:connector-curvature="0" />
    <path
       inkscape:connector-curvature="0"
       d="m 340.40177,160.93463 -22.048,-12.8619 m 21.93817,38.38571 22.16553,-12.664 0.11367,-25.52487 -22.05185,-12.86086 -22.16552,12.66402 -0.11367,25.52486 22.05184,12.86085 0.10983,-25.52381 22.16937,-12.66506"
       style="fill:none;stroke:#000000;stroke-width:4;stroke-linecap:butt;stroke-linejoin:miter;stroke-miterlimit:4;stroke-dasharray:none;stroke-opacity:1"
       id="path1839" />
    <path
       id="path1841"
       style="fill:none;stroke:#000000;stroke-width:4;stroke-linecap:butt;stroke-linejoin:miter;stroke-miterlimit:4;stroke-dasharray:none;stroke-opacity:1"
       d="m 251.96702,160.54093 -22.04799,-12.86192 m 21.93817,38.38573 22.16552,-12.664 0.11367,-25.52488 -22.05184,-12.86085 -22.16552,12.664 -0.11367,25.52486 22.05184,12.86087 0.10982,-25.52381 22.16937,-12.66507"
       inkscape:connector-curvature="0" />
    <path
       inkscape:connector-curvature="0"
       d="m 230.02885,122.1552 -22.048,-12.8619 m 21.93818,38.38571 22.16552,-12.664 0.11368,-25.52487 -22.05185,-12.860856 -22.16553,12.664016 -0.11367,25.52486 22.05185,12.86085 0.10982,-25.52381 22.16938,-12.66506"
       style="fill:none;stroke:#000000;stroke-width:4;stroke-linecap:butt;stroke-linejoin:miter;stroke-miterlimit:4;stroke-dasharray:none;stroke-opacity:1"
       id="path1843" />
    <path
       id="path1845"
       style="fill:none;stroke:#000000;stroke-width:4;stroke-linecap:butt;stroke-linejoin:miter;stroke-miterlimit:4;stroke-dasharray:none;stroke-opacity:1"
       d="m 362.68097,122.74576 -22.048,-12.86192 m 21.93818,38.38573 22.16553,-12.66401 0.11367,-25.52487 -22.05185,-12.860846 -22.16553,12.663996 -0.11367,25.52486 22.05185,12.86087 0.10982,-25.52381 22.16938,-12.66507"
       inkscape:connector-curvature="0" />
    <path
       inkscape:connector-curvature="0"
       d="m 274.58723,45.777477 -22.04799,-12.86192 m 21.93817,38.385717 22.16553,-12.664 0.11368,-25.524867 -22.05186,-12.86086 -22.16552,12.66401 -0.11367,25.524867 22.05184,12.86085 0.10982,-25.523797 22.16939,-12.66507"
       style="fill:none;stroke:#000000;stroke-width:4;stroke-linecap:butt;stroke-linejoin:miter;stroke-miterlimit:4;stroke-dasharray:none;stroke-opacity:1"
       id="path1847" />
    <path
       id="path1849"
       style="fill:none;stroke:#000000;stroke-width:4;stroke-linecap:butt;stroke-linejoin:miter;stroke-miterlimit:4;stroke-dasharray:none;stroke-opacity:1"
       d="m 318.80461,45.974327 -22.04799,-12.86192 m 21.93817,38.385727 22.16553,-12.66401 0.11367,-25.524867 -22.05185,-12.86085 -22.16552,12.664 -0.11367,25.524857 22.05184,12.86087 0.10982,-25.523807 22.16938,-12.66507"
       inkscape:connector-curvature="0" />
    <path
       id="path1851"
       style="fill:none;stroke:#000000;stroke-width:4;stroke-linecap:butt;stroke-linejoin:miter;stroke-miterlimit:4;stroke-dasharray:none;stroke-opacity:1"
       d="m 273.9052,198.92666 -22.048,-12.86192 m 21.93817,38.38573 22.16553,-12.66401 0.11367,-25.52487 -22.05185,-12.86085 -22.16552,12.664 -0.11367,25.52486 22.05184,12.86087 0.10983,-25.52381 22.16937,-12.66507"
       inkscape:connector-curvature="0" />
    <path
       inkscape:connector-curvature="0"
       d="m 318.12257,199.1235 -22.04799,-12.86191 m 21.93817,38.38573 22.16552,-12.66402 0.11367,-25.52486 -22.05184,-12.86085 -22.16552,12.664 -0.11367,25.52486 22.05184,12.86087 0.10982,-25.52382 22.16937,-12.66506"
       style="fill:none;stroke:#000000;stroke-width:4;stroke-linecap:butt;stroke-linejoin:miter;stroke-miterlimit:4;stroke-dasharray:none;stroke-opacity:1"
       id="path1853" />
    <path
       inkscape:connector-curvature="0"
       d="m 362.33994,199.32036 -22.048,-12.86192 m 21.93818,38.38573 22.16553,-12.66401 0.11367,-25.52487 -22.05185,-12.86085 -22.16553,12.664 -0.11367,25.52486 22.05185,12.86087 0.10982,-25.52381 22.16938,-12.66507"
       style="fill:none;stroke:#000000;stroke-width:4;stroke-linecap:butt;stroke-linejoin:miter;stroke-miterlimit:4;stroke-dasharray:none;stroke-opacity:1"
       id="path1855" />
    <path
       id="path1857"
       style="fill:none;stroke:#000000;stroke-width:4;stroke-linecap:butt;stroke-linejoin:miter;stroke-miterlimit:4;stroke-dasharray:none;stroke-opacity:1"
       d="m 362.33994,199.32036 -22.048,-12.86192 m 21.93818,38.38573 22.16553,-12.66401 0.11367,-25.52487 -22.05185,-12.86085 -22.16553,12.664 -0.11367,25.52486 22.05185,12.86087 0.10982,-25.52381 22.16938,-12.66507"
       inkscape:connector-curvature="0" />
    <path
       id="path1859"
       style="fill:none;stroke:#000000;stroke-width:4;stroke-linecap:butt;stroke-linejoin:miter;stroke-miterlimit:4;stroke-dasharray:none;stroke-opacity:1"
       d="m 384.61915,161.13147 -22.04799,-12.8619 m 21.93817,38.38571 22.16552,-12.664 0.11367,-25.52486 -22.05184,-12.86086 -22.16552,12.66401 -0.11367,25.52486 22.05184,12.86085 0.10982,-25.52381 22.16937,-12.66505"
       inkscape:connector-curvature="0" />
    <path
       inkscape:connector-curvature="0"
       d="m 384.96016,84.556884 -22.04799,-12.8619 m 21.93817,38.385706 22.16553,-12.663996 0.11367,-25.52486 -22.05185,-12.86086 -22.16552,12.66401 -0.11367,25.52486 22.05184,12.860846 0.10982,-25.523806 22.16938,-12.66505"
       style="fill:none;stroke:#000000;stroke-width:4;stroke-linecap:butt;stroke-linejoin:miter;stroke-miterlimit:4;stroke-dasharray:none;stroke-opacity:1"
       id="path1861" />
    <path
       id="path1863"
       style="fill:none;stroke:#000000;stroke-width:4;stroke-linecap:butt;stroke-linejoin:miter;stroke-miterlimit:4;stroke-dasharray:none;stroke-opacity:1"
       d="m 363.02199,46.171177 -22.048,-12.86192 m 21.93818,38.385727 22.16552,-12.66401 0.11367,-25.524867 -22.05185,-12.86085 -22.16552,12.664 -0.11367,25.524857 22.05185,12.86087 0.10982,-25.523807 22.16937,-12.66507"
       inkscape:connector-curvature="0" />
    <path
       id="path1865"
       style="fill:none;stroke:#000000;stroke-width:4;stroke-linecap:butt;stroke-linejoin:miter;stroke-miterlimit:4;stroke-dasharray:none;stroke-opacity:1"
       d="m 406.89834,122.9426 -22.04799,-12.86191 m 21.93817,38.38573 22.16554,-12.66402 0.11367,-25.52486 -22.05186,-12.860846 -22.16552,12.663996 -0.11367,25.52486 22.05184,12.86087 0.10982,-25.52382 22.16939,-12.66506"
       inkscape:connector-curvature="0" />
    <path
       sodipodi:type="star"
       style="opacity:1;vector-effect:none;fill:none;fill-opacity:1;stroke:#000000;stroke-width:2;stroke-linecap:butt;stroke-linejoin:round;stroke-miterlimit:4;stroke-dasharray:none;stroke-dashoffset:0;stroke-opacity:0.60000598"
       id="path1888"
       sodipodi:sides="6"
       sodipodi:cx="630"
       sodipodi:cy="-22.999998"
       sodipodi:r1="80.622574"
       sodipodi:r2="69.821198"
       sodipodi:arg1="-0.51914611"
       sodipodi:arg2="0.0044526614"
       inkscape:flatsided="true"
       inkscape:rounded="0"
       inkscape:randomized="0"
       d="M 700,-62.999996 699.64101,17.621779 629.64102,57.621777 560,17 l 0.35899,-80.621775 69.99999,-39.999995 z"
       inkscape:transform-center-x="7.9370077e-06" />
    <path
       style="fill:none;stroke:#000000;stroke-width:0.26458332px;stroke-linecap:butt;stroke-linejoin:miter;stroke-opacity:1"
       d="M 699.99999,17 559.99998,-63"
       id="path1890"
       inkscape:connector-curvature="0" />
    <path
       style="fill:none;stroke:#000000;stroke-width:0.26458332px;stroke-linecap:butt;stroke-linejoin:miter;stroke-opacity:1"
       d="M 630,-103 V 56.999999"
       id="path1892"
       inkscape:connector-curvature="0" />
    <path
       style="fill:none;stroke:#000000;stroke-width:0.26458332px;stroke-linecap:butt;stroke-linejoin:miter;stroke-opacity:1"
       d="M 699.99999,-63 559.99998,17"
       id="path1894"
       inkscape:connector-curvature="0" />
  </g>
</svg>
