<?xml version="1.0" encoding="utf-8"?>
<!-- Generator: Adobe Illustrator 16.0.0, SVG Export Plug-In . SVG Version: 6.00 Build 0)  -->
<!DOCTYPE svg PUBLIC "-//W3C//DTD SVG 1.1//EN" "http://www.w3.org/Graphics/SVG/1.1/DTD/svg11.dtd">
<svg version="1.1" id="Layer_1" xmlns="http://www.w3.org/2000/svg" xmlns:xlink="http://www.w3.org/1999/xlink" x="0px" y="0px"
	 width="2848.02px" height="349.813px" viewBox="0 0 2848.02 349.813" enable-background="new 0 0 2848.02 349.813"
	 xml:space="preserve">
<g>
	<path fill="none" stroke="#000000" stroke-width="2.8347" stroke-miterlimit="10" d="M447.059,164.002
		c15.281,46.659,56.875,77.355,102.975,80.998c25.924-33.334,35.418-78.509,21.386-121.695c-1.859-5.719-4.076-11.221-6.615-16.494
		c-3.832-1.04-7.998-1.04-12.06,0.278c-3.332,1.082-6.209,2.915-8.514,5.244C522.945,143.302,487.402,163.69,447.059,164.002z
		 M555.031,127.245c0-2.353,1.908-4.259,4.261-4.259c2.354,0,4.26,1.907,4.26,4.259c0,2.353-1.906,4.259-4.26,4.259
		C556.939,131.504,555.031,129.597,555.031,127.245z M540.639,142.414c0.787-1.223,2.127-1.953,3.582-1.953
		c0.813,0,1.604,0.234,2.291,0.677c1.971,1.269,2.543,3.902,1.276,5.871c-13.123,20.4-16.354,45.318-8.868,68.365
		c1.87,5.753,4.37,11.271,7.43,16.399c0.582,0.975,0.75,2.116,0.471,3.216c-0.279,1.101-0.969,2.027-1.943,2.609
		c-0.659,0.393-1.409,0.6-2.172,0.6c-1.514,0-2.881-0.775-3.653-2.074c-3.386-5.675-6.148-11.771-8.213-18.123
		C522.559,192.519,526.133,164.969,540.639,142.414z"/>
	<path fill="none" stroke="#000000" stroke-width="2.8347" stroke-miterlimit="10" d="M399.011,288.715
		c39.713,14.356,85.61,9.427,122.35-17.267c4.863-3.534,9.41-7.343,13.644-11.388c-0.197-3.969-1.484-7.931-3.994-11.383
		c-2.06-2.836-4.689-5.007-7.617-6.478c-36.029-10.675-66.404-38.177-79.167-76.449C404.569,194.704,388.23,243.747,399.011,288.715
		z M509.604,261.133c0-2.353,1.908-4.26,4.26-4.26c2.354,0,4.26,1.907,4.26,4.26s-1.906,4.261-4.26,4.261
		C511.513,265.393,509.604,263.485,509.604,261.133z M403.017,278.609c-0.075-1.132,0.295-2.227,1.045-3.081
		c4.35-4.971,9.293-9.483,14.695-13.41c15.304-11.118,33.333-16.995,52.139-16.995c7.656,0,15.319,0.996,22.779,2.96
		c1.098,0.289,2.018,0.988,2.59,1.97c0.572,0.98,0.728,2.124,0.438,3.221c-0.491,1.867-2.181,3.17-4.105,3.17
		c-0.363,0-0.729-0.047-1.084-0.141c-6.746-1.776-13.679-2.678-20.603-2.678c-17.012,0-33.317,5.313-47.156,15.368
		c-4.895,3.56-9.369,7.642-13.302,12.134c-0.806,0.922-1.972,1.45-3.195,1.45c-1.029,0-2.023-0.373-2.799-1.053
		C403.604,280.776,403.092,279.741,403.017,278.609z"/>
	<path fill="none" stroke="#000000" stroke-width="2.8347" stroke-miterlimit="10" d="M364.668,269.616
		c4.862,3.532,9.891,6.681,15.045,9.455c3.713-1.413,7.082-3.861,9.592-7.314c2.062-2.834,3.313-6.008,3.807-9.247
		c-0.979-37.563,15.789-74.949,48.242-98.915c-39.787-28.769-91.479-29.152-130.916-5.004
		C309.057,200.795,327.93,242.924,364.668,269.616z M367.902,259.299c0-2.354,1.906-4.26,4.261-4.26c2.352,0,4.258,1.906,4.258,4.26
		c0,2.353-1.906,4.26-4.258,4.26C369.809,263.558,367.902,261.651,367.902,259.299z M318.961,161.549
		c0.672-1.565,2.205-2.577,3.906-2.577c0.575,0,1.139,0.115,1.674,0.346c6.073,2.602,11.893,5.91,17.295,9.833
		c21.676,15.751,34.979,40.14,36.498,66.915c0.065,1.134-0.314,2.225-1.07,3.072c-0.756,0.846-1.797,1.348-2.93,1.41
		c-0.082,0.006-0.164,0.008-0.246,0.008c-2.248,0-4.109-1.762-4.238-4.009c-1.375-24.219-13.404-46.276-33.008-60.52
		c-4.896-3.557-10.162-6.551-15.652-8.902c-1.041-0.443-1.846-1.268-2.268-2.318C318.5,163.752,318.514,162.595,318.961,161.549z"/>
	<path fill="none" stroke="#000000" stroke-width="2.8347" stroke-miterlimit="10" d="M313.767,137.729
		c2.492,3.095,5.861,5.543,9.922,6.861c3.332,1.086,6.738,1.295,9.972,0.764c35.421-12.541,76.159-8.145,108.981,15.314
		c15.063-46.729-0.543-96.011-35.699-126.055c-40.563,11.727-74.799,42.696-88.83,85.885
		C316.255,126.216,314.813,131.971,313.767,137.729z M351.161,115.209c22.608-8.792,39.869-27.051,47.357-50.096
		c1.868-5.758,3.089-11.69,3.629-17.635c0.197-2.202,2.014-3.862,4.225-3.862c0.131,0,0.262,0.006,0.392,0.018
		c2.334,0.213,4.06,2.284,3.847,4.618c-0.598,6.583-1.944,13.141-4.007,19.486c-8.281,25.483-27.366,45.673-52.359,55.392
		c-0.496,0.193-1.017,0.291-1.541,0.291c-1.738,0-3.33-1.089-3.959-2.711C347.894,118.526,348.979,116.059,351.161,115.209z
		 M325.979,124.438c0-2.354,1.906-4.259,4.258-4.259c2.354,0,4.261,1.906,4.261,4.259c0,2.352-1.906,4.259-4.261,4.259
		C327.886,128.697,325.979,126.79,325.979,124.438z"/>
	<path fill="none" stroke="#000000" stroke-width="2.8347" stroke-miterlimit="10" d="M426.529,52.705
		c22.873,29.813,31.281,69.917,19.112,108.381c49.098-0.113,91.144-30.187,108.854-72.903
		c-23.689-34.958-63.722-57.947-109.131-57.946c-6.013,0.001-11.931,0.41-17.731,1.194c-2.172,3.324-3.459,7.286-3.459,11.556
		C424.172,46.49,425.025,49.793,426.529,52.705z M453.09,62.298c0.112-1.129,0.66-2.146,1.538-2.863
		c0.769-0.627,1.696-0.959,2.687-0.959c1.281,0,2.482,0.568,3.293,1.561c15.348,18.785,38.048,29.56,62.277,29.56
		c6.043,0,12.063-0.673,17.893-1.998c0.313-0.071,0.633-0.107,0.95-0.107c1.96,0,3.698,1.392,4.135,3.309
		c0.52,2.285-0.917,4.567-3.202,5.085c-6.444,1.467-13.098,2.21-19.773,2.21c-26.792,0-51.891-11.912-68.858-32.681
		C453.309,64.534,452.976,63.427,453.09,62.298z M441.105,42.988c0-2.353,1.907-4.259,4.26-4.259s4.259,1.907,4.259,4.259
		s-1.906,4.259-4.259,4.259C443.013,47.248,441.105,45.34,441.105,42.988z"/>
</g>
<path fill="none" stroke="#000000" stroke-width="2.8347" stroke-miterlimit="10" d="M854.077,104.336
	c-4.411,0.445-8.997-0.646-12.866-3.458c-8.103-5.885-10.067-17.049-4.649-25.339c-25.948-33.046-66.264-54.274-111.537-54.274
	c-5.383,0-10.69,0.311-15.917,0.896c-0.943,4.323-3.396,8.336-7.259,11.143c-8.11,5.893-19.353,4.302-25.558-3.438
	c-45.64,16.71-80.287,56.222-90.153,104.736c3.831,2.231,6.896,5.811,8.375,10.357c3.094,9.519-1.871,19.698-11.117,23.228
	c1.823,50.666,30.235,94.549,71.709,118.117c3.306-2.949,7.652-4.759,12.433-4.759c10.024,0,18.183,7.894,18.657,17.8
	c12.339,3.508,25.365,5.385,38.828,5.385c36.868,0,70.445-14.08,95.656-37.152c-1.775-4.053-2.147-8.736-0.674-13.272
	c3.095-9.525,13.107-14.845,22.669-12.25c15.205-22.584,24.08-49.783,24.08-79.056C866.754,142.075,862.217,122.213,854.077,104.336
	z M759.033,47.752c1.252-1.708,3.649-2.08,5.358-0.829c1.708,1.25,2.079,3.649,0.829,5.357s-3.649,2.08-5.356,0.83
	C758.156,51.859,757.783,49.46,759.033,47.752z M631.537,234.942c-1.252,1.708-3.648,2.079-5.356,0.828
	c-1.709-1.25-2.08-3.648-0.83-5.357c1.25-1.707,3.649-2.08,5.356-0.828C632.416,230.834,632.787,233.233,631.537,234.942z
	 M632.024,95.047c-1.25,1.708-3.648,2.08-5.357,0.83s-2.08-3.648-0.83-5.357c1.253-1.708,3.649-2.08,5.357-0.829
	C632.903,90.94,633.274,93.339,632.024,95.047z M764.435,278.633c-1.25,1.709-3.649,2.08-5.357,0.83
	c-1.709-1.25-2.079-3.647-0.829-5.356c1.25-1.708,3.648-2.08,5.356-0.829C765.313,274.527,765.685,276.926,764.435,278.633z
	 M725.022,242.73c-44.02,0-79.703-35.686-79.703-79.704c0-44.021,35.684-79.704,79.703-79.704s79.705,35.684,79.705,79.704
	C804.728,207.045,769.041,242.73,725.022,242.73z M847.055,165.743c-1.25,1.709-3.649,2.08-5.357,0.83
	c-1.709-1.25-2.08-3.649-0.828-5.357c1.25-1.708,3.647-2.079,5.356-0.829C847.934,161.636,848.305,164.035,847.055,165.743z"/>
<path fill="none" stroke="#000000" stroke-width="2.8347" stroke-miterlimit="10" d="M162.589,21.294
	c-78.151,0-141.732,63.581-141.732,141.732s63.581,141.732,141.732,141.732c78.15,0,141.731-63.581,141.731-141.732
	S240.74,21.294,162.589,21.294z M298.392,172.946l-8.504,0.002v-19.846l8.503,0.002L298.392,172.946z M288.679,111.625l6.132,18.87
	l-8.087,2.629l-6.133-18.874L288.679,111.625z M279.405,125.068c0.315,0.971,0.233,2.007-0.229,2.917
	c-0.465,0.911-1.255,1.585-2.229,1.901c-0.386,0.125-0.782,0.188-1.183,0.188c-1.662,0-3.123-1.062-3.636-2.643
	c-0.65-2.007,0.452-4.168,2.456-4.82c0.385-0.125,0.78-0.188,1.181-0.188C277.429,122.425,278.891,123.487,279.405,125.068z
	 M266.624,75.177l11.663,16.051l-6.878,5l-11.666-16.056L266.624,75.177z M162.589,267.153
	c-57.416,0-104.127-46.711-104.127-104.127S105.173,58.899,162.589,58.899s104.127,46.711,104.127,104.127
	S220.005,267.153,162.589,267.153z M202.588,279.336c-12.885,4.422-26.375,6.664-40.1,6.664c-13.573,0-26.886-2.193-39.564-6.522
	c-2.217-0.758-3.404-3.18-2.647-5.396c0.589-1.722,2.204-2.879,4.021-2.879c0.465,0,0.927,0.077,1.374,0.229
	c11.8,4.03,24.188,6.073,36.818,6.073c12.773,0,25.336-2.088,37.34-6.207c0.446-0.153,0.912-0.231,1.379-0.231
	c0.793,0,1.569,0.223,2.251,0.647c0.835,0.521,1.445,1.287,1.768,2.225C205.987,276.154,204.803,278.576,202.588,279.336z
	 M61.865,92.437c15.64-22.288,38.498-38.957,64.367-46.938c0.409-0.126,0.83-0.189,1.252-0.189c1.875,0,3.507,1.205,4.062,2.998
	c0.689,2.238-0.568,4.623-2.809,5.313c-24.074,7.427-45.354,22.946-59.915,43.698c-0.737,1.052-1.897,1.707-3.182,1.799
	c-0.102,0.007-0.203,0.011-0.305,0.011c-0.873,0-1.715-0.267-2.436-0.771C60.984,97.01,60.52,94.354,61.865,92.437z M158.765,44.023
	c0.001-2.108,1.715-3.824,3.82-3.824h0.005c2.106,0,3.823,1.716,3.823,3.825c0,2.107-1.717,3.824-3.823,3.825
	C160.48,47.847,158.765,46.131,158.765,44.023z M193.289,48.231c0.551-1.796,2.183-3.003,4.061-3.003c0.42,0,0.84,0.063,1.247,0.188
	c26.028,7.986,48.946,24.575,64.531,46.712c1.349,1.916,0.887,4.572-1.027,5.921c-0.722,0.508-1.565,0.775-2.443,0.775
	c-1.383,0-2.684-0.674-3.479-1.802c-14.503-20.603-35.837-36.043-60.073-43.481c-1.229-0.376-2.209-1.275-2.692-2.471
	C193.041,50.157,192.998,49.177,193.289,48.231z M234.386,47.328l16.053,11.661l-4.996,6.881l-16.057-11.665L234.386,47.328z
	 M195.12,30.804l18.869,6.13l-2.625,8.088l-18.876-6.132L195.12,30.804z M152.668,27.226h19.842v8.504h-19.842V27.226z
	 M130.062,30.807l2.627,8.088l-18.871,6.132l-2.628-8.088L130.062,30.807z M90.796,47.329l4.998,6.881L79.741,65.873l-4.999-6.88
	L90.796,47.329z M58.559,75.177l6.88,5L53.774,96.229l-6.88-4.999L58.559,75.177z M45.774,125.072
	c0.516-1.583,1.977-2.646,3.638-2.646c0.398,0,0.798,0.063,1.183,0.188c2.006,0.651,3.107,2.814,2.457,4.819
	c-0.516,1.582-1.977,2.644-3.637,2.644c-0.4,0-0.8-0.063-1.185-0.188C46.225,129.236,45.123,127.076,45.774,125.072z
	 M36.504,111.624l8.088,2.629l-6.132,18.872l-8.088-2.628L36.504,111.624z M26.792,153.102l8.504,0.001v19.842h-8.504V153.102z
	 M36.505,214.424l-6.133-18.872l8.089-2.628l6.132,18.873L36.505,214.424z M58.56,250.871l-11.665-16.054l6.882-4.998l11.663,16.055
	L58.56,250.871z M71.85,235.481c-0.236,0.955-0.779,1.773-1.57,2.369c-0.741,0.559-1.623,0.854-2.547,0.854
	c-1.352,0-2.591-0.619-3.4-1.697c-16.364-21.759-25.153-48.649-24.75-75.721c0.034-2.308,1.938-4.185,4.247-4.185h0.064
	c2.343,0.035,4.221,1.969,4.187,4.312c-0.378,25.19,7.806,50.224,23.044,70.488C71.896,232.926,72.16,234.231,71.85,235.481z
	 M90.798,278.717l-16.056-11.662l5.001-6.881l16.053,11.664L90.798,278.717z M95.737,261.547c-0.718,0.988-1.877,1.577-3.101,1.577
	c-0.809,0-1.584-0.253-2.24-0.729c-0.828-0.603-1.371-1.487-1.531-2.496c-0.159-1.01,0.083-2.021,0.685-2.849
	c0.718-0.985,1.877-1.575,3.101-1.575c0.811,0,1.585,0.252,2.241,0.729C96.596,257.446,96.977,259.842,95.737,261.547z
	 M130.063,295.241l-18.874-6.132l2.631-8.089l18.871,6.133L130.063,295.241z M172.51,298.826h-19.842v-8.504h19.842V298.826z
	 M195.118,295.245l-2.629-8.087l18.872-6.132l2.627,8.088L195.118,295.245z M228.761,258.7c0.159-1.009,0.702-1.895,1.528-2.494
	c0.657-0.479,1.436-0.73,2.244-0.73c1.24,0,2.37,0.574,3.1,1.577c1.238,1.705,0.859,4.103-0.846,5.342
	c-0.658,0.478-1.435,0.729-2.244,0.729c-1.224,0-2.381-0.589-3.1-1.578C228.844,260.72,228.602,259.709,228.761,258.7z
	 M234.385,278.721l-4.999-6.88l16.055-11.663l4.997,6.881L234.385,278.721z M255.136,237.586c-1.875-1.405-2.258-4.075-0.853-5.948
	c15.11-20.16,23.203-45.222,22.787-70.571c-0.021-1.284,0.531-2.495,1.521-3.324c0.752-0.634,1.672-0.979,2.661-0.995h0.07
	c2.303,0,4.207,1.875,4.246,4.181c0.447,27.222-8.248,54.146-24.483,75.808c-0.811,1.08-2.051,1.699-3.406,1.699
	C256.756,238.434,255.876,238.141,255.136,237.586z M266.624,250.874l-6.881-4.998l11.664-16.055l6.879,5L266.624,250.874z
	 M288.679,214.424l-8.088-2.625l6.133-18.875l8.086,2.631L288.679,214.424z"/>
<g>
	<path fill="none" stroke="#000000" stroke-width="2.8347" stroke-miterlimit="10" d="M114.322,138.464v8.279
		c0,8.607,6.979,15.585,15.587,15.585c8.605,0,15.584-6.978,15.584-15.585v-8.279H114.322z M129.908,150.57
		c-2.113,0-3.827-1.713-3.827-3.827s1.714-3.827,3.827-3.827c2.112,0,3.825,1.713,3.825,3.827S132.021,150.57,129.908,150.57z"/>
	<path fill="none" stroke="#000000" stroke-width="2.8347" stroke-miterlimit="10" d="M147.004,138.464v8.279
		c0,8.607,6.979,15.585,15.585,15.585c8.605,0,15.585-6.978,15.585-15.585v-8.279H147.004z M162.589,150.57
		c-2.113,0-3.827-1.713-3.827-3.827s1.714-3.827,3.827-3.827s3.827,1.713,3.827,3.827S164.702,150.57,162.589,150.57z"/>
	<path fill="none" stroke="#000000" stroke-width="2.8347" stroke-miterlimit="10" d="M179.861,138.464v8.279
		c0,8.607,6.979,15.585,15.585,15.585c8.606,0,15.585-6.978,15.585-15.585v-8.279H179.861z M195.446,150.57
		c-2.112,0-3.826-1.713-3.826-3.827s1.714-3.827,3.826-3.827c2.113,0,3.827,1.713,3.827,3.827S197.56,150.57,195.446,150.57z"/>
	<path fill="none" stroke="#000000" stroke-width="2.8347" stroke-miterlimit="10" d="M130.575,167.297v8.279
		c0,8.607,6.978,15.585,15.585,15.585c8.606,0,15.585-6.978,15.585-15.585v-8.279H130.575z M146.16,179.403
		c-2.113,0-3.826-1.713-3.826-3.826s1.713-3.826,3.826-3.826c2.112,0,3.825,1.713,3.825,3.826S148.273,179.403,146.16,179.403z"/>
	<path fill="none" stroke="#000000" stroke-width="2.8347" stroke-miterlimit="10" d="M163.433,167.297v8.279
		c0,8.607,6.979,15.585,15.585,15.585c8.607,0,15.585-6.978,15.585-15.585v-8.279H163.433z M179.018,179.403
		c-2.113,0-3.826-1.713-3.826-3.826s1.713-3.826,3.826-3.826s3.826,1.713,3.826,3.826S181.131,179.403,179.018,179.403z"/>
</g>
<g>
	<polygon fill="none" stroke="#000000" stroke-width="2.8347" stroke-miterlimit="10" points="2754.416,238.164 2764.664,238.164 
		2764.664,246.667 2784.506,246.667 2784.506,238.164 2794.754,238.164 2794.754,96.432 2784.506,96.432 2784.506,87.927 
		2764.664,87.927 2764.664,96.432 2754.416,96.432 	"/>
	<polyline fill="none" stroke="#000000" stroke-width="2.8347" stroke-miterlimit="10" points="2754.416,96.432 2744.17,96.432 
		2744.17,87.927 2724.325,87.927 2724.325,96.432 2714.08,96.432 2714.08,238.164 2724.325,238.164 2724.325,246.667 
		2744.17,246.667 2744.17,238.164 2754.416,238.164 	"/>
	<polyline fill="none" stroke="#000000" stroke-width="2.8347" stroke-miterlimit="10" points="2714.08,96.432 2703.832,96.432 
		2703.832,87.927 2683.99,87.927 2683.99,96.432 2673.741,96.432 2673.741,238.164 2683.99,238.164 2683.99,246.667 
		2703.832,246.667 2703.832,238.164 2714.08,238.164 	"/>
	<polyline fill="none" stroke="#000000" stroke-width="2.8347" stroke-miterlimit="10" points="2673.741,96.432 2663.496,96.432 
		2663.496,87.927 2643.652,87.927 2643.652,96.432 2633.406,96.432 2633.406,238.164 2643.652,238.164 2643.652,246.667 
		2663.496,246.667 2663.496,238.164 2673.741,238.164 	"/>
	<polyline fill="none" stroke="#000000" stroke-width="2.8347" stroke-miterlimit="10" points="2633.406,96.432 2623.157,96.432 
		2623.157,87.927 2603.316,87.927 2603.316,96.432 2593.068,96.432 2593.068,238.164 2603.316,238.164 2603.316,246.667 
		2623.157,246.667 2623.157,238.164 2633.406,238.164 	"/>
	<polyline fill="none" stroke="#000000" stroke-width="2.8347" stroke-miterlimit="10" points="2593.068,96.432 2582.822,96.432 
		2582.822,87.927 2562.979,87.927 2562.979,96.432 2552.732,96.432 2552.732,238.164 2562.979,238.164 2562.979,246.667 
		2582.822,246.667 2582.822,238.164 2593.068,238.164 	"/>
	<polyline fill="none" stroke="#000000" stroke-width="2.8347" stroke-miterlimit="10" points="2552.732,96.432 2542.484,96.432 
		2542.484,87.927 2522.643,87.927 2522.643,96.432 2512.395,96.432 2512.395,238.164 2522.643,238.164 2522.643,246.667 
		2542.484,246.667 2542.484,238.164 2552.732,238.164 	"/>
	<polyline fill="none" stroke="#000000" stroke-width="2.8347" stroke-miterlimit="10" points="2512.395,96.432 2502.148,96.432 
		2502.148,87.927 2482.305,87.927 2482.305,96.432 2472.059,96.432 2472.059,238.164 2482.305,238.164 2482.305,246.667 
		2502.148,246.667 2502.148,238.164 2512.395,238.164 	"/>
	<polyline fill="none" stroke="#000000" stroke-width="2.8347" stroke-miterlimit="10" points="2472.059,96.432 2461.811,96.432 
		2461.811,87.927 2441.969,87.927 2441.969,96.432 2431.721,96.432 2431.721,238.164 2441.969,238.164 2441.969,246.667 
		2461.811,246.667 2461.811,238.164 2472.059,238.164 	"/>
	<polyline fill="none" stroke="#000000" stroke-width="2.8347" stroke-miterlimit="10" points="2431.721,96.432 2421.475,96.432 
		2421.475,87.927 2401.631,87.927 2401.631,96.432 2391.385,96.432 2391.385,238.164 2401.631,238.164 2401.631,246.667 
		2421.475,246.667 2421.475,238.164 2431.721,238.164 	"/>
	<polyline fill="none" stroke="#000000" stroke-width="2.8347" stroke-miterlimit="10" points="2391.385,96.432 2381.137,96.432 
		2381.137,87.927 2361.295,87.927 2361.295,96.432 2351.047,96.432 2351.047,238.164 2361.295,238.164 2361.295,246.667 
		2381.137,246.667 2381.137,238.164 2391.385,238.164 	"/>
	<polyline fill="none" stroke="#000000" stroke-width="2.8347" stroke-miterlimit="10" points="2351.047,96.432 2340.801,96.432 
		2340.801,87.927 2320.957,87.927 2320.957,96.432 2310.711,96.432 2310.711,238.164 2320.957,238.164 2320.957,246.667 
		2340.801,246.667 2340.801,238.164 2351.047,238.164 	"/>
	<polyline fill="none" stroke="#000000" stroke-width="2.8347" stroke-miterlimit="10" points="2310.711,96.432 2300.463,96.432 
		2300.463,87.927 2280.621,87.927 2280.621,96.432 2270.373,96.432 2270.373,238.164 2280.621,238.164 2280.621,246.667 
		2300.463,246.667 2300.463,238.164 2310.711,238.164 	"/>
	<polyline fill="none" stroke="#000000" stroke-width="2.8347" stroke-miterlimit="10" points="2270.373,96.432 2260.127,96.432 
		2260.127,87.927 2240.282,87.927 2240.282,96.432 2230.037,96.432 2230.037,238.164 2240.282,238.164 2240.282,246.667 
		2260.127,246.667 2260.127,238.164 2270.373,238.164 	"/>
	<polyline fill="none" stroke="#000000" stroke-width="2.8347" stroke-miterlimit="10" points="2230.037,96.432 2219.789,96.432 
		2219.789,87.927 2199.947,87.927 2199.947,96.432 2189.698,96.432 2189.698,238.164 2199.947,238.164 2199.947,246.667 
		2219.789,246.667 2219.789,238.164 2230.037,238.164 	"/>
	<polyline fill="none" stroke="#000000" stroke-width="2.8347" stroke-miterlimit="10" points="2189.698,96.432 2179.452,96.432 
		2179.452,87.927 2159.609,87.927 2159.609,96.432 2149.363,96.432 2149.363,238.164 2159.609,238.164 2159.609,246.667 
		2179.452,246.667 2179.452,238.164 2189.698,238.164 	"/>
	<polyline fill="none" stroke="#000000" stroke-width="2.8347" stroke-miterlimit="10" points="2149.363,96.432 2139.115,96.432 
		2139.115,87.927 2119.273,87.927 2119.273,96.432 2109.025,96.432 2109.025,238.164 2119.273,238.164 2119.273,246.667 
		2139.115,246.667 2139.115,238.164 2149.363,238.164 	"/>
	<polyline fill="none" stroke="#000000" stroke-width="2.8347" stroke-miterlimit="10" points="2109.025,96.432 2098.779,96.432 
		2098.779,87.927 2078.936,87.927 2078.936,96.432 2068.689,96.432 2068.689,238.164 2078.936,238.164 2078.936,246.667 
		2098.779,246.667 2098.779,238.164 2109.025,238.164 	"/>
	<polyline fill="none" stroke="#000000" stroke-width="2.8347" stroke-miterlimit="10" points="2068.689,96.432 2058.441,96.432 
		2058.441,87.927 2038.6,87.927 2038.6,96.432 2028.352,96.432 2028.352,238.164 2038.6,238.164 2038.6,246.667 2058.441,246.667 
		2058.441,238.164 2068.689,238.164 	"/>
	<polyline fill="none" stroke="#000000" stroke-width="2.8347" stroke-miterlimit="10" points="2028.352,96.432 2018.105,96.432 
		2018.105,87.927 1998.262,87.927 1998.262,96.432 1988.016,96.432 1988.016,238.164 1998.262,238.164 1998.262,246.667 
		2018.105,246.667 2018.105,238.164 2028.352,238.164 	"/>
</g>
<path fill="none" stroke="#000000" stroke-width="2.8347" stroke-miterlimit="10" d="M1149.07,100.878
	c-8.102-5.886-10.065-17.049-4.647-25.34c-25.947-33.046-66.265-54.272-111.537-54.272c-5.383,0-10.691,0.311-15.918,0.895
	c-0.943,4.324-3.396,8.336-7.258,11.143c-8.111,5.894-19.354,4.303-25.56-3.437c-45.639,16.71-80.287,56.221-90.151,104.736
	c3.829,2.229,6.896,5.809,8.375,10.356c3.094,9.519-1.871,19.699-11.117,23.228c1.821,50.666,30.233,94.551,71.709,118.117
	c3.305-2.949,7.651-4.759,12.432-4.759c10.025,0,18.182,7.894,18.658,17.8c12.338,3.508,25.365,5.385,38.828,5.385
	c36.866,0,70.444-14.08,95.655-37.152c-1.774-4.051-2.147-8.736-0.674-13.272c3.095-9.525,13.107-14.847,22.668-12.25
	c15.205-22.582,24.08-49.781,24.08-79.056c0-20.924-4.537-40.785-12.676-58.662C1157.525,104.783,1152.941,103.691,1149.07,100.878z
	 M1066.896,47.774c1.252-1.708,3.65-2.08,5.359-0.829c1.707,1.25,2.075,3.646,0.825,5.354s-3.646,2.08-5.354,0.83
	C1066.02,51.879,1065.646,49.483,1066.896,47.774z M933.698,90.541c1.252-1.708,3.65-2.08,5.357-0.829
	c1.709,1.249,2.08,3.648,0.83,5.357c-1.25,1.708-3.648,2.08-5.357,0.83S932.448,92.25,933.698,90.541z M939.4,234.961
	c-1.252,1.709-3.647,2.08-5.356,0.83s-2.08-3.646-0.83-5.354c1.25-1.709,3.647-2.08,5.356-0.83
	C940.279,230.856,940.65,233.254,939.4,234.961z M1072.297,278.657c-1.25,1.707-3.648,2.08-5.357,0.828
	c-1.709-1.25-2.08-3.648-0.83-5.357c1.25-1.707,3.65-2.08,5.357-0.828C1073.176,274.547,1073.547,276.948,1072.297,278.657z
	 M1032.885,262.86c-55.125,0-99.813-44.688-99.813-99.813s44.688-99.812,99.813-99.812s99.813,44.687,99.813,99.812
	S1088.01,262.86,1032.885,262.86z M1154.916,165.766c-1.248,1.709-3.646,2.078-5.355,0.826c-1.709-1.25-2.08-3.646-0.828-5.354
	c1.25-1.707,3.648-2.08,5.357-0.828C1155.795,161.658,1156.166,164.057,1154.916,165.766z"/>
<path fill="none" stroke="#000000" stroke-width="2.8347" stroke-miterlimit="10" d="M1384.34,304.728
	c78.151,0,141.731-63.58,141.731-141.732c0-78.149-63.58-141.729-141.731-141.729c-78.15,0-141.732,63.58-141.732,141.729
	C1242.607,241.148,1306.189,304.728,1384.34,304.728z M1248.536,153.078l8.505-0.002v19.846l-8.502-0.004L1248.536,153.078z
	 M1258.25,214.398l-6.132-18.871l8.087-2.629l6.133,18.875L1258.25,214.398z M1280.305,250.845l-11.662-16.052l6.877-5
	l11.666,16.056L1280.305,250.845z M1312.543,278.694l-16.054-11.661l4.996-6.881l16.058,11.664L1312.543,278.694z M1351.809,295.218
	l-18.869-6.131l2.625-8.088l18.875,6.132L1351.809,295.218z M1394.262,298.797h-19.844v-8.505h19.844V298.797z M1416.866,295.215
	l-2.627-8.088l18.871-6.132l2.629,8.088L1416.866,295.215z M1456.133,278.693l-4.998-6.881l16.053-11.662l5,6.879L1456.133,278.693z
	 M1488.37,250.845l-6.881-5l11.664-16.054l6.881,4.998L1488.37,250.845z M1510.426,214.398l-8.088-2.629l6.131-18.871l8.088,2.627
	L1510.426,214.398z M1520.137,172.919h-8.504v-19.844h8.504V172.919z M1510.424,111.597l6.133,18.873l-8.088,2.627l-6.133-18.871
	L1510.424,111.597z M1488.368,75.152l11.666,16.055l-6.883,4.996L1481.49,80.15L1488.368,75.152z M1456.131,47.304l16.057,11.664
	l-5.002,6.879l-16.053-11.664L1456.131,47.304z M1416.866,30.783l18.873,6.131l-2.631,8.088l-18.871-6.133L1416.866,30.783z
	 M1374.418,27.197h19.844v8.504h-19.844V27.197z M1351.811,30.777l2.629,8.088l-18.873,6.131l-2.627-8.086L1351.811,30.777z
	 M1312.545,47.3l4.998,6.88l-16.056,11.664l-4.996-6.88L1312.545,47.3z M1280.305,75.15l6.881,4.996l-11.664,16.055l-6.879-4.998
	L1280.305,75.15z M1258.25,111.597l8.088,2.627l-6.134,18.873l-8.086-2.629L1258.25,111.597z"/>
<g>
	<g>
		
			<line fill="none" stroke="#000000" stroke-width="1.4173" stroke-miterlimit="10" x1="1881.463" y1="238.164" x2="1942.135" y2="238.164"/>
		
			<line fill="none" stroke="#000000" stroke-width="1.4173" stroke-miterlimit="10" x1="1942.135" y1="96.432" x2="1881.463" y2="96.432"/>
		<g enable-background="new    ">
			<path d="M1894.108,189.028v4.938l3.324,0.498c-0.039-0.299-0.078-0.578-0.078-1.056c0-0.995,0.219-1.991,0.695-2.788
				c0.578-1.016,1.693-1.852,3.326-1.852c2.529,0,4.42,2.011,4.42,4.818c0,1.414-0.398,2.609-0.795,3.227l-1.336-0.438
				c0.32-0.538,0.719-1.593,0.719-2.769c0-1.652-1.076-3.066-2.809-3.066c-1.672,0.021-2.867,1.136-2.867,3.725
				c0,0.736,0.08,1.314,0.139,1.792l-6.213-0.837v-6.192H1894.108z"/>
			<path d="M1898.965,177.933c4.402,0,6.83,1.633,6.83,4.501c0,2.528-2.369,4.241-6.65,4.281c-4.34,0-6.73-1.872-6.73-4.501
				C1892.414,179.487,1894.844,177.933,1898.965,177.933z M1899.164,184.963c3.365,0,5.277-1.035,5.277-2.628
				c0-1.792-2.09-2.648-5.396-2.648c-3.186,0-5.277,0.816-5.277,2.628C1893.768,183.847,1895.641,184.963,1899.164,184.963z"/>
			<path d="M1898.547,175.76c-0.994,0-1.811,0.021-2.607,0.079v-1.533l1.553-0.08v-0.06c-0.916-0.538-1.771-1.434-1.771-3.026
				c0-1.314,0.795-2.31,1.932-2.728v-0.04c-0.539-0.299-0.957-0.677-1.256-1.075c-0.438-0.578-0.676-1.215-0.676-2.131
				c0-1.274,0.836-3.166,4.182-3.166h5.674v1.712h-5.455c-1.852,0-2.967,0.677-2.967,2.091c0,0.996,0.736,1.772,1.592,2.071
				c0.24,0.08,0.559,0.139,0.877,0.139h5.953v1.712h-5.773c-1.533,0-2.648,0.677-2.648,2.011c0,1.095,0.875,1.892,1.752,2.17
				c0.258,0.1,0.557,0.14,0.855,0.14h5.814v1.712H1898.547z"/>
			<path d="M1898.547,159.148c-0.994,0-1.811,0.02-2.607,0.08v-1.533l1.553-0.08v-0.06c-0.916-0.538-1.771-1.434-1.771-3.026
				c0-1.314,0.795-2.31,1.932-2.728v-0.04c-0.539-0.299-0.957-0.677-1.256-1.075c-0.438-0.578-0.676-1.215-0.676-2.131
				c0-1.274,0.836-3.166,4.182-3.166h5.674v1.712h-5.455c-1.852,0-2.967,0.677-2.967,2.091c0,0.996,0.736,1.772,1.592,2.071
				c0.24,0.08,0.559,0.139,0.877,0.139h5.953v1.712h-5.773c-1.533,0-2.648,0.677-2.648,2.011c0,1.095,0.875,1.892,1.752,2.17
				c0.258,0.1,0.557,0.14,0.855,0.14h5.814v1.712H1898.547z"/>
		</g>
		<g enable-background="new    ">
			<path d="M1909.883,183.564c0.834,0.621,1.938,1.071,3.477,1.071c1.514,0,2.602-0.468,3.451-1.071v0.587
				c-0.705,0.535-1.793,1.113-3.451,1.113c-1.674-0.009-2.762-0.578-3.477-1.113V183.564z"/>
			<path d="M1909.748,179.22h4.971c0.365,0,0.783-0.009,1.063-0.034v0.671l-0.713,0.035v0.016c0.459,0.23,0.807,0.731,0.807,1.402
				c0,0.995-0.842,1.76-2.09,1.76c-1.369,0.009-2.211-0.842-2.211-1.844c0-0.629,0.299-1.055,0.629-1.241v-0.017h-2.455V179.22z
				 M1913.342,179.969c-0.094,0-0.221,0.008-0.314,0.033c-0.475,0.111-0.867,0.52-0.867,1.08c0,0.773,0.682,1.232,1.59,1.232
				c0.834,0,1.521-0.408,1.521-1.216c0-0.501-0.332-0.96-0.893-1.097c-0.102-0.025-0.203-0.033-0.322-0.033H1913.342z"/>
			<path d="M1913.862,177.56c1.012-0.018,1.428-0.663,1.428-1.411c0-0.536-0.094-0.858-0.213-1.139l0.535-0.128
				c0.119,0.264,0.256,0.715,0.256,1.369c0,1.266-0.834,2.022-2.074,2.022s-2.219-0.731-2.219-1.93c0-1.343,1.182-1.7,1.938-1.7
				c0.154,0,0.273,0.017,0.35,0.025V177.56z M1913.326,175.367c-0.477-0.009-1.217,0.195-1.217,1.037
				c0,0.756,0.697,1.088,1.217,1.147V175.367z"/>
			<path d="M1915.781,173.64h-3.543v0.578h-0.57v-0.578h-0.195c-0.578,0-1.105-0.127-1.436-0.476
				c-0.273-0.28-0.383-0.654-0.383-1.003c0-0.264,0.059-0.493,0.119-0.637l0.578,0.102c-0.053,0.111-0.094,0.264-0.094,0.476
				c0,0.638,0.561,0.799,1.189,0.799h0.221v-0.994h0.57v0.994h3.543V173.64z"/>
			<path d="M1915.781,168.955l-0.518,0.06v0.026c0.322,0.229,0.611,0.671,0.611,1.258c0,0.833-0.586,1.258-1.182,1.258
				c-0.994,0-1.537-0.884-1.529-2.473h-0.086c-0.34,0-0.951,0.093-0.951,0.935c0,0.383,0.119,0.782,0.307,1.071l-0.494,0.17
				c-0.221-0.34-0.365-0.833-0.365-1.352c0-1.258,0.859-1.564,1.684-1.564h1.537c0.357,0,0.707-0.017,0.986-0.068V168.955z
				 M1913.682,169.066c-0.016,0.816,0.129,1.742,0.928,1.742c0.484,0,0.713-0.323,0.713-0.706c0-0.535-0.34-0.875-0.688-0.994
				c-0.076-0.025-0.162-0.042-0.238-0.042H1913.682z"/>
			<path d="M1914.66,163.692c0.424,0,0.799-0.009,1.121-0.034v0.663l-0.672,0.042v0.017c0.332,0.195,0.766,0.629,0.766,1.36
				c0,0.646-0.357,1.419-1.801,1.419h-2.406v-0.748h2.277c0.783,0,1.309-0.238,1.309-0.918c0-0.501-0.348-0.85-0.68-0.986
				c-0.109-0.042-0.246-0.068-0.381-0.068h-2.525v-0.748H1914.66z"/>
			<path d="M1909.748,162.448v-0.748h6.033v0.748H1909.748z"/>
			<path d="M1910.487,159.541h1.182v-1.071h0.57v1.071h2.217c0.51,0,0.799-0.145,0.799-0.561c0-0.195-0.025-0.34-0.051-0.433
				l0.563-0.034c0.059,0.145,0.102,0.374,0.102,0.663c0,0.348-0.111,0.629-0.314,0.807c-0.221,0.213-0.588,0.289-1.072,0.289h-2.242
				v0.638h-0.57v-0.638h-0.986L1910.487,159.541z"/>
			<path d="M1916.811,158.078c-0.842-0.604-1.947-1.071-3.477-1.071c-1.521,0-2.609,0.459-3.451,1.071V157.5
				c0.697-0.544,1.785-1.113,3.459-1.113c1.666,0,2.746,0.569,3.469,1.113V158.078z"/>
		</g>
	</g>
	<g>
		
			<line fill="none" stroke="#000000" stroke-width="1.4173" stroke-miterlimit="10" x1="1602.909" y1="25.565" x2="1480.375" y2="25.565"/>
		
			<line fill="none" stroke="#000000" stroke-width="1.4173" stroke-miterlimit="10" x1="1480.375" y1="309.03" x2="1602.909" y2="309.03"/>
		<g enable-background="new    ">
			<path d="M1590.108,136.534v-0.04l-1.215-2.25l1.334-0.339l1.514,2.828v1.494h-12.943v-1.693H1590.108z"/>
			<path d="M1585.408,151.552c-4.401,0-6.83-1.633-6.83-4.5c0-2.529,2.369-4.241,6.65-4.281c4.341,0,6.73,1.872,6.73,4.5
				C1591.959,149.998,1589.531,151.552,1585.408,151.552z M1585.209,144.522c-3.365,0-5.277,1.036-5.277,2.628
				c0,1.792,2.091,2.648,5.396,2.648c3.187,0,5.277-0.816,5.277-2.628C1590.606,145.637,1588.734,144.522,1585.209,144.522z"/>
			<path d="M1585.408,161.77c-4.401,0-6.83-1.633-6.83-4.5c0-2.529,2.369-4.241,6.65-4.281c4.341,0,6.73,1.872,6.73,4.5
				C1591.959,160.217,1589.531,161.77,1585.408,161.77z M1585.209,154.74c-3.365,0-5.277,1.035-5.277,2.628
				c0,1.792,2.091,2.648,5.396,2.648c3.187,0,5.277-0.816,5.277-2.628C1590.606,155.856,1588.734,154.74,1585.209,154.74z"/>
			<path d="M1585.826,163.943c0.995,0,1.812-0.02,2.608-0.08v1.533l-1.553,0.08v0.06c0.916,0.538,1.771,1.434,1.771,3.026
				c0,1.314-0.796,2.31-1.932,2.728v0.04c0.538,0.299,0.956,0.677,1.255,1.075c0.438,0.578,0.677,1.215,0.677,2.131
				c0,1.274-0.836,3.167-4.182,3.167h-5.675v-1.713h5.456c1.852,0,2.967-0.677,2.967-2.091c0-0.996-0.736-1.772-1.593-2.071
				c-0.239-0.08-0.558-0.139-0.876-0.139h-5.954v-1.712h5.774c1.533,0,2.648-0.677,2.648-2.011c0-1.095-0.876-1.892-1.752-2.17
				c-0.259-0.1-0.558-0.14-0.856-0.14h-5.814v-1.712H1585.826z"/>
			<path d="M1585.826,180.554c0.995,0,1.812-0.02,2.608-0.079v1.533l-1.553,0.079v0.061c0.916,0.537,1.771,1.434,1.771,3.026
				c0,1.314-0.796,2.31-1.932,2.728v0.041c0.538,0.299,0.956,0.676,1.255,1.074c0.438,0.578,0.677,1.215,0.677,2.131
				c0,1.275-0.836,3.166-4.182,3.166h-5.675v-1.712h5.456c1.852,0,2.967-0.677,2.967-2.091c0-0.996-0.736-1.772-1.593-2.071
				c-0.239-0.079-0.558-0.14-0.876-0.14h-5.954v-1.712h5.774c1.533,0,2.648-0.677,2.648-2.011c0-1.096-0.876-1.893-1.752-2.171
				c-0.259-0.1-0.558-0.14-0.856-0.14h-5.814v-1.713H1585.826z"/>
		</g>
	</g>
	<g>
		<g enable-background="new    ">
			<path d="M1647.496,179.306c3.316,2.041,8.164,3.741,13.266,3.741c7.568,0,11.99-3.997,11.99-9.779
				c0-5.357-3.061-8.419-10.799-11.395c-9.354-3.316-15.137-8.164-15.137-16.242c0-8.929,7.398-15.563,18.538-15.563
				c5.868,0,10.119,1.361,12.671,2.807l-2.041,6.038c-1.871-1.021-5.697-2.722-10.885-2.722c-7.824,0-10.801,4.677-10.801,8.589
				c0,5.357,3.487,7.993,11.396,11.055c9.694,3.742,14.626,8.419,14.626,16.838c0,8.844-6.547,16.497-20.068,16.497
				c-5.527,0-11.564-1.616-14.626-3.657L1647.496,179.306z"/>
			<path d="M1690.186,158.302c0-4.251-0.084-7.738-0.34-11.14h6.549l0.34,6.633h0.255c2.296-3.911,6.122-7.568,12.926-7.568
				c5.612,0,9.864,3.401,11.649,8.249h0.17c1.276-2.296,2.893-4.082,4.593-5.357c2.466-1.871,5.187-2.892,9.099-2.892
				c5.443,0,13.521,3.572,13.521,17.858v24.235h-7.313v-23.3c0-7.909-2.892-12.671-8.929-12.671c-4.252,0-7.568,3.146-8.844,6.803
				c-0.34,1.021-0.596,2.381-0.596,3.742v25.426h-7.313v-24.661c0-6.548-2.893-11.31-8.59-11.31c-4.677,0-8.078,3.741-9.269,7.483
				c-0.425,1.105-0.595,2.381-0.595,3.656v24.831h-7.314V158.302z"/>
			<path d="M1783.899,188.32l-0.596-5.188h-0.254c-2.297,3.231-6.719,6.123-12.586,6.123c-8.334,0-12.586-5.868-12.586-11.82
				c0-9.949,8.844-15.392,24.746-15.307v-0.851c0-3.401-0.936-9.524-9.354-9.524c-3.827,0-7.824,1.191-10.715,3.062l-1.701-4.932
				c3.401-2.211,8.334-3.657,13.521-3.657c12.585,0,15.646,8.589,15.646,16.838v15.392c0,3.571,0.17,7.058,0.68,9.864H1783.899z
				 M1782.793,167.316c-8.164-0.17-17.433,1.275-17.433,9.269c0,4.848,3.231,7.144,7.058,7.144c5.357,0,8.76-3.401,9.949-6.889
				c0.256-0.765,0.426-1.615,0.426-2.381V167.316z"/>
			<path d="M1802.098,127.944h7.482v60.376h-7.482V127.944z"/>
			<path d="M1822.166,127.944h7.483v60.376h-7.483V127.944z"/>
		</g>
		<g enable-background="new    ">
			<path d="M1686.891,219.166h-7.668v-11.324h2.24v9.198h5.428V219.166z"/>
			<path d="M1694.531,219.166h-2.041v-0.439c-0.358,0.246-0.739,0.416-1.141,0.511c-0.401,0.094-0.815,0.142-1.24,0.142
				c-0.397,0-0.757-0.06-1.077-0.178c-0.321-0.118-0.6-0.288-0.836-0.51s-0.418-0.484-0.546-0.787
				c-0.128-0.302-0.191-0.638-0.191-1.006c0-0.463,0.102-0.867,0.305-1.212s0.479-0.633,0.829-0.864s0.758-0.404,1.227-0.518
				c0.467-0.113,0.971-0.17,1.509-0.17h1.177c0-0.482-0.156-0.865-0.469-1.148c-0.311-0.283-0.76-0.425-1.346-0.425
				c-0.283,0-0.576,0.052-0.879,0.155c-0.303,0.104-0.604,0.293-0.906,0.567l-1.205-1.219c0.434-0.416,0.938-0.737,1.51-0.964
				c0.57-0.227,1.159-0.34,1.764-0.34c0.566,0,1.072,0.09,1.515,0.269c0.442,0.18,0.8,0.411,1.071,0.694
				c0.357,0.359,0.607,0.761,0.754,1.205c0.145,0.444,0.218,1.012,0.218,1.701V219.166z M1692.49,217.125v-1.517h-0.935
				c-0.284,0-0.551,0.02-0.801,0.057c-0.251,0.038-0.469,0.102-0.652,0.191c-0.185,0.09-0.331,0.206-0.439,0.348
				c-0.109,0.142-0.163,0.312-0.163,0.51c0,0.283,0.11,0.516,0.333,0.694c0.222,0.18,0.508,0.27,0.857,0.27
				c0.303,0,0.603-0.047,0.9-0.142C1691.887,217.441,1692.188,217.304,1692.49,217.125z"/>
			<path d="M1702.114,216.87c0,0.406-0.096,0.768-0.285,1.084s-0.436,0.581-0.738,0.794s-0.645,0.373-1.022,0.481
				c-0.379,0.108-0.753,0.163-1.122,0.163c-0.625,0-1.201-0.115-1.727-0.347s-0.986-0.603-1.385-1.113l1.232-1.247
				c0.246,0.312,0.529,0.556,0.852,0.73c0.32,0.175,0.666,0.262,1.034,0.262c0.321,0,0.589-0.059,0.801-0.177
				s0.319-0.296,0.319-0.532c0-0.245-0.152-0.451-0.454-0.616s-0.728-0.328-1.275-0.489c-0.321-0.094-0.634-0.215-0.936-0.361
				s-0.571-0.326-0.808-0.538c-0.236-0.213-0.426-0.456-0.567-0.73c-0.142-0.273-0.212-0.59-0.212-0.949
				c0-0.396,0.092-0.754,0.276-1.07s0.427-0.581,0.725-0.794c0.298-0.212,0.637-0.375,1.016-0.488s0.763-0.17,1.151-0.17
				c1.25,0,2.272,0.473,3.068,1.417l-1.219,1.233c-0.236-0.293-0.506-0.524-0.809-0.695c-0.303-0.17-0.633-0.255-0.992-0.255
				c-0.123,0-0.253,0.017-0.39,0.05c-0.138,0.033-0.265,0.08-0.383,0.142s-0.215,0.142-0.29,0.241
				c-0.076,0.099-0.113,0.21-0.113,0.333c0,0.218,0.144,0.406,0.432,0.566c0.288,0.161,0.701,0.321,1.24,0.482
				c0.35,0.104,0.68,0.236,0.992,0.396c0.313,0.161,0.586,0.348,0.822,0.561c0.236,0.212,0.422,0.453,0.56,0.723
				C1702.044,216.224,1702.114,216.53,1702.114,216.87z"/>
			<path d="M1711.836,215.055c0,0.133-0.008,0.27-0.021,0.411c-0.015,0.142-0.031,0.288-0.051,0.439h-6.547
				c0.075,0.236,0.182,0.461,0.318,0.673c0.137,0.213,0.305,0.397,0.504,0.553c0.197,0.156,0.422,0.279,0.672,0.369
				c0.251,0.09,0.527,0.135,0.83,0.135c0.368,0,0.736-0.064,1.105-0.191c0.368-0.128,0.676-0.3,0.921-0.518l1.29,1.29
				c-0.566,0.425-1.122,0.725-1.666,0.899c-0.543,0.175-1.117,0.263-1.722,0.263c-0.614,0-1.188-0.113-1.722-0.341
				c-0.534-0.227-0.997-0.533-1.389-0.921c-0.393-0.388-0.702-0.844-0.929-1.368c-0.228-0.524-0.341-1.084-0.341-1.679
				c0-0.596,0.113-1.155,0.341-1.68c0.227-0.524,0.538-0.98,0.935-1.368c0.397-0.387,0.86-0.694,1.39-0.921s1.097-0.34,1.7-0.34
				c0.576,0,1.129,0.105,1.658,0.318s0.998,0.508,1.404,0.886s0.727,0.829,0.963,1.354S1711.836,214.423,1711.836,215.055z
				 M1709.696,214.261c-0.161-0.52-0.447-0.938-0.857-1.254c-0.411-0.316-0.877-0.475-1.396-0.475c-0.51,0-0.969,0.158-1.375,0.475
				s-0.689,0.734-0.85,1.254H1709.696z"/>
			<path d="M1718.992,211.824l-1.091,1.729c-0.198-0.218-0.419-0.409-0.659-0.574c-0.241-0.165-0.484-0.248-0.73-0.248
				c-0.132,0-0.275,0.03-0.432,0.092s-0.303,0.163-0.439,0.305s-0.253,0.329-0.348,0.561c-0.094,0.231-0.142,0.517-0.142,0.857v4.62
				h-2.04v-8.192h2.04v0.879c0.245-0.35,0.518-0.618,0.815-0.808c0.297-0.189,0.631-0.283,0.999-0.283
				c0.358,0,0.711,0.097,1.056,0.29C1718.367,211.246,1718.69,211.503,1718.992,211.824z"/>
			<path d="M1727.1,217.932c-0.416,0.473-0.917,0.832-1.502,1.077c-0.586,0.246-1.201,0.369-1.844,0.369
				c-0.595,0-1.156-0.109-1.686-0.326c-0.529-0.218-0.988-0.518-1.377-0.9c-0.39-0.383-0.697-0.838-0.922-1.367
				c-0.226-0.529-0.338-1.101-0.338-1.715c0-0.604,0.112-1.17,0.338-1.694c0.225-0.524,0.53-0.979,0.915-1.367
				s0.841-0.692,1.37-0.914c0.528-0.223,1.096-0.333,1.699-0.333c0.624,0,1.217,0.113,1.779,0.34s1.051,0.571,1.467,1.034
				l-1.375,1.403c-0.207-0.273-0.461-0.501-0.758-0.68c-0.298-0.18-0.659-0.27-1.084-0.27c-0.313,0-0.607,0.066-0.887,0.198
				c-0.278,0.133-0.523,0.31-0.736,0.531c-0.213,0.223-0.381,0.484-0.504,0.787c-0.122,0.303-0.184,0.623-0.184,0.964
				c0,0.34,0.062,0.661,0.184,0.964c0.123,0.302,0.289,0.564,0.496,0.786c0.209,0.222,0.454,0.399,0.738,0.531
				c0.283,0.133,0.58,0.198,0.893,0.198c0.406,0,0.774-0.097,1.105-0.29c0.33-0.193,0.595-0.441,0.793-0.744L1727.1,217.932z"/>
			<path d="M1735.363,219.166h-2.041v-0.624c-0.132,0.133-0.286,0.248-0.46,0.348c-0.176,0.1-0.359,0.185-0.553,0.255
				c-0.194,0.071-0.393,0.125-0.596,0.163s-0.395,0.057-0.574,0.057c-0.416,0-0.814-0.066-1.197-0.198s-0.721-0.335-1.014-0.609
				s-0.527-0.628-0.701-1.063c-0.176-0.435-0.263-0.949-0.263-1.545v-4.975h2.041v4.876c0,0.293,0.045,0.551,0.135,0.772
				s0.208,0.406,0.354,0.553s0.316,0.255,0.51,0.326c0.193,0.07,0.395,0.106,0.603,0.106c0.661,0,1.233-0.228,1.715-0.681v-5.953
				h2.041V219.166z"/>
			<path d="M1741.627,218.981c-0.208,0.133-0.449,0.231-0.723,0.298c-0.274,0.066-0.549,0.1-0.822,0.1
				c-0.482,0-0.889-0.06-1.219-0.178c-0.331-0.118-0.596-0.3-0.794-0.545c-0.198-0.246-0.343-0.558-0.433-0.936
				s-0.135-0.822-0.135-1.333v-3.585h-1.076v-0.922c0.661-0.273,1.197-0.681,1.608-1.219c0.411-0.539,0.692-1.237,0.843-2.098h0.666
				v2.396h2.07v1.843h-2.07v3.728c0,0.207,0.026,0.378,0.078,0.51c0.053,0.133,0.121,0.236,0.206,0.312
				c0.085,0.076,0.182,0.128,0.29,0.156c0.109,0.028,0.225,0.042,0.348,0.042c0.16,0,0.354-0.028,0.581-0.085
				c0.228-0.057,0.421-0.15,0.581-0.283V218.981z"/>
			<path d="M1749.422,209.542h-2.126v-2.126h2.126V209.542z M1749.394,219.166h-2.069v-8.206h2.069V219.166z"/>
			<path d="M1757.147,211.824l-1.092,1.729c-0.198-0.218-0.418-0.409-0.658-0.574c-0.242-0.165-0.484-0.248-0.73-0.248
				c-0.133,0-0.276,0.03-0.432,0.092c-0.156,0.062-0.303,0.163-0.439,0.305c-0.138,0.142-0.254,0.329-0.348,0.561
				c-0.095,0.231-0.143,0.517-0.143,0.857v4.62h-2.04v-8.192h2.04v0.879c0.246-0.35,0.518-0.618,0.815-0.808
				s0.631-0.283,0.999-0.283c0.359,0,0.711,0.097,1.057,0.29C1756.521,211.246,1756.844,211.503,1757.147,211.824z"/>
			<path d="M1759.995,209.542h-2.126v-2.126h2.126V209.542z M1759.967,219.166h-2.069v-8.206h2.069V219.166z"/>
			<path d="M1767.847,216.87c0,0.406-0.095,0.768-0.284,1.084s-0.436,0.581-0.738,0.794s-0.645,0.373-1.023,0.481
				s-0.752,0.163-1.122,0.163c-0.625,0-1.2-0.115-1.726-0.347s-0.987-0.603-1.385-1.113l1.232-1.247
				c0.246,0.312,0.529,0.556,0.851,0.73s0.666,0.262,1.034,0.262c0.322,0,0.589-0.059,0.801-0.177
				c0.213-0.118,0.319-0.296,0.319-0.532c0-0.245-0.151-0.451-0.454-0.616c-0.302-0.165-0.727-0.328-1.275-0.489
				c-0.32-0.094-0.633-0.215-0.936-0.361c-0.302-0.146-0.571-0.326-0.807-0.538c-0.236-0.213-0.426-0.456-0.568-0.73
				c-0.141-0.273-0.212-0.59-0.212-0.949c0-0.396,0.093-0.754,0.276-1.07c0.186-0.316,0.427-0.581,0.725-0.794
				c0.299-0.212,0.637-0.375,1.016-0.488s0.763-0.17,1.151-0.17c1.25,0,2.272,0.473,3.068,1.417l-1.219,1.233
				c-0.236-0.293-0.506-0.524-0.808-0.695c-0.303-0.17-0.634-0.255-0.992-0.255c-0.123,0-0.254,0.017-0.391,0.05
				s-0.264,0.08-0.383,0.142c-0.117,0.062-0.215,0.142-0.29,0.241c-0.075,0.099-0.113,0.21-0.113,0.333
				c0,0.218,0.144,0.406,0.433,0.566c0.287,0.161,0.701,0.321,1.24,0.482c0.35,0.104,0.68,0.236,0.992,0.396
				c0.312,0.161,0.586,0.348,0.821,0.561c0.236,0.212,0.423,0.453,0.56,0.723C1767.778,216.224,1767.847,216.53,1767.847,216.87z"/>
			<path d="M1781.453,215.07c0,0.576-0.098,1.124-0.291,1.644c-0.195,0.52-0.467,0.976-0.817,1.368
				c-0.351,0.392-0.768,0.704-1.251,0.936c-0.482,0.231-1.014,0.347-1.59,0.347c-0.361,0-0.697-0.05-1.01-0.148
				c-0.313-0.1-0.605-0.258-0.881-0.475v0.425h-2.041v-11.764h2.055l0.016,3.969c0.235-0.189,0.517-0.341,0.843-0.454
				c0.325-0.113,0.668-0.17,1.027-0.17c0.501,0,0.987,0.111,1.46,0.333c0.473,0.223,0.893,0.527,1.262,0.914
				c0.368,0.388,0.663,0.844,0.885,1.368C1781.342,213.886,1781.453,214.456,1781.453,215.07z M1779.384,215.07
				c0-0.378-0.058-0.724-0.171-1.035s-0.273-0.578-0.477-0.801c-0.204-0.222-0.445-0.392-0.726-0.51s-0.591-0.178-0.932-0.178
				c-0.219,0-0.47,0.045-0.755,0.135c-0.284,0.09-0.521,0.206-0.711,0.348v3.939c0.445,0.407,0.949,0.61,1.508,0.61
				c0.322,0,0.624-0.062,0.904-0.185c0.279-0.123,0.519-0.295,0.718-0.518c0.199-0.222,0.356-0.486,0.47-0.794
				C1779.326,215.776,1779.384,215.438,1779.384,215.07z"/>
			<path d="M1791.19,215.07c0,0.614-0.113,1.184-0.34,1.707c-0.227,0.524-0.539,0.979-0.936,1.361s-0.862,0.685-1.396,0.907
				c-0.533,0.222-1.104,0.333-1.707,0.333c-0.605,0-1.172-0.111-1.701-0.333c-0.529-0.223-0.992-0.527-1.389-0.914
				c-0.396-0.388-0.709-0.844-0.936-1.368s-0.34-1.089-0.34-1.693c0-0.596,0.115-1.155,0.347-1.68s0.546-0.982,0.942-1.375
				c0.396-0.392,0.859-0.699,1.389-0.921c0.529-0.223,1.092-0.333,1.688-0.333c0.604,0,1.174,0.11,1.707,0.333
				c0.534,0.222,1,0.524,1.396,0.906c0.396,0.383,0.709,0.839,0.936,1.368S1791.19,214.466,1791.19,215.07z M1789.149,215.07
				c0-0.35-0.061-0.676-0.184-0.979c-0.123-0.302-0.289-0.566-0.502-0.794c-0.211-0.227-0.459-0.403-0.741-0.531
				c-0.282-0.127-0.584-0.191-0.904-0.191s-0.622,0.064-0.904,0.191c-0.282,0.128-0.53,0.305-0.742,0.531
				c-0.212,0.228-0.379,0.492-0.501,0.794c-0.123,0.303-0.184,0.629-0.184,0.979s0.061,0.676,0.184,0.978
				c0.122,0.303,0.289,0.567,0.501,0.794s0.46,0.403,0.742,0.531s0.584,0.191,0.904,0.191s0.622-0.063,0.904-0.191
				s0.53-0.305,0.741-0.531c0.213-0.227,0.379-0.491,0.502-0.794C1789.088,215.746,1789.149,215.42,1789.149,215.07z"/>
			<path d="M1799.58,219.18h-2.338l-1.701-2.622l-1.715,2.622h-2.339l2.92-4.295l-2.679-3.926h2.311l1.502,2.296l1.488-2.296h2.324
				l-2.693,3.926L1799.58,219.18z"/>
		</g>
		<g enable-background="new    ">
			<path d="M1659.948,236.175h-2.084v-0.425c-0.264,0.217-0.553,0.375-0.864,0.475c-0.312,0.099-0.643,0.148-0.992,0.148
				c-0.576,0-1.105-0.115-1.587-0.347c-0.482-0.231-0.898-0.544-1.248-0.936c-0.35-0.393-0.621-0.849-0.814-1.368
				s-0.291-1.067-0.291-1.644c0-0.614,0.111-1.184,0.334-1.708c0.222-0.524,0.518-0.98,0.885-1.368
				c0.369-0.387,0.789-0.691,1.262-0.914c0.473-0.222,0.959-0.333,1.46-0.333c0.35,0,0.69,0.048,1.021,0.142
				c0.331,0.095,0.614,0.227,0.851,0.397v-3.884h2.069V236.175z M1657.893,233.977v-3.939c-0.096-0.066-0.205-0.13-0.328-0.191
				s-0.251-0.113-0.384-0.156c-0.133-0.042-0.266-0.075-0.398-0.099s-0.251-0.036-0.355-0.036c-0.341,0-0.651,0.06-0.933,0.178
				c-0.279,0.118-0.523,0.288-0.732,0.51c-0.208,0.223-0.369,0.489-0.482,0.801c-0.115,0.312-0.172,0.657-0.172,1.035
				c0,0.368,0.057,0.706,0.172,1.013c0.113,0.308,0.27,0.572,0.469,0.794c0.199,0.223,0.438,0.395,0.719,0.518
				c0.279,0.123,0.586,0.185,0.917,0.185C1656.925,234.588,1657.428,234.385,1657.893,233.977z"/>
			<path d="M1670.11,232.064c0,0.133-0.008,0.27-0.021,0.411s-0.031,0.288-0.05,0.439h-6.548c0.076,0.236,0.182,0.461,0.318,0.673
				c0.137,0.213,0.305,0.397,0.504,0.553c0.198,0.156,0.422,0.279,0.673,0.369s0.526,0.135,0.829,0.135
				c0.369,0,0.737-0.064,1.105-0.191c0.369-0.128,0.676-0.3,0.922-0.518l1.289,1.29c-0.566,0.425-1.121,0.725-1.665,0.899
				s-1.118,0.263-1.722,0.263c-0.615,0-1.188-0.113-1.723-0.341c-0.533-0.227-0.996-0.533-1.389-0.921s-0.701-0.844-0.928-1.368
				c-0.228-0.524-0.341-1.084-0.341-1.679c0-0.596,0.113-1.155,0.341-1.68c0.227-0.524,0.538-0.98,0.935-1.368
				c0.397-0.387,0.86-0.694,1.39-0.921s1.096-0.34,1.7-0.34c0.576,0,1.129,0.105,1.658,0.318s0.997,0.508,1.403,0.886
				s0.728,0.829,0.964,1.354C1669.99,230.852,1670.11,231.431,1670.11,232.064z M1667.969,231.27
				c-0.16-0.52-0.446-0.938-0.857-1.254c-0.41-0.316-0.877-0.475-1.396-0.475c-0.51,0-0.969,0.158-1.374,0.475
				c-0.407,0.316-0.69,0.734-0.851,1.254H1667.969z"/>
			<path d="M1677.395,233.879c0,0.406-0.096,0.768-0.285,1.084s-0.436,0.581-0.738,0.794s-0.645,0.373-1.022,0.481
				c-0.379,0.108-0.753,0.163-1.122,0.163c-0.625,0-1.201-0.115-1.727-0.347s-0.986-0.603-1.385-1.113l1.232-1.247
				c0.246,0.312,0.529,0.556,0.852,0.73c0.32,0.175,0.666,0.262,1.034,0.262c0.321,0,0.589-0.059,0.801-0.177
				s0.319-0.296,0.319-0.532c0-0.245-0.152-0.451-0.454-0.616s-0.728-0.328-1.275-0.489c-0.321-0.094-0.634-0.215-0.936-0.361
				s-0.571-0.326-0.808-0.538c-0.236-0.213-0.426-0.456-0.567-0.73c-0.142-0.273-0.212-0.59-0.212-0.949
				c0-0.396,0.092-0.754,0.276-1.07s0.427-0.581,0.725-0.794c0.298-0.212,0.637-0.375,1.016-0.488s0.763-0.17,1.151-0.17
				c1.25,0,2.272,0.473,3.068,1.417l-1.219,1.233c-0.236-0.293-0.506-0.524-0.809-0.695c-0.303-0.17-0.633-0.255-0.992-0.255
				c-0.123,0-0.253,0.017-0.39,0.05c-0.138,0.033-0.265,0.08-0.383,0.142s-0.215,0.142-0.29,0.241
				c-0.076,0.099-0.113,0.21-0.113,0.333c0,0.218,0.144,0.406,0.432,0.566c0.288,0.161,0.701,0.321,1.24,0.482
				c0.35,0.104,0.68,0.236,0.992,0.396c0.313,0.161,0.586,0.348,0.822,0.561c0.236,0.212,0.422,0.453,0.56,0.723
				C1677.325,233.233,1677.395,233.539,1677.395,233.879z"/>
			<path d="M1680.781,226.551h-2.125v-2.126h2.125V226.551z M1680.754,236.175h-2.07v-8.206h2.07V236.175z"/>
			<path d="M1690.151,229.598h-0.865c0.217,0.425,0.326,0.879,0.326,1.36c0,0.368-0.068,0.726-0.205,1.07
				c-0.138,0.345-0.334,0.659-0.589,0.942s-0.564,0.524-0.929,0.723c-0.363,0.198-0.771,0.331-1.226,0.397
				c-0.312,0.047-0.546,0.12-0.702,0.219c-0.155,0.1-0.233,0.199-0.233,0.298c0,0.1,0.078,0.191,0.233,0.276
				c0.156,0.085,0.391,0.142,0.702,0.17c1.058,0.095,1.878,0.359,2.459,0.794s0.872,1.011,0.872,1.729
				c0,0.368-0.09,0.708-0.269,1.021c-0.179,0.312-0.436,0.581-0.77,0.808c-0.335,0.227-0.737,0.401-1.208,0.524
				s-0.998,0.185-1.581,0.185c-0.593,0-1.128-0.062-1.603-0.185c-0.476-0.123-0.883-0.295-1.222-0.518
				c-0.339-0.222-0.598-0.488-0.776-0.801c-0.18-0.312-0.269-0.656-0.269-1.034c0-0.567,0.161-1.042,0.485-1.425
				c0.323-0.383,0.852-0.668,1.582-0.857c-0.227-0.085-0.39-0.2-0.488-0.347c-0.1-0.146-0.145-0.296-0.135-0.447
				c0.01-0.15,0.072-0.295,0.191-0.432c0.117-0.137,0.285-0.243,0.504-0.319c-0.248-0.113-0.483-0.26-0.707-0.439
				c-0.224-0.179-0.426-0.387-0.606-0.623s-0.323-0.501-0.429-0.794c-0.104-0.293-0.156-0.604-0.156-0.936
				c0-0.444,0.094-0.859,0.283-1.247s0.443-0.726,0.766-1.014c0.32-0.288,0.694-0.515,1.119-0.68
				c0.426-0.166,0.874-0.248,1.347-0.248c0.463,0,0.894,0.07,1.29,0.212h2.807V229.598z M1687.953,237.578
				c0-0.331-0.168-0.572-0.502-0.723c-0.334-0.151-0.764-0.228-1.291-0.228c-0.564,0-1.01,0.081-1.334,0.241
				c-0.325,0.161-0.487,0.397-0.487,0.709c0,0.321,0.169,0.562,0.509,0.723c0.338,0.16,0.775,0.241,1.313,0.241
				c0.545,0,0.98-0.078,1.306-0.234C1687.791,238.152,1687.953,237.908,1687.953,237.578z M1687.571,230.959
				c0-0.208-0.04-0.401-0.119-0.581c-0.08-0.18-0.188-0.338-0.323-0.475s-0.295-0.246-0.478-0.326
				c-0.182-0.08-0.377-0.12-0.582-0.12c-0.207,0-0.398,0.04-0.576,0.12s-0.334,0.189-0.471,0.326
				c-0.135,0.137-0.242,0.295-0.322,0.475s-0.119,0.373-0.119,0.581s0.039,0.404,0.119,0.588c0.08,0.185,0.188,0.346,0.322,0.482
				c0.137,0.137,0.293,0.246,0.471,0.326s0.369,0.12,0.576,0.12c0.205,0,0.4-0.04,0.582-0.12c0.183-0.08,0.342-0.189,0.478-0.326
				s0.243-0.298,0.323-0.482C1687.531,231.363,1687.571,231.167,1687.571,230.959z"/>
			<path d="M1698.598,236.175h-2.041v-4.89c0-0.293-0.046-0.551-0.136-0.772c-0.091-0.222-0.212-0.406-0.363-0.553
				s-0.325-0.255-0.52-0.326c-0.194-0.07-0.396-0.106-0.604-0.106c-0.313,0-0.621,0.055-0.926,0.163
				c-0.303,0.108-0.578,0.281-0.825,0.518v5.967h-2.04v-8.192h2.04l0.015,0.609c0.123-0.122,0.273-0.235,0.453-0.34
				c0.18-0.104,0.366-0.191,0.561-0.262c0.193-0.071,0.392-0.126,0.595-0.163c0.203-0.038,0.399-0.057,0.589-0.057
				c0.415,0,0.814,0.065,1.197,0.198c0.383,0.132,0.723,0.335,1.02,0.609c0.299,0.274,0.537,0.628,0.717,1.063s0.27,0.95,0.27,1.545
				V236.175z"/>
			<path d="M1708.617,232.064c0,0.133-0.007,0.27-0.021,0.411c-0.014,0.142-0.03,0.288-0.049,0.439h-6.549
				c0.076,0.236,0.182,0.461,0.319,0.673c0.137,0.213,0.305,0.397,0.503,0.553c0.199,0.156,0.423,0.279,0.674,0.369
				c0.25,0.09,0.526,0.135,0.828,0.135c0.369,0,0.738-0.064,1.106-0.191c0.368-0.128,0.675-0.3,0.921-0.518l1.29,1.29
				c-0.567,0.425-1.122,0.725-1.665,0.899c-0.544,0.175-1.118,0.263-1.723,0.263c-0.614,0-1.188-0.113-1.722-0.341
				c-0.534-0.227-0.997-0.533-1.39-0.921c-0.392-0.388-0.701-0.844-0.928-1.368s-0.34-1.084-0.34-1.679
				c0-0.596,0.113-1.155,0.34-1.68s0.539-0.98,0.936-1.368c0.396-0.387,0.859-0.694,1.389-0.921s1.096-0.34,1.701-0.34
				c0.576,0,1.129,0.105,1.658,0.318s0.996,0.508,1.402,0.886s0.729,0.829,0.965,1.354
				C1708.499,230.852,1708.617,231.431,1708.617,232.064z M1706.478,231.27c-0.161-0.52-0.446-0.938-0.858-1.254
				c-0.41-0.316-0.876-0.475-1.396-0.475c-0.511,0-0.969,0.158-1.374,0.475c-0.407,0.316-0.69,0.734-0.852,1.254H1706.478z"/>
			<path d="M1717.49,236.175h-2.084v-0.425c-0.265,0.217-0.553,0.375-0.865,0.475c-0.311,0.099-0.643,0.148-0.992,0.148
				c-0.576,0-1.105-0.115-1.586-0.347c-0.482-0.231-0.898-0.544-1.248-0.936c-0.35-0.393-0.621-0.849-0.814-1.368
				c-0.194-0.52-0.291-1.067-0.291-1.644c0-0.614,0.111-1.184,0.333-1.708s0.518-0.98,0.886-1.368
				c0.369-0.387,0.789-0.691,1.262-0.914c0.473-0.222,0.959-0.333,1.459-0.333c0.35,0,0.69,0.048,1.021,0.142
				c0.33,0.095,0.613,0.227,0.85,0.397v-3.884h2.07V236.175z M1715.435,233.977v-3.939c-0.095-0.066-0.204-0.13-0.327-0.191
				s-0.252-0.113-0.385-0.156c-0.133-0.042-0.266-0.075-0.398-0.099s-0.25-0.036-0.355-0.036c-0.341,0-0.651,0.06-0.932,0.178
				c-0.279,0.118-0.523,0.288-0.732,0.51c-0.209,0.223-0.369,0.489-0.483,0.801s-0.171,0.657-0.171,1.035
				c0,0.368,0.057,0.706,0.171,1.013c0.114,0.308,0.271,0.572,0.47,0.794c0.199,0.223,0.438,0.395,0.718,0.518
				s0.586,0.185,0.917,0.185C1714.467,234.588,1714.97,234.385,1715.435,233.977z"/>
			<path d="M1731.535,232.079c0,0.576-0.098,1.124-0.291,1.644c-0.195,0.52-0.467,0.976-0.817,1.368
				c-0.351,0.392-0.768,0.704-1.251,0.936c-0.482,0.231-1.014,0.347-1.59,0.347c-0.361,0-0.697-0.05-1.01-0.148
				c-0.313-0.1-0.605-0.258-0.881-0.475v0.425h-2.041v-11.764h2.055l0.016,3.969c0.235-0.189,0.517-0.341,0.843-0.454
				c0.325-0.113,0.668-0.17,1.027-0.17c0.501,0,0.987,0.111,1.46,0.333c0.473,0.223,0.893,0.527,1.262,0.914
				c0.368,0.388,0.663,0.844,0.885,1.368C1731.424,230.895,1731.535,231.465,1731.535,232.079z M1729.466,232.079
				c0-0.378-0.058-0.724-0.171-1.035s-0.273-0.578-0.477-0.801c-0.204-0.222-0.445-0.392-0.726-0.51s-0.591-0.178-0.932-0.178
				c-0.219,0-0.47,0.045-0.755,0.135c-0.284,0.09-0.521,0.206-0.711,0.348v3.939c0.445,0.407,0.949,0.61,1.508,0.61
				c0.322,0,0.624-0.062,0.904-0.185c0.279-0.123,0.519-0.295,0.718-0.518c0.199-0.222,0.356-0.486,0.47-0.794
				C1729.408,232.785,1729.466,232.447,1729.466,232.079z"/>
			<path d="M1740.252,227.969l-3.686,9.736c-0.274,0.728-0.633,1.252-1.077,1.573s-0.974,0.482-1.587,0.482
				c-0.096,0-0.199-0.007-0.313-0.021c-0.113-0.014-0.223-0.035-0.326-0.063l-0.68-1.899c0.16,0.075,0.326,0.135,0.496,0.177
				c0.17,0.043,0.33,0.064,0.481,0.064c0.321,0,0.614-0.073,0.879-0.22s0.468-0.418,0.609-0.815l0.283-0.822l-3.161-8.191h2.227
				l1.885,5.272l1.771-5.272H1740.252z"/>
			<path d="M1752.171,232.376c0,0.766-0.135,1.403-0.403,1.914c-0.27,0.51-0.598,0.921-0.986,1.232
				c-0.387,0.313-0.801,0.534-1.24,0.667c-0.438,0.132-0.834,0.198-1.183,0.198c-0.643,0-1.255-0.151-1.835-0.454
				c-0.582-0.302-1.066-0.703-1.453-1.204l1.445-1.432c0.189,0.303,0.435,0.538,0.737,0.708c0.302,0.171,0.614,0.256,0.935,0.256
				c0.218,0,0.431-0.04,0.639-0.121c0.207-0.08,0.395-0.195,0.56-0.347s0.298-0.336,0.397-0.553
				c0.099-0.218,0.148-0.468,0.148-0.751v-7.64h2.239V232.376z"/>
			<path d="M1760.519,236.175h-2.041v-0.439c-0.358,0.246-0.739,0.416-1.141,0.511c-0.401,0.094-0.815,0.142-1.24,0.142
				c-0.397,0-0.757-0.06-1.077-0.178c-0.321-0.118-0.6-0.288-0.836-0.51s-0.418-0.484-0.546-0.787
				c-0.128-0.302-0.191-0.638-0.191-1.006c0-0.463,0.102-0.867,0.305-1.212s0.479-0.633,0.829-0.864s0.758-0.404,1.227-0.518
				c0.467-0.113,0.971-0.17,1.509-0.17h1.177c0-0.482-0.156-0.865-0.469-1.148c-0.311-0.283-0.76-0.425-1.346-0.425
				c-0.283,0-0.576,0.052-0.879,0.155c-0.303,0.104-0.604,0.293-0.906,0.567l-1.205-1.219c0.434-0.416,0.938-0.737,1.51-0.964
				c0.57-0.227,1.159-0.34,1.764-0.34c0.566,0,1.072,0.09,1.515,0.269c0.442,0.18,0.8,0.411,1.071,0.694
				c0.357,0.359,0.607,0.761,0.754,1.205c0.145,0.444,0.218,1.012,0.218,1.701V236.175z M1758.478,234.134v-1.517h-0.935
				c-0.284,0-0.551,0.02-0.801,0.057c-0.251,0.038-0.469,0.102-0.652,0.191c-0.185,0.09-0.331,0.206-0.439,0.348
				c-0.109,0.142-0.163,0.312-0.163,0.51c0,0.283,0.11,0.516,0.333,0.694c0.222,0.18,0.508,0.27,0.857,0.27
				c0.303,0,0.603-0.047,0.9-0.142C1757.875,234.45,1758.176,234.313,1758.478,234.134z"/>
			<path d="M1769.477,234.941c-0.416,0.473-0.918,0.832-1.503,1.077c-0.586,0.246-1.2,0.369-1.843,0.369
				c-0.596,0-1.157-0.109-1.686-0.326c-0.529-0.218-0.988-0.518-1.377-0.9c-0.391-0.383-0.697-0.838-0.922-1.367
				c-0.227-0.529-0.338-1.101-0.338-1.715c0-0.604,0.111-1.17,0.338-1.694c0.225-0.524,0.529-0.979,0.914-1.367
				s0.842-0.692,1.37-0.914c0.528-0.223,1.096-0.333,1.7-0.333c0.623,0,1.217,0.113,1.779,0.34c0.562,0.227,1.051,0.571,1.467,1.034
				l-1.375,1.403c-0.208-0.273-0.461-0.501-0.758-0.68c-0.299-0.18-0.66-0.27-1.085-0.27c-0.312,0-0.606,0.066-0.886,0.198
				c-0.279,0.133-0.524,0.31-0.736,0.531c-0.213,0.223-0.381,0.484-0.504,0.787s-0.184,0.623-0.184,0.964
				c0,0.34,0.061,0.661,0.184,0.964c0.123,0.302,0.288,0.564,0.496,0.786s0.453,0.399,0.737,0.531
				c0.283,0.133,0.581,0.198,0.893,0.198c0.406,0,0.774-0.097,1.105-0.29s0.595-0.441,0.794-0.744L1769.477,234.941z"/>
			<path d="M1778.278,236.175h-2.424l-3.287-3.671v3.671h-2.084v-11.75h2.084v7.03l2.862-3.473h2.381l-3.358,3.983L1778.278,236.175
				z"/>
			<path d="M1789.631,234.134c-0.567,0.689-1.255,1.238-2.063,1.645c-0.809,0.406-1.699,0.609-2.672,0.609
				c-0.842,0-1.63-0.154-2.367-0.461c-0.736-0.307-1.379-0.725-1.924-1.254s-0.975-1.15-1.289-1.864
				c-0.314-0.713-0.473-1.481-0.473-2.303c0-0.822,0.158-1.59,0.473-2.304c0.314-0.713,0.744-1.337,1.289-1.871
				c0.545-0.533,1.188-0.951,1.924-1.254c0.737-0.303,1.525-0.453,2.367-0.453c0.973,0,1.863,0.203,2.672,0.609
				c0.808,0.406,1.48,0.936,2.02,1.587l-1.517,1.56c-0.35-0.501-0.801-0.905-1.354-1.212c-0.553-0.308-1.16-0.461-1.821-0.461
				c-0.529,0-1.027,0.102-1.496,0.305c-0.467,0.203-0.876,0.478-1.225,0.822c-0.351,0.345-0.627,0.746-0.83,1.205
				c-0.203,0.458-0.305,0.947-0.305,1.467c0,0.51,0.102,0.994,0.305,1.452c0.203,0.459,0.479,0.86,0.83,1.205
				c0.349,0.345,0.758,0.619,1.225,0.822c0.469,0.203,0.967,0.305,1.496,0.305c0.699,0,1.318-0.158,1.856-0.475
				c0.538-0.317,0.987-0.735,1.347-1.255L1789.631,234.134z"/>
			<path d="M1797.143,236.175h-2.041v-0.439c-0.359,0.246-0.74,0.416-1.141,0.511c-0.402,0.094-0.815,0.142-1.24,0.142
				c-0.397,0-0.757-0.06-1.078-0.178c-0.32-0.118-0.6-0.288-0.836-0.51s-0.418-0.484-0.545-0.787
				c-0.129-0.302-0.191-0.638-0.191-1.006c0-0.463,0.102-0.867,0.305-1.212s0.479-0.633,0.828-0.864s0.759-0.404,1.227-0.518
				s0.971-0.17,1.51-0.17h1.176c0-0.482-0.156-0.865-0.468-1.148s-0.761-0.425-1.347-0.425c-0.283,0-0.576,0.052-0.879,0.155
				c-0.302,0.104-0.604,0.293-0.906,0.567l-1.205-1.219c0.435-0.416,0.938-0.737,1.51-0.964c0.571-0.227,1.16-0.34,1.764-0.34
				c0.567,0,1.072,0.09,1.516,0.269c0.441,0.18,0.799,0.411,1.071,0.694c0.356,0.359,0.607,0.761,0.753,1.205
				s0.219,1.012,0.219,1.701V236.175z M1795.102,234.134v-1.517h-0.936c-0.283,0-0.551,0.02-0.801,0.057
				c-0.25,0.038-0.468,0.102-0.652,0.191c-0.184,0.09-0.33,0.206-0.439,0.348c-0.108,0.142-0.162,0.312-0.162,0.51
				c0,0.283,0.11,0.516,0.332,0.694c0.223,0.18,0.508,0.27,0.857,0.27c0.303,0,0.604-0.047,0.9-0.142
				C1794.499,234.45,1794.799,234.313,1795.102,234.134z"/>
			<path d="M1804.598,228.833l-1.092,1.729c-0.199-0.218-0.418-0.409-0.659-0.574s-0.484-0.248-0.729-0.248
				c-0.133,0-0.277,0.03-0.433,0.092c-0.156,0.062-0.303,0.163-0.439,0.305c-0.138,0.142-0.253,0.329-0.347,0.561
				c-0.096,0.231-0.143,0.517-0.143,0.857v4.62h-2.041v-8.192h2.041v0.879c0.246-0.35,0.518-0.618,0.814-0.808
				c0.299-0.189,0.631-0.283,1-0.283c0.359,0,0.711,0.097,1.056,0.29C1803.971,228.255,1804.295,228.511,1804.598,228.833z"/>
			<path d="M1809.883,235.99c-0.207,0.133-0.448,0.231-0.723,0.298c-0.273,0.066-0.548,0.1-0.822,0.1
				c-0.481,0-0.888-0.06-1.219-0.178c-0.33-0.118-0.595-0.3-0.793-0.545c-0.199-0.246-0.343-0.558-0.433-0.936
				s-0.135-0.822-0.135-1.333v-3.585h-1.077v-0.922c0.662-0.273,1.197-0.681,1.609-1.219c0.41-0.539,0.691-1.237,0.843-2.098h0.666
				v2.396h2.069v1.843h-2.069v3.728c0,0.207,0.026,0.378,0.078,0.51c0.052,0.133,0.12,0.236,0.206,0.312
				c0.084,0.076,0.182,0.128,0.29,0.156s0.224,0.042,0.347,0.042c0.161,0,0.355-0.028,0.582-0.085s0.42-0.15,0.58-0.283V235.99z"/>
			<path d="M1819.549,232.064c0,0.133-0.007,0.27-0.021,0.411c-0.014,0.142-0.03,0.288-0.049,0.439h-6.549
				c0.076,0.236,0.182,0.461,0.319,0.673c0.137,0.213,0.305,0.397,0.503,0.553c0.199,0.156,0.423,0.279,0.674,0.369
				c0.25,0.09,0.526,0.135,0.828,0.135c0.369,0,0.738-0.064,1.106-0.191c0.368-0.128,0.675-0.3,0.921-0.518l1.29,1.29
				c-0.567,0.425-1.122,0.725-1.665,0.899c-0.544,0.175-1.118,0.263-1.723,0.263c-0.614,0-1.188-0.113-1.722-0.341
				c-0.534-0.227-0.997-0.533-1.39-0.921c-0.392-0.388-0.701-0.844-0.928-1.368s-0.34-1.084-0.34-1.679
				c0-0.596,0.113-1.155,0.34-1.68s0.539-0.98,0.936-1.368c0.396-0.387,0.859-0.694,1.389-0.921s1.096-0.34,1.701-0.34
				c0.576,0,1.129,0.105,1.658,0.318s0.996,0.508,1.402,0.886s0.729,0.829,0.965,1.354
				C1819.431,230.852,1819.549,231.431,1819.549,232.064z M1817.409,231.27c-0.161-0.52-0.446-0.938-0.858-1.254
				c-0.41-0.316-0.876-0.475-1.396-0.475c-0.511,0-0.969,0.158-1.374,0.475c-0.407,0.316-0.69,0.734-0.852,1.254H1817.409z"/>
			<path d="M1826.707,228.833l-1.092,1.729c-0.198-0.218-0.418-0.409-0.658-0.574c-0.242-0.165-0.484-0.248-0.73-0.248
				c-0.133,0-0.276,0.03-0.432,0.092c-0.156,0.062-0.303,0.163-0.439,0.305c-0.138,0.142-0.254,0.329-0.348,0.561
				c-0.095,0.231-0.143,0.517-0.143,0.857v4.62h-2.04v-8.192h2.04v0.879c0.246-0.35,0.518-0.618,0.815-0.808
				s0.631-0.283,0.999-0.283c0.359,0,0.711,0.097,1.057,0.29C1826.081,228.255,1826.405,228.511,1826.707,228.833z"/>
		</g>
		<g enable-background="new    ">
			<path d="M1648.936,252.998c-0.208,0.133-0.449,0.231-0.723,0.298c-0.274,0.066-0.549,0.1-0.822,0.1
				c-0.482,0-0.889-0.06-1.219-0.178c-0.331-0.118-0.596-0.3-0.794-0.545c-0.198-0.246-0.343-0.558-0.433-0.936
				s-0.135-0.822-0.135-1.333v-3.585h-1.076v-0.922c0.661-0.273,1.197-0.681,1.608-1.219c0.411-0.539,0.692-1.237,0.843-2.098h0.666
				v2.396h2.07v1.843h-2.07v3.728c0,0.207,0.026,0.378,0.078,0.51c0.053,0.133,0.121,0.236,0.206,0.312
				c0.085,0.076,0.182,0.128,0.29,0.156c0.109,0.028,0.225,0.042,0.348,0.042c0.16,0,0.354-0.028,0.581-0.085
				c0.228-0.057,0.421-0.15,0.581-0.283V252.998z"/>
			<path d="M1658.602,249.087c0,0.614-0.113,1.184-0.34,1.707c-0.227,0.524-0.539,0.979-0.936,1.361s-0.862,0.685-1.396,0.907
				c-0.533,0.222-1.104,0.333-1.707,0.333c-0.605,0-1.172-0.111-1.701-0.333c-0.529-0.223-0.992-0.527-1.389-0.914
				c-0.396-0.388-0.709-0.844-0.936-1.368s-0.34-1.089-0.34-1.693c0-0.596,0.115-1.155,0.347-1.68s0.546-0.982,0.942-1.375
				c0.396-0.392,0.859-0.699,1.389-0.921c0.529-0.223,1.092-0.333,1.688-0.333c0.604,0,1.174,0.11,1.707,0.333
				c0.534,0.222,1,0.524,1.396,0.906c0.396,0.383,0.709,0.839,0.936,1.368S1658.602,248.482,1658.602,249.087z M1656.561,249.087
				c0-0.35-0.061-0.676-0.184-0.979c-0.123-0.302-0.289-0.566-0.502-0.794c-0.211-0.227-0.459-0.403-0.741-0.531
				c-0.282-0.127-0.584-0.191-0.904-0.191s-0.622,0.064-0.904,0.191c-0.282,0.128-0.53,0.305-0.742,0.531
				c-0.212,0.228-0.379,0.492-0.501,0.794c-0.123,0.303-0.184,0.629-0.184,0.979s0.061,0.676,0.184,0.978
				c0.122,0.303,0.289,0.567,0.501,0.794s0.46,0.403,0.742,0.531s0.584,0.191,0.904,0.191s0.622-0.063,0.904-0.191
				s0.53-0.305,0.741-0.531c0.213-0.227,0.379-0.491,0.502-0.794C1656.5,249.762,1656.561,249.436,1656.561,249.087z"/>
			<path d="M1672.222,249.087c0,0.576-0.097,1.124-0.291,1.644s-0.467,0.976-0.817,1.368c-0.35,0.392-0.768,0.704-1.25,0.936
				s-1.014,0.347-1.591,0.347c-0.36,0-0.696-0.05-1.009-0.148c-0.313-0.1-0.606-0.258-0.881-0.475v0.425h-2.041v-11.764h2.055
				l0.015,3.969c0.235-0.189,0.517-0.341,0.843-0.454s0.668-0.17,1.027-0.17c0.501,0,0.988,0.111,1.461,0.333
				c0.472,0.223,0.893,0.527,1.261,0.914c0.368,0.388,0.663,0.844,0.886,1.368S1672.222,248.472,1672.222,249.087z
				 M1670.153,249.087c0-0.378-0.057-0.724-0.17-1.035c-0.114-0.312-0.273-0.578-0.477-0.801c-0.205-0.222-0.446-0.392-0.727-0.51
				c-0.279-0.118-0.59-0.178-0.932-0.178c-0.219,0-0.469,0.045-0.754,0.135s-0.521,0.206-0.711,0.348v3.939
				c0.445,0.407,0.948,0.61,1.508,0.61c0.322,0,0.623-0.062,0.903-0.185s0.519-0.295,0.718-0.518
				c0.199-0.222,0.356-0.486,0.471-0.794C1670.096,249.793,1670.153,249.455,1670.153,249.087z"/>
			<path d="M1681.959,249.072c0,0.133-0.008,0.27-0.021,0.411s-0.031,0.288-0.05,0.439h-6.548c0.076,0.236,0.182,0.461,0.318,0.673
				c0.137,0.213,0.305,0.397,0.504,0.553c0.198,0.156,0.422,0.279,0.673,0.369s0.526,0.135,0.829,0.135
				c0.369,0,0.737-0.064,1.105-0.191c0.369-0.128,0.676-0.3,0.922-0.518l1.289,1.29c-0.566,0.425-1.121,0.725-1.665,0.899
				s-1.118,0.263-1.722,0.263c-0.615,0-1.188-0.113-1.723-0.341c-0.533-0.227-0.996-0.533-1.389-0.921s-0.701-0.844-0.928-1.368
				c-0.228-0.524-0.341-1.084-0.341-1.679c0-0.596,0.113-1.155,0.341-1.68c0.227-0.524,0.538-0.98,0.935-1.368
				c0.397-0.387,0.86-0.694,1.39-0.921s1.096-0.34,1.7-0.34c0.576,0,1.129,0.105,1.658,0.318s0.997,0.508,1.403,0.886
				s0.728,0.829,0.964,1.354C1681.84,247.86,1681.959,248.439,1681.959,249.072z M1679.819,248.278
				c-0.16-0.52-0.446-0.938-0.857-1.254c-0.41-0.316-0.877-0.475-1.396-0.475c-0.51,0-0.969,0.158-1.374,0.475
				c-0.407,0.316-0.69,0.734-0.851,1.254H1679.819z"/>
			<path d="M1695.083,251.949c-0.416,0.473-0.917,0.832-1.503,1.077c-0.586,0.246-1.199,0.369-1.842,0.369
				c-0.596,0-1.158-0.109-1.687-0.326c-0.528-0.218-0.987-0.518-1.377-0.9s-0.696-0.838-0.922-1.367s-0.338-1.101-0.338-1.715
				c0-0.604,0.112-1.17,0.338-1.694s0.53-0.979,0.915-1.367s0.842-0.692,1.369-0.914c0.529-0.223,1.096-0.333,1.701-0.333
				c0.623,0,1.217,0.113,1.778,0.34s1.052,0.571,1.467,1.034l-1.374,1.403c-0.209-0.273-0.461-0.501-0.759-0.68
				c-0.298-0.18-0.659-0.27-1.085-0.27c-0.311,0-0.606,0.066-0.885,0.198c-0.279,0.133-0.525,0.31-0.737,0.531
				c-0.213,0.223-0.38,0.484-0.503,0.787s-0.185,0.623-0.185,0.964c0,0.34,0.062,0.661,0.185,0.964
				c0.123,0.302,0.287,0.564,0.496,0.786c0.207,0.222,0.453,0.399,0.736,0.531c0.283,0.133,0.582,0.198,0.893,0.198
				c0.406,0,0.775-0.097,1.105-0.29c0.331-0.193,0.596-0.441,0.795-0.744L1695.083,251.949z"/>
			<path d="M1703.346,253.182h-2.041v-0.624c-0.133,0.133-0.285,0.248-0.461,0.348c-0.174,0.1-0.359,0.185-0.553,0.255
				c-0.193,0.071-0.392,0.125-0.595,0.163s-0.395,0.057-0.574,0.057c-0.415,0-0.815-0.066-1.197-0.198
				c-0.383-0.132-0.721-0.335-1.014-0.609s-0.526-0.628-0.702-1.063c-0.174-0.435-0.262-0.949-0.262-1.545v-4.975h2.041v4.876
				c0,0.293,0.045,0.551,0.135,0.772s0.207,0.406,0.354,0.553c0.146,0.146,0.316,0.255,0.511,0.326
				c0.193,0.07,0.394,0.106,0.602,0.106c0.661,0,1.233-0.228,1.715-0.681v-5.953h2.041V253.182z"/>
			<path d="M1709.611,252.998c-0.208,0.133-0.448,0.231-0.723,0.298s-0.548,0.1-0.822,0.1c-0.481,0-0.888-0.06-1.219-0.178
				s-0.595-0.3-0.794-0.545c-0.198-0.246-0.342-0.558-0.432-0.936s-0.135-0.822-0.135-1.333v-3.585h-1.078v-0.922
				c0.662-0.273,1.198-0.681,1.609-1.219c0.411-0.539,0.691-1.237,0.844-2.098h0.666v2.396h2.068v1.843h-2.068v3.728
				c0,0.207,0.025,0.378,0.078,0.51c0.051,0.133,0.12,0.236,0.205,0.312c0.085,0.076,0.182,0.128,0.291,0.156
				c0.107,0.028,0.224,0.042,0.347,0.042c0.161,0,0.354-0.028,0.581-0.085s0.42-0.15,0.581-0.283V252.998z"/>
			<path d="M1717.406,243.558h-2.126v-2.126h2.126V243.558z M1717.377,253.182h-2.069v-8.206h2.069V253.182z"/>
			<path d="M1726.703,253.182h-2.041v-4.89c0-0.293-0.045-0.551-0.135-0.772c-0.091-0.222-0.212-0.406-0.363-0.553
				c-0.152-0.146-0.325-0.255-0.52-0.326c-0.195-0.07-0.396-0.106-0.605-0.106c-0.313,0-0.621,0.055-0.925,0.163
				s-0.579,0.281-0.825,0.518v5.967h-2.041v-8.192h2.041l0.014,0.609c0.123-0.122,0.274-0.235,0.453-0.34
				c0.18-0.104,0.367-0.191,0.561-0.262c0.193-0.071,0.393-0.126,0.596-0.163c0.203-0.038,0.398-0.057,0.588-0.057
				c0.416,0,0.814,0.065,1.197,0.198c0.383,0.132,0.723,0.335,1.021,0.609s0.536,0.628,0.716,1.063s0.27,0.95,0.27,1.545V253.182z"
				/>
			<path d="M1741.244,249.753c0,0.595-0.111,1.122-0.332,1.58c-0.223,0.458-0.521,0.841-0.894,1.148
				c-0.374,0.307-0.811,0.538-1.312,0.694c-0.5,0.155-1.029,0.233-1.587,0.233c-0.974,0-1.843-0.187-2.608-0.56
				c-0.765-0.373-1.455-0.938-2.068-1.693l1.516-1.531c0.17,0.236,0.369,0.459,0.596,0.666c0.227,0.208,0.473,0.39,0.736,0.546
				c0.266,0.156,0.547,0.279,0.844,0.368c0.298,0.09,0.598,0.135,0.9,0.135c0.255,0,0.498-0.035,0.73-0.106
				c0.23-0.07,0.434-0.175,0.609-0.312c0.174-0.137,0.316-0.307,0.425-0.51s0.163-0.442,0.163-0.716c0-0.35-0.1-0.626-0.298-0.829
				s-0.446-0.356-0.744-0.461c-0.298-0.104-0.614-0.168-0.95-0.191c-0.335-0.023-0.635-0.035-0.899-0.035v-1.588
				c0.255,0,0.538-0.014,0.851-0.042c0.312-0.028,0.602-0.093,0.871-0.191c0.27-0.1,0.496-0.248,0.681-0.446
				c0.185-0.199,0.276-0.463,0.276-0.794c0-0.246-0.047-0.458-0.142-0.638s-0.22-0.328-0.376-0.446s-0.336-0.206-0.539-0.263
				s-0.418-0.085-0.645-0.085c-1.152,0-2.055,0.482-2.707,1.445l-1.53-1.517c0.567-0.68,1.179-1.178,1.835-1.495
				c0.656-0.316,1.43-0.475,2.318-0.475c0.472,0,0.949,0.073,1.431,0.22s0.919,0.356,1.312,0.631
				c0.392,0.274,0.711,0.616,0.957,1.027c0.245,0.411,0.367,0.877,0.367,1.396c0,0.265-0.045,0.517-0.134,0.758
				c-0.091,0.241-0.208,0.463-0.354,0.666s-0.321,0.388-0.524,0.553c-0.204,0.166-0.418,0.305-0.646,0.418
				c0.256,0.095,0.496,0.223,0.723,0.383c0.228,0.161,0.426,0.348,0.596,0.561c0.17,0.212,0.305,0.444,0.404,0.694
				S1741.244,249.469,1741.244,249.753z"/>
			<path d="M1755.077,253.182h-2.04v-4.89c0-0.576-0.141-1.014-0.419-1.312c-0.278-0.297-0.621-0.446-1.027-0.446
				c-0.312,0-0.607,0.05-0.886,0.149c-0.279,0.099-0.551,0.262-0.814,0.488c0.084,0.331,0.127,0.704,0.127,1.12v4.89h-2.041v-4.89
				c0-0.576-0.14-1.014-0.418-1.312c-0.279-0.297-0.617-0.446-1.014-0.446c-0.312,0-0.586,0.055-0.822,0.163
				s-0.481,0.281-0.736,0.518v5.967h-2.041v-8.192h2.041l0.002,0.609c0.256-0.245,0.556-0.443,0.9-0.595
				c0.346-0.151,0.698-0.227,1.059-0.227c0.396,0,0.797,0.09,1.198,0.269c0.402,0.18,0.755,0.439,1.058,0.78
				c0.426-0.378,0.855-0.647,1.291-0.809c0.436-0.16,0.912-0.24,1.434-0.24c0.426,0,0.83,0.063,1.213,0.191
				c0.383,0.127,0.717,0.33,1,0.609c0.283,0.278,0.511,0.633,0.682,1.063c0.17,0.43,0.255,0.947,0.255,1.552V253.182z"/>
			<path d="M1768.754,253.182h-2.041v-4.89c0-0.576-0.139-1.014-0.418-1.312c-0.279-0.297-0.621-0.446-1.027-0.446
				c-0.313,0-0.607,0.05-0.886,0.149c-0.278,0.099-0.551,0.262-0.815,0.488c0.086,0.331,0.128,0.704,0.128,1.12v4.89h-2.041v-4.89
				c0-0.576-0.14-1.014-0.418-1.312c-0.278-0.297-0.616-0.446-1.014-0.446c-0.312,0-0.586,0.055-0.821,0.163
				c-0.236,0.108-0.482,0.281-0.738,0.518v5.967h-2.04v-8.192h2.04l0.003,0.609c0.255-0.245,0.556-0.443,0.901-0.595
				s0.697-0.227,1.057-0.227c0.397,0,0.797,0.09,1.199,0.269c0.402,0.18,0.754,0.439,1.057,0.78
				c0.426-0.378,0.856-0.647,1.292-0.809c0.435-0.16,0.913-0.24,1.433-0.24c0.426,0,0.83,0.063,1.214,0.191
				c0.383,0.127,0.716,0.33,1,0.609c0.284,0.278,0.511,0.633,0.681,1.063c0.171,0.43,0.256,0.947,0.256,1.552V253.182z"/>
			<path d="M1786.896,253.182h-2.04v-4.89c0-0.576-0.141-1.014-0.419-1.312c-0.278-0.297-0.621-0.446-1.027-0.446
				c-0.312,0-0.607,0.05-0.886,0.149c-0.279,0.099-0.551,0.262-0.814,0.488c0.084,0.331,0.127,0.704,0.127,1.12v4.89h-2.041v-4.89
				c0-0.576-0.14-1.014-0.418-1.312c-0.279-0.297-0.617-0.446-1.014-0.446c-0.312,0-0.586,0.055-0.822,0.163
				s-0.481,0.281-0.736,0.518v5.967h-2.041v-8.192h2.041l0.002,0.609c0.256-0.245,0.556-0.443,0.9-0.595
				c0.346-0.151,0.698-0.227,1.059-0.227c0.396,0,0.797,0.09,1.198,0.269c0.402,0.18,0.755,0.439,1.058,0.78
				c0.426-0.378,0.855-0.647,1.291-0.809c0.436-0.16,0.912-0.24,1.434-0.24c0.426,0,0.83,0.063,1.213,0.191
				c0.383,0.127,0.717,0.33,1,0.609c0.283,0.278,0.511,0.633,0.682,1.063c0.17,0.43,0.255,0.947,0.255,1.552V253.182z"/>
			<path d="M1795.088,253.182h-2.041v-0.439c-0.359,0.246-0.739,0.416-1.141,0.511c-0.402,0.094-0.814,0.142-1.24,0.142
				c-0.396,0-0.756-0.06-1.077-0.178s-0.601-0.288-0.837-0.51s-0.418-0.484-0.545-0.787c-0.128-0.302-0.191-0.638-0.191-1.006
				c0-0.463,0.102-0.867,0.305-1.212s0.479-0.633,0.829-0.864s0.759-0.404,1.226-0.518c0.469-0.113,0.971-0.17,1.51-0.17h1.176
				c0-0.482-0.155-0.865-0.467-1.148c-0.313-0.283-0.761-0.425-1.347-0.425c-0.284,0-0.577,0.052-0.879,0.155
				c-0.302,0.104-0.604,0.293-0.907,0.567l-1.205-1.219c0.436-0.416,0.938-0.737,1.51-0.964c0.572-0.227,1.16-0.34,1.765-0.34
				c0.567,0,1.071,0.09,1.515,0.269c0.442,0.18,0.8,0.411,1.072,0.694c0.356,0.359,0.607,0.761,0.752,1.205
				c0.146,0.444,0.219,1.012,0.219,1.701V253.182z M1793.047,251.141v-1.517h-0.936c-0.283,0-0.551,0.02-0.801,0.057
				c-0.25,0.038-0.467,0.102-0.652,0.191c-0.184,0.09-0.33,0.206-0.439,0.348c-0.107,0.142-0.162,0.312-0.162,0.51
				c0,0.283,0.111,0.516,0.333,0.694c0.222,0.18,0.508,0.27,0.857,0.27c0.302,0,0.603-0.047,0.899-0.142
				C1792.446,251.458,1792.744,251.321,1793.047,251.141z"/>
			<path d="M1801.225,252.998c-0.208,0.133-0.449,0.231-0.723,0.298c-0.274,0.066-0.549,0.1-0.822,0.1
				c-0.482,0-0.889-0.06-1.219-0.178c-0.331-0.118-0.596-0.3-0.794-0.545c-0.198-0.246-0.343-0.558-0.433-0.936
				s-0.135-0.822-0.135-1.333v-3.585h-1.076v-0.922c0.661-0.273,1.197-0.681,1.608-1.219c0.411-0.539,0.692-1.237,0.843-2.098h0.666
				v2.396h2.07v1.843h-2.07v3.728c0,0.207,0.026,0.378,0.078,0.51c0.053,0.133,0.121,0.236,0.206,0.312
				c0.085,0.076,0.182,0.128,0.29,0.156c0.109,0.028,0.225,0.042,0.348,0.042c0.16,0,0.354-0.028,0.581-0.085
				c0.228-0.057,0.421-0.15,0.581-0.283V252.998z"/>
			<path d="M1810.891,249.072c0,0.133-0.008,0.27-0.021,0.411s-0.031,0.288-0.05,0.439h-6.548c0.076,0.236,0.182,0.461,0.318,0.673
				c0.137,0.213,0.305,0.397,0.504,0.553c0.198,0.156,0.422,0.279,0.673,0.369s0.526,0.135,0.829,0.135
				c0.369,0,0.737-0.064,1.105-0.191c0.369-0.128,0.676-0.3,0.922-0.518l1.289,1.29c-0.566,0.425-1.121,0.725-1.665,0.899
				s-1.118,0.263-1.722,0.263c-0.615,0-1.188-0.113-1.723-0.341c-0.533-0.227-0.996-0.533-1.389-0.921s-0.701-0.844-0.928-1.368
				c-0.228-0.524-0.341-1.084-0.341-1.679c0-0.596,0.113-1.155,0.341-1.68c0.227-0.524,0.538-0.98,0.935-1.368
				c0.397-0.387,0.86-0.694,1.39-0.921s1.096-0.34,1.7-0.34c0.576,0,1.129,0.105,1.658,0.318s0.997,0.508,1.403,0.886
				s0.728,0.829,0.964,1.354C1810.772,247.86,1810.891,248.439,1810.891,249.072z M1808.75,248.278
				c-0.16-0.52-0.446-0.938-0.857-1.254c-0.41-0.316-0.877-0.475-1.396-0.475c-0.51,0-0.969,0.158-1.374,0.475
				c-0.407,0.316-0.69,0.734-0.851,1.254H1808.75z"/>
			<path d="M1818.049,245.841l-1.092,1.729c-0.199-0.218-0.418-0.409-0.659-0.574s-0.484-0.248-0.729-0.248
				c-0.133,0-0.277,0.03-0.433,0.092c-0.156,0.062-0.303,0.163-0.439,0.305c-0.138,0.142-0.253,0.329-0.347,0.561
				c-0.096,0.231-0.143,0.517-0.143,0.857v4.62h-2.041v-8.192h2.041v0.879c0.246-0.35,0.518-0.618,0.814-0.808
				c0.299-0.189,0.631-0.283,1-0.283c0.359,0,0.711,0.097,1.056,0.29C1817.422,245.262,1817.746,245.519,1818.049,245.841z"/>
			<path d="M1820.897,243.558h-2.125v-2.126h2.125V243.558z M1820.869,253.182h-2.07v-8.206h2.07V253.182z"/>
			<path d="M1829.387,253.182h-2.041v-0.439c-0.359,0.246-0.74,0.416-1.141,0.511c-0.402,0.094-0.815,0.142-1.24,0.142
				c-0.397,0-0.757-0.06-1.078-0.178c-0.32-0.118-0.6-0.288-0.836-0.51s-0.418-0.484-0.545-0.787
				c-0.129-0.302-0.191-0.638-0.191-1.006c0-0.463,0.102-0.867,0.305-1.212s0.479-0.633,0.828-0.864s0.759-0.404,1.227-0.518
				s0.971-0.17,1.51-0.17h1.176c0-0.482-0.156-0.865-0.468-1.148s-0.761-0.425-1.347-0.425c-0.283,0-0.576,0.052-0.879,0.155
				c-0.302,0.104-0.604,0.293-0.906,0.567l-1.205-1.219c0.435-0.416,0.938-0.737,1.51-0.964c0.571-0.227,1.16-0.34,1.764-0.34
				c0.567,0,1.072,0.09,1.516,0.269c0.441,0.18,0.799,0.411,1.071,0.694c0.356,0.359,0.607,0.761,0.753,1.205
				s0.219,1.012,0.219,1.701V253.182z M1827.346,251.141v-1.517h-0.936c-0.283,0-0.551,0.02-0.801,0.057
				c-0.25,0.038-0.468,0.102-0.652,0.191c-0.184,0.09-0.33,0.206-0.439,0.348c-0.108,0.142-0.162,0.312-0.162,0.51
				c0,0.283,0.11,0.516,0.332,0.694c0.223,0.18,0.508,0.27,0.857,0.27c0.303,0,0.604-0.047,0.9-0.142
				C1826.743,251.458,1827.043,251.321,1827.346,251.141z"/>
			<path d="M1834.418,253.139c-0.161,0.076-0.344,0.138-0.546,0.185c-0.204,0.047-0.413,0.071-0.631,0.071
				c-0.303,0-0.593-0.041-0.872-0.121c-0.278-0.08-0.521-0.21-0.729-0.39c-0.208-0.179-0.374-0.413-0.496-0.701
				c-0.123-0.288-0.185-0.636-0.185-1.042v-9.723h2.084v9.368c0,0.341,0.068,0.574,0.205,0.702c0.137,0.127,0.301,0.191,0.489,0.191
				c0.235,0,0.463-0.071,0.681-0.213V253.139z"/>
		</g>
	</g>
</g>
</svg>
