<?xml version="1.0" encoding="utf-8"?>
<!-- Generator: Adobe Illustrator 16.0.0, SVG Export Plug-In . SVG Version: 6.00 Build 0)  -->
<!DOCTYPE svg PUBLIC "-//W3C//DTD SVG 1.1//EN" "http://www.w3.org/Graphics/SVG/1.1/DTD/svg11.dtd">
<svg version="1.1" id="Layer_1" xmlns="http://www.w3.org/2000/svg" xmlns:xlink="http://www.w3.org/1999/xlink" x="0px" y="0px"
	 width="4975px" height="624px" viewBox="0 0 4975 624" enable-background="new 0 0 4975 624" xml:space="preserve">
<path fill="none" stroke="#000000" stroke-width="2.8346" stroke-miterlimit="10" d="M1607.149,198.164
	c-7.941,0.802-16.197-1.162-23.162-6.225c-14.584-10.592-18.121-30.688-8.369-45.609c-46.707-59.48-119.273-97.696-200.768-97.696
	c-9.689,0-19.242,0.562-28.65,1.612c-1.695,7.782-6.111,15.005-13.064,20.055c-14.6,10.606-34.834,7.743-46.002-6.186
	c-82.15,30.078-144.52,101.199-162.277,188.525c6.896,4.019,12.416,10.459,15.076,18.646c5.568,17.131-3.369,35.456-20.012,41.81
	c3.28,91.2,54.424,170.188,129.076,212.611c5.949-5.311,13.771-8.563,22.379-8.563c18.043,0,32.727,14.207,33.582,32.037
	c22.211,6.313,45.657,9.691,69.891,9.691c66.363,0,126.803-25.346,172.184-66.875c-3.195-7.295-3.865-15.725-1.215-23.893
	c5.57-17.146,23.598-26.719,40.807-22.051c27.369-40.649,43.344-89.608,43.344-142.299
	C1629.963,266.094,1621.797,230.342,1607.149,198.164z M1438.638,98.07c1.252-1.707,3.648-2.08,5.357-0.828
	c1.707,1.248,2.078,3.648,0.828,5.356s-3.646,2.079-5.354,0.829C1437.761,102.177,1437.388,99.779,1438.638,98.07z
	 M1204.196,431.388c-1.252,1.709-3.648,2.08-5.355,0.83c-1.709-1.25-2.08-3.648-0.83-5.357s3.646-2.08,5.355-0.83
	S1205.446,429.681,1204.196,431.388z M1205.071,179.58c-1.25,1.709-3.648,2.08-5.355,0.83c-1.709-1.25-2.08-3.648-0.83-5.355
	c1.252-1.709,3.646-2.08,5.355-0.83S1206.321,177.871,1205.071,179.58z M1443.407,510.037c-1.25,1.709-3.648,2.08-5.355,0.83
	c-1.709-1.252-2.08-3.648-0.83-5.357s3.646-2.08,5.355-0.83C1444.287,505.928,1444.657,508.328,1443.407,510.037z M1374.942,447.219
	c-79.236,0-143.467-64.23-143.467-143.465c0-79.236,64.229-143.471,143.467-143.471c79.234,0,143.469,64.232,143.469,143.471
	C1518.409,382.988,1454.177,447.219,1374.942,447.219z M1592.128,306.835c-1.25,1.709-3.65,2.078-5.357,0.827
	c-1.709-1.25-2.08-3.646-0.828-5.354c1.25-1.709,3.646-2.08,5.355-0.83S1593.378,305.125,1592.128,306.835z"/>
<path fill="none" stroke="#000000" stroke-width="2.8346" stroke-miterlimit="10" d="M274.363,45.234
	c-142.548,0-258.52,115.971-258.52,258.521c0,142.547,115.972,258.518,258.52,258.518c142.551,0,258.521-115.971,258.521-258.518
	C532.884,161.205,416.912,45.234,274.363,45.234z M515.395,317.927l-8.506-0.001l0.001-28.348l8.504,0.002L515.395,317.927z
	 M499.218,215.792l8.76,26.958l-8.089,2.628l-8.759-26.959L499.218,215.792z M481.812,236.344c0.322,0.994,0.238,2.057-0.236,2.987
	c-0.48,0.946-1.271,1.62-2.286,1.949c-0.394,0.128-0.8,0.193-1.209,0.193c-1.698,0-3.194-1.087-3.722-2.704
	c-0.666-2.059,0.462-4.273,2.51-4.939c0.4-0.13,0.812-0.193,1.217-0.193C479.785,233.636,481.283,234.724,481.812,236.344z
	 M461.031,150.615l16.661,22.932l-6.881,4.998l-16.661-22.934L461.031,150.615z M274.363,491.181
	c-103.348,0-187.428-84.08-187.428-187.428c0-103.352,84.08-187.432,187.428-187.432c103.352,0,187.432,84.08,187.432,187.432
	C461.791,407.101,377.712,491.181,274.363,491.181z M345.258,509.894c-22.837,7.838-46.75,11.813-71.073,11.813
	c-24.06,0-47.648-3.891-70.117-11.563c-2.217-0.758-3.402-3.178-2.646-5.393c0.59-1.725,2.204-2.883,4.02-2.883
	c0.46,0,0.922,0.078,1.374,0.232c21.601,7.377,44.269,11.117,67.374,11.117c23.366,0,46.352-3.822,68.313-11.359
	c0.451-0.154,0.916-0.23,1.381-0.23c0.791,0,1.567,0.225,2.256,0.65c0.843,0.525,1.436,1.271,1.76,2.217
	C348.655,506.714,347.47,509.135,345.258,509.894z M270.447,89.548c0-2.16,1.756-3.919,3.908-3.919h0.012
	c2.158,0,3.914,1.76,3.914,3.919s-1.758,3.918-3.91,3.918C272.207,93.464,270.447,91.707,270.447,89.548z M404.575,100.425
	l22.932,16.662l-4.999,6.879l-22.933-16.66L404.575,100.425z M335.371,70.14l26.958,8.76l-2.629,8.088l-26.959-8.76L335.371,70.14z
	 M332.875,98.119c0.551-1.795,2.182-3.001,4.057-3.001c0.42,0,0.84,0.063,1.249,0.188c46.134,14.152,86.751,43.555,114.372,82.788
	c1.349,1.915,0.888,4.567-1.023,5.917c-0.724,0.508-1.565,0.774-2.439,0.774c-1.388,0-2.688-0.673-3.48-1.8
	c-26.537-37.697-65.571-65.951-109.918-79.562c-1.226-0.375-2.206-1.275-2.689-2.477C332.623,100.029,332.582,99.076,332.875,98.119
	z M260.191,62.724h28.348v8.504h-28.348V62.724z M213.362,70.142l2.628,8.088l-26.959,8.759l-2.628-8.088L213.362,70.142z
	 M144.158,100.427l4.997,6.879l-22.933,16.662l-4.999-6.883L144.158,100.427z M95.845,178.645
	c27.719-39.503,68.233-69.048,114.079-83.19c0.411-0.127,0.833-0.189,1.253-0.189c1.873,0,3.503,1.205,4.057,2.998
	c0.333,1.081,0.227,2.229-0.307,3.233s-1.418,1.741-2.5,2.075c-44.053,13.59-82.986,41.983-109.629,79.953
	c-0.737,1.051-1.898,1.706-3.181,1.798c-0.104,0.007-0.205,0.011-0.31,0.011c-0.869,0-1.71-0.268-2.43-0.771
	C94.964,183.216,94.5,180.562,95.845,178.645z M87.7,150.615l6.88,4.998l-16.661,22.932l-6.881-4.998L87.7,150.615z M66.917,236.351
	c0.525-1.622,2.023-2.713,3.726-2.713c0.409,0,0.815,0.063,1.214,0.193c0.992,0.322,1.803,1.017,2.277,1.949
	c0.477,0.938,0.561,1.996,0.24,2.984c-0.528,1.623-2.025,2.713-3.727,2.713c-0.41,0-0.818-0.066-1.213-0.193
	C67.381,240.617,66.251,238.404,66.917,236.351z M49.514,215.792l8.087,2.627l-8.759,26.959l-8.089-2.627L49.514,215.792z
	 M33.337,289.58h8.505v28.348l-8.505,0.002V289.58z M49.514,391.716l-8.759-26.959l8.088-2.629l8.76,26.959L49.514,391.716z
	 M87.701,456.892l-16.66-22.934l6.879-4.998l16.662,22.932L87.701,456.892z M107.733,433.353c-0.237,0.965-0.769,1.762-1.567,2.363
	c-0.742,0.559-1.621,0.854-2.543,0.854c-1.354,0-2.594-0.617-3.402-1.697c-29.003-38.564-44.582-86.228-43.867-134.201
	c0.033-2.307,1.938-4.184,4.244-4.184h0.065c2.343,0.035,4.22,1.969,4.185,4.313c-0.691,46.094,14.282,91.896,42.162,128.973
	C107.779,430.798,108.042,432.103,107.733,433.353z M144.16,507.08l-22.934-16.66l4.998-6.883l22.935,16.662L144.16,507.08z
	 M151.632,479.347c-0.734,1.012-1.926,1.615-3.186,1.615c-0.824,0-1.615-0.26-2.286-0.744c-0.851-0.617-1.405-1.525-1.569-2.557
	c-0.166-1.051,0.076-2.061,0.701-2.922c0.733-1.012,1.924-1.613,3.182-1.613c0.824,0,1.617,0.258,2.287,0.742
	C152.51,475.144,152.902,477.601,151.632,479.347z M213.364,537.363l-26.958-8.76l2.629-8.088l26.959,8.76L213.364,537.363z
	 M288.537,544.781H260.19v-8.504h28.348V544.781z M335.365,537.365l-2.627-8.088l26.959-8.76l2.628,8.088L335.365,537.365z
	 M397.102,479.344c-0.623-0.857-0.864-1.865-0.7-2.914c0.167-1.047,0.707-1.934,1.563-2.551c0.68-0.494,1.475-0.756,2.299-0.756
	c1.292,0,2.42,0.574,3.18,1.617c1.27,1.748,0.88,4.201-0.861,5.471c-0.68,0.49-1.475,0.752-2.299,0.752
	C399.027,480.964,397.839,480.357,397.102,479.344z M404.571,507.08l-4.998-6.879l22.935-16.662l4.997,6.883L404.571,507.08z
	 M445.525,436.089c-0.921,0-1.798-0.293-2.535-0.848c-1.875-1.406-2.26-4.075-0.854-5.947
	c27.649-36.889,42.46-82.744,41.698-129.123c-0.021-1.282,0.532-2.495,1.524-3.328c0.754-0.636,1.639-0.969,2.629-0.99h0.1
	c2.301,0,4.201,1.875,4.24,4.178c0.792,48.252-14.618,95.97-43.393,134.361C448.114,435.484,446.904,436.089,445.525,436.089z
	 M461.03,456.892l-6.879-4.998l16.661-22.934l6.879,5L461.03,456.892z M499.217,391.716l-8.088-2.629l8.76-26.958l8.087,2.63
	L499.217,391.716z"/>
<path fill="none" stroke="#000000" stroke-width="2.8346" stroke-miterlimit="10" d="M2504.656,47.007
	c-140.672,0-255.117,114.445-255.117,255.117c0,140.676,114.445,255.117,255.117,255.117s255.119-114.441,255.119-255.117
	C2759.777,161.453,2645.33,47.007,2504.656,47.007z M2745.689,316.3h-8.506l0.002-28.35l8.504,0.002V316.3L2745.689,316.3z
	 M2729.514,214.166l8.76,26.957l-8.09,2.627l-8.758-26.959L2729.514,214.166z M2279.809,214.164l8.088,2.629l-8.76,26.957
	l-8.088-2.627L2279.809,214.164z M2263.633,287.951l8.504,0.002v28.348h-8.506L2263.633,287.951z M2279.809,390.089l-8.758-26.961
	l8.088-2.628l8.76,26.96L2279.809,390.089z M2317.992,148.986l6.883,4.998l-16.662,22.934l-6.883-4.998L2317.992,148.986z
	 M2317.996,455.263l-16.662-22.934l6.881-5l16.662,22.936L2317.996,455.263z M2374.451,98.798l4.998,6.883l-22.932,16.658l-5-6.879
	L2374.451,98.798z M2374.455,505.451l-22.934-16.662l4.998-6.881l22.934,16.662L2374.455,505.451z M2443.656,68.513l2.629,8.088
	l-26.959,8.76l-2.629-8.088L2443.656,68.513z M2443.656,535.736l-26.957-8.762l2.627-8.088l26.959,8.76L2443.656,535.736z
	 M2518.832,543.152h-28.35v-8.504h28.35V543.152z M2518.832,69.599h-28.35v-8.504h28.35V69.599z M2565.658,535.736l-2.627-8.088
	l26.959-8.76l2.627,8.088L2565.658,535.736z M2589.992,85.359l-26.959-8.76l2.633-8.088l26.957,8.76L2589.992,85.359z
	 M2634.865,505.453l-4.998-6.881l22.936-16.662l4.996,6.881L2634.865,505.453z M2652.803,122.339l-22.936-16.66l5-6.881
	l22.934,16.66L2652.803,122.339z M2691.323,455.265l-6.879-5l16.662-22.932l6.879,5L2691.323,455.265z M2701.107,176.916
	l-16.66-22.932l6.882-4.998l16.659,22.932L2701.107,176.916z M2729.512,390.089l-8.088-2.629l8.76-26.96l8.088,2.63
	L2729.512,390.089z"/>
<g>
	<path fill="none" stroke="#000000" stroke-width="2.8346" stroke-miterlimit="10" d="M1077.754,237.838
		c-3.35-10.291-7.338-20.193-11.908-29.688c-6.896-1.871-14.396-1.871-21.705,0.502c-5.998,1.949-11.176,5.248-15.324,9.438
		c-38.313,55.74-102.29,92.443-174.908,93.008c27.508,83.984,102.373,139.234,185.354,145.797
		C1085.924,396.893,1103.014,315.577,1077.754,237.838z M1032.361,278.667c-24.176,37.583-30.131,83.489-16.336,125.948
		c3.447,10.604,8.053,20.768,13.688,30.211c0.58,0.975,0.748,2.111,0.467,3.211c-0.277,1.102-0.967,2.025-1.941,2.607
		c-0.662,0.393-1.41,0.602-2.166,0.602c-1.537,0-2.871-0.756-3.658-2.078c-5.961-9.99-10.828-20.732-14.469-31.926
		c-14.584-44.892-8.289-93.43,17.268-133.166c0.787-1.225,2.131-1.955,3.588-1.955c0.809,0,1.598,0.233,2.281,0.674
		C1033.053,274.065,1033.625,276.7,1032.361,278.667z M1055.926,249.19c-2.354,0-4.258-1.906-4.258-4.258
		c0-2.354,1.904-4.262,4.258-4.262s4.26,1.906,4.26,4.262C1060.186,247.284,1058.279,249.19,1055.926,249.19z"/>
	<path fill="none" stroke="#000000" stroke-width="2.8346" stroke-miterlimit="10" d="M1002.106,469.629
		c-3.705-5.104-8.441-9.014-13.711-11.658c-64.852-19.215-119.527-68.719-142.5-137.609
		c-71.379,52.113-100.789,140.393-81.384,221.334c71.482,25.841,154.101,16.967,220.228-31.08
		c8.754-6.359,16.938-13.217,24.559-20.498C1008.94,482.975,1006.623,475.844,1002.106,469.629z M937.067,477.028
		c-0.492,1.867-2.18,3.172-4.104,3.172c-0.365,0-0.73-0.047-1.084-0.141c-12.428-3.271-25.191-4.93-37.947-4.93
		c-31.346,0-61.391,9.789-86.885,28.313c-9.019,6.561-17.262,14.078-24.504,22.355c-0.805,0.918-1.967,1.443-3.189,1.443
		c-1.029,0-2.021-0.373-2.797-1.053c-0.854-0.748-1.367-1.783-1.441-2.912c-0.074-1.133,0.296-2.225,1.047-3.082
		c7.664-8.76,16.375-16.709,25.893-23.625c26.963-19.588,58.725-29.941,91.85-29.941c13.486,0,26.99,1.756,40.139,5.217
		c1.098,0.289,2.018,0.988,2.59,1.969C937.198,474.794,937.356,475.932,937.067,477.028z M971.245,496.305
		c-2.352,0-4.26-1.906-4.26-4.26s1.908-4.26,4.26-4.26c2.354,0,4.262,1.906,4.262,4.26S973.599,496.305,971.245,496.305z"/>
	<path fill="none" stroke="#000000" stroke-width="2.8346" stroke-miterlimit="10" d="M836.479,316.427
		c-71.617-51.781-164.66-52.475-235.648-9.006c-2.484,75.971,31.486,151.801,97.615,199.846c8.754,6.355,17.805,12.025,27.08,17.021
		c6.684-2.545,12.75-6.949,17.266-13.168c3.709-5.1,5.965-10.813,6.854-16.645C747.88,426.863,778.063,359.568,836.479,316.427z
		 M711.935,492.957c-2.353,0-4.26-1.904-4.26-4.258s1.907-4.26,4.26-4.26c2.352,0,4.26,1.906,4.26,4.26
		C716.194,491.052,714.284,492.957,711.935,492.957z M718.58,450.14c-0.757,0.846-1.796,1.346-2.938,1.41
		c-0.08,0.006-0.16,0.008-0.24,0.008c-2.244,0-4.104-1.76-4.23-4.004c-2.531-44.619-24.696-85.258-60.813-111.497
		c-9.017-6.548-18.718-12.063-28.836-16.397c-1.039-0.442-1.842-1.266-2.262-2.311c-0.422-1.057-0.408-2.215,0.039-3.259
		c0.672-1.567,2.205-2.579,3.902-2.579c0.574,0,1.139,0.116,1.675,0.348c10.694,4.58,20.946,10.408,30.472,17.322
		c38.186,27.747,61.623,70.716,64.302,117.891C719.716,448.205,719.336,449.296,718.58,450.14z"/>
	<path fill="none" stroke="#000000" stroke-width="2.8346" stroke-miterlimit="10" d="M772.217,75.226
		c-73.02,21.105-134.641,76.854-159.896,154.592c-3.344,10.291-5.938,20.648-7.82,31.016c4.484,5.568,10.551,9.979,17.857,12.352
		c5.998,1.953,12.129,2.33,17.947,1.375c63.758-22.574,137.088-14.66,196.168,27.564C863.59,218.011,835.498,129.306,772.217,75.226
		z M634.148,241.167c-2.354,0-4.258-1.905-4.258-4.259s1.903-4.26,4.258-4.26s4.258,1.906,4.258,4.26
		C638.406,239.259,636.502,241.167,634.148,241.167z M768.369,133.796c-14.59,44.896-48.212,80.463-92.246,97.587
		c-0.498,0.193-1.018,0.292-1.539,0.292c-1.738,0-3.327-1.088-3.957-2.712c-0.851-2.182,0.233-4.646,2.416-5.497
		c41.648-16.194,73.449-49.836,87.248-92.293c3.438-10.604,5.688-21.534,6.684-32.488c0.197-2.196,2.009-3.854,4.215-3.854
		c0.131,0,0.262,0.007,0.396,0.021c1.127,0.102,2.146,0.639,2.876,1.513c0.728,0.873,1.069,1.975,0.968,3.104
		C774.377,111.066,772.002,122.617,768.369,133.796z"/>
	<path fill="none" stroke="#000000" stroke-width="2.8346" stroke-miterlimit="10" d="M849.656,66.595
		c-10.823,0.002-21.477,0.736-31.92,2.146c-3.908,5.984-6.225,13.115-6.225,20.801c-0.004,6.309,1.53,12.252,4.237,17.492
		c41.173,53.664,56.308,125.852,34.401,195.09c88.375-0.207,164.06-54.34,195.938-131.229
		C1003.447,107.972,931.392,66.594,849.656,66.595z M849.655,93.807c-2.353,0-4.261-1.907-4.261-4.261s1.908-4.26,4.261-4.26
		s4.26,1.906,4.26,4.26S852.006,93.807,849.655,93.807z M1024.031,181.442c-11.354,2.582-23.073,3.892-34.84,3.894
		c-47.199,0-91.415-20.984-121.311-57.574c-0.721-0.881-1.053-1.983-0.938-3.116c0.111-1.126,0.658-2.144,1.535-2.858
		c0.78-0.637,1.683-0.961,2.684-0.961c1.282,0,2.482,0.57,3.294,1.563c28.274,34.604,70.095,54.451,114.733,54.451
		c11.133,0,22.221-1.236,32.957-3.68c0.32-0.072,0.644-0.107,0.959-0.107c1.953,0,3.688,1.393,4.125,3.309
		c0.25,1.104,0.055,2.241-0.551,3.203C1026.073,180.526,1025.135,181.191,1024.031,181.442z"/>
</g>
<g>
	<polygon fill="none" stroke="#000000" stroke-width="2.8346" stroke-miterlimit="10" points="3506.699,196.683 3484.023,196.683 
		3484.023,188.179 3455.678,188.179 3455.678,196.683 3433,196.683 3433,423.455 3455.678,423.455 3455.678,431.96 3484.023,431.96 
		3484.023,423.455 3506.699,423.455 	"/>
	<polyline fill="none" stroke="#000000" stroke-width="2.8346" stroke-miterlimit="10" points="3506.699,423.455 3529.379,423.455 
		3529.379,431.96 3557.725,431.96 3557.725,423.455 3580.402,423.455 3580.402,196.683 3557.725,196.683 3557.725,188.179 
		3529.379,188.179 3529.379,196.683 3506.699,196.683 	"/>
	<polyline fill="none" stroke="#000000" stroke-width="2.8346" stroke-miterlimit="10" points="3580.402,423.455 3603.076,423.455 
		3603.076,431.96 3631.426,431.96 3631.426,423.455 3654.104,423.455 3654.104,196.683 3631.426,196.683 3631.426,188.179 
		3603.076,188.179 3603.076,196.683 3580.402,196.683 	"/>
	<polyline fill="none" stroke="#000000" stroke-width="2.8346" stroke-miterlimit="10" points="3654.104,423.455 3676.779,423.455 
		3676.779,431.96 3705.127,431.96 3705.127,423.455 3727.803,423.455 3727.803,196.683 3705.127,196.683 3705.127,188.179 
		3676.779,188.179 3676.779,196.683 3654.104,196.683 	"/>
	<polyline fill="none" stroke="#000000" stroke-width="2.8346" stroke-miterlimit="10" points="3727.803,423.455 3750.48,423.455 
		3750.48,431.96 3778.824,431.96 3778.824,423.455 3801.504,423.455 3801.504,196.683 3778.824,196.683 3778.824,188.179 
		3750.48,188.179 3750.48,196.683 3727.803,196.683 	"/>
	<polyline fill="none" stroke="#000000" stroke-width="2.8346" stroke-miterlimit="10" points="3801.504,423.455 3824.182,423.455 
		3824.182,431.96 3852.527,431.96 3852.527,423.455 3875.205,423.455 3875.205,196.683 3852.527,196.683 3852.527,188.179 
		3824.182,188.179 3824.182,196.683 3801.504,196.683 	"/>
	<polyline fill="none" stroke="#000000" stroke-width="2.8346" stroke-miterlimit="10" points="3875.205,423.455 3897.881,423.455 
		3897.881,431.96 3926.229,431.96 3926.229,423.455 3948.906,423.455 3948.906,196.683 3926.229,196.683 3926.229,188.179 
		3897.881,188.179 3897.881,196.683 3875.205,196.683 	"/>
	<polyline fill="none" stroke="#000000" stroke-width="2.8346" stroke-miterlimit="10" points="3948.906,423.455 3971.582,423.455 
		3971.582,431.96 3999.93,431.96 3999.93,423.455 4022.605,423.455 4022.605,196.683 3999.93,196.683 3999.93,188.179 
		3971.582,188.179 3971.582,196.683 3948.906,196.683 	"/>
	<polyline fill="none" stroke="#000000" stroke-width="2.8346" stroke-miterlimit="10" points="4022.605,423.455 4045.281,423.455 
		4045.281,431.96 4073.629,431.96 4073.629,423.455 4096.307,423.455 4096.307,196.683 4073.629,196.683 4073.629,188.179 
		4045.281,188.179 4045.281,196.683 4022.605,196.683 	"/>
	<polyline fill="none" stroke="#000000" stroke-width="2.8346" stroke-miterlimit="10" points="4096.307,423.455 4118.982,423.455 
		4118.982,431.96 4147.33,431.96 4147.33,423.455 4170.008,423.455 4170.008,196.683 4147.33,196.683 4147.33,188.179 
		4118.982,188.179 4118.982,196.683 4096.307,196.683 	"/>
	<polyline fill="none" stroke="#000000" stroke-width="2.8346" stroke-miterlimit="10" points="4170.008,423.455 4192.686,423.455 
		4192.686,431.96 4221.029,431.96 4221.029,423.455 4243.709,423.455 4243.709,196.683 4221.029,196.683 4221.029,188.179 
		4192.686,188.179 4192.686,196.683 4170.008,196.683 	"/>
	<polyline fill="none" stroke="#000000" stroke-width="2.8346" stroke-miterlimit="10" points="4243.709,423.455 4266.387,423.455 
		4266.387,431.96 4294.73,431.96 4294.73,423.455 4317.41,423.455 4317.41,196.683 4294.73,196.683 4294.73,188.179 
		4266.387,188.179 4266.387,196.683 4243.709,196.683 	"/>
	<polyline fill="none" stroke="#000000" stroke-width="2.8346" stroke-miterlimit="10" points="4317.41,423.455 4340.086,423.455 
		4340.086,431.96 4368.434,431.96 4368.434,423.455 4391.109,423.455 4391.109,196.683 4368.434,196.683 4368.434,188.179 
		4340.086,188.179 4340.086,196.683 4317.41,196.683 	"/>
	<polyline fill="none" stroke="#000000" stroke-width="2.8346" stroke-miterlimit="10" points="4391.109,423.455 4413.787,423.455 
		4413.787,431.96 4442.135,431.96 4442.135,423.455 4464.811,423.455 4464.811,196.683 4442.135,196.683 4442.135,188.179 
		4413.787,188.179 4413.787,196.683 4391.109,196.683 	"/>
	<polyline fill="none" stroke="#000000" stroke-width="2.8346" stroke-miterlimit="10" points="4464.811,423.455 4487.486,423.455 
		4487.486,431.96 4515.834,431.96 4515.834,423.455 4538.512,423.455 4538.512,196.683 4515.834,196.683 4515.834,188.179 
		4487.486,188.179 4487.486,196.683 4464.811,196.683 	"/>
	<polyline fill="none" stroke="#000000" stroke-width="2.8346" stroke-miterlimit="10" points="4538.512,423.455 4561.188,423.455 
		4561.188,431.96 4589.535,431.96 4589.535,423.455 4612.213,423.455 4612.213,196.683 4589.535,196.683 4589.535,188.179 
		4561.188,188.179 4561.188,196.683 4538.512,196.683 	"/>
	<polyline fill="none" stroke="#000000" stroke-width="2.8346" stroke-miterlimit="10" points="4612.213,423.455 4634.889,423.455 
		4634.889,431.96 4663.234,431.96 4663.234,423.455 4685.914,423.455 4685.914,196.683 4663.234,196.683 4663.234,188.179 
		4634.889,188.179 4634.889,196.683 4612.213,196.683 	"/>
	<polyline fill="none" stroke="#000000" stroke-width="2.8346" stroke-miterlimit="10" points="4685.914,423.455 4708.59,423.455 
		4708.59,431.96 4736.938,431.96 4736.938,423.455 4759.611,423.455 4759.611,196.683 4736.938,196.683 4736.938,188.179 
		4708.59,188.179 4708.59,196.683 4685.914,196.683 	"/>
	<polyline fill="none" stroke="#000000" stroke-width="2.8346" stroke-miterlimit="10" points="4759.611,423.455 4782.291,423.455 
		4782.291,431.96 4810.637,431.96 4810.637,423.455 4833.313,423.455 4833.313,196.683 4810.637,196.683 4810.637,188.179 
		4782.291,188.179 4782.291,196.683 4759.611,196.683 	"/>
	<polyline fill="none" stroke="#000000" stroke-width="2.8346" stroke-miterlimit="10" points="4833.313,423.455 4855.992,423.455 
		4855.992,431.96 4884.338,431.96 4884.338,423.455 4907.016,423.455 4907.016,196.683 4884.338,196.683 4884.338,188.179 
		4855.992,188.179 4855.992,196.683 4833.313,196.683 	"/>
</g>
<path fill="none" stroke="#000000" stroke-width="2.8346" stroke-miterlimit="10" d="M2159.227,196.535
	c-7.941,0.803-16.197-1.162-23.162-6.225c-14.584-10.592-18.121-30.688-8.369-45.609c-46.707-59.479-119.275-97.695-200.768-97.695
	c-9.689,0-19.242,0.562-28.65,1.612c-1.697,7.782-6.113,15.005-13.066,20.055c-14.598,10.606-34.834,7.743-46.002-6.186
	c-82.148,30.078-144.518,101.198-162.275,188.524c6.896,4.02,12.416,10.459,15.076,18.646c5.566,17.131-3.369,35.455-20.014,41.809
	c3.281,91.199,54.424,170.188,129.076,212.611c5.951-5.311,13.773-8.563,22.379-8.563c18.043,0,32.729,14.207,33.582,32.037
	c22.211,6.313,45.658,9.691,69.893,9.691c66.361,0,126.803-25.346,172.182-66.875c-3.193-7.295-3.863-15.725-1.213-23.893
	c5.57-17.146,23.598-26.719,40.807-22.051c27.367-40.648,43.344-89.607,43.344-142.301
	C2182.041,264.466,2173.875,228.714,2159.227,196.535z M1990.715,96.442c1.252-1.707,3.648-2.08,5.357-0.828
	c1.707,1.248,2.078,3.648,0.828,5.356s-3.646,2.077-5.354,0.827C1989.838,100.549,1989.465,98.151,1990.715,96.442z
	 M1756.273,429.76c-1.252,1.709-3.649,2.08-5.356,0.83c-1.709-1.25-2.08-3.648-0.83-5.357s3.647-2.08,5.356-0.83
	S1757.523,428.052,1756.273,429.76z M1757.148,177.951c-1.25,1.709-3.649,2.08-5.356,0.83c-1.709-1.25-2.08-3.65-0.83-5.357
	c1.252-1.709,3.647-2.078,5.356-0.828S1758.398,176.242,1757.148,177.951z M1995.486,508.408c-1.25,1.709-3.649,2.08-5.356,0.83
	c-1.709-1.252-2.079-3.648-0.829-5.357s3.646-2.08,5.355-0.83S1996.736,506.699,1995.486,508.408z M1927.02,489.625
	c-103.557,0-187.502-83.943-187.502-187.496c0-103.559,83.945-187.506,187.502-187.506c103.554,0,187.504,83.947,187.504,187.506
	C2114.523,405.679,2030.573,489.625,1927.02,489.625z M2144.205,305.205c-1.25,1.709-3.65,2.08-5.357,0.828
	c-1.709-1.25-2.08-3.646-0.828-5.354c1.25-1.709,3.646-2.08,5.355-0.83S2145.455,303.496,2144.205,305.205z"/>
<g>
	<path fill="none" stroke="#000000" stroke-width="2.8346" stroke-miterlimit="10" d="M185.618,270.489v18.329
		c0,15.493,12.561,28.053,28.053,28.053s28.053-12.56,28.053-28.053v-18.329H185.618z M213.67,292.644
		c-2.113,0-3.828-1.713-3.828-3.826s1.715-3.826,3.828-3.826s3.826,1.713,3.826,3.826S215.784,292.644,213.67,292.644z"/>
	<path fill="none" stroke="#000000" stroke-width="2.8346" stroke-miterlimit="10" d="M244.461,270.489v18.329
		c0,15.493,12.561,28.053,28.053,28.053s28.053-12.56,28.053-28.053v-18.329H244.461z M272.514,292.644
		c-2.113,0-3.826-1.713-3.826-3.826s1.713-3.826,3.826-3.826s3.828,1.713,3.828,3.826S274.627,292.644,272.514,292.644z"/>
	<path fill="none" stroke="#000000" stroke-width="2.8346" stroke-miterlimit="10" d="M307.004,270.489v18.329
		c0,15.493,12.561,28.053,28.053,28.053s28.053-12.56,28.053-28.053v-18.329H307.004z M335.057,292.644
		c-2.113,0-3.826-1.713-3.826-3.826s1.713-3.826,3.826-3.826s3.826,1.713,3.826,3.826S337.17,292.644,335.057,292.644z"/>
	<path fill="none" stroke="#000000" stroke-width="2.8346" stroke-miterlimit="10" d="M214.872,322.389v18.33
		c0,15.491,12.561,28.051,28.053,28.051s28.053-12.56,28.053-28.051v-18.33H214.872z M242.924,344.547
		c-2.113,0-3.826-1.715-3.826-3.826c0-2.113,1.713-3.828,3.826-3.828s3.828,1.715,3.828,3.828
		C246.752,342.832,245.038,344.547,242.924,344.547z"/>
	<path fill="none" stroke="#000000" stroke-width="2.8346" stroke-miterlimit="10" d="M274.016,322.389v18.33
		c0,15.491,12.559,28.051,28.053,28.051c15.492,0,28.055-12.56,28.055-28.051v-18.33H274.016z M302.069,344.547
		c-2.111,0-3.828-1.715-3.828-3.826c0-2.113,1.717-3.828,3.828-3.828c2.113,0,3.826,1.715,3.826,3.828
		C305.895,342.832,304.182,344.547,302.069,344.547z"/>
</g>
<g>
	<g>
		
			<line fill="none" stroke="#000000" stroke-width="2.8346" stroke-miterlimit="10" x1="2907.823" y1="50.18" x2="2714.496" y2="50.18"/>
		
			<line fill="none" stroke="#000000" stroke-width="2.8346" stroke-miterlimit="10" x1="2714.496" y1="560.416" x2="2907.823" y2="560.416"/>
		<g enable-background="new    ">
			<path d="M2900.698,246.244v-0.081l-2.477-4.588l2.721-0.689l3.086,5.766v3.045h-26.394v-3.451L2900.698,246.244L2900.698,246.244
				z"/>
			<path d="M2891.116,297.692c-8.974,0-13.927-3.33-13.927-9.177c0-5.157,4.831-8.648,13.563-8.729
				c8.852,0,13.724,3.816,13.724,9.176C2904.476,294.525,2899.523,297.692,2891.116,297.692z M2890.711,283.359
				c-6.862,0-10.761,2.112-10.761,5.36c0,3.653,4.265,5.399,11.004,5.399c6.496,0,10.761-1.665,10.761-5.36
				C2901.715,285.633,2897.898,283.359,2890.711,283.359z"/>
			<path d="M2891.97,302.119c2.03,0,3.694-0.041,5.319-0.162v3.127l-3.168,0.161v0.122c1.867,1.097,3.613,2.923,3.613,6.172
				c0,2.68-1.624,4.71-3.938,5.563v0.082c1.097,0.609,1.949,1.381,2.559,2.191c0.894,1.178,1.38,2.478,1.38,4.346
				c0,2.599-1.705,6.455-8.525,6.455h-11.572v-3.491h11.125c3.776,0,6.051-1.38,6.051-4.263c0-2.031-1.503-3.614-3.249-4.225
				c-0.486-0.162-1.137-0.284-1.785-0.284h-12.142v-3.491h11.774c3.127,0,5.4-1.382,5.4-4.102c0-2.232-1.787-3.856-3.573-4.426
				c-0.528-0.203-1.138-0.284-1.746-0.284h-11.855v-3.492L2891.97,302.119L2891.97,302.119z"/>
			<path d="M2891.97,335.986c2.03,0,3.694-0.041,5.319-0.162v3.126l-3.168,0.162v0.122c1.867,1.096,3.613,2.924,3.613,6.172
				c0,2.681-1.624,4.71-3.938,5.563v0.081c1.097,0.608,1.949,1.381,2.559,2.191c0.894,1.179,1.38,2.478,1.38,4.347
				c0,2.598-1.705,6.454-8.525,6.454h-11.572v-3.491h11.125c3.776,0,6.051-1.38,6.051-4.264c0-2.029-1.503-3.613-3.249-4.224
				c-0.486-0.162-1.137-0.283-1.785-0.283h-12.142v-3.492h11.774c3.127,0,5.4-1.381,5.4-4.102c0-2.232-1.787-3.857-3.573-4.426
				c-0.528-0.203-1.138-0.283-1.746-0.283h-11.855v-3.492H2891.97z"/>
			<g>
				<path d="M2884.048,256.103c3.408,0,5.819,2.037,7.232,5.362l0.124-0.042c1.414-2.993,3.741-4.281,6.068-4.281
					c4.281,0,7.191,3.616,7.191,8.354c0,5.237-3.284,7.855-6.65,7.855c-2.286,0-4.738-1.122-6.318-4.447h-0.124
					c-1.33,3.367-3.699,5.445-6.983,5.445c-4.696,0-7.855-4.032-7.855-9.186C2876.733,259.511,2880.099,256.103,2884.048,256.103z
					 M2884.214,270.65c3.284,0,4.863-2.286,5.902-5.944c-0.914-3.159-2.993-4.863-5.569-4.863c-2.744-0.125-5.154,1.954-5.154,5.403
					C2879.393,268.531,2881.429,270.65,2884.214,270.65z M2897.723,260.592c-2.702,0-4.156,2.037-4.988,5.154
					c0.79,2.328,2.453,4.115,4.905,4.115c2.161,0,4.405-1.289,4.405-4.572C2902.045,262.254,2900.05,260.592,2897.723,260.592z"/>
			</g>
		</g>
	</g>
	<g>
		<g enable-background="new    ">
			<path d="M3004.414,301.148c-0.427-7.993-0.937-17.604-0.852-24.746h-0.255c-1.956,6.718-4.337,13.861-7.229,21.771
				l-10.118,27.808h-5.613l-9.269-27.297c-2.723-8.079-5.018-15.479-6.634-22.28h-0.17c-0.17,7.144-0.595,16.753-1.104,25.341
				l-1.53,24.576h-7.06l3.996-57.315h9.439l9.779,27.724c2.381,7.058,4.338,13.351,5.783,19.304h0.254
				c1.445-5.783,3.486-12.076,6.039-19.304l10.203-27.724h9.438l3.572,57.315h-7.229L3004.414,301.148z"/>
			<path d="M3028.905,307.1c0.17,10.12,6.633,14.286,14.117,14.286c5.357,0,8.588-0.936,11.395-2.125l1.275,5.355
				c-2.637,1.191-7.143,2.553-13.691,2.553c-12.67,0-20.237-8.334-20.237-20.749c0-12.417,7.313-22.195,19.303-22.195
				c13.437,0,17.008,11.819,17.008,19.389c0,1.531-0.17,2.723-0.255,3.486H3028.905z M3050.844,301.743
				c0.086-4.762-1.955-12.16-10.374-12.16c-7.568,0-10.886,6.975-11.479,12.16H3050.844z"/>
			<path d="M3102.888,265.943v49.746c0,3.657,0.085,7.823,0.34,10.63h-6.718l-0.34-7.144H3096
				c-2.298,4.593-7.313,8.079-14.031,8.079c-9.949,0-17.604-8.419-17.604-20.919c-0.084-13.691,8.419-22.11,18.453-22.11
				c6.293,0,10.545,2.977,12.416,6.293h0.17v-24.575H3102.888L3102.888,265.943z M3095.405,301.914c0-0.936-0.085-2.211-0.34-3.146
				c-1.105-4.764-5.188-8.674-10.801-8.674c-7.738,0-12.33,6.803-12.33,15.9c0,8.334,4.082,15.223,12.16,15.223
				c5.018,0,9.608-3.316,10.971-8.93c0.255-1.021,0.34-2.041,0.34-3.23V301.914L3095.405,301.914z"/>
			<path d="M3123.638,273.596c0.085,2.551-1.786,4.592-4.763,4.592c-2.637,0-4.507-2.041-4.507-4.592
				c0-2.638,1.955-4.679,4.677-4.679C3121.852,268.919,3123.638,270.96,3123.638,273.596z M3115.304,326.319v-41.158h7.482v41.158
				H3115.304z"/>
			<path d="M3169.643,315.094c0,4.252,0.085,7.993,0.34,11.225h-6.633l-0.426-6.718h-0.17c-1.955,3.316-6.293,7.653-13.605,7.653
				c-6.463,0-14.201-3.571-14.201-18.028v-24.065h7.483v22.79c0,7.823,2.381,13.097,9.185,13.097c5.018,0,8.504-3.486,9.863-6.804
				c0.426-1.104,0.682-2.466,0.682-3.826v-25.257h7.482V315.094z"/>
			<path d="M3182.059,296.301c0-4.251-0.085-7.737-0.34-11.14h6.548l0.34,6.633h0.255c2.297-3.911,6.123-7.567,12.926-7.567
				c5.613,0,9.865,3.4,11.65,8.249h0.17c1.275-2.296,2.893-4.082,4.592-5.357c2.467-1.871,5.188-2.892,9.101-2.892
				c5.441,0,13.521,3.571,13.521,17.857v24.235h-7.313v-23.3c0-7.909-2.892-12.671-8.928-12.671c-4.252,0-7.568,3.146-8.846,6.803
				c-0.34,1.021-0.595,2.381-0.595,3.742v25.426h-7.313v-24.661c0-6.548-2.892-11.31-8.589-11.31c-4.678,0-8.077,3.74-9.27,7.482
				c-0.425,1.105-0.595,2.382-0.595,3.656v24.831h-7.313L3182.059,296.301L3182.059,296.301z"/>
		</g>
		<g enable-background="new    ">
			<path d="M3045.807,357.166h-7.668v-11.323h2.238v9.197h5.43V357.166z"/>
			<path d="M3053.446,357.166h-2.041v-0.438c-0.358,0.246-0.738,0.416-1.141,0.511c-0.402,0.094-0.814,0.143-1.24,0.143
				c-0.396,0-0.756-0.061-1.077-0.179c-0.32-0.118-0.601-0.288-0.837-0.51c-0.235-0.222-0.418-0.484-0.545-0.787
				c-0.128-0.302-0.19-0.638-0.19-1.006c0-0.463,0.102-0.867,0.305-1.212s0.479-0.633,0.829-0.864
				c0.35-0.23,0.759-0.403,1.227-0.518c0.469-0.113,0.971-0.17,1.51-0.17h1.176c0-0.482-0.155-0.865-0.467-1.148
				c-0.313-0.283-0.762-0.425-1.348-0.425c-0.283,0-0.576,0.052-0.879,0.155c-0.302,0.104-0.604,0.293-0.906,0.566l-1.205-1.219
				c0.436-0.416,0.938-0.737,1.51-0.964c0.572-0.228,1.16-0.34,1.765-0.34c0.567,0,1.071,0.09,1.515,0.269
				c0.442,0.18,0.801,0.411,1.072,0.694c0.356,0.358,0.607,0.761,0.752,1.205c0.146,0.443,0.219,1.012,0.219,1.701v4.535H3053.446z
				 M3051.405,355.125v-1.517h-0.936c-0.283,0-0.551,0.021-0.801,0.057c-0.25,0.038-0.468,0.103-0.652,0.191
				c-0.185,0.09-0.33,0.206-0.439,0.348c-0.106,0.143-0.162,0.313-0.162,0.511c0,0.282,0.111,0.516,0.333,0.693
				c0.222,0.181,0.509,0.271,0.857,0.271c0.302,0,0.603-0.047,0.898-0.143C3050.803,355.441,3051.102,355.304,3051.405,355.125z"/>
			<path d="M3061.028,354.87c0,0.406-0.094,0.769-0.283,1.084c-0.188,0.316-0.437,0.581-0.738,0.794
				c-0.303,0.214-0.645,0.373-1.022,0.481s-0.753,0.163-1.123,0.163c-0.625,0-1.198-0.115-1.725-0.347s-0.988-0.604-1.386-1.113
				l1.232-1.247c0.245,0.312,0.529,0.556,0.85,0.729c0.322,0.176,0.666,0.263,1.035,0.263c0.321,0,0.588-0.06,0.801-0.178
				c0.214-0.117,0.318-0.296,0.318-0.531c0-0.245-0.149-0.451-0.453-0.616c-0.303-0.165-0.728-0.328-1.274-0.489
				c-0.321-0.094-0.633-0.215-0.937-0.36c-0.303-0.146-0.571-0.326-0.808-0.538c-0.236-0.213-0.425-0.456-0.567-0.73
				c-0.142-0.272-0.213-0.59-0.213-0.949c0-0.396,0.094-0.754,0.277-1.069c0.187-0.316,0.426-0.581,0.726-0.794
				c0.299-0.213,0.637-0.375,1.016-0.488c0.38-0.113,0.763-0.17,1.15-0.17c1.25,0,2.272,0.473,3.067,1.417l-1.219,1.232
				c-0.236-0.293-0.506-0.523-0.808-0.694c-0.304-0.17-0.634-0.255-0.992-0.255c-0.123,0-0.253,0.017-0.39,0.05
				s-0.266,0.08-0.383,0.142c-0.119,0.063-0.216,0.143-0.291,0.241s-0.113,0.21-0.113,0.333c0,0.218,0.145,0.406,0.433,0.565
				c0.288,0.161,0.702,0.321,1.24,0.482c0.351,0.104,0.681,0.236,0.992,0.396s0.586,0.348,0.821,0.561
				c0.235,0.212,0.424,0.453,0.561,0.723C3060.959,354.224,3061.028,354.53,3061.028,354.87z"/>
			<path d="M3070.75,353.055c0,0.133-0.008,0.27-0.021,0.411s-0.03,0.288-0.049,0.438h-6.549c0.075,0.236,0.182,0.461,0.318,0.673
				c0.137,0.213,0.305,0.397,0.503,0.554c0.199,0.155,0.423,0.278,0.675,0.368c0.25,0.091,0.525,0.136,0.827,0.136
				c0.369,0,0.738-0.064,1.106-0.191c0.367-0.128,0.675-0.3,0.921-0.518l1.29,1.29c-0.567,0.425-1.122,0.725-1.665,0.898
				c-0.544,0.175-1.118,0.264-1.724,0.264c-0.613,0-1.188-0.113-1.722-0.342c-0.534-0.227-0.997-0.532-1.39-0.921
				c-0.393-0.388-0.701-0.844-0.928-1.368c-0.228-0.523-0.34-1.084-0.34-1.679c0-0.596,0.112-1.155,0.34-1.68
				c0.227-0.525,0.539-0.98,0.936-1.368c0.396-0.387,0.859-0.694,1.389-0.921c0.53-0.228,1.097-0.34,1.701-0.34
				c0.576,0,1.129,0.104,1.658,0.317s0.996,0.509,1.402,0.887s0.729,0.829,0.965,1.354
				C3070.632,351.844,3070.75,352.424,3070.75,353.055z M3068.611,352.261c-0.161-0.521-0.446-0.938-0.857-1.254
				c-0.41-0.316-0.876-0.476-1.396-0.476c-0.511,0-0.969,0.158-1.374,0.476c-0.406,0.315-0.689,0.733-0.852,1.254H3068.611z"/>
			<path d="M3077.907,349.824l-1.092,1.729c-0.199-0.218-0.418-0.409-0.659-0.574c-0.24-0.165-0.483-0.248-0.729-0.248
				c-0.133,0-0.277,0.03-0.434,0.092c-0.156,0.063-0.303,0.163-0.438,0.306c-0.138,0.142-0.253,0.328-0.347,0.561
				c-0.097,0.231-0.144,0.517-0.144,0.857v4.619h-2.041v-8.191h2.041v0.879c0.246-0.35,0.519-0.618,0.813-0.808
				c0.3-0.189,0.632-0.283,1-0.283c0.359,0,0.711,0.097,1.057,0.29C3077.281,349.246,3077.606,349.504,3077.907,349.824z"/>
			<path d="M3086.015,355.932c-0.416,0.473-0.917,0.832-1.503,1.077c-0.586,0.246-1.199,0.369-1.842,0.369
				c-0.597,0-1.158-0.109-1.688-0.326c-0.528-0.218-0.987-0.519-1.377-0.9s-0.696-0.838-0.922-1.367
				c-0.227-0.528-0.338-1.101-0.338-1.715c0-0.604,0.111-1.17,0.338-1.693c0.226-0.524,0.529-0.979,0.915-1.367
				c0.385-0.389,0.842-0.692,1.368-0.914c0.529-0.224,1.097-0.333,1.701-0.333c0.623,0,1.217,0.112,1.778,0.34
				c0.562,0.227,1.052,0.571,1.467,1.034l-1.374,1.402c-0.209-0.272-0.461-0.501-0.759-0.68c-0.298-0.18-0.659-0.27-1.085-0.27
				c-0.311,0-0.605,0.065-0.885,0.197c-0.279,0.134-0.525,0.311-0.737,0.531c-0.213,0.223-0.38,0.484-0.503,0.787
				s-0.186,0.623-0.186,0.964c0,0.34,0.063,0.661,0.186,0.964s0.287,0.564,0.496,0.786c0.207,0.222,0.453,0.399,0.736,0.531
				c0.283,0.133,0.582,0.198,0.893,0.198c0.406,0,0.775-0.098,1.105-0.29c0.331-0.193,0.596-0.441,0.795-0.744L3086.015,355.932z"/>
			<path d="M3094.278,357.166h-2.041v-0.623c-0.133,0.133-0.285,0.247-0.461,0.348c-0.174,0.1-0.358,0.185-0.553,0.255
				c-0.193,0.071-0.393,0.125-0.595,0.163c-0.203,0.038-0.396,0.057-0.574,0.057c-0.415,0-0.815-0.065-1.197-0.197
				c-0.383-0.133-0.721-0.336-1.014-0.609c-0.293-0.274-0.526-0.628-0.702-1.063c-0.174-0.435-0.262-0.948-0.262-1.545v-4.975h2.041
				v4.876c0,0.293,0.045,0.551,0.135,0.771c0.09,0.222,0.207,0.406,0.354,0.554c0.146,0.146,0.315,0.255,0.511,0.326
				c0.193,0.069,0.395,0.105,0.602,0.105c0.661,0,1.233-0.228,1.716-0.681v-5.953h2.041L3094.278,357.166L3094.278,357.166z"/>
			<path d="M3100.541,356.981c-0.207,0.133-0.447,0.231-0.723,0.298c-0.274,0.067-0.548,0.101-0.822,0.101
				c-0.48,0-0.888-0.061-1.219-0.179s-0.595-0.3-0.794-0.545c-0.198-0.246-0.342-0.558-0.432-0.936s-0.135-0.822-0.135-1.333v-3.585
				h-1.078v-0.922c0.662-0.273,1.198-0.682,1.608-1.22c0.411-0.539,0.691-1.236,0.845-2.098h0.666v2.396h2.067v1.844h-2.067v3.728
				c0,0.207,0.024,0.378,0.077,0.51c0.052,0.134,0.121,0.236,0.205,0.313c0.086,0.076,0.183,0.128,0.291,0.156
				c0.107,0.027,0.225,0.042,0.348,0.042c0.16,0,0.354-0.028,0.581-0.085c0.227-0.058,0.42-0.15,0.581-0.283V356.981
				L3100.541,356.981z"/>
			<path d="M3108.336,347.543h-2.125v-2.127h2.125V347.543z M3108.309,357.166h-2.069v-8.205h2.069V357.166z"/>
			<path d="M3116.062,349.824l-1.091,1.729c-0.199-0.218-0.419-0.409-0.66-0.574c-0.24-0.165-0.484-0.248-0.729-0.248
				c-0.133,0-0.276,0.03-0.434,0.092c-0.157,0.063-0.303,0.163-0.439,0.306c-0.136,0.142-0.252,0.328-0.347,0.561
				s-0.142,0.517-0.142,0.857v4.619h-2.041v-8.191h2.041v0.879c0.245-0.35,0.518-0.618,0.813-0.808c0.298-0.189,0.632-0.283,1-0.283
				c0.358,0,0.711,0.097,1.056,0.29C3115.436,349.246,3115.759,349.504,3116.062,349.824z"/>
			<path d="M3118.909,347.543h-2.126v-2.127h2.126V347.543z M3118.882,357.166h-2.069v-8.205h2.069V357.166z"/>
			<path d="M3126.762,354.87c0,0.406-0.096,0.769-0.284,1.084c-0.188,0.316-0.437,0.581-0.739,0.794
				c-0.302,0.214-0.644,0.373-1.021,0.481c-0.379,0.108-0.754,0.163-1.123,0.163c-0.625,0-1.2-0.115-1.727-0.347
				c-0.525-0.231-0.987-0.604-1.386-1.113l1.232-1.247c0.246,0.312,0.529,0.556,0.852,0.729c0.322,0.175,0.666,0.263,1.035,0.263
				c0.32,0,0.588-0.06,0.801-0.178c0.212-0.117,0.318-0.296,0.318-0.531c0-0.245-0.151-0.451-0.453-0.616
				c-0.303-0.165-0.729-0.328-1.275-0.489c-0.321-0.094-0.634-0.215-0.936-0.36c-0.303-0.146-0.572-0.326-0.809-0.538
				c-0.236-0.213-0.426-0.456-0.566-0.73c-0.143-0.272-0.213-0.59-0.213-0.949c0-0.396,0.092-0.754,0.277-1.069
				c0.185-0.316,0.426-0.581,0.725-0.794s0.637-0.375,1.017-0.488c0.379-0.113,0.762-0.17,1.149-0.17
				c1.25,0,2.273,0.473,3.068,1.417l-1.219,1.232c-0.236-0.293-0.506-0.523-0.81-0.694c-0.303-0.17-0.633-0.255-0.991-0.255
				c-0.123,0-0.252,0.017-0.39,0.05s-0.266,0.08-0.383,0.142c-0.119,0.063-0.215,0.143-0.291,0.241s-0.113,0.21-0.113,0.333
				c0,0.218,0.146,0.406,0.433,0.565c0.289,0.161,0.701,0.321,1.239,0.482c0.351,0.104,0.681,0.236,0.992,0.396
				c0.313,0.16,0.586,0.348,0.822,0.561c0.235,0.212,0.423,0.453,0.561,0.723C3126.694,354.224,3126.762,354.53,3126.762,354.87z"/>
			<path d="M3140.366,353.07c0,0.576-0.097,1.124-0.291,1.645c-0.192,0.52-0.467,0.976-0.815,1.367
				c-0.352,0.393-0.769,0.704-1.25,0.937c-0.483,0.231-1.014,0.347-1.592,0.347c-0.359,0-0.695-0.05-1.009-0.147
				c-0.313-0.101-0.606-0.258-0.882-0.476v0.426h-2.04v-11.765h2.055l0.015,3.969c0.235-0.188,0.518-0.341,0.844-0.454
				c0.326-0.112,0.668-0.17,1.027-0.17c0.5,0,0.986,0.111,1.459,0.333c0.473,0.224,0.894,0.527,1.262,0.914
				c0.369,0.389,0.664,0.845,0.887,1.368C3140.257,351.886,3140.366,352.456,3140.366,353.07z M3138.299,353.07
				c0-0.378-0.057-0.724-0.171-1.035c-0.114-0.311-0.272-0.578-0.478-0.801c-0.204-0.222-0.445-0.392-0.726-0.51
				s-0.591-0.178-0.933-0.178c-0.219,0-0.47,0.045-0.754,0.135s-0.521,0.206-0.711,0.348v3.939c0.445,0.406,0.947,0.609,1.509,0.609
				c0.321,0,0.623-0.062,0.901-0.185c0.28-0.123,0.521-0.295,0.72-0.519c0.198-0.222,0.354-0.485,0.47-0.794
				C3138.241,353.776,3138.299,353.438,3138.299,353.07z"/>
			<path d="M3150.106,353.07c0,0.614-0.114,1.185-0.341,1.707c-0.229,0.524-0.538,0.979-0.937,1.361
				c-0.397,0.382-0.861,0.685-1.396,0.907c-0.534,0.222-1.104,0.333-1.709,0.333s-1.171-0.111-1.7-0.333
				c-0.529-0.224-0.992-0.527-1.39-0.914c-0.396-0.389-0.708-0.845-0.936-1.368c-0.228-0.524-0.341-1.089-0.341-1.693
				c0-0.596,0.116-1.155,0.348-1.68c0.232-0.525,0.546-0.982,0.942-1.375s0.86-0.699,1.39-0.921
				c0.529-0.224,1.091-0.333,1.686-0.333c0.605,0,1.176,0.109,1.709,0.333c0.533,0.222,0.998,0.523,1.396,0.906
				c0.396,0.383,0.708,0.839,0.936,1.367C3149.99,351.898,3150.106,352.467,3150.106,353.07z M3148.065,353.07
				c0-0.35-0.063-0.676-0.186-0.979c-0.121-0.303-0.289-0.566-0.5-0.794c-0.213-0.228-0.461-0.403-0.742-0.531
				c-0.283-0.127-0.584-0.191-0.904-0.191s-0.622,0.064-0.904,0.191c-0.283,0.128-0.529,0.305-0.742,0.531
				c-0.211,0.228-0.379,0.491-0.502,0.794c-0.121,0.303-0.184,0.629-0.184,0.979c0,0.351,0.063,0.676,0.184,0.979
				c0.123,0.303,0.291,0.566,0.502,0.794c0.213,0.227,0.459,0.402,0.742,0.53c0.282,0.129,0.584,0.191,0.904,0.191
				s0.621-0.063,0.904-0.191c0.281-0.128,0.529-0.305,0.742-0.53c0.211-0.228,0.379-0.491,0.5-0.794
				C3148.002,353.746,3148.065,353.421,3148.065,353.07z"/>
			<path d="M3158.496,357.18h-2.341l-1.7-2.622l-1.715,2.622h-2.339l2.92-4.295l-2.679-3.927h2.31l1.503,2.297l1.488-2.297h2.324
				l-2.692,3.927L3158.496,357.18z"/>
		</g>
		<g enable-background="new    ">
			<path d="M3018.863,374.176h-2.083v-0.426c-0.265,0.218-0.553,0.375-0.865,0.476c-0.312,0.099-0.643,0.147-0.991,0.147
				c-0.576,0-1.105-0.114-1.587-0.347c-0.482-0.231-0.897-0.544-1.247-0.936c-0.351-0.394-0.621-0.85-0.815-1.368
				c-0.193-0.521-0.29-1.067-0.29-1.645c0-0.613,0.11-1.184,0.333-1.708c0.223-0.523,0.519-0.979,0.887-1.367
				c0.367-0.388,0.789-0.691,1.262-0.914c0.472-0.223,0.959-0.333,1.459-0.333c0.35,0,0.689,0.048,1.021,0.142
				c0.331,0.095,0.614,0.227,0.852,0.397v-3.885h2.069v11.766H3018.863z M3016.808,371.977v-3.939
				c-0.095-0.065-0.204-0.13-0.327-0.19c-0.124-0.063-0.252-0.113-0.385-0.156c-0.133-0.042-0.266-0.075-0.398-0.099
				c-0.131-0.024-0.25-0.036-0.354-0.036c-0.341,0-0.651,0.06-0.932,0.178c-0.281,0.118-0.524,0.288-0.732,0.51
				c-0.209,0.224-0.37,0.489-0.482,0.802c-0.114,0.312-0.171,0.656-0.171,1.034c0,0.368,0.057,0.706,0.171,1.014
				c0.112,0.308,0.27,0.571,0.469,0.794s0.438,0.395,0.719,0.518c0.279,0.123,0.586,0.186,0.917,0.186
				C3015.84,372.589,3016.343,372.385,3016.808,371.977z"/>
			<path d="M3029.025,370.064c0,0.133-0.007,0.27-0.021,0.411c-0.015,0.142-0.03,0.288-0.051,0.438h-6.548
				c0.076,0.236,0.182,0.461,0.319,0.674c0.137,0.213,0.305,0.396,0.503,0.553s0.423,0.279,0.673,0.369
				c0.251,0.09,0.527,0.135,0.829,0.135c0.369,0,0.737-0.064,1.106-0.191c0.367-0.128,0.675-0.3,0.92-0.518l1.291,1.29
				c-0.567,0.425-1.123,0.725-1.666,0.898c-0.543,0.176-1.117,0.264-1.723,0.264c-0.613,0-1.188-0.113-1.722-0.341
				s-0.997-0.533-1.39-0.922c-0.393-0.388-0.701-0.844-0.928-1.367c-0.229-0.524-0.342-1.084-0.342-1.68s0.113-1.154,0.342-1.68
				c0.227-0.523,0.537-0.979,0.935-1.368c0.397-0.387,0.86-0.693,1.39-0.921c0.53-0.227,1.096-0.34,1.7-0.34
				c0.576,0,1.129,0.105,1.658,0.318c0.528,0.213,0.997,0.508,1.403,0.886c0.405,0.378,0.728,0.829,0.964,1.354
				C3028.905,368.852,3029.025,369.431,3029.025,370.064z M3026.885,369.27c-0.161-0.521-0.447-0.938-0.858-1.254
				c-0.409-0.316-0.876-0.476-1.396-0.476c-0.512,0-0.969,0.158-1.375,0.476s-0.689,0.733-0.852,1.254H3026.885z"/>
			<path d="M3036.31,371.88c0,0.405-0.095,0.768-0.284,1.084c-0.188,0.315-0.437,0.581-0.738,0.794
				c-0.303,0.213-0.645,0.373-1.022,0.48c-0.378,0.108-0.753,0.163-1.122,0.163c-0.625,0-1.2-0.115-1.727-0.347
				c-0.525-0.231-0.986-0.604-1.386-1.113l1.233-1.247c0.245,0.313,0.529,0.556,0.851,0.73c0.322,0.174,0.666,0.262,1.034,0.262
				c0.321,0,0.589-0.059,0.801-0.177c0.213-0.118,0.319-0.296,0.319-0.532c0-0.245-0.151-0.451-0.454-0.616
				c-0.302-0.165-0.729-0.328-1.275-0.489c-0.32-0.094-0.633-0.215-0.936-0.36c-0.302-0.146-0.571-0.326-0.809-0.538
				c-0.235-0.213-0.425-0.456-0.566-0.73c-0.143-0.272-0.212-0.59-0.212-0.948c0-0.396,0.092-0.755,0.276-1.07
				c0.186-0.316,0.427-0.581,0.725-0.794c0.299-0.212,0.637-0.375,1.016-0.488c0.38-0.113,0.764-0.17,1.151-0.17
				c1.25,0,2.272,0.473,3.068,1.417l-1.22,1.233c-0.235-0.293-0.506-0.524-0.809-0.695c-0.303-0.17-0.633-0.255-0.992-0.255
				c-0.123,0-0.253,0.017-0.39,0.05s-0.265,0.08-0.383,0.142c-0.118,0.063-0.216,0.143-0.29,0.241
				c-0.076,0.099-0.113,0.21-0.113,0.333c0,0.218,0.145,0.406,0.432,0.566c0.288,0.161,0.702,0.32,1.24,0.481
				c0.35,0.104,0.681,0.236,0.992,0.396c0.313,0.161,0.586,0.348,0.822,0.561c0.235,0.212,0.423,0.453,0.56,0.724
				C3036.24,371.233,3036.31,371.539,3036.31,371.88z"/>
			<path d="M3039.698,364.552h-2.126v-2.126h2.126V364.552z M3039.668,374.176h-2.068v-8.206h2.068V374.176z"/>
			<path d="M3049.066,367.598h-0.865c0.218,0.425,0.326,0.879,0.326,1.359c0,0.368-0.068,0.727-0.205,1.07
				c-0.138,0.345-0.333,0.659-0.589,0.942c-0.255,0.283-0.564,0.523-0.928,0.723c-0.364,0.198-0.772,0.331-1.228,0.397
				c-0.312,0.047-0.545,0.12-0.701,0.219c-0.155,0.1-0.233,0.199-0.233,0.298c0,0.1,0.078,0.191,0.233,0.276
				c0.156,0.085,0.39,0.142,0.701,0.17c1.06,0.095,1.878,0.358,2.459,0.794c0.581,0.435,0.872,1.011,0.872,1.729
				c0,0.368-0.09,0.708-0.27,1.021c-0.179,0.312-0.436,0.581-0.77,0.808c-0.334,0.228-0.736,0.401-1.207,0.524
				s-0.998,0.185-1.582,0.185c-0.593,0-1.127-0.062-1.604-0.185c-0.476-0.123-0.883-0.295-1.222-0.519
				c-0.339-0.222-0.598-0.487-0.775-0.801c-0.179-0.312-0.27-0.656-0.27-1.034c0-0.566,0.162-1.042,0.485-1.425
				s0.852-0.668,1.583-0.856c-0.228-0.085-0.392-0.2-0.489-0.348c-0.1-0.146-0.145-0.296-0.135-0.446s0.073-0.296,0.191-0.433
				c0.117-0.137,0.285-0.243,0.504-0.318c-0.248-0.113-0.483-0.261-0.707-0.439c-0.225-0.179-0.427-0.387-0.606-0.623
				s-0.323-0.501-0.428-0.794c-0.105-0.293-0.157-0.604-0.157-0.937c0-0.443,0.095-0.858,0.283-1.246
				c0.188-0.389,0.443-0.727,0.766-1.015s0.694-0.515,1.12-0.68c0.425-0.166,0.873-0.248,1.347-0.248
				c0.463,0,0.894,0.07,1.289,0.212h2.808v1.618H3049.066z M3046.867,375.578c0-0.331-0.167-0.571-0.501-0.723
				s-0.765-0.228-1.292-0.228c-0.563,0-1.01,0.081-1.334,0.24c-0.324,0.161-0.486,0.397-0.486,0.709c0,0.321,0.17,0.563,0.509,0.724
				c0.339,0.16,0.775,0.24,1.313,0.24c0.546,0,0.981-0.077,1.306-0.233C3046.705,376.152,3046.867,375.908,3046.867,375.578z
				 M3046.486,368.96c0-0.208-0.04-0.401-0.118-0.581c-0.08-0.181-0.188-0.339-0.323-0.476c-0.136-0.137-0.295-0.246-0.479-0.326
				c-0.182-0.08-0.376-0.12-0.582-0.12s-0.396,0.04-0.575,0.12s-0.334,0.189-0.471,0.326c-0.136,0.137-0.242,0.295-0.322,0.476
				c-0.08,0.18-0.119,0.373-0.119,0.581s0.039,0.403,0.119,0.588s0.188,0.346,0.322,0.481s0.292,0.246,0.471,0.326
				s0.369,0.12,0.575,0.12s0.4-0.04,0.582-0.12c0.184-0.08,0.343-0.189,0.479-0.326s0.243-0.298,0.323-0.481
				C3046.446,369.363,3046.486,369.168,3046.486,368.96z"/>
			<path d="M3057.513,374.176h-2.041v-4.891c0-0.293-0.046-0.551-0.136-0.771c-0.091-0.222-0.211-0.406-0.363-0.553
				c-0.151-0.146-0.324-0.256-0.521-0.326c-0.194-0.07-0.396-0.106-0.604-0.106c-0.313,0-0.621,0.055-0.925,0.163
				c-0.305,0.108-0.58,0.281-0.826,0.518v5.968h-2.04v-8.192h2.04l0.015,0.609c0.123-0.122,0.274-0.235,0.453-0.34
				c0.18-0.104,0.366-0.191,0.561-0.263c0.193-0.07,0.393-0.126,0.595-0.163c0.203-0.037,0.399-0.057,0.59-0.057
				c0.415,0,0.813,0.065,1.197,0.198c0.383,0.132,0.723,0.335,1.021,0.608c0.298,0.274,0.536,0.628,0.716,1.063
				c0.181,0.435,0.271,0.95,0.271,1.545v4.989H3057.513z"/>
			<path d="M3067.532,370.064c0,0.133-0.008,0.27-0.021,0.411c-0.016,0.142-0.031,0.288-0.051,0.438h-6.548
				c0.075,0.236,0.183,0.461,0.318,0.674c0.137,0.213,0.305,0.396,0.504,0.553c0.198,0.156,0.422,0.279,0.673,0.369
				c0.25,0.09,0.526,0.135,0.829,0.135c0.368,0,0.737-0.064,1.105-0.191c0.368-0.128,0.676-0.3,0.921-0.518l1.29,1.29
				c-0.566,0.425-1.122,0.725-1.665,0.898c-0.544,0.176-1.118,0.264-1.723,0.264c-0.614,0-1.188-0.113-1.723-0.341
				c-0.533-0.228-0.997-0.533-1.389-0.922c-0.393-0.388-0.702-0.844-0.929-1.367c-0.228-0.524-0.341-1.084-0.341-1.68
				s0.113-1.154,0.341-1.68c0.227-0.525,0.539-0.979,0.936-1.368c0.396-0.387,0.859-0.693,1.39-0.921
				c0.529-0.227,1.097-0.34,1.7-0.34c0.576,0,1.129,0.105,1.658,0.318s0.997,0.508,1.403,0.886s0.728,0.829,0.964,1.354
				C3067.414,368.852,3067.532,369.431,3067.532,370.064z M3065.393,369.27c-0.161-0.521-0.446-0.938-0.857-1.254
				c-0.41-0.316-0.877-0.476-1.396-0.476c-0.51,0-0.969,0.158-1.374,0.476c-0.407,0.315-0.689,0.733-0.852,1.254H3065.393z"/>
			<path d="M3076.406,374.176h-2.084v-0.426c-0.265,0.218-0.553,0.375-0.864,0.476c-0.312,0.099-0.643,0.147-0.991,0.147
				c-0.576,0-1.105-0.114-1.587-0.347c-0.482-0.23-0.898-0.544-1.248-0.936c-0.351-0.394-0.621-0.85-0.814-1.368
				c-0.193-0.521-0.291-1.067-0.291-1.645c0-0.613,0.111-1.184,0.333-1.708c0.224-0.523,0.519-0.979,0.886-1.367
				c0.369-0.388,0.789-0.691,1.263-0.914c0.473-0.223,0.959-0.333,1.46-0.333c0.35,0,0.688,0.048,1.021,0.142
				c0.331,0.095,0.614,0.227,0.852,0.397v-3.885h2.069v11.766H3076.406z M3074.35,371.977v-3.939
				c-0.095-0.065-0.204-0.13-0.327-0.19c-0.122-0.062-0.251-0.113-0.384-0.156c-0.133-0.042-0.266-0.075-0.398-0.099
				c-0.131-0.024-0.25-0.036-0.354-0.036c-0.342,0-0.652,0.06-0.933,0.178c-0.279,0.118-0.523,0.288-0.732,0.51
				c-0.208,0.224-0.369,0.489-0.482,0.802c-0.114,0.312-0.172,0.656-0.172,1.034c0,0.368,0.058,0.706,0.172,1.014
				c0.113,0.308,0.271,0.571,0.47,0.794c0.198,0.223,0.438,0.395,0.718,0.518s0.586,0.186,0.918,0.186
				C3073.383,372.589,3073.885,372.385,3074.35,371.977z"/>
			<path d="M3090.449,370.079c0,0.576-0.098,1.124-0.291,1.645c-0.193,0.52-0.467,0.976-0.816,1.368
				c-0.352,0.392-0.769,0.704-1.25,0.936c-0.483,0.231-1.014,0.348-1.592,0.348c-0.359,0-0.695-0.051-1.009-0.148
				c-0.313-0.1-0.605-0.258-0.882-0.475v0.425h-2.04v-11.765h2.055l0.015,3.97c0.235-0.189,0.518-0.342,0.844-0.454
				c0.326-0.113,0.668-0.17,1.027-0.17c0.5,0,0.986,0.11,1.459,0.333c0.474,0.223,0.894,0.526,1.263,0.914
				c0.368,0.388,0.663,0.844,0.886,1.367C3090.339,368.895,3090.449,369.466,3090.449,370.079z M3088.381,370.079
				c0-0.378-0.057-0.724-0.171-1.034c-0.113-0.313-0.272-0.578-0.478-0.802c-0.204-0.222-0.445-0.392-0.726-0.51
				c-0.279-0.118-0.591-0.178-0.933-0.178c-0.219,0-0.47,0.045-0.754,0.135s-0.521,0.206-0.711,0.348v3.939
				c0.445,0.407,0.948,0.61,1.509,0.61c0.321,0,0.623-0.063,0.903-0.186c0.278-0.123,0.519-0.295,0.718-0.518
				c0.198-0.223,0.355-0.486,0.47-0.794C3088.323,370.785,3088.381,370.447,3088.381,370.079z"/>
			<path d="M3099.166,365.969l-3.686,9.735c-0.273,0.729-0.633,1.252-1.077,1.573c-0.443,0.321-0.974,0.482-1.587,0.482
				c-0.095,0-0.199-0.007-0.313-0.021c-0.113-0.014-0.223-0.035-0.326-0.063l-0.68-1.899c0.16,0.075,0.326,0.135,0.496,0.177
				c0.17,0.043,0.33,0.064,0.48,0.064c0.321,0,0.614-0.073,0.879-0.22c0.266-0.147,0.469-0.418,0.609-0.815l0.283-0.822l-3.16-8.19
				h2.226l1.886,5.271l1.771-5.271L3099.166,365.969L3099.166,365.969z"/>
			<path d="M3111.086,370.377c0,0.766-0.136,1.402-0.403,1.913c-0.271,0.511-0.599,0.922-0.985,1.232
				c-0.388,0.313-0.801,0.534-1.24,0.667c-0.438,0.132-0.834,0.198-1.184,0.198c-0.644,0-1.254-0.151-1.835-0.454
				c-0.581-0.302-1.065-0.703-1.453-1.204l1.445-1.432c0.188,0.303,0.435,0.538,0.737,0.708c0.303,0.171,0.613,0.256,0.936,0.256
				c0.217,0,0.43-0.04,0.638-0.121c0.208-0.08,0.396-0.195,0.561-0.347c0.166-0.151,0.298-0.337,0.396-0.554
				c0.1-0.218,0.148-0.468,0.148-0.751v-7.64h2.239V370.377z"/>
			<path d="M3119.434,374.176h-2.041v-0.439c-0.357,0.246-0.739,0.416-1.141,0.511s-0.814,0.143-1.24,0.143
				c-0.396,0-0.756-0.061-1.077-0.178c-0.321-0.118-0.601-0.288-0.836-0.511c-0.235-0.222-0.418-0.483-0.546-0.787
				c-0.128-0.302-0.191-0.638-0.191-1.006c0-0.463,0.103-0.867,0.306-1.212c0.202-0.345,0.479-0.633,0.829-0.864
				c0.35-0.23,0.759-0.403,1.227-0.518c0.469-0.114,0.971-0.17,1.51-0.17h1.177c0-0.482-0.156-0.865-0.468-1.148
				c-0.313-0.283-0.762-0.425-1.348-0.425c-0.283,0-0.576,0.052-0.879,0.155c-0.302,0.104-0.604,0.293-0.906,0.566l-1.205-1.219
				c0.436-0.416,0.938-0.736,1.511-0.964c0.571-0.227,1.159-0.34,1.764-0.34c0.567,0,1.072,0.09,1.515,0.269
				c0.442,0.181,0.801,0.411,1.072,0.694c0.355,0.359,0.607,0.761,0.753,1.205s0.218,1.012,0.218,1.701v4.536H3119.434z
				 M3117.393,372.135v-1.518h-0.936c-0.283,0-0.551,0.021-0.801,0.058c-0.251,0.038-0.468,0.102-0.652,0.19
				c-0.184,0.089-0.33,0.206-0.438,0.349c-0.108,0.142-0.163,0.312-0.163,0.51c0,0.283,0.111,0.516,0.333,0.694
				c0.222,0.18,0.508,0.27,0.856,0.27c0.304,0,0.604-0.047,0.9-0.142C3116.789,372.45,3117.091,372.313,3117.393,372.135z"/>
			<path d="M3128.392,372.941c-0.416,0.473-0.917,0.832-1.503,1.077c-0.586,0.246-1.2,0.369-1.843,0.369
				c-0.595,0-1.157-0.109-1.687-0.326c-0.529-0.218-0.988-0.518-1.377-0.9c-0.39-0.383-0.697-0.838-0.922-1.366
				c-0.227-0.529-0.338-1.102-0.338-1.716c0-0.604,0.112-1.17,0.338-1.693c0.225-0.524,0.53-0.979,0.915-1.367
				s0.841-0.692,1.369-0.914c0.528-0.223,1.096-0.333,1.7-0.333c0.623,0,1.217,0.113,1.778,0.34
				c0.563,0.228,1.052,0.571,1.468,1.034l-1.375,1.403c-0.209-0.273-0.461-0.501-0.759-0.681s-0.659-0.27-1.085-0.27
				c-0.312,0-0.605,0.065-0.886,0.198c-0.278,0.133-0.524,0.31-0.736,0.53c-0.213,0.224-0.381,0.484-0.504,0.787
				c-0.122,0.304-0.184,0.623-0.184,0.964s0.062,0.661,0.184,0.965c0.123,0.302,0.288,0.563,0.496,0.785
				c0.208,0.223,0.454,0.399,0.737,0.531c0.283,0.133,0.581,0.198,0.893,0.198c0.406,0,0.775-0.097,1.105-0.29
				c0.331-0.193,0.596-0.441,0.794-0.744L3128.392,372.941z"/>
			<path d="M3137.193,374.176h-2.423l-3.288-3.671v3.671h-2.084v-11.75h2.084v7.029l2.862-3.473h2.381l-3.357,3.983
				L3137.193,374.176z"/>
			<path d="M3148.545,372.135c-0.566,0.688-1.254,1.237-2.063,1.645s-1.698,0.609-2.672,0.609c-0.842,0-1.63-0.154-2.367-0.461
				c-0.736-0.308-1.378-0.726-1.923-1.254c-0.546-0.529-0.977-1.15-1.29-1.864c-0.314-0.713-0.473-1.481-0.473-2.303
				c0-0.822,0.157-1.591,0.473-2.305c0.313-0.713,0.744-1.337,1.29-1.871c0.545-0.532,1.187-0.95,1.923-1.254
				c0.737-0.303,1.525-0.453,2.367-0.453c0.974,0,1.863,0.203,2.672,0.609s1.48,0.937,2.02,1.587l-1.517,1.561
				c-0.351-0.501-0.801-0.905-1.354-1.212c-0.553-0.309-1.159-0.462-1.82-0.462c-0.529,0-1.027,0.103-1.495,0.306
				s-0.877,0.478-1.227,0.821c-0.351,0.346-0.627,0.746-0.829,1.205c-0.204,0.458-0.306,0.947-0.306,1.468
				c0,0.51,0.103,0.993,0.306,1.451c0.202,0.46,0.479,0.86,0.829,1.205c0.35,0.346,0.759,0.619,1.227,0.822s0.966,0.305,1.495,0.305
				c0.699,0,1.318-0.157,1.855-0.475c0.539-0.317,0.987-0.735,1.348-1.255L3148.545,372.135z"/>
			<path d="M3156.058,374.176h-2.041v-0.439c-0.358,0.246-0.739,0.416-1.142,0.511c-0.401,0.095-0.814,0.143-1.239,0.143
				c-0.397,0-0.757-0.061-1.077-0.178c-0.321-0.118-0.602-0.288-0.837-0.511c-0.235-0.222-0.418-0.483-0.545-0.787
				c-0.128-0.302-0.19-0.638-0.19-1.006c0-0.463,0.102-0.867,0.305-1.212s0.479-0.633,0.829-0.864
				c0.35-0.23,0.758-0.403,1.226-0.518c0.469-0.114,0.971-0.17,1.51-0.17h1.177c0-0.482-0.155-0.865-0.468-1.148
				c-0.313-0.282-0.761-0.425-1.347-0.425c-0.284,0-0.577,0.052-0.879,0.155c-0.303,0.104-0.604,0.293-0.907,0.566l-1.205-1.219
				c0.436-0.416,0.938-0.736,1.511-0.964c0.571-0.227,1.159-0.34,1.765-0.34c0.566,0,1.071,0.09,1.515,0.269
				c0.442,0.181,0.8,0.411,1.071,0.694c0.357,0.359,0.607,0.761,0.753,1.205s0.219,1.012,0.219,1.701v4.536H3156.058z
				 M3154.017,372.135v-1.518h-0.937c-0.282,0-0.551,0.021-0.801,0.058c-0.25,0.038-0.468,0.102-0.652,0.19
				c-0.184,0.09-0.33,0.206-0.438,0.349c-0.108,0.142-0.162,0.312-0.162,0.51c0,0.283,0.11,0.516,0.333,0.694
				c0.222,0.18,0.508,0.27,0.857,0.27c0.302,0,0.603-0.047,0.898-0.142C3153.414,372.45,3153.714,372.313,3154.017,372.135z"/>
			<path d="M3163.513,366.834l-1.093,1.729c-0.197-0.218-0.418-0.409-0.658-0.574c-0.241-0.165-0.484-0.248-0.729-0.248
				c-0.133,0-0.275,0.03-0.433,0.092c-0.157,0.063-0.303,0.163-0.439,0.306c-0.136,0.142-0.253,0.329-0.347,0.561
				c-0.095,0.231-0.144,0.518-0.144,0.857v4.62h-2.039v-8.192h2.039v0.879c0.246-0.35,0.519-0.618,0.815-0.808
				c0.297-0.19,0.631-0.283,0.999-0.283c0.359,0,0.711,0.097,1.056,0.29C3162.887,366.256,3163.209,366.511,3163.513,366.834z"/>
			<path d="M3168.799,373.99c-0.208,0.133-0.449,0.231-0.723,0.298c-0.274,0.066-0.55,0.101-0.822,0.101
				c-0.482,0-0.889-0.061-1.219-0.178c-0.332-0.118-0.597-0.301-0.795-0.546c-0.197-0.245-0.343-0.558-0.433-0.936
				s-0.135-0.822-0.135-1.333v-3.585h-1.077v-0.922c0.662-0.273,1.198-0.682,1.609-1.219c0.41-0.539,0.69-1.237,0.843-2.099h0.666
				v2.396h2.069v1.843h-2.069v3.728c0,0.207,0.025,0.378,0.077,0.511c0.053,0.133,0.121,0.235,0.207,0.312
				c0.084,0.076,0.182,0.128,0.289,0.156c0.108,0.028,0.226,0.042,0.349,0.042c0.159,0,0.354-0.028,0.581-0.085
				c0.227-0.057,0.42-0.15,0.581-0.283L3168.799,373.99L3168.799,373.99z"/>
			<path d="M3178.465,370.064c0,0.133-0.008,0.27-0.021,0.411c-0.015,0.142-0.031,0.288-0.05,0.438h-6.548
				c0.074,0.236,0.182,0.461,0.318,0.674s0.305,0.396,0.504,0.553c0.197,0.156,0.422,0.279,0.673,0.369
				c0.25,0.09,0.525,0.135,0.829,0.135c0.367,0,0.736-0.064,1.104-0.191c0.368-0.128,0.677-0.3,0.921-0.518l1.29,1.29
				c-0.565,0.425-1.122,0.725-1.665,0.898c-0.544,0.176-1.117,0.264-1.723,0.264c-0.614,0-1.188-0.113-1.722-0.341
				s-0.997-0.533-1.39-0.922c-0.393-0.388-0.701-0.844-0.929-1.367c-0.227-0.524-0.34-1.084-0.34-1.68s0.113-1.154,0.34-1.68
				c0.228-0.525,0.539-0.979,0.937-1.368c0.396-0.387,0.858-0.693,1.389-0.921c0.53-0.227,1.097-0.34,1.701-0.34
				c0.576,0,1.129,0.105,1.658,0.318c0.528,0.213,0.996,0.508,1.402,0.886s0.729,0.829,0.965,1.354
				C3178.346,368.852,3178.465,369.431,3178.465,370.064z M3176.323,369.27c-0.161-0.521-0.446-0.938-0.856-1.254
				c-0.411-0.316-0.877-0.476-1.396-0.476c-0.51,0-0.969,0.158-1.374,0.476c-0.407,0.315-0.689,0.733-0.851,1.254H3176.323z"/>
			<path d="M3185.621,366.834l-1.091,1.729c-0.198-0.218-0.419-0.409-0.659-0.574s-0.483-0.248-0.729-0.248
				c-0.132,0-0.276,0.03-0.432,0.092c-0.156,0.063-0.304,0.163-0.439,0.306c-0.138,0.142-0.253,0.329-0.348,0.561
				c-0.095,0.232-0.142,0.518-0.142,0.857v4.62h-2.041v-8.192h2.041v0.879c0.244-0.35,0.518-0.618,0.813-0.808
				c0.298-0.189,0.631-0.283,1-0.283c0.358,0,0.711,0.097,1.056,0.29C3184.996,366.256,3185.32,366.511,3185.621,366.834z"/>
		</g>
		<g enable-background="new    ">
			<path d="M3007.851,390.998c-0.208,0.134-0.449,0.231-0.723,0.299c-0.274,0.065-0.55,0.1-0.822,0.1
				c-0.481,0-0.889-0.06-1.219-0.178c-0.331-0.118-0.597-0.3-0.794-0.545c-0.198-0.246-0.344-0.559-0.434-0.937
				s-0.135-0.822-0.135-1.333v-3.585h-1.077v-0.922c0.662-0.273,1.198-0.681,1.609-1.219c0.411-0.539,0.69-1.237,0.843-2.099h0.666
				v2.396h2.069v1.843h-2.069v3.729c0,0.207,0.025,0.378,0.078,0.51c0.052,0.133,0.121,0.235,0.206,0.312s0.182,0.128,0.29,0.156
				c0.107,0.028,0.225,0.042,0.348,0.042c0.16,0,0.354-0.028,0.581-0.085s0.42-0.15,0.581-0.283L3007.851,390.998L3007.851,390.998z
				"/>
			<path d="M3017.517,387.088c0,0.613-0.113,1.184-0.34,1.707c-0.229,0.523-0.539,0.979-0.937,1.36
				c-0.396,0.383-0.861,0.686-1.396,0.907c-0.533,0.222-1.104,0.333-1.708,0.333c-0.604,0-1.171-0.111-1.7-0.333
				c-0.529-0.223-0.992-0.527-1.39-0.914c-0.396-0.388-0.708-0.844-0.936-1.368c-0.228-0.523-0.341-1.089-0.341-1.692
				c0-0.597,0.116-1.155,0.348-1.681c0.232-0.524,0.546-0.981,0.942-1.375c0.396-0.392,0.858-0.698,1.389-0.921
				c0.529-0.223,1.092-0.333,1.688-0.333c0.604,0,1.175,0.11,1.707,0.333c0.534,0.223,1,0.524,1.396,0.906
				c0.396,0.383,0.708,0.839,0.936,1.368S3017.517,386.482,3017.517,387.088z M3015.476,387.088c0-0.351-0.062-0.677-0.185-0.979
				c-0.123-0.302-0.289-0.565-0.502-0.794c-0.211-0.227-0.459-0.403-0.74-0.531c-0.283-0.127-0.584-0.19-0.904-0.19
				s-0.622,0.063-0.904,0.19c-0.283,0.128-0.529,0.306-0.742,0.531c-0.211,0.229-0.379,0.492-0.502,0.794
				c-0.121,0.303-0.184,0.629-0.184,0.979c0,0.35,0.063,0.676,0.184,0.978c0.123,0.303,0.291,0.567,0.502,0.794
				c0.213,0.228,0.459,0.403,0.742,0.531c0.282,0.128,0.584,0.19,0.904,0.19s0.621-0.063,0.904-0.19
				c0.281-0.128,0.529-0.305,0.74-0.531c0.213-0.226,0.379-0.491,0.502-0.794S3015.476,387.436,3015.476,387.088z"/>
			<path d="M3031.137,387.088c0,0.575-0.098,1.124-0.291,1.644c-0.194,0.521-0.467,0.976-0.817,1.368
				c-0.351,0.392-0.768,0.704-1.25,0.936s-1.014,0.348-1.591,0.348c-0.36,0-0.696-0.051-1.009-0.148
				c-0.313-0.1-0.606-0.258-0.882-0.475v0.425h-2.041v-11.764h2.056l0.015,3.969c0.235-0.189,0.518-0.341,0.843-0.454
				c0.326-0.113,0.668-0.17,1.027-0.17c0.501,0,0.987,0.11,1.46,0.333s0.893,0.526,1.262,0.914c0.368,0.388,0.663,0.844,0.887,1.368
				C3031.026,385.903,3031.137,386.472,3031.137,387.088z M3029.068,387.088c0-0.378-0.057-0.725-0.171-1.035
				c-0.113-0.313-0.271-0.578-0.477-0.801c-0.204-0.223-0.445-0.393-0.727-0.511c-0.279-0.118-0.59-0.178-0.932-0.178
				c-0.219,0-0.47,0.045-0.754,0.135c-0.285,0.09-0.521,0.206-0.712,0.349v3.938c0.446,0.407,0.949,0.61,1.509,0.61
				c0.322,0,0.623-0.063,0.903-0.186c0.279-0.123,0.519-0.295,0.718-0.518c0.199-0.222,0.356-0.486,0.471-0.794
				C3029.011,387.794,3029.068,387.455,3029.068,387.088z"/>
			<path d="M3040.873,387.072c0,0.133-0.008,0.271-0.021,0.411c-0.015,0.142-0.031,0.288-0.05,0.439h-6.549
				c0.075,0.235,0.183,0.461,0.318,0.673c0.137,0.213,0.305,0.396,0.504,0.553c0.198,0.156,0.422,0.279,0.674,0.369
				c0.25,0.09,0.525,0.135,0.828,0.135c0.368,0,0.737-0.063,1.105-0.19c0.368-0.128,0.676-0.301,0.921-0.519l1.29,1.29
				c-0.566,0.425-1.122,0.726-1.665,0.899c-0.544,0.175-1.118,0.263-1.723,0.263c-0.614,0-1.188-0.113-1.722-0.341
				c-0.534-0.228-0.998-0.533-1.39-0.921c-0.393-0.389-0.702-0.845-0.929-1.368c-0.227-0.524-0.34-1.084-0.34-1.679
				c0-0.597,0.113-1.155,0.34-1.681c0.227-0.524,0.539-0.979,0.936-1.368c0.396-0.387,0.859-0.693,1.39-0.921
				c0.53-0.227,1.097-0.34,1.7-0.34c0.576,0,1.129,0.105,1.658,0.318s0.997,0.508,1.403,0.886s0.728,0.829,0.964,1.354
				C3040.754,385.86,3040.873,386.439,3040.873,387.072z M3038.734,386.278c-0.161-0.52-0.446-0.938-0.856-1.254
				c-0.411-0.315-0.877-0.475-1.396-0.475c-0.51,0-0.969,0.157-1.374,0.475c-0.407,0.316-0.69,0.734-0.851,1.254H3038.734z"/>
			<path d="M3053.998,389.949c-0.416,0.474-0.918,0.832-1.504,1.077c-0.586,0.246-1.199,0.369-1.843,0.369
				c-0.595,0-1.157-0.109-1.686-0.326c-0.529-0.218-0.988-0.518-1.377-0.899c-0.39-0.384-0.697-0.839-0.923-1.367
				c-0.226-0.529-0.338-1.102-0.338-1.715c0-0.604,0.112-1.17,0.338-1.694s0.53-0.979,0.916-1.367
				c0.385-0.388,0.841-0.691,1.368-0.914c0.529-0.223,1.097-0.333,1.7-0.333c0.624,0,1.217,0.113,1.779,0.34
				c0.562,0.228,1.051,0.571,1.467,1.034l-1.375,1.403c-0.208-0.273-0.461-0.501-0.758-0.68c-0.299-0.181-0.659-0.271-1.085-0.271
				c-0.313,0-0.606,0.066-0.886,0.198c-0.278,0.133-0.524,0.31-0.736,0.531c-0.213,0.223-0.381,0.483-0.504,0.786
				c-0.122,0.304-0.185,0.623-0.185,0.965c0,0.34,0.063,0.66,0.185,0.964c0.123,0.302,0.288,0.563,0.496,0.786
				c0.208,0.222,0.454,0.398,0.736,0.53c0.283,0.133,0.582,0.198,0.894,0.198c0.406,0,0.774-0.097,1.104-0.29
				c0.332-0.193,0.597-0.441,0.795-0.744L3053.998,389.949z"/>
			<path d="M3062.261,391.182h-2.041v-0.624c-0.134,0.133-0.286,0.248-0.461,0.348c-0.175,0.101-0.359,0.186-0.554,0.255
				c-0.192,0.071-0.392,0.125-0.595,0.163c-0.202,0.038-0.395,0.058-0.573,0.058c-0.416,0-0.815-0.066-1.197-0.198
				c-0.383-0.132-0.721-0.335-1.014-0.609c-0.293-0.273-0.527-0.628-0.702-1.063c-0.175-0.436-0.263-0.949-0.263-1.545v-4.976h2.041
				v4.876c0,0.293,0.045,0.552,0.136,0.772c0.09,0.221,0.207,0.406,0.354,0.553s0.316,0.255,0.511,0.326
				c0.192,0.07,0.395,0.105,0.603,0.105c0.661,0,1.233-0.228,1.715-0.681v-5.953h2.041V391.182L3062.261,391.182z"/>
			<path d="M3068.526,390.998c-0.208,0.134-0.449,0.231-0.723,0.299c-0.274,0.065-0.549,0.1-0.822,0.1
				c-0.482,0-0.889-0.06-1.219-0.178c-0.331-0.118-0.596-0.3-0.794-0.545c-0.198-0.246-0.343-0.559-0.434-0.937
				c-0.09-0.378-0.135-0.822-0.135-1.333v-3.585h-1.077v-0.922c0.662-0.273,1.198-0.681,1.609-1.219
				c0.41-0.539,0.69-1.237,0.843-2.099h0.666v2.396h2.069v1.843h-2.069v3.729c0,0.207,0.026,0.378,0.078,0.51
				c0.052,0.133,0.121,0.235,0.206,0.312s0.182,0.128,0.29,0.156s0.225,0.042,0.348,0.042c0.16,0,0.354-0.028,0.581-0.085
				s0.42-0.15,0.581-0.283L3068.526,390.998L3068.526,390.998z"/>
			<path d="M3076.321,381.558h-2.126v-2.126h2.126V381.558z M3076.291,391.182h-2.068v-8.206h2.068V391.182z"/>
			<path d="M3085.617,391.182h-2.041v-4.89c0-0.294-0.046-0.552-0.136-0.772s-0.211-0.406-0.363-0.553
				c-0.15-0.146-0.323-0.255-0.52-0.326c-0.194-0.07-0.396-0.106-0.604-0.106c-0.313,0-0.621,0.056-0.925,0.163
				c-0.304,0.108-0.579,0.281-0.826,0.519v5.967h-2.04v-8.192h2.04l0.015,0.609c0.123-0.122,0.274-0.235,0.453-0.34
				c0.18-0.104,0.366-0.191,0.562-0.263c0.192-0.07,0.392-0.126,0.595-0.162c0.203-0.038,0.398-0.058,0.589-0.058
				c0.415,0,0.814,0.065,1.197,0.198c0.383,0.132,0.723,0.335,1.021,0.609c0.299,0.273,0.536,0.628,0.717,1.063
				c0.18,0.436,0.27,0.95,0.27,1.545v4.989H3085.617z"/>
			<path d="M3100.158,387.754c0,0.595-0.111,1.121-0.333,1.579s-0.52,0.842-0.893,1.148c-0.374,0.307-0.812,0.538-1.313,0.694
				c-0.501,0.154-1.03,0.232-1.587,0.232c-0.974,0-1.843-0.187-2.607-0.56c-0.766-0.373-1.455-0.938-2.069-1.693l1.517-1.531
				c0.17,0.236,0.369,0.46,0.597,0.666c0.227,0.208,0.472,0.391,0.735,0.547c0.265,0.155,0.547,0.278,0.845,0.367
				c0.298,0.091,0.598,0.136,0.899,0.136c0.255,0,0.498-0.035,0.729-0.106c0.23-0.07,0.435-0.175,0.608-0.312
				c0.174-0.138,0.316-0.308,0.426-0.511c0.108-0.203,0.162-0.441,0.162-0.716c0-0.35-0.099-0.626-0.297-0.829
				c-0.199-0.203-0.447-0.355-0.744-0.461c-0.298-0.104-0.613-0.168-0.949-0.19c-0.335-0.023-0.637-0.035-0.899-0.035v-1.588
				c0.255,0,0.538-0.015,0.852-0.042c0.312-0.028,0.602-0.094,0.871-0.191c0.27-0.1,0.496-0.248,0.681-0.446
				c0.184-0.198,0.275-0.463,0.275-0.794c0-0.246-0.048-0.458-0.142-0.638c-0.095-0.18-0.22-0.328-0.376-0.446
				s-0.336-0.206-0.539-0.263s-0.418-0.085-0.645-0.085c-1.152,0-2.056,0.481-2.707,1.445l-1.53-1.518
				c0.565-0.68,1.179-1.178,1.835-1.495c0.656-0.315,1.429-0.475,2.316-0.475c0.473,0,0.949,0.073,1.432,0.22
				c0.481,0.146,0.92,0.356,1.312,0.631c0.394,0.274,0.711,0.616,0.957,1.027s0.368,0.877,0.368,1.396
				c0,0.266-0.045,0.518-0.135,0.759c-0.091,0.24-0.207,0.463-0.354,0.666c-0.146,0.202-0.321,0.388-0.523,0.553
				c-0.205,0.166-0.418,0.305-0.646,0.418c0.256,0.095,0.496,0.223,0.723,0.383c0.229,0.161,0.426,0.348,0.596,0.562
				c0.17,0.212,0.306,0.443,0.404,0.693C3100.11,387.202,3100.158,387.469,3100.158,387.754z"/>
			<path d="M3113.991,391.182h-2.041v-4.89c0-0.576-0.14-1.015-0.418-1.313c-0.278-0.297-0.621-0.446-1.026-0.446
				c-0.313,0-0.607,0.05-0.887,0.149c-0.279,0.099-0.551,0.262-0.814,0.488c0.085,0.33,0.128,0.703,0.128,1.119v4.891h-2.041v-4.891
				c0-0.575-0.14-1.014-0.418-1.312c-0.279-0.297-0.617-0.446-1.015-0.446c-0.312,0-0.586,0.056-0.821,0.163
				c-0.236,0.108-0.481,0.281-0.737,0.519v5.967h-2.04v-8.192h2.04l0.003,0.609c0.255-0.245,0.556-0.443,0.899-0.595
				c0.347-0.151,0.698-0.228,1.059-0.228c0.396,0,0.797,0.09,1.199,0.27s0.754,0.438,1.057,0.779
				c0.426-0.378,0.855-0.646,1.292-0.809c0.435-0.16,0.912-0.24,1.433-0.24c0.427,0,0.83,0.063,1.215,0.191
				c0.383,0.127,0.716,0.33,1,0.608c0.283,0.278,0.511,0.634,0.681,1.063c0.171,0.43,0.256,0.947,0.256,1.552v4.991H3113.991z"/>
			<path d="M3127.668,391.182h-2.041v-4.89c0-0.576-0.14-1.015-0.418-1.313c-0.278-0.297-0.621-0.446-1.026-0.446
				c-0.313,0-0.607,0.05-0.886,0.149c-0.279,0.099-0.552,0.262-0.815,0.488c0.085,0.33,0.128,0.703,0.128,1.119v4.891h-2.041v-4.891
				c0-0.575-0.14-1.014-0.418-1.312c-0.279-0.297-0.617-0.446-1.014-0.446c-0.313,0-0.586,0.056-0.822,0.163
				c-0.236,0.108-0.48,0.281-0.737,0.519v5.967h-2.04v-8.192h2.04l0.003,0.609c0.255-0.245,0.557-0.443,0.9-0.595
				c0.346-0.151,0.697-0.228,1.058-0.228c0.397,0,0.798,0.09,1.199,0.27c0.402,0.18,0.754,0.438,1.057,0.779
				c0.427-0.378,0.856-0.646,1.292-0.809c0.436-0.16,0.912-0.24,1.434-0.24c0.426,0,0.83,0.063,1.214,0.191
				c0.383,0.127,0.716,0.33,1,0.608c0.283,0.278,0.511,0.634,0.681,1.063c0.171,0.43,0.256,0.947,0.256,1.552v4.991H3127.668z"/>
			<path d="M3145.811,391.182h-2.041v-4.89c0-0.576-0.14-1.015-0.418-1.313c-0.279-0.297-0.621-0.446-1.027-0.446
				c-0.313,0-0.606,0.05-0.886,0.149c-0.279,0.099-0.551,0.262-0.815,0.488c0.086,0.33,0.129,0.703,0.129,1.119v4.891h-2.041v-4.891
				c0-0.575-0.141-1.014-0.418-1.312c-0.279-0.297-0.617-0.446-1.015-0.446c-0.312,0-0.586,0.056-0.821,0.163
				c-0.236,0.108-0.481,0.281-0.737,0.519v5.967h-2.04v-8.192h2.04l0.003,0.609c0.255-0.245,0.556-0.443,0.899-0.595
				c0.347-0.151,0.698-0.228,1.059-0.228c0.396,0,0.797,0.09,1.198,0.27c0.402,0.18,0.754,0.438,1.058,0.779
				c0.426-0.378,0.855-0.646,1.292-0.809c0.435-0.16,0.912-0.24,1.433-0.24c0.427,0,0.83,0.063,1.214,0.191
				c0.384,0.127,0.717,0.33,1,0.608s0.512,0.634,0.682,1.063c0.171,0.43,0.256,0.947,0.256,1.552v4.991H3145.811z"/>
			<path d="M3154.002,391.182h-2.041v-0.439c-0.358,0.246-0.738,0.416-1.141,0.512c-0.402,0.094-0.814,0.142-1.24,0.142
				c-0.396,0-0.757-0.06-1.076-0.178c-0.321-0.118-0.602-0.288-0.838-0.511c-0.235-0.222-0.418-0.483-0.545-0.786
				s-0.19-0.639-0.19-1.007c0-0.463,0.103-0.866,0.305-1.212c0.203-0.345,0.479-0.633,0.829-0.863
				c0.351-0.231,0.758-0.404,1.227-0.519c0.468-0.114,0.971-0.17,1.51-0.17h1.176c0-0.481-0.154-0.865-0.468-1.147
				c-0.312-0.283-0.76-0.426-1.346-0.426c-0.284,0-0.577,0.053-0.879,0.155c-0.304,0.104-0.604,0.293-0.907,0.567l-1.205-1.22
				c0.436-0.416,0.938-0.736,1.51-0.964c0.572-0.227,1.16-0.34,1.766-0.34c0.565,0,1.07,0.09,1.515,0.27
				c0.441,0.18,0.8,0.41,1.071,0.693c0.356,0.359,0.606,0.761,0.752,1.205c0.146,0.444,0.22,1.012,0.22,1.701v4.536H3154.002z
				 M3151.961,389.141v-1.518h-0.936c-0.283,0-0.551,0.021-0.801,0.058c-0.25,0.038-0.469,0.102-0.652,0.19
				c-0.184,0.091-0.33,0.206-0.439,0.349c-0.107,0.142-0.162,0.312-0.162,0.51c0,0.283,0.11,0.516,0.334,0.694
				c0.222,0.18,0.508,0.27,0.856,0.27c0.302,0,0.603-0.047,0.899-0.142C3151.36,389.459,3151.658,389.321,3151.961,389.141z"/>
			<path d="M3160.14,390.998c-0.208,0.134-0.449,0.231-0.724,0.299c-0.273,0.065-0.549,0.1-0.821,0.1c-0.482,0-0.89-0.06-1.22-0.178
				s-0.596-0.3-0.793-0.545c-0.198-0.246-0.344-0.559-0.434-0.937s-0.135-0.822-0.135-1.333v-3.585h-1.077v-0.922
				c0.662-0.273,1.198-0.681,1.608-1.219c0.411-0.539,0.691-1.237,0.844-2.099h0.666v2.396h2.068v1.843h-2.068v3.729
				c0,0.207,0.025,0.378,0.078,0.51c0.052,0.133,0.121,0.235,0.205,0.312c0.086,0.076,0.183,0.128,0.291,0.156
				c0.107,0.028,0.225,0.042,0.348,0.042c0.16,0,0.354-0.028,0.581-0.085c0.227-0.057,0.42-0.15,0.581-0.283L3160.14,390.998
				L3160.14,390.998z"/>
			<path d="M3169.806,387.072c0,0.133-0.009,0.271-0.021,0.411c-0.015,0.142-0.03,0.288-0.05,0.439h-6.548
				c0.075,0.235,0.182,0.461,0.317,0.673c0.138,0.213,0.306,0.396,0.504,0.553s0.423,0.279,0.674,0.369
				c0.25,0.09,0.525,0.135,0.829,0.135c0.368,0,0.737-0.063,1.104-0.19c0.368-0.128,0.676-0.301,0.921-0.519l1.29,1.29
				c-0.565,0.425-1.122,0.726-1.665,0.899c-0.544,0.175-1.118,0.263-1.723,0.263c-0.614,0-1.188-0.113-1.722-0.341
				c-0.534-0.228-0.997-0.533-1.389-0.921c-0.394-0.389-0.702-0.845-0.93-1.368c-0.227-0.524-0.34-1.084-0.34-1.679
				c0-0.597,0.113-1.155,0.34-1.681c0.228-0.524,0.539-0.979,0.937-1.368c0.396-0.387,0.858-0.693,1.389-0.921
				c0.53-0.227,1.097-0.34,1.701-0.34c0.575,0,1.129,0.105,1.657,0.318c0.529,0.213,0.998,0.508,1.403,0.886
				c0.406,0.378,0.729,0.829,0.964,1.354C3169.687,385.86,3169.806,386.439,3169.806,387.072z M3167.664,386.278
				c-0.16-0.52-0.445-0.938-0.856-1.254c-0.411-0.315-0.877-0.475-1.396-0.475c-0.511,0-0.97,0.157-1.375,0.475
				c-0.406,0.316-0.689,0.734-0.851,1.254H3167.664z"/>
			<path d="M3176.963,383.842l-1.092,1.729c-0.199-0.218-0.419-0.409-0.658-0.574c-0.241-0.165-0.484-0.248-0.73-0.248
				c-0.132,0-0.275,0.03-0.432,0.093c-0.156,0.062-0.303,0.163-0.439,0.305c-0.138,0.142-0.253,0.329-0.348,0.561
				c-0.095,0.232-0.143,0.518-0.143,0.857v4.62h-2.041v-8.192h2.041v0.879c0.246-0.35,0.519-0.617,0.814-0.808
				c0.298-0.189,0.631-0.283,1-0.283c0.357,0,0.711,0.098,1.056,0.29C3176.336,383.262,3176.659,383.519,3176.963,383.842z"/>
			<path d="M3179.812,381.558h-2.126v-2.126h2.126V381.558z M3179.782,391.182h-2.069v-8.206h2.069V391.182z"/>
			<path d="M3188.301,391.182h-2.041v-0.439c-0.358,0.246-0.739,0.416-1.142,0.512c-0.4,0.094-0.813,0.142-1.239,0.142
				c-0.396,0-0.757-0.06-1.077-0.178c-0.321-0.118-0.601-0.288-0.836-0.511c-0.236-0.222-0.418-0.483-0.546-0.786
				s-0.191-0.639-0.191-1.007c0-0.463,0.103-0.866,0.305-1.212c0.203-0.345,0.479-0.633,0.83-0.863
				c0.35-0.231,0.759-0.404,1.227-0.519s0.971-0.17,1.509-0.17h1.177c0-0.481-0.155-0.865-0.468-1.147
				c-0.312-0.283-0.761-0.426-1.347-0.426c-0.283,0-0.576,0.053-0.879,0.155c-0.302,0.104-0.604,0.293-0.906,0.567l-1.205-1.22
				c0.436-0.416,0.938-0.736,1.51-0.964c0.571-0.227,1.159-0.34,1.765-0.34c0.566,0,1.071,0.09,1.515,0.27
				c0.441,0.18,0.8,0.41,1.072,0.693c0.355,0.359,0.606,0.761,0.753,1.205c0.146,0.444,0.218,1.012,0.218,1.701v4.536H3188.301z
				 M3186.26,389.141v-1.518h-0.936c-0.283,0-0.551,0.021-0.801,0.058c-0.251,0.038-0.468,0.102-0.652,0.19
				c-0.184,0.09-0.331,0.206-0.438,0.349c-0.108,0.142-0.163,0.312-0.163,0.51c0,0.283,0.111,0.516,0.333,0.694
				c0.222,0.18,0.508,0.27,0.856,0.27c0.303,0,0.604-0.047,0.9-0.142C3185.656,389.457,3185.957,389.321,3186.26,389.141z"/>
			<path d="M3193.332,391.139c-0.16,0.076-0.344,0.138-0.545,0.185c-0.205,0.047-0.414,0.071-0.632,0.071
				c-0.303,0-0.594-0.041-0.872-0.121c-0.277-0.08-0.521-0.21-0.729-0.39c-0.208-0.18-0.374-0.413-0.496-0.701
				c-0.123-0.288-0.186-0.636-0.186-1.042v-9.723h2.084v9.367c0,0.342,0.068,0.574,0.205,0.702c0.137,0.127,0.301,0.191,0.489,0.191
				c0.235,0,0.463-0.071,0.68-0.213L3193.332,391.139L3193.332,391.139z"/>
		</g>
	</g>
	<g>
		<g enable-background="new    ">
			<path d="M3328.231,356.308c-2.973,0-5.076-1.777-6.309-4.678l-0.109,0.037c-1.232,2.608-3.262,3.732-5.293,3.732
				c-3.734,0-6.271-3.153-6.271-7.287c0-4.566,2.863-6.853,5.802-6.853c1.993,0,4.133,0.979,5.51,3.88h0.108
				c1.16-2.938,3.228-4.749,6.093-4.749c4.096,0,6.852,3.516,6.852,8.012C3334.612,353.336,3331.674,356.308,3328.231,356.308z
				 M3316.303,352.392c2.354,0,3.625-1.776,4.35-4.496c-0.688-2.029-2.139-3.589-4.277-3.589c-1.885,0-3.844,1.124-3.844,3.988
				C3312.531,350.942,3314.272,352.392,3316.303,352.392z M3328.086,343.619c-2.865,0-4.242,1.994-5.148,5.185
				c0.797,2.756,2.609,4.242,4.857,4.242c2.393,0.108,4.496-1.704,4.496-4.714C3332.291,345.469,3330.514,343.619,3328.086,343.619z
				"/>
			<path d="M3322.176,321.76c8.012,0,12.436,2.973,12.436,8.192c0,4.604-4.313,7.723-12.108,7.795
				c-7.904,0-12.254-3.407-12.254-8.193C3310.248,324.588,3314.672,321.76,3322.176,321.76z M3322.539,334.556
				c6.127,0,9.606-1.885,9.606-4.785c0-3.263-3.807-4.822-9.826-4.822c-5.801,0-9.606,1.486-9.606,4.786
				C3312.713,332.527,3316.121,334.556,3322.539,334.556z"/>
			<path d="M3321.414,317.81c-1.813,0-3.3,0.035-4.748,0.145v-2.792l2.825-0.145v-0.108c-1.666-0.979-3.227-2.61-3.227-5.511
				c0-2.393,1.45-4.206,3.518-4.967v-0.072c-0.979-0.544-1.739-1.231-2.284-1.958c-0.798-1.051-1.232-2.211-1.232-3.879
				c0-2.32,1.523-5.766,7.613-5.766h10.334v3.118h-9.935c-3.373,0-5.401,1.232-5.401,3.808c0,1.813,1.342,3.227,2.899,3.771
				c0.437,0.146,1.017,0.255,1.596,0.255h10.841v3.117h-10.515c-2.793,0-4.821,1.233-4.821,3.662c0,1.994,1.596,3.444,3.188,3.952
				c0.473,0.181,1.017,0.253,1.562,0.253h10.586v3.119h-12.799V317.81z"/>
			<path d="M3321.414,287.576c-1.813,0-3.3,0.036-4.748,0.146v-2.792l2.825-0.146v-0.108c-1.666-0.979-3.227-2.609-3.227-5.511
				c0-2.393,1.45-4.206,3.518-4.967v-0.073c-0.979-0.544-1.739-1.232-2.284-1.958c-0.798-1.052-1.232-2.212-1.232-3.879
				c0-2.32,1.523-5.765,7.613-5.765h10.334v3.118h-9.935c-3.373,0-5.401,1.232-5.401,3.807c0,1.813,1.342,3.227,2.899,3.771
				c0.437,0.146,1.017,0.254,1.596,0.254h10.841v3.117h-10.515c-2.793,0-4.821,1.232-4.821,3.662c0,1.994,1.596,3.444,3.188,3.952
				c0.473,0.182,1.017,0.254,1.562,0.254h10.586v3.118L3321.414,287.576L3321.414,287.576z"/>
		</g>
		<g enable-background="new    ">
			<path d="M3342.045,332.011c1.518,1.13,3.528,1.949,6.33,1.949c2.754,0,4.733-0.852,6.28-1.949v1.067
				c-1.284,0.976-3.265,2.026-6.28,2.026c-3.05-0.016-5.029-1.052-6.33-2.026V332.011z"/>
			<path d="M3341.799,324.103h9.052c0.665,0,1.423-0.015,1.935-0.061v1.222l-1.301,0.062v0.031c0.836,0.418,1.471,1.33,1.471,2.553
				c0,1.812-1.531,3.203-3.807,3.203c-2.49,0.017-4.022-1.531-4.022-3.356c0-1.146,0.542-1.919,1.146-2.261v-0.029h-4.472
				L3341.799,324.103L3341.799,324.103z M3348.344,325.467c-0.17,0-0.402,0.016-0.572,0.062c-0.867,0.201-1.578,0.944-1.578,1.965
				c0,1.408,1.237,2.244,2.894,2.244c1.517,0,2.77-0.742,2.77-2.213c0-0.912-0.604-1.748-1.624-1.996
				c-0.186-0.046-0.371-0.062-0.588-0.062H3348.344L3348.344,325.467z"/>
			<path d="M3349.287,321.085c1.842-0.03,2.6-1.206,2.6-2.568c0-0.976-0.17-1.563-0.387-2.072l0.975-0.231
				c0.217,0.479,0.465,1.299,0.465,2.489c0,2.308-1.517,3.685-3.774,3.685c-2.26,0-4.039-1.331-4.039-3.514
				c0-2.443,2.151-3.095,3.528-3.095c0.277,0,0.495,0.031,0.634,0.047L3349.287,321.085L3349.287,321.085z M3348.313,317.094
				c-0.866-0.017-2.212,0.355-2.212,1.888c0,1.377,1.269,1.98,2.212,2.088V317.094z"/>
			<path d="M3352.783,313.949h-6.451v1.054h-1.036v-1.054h-0.356c-1.052,0-2.011-0.231-2.613-0.865
				c-0.496-0.512-0.696-1.191-0.696-1.826c0-0.479,0.107-0.897,0.216-1.161l1.053,0.186c-0.093,0.201-0.17,0.479-0.17,0.866
				c0,1.161,1.021,1.455,2.166,1.455h0.402v-1.811h1.036v1.811h6.452v1.346H3352.783z"/>
			<path d="M3352.783,305.424l-0.943,0.107v0.046c0.588,0.418,1.113,1.224,1.113,2.29c0,1.518-1.066,2.29-2.149,2.29
				c-1.812,0-2.802-1.608-2.785-4.502h-0.154c-0.618,0-1.732,0.17-1.732,1.702c0,0.696,0.217,1.423,0.558,1.949l-0.896,0.31
				c-0.402-0.619-0.666-1.517-0.666-2.46c0-2.29,1.563-2.847,3.063-2.847h2.801c0.65,0,1.284-0.031,1.795-0.124v1.238H3352.783z
				 M3348.963,305.624c-0.031,1.485,0.23,3.173,1.687,3.173c0.882,0,1.299-0.589,1.299-1.284c0-0.976-0.618-1.593-1.253-1.811
				c-0.14-0.046-0.294-0.078-0.434-0.078H3348.963z"/>
			<path d="M3350.741,295.843c0.773,0,1.454-0.015,2.042-0.062v1.207l-1.223,0.078v0.031c0.604,0.355,1.393,1.145,1.393,2.476
				c0,1.176-0.648,2.584-3.279,2.584h-4.378v-1.361h4.146c1.424,0,2.383-0.434,2.383-1.671c0-0.913-0.635-1.548-1.237-1.796
				c-0.201-0.077-0.448-0.124-0.696-0.124h-4.595v-1.361L3350.741,295.843L3350.741,295.843z"/>
			<path d="M3341.799,293.582v-1.361h10.984v1.361H3341.799z"/>
			<path d="M3343.145,288.289h2.15v-1.95h1.036v1.95h4.038c0.93,0,1.455-0.263,1.455-1.021c0-0.356-0.047-0.619-0.093-0.789
				l1.021-0.063c0.108,0.264,0.187,0.682,0.187,1.207c0,0.635-0.201,1.146-0.572,1.471c-0.401,0.387-1.066,0.525-1.948,0.525h-4.086
				v1.161h-1.035v-1.161h-1.795L3343.145,288.289z"/>
			<path d="M3354.656,285.627c-1.53-1.099-3.543-1.948-6.327-1.948c-2.771,0-4.75,0.835-6.282,1.948v-1.052
				c1.27-0.99,3.25-2.027,6.298-2.027c3.032,0,4.997,1.037,6.313,2.027L3354.656,285.627L3354.656,285.627z"/>
		</g>
		
			<line fill="none" stroke="#000000" stroke-width="2.8346" stroke-miterlimit="10" x1="3301.802" y1="196.683" x2="3375.502" y2="196.683"/>
		
			<line fill="none" stroke="#000000" stroke-width="2.8346" stroke-miterlimit="10" x1="3375.502" y1="423.455" x2="3301.802" y2="423.455"/>
	</g>
</g>
</svg>
