<?xml version="1.0" encoding="utf-8"?>
<!-- Generator: Adobe Illustrator 16.0.0, SVG Export Plug-In . SVG Version: 6.00 Build 0)  -->
<!DOCTYPE svg PUBLIC "-//W3C//DTD SVG 1.1//EN" "http://www.w3.org/Graphics/SVG/1.1/DTD/svg11.dtd">
<svg version="1.1" id="Layer_1" xmlns="http://www.w3.org/2000/svg" xmlns:xlink="http://www.w3.org/1999/xlink" x="0px" y="0px"
	 width="6527px" height="886.967px" viewBox="0 0 6527 886.967" enable-background="new 0 0 6527 886.967" xml:space="preserve">
<path fill="none" stroke="#000000" stroke-width="2.8346" stroke-miterlimit="10" d="M2484.365,273.366
	c-12.795,1.291-26.096-1.871-37.317-10.027c-23.494-17.065-29.195-49.44-13.482-73.481c-75.25-95.834-192.166-157.4-323.459-157.4
	c-15.609,0-31.002,0.902-46.158,2.599c-2.736,12.536-9.85,24.174-21.051,32.311c-23.52,17.088-56.123,12.475-74.117-9.965
	c-132.352,48.459-232.832,163.043-261.445,303.734c11.111,6.475,20.004,16.852,24.287,30.039
	c8.974,27.602-5.426,57.125-32.238,67.356c5.287,146.935,87.683,274.195,207.955,342.543c9.586-8.557,22.191-13.797,36.056-13.797
	c29.069,0,52.728,22.887,54.104,51.615c35.783,10.17,73.562,15.617,112.603,15.617c106.918,0,204.293-40.836,277.403-107.742
	c-5.147-11.754-6.229-25.336-1.955-38.496c8.976-27.623,38.017-43.047,65.74-35.525c44.096-65.489,69.832-144.369,69.832-229.258
	C2521.121,382.81,2507.963,325.211,2484.365,273.366z M2214.977,113.323c1.252-1.708,3.648-2.08,5.357-0.829
	c1.707,1.249,2.077,3.649,0.83,5.357c-1.25,1.708-3.65,2.079-5.357,0.829S2213.727,115.032,2214.977,113.323z M1833.48,647.57
	c-1.252,1.709-3.647,2.08-5.356,0.829c-1.707-1.251-2.078-3.649-0.83-5.356c1.25-1.709,3.649-2.08,5.356-0.829
	C1834.359,643.464,1834.73,645.862,1833.48,647.57z M1834.891,241.877c-1.25,1.708-3.648,2.079-5.357,0.829s-2.08-3.647-0.83-5.355
	c1.252-1.71,3.65-2.081,5.357-0.831C1835.77,237.769,1836.141,240.169,1834.891,241.877z M2218.881,774.278
	c-1.25,1.707-3.65,2.079-5.357,0.828c-1.709-1.25-2.08-3.646-0.83-5.356c1.25-1.707,3.648-2.079,5.357-0.828
	C2219.76,770.172,2220.131,772.57,2218.881,774.278z M2110.465,686.151c-134.115,0-242.832-108.719-242.832-242.837
	c0-134.113,108.717-242.83,242.832-242.83c134.113,0,242.836,108.717,242.836,242.83
	C2353.301,577.433,2244.577,686.151,2110.465,686.151z M2458.482,446.896c-1.25,1.707-3.647,2.078-5.356,0.828
	s-2.08-3.647-0.828-5.357c1.25-1.707,3.647-2.079,5.356-0.829C2459.361,442.787,2459.732,445.188,2458.482,446.896z"/>
<path fill="none" stroke="#000000" stroke-width="2.8346" stroke-miterlimit="10" d="M3361.768,273.366
	c-12.795,1.291-26.096-1.871-37.318-10.027c-23.494-17.065-29.195-49.44-13.481-73.481c-75.25-95.834-192.166-157.4-323.459-157.4
	c-15.609,0-31.002,0.902-46.158,2.599c-2.736,12.536-9.851,24.174-21.051,32.311c-23.521,17.088-56.123,12.475-74.117-9.965
	c-132.353,48.459-232.832,163.043-261.445,303.734c11.111,6.475,20.004,16.852,24.287,30.039
	c8.974,27.602-5.426,57.125-32.237,67.356c5.287,146.935,87.682,274.195,207.955,342.543c9.586-8.557,22.19-13.797,36.055-13.797
	c29.07,0,52.727,22.887,54.104,51.615c35.783,10.17,73.562,15.617,112.603,15.617c106.918,0,204.293-40.836,277.404-107.742
	c-5.148-11.754-6.229-25.336-1.955-38.496c8.975-27.623,38.016-43.047,65.739-35.525c44.097-65.489,69.832-144.369,69.832-229.258
	C3398.523,382.81,3385.365,325.211,3361.768,273.366z M3092.379,113.323c1.252-1.708,3.647-2.08,5.356-0.829
	c1.707,1.249,2.078,3.649,0.83,5.357c-1.25,1.708-3.649,2.079-5.356,0.829S3091.129,115.032,3092.379,113.323z M2710.883,647.57
	c-1.252,1.709-3.648,2.08-5.357,0.829c-1.707-1.251-2.078-3.649-0.83-5.356c1.25-1.709,3.65-2.08,5.357-0.829
	C2711.762,643.464,2712.133,645.862,2710.883,647.57z M2712.293,241.877c-1.25,1.708-3.648,2.079-5.357,0.829
	s-2.08-3.647-0.83-5.355c1.252-1.71,3.65-2.081,5.357-0.831C2713.172,237.769,2713.543,240.169,2712.293,241.877z M3096.282,774.278
	c-1.25,1.707-3.649,2.079-5.356,0.828c-1.709-1.25-2.08-3.646-0.83-5.356c1.25-1.707,3.647-2.079,5.356-0.828
	C3097.162,770.172,3097.532,772.57,3096.282,774.278z M2987.866,761.188c-175.559,0-317.868-142.313-317.868-317.875
	c0-175.556,142.311-317.865,317.868-317.865c175.556,0,317.873,142.311,317.873,317.865
	C3305.74,618.875,3163.422,761.188,2987.866,761.188z M3335.885,446.896c-1.25,1.707-3.648,2.078-5.357,0.828
	s-2.08-3.647-0.828-5.357c1.25-1.707,3.648-2.079,5.357-0.829C3336.764,442.787,3337.135,445.188,3335.885,446.896z"/>
<g>
	<path fill="none" stroke="#000000" stroke-width="2.8346" stroke-miterlimit="10" d="M1141.865,56.259
		c-117.639,34.011-216.918,123.818-257.606,249.064c-5.388,16.58-9.566,33.271-12.604,49.967c7.229,8.978,16.998,16.076,28.773,19.9
		c9.664,3.146,19.541,3.752,28.916,2.211c102.721-36.365,220.862-23.615,316.049,44.418
		C1289.077,286.302,1243.818,143.386,1141.865,56.259z M919.422,320.999c-2.349,0-4.252-1.904-4.252-4.254
		c0-2.349,1.903-4.253,4.252-4.253c2.35,0,4.252,1.904,4.252,4.253C923.674,319.094,921.771,320.999,919.422,320.999z
		 M1144.465,95.077c-1.683,18.498-5.47,36.918-11.261,54.746c-23.264,71.587-76.877,128.303-147.098,155.606
		c-0.5,0.195-1.019,0.294-1.539,0.294c-1.713,0-3.34-1.113-3.963-2.717c-0.851-2.186,0.236-4.652,2.418-5.503
		c67.834-26.38,119.623-81.164,142.09-150.309c5.604-17.274,9.267-35.073,10.885-52.91c0.199-2.231,1.972-3.852,4.214-3.852
		c0.127,0,0.256,0.004,0.403,0.018c1.521,0.138,2.455,1.01,2.877,1.518C1143.913,92.475,1144.604,93.554,1144.465,95.077z"/>
	<path fill="none" stroke="#000000" stroke-width="2.8346" stroke-miterlimit="10" d="M863.939,433.267
		c-4.008,122.391,50.729,244.563,157.271,321.965c14.104,10.246,28.686,19.379,43.627,27.427
		c10.771-4.101,20.543-11.197,27.817-21.215c5.979-8.22,9.605-17.426,11.037-26.817c-2.842-108.932,45.793-217.352,139.908-286.854
		C1128.215,364.346,978.309,363.228,863.939,433.267z M1046.982,726.634c-0.725,2.231-3.125,3.453-5.356,2.728
		c-2.234-0.726-3.457-3.124-2.732-5.355c0.727-2.234,3.127-3.457,5.359-2.73C1046.484,721.998,1047.709,724.397,1046.982,726.634z
		 M901.661,442.79c17.074,7.314,33.423,16.609,48.589,27.625c60.893,44.247,98.266,112.764,102.532,187.983
		c0.033,0.536-0.032,1.061-0.194,1.556c-0.529,1.628-2.09,2.832-3.81,2.929c-2.34,0.133-4.352-1.662-4.483-3.999
		c-4.127-72.666-40.228-138.851-99.045-181.584c-14.697-10.667-30.492-19.65-46.955-26.702c-2.063-0.88-3.056-3.064-2.363-5.195
		c0.041-0.123,0.084-0.243,0.143-0.38c0.601-1.402,1.72-2.023,2.332-2.268C899.018,442.509,900.256,442.188,901.661,442.79z"/>
	<path fill="none" stroke="#000000" stroke-width="2.8346" stroke-miterlimit="10" d="M1133.6,821.719
		c115.162,41.632,248.27,27.33,354.807-50.079c14.103-10.248,27.293-21.292,39.564-33.017c-0.572-11.513-4.303-22.997-11.58-33.013
		c-5.971-8.226-13.604-14.521-22.096-18.785c-104.478-30.959-192.563-110.716-229.578-221.702
		C1149.717,549.079,1102.329,691.303,1133.6,821.719z M1469.17,738.289c1.901,1.38,2.319,4.038,0.938,5.938
		c-1.381,1.899-4.041,2.323-5.938,0.942c-1.898-1.382-2.322-4.04-0.939-5.941C1464.609,737.33,1467.27,736.906,1469.17,738.289z
		 M1154.313,788.784c12.234-13.977,26.125-26.651,41.289-37.672c60.898-44.24,137.609-58.612,210.467-39.426
		c0.521,0.135,0.998,0.36,1.42,0.667c1.386,1.006,2.047,2.863,1.607,4.526c-0.598,2.267-2.926,3.625-5.189,3.028
		c-70.385-18.528-144.483-4.647-203.303,38.085c-14.688,10.683-28.11,22.928-39.906,36.406c-1.475,1.689-3.856,1.957-5.67,0.641
		c-0.104-0.075-0.207-0.153-0.317-0.253c-1.148-1.003-1.394-2.259-1.437-2.917C1153.229,791.213,1153.307,789.936,1154.313,788.784z
		"/>
	<path fill="none" stroke="#000000" stroke-width="2.8346" stroke-miterlimit="10" d="M1591.336,680.881
		c75.18-96.661,102.711-227.674,62.012-352.916c-5.389-16.579-11.814-32.537-19.174-47.832c-11.125-3.014-23.201-3.015-34.976,0.813
		c-9.668,3.136-18.014,8.451-24.692,15.209c-61.729,89.796-164.803,148.925-281.797,149.832
		C1337.021,581.302,1457.641,670.318,1591.336,680.881z M1615.686,335.953c1.898-1.382,4.557-0.959,5.939,0.941
		c1.379,1.901,0.959,4.56-0.939,5.939c-1.9,1.381-4.561,0.959-5.941-0.941C1613.363,339.994,1613.784,337.334,1615.686,335.953z
		 M1566.413,651.005c-9.512-15.954-17.274-33.082-23.069-50.908c-23.256-71.59-13.219-148.988,27.543-212.352
		c0.287-0.451,0.649-0.838,1.072-1.144c1.385-1.006,3.354-1.063,4.803-0.13c1.971,1.269,2.543,3.901,1.276,5.871
		c-39.373,61.214-49.069,135.977-26.604,205.122c5.619,17.269,13.117,33.817,22.293,49.201c1.149,1.925,0.668,4.274-1.144,5.592
		c-0.104,0.076-0.211,0.147-0.34,0.225c-1.309,0.781-2.578,0.627-3.219,0.465S1567.197,652.316,1566.413,651.005z"/>
	<path fill="none" stroke="#000000" stroke-width="2.8346" stroke-miterlimit="10" d="M1589.866,210.396
		c-68.698-101.371-184.791-168.039-316.481-168.033c-17.433,0.001-34.594,1.182-51.414,3.455
		c-6.303,9.647-10.035,21.133-10.035,33.513c-0.004,10.164,2.471,19.744,6.834,28.187c66.326,86.456,90.709,202.756,55.42,314.304
		C1416.573,421.492,1538.508,334.284,1589.866,210.396z M1269.346,80.648c-0.729-2.232,0.496-4.631,2.731-5.356
		c2.232-0.725,4.634,0.496,5.357,2.729c0.725,2.234-0.498,4.635-2.732,5.359C1272.473,84.105,1270.07,82.885,1269.346,80.648z
		 M1553.752,224.866c-18.113,4.115-36.804,6.206-55.546,6.209c-75.272-0.006-145.78-33.469-193.446-91.813
		c-0.343-0.414-0.597-0.88-0.756-1.374c-0.529-1.627,0.024-3.521,1.358-4.606c1.816-1.482,4.498-1.213,5.979,0.6
		c46.053,56.36,114.157,88.687,186.86,88.688c18.16-0.01,36.22-2.026,53.687-5.999c2.184-0.499,4.27,0.686,4.963,2.815
		c0.039,0.122,0.076,0.245,0.107,0.392c0.34,1.485-0.199,2.646-0.552,3.204C1556.055,223.539,1555.241,224.525,1553.752,224.866z"/>
</g>
<path fill="none" stroke="#000000" stroke-width="2.8346" stroke-miterlimit="10" d="M438.39,32.459
	c-226.641,0-411.024,184.388-411.024,411.021c0,226.643,184.385,411.025,411.024,411.025c226.639,0,411.022-184.384,411.022-411.025
	C849.414,216.846,665.029,32.459,438.39,32.459z M791.842,250.657l10.295,20.206l-7.573,3.863l-10.298-20.206L791.842,250.657z
	 M780,434.326c0.762-0.644,1.625-0.964,2.666-0.979l0.107-0.002c2.239,0.03,4.151,1.937,4.189,4.184
	c1.268,77.167-23.376,153.477-69.394,214.869c-0.821,1.097-2.037,1.701-3.421,1.701c-0.93,0-1.784-0.286-2.533-0.847
	c-1.879-1.409-2.263-4.082-0.856-5.957c44.892-59.886,68.934-134.332,67.696-209.63C778.436,436.366,778.978,435.186,780,434.326z
	 M765.41,333.201c0.398-0.129,0.801-0.193,1.193-0.193c1.689,0,3.12,1.04,3.64,2.639c0.32,0.987,0.241,1.996-0.229,2.922
	c-0.477,0.935-1.227,1.573-2.232,1.9c-0.391,0.127-0.788,0.19-1.182,0.19c-1.684,0-3.108-1.036-3.628-2.639
	C762.319,336.014,763.421,333.849,765.41,333.201z M757.326,197.739l13.329,18.346l-6.876,5l-13.332-18.346L757.326,197.739z
	 M714.957,150.872l16.035,16.035l-6.01,6.014l-16.037-16.034L714.957,150.872z M665.778,111.21l18.348,13.329l-4.995,6.88
	l-18.349-13.33L665.778,111.21z M611,79.729l20.205,10.295l-3.856,7.576l-20.207-10.296L611,79.729z M551.971,57.206l21.566,7.007
	l-2.625,8.086l-21.567-7.009L551.971,57.206z M535.135,112.942c0.559-1.823,2.152-3.001,4.06-3.001c0.424,0,0.842,0.063,1.25,0.188
	c73.78,22.639,138.738,69.656,182.91,132.396c1.35,1.917,0.889,4.575-1.022,5.923c-0.735,0.517-1.558,0.778-2.443,0.778
	c-1.391,0-2.694-0.674-3.489-1.803c-43.085-61.201-106.458-107.072-178.451-129.164c-1.243-0.382-2.198-1.261-2.695-2.489
	C534.873,114.84,534.834,113.917,535.135,112.942z M490.146,44.193l22.398,3.546l-1.328,8.397l-22.399-3.549L490.146,44.193z
	 M427.051,41.014h22.677v8.504h-22.677V41.014z M442.216,98.375c0,2.109-1.716,3.825-3.82,3.825c-2.114,0-3.833-1.717-3.833-3.819
	c0.001-2.112,1.711-3.831,3.813-3.831h0.021C440.502,94.55,442.216,96.266,442.216,98.375z M386.628,44.194l1.33,8.4l-22.397,3.547
	l-1.33-8.399L386.628,44.194z M324.803,57.208l2.628,8.088l-21.566,7.008l-2.628-8.089L324.803,57.208z M265.776,79.732l3.86,7.577
	l-20.205,10.294l-3.861-7.577L265.776,79.732z M210.999,111.214l4.998,6.88l-18.348,13.327l-4.999-6.879L210.999,111.214z
	 M335.333,110.367c0.42-0.13,0.842-0.195,1.255-0.195c1.904,0,3.499,1.181,4.062,3.006c0.45,1.458,0,2.654-0.309,3.237
	c-0.308,0.584-1.042,1.629-2.5,2.078c-71.522,22.064-134.731,68.162-177.982,129.802c-0.75,1.068-1.885,1.708-3.214,1.804
	c-0.095,0.008-0.19,0.008-0.288,0.008c-0.877,0-1.692-0.26-2.425-0.773c-1.918-1.347-2.383-4.004-1.038-5.923
	C197.224,180.234,262.016,132.985,335.333,110.367z M161.82,150.876l6.014,6.013l-16.035,16.034l-6.014-6.012L161.82,150.876z
	 M119.452,197.743l6.879,4.997l-13.329,18.347l-6.881-4.997L119.452,197.743z M113.819,338.018
	c-0.523,1.611-1.949,2.651-3.634,2.651c-0.393,0-0.791-0.064-1.187-0.194c-1.31-0.426-1.956-1.376-2.227-1.905
	c-0.268-0.526-0.655-1.604-0.23-2.907c0.522-1.611,1.948-2.654,3.632-2.654c0.392,0,0.783,0.063,1.19,0.196
	c1.302,0.423,1.948,1.372,2.219,1.901C113.851,335.636,114.24,336.719,113.819,338.018z M94.058,434.372
	c1.523,0.022,2.521,0.819,2.981,1.292c0.459,0.475,1.227,1.495,1.204,3.019c-1.123,74.834,23.185,149.196,68.45,209.395
	c0.781,1.037,1.038,2.31,0.723,3.582c-0.239,0.964-0.767,1.759-1.577,2.366c-0.751,0.565-1.604,0.854-2.534,0.854
	c-1.376,0-2.589-0.604-3.414-1.7c-46.383-61.674-71.297-137.896-70.154-214.625c0.033-2.247,1.944-4.149,4.188-4.184L94.058,434.372
	z M42.651,369.321l8.397,1.33l-3.547,22.398l-8.399-1.33L42.651,369.321z M35.922,432.142h8.502l0.001,22.678l-8.505-0.001
	L35.922,432.142z M42.649,517.639l-3.545-22.397l8.396-1.33l3.549,22.398L42.649,517.639z M59.124,308.327l8.087,2.627
	l-7.007,21.568l-8.088-2.627L59.124,308.327z M59.122,578.634l-7.005-21.567l8.085-2.627l7.01,21.568L59.122,578.634z
	 M84.936,250.661l7.576,3.859l-10.295,20.207l-7.577-3.859L84.936,250.661z M84.934,636.3l-10.293-20.206l7.574-3.859l10.298,20.207
	L84.934,636.3z M119.448,689.219l-13.326-18.349l6.877-4.997l13.333,18.35L119.448,689.219z M161.817,736.086l-16.032-16.037
	l6.011-6.012l16.039,16.037L161.817,736.086z M210.995,775.747l-18.345-13.331l4.996-6.877l18.352,13.331L210.995,775.747z
	 M238.641,724.927c-0.708,0.975-1.902,1.58-3.118,1.58c-0.807,0-1.553-0.245-2.225-0.732c-0.839-0.607-1.369-1.474-1.531-2.497
	c-0.163-1.022,0.075-2.009,0.682-2.845c0.711-0.979,1.907-1.584,3.123-1.584c0.812,0,1.56,0.245,2.218,0.723
	C239.5,720.816,239.883,723.217,238.641,724.927z M265.772,807.229l-20.203-10.298l3.858-7.573l20.21,10.296L265.772,807.229z
	 M324.799,829.754l-21.565-7.011l2.627-8.084l21.571,7.009L324.799,829.754z M323.32,768.154c0.591-1.727,2.208-2.887,4.025-2.887
	c0.467,0,0.932,0.077,1.375,0.229c35.054,11.978,71.857,18.05,109.386,18.05c37.939,0,75.251-6.203,110.913-18.441
	c0.448-0.154,0.908-0.232,1.369-0.232c0.787,0,1.567,0.229,2.262,0.659c0.854,0.531,1.429,1.258,1.759,2.223
	c0.761,2.216-0.427,4.639-2.643,5.399c-36.521,12.532-74.762,18.888-113.666,18.888c-38.482,0-76.209-6.221-112.129-18.486
	C323.752,772.795,322.563,770.372,323.32,768.154z M386.625,842.767l-22.397-3.551l1.33-8.396l22.402,3.547L386.625,842.767z
	 M449.728,845.951h-22.677v-8.504h22.677V845.951z M490.151,842.77l-1.33-8.399l22.397-3.547l1.33,8.398L490.151,842.77z
	 M551.976,829.757l-2.628-8.089l21.565-7.007l2.628,8.088L551.976,829.757z M611.004,807.231l-3.861-7.578l20.205-10.294
	l3.861,7.577L611.004,807.231z M643.5,725.766c-0.674,0.49-1.428,0.737-2.241,0.737c-1.21,0-2.401-0.604-3.114-1.589
	c-0.607-0.835-0.843-1.819-0.682-2.846c0.162-1.021,0.688-1.883,1.521-2.487c0.67-0.486,1.424-0.732,2.242-0.732
	c1.287,0,2.364,0.545,3.109,1.568C645.577,722.131,645.2,724.53,643.5,725.766z M438.39,745.449
	c-166.508,0-301.969-135.461-301.969-301.969c0-166.506,135.461-301.967,301.969-301.967c166.506,0,301.967,135.461,301.967,301.967
	C740.357,609.988,604.896,745.449,438.39,745.449z M665.781,775.75l-4.998-6.88l18.347-13.329l4.999,6.881L665.781,775.75z
	 M714.959,736.088l-6.013-6.014l16.035-16.035l6.014,6.014L714.959,736.088z M757.328,689.219l-6.879-4.997l13.329-18.348
	l6.881,4.997L757.328,689.219z M791.844,636.301l-7.576-3.859l10.295-20.206l7.578,3.859L791.844,636.301z M817.655,308.323
	l7.008,21.568l-8.085,2.631l-7.01-21.568L817.655,308.323z M817.656,578.634l-8.087-2.626l7.007-21.568l8.09,2.627L817.656,578.634z
	 M834.129,369.317l3.547,22.4l-8.397,1.332l-3.549-22.398L834.129,369.317z M834.129,517.638l-8.397-1.328l3.546-22.398l8.4,1.328
	L834.129,517.638z M832.356,454.819l-0.002-22.678l8.505-0.003l-0.001,22.679L832.356,454.819z"/>
<path fill="none" stroke="#000000" stroke-width="2.8346" stroke-miterlimit="10" d="M3951.435,32.459
	c-226.642,0-411.024,184.388-411.024,411.021c0,226.643,184.385,411.025,411.024,411.025c226.639,0,411.022-184.384,411.022-411.025
	C4362.457,216.846,4178.072,32.459,3951.435,32.459z M4304.887,250.657l10.295,20.206l-7.573,3.863l-10.298-20.206L4304.887,250.657
	z M4270.371,197.739l13.328,18.346l-6.875,5l-13.332-18.346L4270.371,197.739z M4228.002,150.872l16.035,16.035l-6.01,6.014
	l-16.037-16.034L4228.002,150.872z M4178.821,111.21l18.347,13.329l-4.994,6.88l-18.349-13.33L4178.821,111.21z M4124.043,79.729
	l20.207,10.295l-3.857,7.576l-20.207-10.296L4124.043,79.729z M4065.016,57.206l21.566,7.007l-2.625,8.086l-21.567-7.009
	L4065.016,57.206z M4003.19,44.193l22.398,3.546l-1.328,8.397l-22.399-3.549L4003.19,44.193z M3940.096,41.014h22.676v8.504h-22.676
	V41.014z M3899.673,44.194l1.33,8.4l-22.397,3.547l-1.33-8.399L3899.673,44.194z M3837.848,57.208l2.628,8.088l-21.566,7.008
	l-2.628-8.089L3837.848,57.208z M3778.82,79.732l3.86,7.577l-20.205,10.294l-3.861-7.577L3778.82,79.732z M3724.043,111.214
	l4.998,6.88l-18.348,13.327l-4.999-6.879L3724.043,111.214z M3674.864,150.876l6.014,6.013l-16.035,16.034l-6.014-6.012
	L3674.864,150.876z M3632.496,197.743l6.879,4.997l-13.33,18.347l-6.881-4.997L3632.496,197.743z M3555.695,369.321l8.397,1.33
	l-3.547,22.398l-8.399-1.33L3555.695,369.321z M3548.967,432.142h8.502l0.001,22.678l-8.505-0.001L3548.967,432.142z
	 M3555.693,517.639l-3.545-22.397l8.396-1.33l3.549,22.398L3555.693,517.639z M3572.168,308.327l8.086,2.627l-7.007,21.568
	l-8.088-2.627L3572.168,308.327z M3572.166,578.634l-7.006-21.567l8.086-2.627l7.01,21.568L3572.166,578.634z M3597.98,250.661
	l7.576,3.859l-10.295,20.207l-7.577-3.859L3597.98,250.661z M3597.979,636.3l-10.293-20.206l7.574-3.859l10.298,20.207
	L3597.979,636.3z M3632.492,689.219l-13.326-18.349l6.877-4.997l13.332,18.35L3632.492,689.219z M3674.861,736.086l-16.032-16.037
	l6.011-6.012l16.039,16.037L3674.861,736.086z M3724.039,775.747l-18.345-13.331l4.996-6.877l18.352,13.331L3724.039,775.747z
	 M3778.816,807.229l-20.203-10.298l3.858-7.573l20.21,10.296L3778.816,807.229z M3837.844,829.754l-21.565-7.011l2.627-8.084
	l21.571,7.009L3837.844,829.754z M3899.668,842.767l-22.396-3.551l1.33-8.396l22.402,3.547L3899.668,842.767z M3962.771,845.951
	h-22.676v-8.504h22.676V845.951z M4003.195,842.77l-1.33-8.399l22.397-3.547l1.33,8.398L4003.195,842.77z M4065.021,829.757
	l-2.628-8.089l21.566-7.007l2.627,8.088L4065.021,829.757z M4124.049,807.231l-3.861-7.578l20.205-10.294l3.861,7.577
	L4124.049,807.231z M4178.826,775.75l-4.998-6.88l18.346-13.329l4.999,6.881L4178.826,775.75z M4228.004,736.088l-6.013-6.014
	l16.035-16.035l6.015,6.014L4228.004,736.088z M4270.373,689.219l-6.879-4.997l13.328-18.348l6.881,4.997L4270.373,689.219z
	 M4304.889,636.301l-7.576-3.859l10.295-20.206l7.578,3.859L4304.889,636.301z M4330.699,308.323l7.008,21.568l-8.086,2.631
	l-7.01-21.568L4330.699,308.323z M4330.701,578.634l-8.088-2.626l7.008-21.568l8.088,2.627L4330.701,578.634z M4347.174,369.317
	l3.547,22.4l-8.397,1.332l-3.549-22.398L4347.174,369.317z M4347.174,517.638l-8.397-1.328l3.546-22.398l8.4,1.328L4347.174,517.638
	z M4345.399,454.819l-0.002-22.678l8.505-0.003l-0.001,22.679L4345.399,454.819z"/>
<polygon fill="none" stroke="#000000" stroke-width="2.8346" stroke-miterlimit="10" points="5258.854,151.258 5239.015,151.258 
	5239.015,142.754 5216.348,142.754 5216.348,151.258 5196.494,151.258 5196.494,406.329 5216.348,406.329 5216.348,414.835 
	5239.015,414.835 5239.015,406.329 5258.854,406.329 "/>
<polyline fill="none" stroke="#000000" stroke-width="2.8346" stroke-miterlimit="10" points="5258.854,406.329 5278.709,406.329 
	5278.709,414.835 5301.377,414.835 5301.377,406.329 5321.219,406.329 5321.219,151.258 5301.377,151.258 5301.377,142.754 
	5278.709,142.754 5278.709,151.258 5258.854,151.258 "/>
<polyline fill="none" stroke="#000000" stroke-width="2.8346" stroke-miterlimit="10" points="5321.217,406.329 5341.07,406.329 
	5341.07,414.835 5363.74,414.835 5363.74,406.329 5383.58,406.329 5383.58,151.258 5363.74,151.258 5363.74,142.754 
	5341.07,142.754 5341.07,151.258 5321.217,151.258 "/>
<polyline fill="none" stroke="#000000" stroke-width="2.8346" stroke-miterlimit="10" points="5383.58,406.329 5403.434,406.329 
	5403.434,414.835 5426.103,414.835 5426.103,406.329 5445.942,406.329 5445.942,151.258 5426.103,151.258 5426.103,142.754 
	5403.434,142.754 5403.434,151.258 5383.58,151.258 "/>
<polyline fill="none" stroke="#000000" stroke-width="2.8346" stroke-miterlimit="10" points="5445.941,406.329 5465.795,406.329 
	5465.795,414.835 5488.465,414.835 5488.465,406.329 5508.306,406.329 5508.306,151.258 5488.465,151.258 5488.465,142.754 
	5465.795,142.754 5465.795,151.258 5445.941,151.258 "/>
<polyline fill="none" stroke="#000000" stroke-width="2.8346" stroke-miterlimit="10" points="5508.305,406.329 5528.158,406.329 
	5528.158,414.835 5550.826,414.835 5550.826,406.329 5570.668,406.329 5570.668,151.258 5550.826,151.258 5550.826,142.754 
	5528.158,142.754 5528.158,151.258 5508.305,151.258 "/>
<polyline fill="none" stroke="#000000" stroke-width="2.8346" stroke-miterlimit="10" points="5570.666,406.329 5590.521,406.329 
	5590.521,414.835 5613.188,414.835 5613.188,406.329 5633.029,406.329 5633.029,151.258 5613.188,151.258 5613.188,142.754 
	5590.521,142.754 5590.521,151.258 5570.666,151.258 "/>
<polyline fill="none" stroke="#000000" stroke-width="2.8346" stroke-miterlimit="10" points="5633.028,406.329 5652.883,406.329 
	5652.883,414.835 5675.551,414.835 5675.551,406.329 5695.393,406.329 5695.393,151.258 5675.551,151.258 5675.551,142.754 
	5652.883,142.754 5652.883,151.258 5633.028,151.258 "/>
<polyline fill="none" stroke="#000000" stroke-width="2.8346" stroke-miterlimit="10" points="5695.392,406.329 5715.244,406.329 
	5715.244,414.835 5737.914,414.835 5737.914,406.329 5757.754,406.329 5757.754,151.258 5737.914,151.258 5737.914,142.754 
	5715.244,142.754 5715.244,151.258 5695.392,151.258 "/>
<polyline fill="none" stroke="#000000" stroke-width="2.8346" stroke-miterlimit="10" points="5757.754,406.329 5777.606,406.329 
	5777.606,414.835 5800.275,414.835 5800.275,406.329 5820.117,406.329 5820.117,151.258 5800.275,151.258 5800.275,142.754 
	5777.606,142.754 5777.606,151.258 5757.754,151.258 "/>
<polyline fill="none" stroke="#000000" stroke-width="2.8346" stroke-miterlimit="10" points="5820.115,406.329 5839.97,406.329 
	5839.97,414.835 5862.639,414.835 5862.639,406.329 5882.479,406.329 5882.479,151.258 5862.639,151.258 5862.639,142.754 
	5839.97,142.754 5839.97,151.258 5820.115,151.258 "/>
<polyline fill="none" stroke="#000000" stroke-width="2.8346" stroke-miterlimit="10" points="5882.479,406.329 5902.332,406.329 
	5902.332,414.835 5925,414.835 5925,406.329 5944.842,406.329 5944.842,151.258 5925,151.258 5925,142.754 5902.332,142.754 
	5902.332,151.258 5882.479,151.258 "/>
<polyline fill="none" stroke="#000000" stroke-width="2.8346" stroke-miterlimit="10" points="5944.84,406.329 5964.693,406.329 
	5964.693,414.835 5987.362,414.835 5987.362,406.329 6007.203,406.329 6007.203,151.258 5987.362,151.258 5987.362,142.754 
	5964.693,142.754 5964.693,151.258 5944.84,151.258 "/>
<polyline fill="none" stroke="#000000" stroke-width="2.8346" stroke-miterlimit="10" points="6007.203,406.329 6027.057,406.329 
	6027.057,414.835 6049.726,414.835 6049.726,406.329 6069.565,406.329 6069.565,151.258 6049.726,151.258 6049.726,142.754 
	6027.057,142.754 6027.057,151.258 6007.203,151.258 "/>
<polyline fill="none" stroke="#000000" stroke-width="2.8346" stroke-miterlimit="10" points="6069.564,406.329 6089.418,406.329 
	6089.418,414.835 6112.088,414.835 6112.088,406.329 6131.929,406.329 6131.929,151.258 6112.088,151.258 6112.088,142.754 
	6089.418,142.754 6089.418,151.258 6069.564,151.258 "/>
<polyline fill="none" stroke="#000000" stroke-width="2.8346" stroke-miterlimit="10" points="6131.928,406.329 6151.78,406.329 
	6151.78,414.835 6174.449,414.835 6174.449,406.329 6194.291,406.329 6194.291,151.258 6174.449,151.258 6174.449,142.754 
	6151.78,142.754 6151.78,151.258 6131.928,151.258 "/>
<polyline fill="none" stroke="#000000" stroke-width="2.8346" stroke-miterlimit="10" points="6194.289,406.329 6214.144,406.329 
	6214.144,414.835 6236.813,414.835 6236.813,406.329 6256.652,406.329 6256.652,151.258 6236.813,151.258 6236.813,142.754 
	6214.144,142.754 6214.144,151.258 6194.289,151.258 "/>
<polyline fill="none" stroke="#000000" stroke-width="2.8346" stroke-miterlimit="10" points="6256.651,406.329 6276.506,406.329 
	6276.506,414.835 6299.174,414.835 6299.174,406.329 6319.016,406.329 6319.016,151.258 6299.174,151.258 6299.174,142.754 
	6276.506,142.754 6276.506,151.258 6256.651,151.258 "/>
<polyline fill="none" stroke="#000000" stroke-width="2.8346" stroke-miterlimit="10" points="6319.015,406.329 6338.867,406.329 
	6338.867,414.835 6361.537,414.835 6361.537,406.329 6381.377,406.329 6381.377,151.258 6361.537,151.258 6361.537,142.754 
	6338.867,142.754 6338.867,151.258 6319.015,151.258 "/>
<polyline fill="none" stroke="#000000" stroke-width="2.8346" stroke-miterlimit="10" points="6381.377,406.329 6401.229,406.329 
	6401.229,414.835 6423.898,414.835 6423.898,406.329 6443.74,406.329 6443.74,151.258 6423.898,151.258 6423.898,142.754 
	6401.229,142.754 6401.229,151.258 6381.377,151.258 "/>
<polygon fill="none" stroke="#000000" stroke-width="2.8346" stroke-miterlimit="10" points="5258.854,454.973 5239.015,454.973 
	5239.015,446.469 5216.348,446.469 5216.348,454.973 5196.494,454.973 5196.494,710.045 5216.348,710.045 5216.348,718.55 
	5239.015,718.55 5239.015,710.045 5258.854,710.045 "/>
<polyline fill="none" stroke="#000000" stroke-width="2.8346" stroke-miterlimit="10" points="5258.854,710.045 5278.709,710.045 
	5278.709,718.55 5301.377,718.55 5301.377,710.045 5321.219,710.045 5321.219,454.973 5301.377,454.973 5301.377,446.469 
	5278.709,446.469 5278.709,454.973 5258.854,454.973 "/>
<polyline fill="none" stroke="#000000" stroke-width="2.8346" stroke-miterlimit="10" points="5321.217,710.045 5341.07,710.045 
	5341.07,718.55 5363.74,718.55 5363.74,710.045 5383.58,710.045 5383.58,454.973 5363.74,454.973 5363.74,446.469 5341.07,446.469 
	5341.07,454.973 5321.217,454.973 "/>
<polyline fill="none" stroke="#000000" stroke-width="2.8346" stroke-miterlimit="10" points="5383.58,710.045 5403.434,710.045 
	5403.434,718.55 5426.103,718.55 5426.103,710.045 5445.942,710.045 5445.942,454.973 5426.103,454.973 5426.103,446.469 
	5403.434,446.469 5403.434,454.973 5383.58,454.973 "/>
<polyline fill="none" stroke="#000000" stroke-width="2.8346" stroke-miterlimit="10" points="5445.941,710.045 5465.795,710.045 
	5465.795,718.55 5488.465,718.55 5488.465,710.045 5508.306,710.045 5508.306,454.973 5488.465,454.973 5488.465,446.469 
	5465.795,446.469 5465.795,454.973 5445.941,454.973 "/>
<polyline fill="none" stroke="#000000" stroke-width="2.8346" stroke-miterlimit="10" points="5508.305,710.045 5528.158,710.045 
	5528.158,718.55 5550.826,718.55 5550.826,710.045 5570.668,710.045 5570.668,454.973 5550.826,454.973 5550.826,446.469 
	5528.158,446.469 5528.158,454.973 5508.305,454.973 "/>
<polyline fill="none" stroke="#000000" stroke-width="2.8346" stroke-miterlimit="10" points="5570.666,710.045 5590.521,710.045 
	5590.521,718.55 5613.188,718.55 5613.188,710.045 5633.029,710.045 5633.029,454.973 5613.188,454.973 5613.188,446.469 
	5590.521,446.469 5590.521,454.973 5570.666,454.973 "/>
<polyline fill="none" stroke="#000000" stroke-width="2.8346" stroke-miterlimit="10" points="5633.028,710.045 5652.883,710.045 
	5652.883,718.55 5675.551,718.55 5675.551,710.045 5695.393,710.045 5695.393,454.973 5675.551,454.973 5675.551,446.469 
	5652.883,446.469 5652.883,454.973 5633.028,454.973 "/>
<polyline fill="none" stroke="#000000" stroke-width="2.8346" stroke-miterlimit="10" points="5695.392,710.045 5715.244,710.045 
	5715.244,718.55 5737.914,718.55 5737.914,710.045 5757.754,710.045 5757.754,454.973 5737.914,454.973 5737.914,446.469 
	5715.244,446.469 5715.244,454.973 5695.392,454.973 "/>
<polyline fill="none" stroke="#000000" stroke-width="2.8346" stroke-miterlimit="10" points="5757.754,710.045 5777.606,710.045 
	5777.606,718.55 5800.275,718.55 5800.275,710.045 5820.117,710.045 5820.117,454.973 5800.275,454.973 5800.275,446.469 
	5777.606,446.469 5777.606,454.973 5757.754,454.973 "/>
<polyline fill="none" stroke="#000000" stroke-width="2.8346" stroke-miterlimit="10" points="5820.115,710.045 5839.97,710.045 
	5839.97,718.55 5862.639,718.55 5862.639,710.045 5882.479,710.045 5882.479,454.973 5862.639,454.973 5862.639,446.469 
	5839.97,446.469 5839.97,454.973 5820.115,454.973 "/>
<polyline fill="none" stroke="#000000" stroke-width="2.8346" stroke-miterlimit="10" points="5882.479,710.045 5902.332,710.045 
	5902.332,718.55 5925,718.55 5925,710.045 5944.842,710.045 5944.842,454.973 5925,454.973 5925,446.469 5902.332,446.469 
	5902.332,454.973 5882.479,454.973 "/>
<polyline fill="none" stroke="#000000" stroke-width="2.8346" stroke-miterlimit="10" points="5944.84,710.045 5964.693,710.045 
	5964.693,718.55 5987.362,718.55 5987.362,710.045 6007.203,710.045 6007.203,454.973 5987.362,454.973 5987.362,446.469 
	5964.693,446.469 5964.693,454.973 5944.84,454.973 "/>
<polyline fill="none" stroke="#000000" stroke-width="2.8346" stroke-miterlimit="10" points="6007.203,710.045 6027.057,710.045 
	6027.057,718.55 6049.726,718.55 6049.726,710.045 6069.565,710.045 6069.565,454.973 6049.726,454.973 6049.726,446.469 
	6027.057,446.469 6027.057,454.973 6007.203,454.973 "/>
<polyline fill="none" stroke="#000000" stroke-width="2.8346" stroke-miterlimit="10" points="6069.564,710.045 6089.418,710.045 
	6089.418,718.55 6112.088,718.55 6112.088,710.045 6131.929,710.045 6131.929,454.973 6112.088,454.973 6112.088,446.469 
	6089.418,446.469 6089.418,454.973 6069.564,454.973 "/>
<polyline fill="none" stroke="#000000" stroke-width="2.8346" stroke-miterlimit="10" points="6131.928,710.045 6151.78,710.045 
	6151.78,718.55 6174.449,718.55 6174.449,710.045 6194.291,710.045 6194.291,454.973 6174.449,454.973 6174.449,446.469 
	6151.78,446.469 6151.78,454.973 6131.928,454.973 "/>
<polyline fill="none" stroke="#000000" stroke-width="2.8346" stroke-miterlimit="10" points="6194.289,710.045 6214.144,710.045 
	6214.144,718.55 6236.813,718.55 6236.813,710.045 6256.652,710.045 6256.652,454.973 6236.813,454.973 6236.813,446.469 
	6214.144,446.469 6214.144,454.973 6194.289,454.973 "/>
<polyline fill="none" stroke="#000000" stroke-width="2.8346" stroke-miterlimit="10" points="6256.651,710.045 6276.506,710.045 
	6276.506,718.55 6299.174,718.55 6299.174,710.045 6319.016,710.045 6319.016,454.973 6299.174,454.973 6299.174,446.469 
	6276.506,446.469 6276.506,454.973 6256.651,454.973 "/>
<polyline fill="none" stroke="#000000" stroke-width="2.8346" stroke-miterlimit="10" points="6319.015,710.045 6338.867,710.045 
	6338.867,718.55 6361.537,718.55 6361.537,710.045 6381.377,710.045 6381.377,454.973 6361.537,454.973 6361.537,446.469 
	6338.867,446.469 6338.867,454.973 6319.015,454.973 "/>
<polyline fill="none" stroke="#000000" stroke-width="2.8346" stroke-miterlimit="10" points="6381.377,710.045 6401.229,710.045 
	6401.229,718.55 6423.898,718.55 6423.898,710.045 6443.74,710.045 6443.74,454.973 6423.898,454.973 6423.898,446.469 
	6401.229,446.469 6401.229,454.973 6381.377,454.973 "/>
<path fill="none" stroke="#000000" stroke-width="2.8346" stroke-miterlimit="10" d="M300.768,406.889v48.95
	c0,13.385,10.852,24.235,24.235,24.235c13.386,0,24.235-10.852,24.235-24.235v-48.95H300.768z M325.003,459.541
	c-2.113,0-3.826-1.714-3.826-3.826c0-2.113,1.713-3.827,3.826-3.827c2.112,0,3.827,1.714,3.827,3.827
	C328.83,457.827,327.115,459.541,325.003,459.541z"/>
<path fill="none" stroke="#000000" stroke-width="2.8346" stroke-miterlimit="10" d="M357.46,406.889v48.95
	c0,13.385,10.852,24.235,24.235,24.235c13.385,0,24.236-10.852,24.236-24.235v-48.95H357.46z M381.696,459.541
	c-2.112,0-3.825-1.714-3.825-3.826c0-2.113,1.713-3.827,3.825-3.827c2.113,0,3.826,1.714,3.826,3.827
	C385.522,457.827,383.81,459.541,381.696,459.541z"/>
<path fill="none" stroke="#000000" stroke-width="2.8346" stroke-miterlimit="10" d="M414.153,406.889v48.95
	c0,13.385,10.852,24.235,24.236,24.235s24.234-10.852,24.234-24.235v-48.95H414.153z M438.39,459.541
	c-2.113,0-3.827-1.714-3.827-3.826c0-2.113,1.714-3.827,3.827-3.827s3.826,1.714,3.826,3.827
	C442.216,457.827,440.503,459.541,438.39,459.541z"/>
<path fill="none" stroke="#000000" stroke-width="2.8346" stroke-miterlimit="10" d="M470.847,406.889v48.95
	c0,13.385,10.85,24.235,24.234,24.235c13.386,0,24.235-10.852,24.235-24.235v-48.95H470.847z M495.082,459.541
	c-2.113,0-3.827-1.714-3.827-3.826c0-2.113,1.714-3.827,3.827-3.827c2.112,0,3.826,1.714,3.826,3.827
	C498.908,457.827,497.195,459.541,495.082,459.541z"/>
<path fill="none" stroke="#000000" stroke-width="2.8346" stroke-miterlimit="10" d="M527.538,406.889v48.95
	c0,13.385,10.852,24.235,24.235,24.235c13.386,0,24.236-10.852,24.236-24.235v-48.95H527.538z M551.774,459.541
	c-2.113,0-3.826-1.714-3.826-3.826c0-2.113,1.713-3.827,3.826-3.827s3.827,1.714,3.827,3.827
	C555.601,457.827,553.888,459.541,551.774,459.541z"/>
<g>
	<g>
		
			<line fill="none" stroke="#000000" stroke-width="5.6693" stroke-miterlimit="10" x1="4594.541" y1="32.459" x2="4283.067" y2="32.459"/>
		
			<line fill="none" stroke="#000000" stroke-width="5.6693" stroke-miterlimit="10" x1="4283.067" y1="854.507" x2="4594.541" y2="854.507"/>
		<g enable-background="new    ">
			<path d="M4505.906,273.014h5.71l7.085,7.296c16.707,17.554,25.59,25.484,35.953,25.59c6.979,0,13.429-3.384,13.429-13.641
				c0-6.239-3.172-11.42-5.815-14.593l6.556-2.961c4.019,4.759,6.979,11.526,6.979,19.457c0,14.804-10.151,21.043-19.985,21.043
				c-12.689,0-22.946-9.2-36.904-23.687l-5.076-5.499h-0.211v30.877h-7.72V273.014z"/>
			<path d="M4512.462,332.65c-0.211,2.009,0,4.335,0.317,7.508c0.74,5.393,2.961,10.469,6.662,14.381
				c4.124,4.547,10.151,7.825,18.294,9.094v-0.317c-4.653-3.807-7.402-9.305-7.402-16.179c0-12.372,9.306-20.303,21.043-20.303
				c13.007,0,24.427,9.411,24.427,23.475s-11.42,22.735-28.974,22.735c-15.121,0-25.696-5.076-32.252-11.843
				c-5.182-5.287-8.354-12.583-9.199-19.985c-0.529-3.384-0.635-6.345-0.529-8.565H4512.462z M4552.011,336.034
				c-8.565,0-14.593,5.182-14.593,13.218c0,6.239,3.066,11.103,7.19,13.535c0.846,0.529,1.903,0.846,3.384,0.846
				c11.737,0,20.726-4.335,20.726-14.064C4568.718,341.638,4561.738,336.034,4552.011,336.034z"/>
			<path d="M4541.013,427.181c-23.369,0-36.27-8.671-36.27-23.898c0-13.429,12.583-22.523,35.318-22.735
				c23.052,0,35.741,9.94,35.741,23.898C4575.803,418.933,4562.902,427.181,4541.013,427.181z M4539.956,389.854
				c-17.871,0-28.022,5.499-28.022,13.958c0,9.517,11.104,14.064,28.656,14.064c16.919,0,28.022-4.335,28.022-13.958
				C4568.612,395.775,4558.672,389.854,4539.956,389.854z"/>
			<path d="M4543.233,438.704c5.287,0,9.623-0.106,13.853-0.423v8.142l-8.248,0.424v0.316c4.864,2.855,9.411,7.614,9.411,16.074
				c0,6.979-4.229,12.266-10.257,14.486v0.211c2.855,1.586,5.075,3.596,6.662,5.711c2.326,3.066,3.595,6.449,3.595,11.314
				c0,6.768-4.441,16.813-22.206,16.813h-30.137v-9.094h28.974c9.834,0,15.756-3.596,15.756-11.104c0-5.287-3.912-9.41-8.46-10.996
				c-1.269-0.424-2.96-0.74-4.652-0.74h-31.617v-9.094h30.666c8.142,0,14.063-3.596,14.063-10.681
				c0-5.815-4.652-10.046-9.306-11.526c-1.374-0.528-2.961-0.74-4.547-0.74h-30.877v-9.094H4543.233z"/>
			<path d="M4543.233,526.89c5.287,0,9.623-0.106,13.853-0.423v8.143l-8.248,0.422v0.318c4.864,2.854,9.411,7.613,9.411,16.072
				c0,6.979-4.229,12.267-10.257,14.487v0.212c2.855,1.586,5.075,3.595,6.662,5.709c2.326,3.066,3.595,6.451,3.595,11.314
				c0,6.768-4.441,16.814-22.206,16.814h-30.137v-9.095h28.974c9.834,0,15.756-3.595,15.756-11.103c0-5.287-3.912-9.412-8.46-10.998
				c-1.269-0.422-2.96-0.74-4.652-0.74h-31.617v-9.094h30.666c8.142,0,14.063-3.596,14.063-10.68c0-5.816-4.652-10.046-9.306-11.526
				c-1.374-0.528-2.961-0.74-4.547-0.74h-30.877v-9.094H4543.233z"/>
		</g>
	</g>
	<g>
		<g enable-background="new    ">
			<path d="M4670.711,316.318v43.168h49.902v-43.168h13.471v103.174h-13.471V371.12h-49.902v48.372h-13.318V316.318H4670.711z"/>
			<path d="M4818.73,399.286c0,7.653,0.154,14.39,0.613,20.206h-11.94l-0.765-12.093h-0.307
				c-3.521,5.97-11.328,13.776-24.492,13.776c-11.635,0-25.564-6.429-25.564-32.452v-43.32h13.471v41.024
				c0,14.083,4.287,23.574,16.533,23.574c9.031,0,15.307-6.276,17.756-12.246c0.766-1.99,1.225-4.439,1.225-6.889v-45.464h13.471
				V399.286z"/>
			<path d="M4904.909,345.403c-0.306,5.357-0.612,11.327-0.612,20.359v43.015c0,16.991-3.367,27.4-10.563,33.829
				c-7.194,6.735-17.604,8.879-26.941,8.879c-8.879,0-18.676-2.144-24.645-6.123l3.367-10.257
				c4.898,3.063,12.553,5.817,21.736,5.817c13.777,0,23.881-7.194,23.881-25.87v-8.266h-0.307
				c-4.133,6.889-12.094,12.398-23.574,12.398c-18.369,0-31.533-15.613-31.533-36.125c0-25.105,16.379-39.341,33.371-39.341
				c12.857,0,19.899,6.735,23.113,12.858h0.307l0.613-11.175H4904.909z M4890.979,374.64c0-2.296-0.152-4.286-0.765-6.123
				c-2.449-7.807-9.032-14.236-18.829-14.236c-12.857,0-22.043,10.869-22.043,28.014c0,14.542,7.348,26.635,21.891,26.635
				c8.266,0,15.768-5.204,18.676-13.776c0.766-2.296,1.07-4.898,1.07-7.194V374.64z"/>
			<path d="M4934.143,384.896c0.306,18.217,11.939,25.717,25.41,25.717c9.645,0,15.461-1.684,20.512-3.826l2.297,9.644
				c-4.746,2.144-12.859,4.593-24.646,4.593c-22.808,0-36.433-15.002-36.433-37.352c0-22.349,13.165-39.952,34.748-39.952
				c24.188,0,30.615,21.277,30.615,34.901c0,2.755-0.305,4.898-0.459,6.275H4934.143z M4973.636,375.253
				c0.153-8.572-3.521-21.89-18.675-21.89c-13.625,0-19.594,12.553-20.666,21.89H4973.636z"/>
		</g>
		<g enable-background="new    ">
			<path d="M4766.807,498.338h-7.668v-11.324h2.238v9.198h5.43V498.338z"/>
			<path d="M4774.445,498.338h-2.041v-0.439c-0.359,0.246-0.739,0.416-1.141,0.511c-0.402,0.094-0.814,0.142-1.24,0.142
				c-0.396,0-0.756-0.06-1.077-0.178s-0.601-0.288-0.837-0.51s-0.418-0.484-0.545-0.787c-0.128-0.302-0.191-0.638-0.191-1.006
				c0-0.463,0.102-0.867,0.305-1.212s0.479-0.633,0.829-0.864s0.759-0.404,1.226-0.518c0.469-0.113,0.971-0.17,1.51-0.17h1.176
				c0-0.482-0.155-0.865-0.467-1.148c-0.313-0.283-0.761-0.425-1.347-0.425c-0.284,0-0.577,0.052-0.879,0.155
				c-0.302,0.104-0.604,0.293-0.907,0.567l-1.205-1.219c0.436-0.416,0.938-0.737,1.51-0.964c0.572-0.227,1.16-0.34,1.765-0.34
				c0.567,0,1.071,0.09,1.515,0.269c0.442,0.18,0.8,0.411,1.072,0.694c0.356,0.359,0.607,0.761,0.752,1.205
				c0.146,0.444,0.219,1.012,0.219,1.701V498.338z M4772.404,496.297v-1.517h-0.936c-0.283,0-0.551,0.02-0.801,0.057
				c-0.25,0.038-0.467,0.102-0.652,0.191c-0.184,0.09-0.33,0.206-0.439,0.348c-0.107,0.142-0.162,0.312-0.162,0.51
				c0,0.283,0.111,0.516,0.333,0.694c0.222,0.18,0.508,0.27,0.857,0.27c0.302,0,0.603-0.047,0.899-0.142
				C4771.803,496.613,4772.102,496.476,4772.404,496.297z"/>
			<path d="M4782.027,496.042c0,0.406-0.094,0.768-0.283,1.084s-0.437,0.581-0.739,0.794s-0.644,0.373-1.022,0.481
				s-0.753,0.163-1.123,0.163c-0.625,0-1.199-0.115-1.725-0.347c-0.526-0.231-0.988-0.603-1.386-1.113l1.233-1.247
				c0.245,0.312,0.529,0.556,0.85,0.73c0.322,0.175,0.666,0.262,1.035,0.262c0.321,0,0.588-0.059,0.801-0.177
				s0.318-0.296,0.318-0.532c0-0.245-0.15-0.451-0.453-0.616s-0.728-0.328-1.275-0.489c-0.321-0.094-0.633-0.215-0.936-0.361
				s-0.572-0.326-0.808-0.538c-0.236-0.213-0.425-0.456-0.567-0.73c-0.142-0.273-0.213-0.59-0.213-0.949
				c0-0.396,0.093-0.754,0.277-1.07c0.186-0.316,0.426-0.581,0.725-0.794c0.299-0.212,0.637-0.375,1.016-0.488s0.762-0.17,1.15-0.17
				c1.25,0,2.273,0.473,3.068,1.417l-1.219,1.233c-0.236-0.293-0.506-0.524-0.808-0.695c-0.303-0.17-0.634-0.255-0.992-0.255
				c-0.123,0-0.253,0.017-0.39,0.05s-0.265,0.08-0.383,0.142s-0.215,0.142-0.291,0.241c-0.075,0.099-0.113,0.21-0.113,0.333
				c0,0.218,0.145,0.406,0.433,0.566c0.288,0.161,0.702,0.321,1.24,0.482c0.35,0.104,0.681,0.236,0.992,0.396
				c0.312,0.161,0.586,0.348,0.821,0.561c0.236,0.212,0.424,0.453,0.561,0.723C4781.959,495.396,4782.027,495.702,4782.027,496.042z
				"/>
			<path d="M4791.75,494.227c0,0.133-0.007,0.27-0.021,0.411c-0.014,0.142-0.03,0.288-0.049,0.439h-6.549
				c0.076,0.236,0.182,0.461,0.319,0.673c0.137,0.213,0.305,0.397,0.503,0.553c0.199,0.156,0.423,0.279,0.674,0.369
				c0.25,0.09,0.526,0.135,0.828,0.135c0.369,0,0.738-0.064,1.106-0.191c0.368-0.128,0.675-0.3,0.921-0.518l1.29,1.29
				c-0.567,0.425-1.122,0.725-1.665,0.899c-0.544,0.175-1.118,0.263-1.723,0.263c-0.614,0-1.188-0.113-1.722-0.341
				c-0.534-0.227-0.997-0.533-1.39-0.921c-0.392-0.388-0.701-0.844-0.928-1.368s-0.34-1.084-0.34-1.679
				c0-0.596,0.113-1.155,0.34-1.68s0.539-0.98,0.936-1.368c0.396-0.387,0.859-0.694,1.389-0.921s1.096-0.34,1.701-0.34
				c0.576,0,1.129,0.105,1.658,0.318s0.996,0.508,1.402,0.886s0.729,0.829,0.965,1.354
				C4791.632,493.015,4791.75,493.594,4791.75,494.227z M4789.61,493.433c-0.161-0.52-0.446-0.938-0.858-1.254
				c-0.41-0.316-0.876-0.475-1.396-0.475c-0.511,0-0.969,0.158-1.374,0.475c-0.407,0.316-0.69,0.734-0.852,1.254H4789.61z"/>
			<path d="M4798.908,490.996l-1.092,1.729c-0.199-0.218-0.418-0.409-0.659-0.574s-0.484-0.248-0.729-0.248
				c-0.133,0-0.277,0.03-0.433,0.092c-0.156,0.062-0.303,0.163-0.439,0.305c-0.138,0.142-0.253,0.329-0.347,0.561
				c-0.096,0.231-0.143,0.517-0.143,0.857v4.62h-2.041v-8.192h2.041v0.879c0.246-0.35,0.518-0.618,0.814-0.808
				c0.299-0.189,0.631-0.283,1-0.283c0.359,0,0.711,0.097,1.056,0.29C4798.281,490.418,4798.605,490.675,4798.908,490.996z"/>
			<path d="M4807.015,497.104c-0.416,0.473-0.917,0.832-1.503,1.077c-0.586,0.246-1.199,0.369-1.842,0.369
				c-0.596,0-1.158-0.109-1.687-0.326c-0.528-0.218-0.987-0.518-1.377-0.9s-0.696-0.838-0.922-1.367s-0.338-1.101-0.338-1.715
				c0-0.604,0.112-1.17,0.338-1.694s0.53-0.979,0.915-1.367s0.842-0.692,1.369-0.914c0.529-0.223,1.096-0.333,1.701-0.333
				c0.623,0,1.217,0.113,1.778,0.34s1.052,0.571,1.467,1.034l-1.374,1.403c-0.209-0.273-0.461-0.501-0.759-0.68
				c-0.298-0.18-0.659-0.27-1.085-0.27c-0.311,0-0.606,0.066-0.885,0.198c-0.279,0.133-0.525,0.31-0.737,0.531
				c-0.213,0.223-0.38,0.484-0.503,0.787s-0.185,0.623-0.185,0.964c0,0.34,0.062,0.661,0.185,0.964
				c0.123,0.302,0.287,0.564,0.496,0.786c0.207,0.222,0.453,0.399,0.736,0.531c0.283,0.133,0.582,0.198,0.893,0.198
				c0.406,0,0.775-0.097,1.105-0.29c0.331-0.193,0.596-0.441,0.795-0.744L4807.015,497.104z"/>
			<path d="M4815.277,498.338h-2.041v-0.624c-0.133,0.133-0.285,0.248-0.461,0.348c-0.174,0.1-0.359,0.185-0.553,0.255
				c-0.193,0.071-0.392,0.125-0.595,0.163s-0.395,0.057-0.574,0.057c-0.415,0-0.815-0.066-1.197-0.198
				c-0.383-0.132-0.721-0.335-1.014-0.609s-0.526-0.628-0.702-1.063c-0.174-0.435-0.262-0.949-0.262-1.545v-4.975h2.041v4.876
				c0,0.293,0.045,0.551,0.135,0.772s0.207,0.406,0.354,0.553c0.146,0.146,0.316,0.255,0.511,0.326
				c0.193,0.07,0.394,0.106,0.602,0.106c0.661,0,1.233-0.228,1.715-0.681v-5.953h2.041V498.338z"/>
			<path d="M4821.542,498.153c-0.208,0.133-0.448,0.231-0.723,0.298s-0.548,0.1-0.822,0.1c-0.481,0-0.888-0.06-1.219-0.178
				s-0.595-0.3-0.794-0.545c-0.198-0.246-0.342-0.558-0.432-0.936s-0.135-0.822-0.135-1.333v-3.585h-1.078v-0.922
				c0.662-0.273,1.198-0.681,1.609-1.219c0.411-0.539,0.691-1.237,0.844-2.098h0.666v2.396h2.068v1.843h-2.068v3.728
				c0,0.207,0.025,0.378,0.078,0.51c0.051,0.133,0.12,0.236,0.205,0.312c0.085,0.076,0.182,0.128,0.291,0.156
				c0.107,0.028,0.224,0.042,0.347,0.042c0.161,0,0.354-0.028,0.581-0.085s0.42-0.15,0.581-0.283V498.153z"/>
			<path d="M4829.337,488.714h-2.126v-2.126h2.126V488.714z M4829.309,498.338h-2.069v-8.206h2.069V498.338z"/>
			<path d="M4837.062,490.996l-1.091,1.729c-0.199-0.218-0.419-0.409-0.66-0.574c-0.24-0.165-0.484-0.248-0.729-0.248
				c-0.132,0-0.276,0.03-0.433,0.092s-0.303,0.163-0.439,0.305s-0.252,0.329-0.347,0.561s-0.142,0.517-0.142,0.857v4.62h-2.041
				v-8.192h2.041v0.879c0.245-0.35,0.518-0.618,0.814-0.808c0.298-0.189,0.631-0.283,1-0.283c0.358,0,0.711,0.097,1.055,0.29
				C4836.436,490.418,4836.759,490.675,4837.062,490.996z"/>
			<path d="M4839.91,488.714h-2.126v-2.126h2.126V488.714z M4839.882,498.338h-2.069v-8.206h2.069V498.338z"/>
			<path d="M4847.762,496.042c0,0.406-0.095,0.768-0.284,1.084s-0.437,0.581-0.739,0.794s-0.644,0.373-1.021,0.481
				c-0.379,0.108-0.754,0.163-1.123,0.163c-0.625,0-1.2-0.115-1.726-0.347c-0.526-0.231-0.987-0.603-1.386-1.113l1.233-1.247
				c0.245,0.312,0.529,0.556,0.851,0.73s0.666,0.262,1.035,0.262c0.32,0,0.588-0.059,0.801-0.177
				c0.212-0.118,0.318-0.296,0.318-0.532c0-0.245-0.151-0.451-0.453-0.616c-0.303-0.165-0.729-0.328-1.275-0.489
				c-0.322-0.094-0.634-0.215-0.936-0.361c-0.303-0.146-0.572-0.326-0.809-0.538c-0.236-0.213-0.425-0.456-0.566-0.73
				c-0.143-0.273-0.213-0.59-0.213-0.949c0-0.396,0.092-0.754,0.277-1.07c0.185-0.316,0.426-0.581,0.725-0.794
				c0.298-0.212,0.637-0.375,1.016-0.488s0.762-0.17,1.15-0.17c1.25,0,2.273,0.473,3.068,1.417l-1.219,1.233
				c-0.236-0.293-0.506-0.524-0.809-0.695c-0.303-0.17-0.633-0.255-0.992-0.255c-0.123,0-0.252,0.017-0.389,0.05
				c-0.138,0.033-0.266,0.08-0.383,0.142c-0.119,0.062-0.215,0.142-0.291,0.241c-0.076,0.099-0.113,0.21-0.113,0.333
				c0,0.218,0.145,0.406,0.432,0.566c0.289,0.161,0.702,0.321,1.24,0.482c0.35,0.104,0.681,0.236,0.992,0.396
				c0.313,0.161,0.586,0.348,0.822,0.561c0.236,0.212,0.423,0.453,0.561,0.723C4847.693,495.396,4847.762,495.702,4847.762,496.042z
				"/>
			<path d="M4861.367,494.242c0,0.576-0.097,1.124-0.291,1.644c-0.193,0.52-0.467,0.976-0.816,1.368
				c-0.351,0.392-0.768,0.704-1.25,0.936c-0.483,0.231-1.014,0.347-1.592,0.347c-0.359,0-0.695-0.05-1.008-0.148
				c-0.313-0.1-0.607-0.258-0.882-0.475v0.425h-2.04v-11.764h2.055l0.014,3.969c0.236-0.189,0.518-0.341,0.844-0.454
				s0.668-0.17,1.027-0.17c0.5,0,0.987,0.111,1.46,0.333c0.472,0.223,0.893,0.527,1.261,0.914c0.369,0.388,0.664,0.844,0.887,1.368
				C4861.257,493.058,4861.367,493.628,4861.367,494.242z M4859.299,494.242c0-0.378-0.057-0.724-0.171-1.035
				s-0.272-0.578-0.477-0.801c-0.204-0.222-0.446-0.392-0.726-0.51s-0.59-0.178-0.932-0.178c-0.219,0-0.47,0.045-0.754,0.135
				c-0.285,0.09-0.521,0.206-0.712,0.348v3.939c0.446,0.407,0.948,0.61,1.509,0.61c0.322,0,0.623-0.062,0.902-0.185
				c0.28-0.123,0.52-0.295,0.719-0.518c0.199-0.222,0.355-0.486,0.47-0.794C4859.242,494.948,4859.299,494.61,4859.299,494.242z"/>
			<path d="M4871.105,494.242c0,0.614-0.114,1.184-0.341,1.707c-0.228,0.524-0.538,0.979-0.936,1.361s-0.862,0.685-1.396,0.907
				c-0.534,0.222-1.104,0.333-1.709,0.333c-0.604,0-1.171-0.111-1.7-0.333c-0.529-0.223-0.992-0.527-1.39-0.914
				c-0.396-0.388-0.708-0.844-0.935-1.368c-0.228-0.524-0.341-1.089-0.341-1.693c0-0.596,0.116-1.155,0.348-1.68
				s0.546-0.982,0.942-1.375c0.397-0.392,0.86-0.699,1.39-0.921c0.529-0.223,1.091-0.333,1.686-0.333
				c0.605,0,1.175,0.11,1.709,0.333c0.533,0.222,0.998,0.524,1.396,0.906c0.397,0.383,0.708,0.839,0.936,1.368
				C4870.991,493.07,4871.105,493.637,4871.105,494.242z M4869.064,494.242c0-0.35-0.063-0.676-0.185-0.979
				c-0.122-0.302-0.29-0.566-0.501-0.794c-0.213-0.227-0.46-0.403-0.742-0.531c-0.283-0.127-0.584-0.191-0.904-0.191
				s-0.622,0.064-0.904,0.191c-0.283,0.128-0.53,0.305-0.742,0.531c-0.212,0.228-0.379,0.492-0.502,0.794
				c-0.122,0.303-0.184,0.629-0.184,0.979s0.062,0.676,0.184,0.978c0.123,0.303,0.29,0.567,0.502,0.794s0.459,0.403,0.742,0.531
				c0.282,0.128,0.584,0.191,0.904,0.191s0.621-0.063,0.904-0.191c0.282-0.128,0.529-0.305,0.742-0.531
				c0.211-0.227,0.379-0.491,0.501-0.794C4869.002,494.918,4869.064,494.592,4869.064,494.242z"/>
			<path d="M4879.496,498.352h-2.34l-1.7-2.622l-1.715,2.622h-2.339l2.92-4.295l-2.679-3.926h2.31l1.503,2.296l1.488-2.296h2.324
				l-2.692,3.926L4879.496,498.352z"/>
		</g>
		<g enable-background="new    ">
			<path d="M4739.863,515.345h-2.084v-0.425c-0.265,0.217-0.553,0.375-0.865,0.475c-0.311,0.099-0.643,0.148-0.992,0.148
				c-0.576,0-1.105-0.115-1.586-0.347c-0.482-0.231-0.898-0.544-1.248-0.936c-0.35-0.393-0.621-0.849-0.814-1.368
				c-0.194-0.52-0.291-1.067-0.291-1.644c0-0.614,0.111-1.184,0.333-1.708s0.518-0.98,0.886-1.368
				c0.369-0.387,0.789-0.691,1.262-0.914c0.473-0.222,0.959-0.333,1.459-0.333c0.35,0,0.69,0.048,1.021,0.142
				c0.33,0.095,0.613,0.227,0.85,0.397v-3.884h2.07V515.345z M4737.808,513.148v-3.939c-0.095-0.066-0.204-0.13-0.327-0.191
				s-0.252-0.113-0.385-0.156c-0.133-0.042-0.266-0.075-0.398-0.099s-0.25-0.036-0.355-0.036c-0.341,0-0.651,0.06-0.932,0.178
				c-0.279,0.118-0.523,0.288-0.732,0.51c-0.209,0.223-0.369,0.489-0.483,0.801s-0.171,0.657-0.171,1.035
				c0,0.368,0.057,0.706,0.171,1.013c0.114,0.308,0.271,0.572,0.47,0.794c0.199,0.223,0.438,0.395,0.718,0.518
				s0.586,0.185,0.917,0.185C4736.84,513.759,4737.343,513.555,4737.808,513.148z"/>
			<path d="M4750.025,511.235c0,0.133-0.008,0.27-0.021,0.411c-0.015,0.142-0.031,0.288-0.051,0.439h-6.547
				c0.075,0.236,0.182,0.461,0.318,0.673c0.137,0.213,0.305,0.397,0.504,0.553c0.197,0.156,0.422,0.279,0.672,0.369
				c0.251,0.09,0.527,0.135,0.83,0.135c0.368,0,0.736-0.064,1.105-0.191c0.368-0.128,0.676-0.3,0.921-0.518l1.29,1.29
				c-0.566,0.425-1.122,0.725-1.666,0.899c-0.543,0.175-1.117,0.263-1.722,0.263c-0.614,0-1.188-0.113-1.722-0.341
				c-0.534-0.227-0.997-0.533-1.389-0.921c-0.393-0.388-0.702-0.844-0.929-1.368c-0.228-0.524-0.341-1.084-0.341-1.679
				c0-0.596,0.113-1.155,0.341-1.68c0.227-0.524,0.538-0.98,0.935-1.368c0.397-0.387,0.86-0.694,1.39-0.921s1.097-0.34,1.7-0.34
				c0.576,0,1.129,0.105,1.658,0.318s0.998,0.508,1.404,0.886s0.727,0.829,0.963,1.354S4750.025,510.602,4750.025,511.235z
				 M4747.885,510.441c-0.161-0.52-0.447-0.938-0.857-1.254c-0.411-0.316-0.877-0.475-1.396-0.475c-0.51,0-0.969,0.158-1.375,0.475
				s-0.689,0.734-0.85,1.254H4747.885z"/>
			<path d="M4757.31,513.05c0,0.406-0.095,0.768-0.284,1.084s-0.436,0.581-0.738,0.794s-0.645,0.373-1.023,0.481
				s-0.752,0.163-1.122,0.163c-0.625,0-1.2-0.115-1.726-0.347s-0.987-0.603-1.385-1.113l1.232-1.247
				c0.246,0.312,0.529,0.556,0.851,0.73s0.666,0.262,1.034,0.262c0.322,0,0.589-0.059,0.801-0.177
				c0.213-0.118,0.319-0.296,0.319-0.532c0-0.245-0.151-0.451-0.454-0.616c-0.302-0.165-0.727-0.328-1.275-0.489
				c-0.32-0.094-0.633-0.215-0.936-0.361c-0.302-0.146-0.571-0.326-0.807-0.538c-0.236-0.213-0.426-0.456-0.568-0.73
				c-0.141-0.273-0.212-0.59-0.212-0.949c0-0.396,0.093-0.754,0.276-1.07c0.186-0.316,0.427-0.581,0.725-0.794
				c0.299-0.212,0.637-0.375,1.016-0.488s0.763-0.17,1.151-0.17c1.25,0,2.272,0.473,3.068,1.417l-1.219,1.233
				c-0.236-0.293-0.506-0.524-0.808-0.695c-0.303-0.17-0.634-0.255-0.992-0.255c-0.123,0-0.254,0.017-0.391,0.05
				s-0.264,0.08-0.383,0.142c-0.117,0.062-0.215,0.142-0.29,0.241c-0.075,0.099-0.113,0.21-0.113,0.333
				c0,0.218,0.144,0.406,0.433,0.566c0.287,0.161,0.701,0.321,1.24,0.482c0.35,0.104,0.68,0.236,0.992,0.396
				c0.312,0.161,0.586,0.348,0.821,0.561c0.236,0.212,0.423,0.453,0.56,0.723C4757.24,512.404,4757.31,512.71,4757.31,513.05z"/>
			<path d="M4760.697,505.721h-2.126v-2.126h2.126V505.721z M4760.669,515.345h-2.069v-8.206h2.069V515.345z"/>
			<path d="M4770.065,508.769h-0.864c0.217,0.425,0.326,0.879,0.326,1.36c0,0.368-0.069,0.726-0.206,1.07
				c-0.138,0.345-0.333,0.659-0.589,0.942c-0.254,0.283-0.564,0.524-0.928,0.723s-0.772,0.331-1.227,0.397
				c-0.311,0.047-0.545,0.12-0.701,0.219c-0.156,0.1-0.234,0.199-0.234,0.298c0,0.1,0.078,0.191,0.234,0.276s0.391,0.142,0.701,0.17
				c1.059,0.095,1.879,0.359,2.459,0.794c0.582,0.435,0.872,1.011,0.872,1.729c0,0.368-0.089,0.708-0.269,1.021
				c-0.179,0.312-0.436,0.581-0.77,0.808s-0.736,0.401-1.207,0.524s-0.998,0.185-1.582,0.185c-0.593,0-1.127-0.062-1.602-0.185
				c-0.477-0.123-0.883-0.295-1.223-0.518c-0.338-0.222-0.598-0.488-0.776-0.801c-0.179-0.312-0.269-0.656-0.269-1.034
				c0-0.567,0.162-1.042,0.486-1.425c0.322-0.383,0.851-0.668,1.582-0.857c-0.227-0.085-0.391-0.2-0.489-0.347
				s-0.144-0.296-0.134-0.447c0.009-0.15,0.072-0.295,0.19-0.432s0.286-0.243,0.504-0.319c-0.247-0.113-0.483-0.26-0.706-0.439
				c-0.225-0.179-0.426-0.387-0.607-0.623c-0.18-0.236-0.323-0.501-0.428-0.794c-0.105-0.293-0.157-0.604-0.157-0.936
				c0-0.444,0.095-0.859,0.284-1.247c0.188-0.388,0.443-0.726,0.765-1.014s0.694-0.515,1.12-0.68
				c0.425-0.166,0.873-0.248,1.346-0.248c0.463,0,0.894,0.07,1.29,0.212h2.807V508.769z M4767.869,516.749
				c0-0.331-0.168-0.572-0.502-0.723c-0.334-0.151-0.765-0.228-1.291-0.228c-0.565,0-1.01,0.081-1.335,0.241
				c-0.325,0.161-0.487,0.397-0.487,0.709c0,0.321,0.17,0.562,0.509,0.723c0.339,0.16,0.776,0.241,1.313,0.241
				c0.545,0,0.98-0.078,1.305-0.234C4767.706,517.323,4767.869,517.079,4767.869,516.749z M4767.486,510.13
				c0-0.208-0.041-0.401-0.12-0.581s-0.187-0.338-0.323-0.475c-0.135-0.137-0.295-0.246-0.477-0.326
				c-0.183-0.08-0.377-0.12-0.583-0.12s-0.397,0.04-0.575,0.12s-0.335,0.189-0.471,0.326s-0.243,0.295-0.322,0.475
				c-0.08,0.18-0.12,0.373-0.12,0.581s0.04,0.404,0.12,0.588c0.079,0.185,0.187,0.346,0.322,0.482s0.293,0.246,0.471,0.326
				s0.369,0.12,0.575,0.12s0.4-0.04,0.583-0.12c0.182-0.08,0.342-0.189,0.477-0.326c0.137-0.137,0.244-0.298,0.323-0.482
				C4767.445,510.534,4767.486,510.338,4767.486,510.13z"/>
			<path d="M4778.513,515.345h-2.041v-4.89c0-0.293-0.046-0.551-0.136-0.772s-0.211-0.406-0.363-0.553
				c-0.151-0.146-0.324-0.255-0.52-0.326c-0.193-0.07-0.396-0.106-0.604-0.106c-0.314,0-0.622,0.055-0.926,0.163
				s-0.578,0.281-0.826,0.518v5.967h-2.04v-8.192h2.04l0.015,0.609c0.123-0.122,0.274-0.235,0.454-0.34
				c0.18-0.104,0.365-0.191,0.56-0.262c0.193-0.071,0.392-0.126,0.595-0.163c0.203-0.038,0.399-0.057,0.589-0.057
				c0.415,0,0.815,0.065,1.197,0.198c0.383,0.132,0.724,0.335,1.021,0.609c0.298,0.274,0.536,0.628,0.716,1.063
				s0.27,0.95,0.27,1.545V515.345z"/>
			<path d="M4788.533,511.235c0,0.133-0.008,0.27-0.021,0.411s-0.031,0.288-0.05,0.439h-6.548c0.076,0.236,0.182,0.461,0.318,0.673
				c0.137,0.213,0.305,0.397,0.504,0.553c0.198,0.156,0.422,0.279,0.673,0.369s0.526,0.135,0.829,0.135
				c0.369,0,0.737-0.064,1.105-0.191c0.369-0.128,0.676-0.3,0.922-0.518l1.289,1.29c-0.566,0.425-1.121,0.725-1.665,0.899
				s-1.118,0.263-1.722,0.263c-0.615,0-1.188-0.113-1.723-0.341c-0.533-0.227-0.996-0.533-1.389-0.921s-0.701-0.844-0.928-1.368
				c-0.228-0.524-0.341-1.084-0.341-1.679c0-0.596,0.113-1.155,0.341-1.68c0.227-0.524,0.538-0.98,0.935-1.368
				c0.397-0.387,0.86-0.694,1.39-0.921s1.096-0.34,1.7-0.34c0.576,0,1.129,0.105,1.658,0.318s0.997,0.508,1.403,0.886
				s0.728,0.829,0.964,1.354C4788.414,510.023,4788.533,510.602,4788.533,511.235z M4786.393,510.441
				c-0.16-0.52-0.446-0.938-0.857-1.254c-0.41-0.316-0.877-0.475-1.396-0.475c-0.51,0-0.969,0.158-1.374,0.475
				c-0.407,0.316-0.69,0.734-0.851,1.254H4786.393z"/>
			<path d="M4797.405,515.345h-2.083v-0.425c-0.266,0.217-0.553,0.375-0.865,0.475c-0.312,0.099-0.643,0.148-0.992,0.148
				c-0.576,0-1.105-0.115-1.587-0.347s-0.897-0.544-1.247-0.936c-0.35-0.393-0.621-0.849-0.815-1.368s-0.29-1.067-0.29-1.644
				c0-0.614,0.11-1.184,0.332-1.708c0.223-0.524,0.518-0.98,0.887-1.368c0.368-0.387,0.789-0.691,1.262-0.914
				c0.472-0.222,0.959-0.333,1.459-0.333c0.35,0,0.689,0.048,1.021,0.142c0.331,0.095,0.614,0.227,0.851,0.397v-3.884h2.069V515.345
				z M4795.35,513.148v-3.939c-0.094-0.066-0.203-0.13-0.326-0.191c-0.124-0.062-0.252-0.113-0.385-0.156
				c-0.133-0.042-0.266-0.075-0.398-0.099s-0.251-0.036-0.355-0.036c-0.342,0-0.652,0.06-0.932,0.178
				c-0.28,0.118-0.524,0.288-0.732,0.51c-0.209,0.223-0.37,0.489-0.484,0.801c-0.113,0.312-0.17,0.657-0.17,1.035
				c0,0.368,0.057,0.706,0.17,1.013c0.114,0.308,0.271,0.572,0.47,0.794c0.199,0.223,0.438,0.395,0.718,0.518
				c0.28,0.123,0.586,0.185,0.918,0.185C4794.383,513.759,4794.885,513.555,4795.35,513.148z"/>
			<path d="M4811.45,511.25c0,0.576-0.097,1.124-0.291,1.644s-0.467,0.976-0.817,1.368c-0.35,0.392-0.768,0.704-1.25,0.936
				s-1.014,0.347-1.591,0.347c-0.36,0-0.696-0.05-1.009-0.148c-0.313-0.1-0.606-0.258-0.881-0.475v0.425h-2.041v-11.764h2.055
				l0.015,3.969c0.235-0.189,0.517-0.341,0.843-0.454s0.668-0.17,1.027-0.17c0.501,0,0.988,0.111,1.461,0.333
				c0.472,0.223,0.893,0.527,1.261,0.914c0.368,0.388,0.663,0.844,0.886,1.368S4811.45,510.635,4811.45,511.25z M4809.381,511.25
				c0-0.378-0.057-0.724-0.17-1.035c-0.114-0.312-0.273-0.578-0.477-0.801c-0.205-0.222-0.446-0.392-0.727-0.51
				c-0.279-0.118-0.59-0.178-0.932-0.178c-0.219,0-0.469,0.045-0.754,0.135s-0.521,0.206-0.711,0.348v3.939
				c0.445,0.407,0.948,0.61,1.508,0.61c0.322,0,0.623-0.062,0.903-0.185s0.519-0.295,0.718-0.518
				c0.199-0.222,0.356-0.486,0.471-0.794C4809.324,511.956,4809.381,511.618,4809.381,511.25z"/>
			<path d="M4820.167,507.139l-3.685,9.736c-0.275,0.728-0.634,1.252-1.078,1.573c-0.443,0.321-0.973,0.482-1.587,0.482
				c-0.095,0-0.198-0.007-0.312-0.021c-0.113-0.014-0.223-0.035-0.326-0.063l-0.681-1.899c0.161,0.075,0.326,0.135,0.496,0.177
				c0.17,0.043,0.331,0.064,0.481,0.064c0.322,0,0.615-0.073,0.879-0.22c0.265-0.146,0.469-0.418,0.609-0.815l0.283-0.822
				l-3.16-8.191h2.226l1.885,5.272l1.771-5.272H4820.167z"/>
			<path d="M4832.086,511.547c0,0.766-0.135,1.403-0.403,1.914c-0.27,0.51-0.598,0.921-0.985,1.232
				c-0.387,0.313-0.801,0.534-1.24,0.667c-0.439,0.132-0.834,0.198-1.184,0.198c-0.643,0-1.254-0.151-1.835-0.454
				c-0.581-0.302-1.065-0.703-1.452-1.204l1.445-1.432c0.188,0.303,0.434,0.538,0.736,0.708c0.303,0.171,0.614,0.256,0.936,0.256
				c0.217,0,0.43-0.04,0.639-0.121c0.207-0.08,0.394-0.195,0.559-0.347c0.166-0.151,0.299-0.336,0.397-0.553
				c0.099-0.218,0.149-0.468,0.149-0.751v-7.64h2.238V511.547z"/>
			<path d="M4840.434,515.345h-2.041v-0.439c-0.358,0.246-0.738,0.416-1.141,0.511c-0.401,0.094-0.814,0.142-1.24,0.142
				c-0.396,0-0.756-0.06-1.076-0.178c-0.322-0.118-0.601-0.288-0.837-0.51s-0.418-0.484-0.546-0.787
				c-0.127-0.302-0.191-0.638-0.191-1.006c0-0.463,0.102-0.867,0.305-1.212s0.48-0.633,0.83-0.864s0.758-0.404,1.226-0.518
				s0.971-0.17,1.509-0.17h1.177c0-0.482-0.155-0.865-0.468-1.148c-0.312-0.283-0.76-0.425-1.346-0.425
				c-0.284,0-0.577,0.052-0.879,0.155c-0.303,0.104-0.605,0.293-0.907,0.567l-1.205-1.219c0.435-0.416,0.938-0.737,1.51-0.964
				s1.159-0.34,1.765-0.34c0.566,0,1.071,0.09,1.514,0.269c0.443,0.18,0.801,0.411,1.072,0.694c0.357,0.359,0.607,0.761,0.753,1.205
				s0.218,1.012,0.218,1.701V515.345z M4838.393,513.304v-1.517h-0.935c-0.284,0-0.551,0.02-0.801,0.057
				c-0.251,0.038-0.468,0.102-0.652,0.191s-0.331,0.206-0.439,0.348s-0.163,0.312-0.163,0.51c0,0.283,0.111,0.516,0.334,0.694
				c0.221,0.18,0.508,0.27,0.857,0.27c0.302,0,0.602-0.047,0.899-0.142S4838.091,513.484,4838.393,513.304z"/>
			<path d="M4849.392,514.112c-0.416,0.473-0.917,0.832-1.503,1.077c-0.586,0.246-1.199,0.369-1.842,0.369
				c-0.596,0-1.158-0.109-1.687-0.326c-0.528-0.218-0.987-0.518-1.377-0.9s-0.696-0.838-0.922-1.367s-0.338-1.101-0.338-1.715
				c0-0.604,0.112-1.17,0.338-1.694s0.53-0.979,0.915-1.367s0.842-0.692,1.369-0.914c0.529-0.223,1.096-0.333,1.701-0.333
				c0.623,0,1.217,0.113,1.778,0.34s1.052,0.571,1.467,1.034l-1.374,1.403c-0.209-0.273-0.461-0.501-0.759-0.68
				c-0.298-0.18-0.659-0.27-1.085-0.27c-0.311,0-0.606,0.066-0.885,0.198c-0.279,0.133-0.525,0.31-0.737,0.531
				c-0.213,0.223-0.38,0.484-0.503,0.787s-0.185,0.623-0.185,0.964c0,0.34,0.062,0.661,0.185,0.964
				c0.123,0.302,0.287,0.564,0.496,0.786c0.207,0.222,0.453,0.399,0.736,0.531c0.283,0.133,0.582,0.198,0.893,0.198
				c0.406,0,0.775-0.097,1.105-0.29c0.331-0.193,0.596-0.441,0.795-0.744L4849.392,514.112z"/>
			<path d="M4858.193,515.345h-2.424l-3.288-3.671v3.671h-2.083v-11.75h2.083v7.03l2.862-3.473h2.381l-3.358,3.983L4858.193,515.345
				z"/>
			<path d="M4869.546,513.304c-0.567,0.689-1.255,1.238-2.063,1.645s-1.698,0.609-2.671,0.609c-0.842,0-1.631-0.154-2.367-0.461
				c-0.737-0.307-1.379-0.725-1.924-1.254s-0.976-1.15-1.29-1.864c-0.314-0.713-0.472-1.481-0.472-2.303
				c0-0.822,0.157-1.59,0.472-2.304c0.314-0.713,0.745-1.337,1.29-1.871c0.545-0.533,1.187-0.951,1.924-1.254
				c0.736-0.303,1.525-0.453,2.367-0.453c0.973,0,1.863,0.203,2.671,0.609s1.481,0.936,2.021,1.587l-1.518,1.56
				c-0.35-0.501-0.801-0.905-1.354-1.212c-0.553-0.308-1.16-0.461-1.82-0.461c-0.529,0-1.028,0.102-1.496,0.305
				c-0.467,0.203-0.877,0.478-1.226,0.822c-0.351,0.345-0.626,0.746-0.829,1.205c-0.203,0.458-0.305,0.947-0.305,1.467
				c0,0.51,0.102,0.994,0.305,1.452c0.203,0.459,0.479,0.86,0.829,1.205c0.349,0.345,0.759,0.619,1.226,0.822
				c0.468,0.203,0.967,0.305,1.496,0.305c0.699,0,1.317-0.158,1.855-0.475c0.539-0.317,0.988-0.735,1.348-1.255L4869.546,513.304z"
				/>
			<path d="M4877.058,515.345h-2.041v-0.439c-0.358,0.246-0.739,0.416-1.141,0.511c-0.401,0.094-0.815,0.142-1.24,0.142
				c-0.397,0-0.757-0.06-1.077-0.178c-0.321-0.118-0.6-0.288-0.836-0.51s-0.418-0.484-0.546-0.787
				c-0.128-0.302-0.191-0.638-0.191-1.006c0-0.463,0.102-0.867,0.305-1.212s0.479-0.633,0.829-0.864s0.758-0.404,1.227-0.518
				c0.467-0.113,0.971-0.17,1.509-0.17h1.177c0-0.482-0.156-0.865-0.469-1.148c-0.311-0.283-0.76-0.425-1.346-0.425
				c-0.283,0-0.576,0.052-0.879,0.155c-0.303,0.104-0.604,0.293-0.906,0.567l-1.205-1.219c0.434-0.416,0.938-0.737,1.51-0.964
				c0.57-0.227,1.159-0.34,1.764-0.34c0.566,0,1.072,0.09,1.515,0.269c0.442,0.18,0.8,0.411,1.071,0.694
				c0.357,0.359,0.607,0.761,0.754,1.205c0.145,0.444,0.218,1.012,0.218,1.701V515.345z M4875.017,513.304v-1.517h-0.935
				c-0.284,0-0.551,0.02-0.801,0.057c-0.251,0.038-0.469,0.102-0.652,0.191c-0.185,0.09-0.331,0.206-0.439,0.348
				c-0.109,0.142-0.163,0.312-0.163,0.51c0,0.283,0.11,0.516,0.333,0.694c0.222,0.18,0.508,0.27,0.857,0.27
				c0.303,0,0.603-0.047,0.9-0.142C4874.414,513.621,4874.715,513.484,4875.017,513.304z"/>
			<path d="M4884.513,508.004l-1.091,1.729c-0.199-0.218-0.419-0.409-0.66-0.574c-0.24-0.165-0.484-0.248-0.729-0.248
				c-0.132,0-0.276,0.03-0.433,0.092s-0.303,0.163-0.439,0.305s-0.252,0.329-0.347,0.561s-0.142,0.517-0.142,0.857v4.62h-2.041
				v-8.192h2.041v0.879c0.245-0.35,0.518-0.618,0.814-0.808c0.298-0.189,0.631-0.283,1-0.283c0.358,0,0.711,0.097,1.055,0.29
				C4883.887,507.426,4884.21,507.682,4884.513,508.004z"/>
			<path d="M4889.799,515.161c-0.208,0.133-0.449,0.231-0.723,0.298c-0.274,0.066-0.549,0.1-0.822,0.1
				c-0.482,0-0.889-0.06-1.219-0.178c-0.331-0.118-0.596-0.3-0.794-0.545c-0.198-0.246-0.343-0.558-0.433-0.936
				s-0.135-0.822-0.135-1.333v-3.585h-1.076v-0.922c0.661-0.273,1.197-0.681,1.608-1.219c0.411-0.539,0.692-1.237,0.843-2.098h0.666
				v2.396h2.07v1.843h-2.07v3.728c0,0.207,0.026,0.378,0.078,0.51c0.053,0.133,0.121,0.236,0.206,0.312
				c0.085,0.076,0.182,0.128,0.29,0.156c0.109,0.028,0.225,0.042,0.348,0.042c0.16,0,0.354-0.028,0.581-0.085
				c0.228-0.057,0.421-0.15,0.581-0.283V515.161z"/>
			<path d="M4899.465,511.235c0,0.133-0.008,0.27-0.021,0.411s-0.031,0.288-0.05,0.439h-6.548c0.076,0.236,0.182,0.461,0.318,0.673
				c0.137,0.213,0.305,0.397,0.504,0.553c0.198,0.156,0.422,0.279,0.673,0.369s0.526,0.135,0.829,0.135
				c0.369,0,0.737-0.064,1.105-0.191c0.369-0.128,0.676-0.3,0.922-0.518l1.289,1.29c-0.566,0.425-1.121,0.725-1.665,0.899
				s-1.118,0.263-1.722,0.263c-0.615,0-1.188-0.113-1.723-0.341c-0.533-0.227-0.996-0.533-1.389-0.921s-0.701-0.844-0.928-1.368
				c-0.228-0.524-0.341-1.084-0.341-1.679c0-0.596,0.113-1.155,0.341-1.68c0.227-0.524,0.538-0.98,0.935-1.368
				c0.397-0.387,0.86-0.694,1.39-0.921s1.096-0.34,1.7-0.34c0.576,0,1.129,0.105,1.658,0.318s0.997,0.508,1.403,0.886
				s0.728,0.829,0.964,1.354C4899.346,510.023,4899.465,510.602,4899.465,511.235z M4897.324,510.441
				c-0.16-0.52-0.446-0.938-0.857-1.254c-0.41-0.316-0.877-0.475-1.396-0.475c-0.51,0-0.969,0.158-1.374,0.475
				c-0.407,0.316-0.69,0.734-0.851,1.254H4897.324z"/>
			<path d="M4906.623,508.004l-1.092,1.729c-0.199-0.218-0.418-0.409-0.659-0.574s-0.484-0.248-0.729-0.248
				c-0.133,0-0.277,0.03-0.433,0.092c-0.156,0.062-0.303,0.163-0.439,0.305c-0.138,0.142-0.253,0.329-0.347,0.561
				c-0.096,0.231-0.143,0.517-0.143,0.857v4.62h-2.041v-8.192h2.041v0.879c0.246-0.35,0.518-0.618,0.814-0.808
				c0.299-0.189,0.631-0.283,1-0.283c0.359,0,0.711,0.097,1.056,0.29C4905.996,507.426,4906.32,507.682,4906.623,508.004z"/>
		</g>
		<g enable-background="new    ">
			<path d="M4728.851,532.169c-0.208,0.133-0.448,0.231-0.723,0.298s-0.548,0.1-0.822,0.1c-0.481,0-0.888-0.06-1.219-0.178
				s-0.595-0.3-0.794-0.545c-0.198-0.246-0.342-0.558-0.432-0.936s-0.135-0.822-0.135-1.333v-3.585h-1.078v-0.922
				c0.662-0.273,1.198-0.681,1.609-1.219c0.411-0.539,0.691-1.237,0.844-2.098h0.666v2.396h2.068v1.843h-2.068v3.728
				c0,0.207,0.025,0.378,0.078,0.51c0.051,0.133,0.12,0.236,0.205,0.312c0.085,0.076,0.182,0.128,0.291,0.156
				c0.107,0.028,0.224,0.042,0.347,0.042c0.161,0,0.354-0.028,0.581-0.085s0.42-0.15,0.581-0.283V532.169z"/>
			<path d="M4738.518,528.258c0,0.614-0.114,1.184-0.341,1.707c-0.228,0.524-0.538,0.979-0.936,1.361s-0.862,0.685-1.396,0.907
				c-0.534,0.222-1.104,0.333-1.709,0.333c-0.604,0-1.171-0.111-1.7-0.333c-0.529-0.223-0.992-0.527-1.39-0.914
				c-0.396-0.388-0.708-0.844-0.935-1.368c-0.228-0.524-0.341-1.089-0.341-1.693c0-0.596,0.116-1.155,0.348-1.68
				s0.546-0.982,0.942-1.375c0.397-0.392,0.86-0.699,1.39-0.921c0.529-0.223,1.091-0.333,1.686-0.333
				c0.605,0,1.175,0.11,1.709,0.333c0.533,0.222,0.998,0.524,1.396,0.906c0.397,0.383,0.708,0.839,0.936,1.368
				C4738.403,527.086,4738.518,527.653,4738.518,528.258z M4736.477,528.258c0-0.35-0.063-0.676-0.185-0.979
				c-0.122-0.302-0.29-0.566-0.501-0.794c-0.213-0.227-0.46-0.403-0.742-0.531c-0.283-0.127-0.584-0.191-0.904-0.191
				s-0.622,0.064-0.904,0.191c-0.283,0.128-0.53,0.305-0.742,0.531c-0.212,0.228-0.379,0.492-0.502,0.794
				c-0.122,0.303-0.184,0.629-0.184,0.979s0.062,0.676,0.184,0.978c0.123,0.303,0.29,0.567,0.502,0.794s0.459,0.403,0.742,0.531
				c0.282,0.128,0.584,0.191,0.904,0.191s0.621-0.063,0.904-0.191c0.282-0.128,0.529-0.305,0.742-0.531
				c0.211-0.227,0.379-0.491,0.501-0.794C4736.414,528.933,4736.477,528.607,4736.477,528.258z"/>
			<path d="M4752.137,528.258c0,0.576-0.098,1.124-0.291,1.644c-0.194,0.52-0.467,0.976-0.816,1.368
				c-0.352,0.392-0.768,0.704-1.251,0.936s-1.014,0.347-1.591,0.347c-0.36,0-0.696-0.05-1.009-0.148
				c-0.313-0.1-0.606-0.258-0.882-0.475v0.425h-2.04V520.59h2.055l0.015,3.969c0.236-0.189,0.518-0.341,0.844-0.454
				c0.325-0.113,0.668-0.17,1.027-0.17c0.5,0,0.986,0.111,1.459,0.333c0.473,0.223,0.893,0.527,1.262,0.914
				c0.369,0.388,0.664,0.844,0.886,1.368S4752.137,527.643,4752.137,528.258z M4750.068,528.258c0-0.378-0.058-0.724-0.172-1.035
				c-0.113-0.312-0.272-0.578-0.477-0.801c-0.203-0.222-0.445-0.392-0.725-0.51c-0.28-0.118-0.591-0.178-0.932-0.178
				c-0.219,0-0.471,0.045-0.755,0.135s-0.521,0.206-0.712,0.348v3.939c0.446,0.407,0.949,0.61,1.509,0.61
				c0.322,0,0.624-0.062,0.903-0.185s0.52-0.295,0.719-0.518c0.199-0.222,0.355-0.486,0.469-0.794
				C4750.011,528.964,4750.068,528.626,4750.068,528.258z"/>
			<path d="M4761.874,528.243c0,0.133-0.007,0.27-0.021,0.411s-0.03,0.288-0.05,0.439h-6.548c0.075,0.236,0.182,0.461,0.319,0.673
				c0.137,0.213,0.305,0.397,0.503,0.553c0.198,0.156,0.423,0.279,0.673,0.369s0.527,0.135,0.829,0.135
				c0.368,0,0.737-0.064,1.106-0.191c0.367-0.128,0.675-0.3,0.92-0.518l1.291,1.29c-0.567,0.425-1.123,0.725-1.666,0.899
				s-1.117,0.263-1.723,0.263c-0.613,0-1.188-0.113-1.721-0.341c-0.535-0.227-0.998-0.533-1.39-0.921s-0.702-0.844-0.929-1.368
				s-0.34-1.084-0.34-1.679c0-0.596,0.113-1.155,0.34-1.68s0.539-0.98,0.936-1.368c0.396-0.387,0.859-0.694,1.389-0.921
				s1.097-0.34,1.701-0.34c0.576,0,1.129,0.105,1.658,0.318s0.997,0.508,1.403,0.886s0.728,0.829,0.964,1.354
				S4761.874,527.61,4761.874,528.243z M4759.734,527.449c-0.162-0.52-0.447-0.938-0.858-1.254s-0.876-0.475-1.396-0.475
				c-0.511,0-0.969,0.158-1.375,0.475s-0.689,0.734-0.851,1.254H4759.734z"/>
			<path d="M4774.998,531.12c-0.416,0.473-0.917,0.832-1.502,1.077c-0.586,0.246-1.201,0.369-1.844,0.369
				c-0.595,0-1.156-0.109-1.686-0.326c-0.529-0.218-0.988-0.518-1.377-0.9c-0.39-0.383-0.697-0.838-0.922-1.367
				c-0.226-0.529-0.338-1.101-0.338-1.715c0-0.604,0.112-1.17,0.338-1.694c0.225-0.524,0.53-0.979,0.915-1.367
				s0.841-0.692,1.37-0.914c0.528-0.223,1.096-0.333,1.699-0.333c0.624,0,1.217,0.113,1.779,0.34s1.051,0.571,1.467,1.034
				l-1.375,1.403c-0.207-0.273-0.461-0.501-0.758-0.68c-0.298-0.18-0.659-0.27-1.084-0.27c-0.313,0-0.607,0.066-0.887,0.198
				c-0.278,0.133-0.523,0.31-0.736,0.531c-0.213,0.223-0.381,0.484-0.504,0.787c-0.122,0.303-0.184,0.623-0.184,0.964
				c0,0.34,0.062,0.661,0.184,0.964c0.123,0.302,0.289,0.564,0.496,0.786c0.209,0.222,0.454,0.399,0.738,0.531
				c0.283,0.133,0.58,0.198,0.893,0.198c0.406,0,0.774-0.097,1.105-0.29c0.33-0.193,0.595-0.441,0.793-0.744L4774.998,531.12z"/>
			<path d="M4783.261,532.353h-2.041v-0.624c-0.132,0.133-0.286,0.248-0.46,0.348c-0.176,0.1-0.359,0.185-0.553,0.255
				c-0.194,0.071-0.393,0.125-0.596,0.163s-0.395,0.057-0.574,0.057c-0.416,0-0.814-0.066-1.197-0.198s-0.721-0.335-1.014-0.609
				s-0.527-0.628-0.701-1.063c-0.176-0.435-0.263-0.949-0.263-1.545v-4.975h2.041v4.876c0,0.293,0.045,0.551,0.135,0.772
				s0.208,0.406,0.354,0.553s0.316,0.255,0.51,0.326c0.193,0.07,0.395,0.106,0.603,0.106c0.661,0,1.233-0.228,1.715-0.681v-5.953
				h2.041V532.353z"/>
			<path d="M4789.525,532.169c-0.208,0.133-0.449,0.231-0.723,0.298c-0.274,0.066-0.549,0.1-0.822,0.1
				c-0.482,0-0.889-0.06-1.219-0.178c-0.331-0.118-0.596-0.3-0.794-0.545c-0.198-0.246-0.343-0.558-0.433-0.936
				s-0.135-0.822-0.135-1.333v-3.585h-1.076v-0.922c0.661-0.273,1.197-0.681,1.608-1.219c0.411-0.539,0.692-1.237,0.843-2.098h0.666
				v2.396h2.07v1.843h-2.07v3.728c0,0.207,0.026,0.378,0.078,0.51c0.053,0.133,0.121,0.236,0.206,0.312
				c0.085,0.076,0.182,0.128,0.29,0.156c0.109,0.028,0.225,0.042,0.348,0.042c0.16,0,0.354-0.028,0.581-0.085
				c0.228-0.057,0.421-0.15,0.581-0.283V532.169z"/>
			<path d="M4797.32,522.729h-2.126v-2.126h2.126V522.729z M4797.292,532.353h-2.069v-8.206h2.069V532.353z"/>
			<path d="M4806.618,532.353h-2.041v-4.89c0-0.293-0.046-0.551-0.136-0.772s-0.211-0.406-0.363-0.553
				c-0.151-0.146-0.324-0.255-0.52-0.326c-0.193-0.07-0.396-0.106-0.604-0.106c-0.314,0-0.622,0.055-0.926,0.163
				s-0.578,0.281-0.826,0.518v5.967h-2.04v-8.192h2.04l0.015,0.609c0.123-0.122,0.274-0.235,0.454-0.34
				c0.18-0.104,0.365-0.191,0.56-0.262c0.193-0.071,0.392-0.126,0.595-0.163c0.203-0.038,0.399-0.057,0.589-0.057
				c0.415,0,0.815,0.065,1.197,0.198c0.383,0.132,0.724,0.335,1.021,0.609c0.298,0.274,0.536,0.628,0.716,1.063
				s0.27,0.95,0.27,1.545V532.353z"/>
			<path d="M4821.16,528.924c0,0.595-0.111,1.122-0.334,1.58c-0.222,0.458-0.52,0.841-0.893,1.148
				c-0.373,0.307-0.811,0.538-1.311,0.694c-0.502,0.155-1.031,0.233-1.588,0.233c-0.973,0-1.843-0.187-2.607-0.56
				c-0.766-0.373-1.455-0.938-2.07-1.693l1.518-1.531c0.17,0.236,0.368,0.459,0.595,0.666c0.227,0.208,0.472,0.39,0.737,0.546
				c0.264,0.156,0.545,0.279,0.844,0.368c0.297,0.09,0.597,0.135,0.899,0.135c0.255,0,0.498-0.035,0.729-0.106
				c0.232-0.07,0.435-0.175,0.609-0.312c0.176-0.137,0.316-0.307,0.426-0.51c0.108-0.203,0.162-0.442,0.162-0.716
				c0-0.35-0.099-0.626-0.297-0.829c-0.199-0.203-0.447-0.356-0.744-0.461c-0.298-0.104-0.614-0.168-0.949-0.191
				c-0.336-0.023-0.637-0.035-0.9-0.035v-1.588c0.255,0,0.539-0.014,0.851-0.042s0.603-0.093,0.872-0.191
				c0.269-0.1,0.496-0.248,0.68-0.446c0.184-0.199,0.276-0.463,0.276-0.794c0-0.246-0.048-0.458-0.142-0.638
				c-0.095-0.18-0.22-0.328-0.376-0.446c-0.155-0.118-0.335-0.206-0.538-0.263s-0.418-0.085-0.645-0.085
				c-1.153,0-2.056,0.482-2.707,1.445l-1.531-1.517c0.566-0.68,1.179-1.178,1.836-1.495c0.656-0.316,1.428-0.475,2.316-0.475
				c0.473,0,0.949,0.073,1.432,0.22s0.919,0.356,1.311,0.631c0.393,0.274,0.711,0.616,0.957,1.027s0.369,0.877,0.369,1.396
				c0,0.265-0.045,0.517-0.135,0.758s-0.208,0.463-0.354,0.666s-0.321,0.388-0.524,0.553c-0.203,0.166-0.418,0.305-0.645,0.418
				c0.255,0.095,0.496,0.223,0.723,0.383c0.227,0.161,0.425,0.348,0.596,0.561c0.17,0.212,0.305,0.444,0.403,0.694
				S4821.16,528.64,4821.16,528.924z"/>
			<path d="M4834.992,532.353h-2.041v-4.89c0-0.576-0.139-1.014-0.418-1.312c-0.279-0.297-0.621-0.446-1.027-0.446
				c-0.313,0-0.607,0.05-0.886,0.149c-0.278,0.099-0.551,0.262-0.815,0.488c0.086,0.331,0.128,0.704,0.128,1.12v4.89h-2.041v-4.89
				c0-0.576-0.14-1.014-0.418-1.312c-0.278-0.297-0.616-0.446-1.014-0.446c-0.312,0-0.586,0.055-0.821,0.163
				c-0.236,0.108-0.482,0.281-0.738,0.518v5.967h-2.04v-8.192h2.04l0.003,0.609c0.255-0.245,0.556-0.443,0.901-0.595
				s0.697-0.227,1.057-0.227c0.397,0,0.797,0.09,1.199,0.269c0.402,0.18,0.754,0.439,1.057,0.78
				c0.426-0.378,0.856-0.647,1.292-0.809c0.435-0.16,0.913-0.24,1.433-0.24c0.426,0,0.83,0.063,1.214,0.191
				c0.383,0.127,0.716,0.33,1,0.609c0.284,0.278,0.511,0.633,0.681,1.063c0.171,0.43,0.256,0.947,0.256,1.552V532.353z"/>
			<path d="M4848.669,532.353h-2.04v-4.89c0-0.576-0.141-1.014-0.419-1.312c-0.278-0.297-0.621-0.446-1.027-0.446
				c-0.312,0-0.607,0.05-0.886,0.149c-0.279,0.099-0.551,0.262-0.814,0.488c0.084,0.331,0.127,0.704,0.127,1.12v4.89h-2.041v-4.89
				c0-0.576-0.14-1.014-0.418-1.312c-0.279-0.297-0.617-0.446-1.014-0.446c-0.312,0-0.586,0.055-0.822,0.163
				s-0.481,0.281-0.736,0.518v5.967h-2.041v-8.192h2.041l0.002,0.609c0.256-0.245,0.556-0.443,0.9-0.595
				c0.346-0.151,0.698-0.227,1.059-0.227c0.396,0,0.797,0.09,1.198,0.269c0.402,0.18,0.755,0.439,1.058,0.78
				c0.426-0.378,0.855-0.647,1.291-0.809c0.436-0.16,0.912-0.24,1.434-0.24c0.426,0,0.83,0.063,1.213,0.191
				c0.383,0.127,0.717,0.33,1,0.609c0.283,0.278,0.511,0.633,0.682,1.063c0.17,0.43,0.255,0.947,0.255,1.552V532.353z"/>
			<path d="M4866.811,532.353h-2.041v-4.89c0-0.576-0.139-1.014-0.418-1.312c-0.279-0.297-0.621-0.446-1.027-0.446
				c-0.313,0-0.607,0.05-0.886,0.149c-0.278,0.099-0.551,0.262-0.815,0.488c0.086,0.331,0.128,0.704,0.128,1.12v4.89h-2.041v-4.89
				c0-0.576-0.14-1.014-0.418-1.312c-0.278-0.297-0.616-0.446-1.014-0.446c-0.312,0-0.586,0.055-0.821,0.163
				c-0.236,0.108-0.482,0.281-0.738,0.518v5.967h-2.04v-8.192h2.04l0.003,0.609c0.255-0.245,0.556-0.443,0.901-0.595
				s0.697-0.227,1.057-0.227c0.397,0,0.797,0.09,1.199,0.269c0.402,0.18,0.754,0.439,1.057,0.78
				c0.426-0.378,0.856-0.647,1.292-0.809c0.435-0.16,0.913-0.24,1.433-0.24c0.426,0,0.83,0.063,1.214,0.191
				c0.383,0.127,0.716,0.33,1,0.609c0.284,0.278,0.511,0.633,0.681,1.063c0.171,0.43,0.256,0.947,0.256,1.552V532.353z"/>
			<path d="M4875.003,532.353h-2.041v-0.439c-0.358,0.246-0.739,0.416-1.141,0.511c-0.401,0.094-0.815,0.142-1.24,0.142
				c-0.397,0-0.757-0.06-1.077-0.178c-0.321-0.118-0.6-0.288-0.836-0.51s-0.418-0.484-0.546-0.787
				c-0.128-0.302-0.191-0.638-0.191-1.006c0-0.463,0.102-0.867,0.305-1.212s0.479-0.633,0.829-0.864s0.758-0.404,1.227-0.518
				c0.467-0.113,0.971-0.17,1.509-0.17h1.177c0-0.482-0.156-0.865-0.469-1.148c-0.311-0.283-0.76-0.425-1.346-0.425
				c-0.283,0-0.576,0.052-0.879,0.155c-0.303,0.104-0.604,0.293-0.906,0.567l-1.205-1.219c0.434-0.416,0.938-0.737,1.51-0.964
				c0.57-0.227,1.159-0.34,1.764-0.34c0.566,0,1.072,0.09,1.515,0.269c0.442,0.18,0.8,0.411,1.071,0.694
				c0.357,0.359,0.607,0.761,0.754,1.205c0.145,0.444,0.218,1.012,0.218,1.701V532.353z M4872.962,530.312v-1.517h-0.935
				c-0.284,0-0.551,0.02-0.801,0.057c-0.251,0.038-0.469,0.102-0.652,0.191c-0.185,0.09-0.331,0.206-0.439,0.348
				c-0.109,0.142-0.163,0.312-0.163,0.51c0,0.283,0.11,0.516,0.333,0.694c0.222,0.18,0.508,0.27,0.857,0.27
				c0.303,0,0.603-0.047,0.9-0.142C4872.359,530.629,4872.66,530.492,4872.962,530.312z"/>
			<path d="M4881.14,532.169c-0.208,0.133-0.448,0.231-0.723,0.298s-0.548,0.1-0.822,0.1c-0.481,0-0.888-0.06-1.219-0.178
				s-0.595-0.3-0.794-0.545c-0.198-0.246-0.342-0.558-0.432-0.936s-0.135-0.822-0.135-1.333v-3.585h-1.078v-0.922
				c0.662-0.273,1.198-0.681,1.609-1.219c0.411-0.539,0.691-1.237,0.844-2.098h0.666v2.396h2.068v1.843h-2.068v3.728
				c0,0.207,0.025,0.378,0.078,0.51c0.051,0.133,0.12,0.236,0.205,0.312c0.085,0.076,0.182,0.128,0.291,0.156
				c0.107,0.028,0.224,0.042,0.347,0.042c0.161,0,0.354-0.028,0.581-0.085s0.42-0.15,0.581-0.283V532.169z"/>
			<path d="M4890.806,528.243c0,0.133-0.007,0.27-0.021,0.411s-0.03,0.288-0.05,0.439h-6.548c0.075,0.236,0.182,0.461,0.319,0.673
				c0.137,0.213,0.305,0.397,0.503,0.553c0.198,0.156,0.423,0.279,0.673,0.369s0.527,0.135,0.829,0.135
				c0.368,0,0.737-0.064,1.106-0.191c0.367-0.128,0.675-0.3,0.92-0.518l1.291,1.29c-0.567,0.425-1.123,0.725-1.666,0.899
				s-1.117,0.263-1.723,0.263c-0.613,0-1.188-0.113-1.721-0.341c-0.535-0.227-0.998-0.533-1.39-0.921s-0.702-0.844-0.929-1.368
				s-0.34-1.084-0.34-1.679c0-0.596,0.113-1.155,0.34-1.68s0.539-0.98,0.936-1.368c0.396-0.387,0.859-0.694,1.389-0.921
				s1.097-0.34,1.701-0.34c0.576,0,1.129,0.105,1.658,0.318s0.997,0.508,1.403,0.886s0.728,0.829,0.964,1.354
				S4890.806,527.61,4890.806,528.243z M4888.666,527.449c-0.162-0.52-0.447-0.938-0.858-1.254s-0.876-0.475-1.396-0.475
				c-0.511,0-0.969,0.158-1.375,0.475s-0.689,0.734-0.851,1.254H4888.666z"/>
			<path d="M4897.963,525.011l-1.091,1.729c-0.198-0.218-0.419-0.409-0.659-0.574c-0.241-0.165-0.484-0.248-0.73-0.248
				c-0.132,0-0.275,0.03-0.432,0.092s-0.303,0.163-0.439,0.305s-0.253,0.329-0.348,0.561c-0.094,0.231-0.142,0.517-0.142,0.857v4.62
				h-2.04v-8.192h2.04v0.879c0.245-0.35,0.518-0.618,0.815-0.808c0.297-0.189,0.631-0.283,0.999-0.283
				c0.358,0,0.711,0.097,1.056,0.29C4897.338,524.433,4897.66,524.69,4897.963,525.011z"/>
			<path d="M4900.813,522.729h-2.127v-2.126h2.127V522.729z M4900.783,532.353h-2.068v-8.206h2.068V532.353z"/>
			<path d="M4909.301,532.353h-2.041v-0.439c-0.358,0.246-0.738,0.416-1.141,0.511c-0.401,0.094-0.814,0.142-1.24,0.142
				c-0.396,0-0.756-0.06-1.076-0.178c-0.322-0.118-0.601-0.288-0.837-0.51s-0.418-0.484-0.546-0.787
				c-0.127-0.302-0.191-0.638-0.191-1.006c0-0.463,0.102-0.867,0.305-1.212s0.48-0.633,0.83-0.864s0.758-0.404,1.226-0.518
				s0.971-0.17,1.509-0.17h1.177c0-0.482-0.155-0.865-0.468-1.148c-0.312-0.283-0.76-0.425-1.346-0.425
				c-0.284,0-0.577,0.052-0.879,0.155c-0.303,0.104-0.605,0.293-0.907,0.567l-1.205-1.219c0.435-0.416,0.938-0.737,1.51-0.964
				s1.159-0.34,1.765-0.34c0.566,0,1.071,0.09,1.514,0.269c0.443,0.18,0.801,0.411,1.072,0.694c0.357,0.359,0.607,0.761,0.753,1.205
				s0.218,1.012,0.218,1.701V532.353z M4907.26,530.312v-1.517h-0.935c-0.284,0-0.551,0.02-0.801,0.057
				c-0.251,0.038-0.468,0.102-0.652,0.191s-0.331,0.206-0.439,0.348s-0.163,0.312-0.163,0.51c0,0.283,0.111,0.516,0.334,0.694
				c0.221,0.18,0.508,0.27,0.857,0.27c0.302,0,0.602-0.047,0.899-0.142S4906.958,530.492,4907.26,530.312z"/>
			<path d="M4914.332,532.31c-0.16,0.076-0.342,0.138-0.545,0.185s-0.414,0.071-0.631,0.071c-0.303,0-0.594-0.041-0.871-0.121
				c-0.279-0.08-0.523-0.21-0.73-0.39c-0.208-0.179-0.373-0.413-0.496-0.701s-0.184-0.636-0.184-1.042v-9.723h2.083v9.368
				c0,0.341,0.068,0.574,0.205,0.702c0.138,0.127,0.3,0.191,0.489,0.191c0.236,0,0.463-0.071,0.68-0.213V532.31z"/>
		</g>
	</g>
	<g>
		<g enable-background="new    ">
			<path d="M5112.842,328.429c0.08-0.775,0-1.672-0.123-2.896c-0.285-2.08-1.143-4.038-2.57-5.547
				c-1.59-1.754-3.916-3.018-7.055-3.508v0.123c1.793,1.468,2.854,3.589,2.854,6.24c0,4.772-3.588,7.831-8.115,7.831
				c-5.018,0-9.422-3.63-9.422-9.055c0-5.424,4.404-8.769,11.176-8.769c5.832,0,9.91,1.958,12.439,4.568
				c1.998,2.039,3.223,4.854,3.549,7.708c0.203,1.305,0.244,2.447,0.203,3.304H5112.842z M5097.586,327.124
				c3.305,0,5.629-1.999,5.629-5.098c0-2.407-1.182-4.283-2.773-5.221c-0.326-0.204-0.734-0.327-1.305-0.327
				c-4.527,0-7.994,1.672-7.994,5.425C5091.143,324.962,5093.834,327.124,5097.586,327.124z"/>
			<path d="M5101.828,291.968c9.014,0,13.99,3.344,13.99,9.218c0,5.18-4.854,8.688-13.623,8.769c-8.891,0-13.785-3.834-13.785-9.218
				C5088.41,295.149,5093.385,291.968,5101.828,291.968z M5102.236,306.365c6.893,0,10.809-2.121,10.809-5.384
				c0-3.671-4.283-5.425-11.053-5.425c-6.527,0-10.809,1.672-10.809,5.384C5091.184,304.081,5095.018,306.365,5102.236,306.365z"/>
			<path d="M5100.973,287.525c-2.041,0-3.713,0.041-5.344,0.163v-3.141l3.182-0.163v-0.122c-1.877-1.102-3.631-2.937-3.631-6.2
				c0-2.692,1.633-4.731,3.957-5.588v-0.082c-1.102-0.612-1.957-1.387-2.57-2.203c-0.896-1.183-1.387-2.488-1.387-4.364
				c0-2.61,1.713-6.485,8.566-6.485h11.623v3.508h-11.176c-3.793,0-6.076,1.387-6.076,4.283c0,2.039,1.508,3.63,3.262,4.242
				c0.49,0.163,1.143,0.286,1.795,0.286h12.195v3.507h-11.828c-3.141,0-5.424,1.387-5.424,4.12c0,2.243,1.795,3.875,3.59,4.446
				c0.529,0.204,1.141,0.286,1.752,0.286h11.91v3.507H5100.973z"/>
			<path d="M5100.973,253.511c-2.041,0-3.713,0.041-5.344,0.163v-3.141l3.182-0.163v-0.122c-1.877-1.102-3.631-2.937-3.631-6.2
				c0-2.692,1.633-4.731,3.957-5.588v-0.082c-1.102-0.612-1.957-1.387-2.57-2.203c-0.896-1.183-1.387-2.488-1.387-4.364
				c0-2.61,1.713-6.485,8.566-6.485h11.623v3.508h-11.176c-3.793,0-6.076,1.387-6.076,4.283c0,2.039,1.508,3.63,3.262,4.242
				c0.49,0.163,1.143,0.286,1.795,0.286h12.195v3.507h-11.828c-3.141,0-5.424,1.387-5.424,4.12c0,2.243,1.795,3.875,3.59,4.446
				c0.529,0.204,1.141,0.286,1.752,0.286h11.91v3.507H5100.973z"/>
		</g>
		<g enable-background="new    ">
			<path d="M5124.182,303.502c1.706,1.271,3.97,2.193,7.121,2.193c3.099,0,5.327-0.958,7.068-2.193v1.201
				c-1.445,1.097-3.674,2.281-7.068,2.281c-3.43-0.018-5.658-1.184-7.121-2.281V303.502z"/>
			<path d="M5123.903,294.605h10.185c0.749,0,1.603-0.018,2.177-0.07v1.375l-1.463,0.07v0.035c0.94,0.47,1.654,1.497,1.654,2.873
				c0,2.037-1.724,3.604-4.283,3.604c-2.803,0.018-4.526-1.724-4.526-3.778c0-1.289,0.609-2.159,1.288-2.542v-0.035h-5.031V294.605z
				 M5131.268,296.137c-0.191,0-0.452,0.017-0.644,0.069c-0.976,0.227-1.776,1.062-1.776,2.211c0,1.584,1.393,2.525,3.256,2.525
				c1.706,0,3.116-0.836,3.116-2.49c0-1.027-0.679-1.967-1.828-2.246c-0.209-0.052-0.418-0.069-0.661-0.069H5131.268z"/>
			<path d="M5132.33,291.209c2.071-0.035,2.925-1.358,2.925-2.89c0-1.097-0.191-1.758-0.436-2.333l1.097-0.261
				c0.244,0.54,0.522,1.462,0.522,2.803c0,2.594-1.706,4.144-4.248,4.144s-4.544-1.497-4.544-3.952c0-2.751,2.42-3.482,3.97-3.482
				c0.313,0,0.557,0.035,0.714,0.052V291.209z M5131.233,286.718c-0.976-0.018-2.49,0.4-2.49,2.124c0,1.549,1.428,2.229,2.49,2.35
				V286.718z"/>
			<path d="M5136.265,283.182h-7.26v1.184h-1.167v-1.184h-0.4c-1.184,0-2.264-0.261-2.942-0.975
				c-0.557-0.574-0.783-1.34-0.783-2.054c0-0.54,0.122-1.01,0.244-1.306l1.184,0.209c-0.104,0.226-0.191,0.54-0.191,0.975
				c0,1.306,1.148,1.637,2.438,1.637h0.452v-2.037h1.167v2.037h7.26V283.182z"/>
			<path d="M5136.265,273.589l-1.063,0.122v0.052c0.662,0.47,1.254,1.375,1.254,2.577c0,1.706-1.201,2.577-2.42,2.577
				c-2.037,0-3.151-1.811-3.134-5.066h-0.174c-0.696,0-1.95,0.191-1.95,1.915c0,0.784,0.244,1.602,0.627,2.194l-1.01,0.348
				c-0.453-0.696-0.749-1.706-0.749-2.768c0-2.577,1.759-3.204,3.447-3.204h3.151c0.731,0,1.445-0.035,2.02-0.139V273.589z
				 M5131.964,273.816c-0.034,1.671,0.262,3.569,1.898,3.569c0.992,0,1.462-0.662,1.462-1.445c0-1.097-0.696-1.793-1.41-2.037
				c-0.156-0.052-0.331-0.087-0.487-0.087H5131.964z"/>
			<path d="M5133.967,262.812c0.87,0,1.637-0.017,2.298-0.069v1.358l-1.375,0.087v0.035c0.679,0.401,1.566,1.289,1.566,2.786
				c0,1.323-0.731,2.908-3.69,2.908h-4.928v-1.532h4.666c1.602,0,2.682-0.487,2.682-1.88c0-1.027-0.714-1.741-1.394-2.02
				c-0.226-0.087-0.505-0.139-0.783-0.139h-5.171v-1.532H5133.967z"/>
			<path d="M5123.903,260.269v-1.532h12.361v1.532H5123.903z"/>
			<path d="M5125.418,254.315h2.42v-2.194h1.167v2.194h4.544c1.044,0,1.637-0.296,1.637-1.149c0-0.4-0.053-0.696-0.104-0.888
				l1.148-0.07c0.122,0.296,0.209,0.766,0.209,1.358c0,0.714-0.226,1.289-0.644,1.654c-0.453,0.435-1.202,0.592-2.194,0.592h-4.596
				v1.306h-1.167v-1.306h-2.02L5125.418,254.315z"/>
			<path d="M5138.371,251.32c-1.724-1.236-3.986-2.194-7.12-2.194c-3.117,0-5.346,0.94-7.069,2.194v-1.184
				c1.428-1.114,3.656-2.281,7.086-2.281c3.413,0,5.624,1.167,7.104,2.281V251.32z"/>
		</g>
		
			<line fill="none" stroke="#000000" stroke-width="5.6693" stroke-miterlimit="10" x1="5078.908" y1="151.258" x2="5161.828" y2="151.258"/>
		
			<line fill="none" stroke="#000000" stroke-width="5.6693" stroke-miterlimit="10" x1="5161.828" y1="406.375" x2="5078.908" y2="406.375"/>
	</g>
</g>
</svg>
